<svg width="36" height="37" viewBox="0 0 36 37" fill="none" xmlns="http://www.w3.org/2000/svg">
<g clip-path="url(#clip0_779_3792)">
<path d="M9.66634 34.6888H4.66634C3.78229 34.6888 2.93444 34.3376 2.30932 33.7125C1.6842 33.0874 1.33301 32.2395 1.33301 31.3555V19.6888C1.33301 18.8047 1.6842 17.9569 2.30932 17.3318C2.93444 16.7067 3.78229 16.3555 4.66634 16.3555H9.66634M21.333 13.0221V6.35547C21.333 5.02939 20.8062 3.75762 19.8685 2.81993C18.9309 1.88225 17.6591 1.35547 16.333 1.35547L9.66634 16.3555V34.6888H28.4663C29.2702 34.6979 30.0503 34.4161 30.6629 33.8955C31.2754 33.3748 31.6791 32.6503 31.7997 31.8555L34.0997 16.8555C34.1722 16.3777 34.14 15.8899 34.0052 15.4259C33.8705 14.9618 33.6365 14.5326 33.3194 14.168C33.0024 13.8034 32.6098 13.512 32.169 13.3142C31.7281 13.1163 31.2495 13.0167 30.7663 13.0221H21.333Z" stroke="#333E63" stroke-width="1.83333" stroke-linecap="round" stroke-linejoin="round"/>
</g>
<defs>
<clipPath id="clip0_779_3792">
<rect width="36" height="36" fill="white" transform="translate(0 0.0224609)"/>
</clipPath>
</defs>
</svg>
