<svg width="222" height="487" viewBox="0 0 222 487" fill="none" xmlns="http://www.w3.org/2000/svg">
<path d="M90.026 95.4903C90.026 95.4903 54.9543 103.655 53.9877 106.008C53.0212 108.361 56.197 225.994 56.197 230.699C56.197 235.404 63.1009 239.971 65.4482 239.971C67.7955 239.971 136.558 238.172 140.148 237.757C143.738 237.342 152.299 235.958 152.851 230.976C153.404 225.994 150.366 203.297 150.366 203.297L155.337 155.691C155.337 155.691 209.325 191.119 214.848 190.842C220.371 190.565 221.062 177.556 221.062 177.556L202.697 89.9546C202.697 89.9546 206.425 79.9904 206.978 76.2538C207.53 72.5172 193.308 64.0754 192.065 63.5218C190.823 62.9682 190.27 39.58 189.58 37.3658C188.89 35.1515 185.299 34.3212 184.057 36.1203C182.814 37.9193 183.504 64.0754 183.504 64.0754C183.504 64.0754 173.287 43.1782 172.32 41.6559C171.354 40.1336 167.764 39.4417 168.592 44.147C169.421 48.8523 177.981 71.1333 177.981 71.1333C177.981 71.1333 174.253 79.4368 176.739 81.9279C179.224 84.4189 191.513 99.0884 191.513 99.0884L194.275 149.463C194.275 149.463 167.626 113.481 164.174 110.298C159.893 106.7 155.199 103.794 149.952 101.856C146.638 100.888 116.675 93.5528 116.675 93.5528L90.026 95.4903Z" fill="white" stroke="#263238" stroke-miterlimit="10"/>
<path d="M194.137 149.463L193.309 168.423" stroke="#263238" stroke-miterlimit="10"/>
<path d="M192.617 57.8477C192.617 57.8477 186.68 73.7627 188.337 75.285C189.994 76.8073 192.065 78.7448 193.998 76.5305C195.931 74.3163 199.935 61.861 199.659 59.5084C199.383 57.1557 194.136 55.9102 192.617 57.8477Z" fill="white" stroke="#263238" stroke-miterlimit="10"/>
<path d="M199.797 59.6469C201.869 60.4772 203.802 61.7227 205.459 63.1066C207.254 64.9057 206.425 66.5664 204.492 72.1021C202.559 77.6378 199.245 80.4056 197.312 78.6065C196.207 77.6378 195.379 76.1155 195.379 74.5931L199.797 59.6469Z" fill="white" stroke="#263238" stroke-miterlimit="10"/>
<path d="M190.823 96.5974C190.823 96.5974 174.944 82.6198 174.668 79.5752C174.392 76.5306 189.58 63.1066 191.789 63.6602C193.999 64.2138 193.722 67.9503 192.066 70.4414C190.409 72.9324 186.819 79.4368 186.819 79.4368C186.819 79.4368 192.48 80.4056 193.999 84.6957C195.517 88.9859 194.689 96.459 194.689 96.459" fill="white"/>
<path d="M190.823 96.5974C190.823 96.5974 174.944 82.6198 174.668 79.5752C174.392 76.5306 189.58 63.1066 191.789 63.6602C193.999 64.2138 193.722 67.9503 192.066 70.4414C190.409 72.9324 186.819 79.4368 186.819 79.4368C186.819 79.4368 192.48 80.4056 193.999 84.6957C195.517 88.9859 194.689 96.459 194.689 96.459" stroke="#263238" stroke-miterlimit="10"/>
<path d="M66.0005 249.659L54.2639 232.498C54.1258 232.498 53.8497 232.498 53.7116 232.498L32.7238 171.467L54.2639 161.226L53.9878 106.008C53.9878 106.008 45.9793 116.803 42.5273 120.678C40.8704 122.477 1.65639 164.548 0.689845 169.945C-0.276698 175.342 34.2427 225.578 34.9331 226.547C35.3473 227.239 40.18 235.266 43.77 239.694L43.4939 239.971L47.36 252.98C45.427 252.98 43.9081 254.502 43.9081 256.301V256.44C43.9081 259.9 47.7743 261.145 49.9835 262.806C51.6405 264.19 53.8497 264.743 56.0589 264.051C57.7159 263.221 59.2347 261.975 60.4774 260.591L62.6867 259.623C64.2055 258.792 65.3101 257.408 65.8624 255.748L66.829 254.225C67.6574 252.426 66.0005 249.659 66.0005 249.659Z" fill="white" stroke="#263238" stroke-miterlimit="10"/>
<path d="M174.116 460.152L178.535 464.304C178.535 464.304 197.313 477.313 198.28 478.558C199.246 479.804 198.97 481.464 198.004 482.987C197.175 484.094 196.071 484.924 194.828 485.478H154.923C154.923 485.478 153.405 484.232 153.957 479.389C154.509 474.545 155.338 467.625 155.338 467.625L174.116 460.152Z" fill="white" stroke="#263238" stroke-miterlimit="10"/>
<path d="M198.003 483.125C198.279 482.71 198.417 482.295 198.694 481.88H153.818C153.818 484.786 154.923 485.754 154.923 485.754H194.827C196.07 485.063 197.175 484.232 198.003 483.125Z" fill="white" stroke="#263238" stroke-miterlimit="10"/>
<path d="M58.4062 230.56L61.582 359.126L70.1428 452.817L68.9001 455.723L68.624 463.058C70.9713 463.75 73.4567 464.165 75.9421 464.027C81.051 464.027 91.1306 467.487 91.1306 467.487C91.1306 467.487 94.0303 448.804 94.5826 439.808C95.1349 430.813 101.486 320.377 101.486 320.377L105.629 279.966L109.495 278.997L131.725 394.001L155.475 467.764L174.115 460.152C174.115 460.152 175.082 454.478 175.082 452.817C175.082 451.157 172.873 445.898 172.873 445.898L164.312 343.626L149.399 231.252L58.4062 230.56Z" fill="#263238" stroke="#263238" stroke-miterlimit="10"/>
<path d="M70.8323 459.599L64.4807 470.116C64.4807 470.116 52.7441 479.389 51.7776 481.603C51.2253 482.987 51.5014 484.647 52.468 485.755H90.1632L91.1297 467.625C91.1297 467.487 77.0458 459.322 70.8323 459.599Z" fill="white" stroke="#263238" stroke-miterlimit="10"/>
<path d="M90.3032 481.88H51.6415C51.2273 483.263 51.5034 484.647 52.3319 485.754H90.027L90.3032 481.88Z" fill="white" stroke="#263238" stroke-miterlimit="10"/>
<path d="M164.036 110.298C159.755 106.7 155.061 103.794 149.814 101.856C146.5 100.888 116.537 93.5528 116.537 93.5528L90.026 95.4903C90.026 95.4903 54.9543 103.655 53.9877 106.008C53.0212 108.361 56.197 225.994 56.197 230.699C56.197 235.404 63.1009 239.971 65.4482 239.971C67.7955 239.971 136.558 238.172 140.148 237.757C143.738 237.342 152.299 235.958 152.851 230.976C153.404 225.994 150.366 203.297 150.366 203.297L155.337 155.691C155.337 155.691 165.692 162.472 177.705 170.083L189.442 143.235C181.571 132.579 166.521 112.651 164.036 110.298Z" fill="#B0BEC5" stroke="#263238" stroke-miterlimit="10"/>
<path d="M42.5283 120.678C41.6998 121.646 30.2394 133.825 19.6074 146.003L37.4194 169.391L54.403 161.365L54.1268 106.146C53.9887 106.008 45.9802 116.803 42.5283 120.678Z" fill="#B0BEC5" stroke="#263238" stroke-miterlimit="10"/>
<path d="M156.856 126.075L155.199 155.691L162.241 131.887" stroke="#263238" stroke-miterlimit="10"/>
<path d="M94.3072 87.0484C94.3072 87.0484 87.5414 92.4457 87.1271 94.5215C86.851 96.3206 86.7129 97.9813 86.7129 99.7804C86.7129 99.7804 94.7214 139.36 95.9641 138.392C97.2068 137.423 107.425 122.061 109.496 119.294C111.567 116.526 115.571 115.834 116.538 116.526C117.504 117.218 135.592 136.454 136.559 133.271C137.525 130.088 131.726 99.642 127.17 91.8921C122.613 84.1422 97.7591 83.1734 94.3072 87.0484Z" fill="white" stroke="#263238" stroke-miterlimit="10"/>
<path d="M90.1641 77.2225L94.1683 99.5036C94.1683 99.5036 108.252 131.887 114.604 129.673C120.955 127.459 125.65 94.6599 125.788 93.8295C125.926 92.9992 125.236 80.4055 125.236 80.4055C125.236 80.4055 126.202 84.0037 112.118 82.2046C104.662 81.3743 97.3441 79.7136 90.1641 77.2225Z" fill="white" stroke="#263238" stroke-miterlimit="10"/>
<path d="M94.0308 98.3964C99.0016 99.2268 108.391 100.196 114.19 95.4902C118.747 91.7537 122.475 86.9099 124.96 81.5127C123.994 82.343 121.094 83.4502 112.395 82.2046C104.801 81.3743 97.4828 79.7136 90.3027 77.2225L94.0308 98.3964Z" fill="#263238" stroke="#263238" stroke-miterlimit="10"/>
<path d="M129.792 53.696C129.792 53.696 131.863 65.3209 129.377 71.4102C126.892 77.4994 122.335 86.6332 118.331 88.2939C114.327 89.9546 108.113 88.7091 101.624 85.8029C97.0672 83.727 92.9248 81.0976 88.9206 78.053C85.8829 78.1914 82.8452 77.2226 80.6359 75.0084C76.9078 71.4102 72.9036 67.812 74.1463 63.7986C75.389 59.7853 76.3555 58.8165 76.3555 58.8165V52.0353C76.3555 52.0353 72.9036 40.964 72.6274 36.3971C72.3513 31.8302 85.1925 17.1607 94.5818 14.9464C103.971 12.7321 113.775 19.6517 117.088 23.2499C120.402 26.8481 128.687 31.8302 128.825 33.7677C128.963 35.7051 129.792 53.696 129.792 53.696Z" fill="white" stroke="#263238" stroke-miterlimit="10"/>
<path d="M129.793 53.696C129.793 53.696 132.002 50.6514 133.797 51.7585C135.592 52.8656 137.249 58.9549 134.488 62.553C133.383 64.3521 131.864 65.8744 130.345 67.2584C130.483 67.3968 130.345 55.2183 129.793 53.696Z" fill="white" stroke="#263238" stroke-miterlimit="10"/>
<path d="M110.876 45.1157C110.876 45.1157 110.876 51.7585 111.429 52.7273C111.981 53.696 117.504 55.9103 116.952 57.4326C116.399 58.9549 110.738 60.3388 110.738 60.3388" stroke="#263238" stroke-miterlimit="10"/>
<path d="M98.5859 66.9816C98.5859 66.9816 106.18 69.8878 109.632 69.8878C113.084 69.8878 118.745 64.2137 119.712 62.8298" stroke="#263238" stroke-miterlimit="10"/>
<path d="M96.2403 50.3746C96.6546 52.0353 96.3784 53.5576 95.5499 53.8344C94.7215 54.1112 93.7549 52.8657 93.3407 51.205C92.9265 49.5443 93.2026 48.0219 94.0311 47.7452C94.8596 47.4684 95.8261 48.7139 96.2403 50.3746Z" fill="#263238"/>
<path d="M117.642 47.4683C118.056 49.129 117.78 50.6513 116.952 50.9281C116.123 51.2049 115.019 49.821 114.604 48.1603C114.19 46.4996 114.466 44.9773 115.295 44.7005C116.123 44.4237 117.228 45.8076 117.642 47.4683Z" fill="#263238"/>
<path d="M87.541 44.9774C90.1645 42.4863 93.7545 41.1024 97.3445 41.2408" stroke="#263238" stroke-miterlimit="10"/>
<path d="M111.98 39.8568C114.604 37.5042 118.47 37.3658 121.232 39.4417" stroke="#263238" stroke-miterlimit="10"/>
<path d="M95.825 24.2186C95.825 24.2186 89.6115 37.5042 85.1931 41.6559L80.7746 45.8077C80.7746 45.8077 85.3311 62.6915 84.7788 63.7986C84.2265 64.9057 83.26 65.3209 82.8457 63.7986C82.4315 62.2763 82.1554 60.8924 80.9127 60.6156C79.67 60.3388 76.3561 58.6781 76.3561 58.6781L70.1426 42.7631C70.1426 42.7631 65.0337 37.2274 66.4145 32.5221C67.7953 27.8168 72.2138 19.6517 72.2138 19.6517C72.2138 19.6517 69.5903 18.6829 70.6949 16.607C71.7995 14.5312 83.5361 14.5312 83.5361 14.5312C83.5361 14.5312 84.6408 8.02677 88.2308 7.05803C91.8208 6.08929 91.8208 7.4732 91.8208 7.4732C91.8208 7.4732 105.352 0.415232 113.085 0.692015C120.817 0.968798 144.29 21.5891 142.081 24.4954C139.872 27.4016 131.725 29.2007 131.725 29.2007C131.725 29.2007 131.587 53.004 130.621 53.2808L129.792 53.696L126.202 32.9373C126.202 32.9373 102.315 29.2007 95.825 24.2186Z" fill="#263238" stroke="#263238" stroke-miterlimit="10"/>
</svg>
