<svg width="260" height="487" viewBox="0 0 260 487" fill="none" xmlns="http://www.w3.org/2000/svg">
<g clip-path="url(#clip0_566_3421)">
<path d="M-13 472.626H243" stroke="white" stroke-miterlimit="10"/>
<path d="M177.911 158.299L183.766 183.25C183.766 183.25 176.141 191.929 169.196 188.674C162.251 185.42 159.664 167.249 159.664 167.249L177.911 158.299Z" fill="white" stroke="#263238" stroke-linecap="round" stroke-linejoin="round"/>
<path d="M160.208 96.4643C164.293 99.99 167.153 104.872 168.106 110.296C169.468 118.974 189.076 176.741 189.076 176.741C181.859 175.521 174.642 176.199 167.697 178.504C157.212 182.436 146.455 172.131 146.455 172.131L145.91 103.922" fill="#B0BEC5"/>
<path d="M160.208 96.4643C164.293 99.99 167.153 104.872 168.106 110.296C169.468 118.974 189.076 176.741 189.076 176.741C181.859 175.521 174.642 176.199 167.697 178.504C157.212 182.436 146.455 172.131 146.455 172.131L145.91 103.922" stroke="#263238" stroke-linecap="round" stroke-linejoin="round"/>
<path d="M160.209 150.163L165.52 124.127" stroke="#263238" stroke-linecap="round" stroke-linejoin="round"/>
<path d="M36.0221 169.961C41.7413 149.756 53.3158 115.72 55.4945 108.533C58.4902 98.6339 63.8009 95.9219 63.8009 95.9219L71.5626 144.332L68.5668 150.841C68.5668 150.841 60.1243 174.165 53.7243 185.826L71.2902 222.71L77.4179 235.728L69.6562 246.983C69.6562 246.983 33.9796 192.064 32.2094 188.132C30.303 184.199 36.0221 169.961 36.0221 169.961Z" fill="white" stroke="#263238" stroke-linecap="round" stroke-linejoin="round"/>
<path d="M65.9796 95.1083C61.6222 96.4643 57.8094 99.312 55.4945 103.38C51.2733 110.296 29.8945 179.996 29.8945 179.996C34.3881 183.386 39.5626 185.555 45.1456 186.505C49.6392 187.318 54.1328 187.454 58.6264 186.911L71.2903 154.095" fill="#B0BEC5"/>
<path d="M65.9796 95.1083C61.6222 96.4643 57.8094 99.312 55.4945 103.38C51.2733 110.296 29.8945 179.996 29.8945 179.996C34.3881 183.386 39.5626 185.555 45.1456 186.504C49.6392 187.318 54.1328 187.454 58.6264 186.911L71.2903 154.095" stroke="#263238" stroke-linecap="round" stroke-linejoin="round"/>
<path d="M58.0818 129.28L68.5669 158.842L54.1328 141.078" stroke="#263238" stroke-linecap="round" stroke-linejoin="round"/>
<path d="M166.88 459.473C166.88 459.473 166.88 461.236 177.91 470.457C188.94 479.678 191.119 482.39 187.987 485.373C184.855 488.492 169.876 482.796 164.974 479.677C160.072 476.559 162.387 476.559 156.531 473.982C150.676 471.406 153.399 462.185 154.353 459.879C155.442 457.71 166.88 459.473 166.88 459.473Z" fill="white" stroke="#263238" stroke-linecap="round" stroke-linejoin="round"/>
<path d="M60.1238 457.439C60.1238 457.439 60.1238 459.201 49.094 468.422C38.0643 477.643 35.8855 480.356 38.8813 483.339C42.0132 486.458 56.9919 480.762 61.894 477.643C66.7962 474.525 64.6175 474.525 70.3366 471.948C76.0558 469.372 73.4685 460.015 72.5153 457.845C71.5621 455.811 60.1238 457.439 60.1238 457.439Z" fill="white" stroke="#263238" stroke-linecap="round" stroke-linejoin="round"/>
<path d="M66.9321 292.953C65.5704 278.172 68.7023 249.153 68.7023 245.627C68.7023 242.102 75.3746 227.863 77.281 223.795L77.4172 219.185C77.4172 219.185 146.047 216.608 155.17 213.354C155.17 213.354 165.792 250.509 167.017 285.223C168.243 320.073 174.098 362.652 172.872 387.196C171.783 406.859 170.966 445.912 170.149 459.066C170.013 462.185 167.698 464.761 164.702 465.439L163.068 465.846C159.255 466.66 155.579 464.354 154.626 460.557C154.626 460.286 154.49 460.151 154.49 459.879C151.358 434.386 139.511 348.821 134.609 333.091C128.753 314.378 116.77 263.798 116.77 263.798C116.77 263.798 89.264 388.552 85.9959 405.367C82.7278 422.182 72.3789 460.151 72.3789 460.151C69.6555 461.236 66.7959 461.778 63.9363 462.049C61.4853 461.913 59.1704 461.507 56.8555 460.829L66.9321 292.953Z" fill="#263238" stroke="#263238" stroke-linecap="round" stroke-linejoin="round"/>
<path d="M115.272 83.3108C115.272 83.3108 132.02 86.7009 143.323 89.9553C154.625 93.2098 162.114 95.3795 162.114 99.1763C162.114 102.973 157.076 215.117 157.076 215.117C157.076 215.117 156.667 219.727 146.591 220.948C136.514 222.168 83.4077 223.931 80.0035 222.982C76.7354 222.168 75.3737 218.778 74.9652 213.761C74.5567 208.743 61.6205 102.431 62.4375 97.4135C63.2545 92.3962 104.378 84.938 105.603 84.5312C108.735 83.3108 112.003 82.904 115.272 83.3108Z" fill="#B0BEC5" stroke="#263238" stroke-linecap="round" stroke-linejoin="round"/>
<path d="M110.914 114.499C121.067 114.499 129.297 107.7 129.297 99.312C129.297 90.9241 121.067 84.1245 110.914 84.1245C100.762 84.1245 92.5312 90.9241 92.5312 99.312C92.5312 107.7 100.762 114.499 110.914 114.499Z" fill="#B0BEC5" stroke="#263238" stroke-linecap="round" stroke-linejoin="round"/>
<path d="M158.711 147.722C158.711 147.722 141.417 186.233 118.404 206.031" stroke="#263238" stroke-linecap="round" stroke-linejoin="round"/>
<path d="M92.5322 215.795C90.762 217.151 88.9918 218.236 86.9492 219.185" stroke="#263238" stroke-linecap="round" stroke-linejoin="round"/>
<path d="M124.124 181.487C124.124 181.487 109.146 201.556 96.3457 212.676" stroke="#263238" stroke-linecap="round" stroke-linejoin="round"/>
<path d="M128.89 54.563C128.89 54.563 133.111 44.9352 135.154 52.6646C137.196 60.3939 129.979 70.0217 125.758 67.1741" fill="white"/>
<path d="M128.89 54.563C128.89 54.563 133.111 44.9352 135.154 52.6646C137.196 60.3939 129.979 70.0217 125.758 67.1741" stroke="#263238" stroke-linecap="round" stroke-linejoin="round"/>
<path d="M86.1313 57.1396C86.1313 57.1396 77.2802 51.851 77.8249 59.038C78.3696 66.2249 86.1313 74.4967 88.7185 70.0218" fill="white"/>
<path d="M86.1313 57.1396C86.1313 57.1396 77.2802 51.851 77.8249 59.038C78.3696 66.2249 86.1313 74.4967 88.7185 70.0218" stroke="#263238" stroke-linecap="round" stroke-linejoin="round"/>
<path d="M125.757 67.1741L125.212 97.0067C124.804 104.058 118.404 109.482 110.778 109.075H110.642C96.6165 109.075 97.1612 94.1591 97.1612 94.1591L94.0293 70.0218C94.0293 70.0218 116.361 72.4626 125.757 67.1741Z" fill="white" stroke="#263238" stroke-linecap="round" stroke-linejoin="round"/>
<path d="M111.458 92.125C115.816 91.447 121.263 86.7009 125.484 82.3616L125.62 70.971L116.905 66.0893C112.003 66.7673 107.101 67.0385 102.063 66.7673L94.8457 73.1406L96.2074 83.7177C100.02 87.7857 106.148 92.9386 111.458 92.125Z" fill="#263238"/>
<path d="M82.4555 50.2238C82.4555 50.2238 76.1917 32.4598 92.9406 21.7472C109.69 11.0346 127.256 24.5949 129.298 38.1551C131.341 51.7154 129.843 69.4793 121.945 79.5139C114.047 89.5485 109.281 90.3622 100.566 84.3956C91.9874 78.2935 83.0002 61.75 82.4555 50.2238Z" fill="white" stroke="#263238" stroke-linecap="round" stroke-linejoin="round"/>
<path d="M92.3965 59.9872C92.3965 59.9872 95.9369 62.6992 101.792 59.9872" stroke="#263238" stroke-linecap="round" stroke-linejoin="round"/>
<path d="M112.141 59.038C112.141 59.038 119.902 61.4788 123.034 57.5463" stroke="#263238" stroke-linecap="round" stroke-linejoin="round"/>
<path d="M104.65 70.6998C104.65 70.6998 107.51 72.7338 109.416 72.1914C110.778 71.649 111.595 70.5642 112.004 69.2081" stroke="#263238" stroke-linecap="round" stroke-linejoin="round"/>
<path d="M105.332 76.6663C108.464 78.0223 112.004 77.2087 114.319 74.9034" stroke="#263238" stroke-linecap="round" stroke-linejoin="round"/>
<path d="M91.1699 55.2411C91.1699 55.2411 97.2976 52.2578 102.064 53.7494" stroke="#263238" stroke-linecap="round" stroke-linejoin="round"/>
<path d="M110.098 53.3427C110.098 53.3427 115.272 49.4102 120.719 51.8511" stroke="#263238" stroke-linecap="round" stroke-linejoin="round"/>
<path d="M106.967 117.347L112.686 157.079L131.614 155.18L127.665 114.093L106.967 117.347Z" fill="#263238" stroke="#263238" stroke-linecap="round" stroke-linejoin="round"/>
<path d="M138.694 140.264L135.834 133.755L129.298 129.416L129.979 133.755L132.566 139.586L121.264 137.823L111.46 137.416C111.46 137.416 110.37 139.586 111.46 139.993C112.549 140.4 119.766 143.247 119.766 143.247L109.281 144.332C109.281 144.332 107.783 147.18 109.281 147.993C110.779 148.671 113.23 155.18 117.315 156.265C121.264 157.35 135.97 154.095 135.97 154.095C135.97 154.095 159.255 195.725 164.021 198.98C168.787 202.234 177.502 200.472 179.681 199.387C181.86 198.302 185.945 192.607 185.536 185.962C185.4 183.114 141.553 146.095 141.553 146.095L138.694 140.264Z" fill="white" stroke="#263238" stroke-linecap="round" stroke-linejoin="round"/>
<path d="M95.7996 23.7813C95.7996 23.7813 89.3996 36.2567 85.0421 40.1892L80.5485 44.1217C80.5485 44.1217 85.1783 59.9872 84.6336 61.072C84.0889 62.1568 83.1357 62.5636 82.7272 61.072C82.3187 59.5804 81.9102 58.3599 80.8209 58.0887C79.7315 57.8175 76.1911 56.3259 76.1911 56.3259L69.7911 41.274C69.7911 41.274 64.6166 36.1211 65.9783 31.6462C67.34 27.1713 71.9698 19.5776 71.9698 19.5776C71.9698 19.5776 69.2464 18.6284 70.4719 16.7299C71.5613 14.6959 83.5443 14.8315 83.5443 14.8315C83.5443 14.8315 84.6336 8.72937 88.3102 7.91575C91.9868 6.96654 91.9868 8.32256 91.9868 8.32256C91.9868 8.32256 105.604 1.54243 113.638 1.67803C121.536 1.81364 145.366 21.3404 143.051 24.0525C140.736 26.7645 132.429 28.5274 132.429 28.5274C132.429 28.5274 132.293 50.7662 131.34 51.173L130.387 51.5798L126.71 32.053C126.71 32.053 102.336 28.3918 95.7996 23.7813Z" fill="#263238" stroke="#263238" stroke-miterlimit="10"/>
</g>
<defs>
<clipPath id="clip0_566_3421">
<rect width="260" height="487" fill="white"/>
</clipPath>
</defs>
</svg>
