<svg width="260" height="487" viewBox="0 0 260 487" fill="none" xmlns="http://www.w3.org/2000/svg">
<g clip-path="url(#clip0_570_3497)">
<path d="M-7 471.423H240.605" stroke="white" stroke-miterlimit="10"/>
<path d="M78.3441 219.961C78.3441 219.961 66.8857 283.549 64.3833 294.322C61.8809 305.095 55.6908 359.881 55.6908 373.413C55.6908 387.077 56.7444 428.199 56.7444 428.199C56.7444 428.199 52.1348 430.301 52.1348 432.141C52.1348 433.98 55.6908 445.41 55.6908 445.41L76.8953 453.293C76.8953 453.293 81.2416 443.177 81.505 439.629C81.9001 436.082 79.0026 434.637 79.0026 428.462C79.0026 422.418 89.8024 351.473 92.9633 339.649C96.2559 327.824 105.475 292.351 107.319 289.198C109.163 286.045 118.119 262.397 118.119 262.397L123.124 264.893C123.124 264.893 126.285 339.386 128.129 343.984C129.972 348.582 154.074 424.521 154.074 424.521C154.074 424.521 150.123 426.36 152.626 430.564C155.128 434.9 159.474 444.49 159.474 444.49C159.474 444.49 163.425 439.104 168.167 438.053C172.908 437.002 180.679 441.6 180.679 441.6C180.679 441.6 185.288 430.827 184.235 425.834C183.181 420.842 178.44 412.171 178.176 409.674C177.913 407.178 168.035 334.919 168.035 334.919C168.035 334.919 170.538 233.887 170.538 227.187C170.406 222.588 169.616 217.99 168.035 213.523C153.021 218.647 137.216 221.669 121.412 222.457C95.8608 223.508 81.9001 213.129 81.9001 213.129L78.3441 219.961Z" fill="#263238" stroke="#263238" stroke-miterlimit="10"/>
<path d="M55.8227 445.41C55.8227 445.41 43.9692 456.183 41.8619 457.628C39.7546 459.074 24.6086 464.854 25.0037 467.745C25.3988 470.635 29.35 472.343 29.35 472.343H78.2125C78.2125 472.343 78.6076 470.898 79.2661 464.066C79.6613 459.599 78.871 455.264 77.1589 451.191L55.8227 445.41Z" fill="white" stroke="#263238" stroke-miterlimit="10"/>
<path d="M78.7407 467.088L25.1367 468.533C26.0587 470.11 27.5074 471.423 29.2196 472.212H78.0821C78.0821 472.212 78.3455 471.292 78.7407 467.088Z" fill="white" stroke="#263238" stroke-miterlimit="10"/>
<path d="M159.475 444.622C159.475 444.622 159.08 453.556 159.08 458.285C159.08 463.015 158.422 468.402 158.685 469.321C159.08 470.372 159.739 472.212 159.739 472.212H188.055C188.055 472.212 189.109 469.321 187.66 463.935C186.212 458.548 183.709 455.658 183.051 450.928C182.524 447.775 181.602 444.622 180.548 441.6C180.68 441.6 166.719 430.695 159.475 444.622Z" fill="white" stroke="#263238" stroke-miterlimit="10"/>
<path d="M188.581 468.796C177.781 468.796 164.347 468.402 158.684 468.27C158.684 468.664 158.684 468.927 158.815 469.321C159.21 470.372 159.869 472.212 159.869 472.212H188.186C188.581 471.029 188.712 469.978 188.581 468.796Z" fill="white" stroke="#263238" stroke-miterlimit="10"/>
<path d="M68.2037 85.164C68.2037 85.164 37.6482 113.674 38.9652 116.433C40.2823 119.06 48.5797 140.738 48.5797 140.738C48.5797 140.738 50.9504 155.19 49.6333 164.255C48.8431 170.036 48.5797 175.817 48.8431 181.597C51.6089 185.145 55.0332 188.166 58.9844 190.4C64.9111 193.553 69.3891 199.202 73.2085 190.137C77.028 181.072 75.3158 164.781 75.3158 164.781C75.3158 164.781 80.3206 184.488 81.2425 188.035C82.0327 191.582 78.345 220.092 78.345 220.092C78.345 220.092 96.7837 235.595 127.998 232.048C159.212 228.5 169.221 217.596 169.221 217.596C169.221 217.596 166.061 182.648 166.061 178.576C166.061 175.817 165.797 173.058 165.534 170.299C165.534 170.299 176.465 181.466 181.865 180.941C187.265 180.415 196.616 158.474 194.114 155.059C191.743 151.511 183.446 137.454 178.309 127.206C175.28 121.031 172.646 114.725 170.67 108.156C170.67 108.156 161.846 78.2008 159.08 76.0987C156.314 73.9966 126.286 74.2594 120.886 72.9456C113.774 71.5004 106.662 70.5807 99.4178 70.0552C97.969 70.1866 74.1304 75.8359 68.2037 85.164Z" fill="#B0BEC5" stroke="#263238" stroke-miterlimit="10"/>
<path d="M158.157 125.104C158.025 117.484 158.025 111.44 158.025 111.44" stroke="#263238" stroke-miterlimit="10"/>
<path d="M165.665 170.299C163.557 166.095 161.845 161.89 160.265 157.555C159.211 154.402 158.684 142.971 158.289 132.33" stroke="#263238" stroke-miterlimit="10"/>
<path d="M60.1688 138.767C57.403 134.038 55.2958 130.359 55.1641 129.571" stroke="#263238" stroke-miterlimit="10"/>
<path d="M75.4464 164.781C75.4464 164.781 68.5978 153.219 62.8027 143.366" stroke="#263238" stroke-miterlimit="10"/>
<path d="M110.217 73.9966C111.27 83.456 111.402 92.9154 110.48 102.243" stroke="#263238" stroke-miterlimit="10"/>
<path d="M128.26 205.771C131.421 206.428 134.977 206.954 138.664 207.479" stroke="#263238" stroke-miterlimit="10"/>
<path d="M89.2754 188.429C89.2754 188.429 97.9679 197.889 121.016 203.932" stroke="#263238" stroke-miterlimit="10"/>
<path d="M112.852 208.793C122.729 213.26 133.529 215.362 144.461 215.231" stroke="#263238" stroke-miterlimit="10"/>
<path d="M48.9746 41.9397C48.9746 41.9397 52.1355 56.9171 52.3989 60.0703C52.6623 63.2234 53.4526 67.559 57.5354 73.9966C61.4866 80.4343 72.023 94.492 74.1303 95.4117C76.2375 96.2 84.535 94.0979 84.535 94.0979C84.535 94.0979 93.3592 111.44 95.7299 110.915C98.1006 110.389 104.291 90.5506 105.081 82.6677C105.608 78.7263 105.739 74.6535 105.344 70.7121L101.657 57.1799C101.657 57.1799 98.4957 38.3924 98.4957 37.21C98.4957 36.0276 100.34 26.3054 89.9349 22.2326C79.5302 18.1598 66.6231 17.7657 58.0623 27.7506C49.5014 37.7355 48.9746 41.9397 48.9746 41.9397Z" fill="white" stroke="#263238" stroke-miterlimit="10"/>
<path d="M77.5552 25.123C73.7358 30.7723 68.8627 35.6334 63.0677 39.3121C53.1898 45.7497 57.9312 38.7866 57.9312 38.7866C57.9312 38.7866 50.9508 43.1221 45.2875 46.0125C39.6242 48.9029 41.8632 49.8226 39.6242 48.9029C37.5169 47.9832 29.4829 25.2544 47.3948 14.3497C65.3066 3.44514 78.6088 6.07276 78.6088 6.07276C78.6088 6.07276 70.8382 2.65686 77.8186 2.65686C84.799 2.65686 87.6965 6.4669 87.6965 6.4669C87.6965 6.4669 91.3842 5.41586 93.0964 7.51795C93.7549 8.30623 94.6768 8.83176 95.5988 9.2259C104.291 12.9046 107.321 21.0502 108.901 29.5899C109.955 35.2393 105.477 48.5087 105.477 48.5087L97.9695 52.4502C96.1256 50.7422 94.6768 48.7715 93.6232 46.538C92.9647 44.4359 92.5696 42.0711 92.5696 39.8376C92.5696 39.8376 87.9599 45.7497 87.1697 41.4142C86.3794 37.0786 84.2722 26.174 84.2722 26.174C84.2722 26.174 85.0624 30.5096 82.4283 30.5096C79.7942 30.7723 77.5552 25.123 77.5552 25.123Z" fill="#263238" stroke="#263238" stroke-miterlimit="10"/>
<path d="M97.3107 54.4209C97.3107 54.4209 97.0473 45.3556 102.447 42.4652C107.847 39.5749 111.535 42.728 109.954 51.2678C108.374 59.8075 98.7594 62.9606 98.7594 62.9606" fill="white"/>
<path d="M97.3107 54.4209C97.3107 54.4209 97.0473 45.3556 102.447 42.4652C107.847 39.5749 111.535 42.728 109.954 51.2678C108.374 59.8075 98.7594 62.9606 98.7594 62.9606" stroke="#263238" stroke-miterlimit="10"/>
<path d="M84.5352 93.9665L98.7593 79.7773L89.2765 101.455L84.5352 93.9665Z" fill="#263238" stroke="#263238" stroke-miterlimit="10"/>
<path d="M77.9503 79.646C78.6088 80.697 78.2137 82.1422 77.1601 82.7991C76.2381 83.1933 74.9211 82.405 74.3943 81.0912C73.8674 79.7774 74.1309 78.3322 75.1845 77.9381C76.2381 77.5439 77.4235 78.3322 77.9503 79.646Z" fill="#263238"/>
<path d="M81.6377 54.9464C82.1645 56.6543 81.7694 58.2309 80.8475 58.625C79.9255 58.8878 78.6085 57.8368 78.0817 56.1288C77.5548 54.4209 77.95 52.8443 78.8719 52.5815C79.9255 52.1874 81.1109 53.2384 81.6377 54.9464Z" fill="#263238"/>
<path d="M64.1201 57.9682C64.6469 59.6761 64.2518 61.2527 63.3299 61.6468C62.408 61.9096 61.0909 60.8585 60.5641 59.1506C60.0373 57.4426 60.4324 55.8661 61.3543 55.6033C62.2763 55.3405 63.5933 56.2602 64.1201 57.9682Z" fill="#263238"/>
<path d="M64.7793 51.2677C67.15 53.2384 68.5987 56.1288 68.467 59.2819C68.467 64.6685 67.6768 72.6828 67.6768 72.6828L77.2913 71.369" stroke="#263238" stroke-miterlimit="10"/>
<path d="M71.1016 47.7205C71.1016 47.7205 75.9746 39.1808 83.4818 40.7573" stroke="#263238" stroke-miterlimit="10"/>
<path d="M62.54 49.4284C62.54 49.4284 56.6133 47.5891 52.6621 49.954" stroke="#263238" stroke-miterlimit="10"/>
<path d="M226.381 118.009C226.381 118.009 232.308 115.907 234.415 115.119C236.523 114.33 238.762 115.644 242.449 113.805C246.137 111.966 250.483 108.156 250.747 110.915C251.01 113.674 249.693 114.593 247.586 116.038C245.478 117.352 241.922 119.98 241.922 119.98L240.869 122.607L224.801 121.294C224.801 121.294 225.064 118.797 226.381 118.009Z" fill="white" stroke="#263238" stroke-miterlimit="10"/>
<path d="M258.649 124.841C258.649 124.841 266.025 119.06 267.079 116.301C268.132 113.674 266.288 113.411 264.444 114.462C262.601 115.513 256.674 120.374 256.674 120.374L258.649 124.841Z" fill="white" stroke="#263238" stroke-miterlimit="10"/>
<path d="M252.59 126.155C252.59 126.155 258.121 126.68 258.648 124.841C259.175 123.002 263.521 111.44 262.863 109.995C262.204 108.55 260.756 108.681 259.307 111.046C257.726 114.331 256.278 117.746 255.092 121.294C255.092 121.294 251.405 122.082 250.483 124.578C249.429 127.074 252.59 126.155 252.59 126.155Z" fill="white" stroke="#263238" stroke-miterlimit="10"/>
<path d="M245.611 127.6C245.611 127.6 250.747 129.702 251.801 128.125C252.855 126.549 260.362 116.564 260.098 114.987C259.835 113.411 258.518 113.148 256.411 114.987C253.908 117.615 251.538 120.505 249.43 123.527C249.43 123.527 245.611 123.264 244.03 125.366C242.45 127.6 245.611 127.6 245.611 127.6Z" fill="white" stroke="#263238" stroke-miterlimit="10"/>
<path d="M170.933 171.35C173.04 162.81 178.44 155.453 185.947 150.854C198.723 142.577 216.239 127.6 216.239 127.6C216.239 127.6 222.166 119.323 226.381 118.009C230.595 116.695 244.556 120.637 244.556 120.637C244.556 120.637 255.751 109.469 256.146 111.834C256.409 114.199 250.746 122.739 248.112 126.023C245.478 129.177 237.181 129.965 235.337 129.965C232.044 130.096 228.751 130.359 225.459 130.753C224.405 131.016 206.625 155.059 198.723 166.751C190.689 178.444 187.133 180.678 182.128 180.941C177.123 181.203 171.723 177.131 170.406 175.291C168.826 173.583 170.933 171.35 170.933 171.35Z" fill="white" stroke="#263238" stroke-miterlimit="10"/>
<path d="M3.53624 127.206L20.3945 163.73C20.9213 164.781 22.1066 165.438 23.292 165.175L37.2527 162.547C38.7015 162.284 39.6234 160.839 39.36 159.394C39.36 159.263 39.2283 159 39.2283 158.869L24.0822 123.264C23.6871 122.213 22.5018 121.556 21.3164 121.688L5.64352 123.396C4.19477 123.527 3.14113 124.841 3.27283 126.286C3.40454 126.68 3.53624 126.943 3.53624 127.206Z" fill="#263238" stroke="#263238" stroke-miterlimit="10"/>
<path d="M14.7323 158.474C14.7323 158.474 8.67383 149.278 8.67383 147.176C8.67383 145.074 12.2299 140.212 14.2054 135.746C16.3127 131.279 16.5761 128.388 18.42 128.914C20.1322 129.571 19.8688 131.279 19.3419 134.169C18.2883 137.979 16.9712 141.789 15.5225 145.468L16.0493 149.015C17.4981 146.125 19.2102 143.497 21.3175 141.001C23.9516 138.373 26.9808 133.906 29.0881 134.826C31.1954 135.746 31.9856 136.271 30.2734 138.373C28.0345 141.001 26.0589 143.891 24.3467 146.913C22.7663 149.409 21.4492 152.168 20.2639 154.927C22.2394 153.088 24.3467 151.248 26.5857 149.672C29.4832 147.57 33.5661 144.548 35.2782 145.73C36.9904 146.913 37.3855 148.095 35.5416 149.541C33.8295 150.986 32.1173 152.037 29.7466 154.139C27.2442 156.635 24.8735 159.263 22.7663 162.022C24.8735 160.445 27.2442 159.131 29.7466 158.212C34.7514 156.11 39.3611 156.372 39.6245 157.949C39.7562 159.525 34.3563 160.971 34.3563 160.971C30.4052 161.89 30.2734 163.204 30.2734 163.204C30.2734 163.204 33.5661 169.773 32.9075 171.875C32.9075 171.875 46.078 169.773 51.0828 168.328C56.0876 166.883 63.9899 169.773 66.3606 172.138C71.3654 177.13 73.7361 184.882 71.102 191.32C68.4679 197.889 68.4679 195.787 47.3951 189.874C26.3223 183.962 26.7174 181.86 21.5809 173.32C19.737 170.036 14.7323 158.474 14.7323 158.474Z" fill="white" stroke="#263238" stroke-miterlimit="10"/>
<path d="M32.9068 171.744L32.5117 177.262" stroke="#263238" stroke-miterlimit="10"/>
</g>
<defs>
<clipPath id="clip0_570_3497">
<rect width="260" height="487" fill="white"/>
</clipPath>
</defs>
</svg>
