<svg width="342" height="560" viewBox="0 0 342 560" fill="none" xmlns="http://www.w3.org/2000/svg">
<path d="M52.5332 546.641H305.767" stroke="white" stroke-miterlimit="10"/>
<path d="M69.1002 90.2747C52.3976 90.2747 38.9277 76.7807 38.9277 60.0482C38.9277 43.3156 52.3976 29.8217 69.1002 29.8217C85.8029 29.8217 99.2727 43.3156 99.2727 60.0482C99.2727 76.6458 85.8029 90.2747 69.1002 90.2747Z" fill="#263238" stroke="#263238" stroke-linecap="round" stroke-linejoin="round"/>
<path d="M69.1011 46.4192C73.5461 46.4192 74.0849 46.4192 75.836 46.5542C76.9136 46.5542 77.9912 46.6891 78.9341 47.0939C80.4158 47.6337 81.4934 48.8482 82.0322 50.1976C82.4363 51.1421 82.5709 52.2216 82.5709 53.3012C82.5709 54.9204 82.7056 55.5951 82.7056 60.0482C82.7056 64.5012 82.7056 65.0409 82.5709 66.7951C82.5709 67.8747 82.4363 68.9542 82.0322 69.8988C81.4934 71.3831 80.2811 72.4626 78.9341 73.0024C77.9912 73.4072 76.9136 73.5421 75.836 73.5421C74.0849 73.6771 73.5461 73.6771 69.1011 73.6771C64.656 73.6771 64.1172 73.6771 62.3661 73.5421C61.2885 73.5421 60.211 73.4072 59.2681 73.0024C58.5946 72.7325 57.9211 72.3277 57.3823 71.7879C56.8435 71.2482 56.4394 70.5735 56.17 69.8988C55.7659 68.9542 55.6312 67.8747 55.6312 66.7951C55.6312 65.0409 55.4965 64.5012 55.4965 60.0482C55.4965 55.5951 55.4965 55.0554 55.6312 53.3012C55.6312 52.2216 55.7659 51.1421 56.17 50.1976C56.4394 49.5229 56.8435 48.8482 57.3823 48.3084C57.9211 47.7686 58.5946 47.3638 59.2681 47.0939C60.211 46.6891 61.2885 46.5542 62.3661 46.5542C64.1172 46.4192 64.656 46.4192 69.1011 46.4192ZM69.1011 43.4506C64.656 43.4506 64.1172 43.4506 62.2314 43.5855C60.8845 43.5855 59.5375 43.8554 58.1905 44.3951C57.1129 44.8 56.0353 45.4747 55.2271 46.2843C54.4189 47.0939 53.7454 48.1735 53.3413 49.253C52.8025 50.6024 52.5331 51.9518 52.5331 53.3012C52.5331 55.0554 52.3984 55.5951 52.3984 60.1831C52.3984 64.771 52.3984 65.1759 52.5331 67.065C52.5331 68.4144 52.8025 69.7638 53.3413 71.1132C53.7454 72.1927 54.4189 73.2723 55.2271 74.0819C56.0353 74.8915 57.1129 75.5662 58.1905 75.971C59.5375 76.5108 60.8845 76.6457 62.2314 76.7807C63.9825 76.9156 64.5213 76.9156 69.1011 76.9156C73.6808 76.9156 74.0849 76.9156 75.9707 76.7807C77.3177 76.7807 78.6647 76.5108 80.0117 75.971C81.0893 75.5662 82.1668 74.8915 82.975 74.0819C83.7832 73.2723 84.4567 72.3277 84.8608 71.1132C85.3996 69.7638 85.5343 68.4144 85.669 67.065C85.8037 65.3108 85.8037 64.771 85.8037 60.1831C85.8037 55.5951 85.8037 55.1903 85.669 53.3012C85.669 51.9518 85.3996 50.6024 84.8608 49.253C84.4567 48.1735 83.7832 47.0939 82.975 46.2843C82.1668 45.4747 81.0893 44.8 80.0117 44.3951C78.6647 43.8554 77.3177 43.7204 75.9707 43.5855C74.0849 43.4506 73.5461 43.4506 69.1011 43.4506Z" fill="#B0BEC5"/>
<path d="M69.0993 51.547C64.3848 51.547 60.6133 55.3253 60.6133 60.0482C60.6133 64.7711 64.3848 68.5494 69.0993 68.5494C73.8138 68.5494 77.5853 64.7711 77.5853 60.0482C77.5853 55.3253 73.8138 51.547 69.0993 51.547ZM69.0993 65.5807C66.0012 65.5807 63.5767 63.1518 63.5767 60.0482C63.5767 56.9446 66.0012 54.5157 69.0993 54.5157C72.1974 54.5157 74.6219 56.9446 74.6219 60.0482C74.6219 63.0169 72.1974 65.5807 69.0993 65.5807Z" fill="#B0BEC5"/>
<path d="M79.8769 51.1421C79.8769 52.2217 78.934 53.1662 77.8564 53.1662C76.7788 53.1662 75.8359 52.2217 75.8359 51.1421C75.8359 50.0626 76.7788 49.118 77.8564 49.118C79.0687 49.118 79.8769 50.0626 79.8769 51.1421Z" fill="#B0BEC5"/>
<path d="M259.161 85.8217C242.458 85.8217 228.988 72.3277 228.988 55.5952C228.988 38.8626 242.458 25.3687 259.161 25.3687C275.863 25.3687 289.333 38.8626 289.333 55.5952C289.333 72.1927 275.863 85.8217 259.161 85.8217C259.295 85.8217 259.295 85.8217 259.161 85.8217Z" fill="#263238"/>
<path d="M254.445 73.8121H261.719V55.4603H266.838L267.376 49.253H261.719V45.7446C261.719 44.2603 261.988 43.7205 263.335 43.7205H267.376V37.2434H262.393C256.87 37.2434 254.445 39.6723 254.445 44.2603V49.253H250.674V55.4603H254.445V73.8121Z" fill="#B0BEC5"/>
<path d="M311.153 152.617C294.45 152.617 280.98 139.123 280.98 122.39C280.98 105.658 294.45 92.1638 311.153 92.1638C327.856 92.1638 341.326 105.658 341.326 122.39C341.326 139.123 327.856 152.617 311.153 152.617Z" fill="#263238" stroke="#263238" stroke-linecap="round" stroke-linejoin="round"/>
<path d="M295.123 132.511C303.878 138.178 315.463 135.614 320.985 126.843C323.14 123.605 324.083 119.692 323.949 115.778C325.296 114.834 326.373 113.754 327.316 112.405C326.104 112.945 324.891 113.214 323.544 113.484C324.891 112.675 325.969 111.325 326.508 109.841C325.161 110.651 323.814 111.19 322.332 111.46C319.773 108.896 315.463 108.896 312.903 111.46C311.287 113.08 310.613 115.239 311.152 117.398C305.899 117.128 300.915 114.564 297.548 110.516C295.797 113.484 296.739 117.398 299.568 119.287C298.49 119.287 297.548 119.017 296.605 118.477C296.605 121.581 298.76 124.414 301.858 125.089C300.915 125.359 299.837 125.359 298.895 125.224C299.703 127.923 302.262 129.812 305.091 129.812C302.262 132.106 298.625 133.051 295.123 132.511Z" fill="#B0BEC5"/>
<path d="M203.798 0.674683H123.922V56.1349H203.798V0.674683Z" fill="#263238" stroke="#263238" stroke-linecap="round" stroke-linejoin="round"/>
<path d="M168.175 46.3222C178.019 43.982 184.105 34.0903 181.769 24.2285C179.433 14.3667 169.559 8.26934 159.715 10.6096C149.871 12.9499 143.784 22.8416 146.12 32.7034C148.457 42.5651 158.331 48.6625 168.175 46.3222Z" fill="#B0BEC5"/>
<path d="M177.128 28.7422L154.768 15.788V41.6964L177.128 28.7422Z" fill="#263238" stroke="#263238" stroke-linecap="round" stroke-linejoin="round"/>
<path d="M125.674 50.6024H201.644" stroke="white" stroke-linecap="round" stroke-linejoin="round"/>
<path d="M126.752 530.718C124.193 532.742 121.634 534.901 119.344 537.195C115.976 540.569 106.413 544.347 100.621 548.395C94.8288 552.443 98.1963 556.627 103.315 558.246C108.433 560 123.116 558.516 128.503 557.571C133.891 556.627 136.72 550.014 141.165 549.07C145.61 547.99 153.827 551.769 154.096 545.292C154.366 538.814 154.77 532.337 154.77 532.337L126.752 530.718Z" fill="white" stroke="#263238" stroke-linecap="round" stroke-linejoin="round"/>
<path d="M154.095 545.561C154.095 544.212 154.23 542.998 154.23 541.648C150.593 544.347 145.878 544.212 139.682 545.561C131.87 547.181 129.176 554.737 113.416 555.412C103.313 555.817 99.1378 554.063 97.5214 552.713C97.252 555.277 99.8113 557.436 103.179 558.516C108.297 560.135 122.979 558.786 128.367 557.841C133.755 556.896 136.584 550.284 141.029 549.34C145.474 548.395 153.691 552.039 154.095 545.561Z" fill="white" stroke="#263238" stroke-linecap="round" stroke-linejoin="round"/>
<path d="M129.849 529.504C129.849 529.504 122.036 539.084 119.342 542.188C116.648 545.292 124.461 544.212 127.828 541.108C131.061 537.87 134.024 534.496 136.718 530.853L129.849 529.504Z" fill="white" stroke="#263238" stroke-linecap="round" stroke-linejoin="round"/>
<path d="M237.205 530.718C239.764 532.742 242.323 534.901 244.613 537.195C247.981 540.569 257.544 544.347 263.336 548.395C269.128 552.443 265.761 556.627 260.642 558.246C255.524 560 240.842 558.516 235.454 557.571C230.066 556.492 227.237 550.014 222.792 549.07C218.347 548.125 210.13 551.769 209.861 545.292C209.592 538.814 209.188 532.337 209.188 532.337L237.205 530.718Z" fill="white" stroke="#263238" stroke-linecap="round" stroke-linejoin="round"/>
<path d="M209.861 545.561C209.861 544.212 209.727 542.998 209.727 541.648C213.363 544.347 218.078 544.212 224.274 545.561C232.087 547.181 234.781 554.737 250.54 555.412C260.643 555.817 264.818 554.063 266.435 552.713C266.704 555.277 264.145 557.436 260.777 558.516C255.659 560.135 240.977 558.786 235.589 557.841C230.201 556.761 227.372 550.284 222.927 549.34C218.482 548.395 210.265 552.039 209.861 545.561Z" fill="white" stroke="#263238" stroke-linecap="round" stroke-linejoin="round"/>
<path d="M234.106 529.504C234.106 529.504 241.919 539.084 244.612 542.188C247.306 545.292 239.494 544.212 236.126 541.108C232.894 537.87 229.93 534.496 227.236 530.853L234.106 529.504Z" fill="white" stroke="#263238" stroke-linecap="round" stroke-linejoin="round"/>
<path d="M130.927 286.882C130.927 286.882 126.617 325.34 126.617 331.412C126.617 337.484 126.617 415.749 127.56 429.648C128.503 443.547 123.788 449.214 126.617 466.757C129.446 484.299 130.389 515.335 130.389 515.335C130.389 515.335 126.617 517.764 126.617 520.058V530.583L155.308 533.687C155.308 533.687 157.059 509.128 157.598 501.436C158.002 493.744 165.276 445.706 167.161 431.807C169.047 417.908 176.59 339.238 176.59 339.238C176.59 339.238 189.117 426.544 190.06 429.513C192.754 436.395 194.909 443.277 196.795 450.429C201.105 466.217 204.877 520.463 204.877 520.463L208.918 535.576L238.148 530.178C238.148 530.178 233.837 505.754 233.837 501.841C233.837 497.928 232.894 499.412 231.951 489.966C230.2 472.289 229.662 454.342 230.47 436.665C231.413 409.002 218.616 335.595 218.616 335.595L214.845 286.477C214.71 286.747 167.565 297.677 130.927 286.882Z" fill="#263238" stroke="#263238" stroke-linecap="round" stroke-linejoin="round"/>
<path d="M188.174 327.634L180.496 341.937C180.496 341.937 197.064 331.952 207.436 330.332" stroke="white" stroke-linecap="round" stroke-linejoin="round"/>
<path d="M162.717 336.945C162.717 336.945 155.578 325.34 142.916 322.101" stroke="white" stroke-linecap="round" stroke-linejoin="round"/>
<path d="M129.579 290.93C129.579 290.93 124.595 303.345 127.155 307.123C129.714 310.901 152.613 320.212 175.646 320.212C198.68 320.212 221.04 312.116 221.04 306.448C221.04 300.781 216.729 287.152 216.729 287.152C216.729 287.152 179.283 304.694 129.579 290.93Z" fill="#B0BEC5" stroke="#263238" stroke-linecap="round" stroke-linejoin="round"/>
<path d="M137.124 172.318C137.124 172.318 120.421 172.318 116.649 175.422C112.878 178.525 112.474 191.345 112.07 193.639C111.666 195.933 102.91 237.494 102.91 237.494L121.499 263.133L128.368 230.477L129.042 294.034C129.042 294.034 130.254 300.241 134.564 302.67C138.875 304.964 168.643 307.258 182.517 307.258C196.391 307.258 216.461 300.241 218.078 296.058C219.694 291.74 214.979 244.241 214.979 244.241L221.58 258.949L237.339 231.827C237.339 231.827 226.564 195.798 224.947 188.106C223.331 180.414 219.155 178.12 210.669 174.612C202.183 171.104 176.994 172.318 167.027 172.318C156.79 172.048 137.124 172.318 137.124 172.318Z" fill="#B0BEC5" stroke="#263238" stroke-linecap="round" stroke-linejoin="round"/>
<path d="M141.299 297.272C147.63 296.463 152.614 291.74 153.691 285.398C156.116 274.198 157.463 267.99 157.463 267.99L161.773 267.316C161.638 273.523 161.234 279.865 160.561 285.937C159.348 296.598 155.577 299.701 153.691 299.701" stroke="#263238" stroke-linecap="round" stroke-linejoin="round"/>
<path d="M210.399 291.605C215.383 279.19 204.203 264.887 204.203 264.887L199.893 264.212C199.893 264.212 212.285 280.405 206.089 292.819" stroke="#263238" stroke-linecap="round" stroke-linejoin="round"/>
<path d="M128.233 230.477L125.539 210.641" stroke="#263238" stroke-linecap="round" stroke-linejoin="round"/>
<path d="M214.845 243.971L213.229 207.942" stroke="#263238" stroke-linecap="round" stroke-linejoin="round"/>
<path d="M218.077 246.13C218.077 246.13 213.228 237.224 229.123 229.532" stroke="#263238" stroke-linecap="round" stroke-linejoin="round"/>
<path d="M220.771 227.508C220.771 227.508 229.123 224 234.511 224" stroke="#263238" stroke-linecap="round" stroke-linejoin="round"/>
<path d="M109.24 229.532C109.24 229.532 122.306 233.716 125.135 243.971" stroke="#263238" stroke-linecap="round" stroke-linejoin="round"/>
<path d="M124.326 234.39C124.326 234.39 119.477 226.159 111.934 224.675" stroke="#263238" stroke-linecap="round" stroke-linejoin="round"/>
<path d="M161.235 154.911C161.235 154.911 152.479 154.911 149.92 156.8C147.361 158.689 146.014 163.952 144.667 164.896C143.32 165.841 137.528 165.571 136.181 169.08C134.834 172.588 134.834 171.643 144.936 181.089C155.039 190.535 179.958 201.195 182.652 201.195C185.346 201.195 202.183 181.629 207.032 179.47C211.882 177.311 212.555 177.176 212.824 175.827C213.094 174.477 212.555 168 208.245 165.436C205.281 163.817 201.914 162.602 198.546 162.198C198.546 162.198 197.873 158.284 192.754 155.316C187.501 152.347 180.362 151.672 175.243 151.672C169.99 152.077 161.235 154.911 161.235 154.911Z" fill="#B0BEC5" stroke="#263238" stroke-linecap="round" stroke-linejoin="round"/>
<path d="M198.545 162.467C198.141 167.325 197.064 172.048 195.312 176.501" stroke="#263238" stroke-linecap="round" stroke-linejoin="round"/>
<path d="M146.418 169.619C146.418 169.619 147.765 173.802 155.308 177.851" stroke="#263238" stroke-linecap="round" stroke-linejoin="round"/>
<path d="M176.59 196.742L177.263 239.383" stroke="white" stroke-linecap="round" stroke-linejoin="round"/>
<path d="M185.885 197.147L189.656 236.549" stroke="white" stroke-linecap="round" stroke-linejoin="round"/>
<path d="M75.7016 173.667L91.1919 168.405C92.5389 168 94.0206 168.675 94.4247 170.024L105.874 203.219C106.278 204.569 105.605 206.053 104.258 206.458L88.7674 211.72C87.4204 212.125 85.9387 211.451 85.5346 210.101L74.0852 176.906C73.6811 175.557 74.3546 174.072 75.7016 173.667Z" fill="#263238" stroke="#263238" stroke-linecap="round" stroke-linejoin="round"/>
<path d="M90.1134 224.405C88.7664 223.055 76.3741 193.504 75.2966 190.67C74.219 187.971 87.9582 178.39 87.9582 178.39C87.9582 178.39 91.5951 176.096 91.5951 178.12C91.5951 180.145 84.5908 186.217 83.6479 187.836C82.705 189.455 85.6684 194.448 85.6684 194.448C85.6684 194.448 94.4238 189.725 95.0973 189.725C95.7708 189.725 105.469 198.092 106.412 199.036C107.355 199.981 109.779 202.679 109.106 204.029C108.432 205.378 106.816 204.704 105.738 204.434C104.661 204.164 94.6932 207.807 94.6932 207.807C94.6932 207.807 98.4647 213.205 98.0606 216.443C97.7913 218.467 97.2525 220.357 96.7137 222.381C96.7137 222.381 118.131 248.694 120.825 250.313C123.519 251.932 125 257.735 123.249 263.807C121.498 269.879 117.188 269.475 111.531 269.34C105.873 269.07 90.1134 224.405 90.1134 224.405Z" fill="white" stroke="#263238" stroke-linecap="round" stroke-linejoin="round"/>
<path d="M98.7341 194.043C97.1177 194.043 95.5013 194.178 94.0196 194.718C93.0767 195.393 86.3418 199.981 86.3418 199.981" stroke="#263238" stroke-linecap="round" stroke-linejoin="round"/>
<path d="M88.7656 203.759C91.1902 202.005 93.7495 200.251 96.4434 198.766C99.2721 198.361 102.101 198.227 105.064 198.361" stroke="#263238" stroke-linecap="round" stroke-linejoin="round"/>
<path d="M107.086 200.116C107.086 200.116 97.1179 202.14 95.771 202.545C94.0199 203.624 92.2688 204.973 90.7871 206.323" stroke="#263238" stroke-linecap="round" stroke-linejoin="round"/>
<path d="M85.6684 194.448L82.7051 196.337" stroke="#263238" stroke-linecap="round" stroke-linejoin="round"/>
<path d="M235.993 233.446L273.17 203.894C273.17 203.894 271.553 193.234 271.823 191.614C272.092 189.995 275.19 180.28 282.464 176.636C289.738 172.993 292.028 172.318 292.028 175.017C292.028 177.716 289.334 178.39 288.66 179.335C287.987 180.28 284.35 183.923 284.35 183.923C284.35 183.923 291.354 180.954 293.644 180.954C295.934 180.954 299.975 180.01 299.975 182.304C299.975 184.598 297.281 184.598 295.664 184.598C294.048 184.598 289.334 189.321 289.334 189.321C293.24 188.376 297.146 187.566 301.052 187.027C303.073 187.027 304.689 189.321 303.073 190.4C301.591 191.21 300.109 191.749 298.493 192.019C297.011 192.694 295.53 193.504 294.183 194.313C294.183 194.313 304.15 193.369 303.477 195.933C302.803 198.631 298.224 197.957 297.146 197.957C294.991 198.496 292.97 199.576 291.489 201.33C290.815 202.68 289.468 208.347 286.774 209.696C284.08 211.046 279.096 213.07 279.096 213.07C279.096 213.07 262.259 233.446 255.255 241.542C248.25 249.504 235.723 258.68 228.719 260.434C221.715 262.053 220.368 260.164 220.098 257.06C219.829 253.957 220.098 243.431 235.993 233.446Z" fill="white" stroke="#263238" stroke-linecap="round" stroke-linejoin="round"/>
<path d="M273.572 187.296C273.572 187.296 281.519 183.653 283.136 183.653C284.752 183.653 287.446 185.002 285.426 187.296C283.136 189.455 280.711 191.345 278.152 192.964C278.152 192.964 287.716 196.877 283.136 204.299" stroke="#263238" stroke-linecap="round" stroke-linejoin="round"/>
<path d="M80.6845 164.896L80.4151 153.022C83.6479 153.022 86.3419 150.323 86.3419 147.084V114.699C86.3419 111.46 83.6479 108.761 80.4151 108.761H5.92674C2.69397 108.761 0 111.46 0 114.699V147.084C0 150.323 2.69397 153.022 5.92674 153.022H70.3127L80.6845 164.896Z" fill="#263238"/>
<path d="M24.7854 129.542C24.7854 127.518 23.1691 125.899 21.1486 125.899C19.1281 125.899 17.5117 127.518 17.5117 129.542C17.5117 131.566 19.1281 133.186 21.1486 133.186C23.1691 133.186 24.7854 131.566 24.7854 129.542Z" fill="#B0BEC5"/>
<path d="M46.2015 129.542C46.2015 127.518 44.5851 125.899 42.5646 125.899C40.5441 125.899 38.9277 127.518 38.9277 129.542C38.9277 131.566 40.5441 133.186 42.5646 133.186C44.5851 133.186 46.2015 131.566 46.2015 129.542Z" fill="#B0BEC5"/>
<path d="M67.6194 129.542C67.6194 127.518 66.003 125.899 63.9826 125.899C61.9621 125.899 60.3457 127.518 60.3457 129.542C60.3457 131.566 61.9621 133.186 63.9826 133.186C66.003 133.186 67.6194 131.566 67.6194 129.542Z" fill="#B0BEC5"/>
<path d="M173.627 154.641C161.909 156.125 162.717 153.157 162.717 153.157C162.717 153.157 162.043 163.682 162.178 164.357C162.313 165.031 166.084 185.812 171.742 186.622C181.036 187.971 188.579 169.08 188.579 169.08L191.946 150.458C186.154 152.617 179.958 153.966 173.627 154.641Z" fill="white" stroke="#263238" stroke-miterlimit="10"/>
<path d="M192.081 150.458C186.155 152.617 179.959 153.966 173.762 154.641C166.489 155.586 164.064 154.776 163.256 153.966C165.276 158.419 168.374 162.468 172.146 165.571C176.995 169.484 184.808 168.81 188.983 168L192.081 150.458Z" fill="#263238" stroke="#263238" stroke-miterlimit="10"/>
<path d="M159.753 114.294C159.887 112.675 166.757 108.627 169.586 105.658C172.414 102.689 180.496 96.8868 188.309 98.776C196.121 100.665 206.897 112.945 206.628 116.588C206.358 120.366 203.53 129.542 203.53 129.542V135.21C203.53 135.21 204.338 136.019 205.416 139.258C206.493 142.631 203.26 145.6 200.028 148.569C198.142 150.323 195.583 151.268 193.023 151.133C189.791 153.696 186.154 155.856 182.517 157.61C177.129 160.039 172.01 161.118 168.643 159.634C165.275 158.284 161.504 150.593 159.483 145.6C157.463 140.472 159.214 130.892 159.214 130.892C159.214 130.892 159.618 115.913 159.753 114.294Z" fill="white" stroke="#263238" stroke-miterlimit="10"/>
<path d="M158.541 142.361C157.194 141.147 156.116 139.933 155.039 138.448C152.884 135.48 154.231 130.352 155.712 129.407C157.194 128.463 159.08 131.027 159.08 131.027C158.541 132.241 158.541 142.361 158.541 142.361Z" fill="white" stroke="#263238" stroke-miterlimit="10"/>
<path d="M174.974 136.424C174.974 136.424 170.259 135.345 169.721 133.995C169.182 132.646 173.896 130.892 174.3 130.082C174.704 129.272 174.704 123.74 174.704 123.74" stroke="#263238" stroke-miterlimit="10"/>
<path d="M167.564 138.583C168.373 139.663 173.087 144.386 175.916 144.386C178.744 144.386 185.075 141.957 185.075 141.957" stroke="#263238" stroke-miterlimit="10"/>
<path d="M188.847 125.899C189.521 126.034 189.79 127.383 189.386 128.733C188.982 130.082 188.174 131.161 187.5 130.892C186.827 130.757 186.557 129.407 186.961 128.058C187.365 126.843 188.174 125.764 188.847 125.899Z" fill="#263238"/>
<path d="M171.068 123.47C171.741 123.605 172.011 124.954 171.607 126.304C171.203 127.653 170.394 128.733 169.721 128.463C169.047 128.193 168.778 126.978 169.182 125.629C169.586 124.28 170.394 123.335 171.068 123.47Z" fill="#263238"/>
<path d="M186.02 120.501C189.118 120.366 192.081 121.581 194.236 123.605" stroke="#263238" stroke-miterlimit="10"/>
<path d="M166.219 119.017C168.509 117.263 171.741 117.398 173.897 119.287" stroke="#263238" stroke-miterlimit="10"/>
<path d="M163.39 110.516L160.022 128.328L159.214 128.058C158.271 127.788 158.136 107.277 158.136 107.277C158.136 107.277 150.593 105.658 148.438 103.229C146.283 100.8 168.104 82.988 175.243 82.853C182.382 82.7181 194.909 88.7904 194.909 88.7904C194.909 88.7904 194.909 87.7109 198.277 88.5205C201.644 89.3302 202.587 94.8627 202.587 94.8627C202.587 94.8627 213.498 94.8627 214.44 96.6169C215.518 98.3711 213.093 99.1808 213.093 99.1808C213.093 99.1808 217.269 106.198 218.481 110.246C219.694 114.294 214.979 119.017 214.979 119.017L209.187 132.781C209.187 132.781 206.089 134.13 205.012 134.4C203.934 134.67 203.665 135.884 203.26 137.234C202.856 138.583 202.048 138.178 201.509 137.234C200.971 136.289 205.146 121.716 205.146 121.716L201.105 118.207C197.064 114.564 191.272 103.229 191.272 103.229C185.48 107.277 163.39 110.516 163.39 110.516Z" fill="#263238" stroke="#263238" stroke-miterlimit="10"/>
</svg>
