<svg width="352" height="304" viewBox="0 0 352 304" fill="none" xmlns="http://www.w3.org/2000/svg">
<path d="M17.418 253.063H351.612" stroke="white" stroke-miterlimit="10"/>
<path d="M71.4445 246.619L67.1076 267.313C67.1076 267.313 51.9901 278.837 48.6445 280.2C44.4314 282.059 40.4662 284.165 36.501 286.396C34.8901 287.387 35.1379 289.37 39.1032 290.98C43.0684 292.591 49.264 292.591 55.8315 290.98C62.3989 289.37 75.5337 285.776 78.5076 285.776C81.4815 285.776 89.6598 287.387 91.3946 283.422C93.0054 279.456 88.7924 265.702 88.4207 262.356C88.0489 259.135 90.0315 247.859 90.0315 247.859L71.4445 246.619Z" fill="#9DA3A5" stroke="#263238" stroke-linecap="round" stroke-linejoin="round"/>
<path d="M36.624 286.272C35.0131 287.263 35.261 289.246 39.2262 290.856C43.1914 292.467 49.3871 292.467 55.9545 290.856C62.5219 289.246 75.6567 285.652 78.6306 285.652C81.6046 285.652 89.7828 287.263 91.5176 283.298C92.5089 281.067 91.5176 275.491 90.4024 270.411C85.8176 273.633 74.7893 273.633 74.7893 273.633C74.5415 272.146 73.9219 270.783 72.8067 269.667C71.3198 268.18 69.3371 267.189 67.2306 267.065C67.2306 267.065 52.1132 278.589 48.7675 279.952C44.5545 281.935 40.5892 284.041 36.624 286.272Z" fill="white" stroke="#263238" stroke-miterlimit="10"/>
<path d="M56.9464 286.643C56.9464 286.643 45.7942 285.033 39.8464 283.422C33.8985 281.811 29.3137 281.067 21.755 277.226C14.1963 273.385 6.26587 269.667 2.67238 272.269C-0.921106 274.872 1.68107 284.041 6.63761 288.75C11.0985 293.087 16.3028 296.556 22.1268 298.911C26.7116 300.522 32.9072 302.876 37.8638 302.133C42.8203 301.513 47.4051 298.539 51.6181 298.539C55.0877 298.415 58.4334 298.167 61.779 297.548L56.9464 286.643Z" fill="#9DA3A5" stroke="#263238" stroke-linecap="round" stroke-linejoin="round"/>
<path d="M2.79543 272.146C-0.798059 274.748 1.80412 283.917 6.76065 288.626C11.2215 292.963 16.4259 296.433 22.2498 298.787C26.8346 300.398 33.0303 302.752 37.9868 302.009C40.3412 301.637 42.6955 300.893 44.926 300.026C42.8194 299.778 40.8368 299.283 38.8542 298.415C36.6238 296.556 34.5172 294.45 32.6585 292.22C34.889 292.715 37.3672 292.22 39.2259 290.856C42.5716 288.502 39.8455 283.298 39.8455 283.298C33.8977 281.687 29.3129 280.943 21.7542 277.102C14.3194 273.261 6.38891 269.543 2.79543 272.146Z" fill="white" stroke="#263238" stroke-miterlimit="10"/>
<path d="M184.453 184.539L177.513 189.743C177.513 189.743 138.976 128.654 121.009 116.882C103.041 105.11 88.1719 107.093 84.5784 114.28C80.9849 121.467 67.8501 250.585 67.8501 250.585L97.8371 252.567L111.344 180.574L154.094 236.83C154.094 236.83 118.902 261.365 109.981 266.322C101.059 271.278 54.0957 284.785 54.0957 284.785L58.6805 303C58.6805 303 95.7306 296.804 120.761 290.857C145.792 284.909 160.785 282.307 165.742 278.713C170.698 275.12 178.257 267.933 180.487 267.189C182.842 266.57 188.666 262.233 216.67 259.011C244.674 255.789 265.244 248.85 269.209 240.919C273.174 232.989 270.572 214.03 270.572 212.419C270.572 210.809 270.944 202.259 268.59 200.648C266.235 199.037 228.194 199.037 218.653 196.063C209.235 193.089 184.453 184.539 184.453 184.539Z" fill="#263238" stroke="#263238" stroke-linecap="round" stroke-linejoin="round"/>
<path d="M187.179 58.3951C187.179 58.3951 147.526 67.6886 145.668 71.2821C143.933 74.8755 107.379 131.38 108.494 133.115C109.609 134.85 114.194 152.445 114.194 152.445C114.194 152.445 122.744 146.374 129.559 146.374C136.374 146.374 142.074 146.745 142.074 146.745L140.959 131.752L166.485 109.819C166.485 109.819 187.922 147.737 189.285 151.702C190.772 155.667 188.913 167.067 187.55 171.776C186.187 176.484 182.594 177.104 182.222 181.441L181.85 185.778C181.85 185.778 206.137 196.806 210.103 197.921C214.068 199.037 218.653 200.028 218.653 200.028C219.024 202.506 219.024 204.985 218.653 207.587C217.661 210.437 216.298 213.163 214.687 215.765C214.687 215.765 225.468 204.365 240.833 203.621C256.198 202.878 259.42 202.506 262.27 204.365C265.12 206.224 270.82 214.774 270.82 214.774L272.307 220.102C272.183 211.8 272.679 203.374 273.794 195.071C275.529 183.3 275.529 167.191 277.388 160.004C279.246 152.817 285.194 95.693 285.566 89.2495C285.938 82.806 282.344 67.8125 279.122 64.9625C275.901 62.1125 234.266 50.4646 227.574 50.7125C220.511 50.8364 187.179 58.3951 187.179 58.3951Z" fill="#B0BEC5" stroke="#263238" stroke-linecap="round" stroke-linejoin="round"/>
<path d="M225.098 183.795C225.098 183.795 250.748 180.821 261.9 157.526" stroke="#263238" stroke-linecap="round" stroke-linejoin="round"/>
<path d="M257.315 171.652C257.315 171.652 244.18 184.167 230.426 188.132" stroke="#263238" stroke-linecap="round" stroke-linejoin="round"/>
<path d="M192.26 152.569C192.26 152.569 196.845 160.128 201.182 163.35" stroke="#263238" stroke-linecap="round" stroke-linejoin="round"/>
<path d="M156.45 96.9321L166.487 109.819L154.963 101.641" stroke="#263238" stroke-linecap="round" stroke-linejoin="round"/>
<path d="M141.084 131.628C141.084 131.628 131.79 125.928 123.24 124.813" stroke="#263238" stroke-linecap="round" stroke-linejoin="round"/>
<path d="M126.709 121.343C130.055 122.21 133.276 123.821 136.002 126.052" stroke="#263238" stroke-linecap="round" stroke-linejoin="round"/>
<path d="M265.492 130.637L252.977 117.378" stroke="#263238" stroke-linecap="round" stroke-linejoin="round"/>
<path d="M266.483 133.858L248.268 124.193" stroke="#263238" stroke-linecap="round" stroke-linejoin="round"/>
<path d="M186.437 68.8039C186.437 68.8039 184.33 79.5843 184.702 85.2843C185.074 90.9843 188.667 105.606 188.667 105.606C188.667 105.606 192.261 93.4626 194.367 91.3561C196.474 89.2496 198.704 86.0278 199.696 86.3995C200.811 86.7713 215.433 86.2756 215.433 86.2756C215.433 86.2756 225.222 92.4713 227.328 95.693C229.435 98.9148 234.887 107.093 234.887 107.093C234.887 107.093 234.887 84.9126 234.515 76.7343C234.144 68.556 232.285 50.7125 227.7 50.7125C223.115 50.7125 191.146 44.7647 186.437 68.8039Z" fill="white" stroke="#263238" stroke-linecap="round" stroke-linejoin="round"/>
<path d="M196.473 78.7169C196.473 78.7169 200.438 86.8952 202.916 91.9756C205.394 96.9322 208.988 102.013 210.475 100.154C211.962 98.4191 215.184 89.1256 216.547 80.2039C217.91 71.2821 196.473 78.7169 196.473 78.7169Z" stroke="#263238" stroke-linecap="round" stroke-linejoin="round"/>
<path d="M178.505 62.7321C178.505 62.7321 186.559 77.7256 188.789 80.2038C193.994 85.1604 199.694 89.6212 205.642 93.5865C208.863 94.9495 212.581 94.3299 215.307 91.9756C217.785 89.4973 227.45 71.0342 227.822 66.4495C227.946 63.1038 227.822 59.7581 227.45 56.4125C227.45 56.4125 229.681 55.1733 230.92 48.3581C232.159 41.5429 233.15 38.6929 226.583 34.9755C220.016 31.2581 208.492 36.8342 201.924 43.0298C195.357 49.2255 177.018 58.2712 177.018 58.2712L178.505 62.7321Z" fill="white" stroke="#263238" stroke-linecap="round" stroke-linejoin="round"/>
<path d="M209.978 8.21021C209.978 8.21021 204.65 1.02323 188.417 4.12107C172.185 7.2189 155.952 25.0624 155.085 29.6472C154.589 33.7364 154.589 37.8255 155.085 41.7907L161.28 36.4624C161.28 36.4624 156.572 46.9951 158.802 51.7038C160.413 54.9255 162.148 58.0234 164.13 61.1212L168.839 55.7929C168.839 55.7929 173.796 65.0864 175.654 66.0777L184.7 61.9886L185.939 66.3256C185.939 66.3256 190.896 63.4755 196.224 60.7495C201.552 58.0234 205.641 49.4733 205.641 49.4733L205.27 60.3777C205.27 60.3777 212.085 59.3864 214.563 56.9081C217.041 54.4299 219.272 46.0038 219.272 46.0038L222.741 56.2886C222.741 56.2886 225.22 46.6233 225.591 43.1538C225.963 39.6842 226.211 37.8255 226.211 37.8255C228.441 39.1885 230.052 41.419 230.548 44.0212C230.92 46.1277 230.92 48.2342 230.176 50.2168C230.176 50.2168 234.513 42.782 234.265 36.8342C234.017 30.8863 233.026 27.7885 228.07 20.9733C225.22 17.0081 221.874 13.4146 218.033 10.3167C218.033 10.3167 216.422 4.98846 214.315 2.88193C212.085 0.651494 210.598 1.02323 210.598 1.02323L212.209 8.21021H209.978Z" fill="#263238" stroke="#263238" stroke-linecap="round" stroke-linejoin="round"/>
<path d="M203.412 83.5496C203.412 83.5496 205.643 85.9039 207.501 85.4083C209.36 84.9126 211.343 83.5496 211.59 82.3104" stroke="#263238" stroke-linecap="round" stroke-linejoin="round"/>
<path d="M205.518 88.3821L211.342 87.5147" stroke="#263238" stroke-linecap="round" stroke-linejoin="round"/>
<path d="M189.285 73.5125C191.763 75.3712 195.233 75.2473 197.711 73.3886" stroke="#263238" stroke-linecap="round" stroke-linejoin="round"/>
<path d="M188.418 71.6538C190.772 69.0516 197.959 69.6712 197.959 69.6712L201.677 72.6451L203.535 81.0712" stroke="#263238" stroke-linecap="round" stroke-linejoin="round"/>
<path d="M209.111 70.2908C209.111 70.2908 214.687 72.2734 217.042 67.6886" stroke="#263238" stroke-linecap="round" stroke-linejoin="round"/>
<path d="M208.988 66.8212C211.095 65.8299 213.325 64.9625 215.556 64.2191C217.043 63.8473 218.654 63.8473 220.14 64.2191" stroke="#263238" stroke-linecap="round" stroke-linejoin="round"/>
<path d="M295.106 182.804C295.106 182.804 295.478 201.143 295.478 218.243C295.354 227.537 295.974 236.954 297.089 246.124C297.089 246.124 308.861 248.106 311.835 248.106C316.543 248.354 321.004 249.469 325.341 251.328C329.678 253.311 335.502 253.93 333.272 255.665C330.917 257.276 328.315 256.656 324.102 256.285C319.765 255.913 315.924 255.913 315.924 255.913C315.924 255.913 320.88 259.506 319.517 260.498C318.154 261.489 316.543 260.126 313.569 259.506C310.595 258.887 310.967 258.143 307.374 258.143C303.78 258.143 300.187 258.515 295.85 256.78C291.513 255.046 287.3 247.239 286.928 245.009C286.556 242.778 271.811 183.176 271.811 183.176L295.106 182.804Z" fill="white" stroke="#263238" stroke-linecap="round" stroke-linejoin="round"/>
<path d="M315.802 256.037L305.021 253.435" stroke="#263238" stroke-linecap="round" stroke-linejoin="round"/>
<path d="M260.412 110.563L270.449 177.724L295.48 175.245C295.48 175.245 292.258 152.321 293.001 137.328C293.745 122.334 289.78 71.1582 288.293 67.5647C286.806 63.9712 266.856 61.8647 266.856 61.8647" fill="#B0BEC5"/>
<path d="M260.412 110.563L270.449 177.724L295.48 175.245C295.48 175.245 292.258 152.321 293.001 137.328C293.745 122.334 289.78 71.1582 288.293 67.5647C286.806 63.9712 266.856 61.8647 266.856 61.8647" stroke="#263238" stroke-linecap="round" stroke-linejoin="round"/>
<path d="M143.19 152.445C143.19 152.445 152.855 202.878 153.97 205.356C155.086 207.835 158.307 240.052 158.307 241.167C158.307 242.283 157.564 251.204 157.564 251.204H154.714L154.342 243.646L153.97 236.83L151.616 254.054L148.147 254.55V244.389C148.147 243.522 147.899 235.839 147.899 235.839L144.801 249.841L143.933 252.072L141.455 251.948L141.827 246.248L141.951 234.476H139.72C139.72 234.476 138.977 241.415 139.225 242.406C139.349 243.398 139.225 249.965 139.225 249.965L136.87 248.974L135.879 240.424L135.631 228.776L141.331 203.25L116.301 154.304C116.301 154.304 124.727 134.354 143.19 152.445Z" fill="white" stroke="#263238" stroke-linecap="round" stroke-linejoin="round"/>
<path d="M108.619 144.887L115.806 159.137C118.284 155.791 121.754 153.313 125.843 152.321C132.287 150.834 143.315 152.321 143.315 152.321L144.802 138.319C144.678 138.443 119.276 133.115 108.619 144.887Z" fill="#B0BEC5" stroke="#263238" stroke-linecap="round" stroke-linejoin="round"/>
<path d="M266.234 173.263L271.067 188.752C274.784 189.371 278.502 189.619 282.219 189.743C287.424 189.743 298.7 185.778 298.7 185.778V167.067C298.7 167.067 280.36 171.404 266.234 173.263Z" fill="#B0BEC5" stroke="#263238" stroke-linecap="round" stroke-linejoin="round"/>
<path d="M163.387 234.724C163.387 234.724 217.909 216.756 227.45 211.056C236.991 205.48 258.924 204.117 261.898 213.411" stroke="#949494" stroke-linecap="round" stroke-linejoin="round"/>
<path d="M179.125 192.345C179.125 192.345 187.303 199.532 190.897 206.472" stroke="#263238" stroke-linecap="round" stroke-linejoin="round"/>
</svg>
