<svg width="742" height="393" viewBox="0 0 742 393" fill="none" xmlns="http://www.w3.org/2000/svg">
<path d="M544.49 87.3029L551.06 68.8297C549.691 62.2615 549.691 55.5564 551.334 49.125C552.429 45.9777 554.345 43.3778 557.083 41.462L559.409 38.1779C560.231 35.578 565.021 35.3043 565.021 35.3043C568.991 31.4728 570.496 38.0411 570.496 38.0411C570.496 38.0411 572.549 17.3785 579.256 19.431C581.035 19.9784 579.256 27.3677 578.298 33.7991C576.655 44.3356 575.56 52.5459 576.655 49.5355C578.435 44.7462 580.898 42.0094 582.267 43.2409C583.636 44.6093 581.993 51.5881 580.214 58.8405C578.435 66.0929 566.801 74.5769 566.801 74.5769L562.968 88.2608L544.49 87.3029Z" fill="white" stroke="#263238" stroke-linecap="round" stroke-linejoin="round"/>
<path d="M555.852 58.5668C557.495 53.9143 553.799 47.7566 555.168 48.0303C556.4 48.304 556.126 50.2197 556.537 52.546C556.947 54.8722 558.316 57.3353 560.232 57.3353C562.286 57.3353 562.012 52.9565 562.012 52.9565C562.012 52.9565 562.833 56.1038 564.612 56.1038C566.392 56.1038 566.665 51.3144 566.665 51.3144C566.665 51.3144 565.707 55.9669 568.855 55.8301C572.004 55.6932 570.909 41.8726 570.909 41.8726" stroke="#263238" stroke-linecap="round" stroke-linejoin="round"/>
<path d="M561.873 64.314C565.705 56.9248 571.044 56.9248 572.139 54.8722C573.097 53.5038 574.465 52.2723 575.971 51.7249" stroke="#263238" stroke-linecap="round" stroke-linejoin="round"/>
<path d="M566.117 48.0303L564.885 40.3673" stroke="#263238" stroke-linecap="round" stroke-linejoin="round"/>
<path d="M560.916 49.3987L559.547 42.5568" stroke="#263238" stroke-linecap="round" stroke-linejoin="round"/>
<path d="M687.798 392.316L693.546 307.339L687.661 253.972C687.661 253.972 638.934 260.54 579.394 246.172L577.889 321.297L581.447 365.359C610.054 375.074 637.565 387.937 668.362 391.221C674.932 391.905 681.365 392.316 687.798 392.316Z" fill="#263238" stroke="#263238" stroke-linecap="round" stroke-linejoin="round"/>
<path d="M687.798 253.972C687.798 253.972 639.071 260.54 579.531 246.172L579.395 254.93C584.322 258.488 597.051 265.74 624.289 269.161C652.759 272.719 678.217 266.835 688.756 263.824L687.798 253.972Z" fill="#707070" stroke="#263238" stroke-linecap="round" stroke-linejoin="round"/>
<path d="M655.631 269.709C657.821 269.572 660.011 269.298 662.064 269.024V255.477C639.48 255.751 616.896 253.698 594.723 249.456L596.228 253.972V263.14C597.871 263.688 599.787 264.235 601.703 264.782L602.114 254.383L656.179 258.625L655.631 269.709Z" fill="#263238" stroke="#263238" stroke-linecap="round" stroke-linejoin="round"/>
<path d="M614.707 267.656C617.718 268.203 620.866 268.614 624.288 269.161C628.257 269.709 632.227 269.982 636.059 270.119L636.333 261.772L615.391 258.214L614.707 267.656Z" fill="white" stroke="#263238" stroke-linecap="round" stroke-linejoin="round"/>
<path d="M600.609 266.424C600.609 266.424 592.397 282.435 581.857 284.35" stroke="#858585" stroke-linecap="round" stroke-linejoin="round"/>
<path d="M670.004 295.434C670.825 296.255 671.646 296.939 672.604 297.624" stroke="#858585" stroke-linecap="round" stroke-linejoin="round"/>
<path d="M659.328 273.814C660.423 280.382 662.887 286.54 666.719 291.876" stroke="#858585" stroke-linecap="round" stroke-linejoin="round"/>
<path d="M635.238 375.485V382.19" stroke="#858585" stroke-linecap="round" stroke-linejoin="round"/>
<path d="M619.635 324.033L635.238 337.717V370.695" stroke="#858585" stroke-linecap="round" stroke-linejoin="round"/>
<path d="M619.771 285.582L620.73 313.497L628.942 319.791L628.258 290.508" stroke="#858585" stroke-linecap="round" stroke-linejoin="round"/>
<path d="M619.225 273.814L619.498 278.877" stroke="#858585" stroke-linecap="round" stroke-linejoin="round"/>
<path d="M637.565 100.987C637.565 100.987 593.355 102.355 590.207 104.408C587.059 106.46 561.19 119.323 561.19 119.323C561.19 119.323 570.223 101.397 570.223 94.1448C570.223 86.8924 564.748 82.3767 554.62 78.5452C544.491 74.7138 530.804 80.3241 528.066 87.8503C525.329 95.3764 512.189 142.449 510.82 155.996C509.452 169.543 527.382 181.174 535.047 180.49C542.575 179.806 581.173 165.574 581.173 165.574C581.173 165.574 578.436 241.52 578.436 243.572C578.436 245.625 578.436 248.772 582.542 250.414C586.648 252.193 606.358 262.182 630.174 264.235C653.99 266.288 680.954 261.498 684.375 261.088C687.797 260.677 690.945 253.562 690.945 250.414C690.945 247.267 693.82 223.457 693.82 223.457L698.884 244.53C698.884 244.53 702.306 248.362 713.393 249.32C724.479 250.277 733.102 244.804 735.566 239.33C738.03 233.857 738.03 232.488 738.03 232.488C738.03 232.488 715.583 146.828 713.94 139.302C712.298 131.639 712.571 131.639 707.781 126.165C702.99 120.691 671.509 108.239 662.886 105.776C654.126 103.313 637.565 100.987 637.565 100.987Z" fill="#B0BEC5" stroke="#263238" stroke-linecap="round" stroke-linejoin="round"/>
<path d="M561.19 119.323L546.682 159.69" stroke="#263238" stroke-linecap="round" stroke-linejoin="round"/>
<path d="M555.304 136.565C555.714 143.133 555.44 149.701 554.619 156.269" stroke="#263238" stroke-linecap="round" stroke-linejoin="round"/>
<path d="M581.311 165.574L582.269 127.944" stroke="#263238" stroke-linecap="round" stroke-linejoin="round"/>
<path d="M581.311 159.006C581.311 159.006 575.425 144.775 574.33 132.049" stroke="#263238" stroke-linecap="round" stroke-linejoin="round"/>
<path d="M693.957 223.594L705.454 154.627" stroke="#263238" stroke-linecap="round" stroke-linejoin="round"/>
<path d="M698.473 197.458L709.012 164.48" stroke="#263238" stroke-linecap="round" stroke-linejoin="round"/>
<path d="M630.857 129.86L636.332 142.722L610.326 230.983L623.466 250.825L639.48 232.215L642.218 144.638L658.506 135.333L645.776 118.228L630.857 129.86Z" fill="#263238" stroke="#263238" stroke-linecap="round" stroke-linejoin="round"/>
<path d="M638.248 94.4185C638.248 94.4185 631.952 95.6501 631.678 97.9763C631.405 100.303 625.793 104.545 624.698 113.576C623.603 122.607 625.109 134.923 625.109 134.923C625.109 134.923 637.153 129.449 639.48 129.039C641.807 128.628 648.377 129.449 649.609 131.365C650.841 133.281 657 145.459 660.148 143.407C663.296 141.491 678.078 125.07 678.9 111.934C679.721 98.6605 666.855 99.8921 665.349 99.071C663.57 98.25 638.248 94.4185 638.248 94.4185Z" fill="#B0BEC5" stroke="#263238" stroke-linecap="round" stroke-linejoin="round"/>
<path d="M638.249 81.9662C638.249 81.9662 637.154 93.3238 636.332 102.629C635.511 111.934 634.416 121.649 638.249 126.712C642.081 131.775 646.461 132.596 655.768 125.481C665.076 118.502 670.551 112.207 672.193 105.639C673.836 99.071 676.026 91.9554 676.026 91.9554C676.026 91.9554 657 97.1553 638.249 81.9662Z" fill="white" stroke="#263238" stroke-linecap="round" stroke-linejoin="round"/>
<path d="M638.25 81.9662C638.25 81.9662 637.292 91.5449 636.471 100.303C639.208 103.313 642.904 105.366 646.873 106.05C659.465 108.65 670.826 99.2078 675.48 93.7343C675.89 92.6396 676.027 91.9554 676.027 91.9554C676.027 91.9554 657.002 97.1553 638.25 81.9662Z" fill="#263238" stroke="#263238" stroke-linecap="round" stroke-linejoin="round"/>
<path d="M566.116 86.2082L569.264 77.5874C556.535 81.282 550.513 77.861 548.186 75.2611L544.354 82.7872C544.354 82.7872 544.354 88.2608 553.661 90.0397C562.968 91.6817 566.116 86.2082 566.116 86.2082Z" fill="#B0BEC5" stroke="#263238" stroke-linecap="round" stroke-linejoin="round"/>
<path d="M715.445 237.141C715.445 237.141 704.358 237.415 700.799 241.52C697.241 245.625 696.967 265.74 696.967 269.024C696.967 272.308 703.4 281.887 715.034 284.213C726.805 286.54 736.797 279.561 736.934 272.172C737.207 264.919 742.135 244.941 741.04 237.415C739.945 229.752 734.881 227.152 734.881 227.152" fill="#B0BEC5"/>
<path d="M715.445 237.141C715.445 237.141 704.358 237.415 700.799 241.52C697.241 245.625 696.967 265.74 696.967 269.024C696.967 272.308 703.4 281.887 715.034 284.213C726.805 286.54 736.797 279.561 736.934 272.172C737.207 264.919 742.135 244.941 741.04 237.415C739.945 229.752 734.881 227.152 734.881 227.152" stroke="#263238" stroke-linecap="round" stroke-linejoin="round"/>
<path d="M714.076 285.308C721.711 285.308 727.9 279.304 727.9 271.898C727.9 264.492 721.711 258.488 714.076 258.488C706.441 258.488 700.252 264.492 700.252 271.898C700.252 279.304 706.441 285.308 714.076 285.308Z" fill="#B0BEC5" stroke="#263238" stroke-linecap="round" stroke-linejoin="round"/>
<path d="M718.047 284.213C718.047 284.213 719.552 277.782 718.047 273.951C716.541 270.119 706.96 265.193 703.949 266.288C700.937 267.382 702.443 269.435 699.842 270.666C697.242 271.898 687.25 273.266 685.197 275.866C683.144 278.466 681.638 283.529 678.49 289.276C675.342 295.024 671.51 297.76 675.89 298.034C679.722 298.171 683.281 295.982 684.923 292.424C685.881 290.508 687.524 289.003 689.303 288.045C689.303 288.045 681.365 305.971 682.596 307.613C683.144 308.571 683.965 309.255 684.923 309.665C684.923 309.665 684.102 313.223 686.155 314.044C687.387 314.592 688.893 314.455 689.988 313.771C689.988 313.771 692.588 315.823 694.094 315.823C695.052 315.823 696.01 315.549 696.694 315.002C696.694 315.002 701.622 315.549 703.127 313.223C704.496 310.897 711.066 303.234 714.214 297.213C716.267 293.245 717.499 288.729 718.047 284.213Z" fill="white" stroke="#263238" stroke-linecap="round" stroke-linejoin="round"/>
<path d="M685.061 309.939L697.516 291.192" stroke="#263238" stroke-linecap="round" stroke-linejoin="round"/>
<path d="M689.986 314.044L703.947 295.845" stroke="#263238" stroke-linecap="round" stroke-linejoin="round"/>
<path d="M696.693 315.139L707.78 302.687" stroke="#263238" stroke-linecap="round" stroke-linejoin="round"/>
<path d="M689.439 288.319L691.766 280.382" stroke="#263238" stroke-linecap="round" stroke-linejoin="round"/>
<path d="M634.691 51.1776C634.691 51.1776 633.049 45.704 629.627 49.946C626.205 54.188 628.121 64.4509 630.174 67.0508C632.227 69.6508 634.691 51.1776 634.691 51.1776Z" fill="white" stroke="#263238" stroke-linecap="round" stroke-linejoin="round"/>
<path d="M640.713 25.5889C640.713 25.5889 627.847 67.4614 629.9 76.4928C631.953 85.5241 635.375 100.576 650.02 103.724C664.665 106.871 677.942 94.4186 681.911 88.9451C681.911 88.9451 692.04 90.1766 694.778 83.4715C697.515 76.7664 701.347 69.9245 697.515 68.2824C695.736 67.4614 693.956 66.9141 692.04 66.7772C692.04 66.7772 702.853 49.6724 703.674 43.9252C704.496 38.178 700.389 18.6101 687.934 9.30509C675.478 7.65324e-05 654.537 -1.09463 655.769 3.14736C657.001 7.38935 659.601 7.79987 659.601 7.79987C659.601 7.79987 635.101 5.0631 633.185 11.6313C631.268 18.1996 641.671 22.1679 641.671 22.1679L640.713 25.5889Z" fill="white" stroke="#263238" stroke-linecap="round" stroke-linejoin="round"/>
<path d="M691.903 66.7771C691.903 66.7771 702.716 49.6723 703.538 43.9251C704.359 38.1779 700.39 18.7469 687.934 9.305C675.479 -0.13685 654.537 -1.09472 655.769 3.14727C657.001 7.38926 659.601 7.79978 659.601 7.79978C659.601 7.79978 635.101 5.06301 633.185 11.6313C631.269 18.1995 641.671 22.1678 641.671 22.1678L640.439 25.7256C640.439 25.7256 637.975 33.7991 635.375 43.5146H636.196C636.196 43.5146 637.428 39.9568 638.933 34.6201C640.439 29.2834 643.587 22.9888 659.191 24.4941C674.794 25.9993 690.261 34.2096 691.082 39.9568C691.903 45.704 685.197 48.1671 687.66 50.767C690.124 53.367 693.135 54.5985 691.082 56.6511C689.029 58.7037 685.197 66.7771 687.66 67.8718C690.124 68.9666 693.82 67.0508 693.82 67.0508H693.956C693.272 66.914 692.588 66.7771 691.903 66.7771Z" fill="#263238" stroke="#263238" stroke-linecap="round" stroke-linejoin="round"/>
<path d="M654.674 52.8196L647.693 71.4297L654.948 73.7559" stroke="#263238" stroke-linecap="round" stroke-linejoin="round"/>
<path d="M649.199 79.5031C654.811 82.1031 661.518 80.8715 665.898 76.3558" stroke="#263238" stroke-linecap="round" stroke-linejoin="round"/>
<path d="M640.713 42.6936C640.713 42.6936 650.431 44.1988 653.168 45.8409" stroke="#263238" stroke-width="2" stroke-linecap="round" stroke-linejoin="round"/>
<path d="M666.992 46.1146C666.992 46.1146 673.973 43.7883 678.626 49.6724" stroke="#263238" stroke-width="2" stroke-linecap="round" stroke-linejoin="round"/>
<path d="M646.462 52.546C646.189 54.188 645.23 55.5564 644.272 55.4196C643.314 55.2827 642.767 53.7775 642.904 52.1354C643.04 50.4934 644.135 49.125 645.094 49.2618C646.052 49.3987 646.736 50.9039 646.462 52.546Z" fill="#263238"/>
<path d="M668.91 58.9773C668.636 60.7562 667.678 61.9878 666.72 61.851C665.762 61.7141 665.214 60.2089 665.351 58.5668C665.488 56.9248 666.583 55.5564 667.541 55.6932C668.499 55.8301 669.183 57.3353 668.91 58.9773Z" fill="#263238"/>
<path d="M657.138 51.0407C657.138 51.0407 653.032 58.5668 656.317 62.672C659.602 66.6403 669.046 67.735 672.057 65.6824C674.931 63.6298 677.806 57.4721 677.806 57.4721C677.806 57.4721 666.856 51.0407 657.138 51.0407Z" stroke="#263238" stroke-linecap="round" stroke-linejoin="round"/>
<path d="M652.758 49.8092C652.758 49.8092 651.937 58.1563 648.105 60.3457C644.272 62.5352 637.702 59.1142 636.881 56.1037C635.923 53.0933 636.881 46.3882 636.881 46.3882C636.881 46.3882 646.599 45.5672 652.758 49.8092Z" stroke="#263238" stroke-linecap="round" stroke-linejoin="round"/>
<path d="M652.758 49.8092C652.758 49.8092 654.127 48.9881 657.138 51.0407" stroke="#263238" stroke-linecap="round" stroke-linejoin="round"/>
<path d="M677.805 57.8826C681.911 60.2089 686.017 62.5351 689.986 64.8614" stroke="#263238" stroke-linecap="round" stroke-linejoin="round"/>
<path d="M634.828 46.5251C636.334 46.6623 635.376 46.5251 636.881 46.6623" stroke="#263238" stroke-linecap="round" stroke-linejoin="round"/>
<g filter="url(#filter0_d_1111_2749)">
<path d="M493 66.5633L443.964 92.0587V140.729C443.964 145.852 439.806 150 434.671 150H10.2936C5.15765 150 1 145.852 1 140.729V68.2711C1 63.1476 5.15765 59 10.2936 59H434.548C439.684 59 443.842 63.1476 443.842 68.2711V77.7861L493 66.5633Z" fill="white"/>
<path d="M493.231 67.0069C493.454 66.8908 493.556 66.627 493.469 66.3909C493.383 66.1548 493.134 66.0198 492.889 66.0758L444.342 77.1591V68.2711C444.342 62.8703 439.959 58.5 434.548 58.5H10.2936C4.88266 58.5 0.5 62.8703 0.5 68.2711V140.729C0.5 146.13 4.88266 150.5 10.2936 150.5H434.671C440.081 150.5 444.464 146.13 444.464 140.729V92.3623L493.231 67.0069Z" stroke="#333E63" stroke-linecap="round" stroke-linejoin="round"/>
</g>
<path d="M32.56 97.18C31.288 97.18 30.136 96.904 29.104 96.352C28.084 95.788 27.28 95.014 26.692 94.03C26.116 93.046 25.828 91.936 25.828 90.7C25.828 89.464 26.122 88.354 26.71 87.37C27.298 86.386 28.102 85.618 29.122 85.066C30.154 84.502 31.306 84.22 32.578 84.22C33.61 84.22 34.552 84.4 35.404 84.76C36.256 85.12 36.976 85.642 37.564 86.326L36.052 87.748C35.14 86.764 34.018 86.272 32.686 86.272C31.822 86.272 31.048 86.464 30.364 86.848C29.68 87.22 29.146 87.742 28.762 88.414C28.378 89.086 28.186 89.848 28.186 90.7C28.186 91.552 28.378 92.314 28.762 92.986C29.146 93.658 29.68 94.186 30.364 94.57C31.048 94.942 31.822 95.128 32.686 95.128C34.018 95.128 35.14 94.63 36.052 93.634L37.564 95.074C36.976 95.758 36.25 96.28 35.386 96.64C34.534 97 33.592 97.18 32.56 97.18ZM48.1331 92.248C48.1331 92.404 48.1211 92.626 48.0971 92.914H40.5551C40.6871 93.622 41.0291 94.186 41.5811 94.606C42.1451 95.014 42.8411 95.218 43.6691 95.218C44.7251 95.218 45.5951 94.87 46.2791 94.174L47.4851 95.56C47.0531 96.076 46.5071 96.466 45.8471 96.73C45.1871 96.994 44.4431 97.126 43.6151 97.126C42.5591 97.126 41.6291 96.916 40.8251 96.496C40.0211 96.076 39.3971 95.494 38.9531 94.75C38.5211 93.994 38.3051 93.142 38.3051 92.194C38.3051 91.258 38.5151 90.418 38.9351 89.674C39.3671 88.918 39.9611 88.33 40.7171 87.91C41.4731 87.49 42.3251 87.28 43.2731 87.28C44.2091 87.28 45.0431 87.49 45.7751 87.91C46.5191 88.318 47.0951 88.9 47.5031 89.656C47.9231 90.4 48.1331 91.264 48.1331 92.248ZM43.2731 89.08C42.5531 89.08 41.9411 89.296 41.4371 89.728C40.9451 90.148 40.6451 90.712 40.5371 91.42H45.9911C45.8951 90.724 45.6011 90.16 45.1091 89.728C44.6171 89.296 44.0051 89.08 43.2731 89.08ZM55.922 87.28C56.858 87.28 57.692 87.484 58.424 87.892C59.168 88.3 59.75 88.876 60.17 89.62C60.59 90.364 60.8 91.222 60.8 92.194C60.8 93.166 60.59 94.03 60.17 94.786C59.75 95.53 59.168 96.106 58.424 96.514C57.692 96.922 56.858 97.126 55.922 97.126C54.626 97.126 53.6 96.694 52.844 95.83V100.492H50.594V87.388H52.736V88.648C53.108 88.192 53.564 87.85 54.104 87.622C54.656 87.394 55.262 87.28 55.922 87.28ZM55.67 95.2C56.498 95.2 57.176 94.924 57.704 94.372C58.244 93.82 58.514 93.094 58.514 92.194C58.514 91.294 58.244 90.568 57.704 90.016C57.176 89.464 56.498 89.188 55.67 89.188C55.13 89.188 54.644 89.314 54.212 89.566C53.78 89.806 53.438 90.154 53.186 90.61C52.934 91.066 52.808 91.594 52.808 92.194C52.808 92.794 52.934 93.322 53.186 93.778C53.438 94.234 53.78 94.588 54.212 94.84C54.644 95.08 55.13 95.2 55.67 95.2ZM70.4193 89.296H65.2893V97H63.0393V87.388H70.4193V89.296ZM80.635 92.248C80.635 92.404 80.623 92.626 80.599 92.914H73.057C73.189 93.622 73.531 94.186 74.083 94.606C74.647 95.014 75.343 95.218 76.171 95.218C77.227 95.218 78.097 94.87 78.781 94.174L79.987 95.56C79.555 96.076 79.009 96.466 78.349 96.73C77.689 96.994 76.945 97.126 76.117 97.126C75.061 97.126 74.131 96.916 73.327 96.496C72.523 96.076 71.899 95.494 71.455 94.75C71.023 93.994 70.807 93.142 70.807 92.194C70.807 91.258 71.017 90.418 71.437 89.674C71.869 88.918 72.463 88.33 73.219 87.91C73.975 87.49 74.827 87.28 75.775 87.28C76.711 87.28 77.545 87.49 78.277 87.91C79.021 88.318 79.597 88.9 80.005 89.656C80.425 90.4 80.635 91.264 80.635 92.248ZM75.775 89.08C75.055 89.08 74.443 89.296 73.939 89.728C73.447 90.148 73.147 90.712 73.039 91.42H78.493C78.397 90.724 78.103 90.16 77.611 89.728C77.119 89.296 76.507 89.08 75.775 89.08ZM83.096 87.388H85.346V93.724L90.656 87.388H92.708V97H90.458V90.664L85.166 97H83.096V87.388ZM87.758 86.254C86.786 86.254 86.042 86.032 85.526 85.588C85.022 85.132 84.764 84.472 84.752 83.608H86.246C86.258 84.04 86.39 84.382 86.642 84.634C86.906 84.886 87.272 85.012 87.74 85.012C88.196 85.012 88.556 84.886 88.82 84.634C89.096 84.382 89.24 84.04 89.252 83.608H90.782C90.77 84.472 90.506 85.132 89.99 85.588C89.474 86.032 88.73 86.254 87.758 86.254ZM110.969 95.092V99.142H108.863V97H101.447V99.142H99.3593V95.092H99.8093C100.421 95.068 100.835 94.678 101.051 93.922C101.279 93.154 101.429 92.074 101.501 90.682L101.627 87.388H109.547V95.092H110.969ZM103.553 90.844C103.505 91.948 103.415 92.848 103.283 93.544C103.151 94.24 102.911 94.756 102.563 95.092H107.297V89.296H103.607L103.553 90.844ZM117.263 97.126C116.291 97.126 115.415 96.916 114.635 96.496C113.855 96.076 113.243 95.494 112.799 94.75C112.367 93.994 112.151 93.142 112.151 92.194C112.151 91.246 112.367 90.4 112.799 89.656C113.243 88.912 113.855 88.33 114.635 87.91C115.415 87.49 116.291 87.28 117.263 87.28C118.247 87.28 119.129 87.49 119.909 87.91C120.689 88.33 121.295 88.912 121.727 89.656C122.171 90.4 122.393 91.246 122.393 92.194C122.393 93.142 122.171 93.994 121.727 94.75C121.295 95.494 120.689 96.076 119.909 96.496C119.129 96.916 118.247 97.126 117.263 97.126ZM117.263 95.2C118.091 95.2 118.775 94.924 119.315 94.372C119.855 93.82 120.125 93.094 120.125 92.194C120.125 91.294 119.855 90.568 119.315 90.016C118.775 89.464 118.091 89.188 117.263 89.188C116.435 89.188 115.751 89.464 115.211 90.016C114.683 90.568 114.419 91.294 114.419 92.194C114.419 93.094 114.683 93.82 115.211 94.372C115.751 94.924 116.435 95.2 117.263 95.2ZM133.832 87.388V97H131.6V89.296H126.866V97H124.616V87.388H133.832ZM145.939 87.388L141.439 97.774C141.019 98.818 140.509 99.55 139.909 99.97C139.309 100.402 138.583 100.618 137.731 100.618C137.251 100.618 136.777 100.54 136.309 100.384C135.841 100.228 135.457 100.012 135.157 99.736L136.057 98.08C136.273 98.284 136.525 98.446 136.813 98.566C137.113 98.686 137.413 98.746 137.713 98.746C138.109 98.746 138.433 98.644 138.685 98.44C138.949 98.236 139.189 97.894 139.405 97.414L139.567 97.036L135.373 87.388H137.713L140.737 94.498L143.779 87.388H145.939ZM151.613 97.126C150.617 97.126 149.723 96.916 148.931 96.496C148.139 96.076 147.521 95.494 147.077 94.75C146.633 93.994 146.411 93.142 146.411 92.194C146.411 91.246 146.633 90.4 147.077 89.656C147.521 88.912 148.133 88.33 148.913 87.91C149.705 87.49 150.605 87.28 151.613 87.28C152.561 87.28 153.389 87.472 154.097 87.856C154.817 88.24 155.357 88.792 155.717 89.512L153.989 90.52C153.713 90.076 153.365 89.746 152.945 89.53C152.537 89.302 152.087 89.188 151.595 89.188C150.755 89.188 150.059 89.464 149.507 90.016C148.955 90.556 148.679 91.282 148.679 92.194C148.679 93.106 148.949 93.838 149.489 94.39C150.041 94.93 150.743 95.2 151.595 95.2C152.087 95.2 152.537 95.092 152.945 94.876C153.365 94.648 153.713 94.312 153.989 93.868L155.717 94.876C155.345 95.596 154.799 96.154 154.079 96.55C153.371 96.934 152.549 97.126 151.613 97.126ZM165.224 89.296H161.858V97H159.608V89.296H156.224V87.388H165.224V89.296ZM166.856 87.388H169.106V93.724L174.416 87.388H176.468V97H174.218V90.664L168.926 97H166.856V87.388ZM188.206 87.388V97H185.956V89.296H182.356L182.266 91.204C182.206 92.476 182.086 93.544 181.906 94.408C181.738 95.26 181.444 95.938 181.024 96.442C180.616 96.934 180.052 97.18 179.332 97.18C178.996 97.18 178.582 97.114 178.09 96.982L178.198 95.092C178.366 95.128 178.51 95.146 178.63 95.146C179.086 95.146 179.428 94.966 179.656 94.606C179.884 94.234 180.028 93.796 180.088 93.292C180.16 92.776 180.22 92.044 180.268 91.096L180.43 87.388H188.206ZM200.495 97.126C199.523 97.126 198.647 96.916 197.867 96.496C197.087 96.076 196.475 95.494 196.031 94.75C195.599 93.994 195.383 93.142 195.383 92.194C195.383 91.246 195.599 90.4 196.031 89.656C196.475 88.912 197.087 88.33 197.867 87.91C198.647 87.49 199.523 87.28 200.495 87.28C201.479 87.28 202.361 87.49 203.141 87.91C203.921 88.33 204.527 88.912 204.959 89.656C205.403 90.4 205.625 91.246 205.625 92.194C205.625 93.142 205.403 93.994 204.959 94.75C204.527 95.494 203.921 96.076 203.141 96.496C202.361 96.916 201.479 97.126 200.495 97.126ZM200.495 95.2C201.323 95.2 202.007 94.924 202.547 94.372C203.087 93.82 203.357 93.094 203.357 92.194C203.357 91.294 203.087 90.568 202.547 90.016C202.007 89.464 201.323 89.188 200.495 89.188C199.667 89.188 198.983 89.464 198.443 90.016C197.915 90.568 197.651 91.294 197.651 92.194C197.651 93.094 197.915 93.82 198.443 94.372C198.983 94.924 199.667 95.2 200.495 95.2ZM222.014 87.388V97H207.848V87.388H210.098V95.092H213.824V87.388H216.074V95.092H219.764V87.388H222.014ZM225.039 87.388H227.289V93.724L232.599 87.388H234.651V97H232.401V90.664L227.109 97H225.039V87.388ZM242.88 87.856C243.792 87.856 244.596 88.054 245.292 88.45C245.988 88.834 246.528 89.374 246.912 90.07C247.308 90.766 247.506 91.564 247.506 92.464C247.506 93.388 247.29 94.21 246.858 94.93C246.426 95.638 245.82 96.19 245.04 96.586C244.26 96.982 243.372 97.18 242.376 97.18C240.708 97.18 239.418 96.628 238.506 95.524C237.594 94.42 237.138 92.83 237.138 90.754C237.138 88.822 237.552 87.292 238.38 86.164C239.208 85.036 240.474 84.292 242.178 83.932L246.642 82.978L246.966 84.994L242.916 85.822C241.752 86.062 240.882 86.47 240.306 87.046C239.73 87.622 239.394 88.432 239.298 89.476C239.73 88.96 240.252 88.564 240.864 88.288C241.476 88 242.148 87.856 242.88 87.856ZM242.43 95.362C243.258 95.362 243.924 95.098 244.428 94.57C244.944 94.03 245.202 93.346 245.202 92.518C245.202 91.69 244.944 91.024 244.428 90.52C243.924 90.016 243.258 89.764 242.43 89.764C241.59 89.764 240.912 90.016 240.396 90.52C239.88 91.024 239.622 91.69 239.622 92.518C239.622 93.358 239.88 94.042 240.396 94.57C240.924 95.098 241.602 95.362 242.43 95.362ZM253.68 93.148H251.934V97H249.684V87.388H251.934V91.276H253.734L256.578 87.388H258.99L255.498 92.014L259.224 97H256.578L253.68 93.148ZM260.811 87.388H263.061V93.724L268.371 87.388H270.423V97H268.173V90.664L262.881 97H260.811V87.388ZM274.152 94.138C274.572 94.138 274.92 94.276 275.196 94.552C275.472 94.828 275.61 95.188 275.61 95.632C275.61 95.824 275.58 96.028 275.52 96.244C275.472 96.448 275.364 96.76 275.196 97.18L274.278 99.718H272.82L273.54 96.964C273.276 96.856 273.066 96.688 272.91 96.46C272.766 96.22 272.694 95.944 272.694 95.632C272.694 95.188 272.832 94.828 273.108 94.552C273.384 94.276 273.732 94.138 274.152 94.138Z" fill="#FF5745"/>
<path d="M286.689 92.968H284.709V97H282.981V87.46H284.709V91.492H286.725L289.821 87.46H291.675L288.057 92.05L291.927 97H289.893L286.689 92.968ZM297.508 97.108C296.56 97.108 295.708 96.898 294.952 96.478C294.196 96.058 293.602 95.482 293.17 94.75C292.75 94.006 292.54 93.166 292.54 92.23C292.54 91.294 292.75 90.46 293.17 89.728C293.602 88.984 294.196 88.408 294.952 88C295.708 87.58 296.56 87.37 297.508 87.37C298.456 87.37 299.302 87.58 300.046 88C300.802 88.408 301.39 88.984 301.81 89.728C302.242 90.46 302.458 91.294 302.458 92.23C302.458 93.166 302.242 94.006 301.81 94.75C301.39 95.482 300.802 96.058 300.046 96.478C299.302 96.898 298.456 97.108 297.508 97.108ZM297.508 95.596C298.12 95.596 298.666 95.458 299.146 95.182C299.638 94.894 300.022 94.498 300.298 93.994C300.574 93.478 300.712 92.89 300.712 92.23C300.712 91.57 300.574 90.988 300.298 90.484C300.022 89.968 299.638 89.572 299.146 89.296C298.666 89.02 298.12 88.882 297.508 88.882C296.896 88.882 296.344 89.02 295.852 89.296C295.372 89.572 294.988 89.968 294.7 90.484C294.424 90.988 294.286 91.57 294.286 92.23C294.286 92.89 294.424 93.478 294.7 93.994C294.988 94.498 295.372 94.894 295.852 95.182C296.344 95.458 296.896 95.596 297.508 95.596ZM311.712 88.972H308.22V97H306.492V88.972H303V87.46H311.712V88.972ZM317.143 97.108C316.195 97.108 315.343 96.898 314.587 96.478C313.831 96.058 313.237 95.482 312.805 94.75C312.385 94.006 312.175 93.166 312.175 92.23C312.175 91.294 312.385 90.46 312.805 89.728C313.237 88.984 313.831 88.408 314.587 88C315.343 87.58 316.195 87.37 317.143 87.37C318.091 87.37 318.937 87.58 319.681 88C320.437 88.408 321.025 88.984 321.445 89.728C321.877 90.46 322.093 91.294 322.093 92.23C322.093 93.166 321.877 94.006 321.445 94.75C321.025 95.482 320.437 96.058 319.681 96.478C318.937 96.898 318.091 97.108 317.143 97.108ZM317.143 95.596C317.755 95.596 318.301 95.458 318.781 95.182C319.273 94.894 319.657 94.498 319.933 93.994C320.209 93.478 320.347 92.89 320.347 92.23C320.347 91.57 320.209 90.988 319.933 90.484C319.657 89.968 319.273 89.572 318.781 89.296C318.301 89.02 317.755 88.882 317.143 88.882C316.531 88.882 315.979 89.02 315.487 89.296C315.007 89.572 314.623 89.968 314.335 90.484C314.059 90.988 313.921 91.57 313.921 92.23C313.921 92.89 314.059 93.478 314.335 93.994C314.623 94.498 315.007 94.894 315.487 95.182C315.979 95.458 316.531 95.596 317.143 95.596ZM329.646 87.37C330.57 87.37 331.398 87.574 332.13 87.982C332.862 88.39 333.432 88.96 333.84 89.692C334.26 90.424 334.47 91.27 334.47 92.23C334.47 93.19 334.26 94.042 333.84 94.786C333.432 95.518 332.862 96.088 332.13 96.496C331.398 96.904 330.57 97.108 329.646 97.108C328.962 97.108 328.332 96.976 327.756 96.712C327.192 96.448 326.712 96.064 326.316 95.56V100.492H324.588V87.46H326.244V88.972C326.628 88.444 327.114 88.048 327.702 87.784C328.29 87.508 328.938 87.37 329.646 87.37ZM329.502 95.596C330.114 95.596 330.66 95.458 331.14 95.182C331.632 94.894 332.016 94.498 332.292 93.994C332.58 93.478 332.724 92.89 332.724 92.23C332.724 91.57 332.58 90.988 332.292 90.484C332.016 89.968 331.632 89.572 331.14 89.296C330.66 89.02 330.114 88.882 329.502 88.882C328.902 88.882 328.356 89.026 327.864 89.314C327.384 89.59 327 89.98 326.712 90.484C326.436 90.988 326.298 91.57 326.298 92.23C326.298 92.89 326.436 93.478 326.712 93.994C326.988 94.498 327.372 94.894 327.864 95.182C328.356 95.458 328.902 95.596 329.502 95.596ZM341.283 90.7C342.483 90.712 343.401 90.988 344.037 91.528C344.673 92.068 344.991 92.83 344.991 93.814C344.991 94.846 344.643 95.644 343.947 96.208C343.263 96.76 342.279 97.03 340.995 97.018L336.981 97V87.46H338.709V90.682L341.283 90.7ZM346.413 87.46H348.141V97H346.413V87.46ZM340.869 95.704C341.649 95.716 342.237 95.56 342.633 95.236C343.041 94.912 343.245 94.432 343.245 93.796C343.245 93.172 343.047 92.716 342.651 92.428C342.255 92.14 341.661 91.99 340.869 91.978L338.709 91.942V95.686L340.869 95.704ZM360.122 92.284C360.122 92.416 360.11 92.59 360.086 92.806H352.346C352.454 93.646 352.82 94.324 353.444 94.84C354.08 95.344 354.866 95.596 355.802 95.596C356.942 95.596 357.86 95.212 358.556 94.444L359.51 95.56C359.078 96.064 358.538 96.448 357.89 96.712C357.254 96.976 356.54 97.108 355.748 97.108C354.74 97.108 353.846 96.904 353.066 96.496C352.286 96.076 351.68 95.494 351.248 94.75C350.828 94.006 350.618 93.166 350.618 92.23C350.618 91.306 350.822 90.472 351.23 89.728C351.65 88.984 352.22 88.408 352.94 88C353.672 87.58 354.494 87.37 355.406 87.37C356.318 87.37 357.128 87.58 357.836 88C358.556 88.408 359.114 88.984 359.51 89.728C359.918 90.472 360.122 91.324 360.122 92.284ZM355.406 88.828C354.578 88.828 353.882 89.08 353.318 89.584C352.766 90.088 352.442 90.748 352.346 91.564H358.466C358.37 90.76 358.04 90.106 357.476 89.602C356.924 89.086 356.234 88.828 355.406 88.828ZM375.251 87.46V97H373.523V93.148C372.491 93.628 371.465 93.868 370.445 93.868C369.257 93.868 368.339 93.592 367.691 93.04C367.043 92.488 366.719 91.66 366.719 90.556V87.46H368.447V90.448C368.447 91.108 368.651 91.606 369.059 91.942C369.479 92.278 370.061 92.446 370.805 92.446C371.645 92.446 372.551 92.236 373.523 91.816V87.46H375.251ZM382.008 87.37C383.328 87.37 384.336 87.694 385.032 88.342C385.74 88.99 386.094 89.956 386.094 91.24V97H384.456V95.74C384.168 96.184 383.754 96.526 383.214 96.766C382.686 96.994 382.056 97.108 381.324 97.108C380.256 97.108 379.398 96.85 378.75 96.334C378.114 95.818 377.796 95.14 377.796 94.3C377.796 93.46 378.102 92.788 378.714 92.284C379.326 91.768 380.298 91.51 381.63 91.51H384.366V91.168C384.366 90.424 384.15 89.854 383.718 89.458C383.286 89.062 382.65 88.864 381.81 88.864C381.246 88.864 380.694 88.96 380.154 89.152C379.614 89.332 379.158 89.578 378.786 89.89L378.066 88.594C378.558 88.198 379.146 87.898 379.83 87.694C380.514 87.478 381.24 87.37 382.008 87.37ZM381.612 95.776C382.272 95.776 382.842 95.632 383.322 95.344C383.802 95.044 384.15 94.624 384.366 94.084V92.752H381.702C380.238 92.752 379.506 93.244 379.506 94.228C379.506 94.708 379.692 95.086 380.064 95.362C380.436 95.638 380.952 95.776 381.612 95.776ZM393.363 97.108C392.391 97.108 391.521 96.898 390.753 96.478C389.997 96.058 389.403 95.482 388.971 94.75C388.539 94.006 388.323 93.166 388.323 92.23C388.323 91.294 388.539 90.46 388.971 89.728C389.403 88.984 389.997 88.408 390.753 88C391.521 87.58 392.391 87.37 393.363 87.37C394.227 87.37 394.995 87.544 395.667 87.892C396.351 88.24 396.879 88.744 397.251 89.404L395.937 90.25C395.637 89.794 395.265 89.452 394.821 89.224C394.377 88.996 393.885 88.882 393.345 88.882C392.721 88.882 392.157 89.02 391.653 89.296C391.161 89.572 390.771 89.968 390.483 90.484C390.207 90.988 390.069 91.57 390.069 92.23C390.069 92.902 390.207 93.496 390.483 94.012C390.771 94.516 391.161 94.906 391.653 95.182C392.157 95.458 392.721 95.596 393.345 95.596C393.885 95.596 394.377 95.482 394.821 95.254C395.265 95.026 395.637 94.684 395.937 94.228L397.251 95.056C396.879 95.716 396.351 96.226 395.667 96.586C394.995 96.934 394.227 97.108 393.363 97.108ZM406.475 88.972H402.983V97H401.255V88.972H397.763V87.46H406.475V88.972ZM411.906 97.108C410.958 97.108 410.106 96.898 409.35 96.478C408.594 96.058 408 95.482 407.568 94.75C407.148 94.006 406.938 93.166 406.938 92.23C406.938 91.294 407.148 90.46 407.568 89.728C408 88.984 408.594 88.408 409.35 88C410.106 87.58 410.958 87.37 411.906 87.37C412.854 87.37 413.7 87.58 414.444 88C415.2 88.408 415.788 88.984 416.208 89.728C416.64 90.46 416.856 91.294 416.856 92.23C416.856 93.166 416.64 94.006 416.208 94.75C415.788 95.482 415.2 96.058 414.444 96.478C413.7 96.898 412.854 97.108 411.906 97.108ZM411.906 95.596C412.518 95.596 413.064 95.458 413.544 95.182C414.036 94.894 414.42 94.498 414.696 93.994C414.972 93.478 415.11 92.89 415.11 92.23C415.11 91.57 414.972 90.988 414.696 90.484C414.42 89.968 414.036 89.572 413.544 89.296C413.064 89.02 412.518 88.882 411.906 88.882C411.294 88.882 410.742 89.02 410.25 89.296C409.77 89.572 409.386 89.968 409.098 90.484C408.822 90.988 408.684 91.57 408.684 92.23C408.684 92.89 408.822 93.478 409.098 93.994C409.386 94.498 409.77 94.894 410.25 95.182C410.742 95.458 411.294 95.596 411.906 95.596ZM36.376 117.488V121.214H34.756V119H26.782V121.214H25.144V117.488H25.648C26.26 117.452 26.68 117.02 26.908 116.192C27.136 115.364 27.292 114.194 27.376 112.682L27.52 109.46H34.918V117.488H36.376ZM28.96 112.808C28.912 114.008 28.81 115.004 28.654 115.796C28.51 116.576 28.24 117.14 27.844 117.488H33.19V110.972H29.05L28.96 112.808ZM42.7131 119.108C41.7651 119.108 40.9131 118.898 40.1571 118.478C39.4011 118.058 38.8071 117.482 38.3751 116.75C37.9551 116.006 37.7451 115.166 37.7451 114.23C37.7451 113.294 37.9551 112.46 38.3751 111.728C38.8071 110.984 39.4011 110.408 40.1571 110C40.9131 109.58 41.7651 109.37 42.7131 109.37C43.6611 109.37 44.5071 109.58 45.2511 110C46.0071 110.408 46.5951 110.984 47.0151 111.728C47.4471 112.46 47.6631 113.294 47.6631 114.23C47.6631 115.166 47.4471 116.006 47.0151 116.75C46.5951 117.482 46.0071 118.058 45.2511 118.478C44.5071 118.898 43.6611 119.108 42.7131 119.108ZM42.7131 117.596C43.3251 117.596 43.8711 117.458 44.3511 117.182C44.8431 116.894 45.2271 116.498 45.5031 115.994C45.7791 115.478 45.9171 114.89 45.9171 114.23C45.9171 113.57 45.7791 112.988 45.5031 112.484C45.2271 111.968 44.8431 111.572 44.3511 111.296C43.8711 111.02 43.3251 110.882 42.7131 110.882C42.1011 110.882 41.5491 111.02 41.0571 111.296C40.5771 111.572 40.1931 111.968 39.9051 112.484C39.6291 112.988 39.4911 113.57 39.4911 114.23C39.4911 114.89 39.6291 115.478 39.9051 115.994C40.1931 116.498 40.5771 116.894 41.0571 117.182C41.5491 117.458 42.1011 117.596 42.7131 117.596ZM58.9964 109.46V119H57.2684V110.972H51.8864V119H50.1584V109.46H58.9964ZM70.854 109.46L66.228 119.954C65.82 120.926 65.34 121.61 64.788 122.006C64.248 122.402 63.594 122.6 62.826 122.6C62.358 122.6 61.902 122.522 61.458 122.366C61.026 122.222 60.666 122.006 60.378 121.718L61.116 120.422C61.608 120.89 62.178 121.124 62.826 121.124C63.246 121.124 63.594 121.01 63.87 120.782C64.158 120.566 64.416 120.188 64.644 119.648L64.95 118.982L60.738 109.46H62.538L65.868 117.092L69.162 109.46H70.854ZM76.5175 119.108C75.5455 119.108 74.6755 118.898 73.9075 118.478C73.1515 118.058 72.5575 117.482 72.1255 116.75C71.6935 116.006 71.4775 115.166 71.4775 114.23C71.4775 113.294 71.6935 112.46 72.1255 111.728C72.5575 110.984 73.1515 110.408 73.9075 110C74.6755 109.58 75.5455 109.37 76.5175 109.37C77.3815 109.37 78.1495 109.544 78.8215 109.892C79.5055 110.24 80.0335 110.744 80.4055 111.404L79.0915 112.25C78.7915 111.794 78.4195 111.452 77.9755 111.224C77.5315 110.996 77.0395 110.882 76.4995 110.882C75.8755 110.882 75.3115 111.02 74.8075 111.296C74.3155 111.572 73.9255 111.968 73.6375 112.484C73.3615 112.988 73.2235 113.57 73.2235 114.23C73.2235 114.902 73.3615 115.496 73.6375 116.012C73.9255 116.516 74.3155 116.906 74.8075 117.182C75.3115 117.458 75.8755 117.596 76.4995 117.596C77.0395 117.596 77.5315 117.482 77.9755 117.254C78.4195 117.026 78.7915 116.684 79.0915 116.228L80.4055 117.056C80.0335 117.716 79.5055 118.226 78.8215 118.586C78.1495 118.934 77.3815 119.108 76.5175 119.108ZM86.3508 114.968H84.3708V119H82.6428V109.46H84.3708V113.492H86.3868L89.4828 109.46H91.3368L87.7188 114.05L91.5888 119H89.5548L86.3508 114.968ZM96.6268 109.37C97.9468 109.37 98.9548 109.694 99.6508 110.342C100.359 110.99 100.713 111.956 100.713 113.24V119H99.0748V117.74C98.7868 118.184 98.3728 118.526 97.8328 118.766C97.3048 118.994 96.6748 119.108 95.9428 119.108C94.8748 119.108 94.0168 118.85 93.3688 118.334C92.7328 117.818 92.4148 117.14 92.4148 116.3C92.4148 115.46 92.7208 114.788 93.3328 114.284C93.9448 113.768 94.9168 113.51 96.2488 113.51H98.9848V113.168C98.9848 112.424 98.7688 111.854 98.3368 111.458C97.9048 111.062 97.2688 110.864 96.4288 110.864C95.8648 110.864 95.3128 110.96 94.7728 111.152C94.2328 111.332 93.7768 111.578 93.4048 111.89L92.6848 110.594C93.1768 110.198 93.7648 109.898 94.4488 109.694C95.1328 109.478 95.8588 109.37 96.6268 109.37ZM96.2308 117.776C96.8908 117.776 97.4608 117.632 97.9408 117.344C98.4208 117.044 98.7688 116.624 98.9848 116.084V114.752H96.3208C94.8568 114.752 94.1248 115.244 94.1248 116.228C94.1248 116.708 94.3108 117.086 94.6828 117.362C95.0548 117.638 95.5708 117.776 96.2308 117.776ZM112.266 109.37C113.19 109.37 114.018 109.58 114.75 110C115.482 110.408 116.058 110.984 116.478 111.728C116.898 112.46 117.108 113.294 117.108 114.23C117.108 115.166 116.898 116.006 116.478 116.75C116.058 117.482 115.482 118.058 114.75 118.478C114.018 118.898 113.19 119.108 112.266 119.108C111.426 119.108 110.664 118.934 109.98 118.586C109.296 118.238 108.732 117.752 108.288 117.128C107.856 116.492 107.586 115.772 107.478 114.968H105.552V119H103.824V109.46H105.552V113.366H107.496C107.616 112.574 107.892 111.878 108.324 111.278C108.768 110.666 109.326 110.198 109.998 109.874C110.682 109.538 111.438 109.37 112.266 109.37ZM112.266 117.596C112.854 117.596 113.382 117.458 113.85 117.182C114.33 116.906 114.708 116.516 114.984 116.012C115.26 115.496 115.398 114.902 115.398 114.23C115.398 113.57 115.26 112.988 114.984 112.484C114.708 111.968 114.33 111.572 113.85 111.296C113.382 111.02 112.854 110.882 112.266 110.882C111.678 110.882 111.144 111.02 110.664 111.296C110.184 111.572 109.806 111.968 109.53 112.484C109.266 112.988 109.134 113.57 109.134 114.23C109.134 114.902 109.266 115.496 109.53 116.012C109.806 116.516 110.184 116.906 110.664 117.182C111.144 117.458 111.678 117.596 112.266 117.596ZM126.35 110.972H122.858V119H121.13V110.972H117.638V109.46H126.35V110.972ZM132.951 109.46H134.679V113.51H140.115V109.46H141.843V119H140.115V115.004H134.679V119H132.951V109.46ZM148.605 109.37C149.925 109.37 150.933 109.694 151.629 110.342C152.337 110.99 152.691 111.956 152.691 113.24V119H151.053V117.74C150.765 118.184 150.351 118.526 149.811 118.766C149.283 118.994 148.653 119.108 147.921 119.108C146.853 119.108 145.995 118.85 145.347 118.334C144.711 117.818 144.393 117.14 144.393 116.3C144.393 115.46 144.699 114.788 145.311 114.284C145.923 113.768 146.895 113.51 148.227 113.51H150.963V113.168C150.963 112.424 150.747 111.854 150.315 111.458C149.883 111.062 149.247 110.864 148.407 110.864C147.843 110.864 147.291 110.96 146.751 111.152C146.211 111.332 145.755 111.578 145.383 111.89L144.663 110.594C145.155 110.198 145.743 109.898 146.427 109.694C147.111 109.478 147.837 109.37 148.605 109.37ZM148.209 117.776C148.869 117.776 149.439 117.632 149.919 117.344C150.399 117.044 150.747 116.624 150.963 116.084V114.752H148.299C146.835 114.752 146.103 115.244 146.103 116.228C146.103 116.708 146.289 117.086 146.661 117.362C147.033 117.638 147.549 117.776 148.209 117.776ZM163.417 109.46V119H161.689V115.148C160.657 115.628 159.631 115.868 158.611 115.868C157.423 115.868 156.505 115.592 155.857 115.04C155.209 114.488 154.885 113.66 154.885 112.556V109.46H156.613V112.448C156.613 113.108 156.817 113.606 157.225 113.942C157.645 114.278 158.227 114.446 158.971 114.446C159.811 114.446 160.717 114.236 161.689 113.816V109.46H163.417ZM166.772 109.46H168.5V116.408L174.35 109.46H175.916V119H174.188V112.052L168.356 119H166.772V109.46ZM179.27 109.46H180.998V113.51H186.434V109.46H188.162V119H186.434V115.004H180.998V119H179.27V109.46ZM194.924 109.37C196.244 109.37 197.252 109.694 197.948 110.342C198.656 110.99 199.01 111.956 199.01 113.24V119H197.372V117.74C197.084 118.184 196.67 118.526 196.13 118.766C195.602 118.994 194.972 119.108 194.24 119.108C193.172 119.108 192.314 118.85 191.666 118.334C191.03 117.818 190.712 117.14 190.712 116.3C190.712 115.46 191.018 114.788 191.63 114.284C192.242 113.768 193.214 113.51 194.546 113.51H197.282V113.168C197.282 112.424 197.066 111.854 196.634 111.458C196.202 111.062 195.566 110.864 194.726 110.864C194.162 110.864 193.61 110.96 193.07 111.152C192.53 111.332 192.074 111.578 191.702 111.89L190.982 110.594C191.474 110.198 192.062 109.898 192.746 109.694C193.43 109.478 194.156 109.37 194.924 109.37ZM194.528 117.776C195.188 117.776 195.758 117.632 196.238 117.344C196.718 117.044 197.066 116.624 197.282 116.084V114.752H194.618C193.154 114.752 192.422 115.244 192.422 116.228C192.422 116.708 192.608 117.086 192.98 117.362C193.352 117.638 193.868 117.776 194.528 117.776ZM210.563 109.37C211.487 109.37 212.315 109.58 213.047 110C213.779 110.408 214.355 110.984 214.775 111.728C215.195 112.46 215.405 113.294 215.405 114.23C215.405 115.166 215.195 116.006 214.775 116.75C214.355 117.482 213.779 118.058 213.047 118.478C212.315 118.898 211.487 119.108 210.563 119.108C209.723 119.108 208.961 118.934 208.277 118.586C207.593 118.238 207.029 117.752 206.585 117.128C206.153 116.492 205.883 115.772 205.775 114.968H203.849V119H202.121V109.46H203.849V113.366H205.793C205.913 112.574 206.189 111.878 206.621 111.278C207.065 110.666 207.623 110.198 208.295 109.874C208.979 109.538 209.735 109.37 210.563 109.37ZM210.563 117.596C211.151 117.596 211.679 117.458 212.147 117.182C212.627 116.906 213.005 116.516 213.281 116.012C213.557 115.496 213.695 114.902 213.695 114.23C213.695 113.57 213.557 112.988 213.281 112.484C213.005 111.968 212.627 111.572 212.147 111.296C211.679 111.02 211.151 110.882 210.563 110.882C209.975 110.882 209.441 111.02 208.961 111.296C208.481 111.572 208.103 111.968 207.827 112.484C207.563 112.988 207.431 113.57 207.431 114.23C207.431 114.902 207.563 115.496 207.827 116.012C208.103 116.516 208.481 116.906 208.961 117.182C209.441 117.458 209.975 117.596 210.563 117.596ZM231.479 109.46V119H217.889V109.46H219.617V117.488H223.829V109.46H225.557V117.488H229.751V109.46H231.479ZM232.901 117.488V121.034H231.281V119H229.679V117.488H232.901ZM234.834 109.46H236.562V116.408L242.412 109.46H243.978V119H242.25V112.052L236.418 119H234.834V109.46ZM255.954 114.284C255.954 114.416 255.942 114.59 255.918 114.806H248.178C248.286 115.646 248.652 116.324 249.276 116.84C249.912 117.344 250.698 117.596 251.634 117.596C252.774 117.596 253.692 117.212 254.388 116.444L255.342 117.56C254.91 118.064 254.37 118.448 253.722 118.712C253.086 118.976 252.372 119.108 251.58 119.108C250.572 119.108 249.678 118.904 248.898 118.496C248.118 118.076 247.512 117.494 247.08 116.75C246.66 116.006 246.45 115.166 246.45 114.23C246.45 113.306 246.654 112.472 247.062 111.728C247.482 110.984 248.052 110.408 248.772 110C249.504 109.58 250.326 109.37 251.238 109.37C252.15 109.37 252.96 109.58 253.668 110C254.388 110.408 254.946 110.984 255.342 111.728C255.75 112.472 255.954 113.324 255.954 114.284ZM251.238 110.828C250.41 110.828 249.714 111.08 249.15 111.584C248.598 112.088 248.274 112.748 248.178 113.564H254.298C254.202 112.76 253.872 112.106 253.308 111.602C252.756 111.086 252.066 110.828 251.238 110.828ZM263.469 109.46H265.197V116.408L271.047 109.46H272.613V119H270.885V112.052L265.053 119H263.469V109.46ZM275.967 109.46H277.695V113.51H283.131V109.46H284.859V119H283.131V115.004H277.695V119H275.967V109.46ZM294.717 114.05C295.953 114.362 296.571 115.136 296.571 116.372C296.571 117.212 296.253 117.86 295.617 118.316C294.993 118.772 294.057 119 292.809 119H288.219V109.46H292.647C293.775 109.46 294.657 109.676 295.293 110.108C295.929 110.528 296.247 111.128 296.247 111.908C296.247 112.412 296.109 112.85 295.833 113.222C295.569 113.582 295.197 113.858 294.717 114.05ZM289.911 113.564H292.503C293.163 113.564 293.661 113.444 293.997 113.204C294.345 112.964 294.519 112.616 294.519 112.16C294.519 111.248 293.847 110.792 292.503 110.792H289.911V113.564ZM292.683 117.668C293.403 117.668 293.943 117.554 294.303 117.326C294.663 117.098 294.843 116.744 294.843 116.264C294.843 115.772 294.675 115.406 294.339 115.166C294.015 114.926 293.499 114.806 292.791 114.806H289.911V117.668H292.683ZM307.898 114.284C307.898 114.416 307.886 114.59 307.862 114.806H300.122C300.23 115.646 300.596 116.324 301.22 116.84C301.856 117.344 302.642 117.596 303.578 117.596C304.718 117.596 305.636 117.212 306.332 116.444L307.286 117.56C306.854 118.064 306.314 118.448 305.666 118.712C305.03 118.976 304.316 119.108 303.524 119.108C302.516 119.108 301.622 118.904 300.842 118.496C300.062 118.076 299.456 117.494 299.024 116.75C298.604 116.006 298.394 115.166 298.394 114.23C298.394 113.306 298.598 112.472 299.006 111.728C299.426 110.984 299.996 110.408 300.716 110C301.448 109.58 302.27 109.37 303.182 109.37C304.094 109.37 304.904 109.58 305.612 110C306.332 110.408 306.89 110.984 307.286 111.728C307.694 112.472 307.898 113.324 307.898 114.284ZM303.182 110.828C302.354 110.828 301.658 111.08 301.094 111.584C300.542 112.088 300.218 112.748 300.122 113.564H306.242C306.146 112.76 305.816 112.106 305.252 111.602C304.7 111.086 304.01 110.828 303.182 110.828ZM314.736 119.108C313.764 119.108 312.894 118.898 312.126 118.478C311.37 118.058 310.776 117.482 310.344 116.75C309.912 116.006 309.696 115.166 309.696 114.23C309.696 113.294 309.912 112.46 310.344 111.728C310.776 110.984 311.37 110.408 312.126 110C312.894 109.58 313.764 109.37 314.736 109.37C315.6 109.37 316.368 109.544 317.04 109.892C317.724 110.24 318.252 110.744 318.624 111.404L317.31 112.25C317.01 111.794 316.638 111.452 316.194 111.224C315.75 110.996 315.258 110.882 314.718 110.882C314.094 110.882 313.53 111.02 313.026 111.296C312.534 111.572 312.144 111.968 311.856 112.484C311.58 112.988 311.442 113.57 311.442 114.23C311.442 114.902 311.58 115.496 311.856 116.012C312.144 116.516 312.534 116.906 313.026 117.182C313.53 117.458 314.094 117.596 314.718 117.596C315.258 117.596 315.75 117.482 316.194 117.254C316.638 117.026 317.01 116.684 317.31 116.228L318.624 117.056C318.252 117.716 317.724 118.226 317.04 118.586C316.368 118.934 315.6 119.108 314.736 119.108ZM327.848 110.972H324.356V119H322.628V110.972H319.136V109.46H327.848V110.972ZM333.28 119.108C332.332 119.108 331.48 118.898 330.724 118.478C329.968 118.058 329.374 117.482 328.942 116.75C328.522 116.006 328.312 115.166 328.312 114.23C328.312 113.294 328.522 112.46 328.942 111.728C329.374 110.984 329.968 110.408 330.724 110C331.48 109.58 332.332 109.37 333.28 109.37C334.228 109.37 335.074 109.58 335.818 110C336.574 110.408 337.162 110.984 337.582 111.728C338.014 112.46 338.23 113.294 338.23 114.23C338.23 115.166 338.014 116.006 337.582 116.75C337.162 117.482 336.574 118.058 335.818 118.478C335.074 118.898 334.228 119.108 333.28 119.108ZM333.28 117.596C333.892 117.596 334.438 117.458 334.918 117.182C335.41 116.894 335.794 116.498 336.07 115.994C336.346 115.478 336.484 114.89 336.484 114.23C336.484 113.57 336.346 112.988 336.07 112.484C335.794 111.968 335.41 111.572 334.918 111.296C334.438 111.02 333.892 110.882 333.28 110.882C332.668 110.882 332.116 111.02 331.624 111.296C331.144 111.572 330.76 111.968 330.472 112.484C330.196 112.988 330.058 113.57 330.058 114.23C330.058 114.89 330.196 115.478 330.472 115.994C330.76 116.498 331.144 116.894 331.624 117.182C332.116 117.458 332.668 117.596 333.28 117.596ZM345.783 109.37C346.707 109.37 347.535 109.574 348.267 109.982C348.999 110.39 349.569 110.96 349.977 111.692C350.397 112.424 350.607 113.27 350.607 114.23C350.607 115.19 350.397 116.042 349.977 116.786C349.569 117.518 348.999 118.088 348.267 118.496C347.535 118.904 346.707 119.108 345.783 119.108C345.099 119.108 344.469 118.976 343.893 118.712C343.329 118.448 342.849 118.064 342.453 117.56V122.492H340.725V109.46H342.381V110.972C342.765 110.444 343.251 110.048 343.839 109.784C344.427 109.508 345.075 109.37 345.783 109.37ZM345.639 117.596C346.251 117.596 346.797 117.458 347.277 117.182C347.769 116.894 348.153 116.498 348.429 115.994C348.717 115.478 348.861 114.89 348.861 114.23C348.861 113.57 348.717 112.988 348.429 112.484C348.153 111.968 347.769 111.572 347.277 111.296C346.797 111.02 346.251 110.882 345.639 110.882C345.039 110.882 344.493 111.026 344.001 111.314C343.521 111.59 343.137 111.98 342.849 112.484C342.573 112.988 342.435 113.57 342.435 114.23C342.435 114.89 342.573 115.478 342.849 115.994C343.125 116.498 343.509 116.894 344.001 117.182C344.493 117.458 345.039 117.596 345.639 117.596ZM357.419 112.7C358.619 112.712 359.537 112.988 360.173 113.528C360.809 114.068 361.127 114.83 361.127 115.814C361.127 116.846 360.779 117.644 360.083 118.208C359.399 118.76 358.415 119.03 357.131 119.018L353.117 119V109.46H354.845V112.682L357.419 112.7ZM362.549 109.46H364.277V119H362.549V109.46ZM357.005 117.704C357.785 117.716 358.373 117.56 358.769 117.236C359.177 116.912 359.381 116.432 359.381 115.796C359.381 115.172 359.183 114.716 358.787 114.428C358.391 114.14 357.797 113.99 357.005 113.978L354.845 113.942V117.686L357.005 117.704Z" fill="#333E63"/>
<defs>
<filter id="filter0_d_1111_2749" x="0" y="58" width="499" height="98" filterUnits="userSpaceOnUse" color-interpolation-filters="sRGB">
<feFlood flood-opacity="0" result="BackgroundImageFix"/>
<feColorMatrix in="SourceAlpha" type="matrix" values="0 0 0 0 0 0 0 0 0 0 0 0 0 0 0 0 0 0 127 0" result="hardAlpha"/>
<feOffset dx="5" dy="5"/>
<feComposite in2="hardAlpha" operator="out"/>
<feColorMatrix type="matrix" values="0 0 0 0 0.2 0 0 0 0 0.243137 0 0 0 0 0.388235 0 0 0 1 0"/>
<feBlend mode="normal" in2="BackgroundImageFix" result="effect1_dropShadow_1111_2749"/>
<feBlend mode="normal" in="SourceGraphic" in2="effect1_dropShadow_1111_2749" result="shape"/>
</filter>
</defs>
</svg>
