<svg width="335" height="243" viewBox="0 0 335 243" fill="none" xmlns="http://www.w3.org/2000/svg">
<g clip-path="url(#clip0_507_4757)">
<path d="M212.409 53.981L216.487 42.5587C215.637 38.4974 215.637 34.3515 216.656 30.3748C217.336 28.4288 218.526 26.8212 220.225 25.6367L221.669 23.606C222.179 21.9984 225.152 21.8292 225.152 21.8292C227.616 19.4601 228.55 23.5214 228.55 23.5214C228.55 23.5214 229.825 10.7453 233.987 12.0144C235.092 12.3529 233.987 16.9218 233.393 20.8985C232.373 27.4135 231.694 32.4901 232.373 30.6286C233.478 27.6673 235.007 25.9751 235.856 26.7366C236.706 27.5827 235.687 31.8978 234.582 36.3821C233.478 40.8665 226.256 46.1123 226.256 46.1123L223.878 54.5733L212.409 53.981Z" fill="white" stroke="#263238" stroke-linecap="round" stroke-linejoin="round"/>
<path d="M219.46 36.214C220.48 33.3373 218.186 29.5298 219.036 29.6991C219.8 29.8683 219.63 31.0528 219.885 32.4912C220.14 33.9296 220.99 35.4525 222.179 35.4525C223.453 35.4525 223.283 32.745 223.283 32.745C223.283 32.745 223.793 34.691 224.898 34.691C226.002 34.691 226.172 31.7297 226.172 31.7297C226.172 31.7297 225.577 34.6064 227.531 34.5218C229.485 34.4372 228.806 25.8916 228.806 25.8916" stroke="#263238" stroke-linecap="round" stroke-linejoin="round"/>
<path d="M223.198 39.7675C225.577 35.1986 228.89 35.1986 229.57 33.9294C230.165 33.0833 231.014 32.3218 231.949 31.9834" stroke="#263238" stroke-linecap="round" stroke-linejoin="round"/>
<path d="M225.832 29.6981L225.067 24.96" stroke="#263238" stroke-linecap="round" stroke-linejoin="round"/>
<path d="M222.604 30.545L221.754 26.3145" stroke="#263238" stroke-linecap="round" stroke-linejoin="round"/>
<path d="M301.358 242.577L304.926 190.035L301.273 157.037C301.273 157.037 271.028 161.098 234.073 152.214L233.138 198.665L235.347 225.909C253.103 231.917 270.179 239.87 289.294 241.9C293.372 242.324 297.365 242.577 301.358 242.577Z" fill="#263238" stroke="#263238" stroke-linecap="round" stroke-linejoin="round"/>
<path d="M301.358 157.037C301.358 157.037 271.113 161.098 234.158 152.214L234.073 157.629C237.131 159.829 245.032 164.313 261.938 166.428C279.609 168.628 295.411 164.99 301.952 163.129L301.358 157.037Z" fill="#707070" stroke="#263238" stroke-linecap="round" stroke-linejoin="round"/>
<path d="M281.393 166.766C282.752 166.682 284.112 166.513 285.386 166.343V157.967C271.368 158.136 257.351 156.867 243.588 154.244L244.522 157.036V162.705C245.542 163.044 246.731 163.382 247.921 163.72L248.176 157.29L281.733 159.913L281.393 166.766Z" fill="#263238" stroke="#263238" stroke-linecap="round" stroke-linejoin="round"/>
<path d="M255.991 165.497C257.86 165.836 259.814 166.09 261.938 166.428C264.402 166.766 266.866 166.936 269.244 167.02L269.414 161.859L256.416 159.659L255.991 165.497Z" fill="white" stroke="#263238" stroke-linecap="round" stroke-linejoin="round"/>
<path d="M247.241 164.736C247.241 164.736 242.144 174.636 235.602 175.82" stroke="#858585" stroke-linecap="round" stroke-linejoin="round"/>
<path d="M290.313 182.673C290.823 183.181 291.333 183.604 291.928 184.027" stroke="#858585" stroke-linecap="round" stroke-linejoin="round"/>
<path d="M283.687 169.305C284.366 173.366 285.895 177.173 288.274 180.473" stroke="#858585" stroke-linecap="round" stroke-linejoin="round"/>
<path d="M268.735 232.17V236.316" stroke="#858585" stroke-linecap="round" stroke-linejoin="round"/>
<path d="M259.05 200.356L268.735 208.817V229.208" stroke="#858585" stroke-linecap="round" stroke-linejoin="round"/>
<path d="M259.135 176.581L259.729 193.842L264.827 197.734L264.402 179.627" stroke="#858585" stroke-linecap="round" stroke-linejoin="round"/>
<path d="M258.795 169.305L258.965 172.435" stroke="#858585" stroke-linecap="round" stroke-linejoin="round"/>
<path d="M270.179 62.4424C270.179 62.4424 242.738 63.2885 240.784 64.5576C238.83 65.8268 222.774 73.7801 222.774 73.7801C222.774 73.7801 228.381 62.6962 228.381 58.2119C228.381 53.7275 224.982 50.9354 218.696 48.5663C212.409 46.1973 203.913 49.6663 202.214 54.3198C200.515 58.9734 192.359 88.0792 191.51 96.4556C190.66 104.832 201.79 112.024 206.547 111.601C211.22 111.178 235.177 102.378 235.177 102.378C235.177 102.378 233.478 149.337 233.478 150.606C233.478 151.875 233.478 153.821 236.027 154.837C238.575 155.936 250.809 162.113 265.591 163.382C280.374 164.651 297.11 161.69 299.234 161.436C301.358 161.182 303.312 156.783 303.312 154.837C303.312 152.89 305.096 138.168 305.096 138.168L308.239 151.198C308.239 151.198 310.363 153.567 317.244 154.16C324.126 154.752 329.478 151.367 331.007 147.983C332.536 144.599 332.536 143.753 332.536 143.753C332.536 143.753 318.604 90.7867 317.584 86.1332C316.565 81.395 316.735 81.395 313.761 78.0106C310.788 74.6262 291.248 66.9267 285.896 65.4037C280.459 63.8807 270.179 62.4424 270.179 62.4424Z" fill="#B0BEC5" stroke="#263238" stroke-linecap="round" stroke-linejoin="round"/>
<path d="M222.773 73.7803L213.768 98.7402" stroke="#263238" stroke-linecap="round" stroke-linejoin="round"/>
<path d="M219.121 84.4414C219.375 88.5027 219.206 92.564 218.696 96.6252" stroke="#263238" stroke-linecap="round" stroke-linejoin="round"/>
<path d="M235.262 102.378L235.857 79.1104" stroke="#263238" stroke-linecap="round" stroke-linejoin="round"/>
<path d="M235.262 98.3176C235.262 98.3176 231.609 89.5181 230.929 81.6494" stroke="#263238" stroke-linecap="round" stroke-linejoin="round"/>
<path d="M305.181 138.253L312.317 95.6094" stroke="#263238" stroke-linecap="round" stroke-linejoin="round"/>
<path d="M307.984 122.092L314.526 101.701" stroke="#263238" stroke-linecap="round" stroke-linejoin="round"/>
<path d="M266.016 80.2954L269.414 88.2487L253.272 142.822L261.428 155.091L271.368 143.584L273.067 89.4332L283.177 83.6798L275.276 73.1035L266.016 80.2954Z" fill="#263238" stroke="#263238" stroke-linecap="round" stroke-linejoin="round"/>
<path d="M270.604 58.3809C270.604 58.3809 266.696 59.1423 266.526 60.5807C266.356 62.0191 262.873 64.642 262.193 70.2263C261.513 75.8105 262.448 83.4254 262.448 83.4254C262.448 83.4254 269.924 80.041 271.368 79.7872C272.812 79.5334 276.89 80.041 277.655 81.2256C278.42 82.4101 282.243 89.9404 284.197 88.6712C286.151 87.4867 295.326 77.3335 295.835 69.2109C296.345 61.0038 288.359 61.7653 287.425 61.2576C286.32 60.7499 270.604 58.3809 270.604 58.3809Z" fill="#B0BEC5" stroke="#263238" stroke-linecap="round" stroke-linejoin="round"/>
<path d="M270.604 50.6816C270.604 50.6816 269.924 57.7043 269.414 63.4578C268.904 69.2112 268.225 75.2186 270.604 78.3491C272.982 81.4797 275.701 81.9874 281.478 77.5876C287.255 73.2725 290.653 69.3805 291.673 65.3192C292.692 61.2579 294.051 56.8582 294.051 56.8582C294.051 56.8582 282.243 60.0734 270.604 50.6816Z" fill="white" stroke="#263238" stroke-linecap="round" stroke-linejoin="round"/>
<path d="M270.604 50.6816C270.604 50.6816 270.009 56.6044 269.5 62.0194C271.199 63.8808 273.492 65.15 275.956 65.573C283.772 67.1806 290.823 61.3425 293.712 57.9581C293.967 57.2812 294.052 56.8582 294.052 56.8582C294.052 56.8582 282.243 60.0734 270.604 50.6816Z" fill="#263238" stroke="#263238" stroke-linecap="round" stroke-linejoin="round"/>
<path d="M225.832 53.3049L227.786 47.9745C219.885 50.259 216.147 48.1437 214.702 46.5361L212.324 51.1897C212.324 51.1897 212.324 54.5741 218.101 55.674C223.878 56.6893 225.832 53.3049 225.832 53.3049Z" fill="#B0BEC5" stroke="#263238" stroke-linecap="round" stroke-linejoin="round"/>
<path d="M318.519 146.63C318.519 146.63 311.637 146.799 309.429 149.337C307.22 151.875 307.05 164.313 307.05 166.344C307.05 168.374 311.043 174.297 318.264 175.735C325.57 177.174 331.772 172.859 331.857 168.29C332.027 163.805 335.085 151.452 334.406 146.799C333.726 142.061 330.583 140.453 330.583 140.453" fill="#B0BEC5"/>
<path d="M318.519 146.63C318.519 146.63 311.637 146.799 309.429 149.337C307.22 151.875 307.05 164.313 307.05 166.344C307.05 168.374 311.043 174.297 318.264 175.735C325.57 177.174 331.772 172.859 331.857 168.29C332.027 163.805 335.085 151.452 334.406 146.799C333.726 142.061 330.583 140.453 330.583 140.453" stroke="#263238" stroke-linecap="round" stroke-linejoin="round"/>
<path d="M317.669 176.413C322.408 176.413 326.249 172.7 326.249 168.121C326.249 163.541 322.408 159.829 317.669 159.829C312.93 159.829 309.088 163.541 309.088 168.121C309.088 172.7 312.93 176.413 317.669 176.413Z" fill="#B0BEC5" stroke="#263238" stroke-linecap="round" stroke-linejoin="round"/>
<path d="M320.133 175.735C320.133 175.735 321.067 171.759 320.133 169.39C319.198 167.021 313.251 163.975 311.382 164.652C309.513 165.328 310.448 166.598 308.833 167.359C307.219 168.121 301.018 168.967 299.743 170.574C298.469 172.182 297.534 175.312 295.58 178.866C293.626 182.42 291.248 184.112 293.966 184.281C296.345 184.366 298.554 183.012 299.573 180.812C300.168 179.628 301.187 178.697 302.292 178.105C302.292 178.105 297.364 189.189 298.129 190.204C298.469 190.796 298.979 191.219 299.573 191.473C299.573 191.473 299.064 193.673 300.338 194.181C301.102 194.519 302.037 194.434 302.717 194.011C302.717 194.011 304.331 195.28 305.265 195.28C305.86 195.28 306.455 195.111 306.879 194.773C306.879 194.773 309.938 195.111 310.872 193.673C311.722 192.234 315.8 187.496 317.754 183.773C319.028 181.32 319.793 178.528 320.133 175.735Z" fill="white" stroke="#263238" stroke-linecap="round" stroke-linejoin="round"/>
<path d="M299.659 191.642L307.39 180.051" stroke="#263238" stroke-linecap="round" stroke-linejoin="round"/>
<path d="M302.717 194.18L311.382 182.927" stroke="#263238" stroke-linecap="round" stroke-linejoin="round"/>
<path d="M306.88 194.857L313.761 187.157" stroke="#263238" stroke-linecap="round" stroke-linejoin="round"/>
<path d="M302.377 178.274L303.821 173.366" stroke="#263238" stroke-linecap="round" stroke-linejoin="round"/>
<path d="M268.395 31.6447C268.395 31.6447 267.375 28.2603 265.251 30.8832C263.127 33.5061 264.317 39.8519 265.591 41.4595C266.866 43.0671 268.395 31.6447 268.395 31.6447Z" fill="white" stroke="#263238" stroke-linecap="round" stroke-linejoin="round"/>
<path d="M272.133 15.8225C272.133 15.8225 264.147 41.7131 265.421 47.2974C266.696 52.8817 268.82 62.1888 277.91 64.1348C287 66.0808 295.241 58.3813 297.705 54.9969C297.705 54.9969 303.991 55.7584 305.69 51.6125C307.39 47.4666 309.768 43.2361 307.39 42.2208C306.285 41.7131 305.181 41.3747 303.991 41.2901C303.991 41.2901 310.703 30.7138 311.213 27.1602C311.722 23.6066 309.174 11.5074 301.443 5.75388C293.712 0.000401378 280.713 -0.676479 281.478 1.94643C282.243 4.56934 283.857 4.82317 283.857 4.82317C283.857 4.82317 268.65 3.13097 267.46 7.19225C266.271 11.2535 272.728 13.7072 272.728 13.7072L272.133 15.8225Z" fill="white" stroke="#263238" stroke-linecap="round" stroke-linejoin="round"/>
<path d="M303.906 41.29C303.906 41.29 310.618 30.7137 311.127 27.1601C311.637 23.6065 309.173 11.5919 301.442 5.75378C293.712 -0.0843116 280.713 -0.676582 281.478 1.94633C282.242 4.56924 283.857 4.82307 283.857 4.82307C283.857 4.82307 268.65 3.13087 267.46 7.19215C266.271 11.2534 272.727 13.7071 272.727 13.7071L271.963 15.907C271.963 15.907 270.434 20.899 268.819 26.9063H269.329C269.329 26.9063 270.094 24.7064 271.028 21.4066C271.963 18.1068 273.917 14.2148 283.602 15.1455C293.287 16.0762 302.887 21.1528 303.396 24.7064C303.906 28.26 299.743 29.783 301.273 31.3906C302.802 32.9982 304.671 33.7597 303.396 35.0289C302.122 36.298 299.743 41.29 301.273 41.9669C302.802 42.6437 305.096 41.4592 305.096 41.4592H305.181C304.756 41.3746 304.331 41.29 303.906 41.29Z" fill="#263238" stroke="#263238" stroke-linecap="round" stroke-linejoin="round"/>
<path d="M280.798 32.6602L276.465 44.1671L280.968 45.6055" stroke="#263238" stroke-linecap="round" stroke-linejoin="round"/>
<path d="M277.4 49.1589C280.884 50.7665 285.046 50.005 287.765 47.2129" stroke="#263238" stroke-linecap="round" stroke-linejoin="round"/>
<path d="M272.133 26.3984C272.133 26.3984 278.165 27.3291 279.864 28.3445" stroke="#263238" stroke-width="2" stroke-linecap="round" stroke-linejoin="round"/>
<path d="M288.444 28.5138C288.444 28.5138 292.777 27.0755 295.666 30.7137" stroke="#263238" stroke-width="2" stroke-linecap="round" stroke-linejoin="round"/>
<path d="M275.701 32.4906C275.531 33.5059 274.937 34.352 274.342 34.2674C273.747 34.1828 273.407 33.2521 273.492 32.2368C273.577 31.2214 274.257 30.3753 274.852 30.4599C275.446 30.5446 275.871 31.4753 275.701 32.4906Z" fill="#263238"/>
<path d="M289.634 36.4671C289.464 37.5671 288.869 38.3286 288.275 38.244C287.68 38.1593 287.34 37.2286 287.425 36.2133C287.51 35.198 288.19 34.3519 288.784 34.4365C289.379 34.5211 289.804 35.4518 289.634 36.4671Z" fill="#263238"/>
<path d="M282.328 31.5596C282.328 31.5596 279.779 36.2131 281.818 38.7514C283.857 41.2051 289.719 41.882 291.588 40.6128C293.372 39.3437 295.156 35.5362 295.156 35.5362C295.156 35.5362 288.36 31.5596 282.328 31.5596Z" stroke="#263238" stroke-linecap="round" stroke-linejoin="round"/>
<path d="M279.609 30.7983C279.609 30.7983 279.099 35.9595 276.72 37.3133C274.342 38.6671 270.264 36.5518 269.754 34.6904C269.159 32.829 269.754 28.6831 269.754 28.6831C269.754 28.6831 275.786 28.1754 279.609 30.7983Z" stroke="#263238" stroke-linecap="round" stroke-linejoin="round"/>
<path d="M279.609 30.7985C279.609 30.7985 280.458 30.2909 282.327 31.56" stroke="#263238" stroke-linecap="round" stroke-linejoin="round"/>
<path d="M295.156 35.79C297.704 37.2284 300.253 38.6668 302.717 40.1051" stroke="#263238" stroke-linecap="round" stroke-linejoin="round"/>
<path d="M268.48 28.7676C269.414 28.853 268.82 28.7676 269.754 28.853" stroke="#263238" stroke-linecap="round" stroke-linejoin="round"/>
</g>
<g filter="url(#filter0_d_507_4757)">
<path d="M193 40.5633L163.964 56.0587V124.729C163.964 129.852 159.806 134 154.671 134H10.2936C5.15765 134 1 129.852 1 124.729V32.2711C1 27.1476 5.15765 23 10.2936 23H154.548C159.684 23 163.842 27.1476 163.842 32.2711V41.7861L193 40.5633Z" fill="white"/>
<path d="M193.235 41.0044C193.441 40.8945 193.544 40.6569 193.482 40.4318C193.421 40.2067 193.212 40.0539 192.979 40.0637L164.342 41.2647V32.2711C164.342 26.8703 159.959 22.5 154.548 22.5H10.2936C4.88266 22.5 0.5 26.8703 0.5 32.2711V124.729C0.5 130.13 4.88266 134.5 10.2936 134.5H154.671C160.081 134.5 164.464 130.13 164.464 124.729V56.3586L193.235 41.0044Z" stroke="#333E63" stroke-linecap="round" stroke-linejoin="round"/>
</g>
<path d="M20.88 51.14C19.8907 51.14 18.9947 50.9253 18.192 50.496C17.3987 50.0573 16.7733 49.4553 16.316 48.69C15.868 47.9247 15.644 47.0613 15.644 46.1C15.644 45.1387 15.8727 44.2753 16.33 43.51C16.7873 42.7447 17.4127 42.1473 18.206 41.718C19.0087 41.2793 19.9047 41.06 20.894 41.06C21.6967 41.06 22.4293 41.2 23.092 41.48C23.7547 41.76 24.3147 42.166 24.772 42.698L23.596 43.804C22.8867 43.0387 22.014 42.656 20.978 42.656C20.306 42.656 19.704 42.8053 19.172 43.104C18.64 43.3933 18.2247 43.7993 17.926 44.322C17.6273 44.8447 17.478 45.4373 17.478 46.1C17.478 46.7627 17.6273 47.3553 17.926 47.878C18.2247 48.4007 18.64 48.8113 19.172 49.11C19.704 49.3993 20.306 49.544 20.978 49.544C22.014 49.544 22.8867 49.1567 23.596 48.382L24.772 49.502C24.3147 50.034 23.75 50.44 23.078 50.72C22.4153 51 21.6827 51.14 20.88 51.14ZM32.9924 47.304C32.9924 47.4253 32.9831 47.598 32.9644 47.822H27.0984C27.2011 48.3727 27.4671 48.8113 27.8964 49.138C28.3351 49.4553 28.8764 49.614 29.5204 49.614C30.3417 49.614 31.0184 49.3433 31.5504 48.802L32.4884 49.88C32.1524 50.2813 31.7277 50.5847 31.2144 50.79C30.7011 50.9953 30.1224 51.098 29.4784 51.098C28.6571 51.098 27.9337 50.9347 27.3084 50.608C26.6831 50.2813 26.1977 49.8287 25.8524 49.25C25.5164 48.662 25.3484 47.9993 25.3484 47.262C25.3484 46.534 25.5117 45.8807 25.8384 45.302C26.1744 44.714 26.6364 44.2567 27.2244 43.93C27.8124 43.6033 28.4751 43.44 29.2124 43.44C29.9404 43.44 30.5891 43.6033 31.1584 43.93C31.7371 44.2473 32.1851 44.7 32.5024 45.288C32.8291 45.8667 32.9924 46.5387 32.9924 47.304ZM29.2124 44.84C28.6524 44.84 28.1764 45.008 27.7844 45.344C27.4017 45.6707 27.1684 46.1093 27.0844 46.66H31.3264C31.2517 46.1187 31.0231 45.68 30.6404 45.344C30.2577 45.008 29.7817 44.84 29.2124 44.84ZM39.0505 43.44C39.7785 43.44 40.4271 43.5987 40.9965 43.916C41.5751 44.2333 42.0278 44.6813 42.3545 45.26C42.6811 45.8387 42.8445 46.506 42.8445 47.262C42.8445 48.018 42.6811 48.69 42.3545 49.278C42.0278 49.8567 41.5751 50.3047 40.9965 50.622C40.4271 50.9393 39.7785 51.098 39.0505 51.098C38.0425 51.098 37.2445 50.762 36.6565 50.09V53.716H34.9065V43.524H36.5725V44.504C36.8618 44.1493 37.2165 43.8833 37.6365 43.706C38.0658 43.5287 38.5371 43.44 39.0505 43.44ZM38.8545 49.6C39.4985 49.6 40.0258 49.3853 40.4365 48.956C40.8565 48.5267 41.0665 47.962 41.0665 47.262C41.0665 46.562 40.8565 45.9973 40.4365 45.568C40.0258 45.1387 39.4985 44.924 38.8545 44.924C38.4345 44.924 38.0565 45.022 37.7205 45.218C37.3845 45.4047 37.1185 45.6753 36.9225 46.03C36.7265 46.3847 36.6285 46.7953 36.6285 47.262C36.6285 47.7287 36.7265 48.1393 36.9225 48.494C37.1185 48.8487 37.3845 49.124 37.7205 49.32C38.0565 49.5067 38.4345 49.6 38.8545 49.6ZM50.3262 45.008H46.3362V51H44.5862V43.524H50.3262V45.008ZM58.2717 47.304C58.2717 47.4253 58.2624 47.598 58.2437 47.822H52.3777C52.4804 48.3727 52.7464 48.8113 53.1757 49.138C53.6144 49.4553 54.1557 49.614 54.7997 49.614C55.621 49.614 56.2977 49.3433 56.8297 48.802L57.7677 49.88C57.4317 50.2813 57.007 50.5847 56.4937 50.79C55.9804 50.9953 55.4017 51.098 54.7577 51.098C53.9364 51.098 53.213 50.9347 52.5877 50.608C51.9624 50.2813 51.477 49.8287 51.1317 49.25C50.7957 48.662 50.6277 47.9993 50.6277 47.262C50.6277 46.534 50.791 45.8807 51.1177 45.302C51.4537 44.714 51.9157 44.2567 52.5037 43.93C53.0917 43.6033 53.7544 43.44 54.4917 43.44C55.2197 43.44 55.8684 43.6033 56.4377 43.93C57.0164 44.2473 57.4644 44.7 57.7817 45.288C58.1084 45.8667 58.2717 46.5387 58.2717 47.304ZM54.4917 44.84C53.9317 44.84 53.4557 45.008 53.0637 45.344C52.681 45.6707 52.4477 46.1093 52.3637 46.66H56.6057C56.531 46.1187 56.3024 45.68 55.9197 45.344C55.537 45.008 55.061 44.84 54.4917 44.84ZM60.1858 43.524H61.9358V48.452L66.0658 43.524H67.6618V51H65.9118V46.072L61.7958 51H60.1858V43.524ZM63.8118 42.642C63.0558 42.642 62.4771 42.4693 62.0758 42.124C61.6838 41.7693 61.4831 41.256 61.4738 40.584H62.6358C62.6451 40.92 62.7478 41.186 62.9438 41.382C63.1491 41.578 63.4338 41.676 63.7978 41.676C64.1524 41.676 64.4324 41.578 64.6378 41.382C64.8524 41.186 64.9644 40.92 64.9738 40.584H66.1638C66.1544 41.256 65.9491 41.7693 65.5478 42.124C65.1464 42.4693 64.5678 42.642 63.8118 42.642ZM81.865 49.516V52.666H80.227V51H74.459V52.666H72.835V49.516H73.185C73.661 49.4973 73.983 49.194 74.151 48.606C74.3283 48.0087 74.445 47.1687 74.501 46.086L74.599 43.524H80.759V49.516H81.865ZM76.097 46.212C76.0597 47.0707 75.9897 47.7707 75.887 48.312C75.7843 48.8533 75.5977 49.2547 75.327 49.516H79.009V45.008H76.139L76.097 46.212ZM86.76 51.098C86.004 51.098 85.3226 50.9347 84.716 50.608C84.1093 50.2813 83.6333 49.8287 83.288 49.25C82.952 48.662 82.784 47.9993 82.784 47.262C82.784 46.5247 82.952 45.8667 83.288 45.288C83.6333 44.7093 84.1093 44.2567 84.716 43.93C85.3226 43.6033 86.004 43.44 86.76 43.44C87.5253 43.44 88.2113 43.6033 88.818 43.93C89.4246 44.2567 89.896 44.7093 90.232 45.288C90.5773 45.8667 90.75 46.5247 90.75 47.262C90.75 47.9993 90.5773 48.662 90.232 49.25C89.896 49.8287 89.4246 50.2813 88.818 50.608C88.2113 50.9347 87.5253 51.098 86.76 51.098ZM86.76 49.6C87.404 49.6 87.936 49.3853 88.356 48.956C88.776 48.5267 88.986 47.962 88.986 47.262C88.986 46.562 88.776 45.9973 88.356 45.568C87.936 45.1387 87.404 44.924 86.76 44.924C86.116 44.924 85.584 45.1387 85.164 45.568C84.7533 45.9973 84.548 46.562 84.548 47.262C84.548 47.962 84.7533 48.5267 85.164 48.956C85.584 49.3853 86.116 49.6 86.76 49.6ZM99.6467 43.524V51H97.9107V45.008H94.2287V51H92.4787V43.524H99.6467ZM109.064 43.524L105.564 51.602C105.237 52.414 104.841 52.9833 104.374 53.31C103.907 53.646 103.343 53.814 102.68 53.814C102.307 53.814 101.938 53.7533 101.574 53.632C101.21 53.5107 100.911 53.3427 100.678 53.128L101.378 51.84C101.546 51.9987 101.742 52.1247 101.966 52.218C102.199 52.3113 102.433 52.358 102.666 52.358C102.974 52.358 103.226 52.2787 103.422 52.12C103.627 51.9613 103.814 51.6953 103.982 51.322L104.108 51.028L100.846 43.524H102.666L105.018 49.054L107.384 43.524H109.064ZM113.476 51.098C112.702 51.098 112.006 50.9347 111.39 50.608C110.774 50.2813 110.294 49.8287 109.948 49.25C109.603 48.662 109.43 47.9993 109.43 47.262C109.43 46.5247 109.603 45.8667 109.948 45.288C110.294 44.7093 110.77 44.2567 111.376 43.93C111.992 43.6033 112.692 43.44 113.476 43.44C114.214 43.44 114.858 43.5893 115.408 43.888C115.968 44.1867 116.388 44.616 116.668 45.176L115.324 45.96C115.11 45.6147 114.839 45.358 114.512 45.19C114.195 45.0127 113.845 44.924 113.462 44.924C112.809 44.924 112.268 45.1387 111.838 45.568C111.409 45.988 111.194 46.5527 111.194 47.262C111.194 47.9713 111.404 48.5407 111.824 48.97C112.254 49.39 112.8 49.6 113.462 49.6C113.845 49.6 114.195 49.516 114.512 49.348C114.839 49.1707 115.11 48.9093 115.324 48.564L116.668 49.348C116.379 49.908 115.954 50.342 115.394 50.65C114.844 50.9487 114.204 51.098 113.476 51.098ZM124.063 45.008H121.445V51H119.695V45.008H117.063V43.524H124.063V45.008ZM125.332 43.524H127.082V48.452L131.212 43.524H132.808V51H131.058V46.072L126.942 51H125.332V43.524ZM141.938 43.524V51H140.188V45.008H137.388L137.318 46.492C137.272 47.4813 137.178 48.312 137.038 48.984C136.908 49.6467 136.679 50.174 136.352 50.566C136.035 50.9487 135.596 51.14 135.036 51.14C134.775 51.14 134.453 51.0887 134.07 50.986L134.154 49.516C134.285 49.544 134.397 49.558 134.49 49.558C134.845 49.558 135.111 49.418 135.288 49.138C135.466 48.8487 135.578 48.508 135.624 48.116C135.68 47.7147 135.727 47.1453 135.764 46.408L135.89 43.524H141.938ZM19.508 68.098C18.752 68.098 18.0707 67.9347 17.464 67.608C16.8573 67.2813 16.3813 66.8287 16.036 66.25C15.7 65.662 15.532 64.9993 15.532 64.262C15.532 63.5247 15.7 62.8667 16.036 62.288C16.3813 61.7093 16.8573 61.2567 17.464 60.93C18.0707 60.6033 18.752 60.44 19.508 60.44C20.2733 60.44 20.9593 60.6033 21.566 60.93C22.1727 61.2567 22.644 61.7093 22.98 62.288C23.3253 62.8667 23.498 63.5247 23.498 64.262C23.498 64.9993 23.3253 65.662 22.98 66.25C22.644 66.8287 22.1727 67.2813 21.566 67.608C20.9593 67.9347 20.2733 68.098 19.508 68.098ZM19.508 66.6C20.152 66.6 20.684 66.3853 21.104 65.956C21.524 65.5267 21.734 64.962 21.734 64.262C21.734 63.562 21.524 62.9973 21.104 62.568C20.684 62.1387 20.152 61.924 19.508 61.924C18.864 61.924 18.332 62.1387 17.912 62.568C17.5013 62.9973 17.296 63.562 17.296 64.262C17.296 64.962 17.5013 65.5267 17.912 65.956C18.332 66.3853 18.864 66.6 19.508 66.6ZM36.2448 60.524V68H25.2268V60.524H26.9768V66.516H29.8748V60.524H31.6248V66.516H34.4948V60.524H36.2448ZM38.5979 60.524H40.3479V65.452L44.4779 60.524H46.0739V68H44.3239V63.072L40.2079 68H38.5979V60.524ZM52.474 60.888C53.1833 60.888 53.8086 61.042 54.35 61.35C54.8913 61.6487 55.3113 62.0687 55.61 62.61C55.918 63.1513 56.072 63.772 56.072 64.472C56.072 65.1907 55.904 65.83 55.568 66.39C55.232 66.9407 54.7606 67.37 54.154 67.678C53.5473 67.986 52.8566 68.14 52.082 68.14C50.7846 68.14 49.7813 67.7107 49.072 66.852C48.3626 65.9933 48.008 64.7567 48.008 63.142C48.008 61.6393 48.33 60.4493 48.974 59.572C49.618 58.6947 50.6026 58.116 51.928 57.836L55.4 57.094L55.652 58.662L52.502 59.306C51.5966 59.4927 50.92 59.81 50.472 60.258C50.024 60.706 49.7626 61.336 49.688 62.148C50.024 61.7467 50.43 61.4387 50.906 61.224C51.382 61 51.9046 60.888 52.474 60.888ZM52.124 66.726C52.768 66.726 53.286 66.5207 53.678 66.11C54.0793 65.69 54.28 65.158 54.28 64.514C54.28 63.87 54.0793 63.352 53.678 62.96C53.286 62.568 52.768 62.372 52.124 62.372C51.4706 62.372 50.9433 62.568 50.542 62.96C50.1406 63.352 49.94 63.87 49.94 64.514C49.94 65.1673 50.1406 65.6993 50.542 66.11C50.9526 66.5207 51.48 66.726 52.124 66.726ZM60.8738 65.004H59.5158V68H57.7658V60.524H59.5158V63.548H60.9158L63.1278 60.524H65.0038L62.2878 64.122L65.1858 68H63.1278L60.8738 65.004ZM66.4201 60.524H68.1701V65.452L72.3001 60.524H73.8961V68H72.1461V63.072L68.0301 68H66.4201V60.524ZM76.7962 65.774C77.1229 65.774 77.3936 65.8813 77.6082 66.096C77.8229 66.3107 77.9302 66.5907 77.9302 66.936C77.9302 67.0853 77.9069 67.244 77.8602 67.412C77.8229 67.5707 77.7389 67.8133 77.6082 68.14L76.8942 70.114H75.7602L76.3202 67.972C76.1149 67.888 75.9516 67.7573 75.8302 67.58C75.7182 67.3933 75.6622 67.1787 75.6622 66.936C75.6622 66.5907 75.7696 66.3107 75.9842 66.096C76.1989 65.8813 76.4696 65.774 76.7962 65.774Z" fill="#FF5745"/>
<path d="M86.5473 64.864H85.0073V68H83.6633V60.58H85.0073V63.716H86.5753L88.9833 60.58H90.4253L87.6113 64.15L90.6213 68H89.0393L86.5473 64.864ZM94.9624 68.084C94.2251 68.084 93.5624 67.9207 92.9744 67.594C92.3864 67.2673 91.9244 66.8193 91.5884 66.25C91.2618 65.6713 91.0984 65.018 91.0984 64.29C91.0984 63.562 91.2618 62.9133 91.5884 62.344C91.9244 61.7653 92.3864 61.3173 92.9744 61C93.5624 60.6733 94.2251 60.51 94.9624 60.51C95.6998 60.51 96.3578 60.6733 96.9364 61C97.5244 61.3173 97.9818 61.7653 98.3084 62.344C98.6444 62.9133 98.8124 63.562 98.8124 64.29C98.8124 65.018 98.6444 65.6713 98.3084 66.25C97.9818 66.8193 97.5244 67.2673 96.9364 67.594C96.3578 67.9207 95.6998 68.084 94.9624 68.084ZM94.9624 66.908C95.4384 66.908 95.8631 66.8007 96.2364 66.586C96.6191 66.362 96.9178 66.054 97.1324 65.662C97.3471 65.2607 97.4544 64.8033 97.4544 64.29C97.4544 63.7767 97.3471 63.324 97.1324 62.932C96.9178 62.5307 96.6191 62.2227 96.2364 62.008C95.8631 61.7933 95.4384 61.686 94.9624 61.686C94.4864 61.686 94.0571 61.7933 93.6744 62.008C93.3011 62.2227 93.0024 62.5307 92.7784 62.932C92.5638 63.324 92.4564 63.7767 92.4564 64.29C92.4564 64.8033 92.5638 65.2607 92.7784 65.662C93.0024 66.054 93.3011 66.362 93.6744 66.586C94.0571 66.8007 94.4864 66.908 94.9624 66.908ZM106.01 61.756H103.294V68H101.95V61.756H99.2337V60.58H106.01V61.756ZM110.234 68.084C109.497 68.084 108.834 67.9207 108.246 67.594C107.658 67.2673 107.196 66.8193 106.86 66.25C106.533 65.6713 106.37 65.018 106.37 64.29C106.37 63.562 106.533 62.9133 106.86 62.344C107.196 61.7653 107.658 61.3173 108.246 61C108.834 60.6733 109.497 60.51 110.234 60.51C110.971 60.51 111.629 60.6733 112.208 61C112.796 61.3173 113.253 61.7653 113.58 62.344C113.916 62.9133 114.084 63.562 114.084 64.29C114.084 65.018 113.916 65.6713 113.58 66.25C113.253 66.8193 112.796 67.2673 112.208 67.594C111.629 67.9207 110.971 68.084 110.234 68.084ZM110.234 66.908C110.71 66.908 111.135 66.8007 111.508 66.586C111.891 66.362 112.189 66.054 112.404 65.662C112.619 65.2607 112.726 64.8033 112.726 64.29C112.726 63.7767 112.619 63.324 112.404 62.932C112.189 62.5307 111.891 62.2227 111.508 62.008C111.135 61.7933 110.71 61.686 110.234 61.686C109.758 61.686 109.329 61.7933 108.946 62.008C108.573 62.2227 108.274 62.5307 108.05 62.932C107.835 63.324 107.728 63.7767 107.728 64.29C107.728 64.8033 107.835 65.2607 108.05 65.662C108.274 66.054 108.573 66.362 108.946 66.586C109.329 66.8007 109.758 66.908 110.234 66.908ZM119.959 60.51C120.677 60.51 121.321 60.6687 121.891 60.986C122.46 61.3033 122.903 61.7467 123.221 62.316C123.547 62.8853 123.711 63.5433 123.711 64.29C123.711 65.0367 123.547 65.6993 123.221 66.278C122.903 66.8473 122.46 67.2907 121.891 67.608C121.321 67.9253 120.677 68.084 119.959 68.084C119.427 68.084 118.937 67.9813 118.489 67.776C118.05 67.5707 117.677 67.272 117.369 66.88V70.716H116.025V60.58H117.313V61.756C117.611 61.3453 117.989 61.0373 118.447 60.832C118.904 60.6173 119.408 60.51 119.959 60.51ZM119.847 66.908C120.323 66.908 120.747 66.8007 121.121 66.586C121.503 66.362 121.802 66.054 122.017 65.662C122.241 65.2607 122.353 64.8033 122.353 64.29C122.353 63.7767 122.241 63.324 122.017 62.932C121.802 62.5307 121.503 62.2227 121.121 62.008C120.747 61.7933 120.323 61.686 119.847 61.686C119.38 61.686 118.955 61.798 118.573 62.022C118.199 62.2367 117.901 62.54 117.677 62.932C117.462 63.324 117.355 63.7767 117.355 64.29C117.355 64.8033 117.462 65.2607 117.677 65.662C117.891 66.054 118.19 66.362 118.573 66.586C118.955 66.8007 119.38 66.908 119.847 66.908ZM129.009 63.1C129.943 63.1093 130.657 63.324 131.151 63.744C131.646 64.164 131.893 64.7567 131.893 65.522C131.893 66.3247 131.623 66.9453 131.081 67.384C130.549 67.8133 129.784 68.0233 128.785 68.014L125.663 68V60.58H127.007V63.086L129.009 63.1ZM132.999 60.58H134.343V68H132.999V60.58ZM128.687 66.992C129.294 67.0013 129.751 66.88 130.059 66.628C130.377 66.376 130.535 66.0027 130.535 65.508C130.535 65.0227 130.381 64.668 130.073 64.444C129.765 64.22 129.303 64.1033 128.687 64.094L127.007 64.066V66.978L128.687 66.992ZM143.662 64.332C143.662 64.4347 143.653 64.57 143.634 64.738H137.614C137.698 65.3913 137.983 65.9187 138.468 66.32C138.963 66.712 139.574 66.908 140.302 66.908C141.189 66.908 141.903 66.6093 142.444 66.012L143.186 66.88C142.85 67.272 142.43 67.5707 141.926 67.776C141.432 67.9813 140.876 68.084 140.26 68.084C139.476 68.084 138.781 67.9253 138.174 67.608C137.568 67.2813 137.096 66.8287 136.76 66.25C136.434 65.6713 136.27 65.018 136.27 64.29C136.27 63.5713 136.429 62.9227 136.746 62.344C137.073 61.7653 137.516 61.3173 138.076 61C138.646 60.6733 139.285 60.51 139.994 60.51C140.704 60.51 141.334 60.6733 141.884 61C142.444 61.3173 142.878 61.7653 143.186 62.344C143.504 62.9227 143.662 63.5853 143.662 64.332ZM139.994 61.644C139.35 61.644 138.809 61.84 138.37 62.232C137.941 62.624 137.689 63.1373 137.614 63.772H142.374C142.3 63.1467 142.043 62.638 141.604 62.246C141.175 61.8447 140.638 61.644 139.994 61.644ZM22.224 77.58V85H20.88V82.004C20.0773 82.3773 19.2793 82.564 18.486 82.564C17.562 82.564 16.848 82.3493 16.344 81.92C15.84 81.4907 15.588 80.8467 15.588 79.988V77.58H16.932V79.904C16.932 80.4173 17.0907 80.8047 17.408 81.066C17.7347 81.3273 18.1873 81.458 18.766 81.458C19.4193 81.458 20.124 81.2947 20.88 80.968V77.58H22.224ZM27.4793 77.51C28.5059 77.51 29.2899 77.762 29.8313 78.266C30.3819 78.77 30.6573 79.5213 30.6573 80.52V85H29.3833V84.02C29.1593 84.3653 28.8373 84.6313 28.4173 84.818C28.0066 84.9953 27.5166 85.084 26.9473 85.084C26.1166 85.084 25.4493 84.8833 24.9453 84.482C24.4506 84.0807 24.2033 83.5533 24.2033 82.9C24.2033 82.2467 24.4413 81.724 24.9173 81.332C25.3933 80.9307 26.1493 80.73 27.1853 80.73H29.3133V80.464C29.3133 79.8853 29.1453 79.442 28.8093 79.134C28.4733 78.826 27.9786 78.672 27.3253 78.672C26.8866 78.672 26.4573 78.7467 26.0373 78.896C25.6173 79.036 25.2626 79.2273 24.9733 79.47L24.4133 78.462C24.7959 78.154 25.2533 77.9207 25.7853 77.762C26.3173 77.594 26.8819 77.51 27.4793 77.51ZM27.1713 84.048C27.6846 84.048 28.1279 83.936 28.5013 83.712C28.8746 83.4787 29.1453 83.152 29.3133 82.732V81.696H27.2413C26.1026 81.696 25.5333 82.0787 25.5333 82.844C25.5333 83.2173 25.6779 83.5113 25.9673 83.726C26.2566 83.9407 26.6579 84.048 27.1713 84.048ZM36.3114 85.084C35.5554 85.084 34.8787 84.9207 34.2814 84.594C33.6934 84.2673 33.2314 83.8193 32.8954 83.25C32.5594 82.6713 32.3914 82.018 32.3914 81.29C32.3914 80.562 32.5594 79.9133 32.8954 79.344C33.2314 78.7653 33.6934 78.3173 34.2814 78C34.8787 77.6733 35.5554 77.51 36.3114 77.51C36.9834 77.51 37.5807 77.6453 38.1034 77.916C38.6354 78.1867 39.0461 78.5787 39.3354 79.092L38.3134 79.75C38.0801 79.3953 37.7907 79.1293 37.4454 78.952C37.1001 78.7747 36.7174 78.686 36.2974 78.686C35.8121 78.686 35.3734 78.7933 34.9814 79.008C34.5987 79.2227 34.2954 79.5307 34.0714 79.932C33.8567 80.324 33.7494 80.7767 33.7494 81.29C33.7494 81.8127 33.8567 82.2747 34.0714 82.676C34.2954 83.068 34.5987 83.3713 34.9814 83.586C35.3734 83.8007 35.8121 83.908 36.2974 83.908C36.7174 83.908 37.1001 83.8193 37.4454 83.642C37.7907 83.4647 38.0801 83.1987 38.3134 82.844L39.3354 83.488C39.0461 84.0013 38.6354 84.398 38.1034 84.678C37.5807 84.9487 36.9834 85.084 36.3114 85.084ZM46.5097 78.756H43.7937V85H42.4497V78.756H39.7337V77.58H46.5097V78.756ZM50.7339 85.084C49.9966 85.084 49.3339 84.9207 48.7459 84.594C48.1579 84.2673 47.6959 83.8193 47.3599 83.25C47.0332 82.6713 46.8699 82.018 46.8699 81.29C46.8699 80.562 47.0332 79.9133 47.3599 79.344C47.6959 78.7653 48.1579 78.3173 48.7459 78C49.3339 77.6733 49.9966 77.51 50.7339 77.51C51.4712 77.51 52.1292 77.6733 52.7079 78C53.2959 78.3173 53.7532 78.7653 54.0799 79.344C54.4159 79.9133 54.5839 80.562 54.5839 81.29C54.5839 82.018 54.4159 82.6713 54.0799 83.25C53.7532 83.8193 53.2959 84.2673 52.7079 84.594C52.1292 84.9207 51.4712 85.084 50.7339 85.084ZM50.7339 83.908C51.2099 83.908 51.6346 83.8007 52.0079 83.586C52.3906 83.362 52.6892 83.054 52.9039 82.662C53.1186 82.2607 53.2259 81.8033 53.2259 81.29C53.2259 80.7767 53.1186 80.324 52.9039 79.932C52.6892 79.5307 52.3906 79.2227 52.0079 79.008C51.6346 78.7933 51.2099 78.686 50.7339 78.686C50.2579 78.686 49.8286 78.7933 49.4459 79.008C49.0726 79.2227 48.7739 79.5307 48.5499 79.932C48.3352 80.324 48.2279 80.7767 48.2279 81.29C48.2279 81.8033 48.3352 82.2607 48.5499 82.662C48.7739 83.054 49.0726 83.362 49.4459 83.586C49.8286 83.8007 50.2579 83.908 50.7339 83.908ZM67.8304 83.824V86.722H66.5704V85H60.3684V86.722H59.0944V83.824H59.4864C59.9624 83.796 60.2891 83.46 60.4664 82.816C60.6438 82.172 60.7651 81.262 60.8304 80.086L60.9424 77.58H66.6964V83.824H67.8304ZM62.0624 80.184C62.0251 81.1173 61.9458 81.892 61.8244 82.508C61.7124 83.1147 61.5024 83.5533 61.1944 83.824H65.3524V78.756H62.1324L62.0624 80.184ZM72.7593 85.084C72.022 85.084 71.3593 84.9207 70.7713 84.594C70.1833 84.2673 69.7213 83.8193 69.3853 83.25C69.0586 82.6713 68.8953 82.018 68.8953 81.29C68.8953 80.562 69.0586 79.9133 69.3853 79.344C69.7213 78.7653 70.1833 78.3173 70.7713 78C71.3593 77.6733 72.022 77.51 72.7593 77.51C73.4966 77.51 74.1546 77.6733 74.7333 78C75.3213 78.3173 75.7786 78.7653 76.1053 79.344C76.4413 79.9133 76.6093 80.562 76.6093 81.29C76.6093 82.018 76.4413 82.6713 76.1053 83.25C75.7786 83.8193 75.3213 84.2673 74.7333 84.594C74.1546 84.9207 73.4966 85.084 72.7593 85.084ZM72.7593 83.908C73.2353 83.908 73.66 83.8007 74.0333 83.586C74.416 83.362 74.7146 83.054 74.9293 82.662C75.144 82.2607 75.2513 81.8033 75.2513 81.29C75.2513 80.7767 75.144 80.324 74.9293 79.932C74.7146 79.5307 74.416 79.2227 74.0333 79.008C73.66 78.7933 73.2353 78.686 72.7593 78.686C72.2833 78.686 71.854 78.7933 71.4713 79.008C71.098 79.2227 70.7993 79.5307 70.5753 79.932C70.3606 80.324 70.2533 80.7767 70.2533 81.29C70.2533 81.8033 70.3606 82.2607 70.5753 82.662C70.7993 83.054 71.098 83.362 71.4713 83.586C71.854 83.8007 72.2833 83.908 72.7593 83.908ZM85.424 77.58V85H84.08V78.756H79.894V85H78.55V77.58H85.424ZM94.6467 77.58L91.0487 85.742C90.7313 86.498 90.358 87.03 89.9287 87.338C89.5087 87.646 89 87.8 88.4027 87.8C88.0387 87.8 87.684 87.7393 87.3387 87.618C87.0027 87.506 86.7227 87.338 86.4987 87.114L87.0727 86.106C87.4553 86.47 87.8987 86.652 88.4027 86.652C88.7293 86.652 89 86.5633 89.2147 86.386C89.4387 86.218 89.6393 85.924 89.8167 85.504L90.0547 84.986L86.7787 77.58H88.1787L90.7687 83.516L93.3307 77.58H94.6467ZM99.0516 85.084C98.2956 85.084 97.619 84.9207 97.0216 84.594C96.4336 84.2673 95.9716 83.8193 95.6356 83.25C95.2996 82.6713 95.1316 82.018 95.1316 81.29C95.1316 80.562 95.2996 79.9133 95.6356 79.344C95.9716 78.7653 96.4336 78.3173 97.0216 78C97.619 77.6733 98.2956 77.51 99.0516 77.51C99.7236 77.51 100.321 77.6453 100.844 77.916C101.376 78.1867 101.786 78.5787 102.076 79.092L101.054 79.75C100.82 79.3953 100.531 79.1293 100.186 78.952C99.8403 78.7747 99.4576 78.686 99.0376 78.686C98.5523 78.686 98.1136 78.7933 97.7216 79.008C97.339 79.2227 97.0356 79.5307 96.8116 79.932C96.597 80.324 96.4896 80.7767 96.4896 81.29C96.4896 81.8127 96.597 82.2747 96.8116 82.676C97.0356 83.068 97.339 83.3713 97.7216 83.586C98.1136 83.8007 98.5523 83.908 99.0376 83.908C99.4576 83.908 99.8403 83.8193 100.186 83.642C100.531 83.4647 100.82 83.1987 101.054 82.844L102.076 83.488C101.786 84.0013 101.376 84.398 100.844 84.678C100.321 84.9487 99.7236 85.084 99.0516 85.084ZM106.7 81.864H105.16V85H103.816V77.58H105.16V80.716H106.728L109.136 77.58H110.578L107.764 81.15L110.774 85H109.192L106.7 81.864ZM114.692 77.51C115.719 77.51 116.503 77.762 117.044 78.266C117.595 78.77 117.87 79.5213 117.87 80.52V85H116.596V84.02C116.372 84.3653 116.05 84.6313 115.63 84.818C115.219 84.9953 114.729 85.084 114.16 85.084C113.329 85.084 112.662 84.8833 112.158 84.482C111.663 84.0807 111.416 83.5533 111.416 82.9C111.416 82.2467 111.654 81.724 112.13 81.332C112.606 80.9307 113.362 80.73 114.398 80.73H116.526V80.464C116.526 79.8853 116.358 79.442 116.022 79.134C115.686 78.826 115.191 78.672 114.538 78.672C114.099 78.672 113.67 78.7467 113.25 78.896C112.83 79.036 112.475 79.2273 112.186 79.47L111.626 78.462C112.009 78.154 112.466 77.9207 112.998 77.762C113.53 77.594 114.095 77.51 114.692 77.51ZM114.384 84.048C114.897 84.048 115.341 83.936 115.714 83.712C116.087 83.4787 116.358 83.152 116.526 82.732V81.696H114.454C113.315 81.696 112.746 82.0787 112.746 82.844C112.746 83.2173 112.891 83.5113 113.18 83.726C113.469 83.9407 113.871 84.048 114.384 84.048ZM126.856 77.51C127.575 77.51 128.219 77.6733 128.788 78C129.358 78.3173 129.806 78.7653 130.132 79.344C130.459 79.9133 130.622 80.562 130.622 81.29C130.622 82.018 130.459 82.6713 130.132 83.25C129.806 83.8193 129.358 84.2673 128.788 84.594C128.219 84.9207 127.575 85.084 126.856 85.084C126.203 85.084 125.61 84.9487 125.078 84.678C124.546 84.4073 124.108 84.0293 123.762 83.544C123.426 83.0493 123.216 82.4893 123.132 81.864H121.634V85H120.29V77.58H121.634V80.618H123.146C123.24 80.002 123.454 79.4607 123.79 78.994C124.136 78.518 124.57 78.154 125.092 77.902C125.624 77.6407 126.212 77.51 126.856 77.51ZM126.856 83.908C127.314 83.908 127.724 83.8007 128.088 83.586C128.462 83.3713 128.756 83.068 128.97 82.676C129.185 82.2747 129.292 81.8127 129.292 81.29C129.292 80.7767 129.185 80.324 128.97 79.932C128.756 79.5307 128.462 79.2227 128.088 79.008C127.724 78.7933 127.314 78.686 126.856 78.686C126.399 78.686 125.984 78.7933 125.61 79.008C125.237 79.2227 124.943 79.5307 124.728 79.932C124.523 80.324 124.42 80.7767 124.42 81.29C124.42 81.8127 124.523 82.2747 124.728 82.676C124.943 83.068 125.237 83.3713 125.61 83.586C125.984 83.8007 126.399 83.908 126.856 83.908ZM137.811 78.756H135.095V85H133.751V78.756H131.035V77.58H137.811V78.756ZM16.302 94.58H17.646V97.73H21.874V94.58H23.218V102H21.874V98.892H17.646V102H16.302V94.58ZM28.4773 94.51C29.504 94.51 30.288 94.762 30.8293 95.266C31.38 95.77 31.6553 96.5213 31.6553 97.52V102H30.3813V101.02C30.1573 101.365 29.8353 101.631 29.4153 101.818C29.0046 101.995 28.5146 102.084 27.9453 102.084C27.1146 102.084 26.4473 101.883 25.9433 101.482C25.4486 101.081 25.2013 100.553 25.2013 99.9C25.2013 99.2467 25.4393 98.724 25.9153 98.332C26.3913 97.9307 27.1473 97.73 28.1833 97.73H30.3113V97.464C30.3113 96.8853 30.1433 96.442 29.8073 96.134C29.4713 95.826 28.9766 95.672 28.3233 95.672C27.8846 95.672 27.4553 95.7467 27.0353 95.896C26.6153 96.036 26.2606 96.2273 25.9713 96.47L25.4113 95.462C25.794 95.154 26.2513 94.9207 26.7833 94.762C27.3153 94.594 27.88 94.51 28.4773 94.51ZM28.1693 101.048C28.6826 101.048 29.126 100.936 29.4993 100.712C29.8726 100.479 30.1433 100.152 30.3113 99.732V98.696H28.2393C27.1006 98.696 26.5313 99.0787 26.5313 99.844C26.5313 100.217 26.676 100.511 26.9653 100.726C27.2546 100.941 27.656 101.048 28.1693 101.048ZM39.9974 94.58V102H38.6534V99.004C37.8508 99.3773 37.0528 99.564 36.2594 99.564C35.3354 99.564 34.6214 99.3493 34.1174 98.92C33.6134 98.4907 33.3614 97.8467 33.3614 96.988V94.58H34.7054V96.904C34.7054 97.4173 34.8641 97.8047 35.1814 98.066C35.5081 98.3273 35.9608 98.458 36.5394 98.458C37.1928 98.458 37.8974 98.2947 38.6534 97.968V94.58H39.9974ZM42.6067 94.58H43.9507V99.984L48.5007 94.58H49.7187V102H48.3747V96.596L43.8387 102H42.6067V94.58ZM52.3274 94.58H53.6714V97.73H57.8994V94.58H59.2434V102H57.8994V98.892H53.6714V102H52.3274V94.58ZM64.5027 94.51C65.5294 94.51 66.3134 94.762 66.8547 95.266C67.4054 95.77 67.6807 96.5213 67.6807 97.52V102H66.4067V101.02C66.1827 101.365 65.8607 101.631 65.4407 101.818C65.03 101.995 64.54 102.084 63.9707 102.084C63.14 102.084 62.4727 101.883 61.9687 101.482C61.474 101.081 61.2267 100.553 61.2267 99.9C61.2267 99.2467 61.4647 98.724 61.9407 98.332C62.4167 97.9307 63.1727 97.73 64.2087 97.73H66.3367V97.464C66.3367 96.8853 66.1687 96.442 65.8327 96.134C65.4967 95.826 65.002 95.672 64.3487 95.672C63.91 95.672 63.4807 95.7467 63.0607 95.896C62.6407 96.036 62.286 96.2273 61.9967 96.47L61.4367 95.462C61.8194 95.154 62.2767 94.9207 62.8087 94.762C63.3407 94.594 63.9054 94.51 64.5027 94.51ZM64.1947 101.048C64.708 101.048 65.1514 100.936 65.5247 100.712C65.898 100.479 66.1687 100.152 66.3367 99.732V98.696H64.2647C63.126 98.696 62.5567 99.0787 62.5567 99.844C62.5567 100.217 62.7014 100.511 62.9907 100.726C63.28 100.941 63.6814 101.048 64.1947 101.048ZM76.6668 94.51C77.3855 94.51 78.0295 94.6733 78.5988 95C79.1682 95.3173 79.6162 95.7653 79.9428 96.344C80.2695 96.9133 80.4328 97.562 80.4328 98.29C80.4328 99.018 80.2695 99.6713 79.9428 100.25C79.6162 100.819 79.1682 101.267 78.5988 101.594C78.0295 101.921 77.3855 102.084 76.6668 102.084C76.0135 102.084 75.4208 101.949 74.8888 101.678C74.3568 101.407 73.9182 101.029 73.5728 100.544C73.2368 100.049 73.0268 99.4893 72.9428 98.864H71.4448V102H70.1008V94.58H71.4448V97.618H72.9568C73.0502 97.002 73.2648 96.4607 73.6008 95.994C73.9462 95.518 74.3802 95.154 74.9028 94.902C75.4348 94.6407 76.0228 94.51 76.6668 94.51ZM76.6668 100.908C77.1242 100.908 77.5348 100.801 77.8988 100.586C78.2722 100.371 78.5662 100.068 78.7808 99.676C78.9955 99.2747 79.1028 98.8127 79.1028 98.29C79.1028 97.7767 78.9955 97.324 78.7808 96.932C78.5662 96.5307 78.2722 96.2227 77.8988 96.008C77.5348 95.7933 77.1242 95.686 76.6668 95.686C76.2095 95.686 75.7942 95.7933 75.4208 96.008C75.0475 96.2227 74.7535 96.5307 74.5388 96.932C74.3335 97.324 74.2308 97.7767 74.2308 98.29C74.2308 98.8127 74.3335 99.2747 74.5388 99.676C74.7535 100.068 75.0475 100.371 75.4208 100.586C75.7942 100.801 76.2095 100.908 76.6668 100.908ZM92.9345 94.58V102H82.3645V94.58H83.7085V100.824H86.9845V94.58H88.3285V100.824H91.5905V94.58H92.9345ZM94.0405 100.824V103.582H92.7805V102H91.5345V100.824H94.0405ZM95.5442 94.58H96.8882V99.984L101.438 94.58H102.656V102H101.312V96.596L96.7762 102H95.5442V94.58ZM111.971 98.332C111.971 98.4347 111.962 98.57 111.943 98.738H105.923C106.007 99.3913 106.292 99.9187 106.777 100.32C107.272 100.712 107.883 100.908 108.611 100.908C109.498 100.908 110.212 100.609 110.753 100.012L111.495 100.88C111.159 101.272 110.739 101.571 110.235 101.776C109.74 101.981 109.185 102.084 108.569 102.084C107.785 102.084 107.09 101.925 106.483 101.608C105.876 101.281 105.405 100.829 105.069 100.25C104.742 99.6713 104.579 99.018 104.579 98.29C104.579 97.5713 104.738 96.9227 105.055 96.344C105.382 95.7653 105.825 95.3173 106.385 95C106.954 94.6733 107.594 94.51 108.303 94.51C109.012 94.51 109.642 94.6733 110.193 95C110.753 95.3173 111.187 95.7653 111.495 96.344C111.812 96.9227 111.971 97.5853 111.971 98.332ZM108.303 95.644C107.659 95.644 107.118 95.84 106.679 96.232C106.25 96.624 105.998 97.1373 105.923 97.772H110.683C110.608 97.1467 110.352 96.638 109.913 96.246C109.484 95.8447 108.947 95.644 108.303 95.644ZM16.302 111.58H17.646V116.984L22.196 111.58H23.414V119H22.07V113.596L17.534 119H16.302V111.58ZM26.0227 111.58H27.3667V114.73H31.5947V111.58H32.9387V119H31.5947V115.892H27.3667V119H26.0227V111.58ZM40.606 115.15C41.5673 115.393 42.048 115.995 42.048 116.956C42.048 117.609 41.8007 118.113 41.306 118.468C40.8207 118.823 40.0927 119 39.122 119H35.552V111.58H38.996C39.8733 111.58 40.5593 111.748 41.054 112.084C41.5487 112.411 41.796 112.877 41.796 113.484C41.796 113.876 41.6887 114.217 41.474 114.506C41.2687 114.786 40.9793 115.001 40.606 115.15ZM36.868 114.772H38.884C39.3973 114.772 39.7847 114.679 40.046 114.492C40.3167 114.305 40.452 114.035 40.452 113.68C40.452 112.971 39.9293 112.616 38.884 112.616H36.868V114.772ZM39.024 117.964C39.584 117.964 40.004 117.875 40.284 117.698C40.564 117.521 40.704 117.245 40.704 116.872C40.704 116.489 40.5733 116.205 40.312 116.018C40.06 115.831 39.6587 115.738 39.108 115.738H36.868V117.964H39.024ZM50.8576 115.332C50.8576 115.435 50.8483 115.57 50.8296 115.738H44.8096C44.8936 116.391 45.1783 116.919 45.6636 117.32C46.1583 117.712 46.7696 117.908 47.4976 117.908C48.3843 117.908 49.0983 117.609 49.6396 117.012L50.3816 117.88C50.0456 118.272 49.6256 118.571 49.1216 118.776C48.6269 118.981 48.0716 119.084 47.4556 119.084C46.6716 119.084 45.9763 118.925 45.3696 118.608C44.7629 118.281 44.2916 117.829 43.9556 117.25C43.6289 116.671 43.4656 116.018 43.4656 115.29C43.4656 114.571 43.6243 113.923 43.9416 113.344C44.2683 112.765 44.7116 112.317 45.2716 112C45.8409 111.673 46.4803 111.51 47.1896 111.51C47.8989 111.51 48.5289 111.673 49.0796 112C49.6396 112.317 50.0736 112.765 50.3816 113.344C50.6989 113.923 50.8576 114.585 50.8576 115.332ZM47.1896 112.644C46.5456 112.644 46.0043 112.84 45.5656 113.232C45.1363 113.624 44.8843 114.137 44.8096 114.772H49.5696C49.4949 114.147 49.2383 113.638 48.7996 113.246C48.3703 112.845 47.8336 112.644 47.1896 112.644ZM56.1766 119.084C55.4206 119.084 54.744 118.921 54.1466 118.594C53.5586 118.267 53.0966 117.819 52.7606 117.25C52.4246 116.671 52.2566 116.018 52.2566 115.29C52.2566 114.562 52.4246 113.913 52.7606 113.344C53.0966 112.765 53.5586 112.317 54.1466 112C54.744 111.673 55.4206 111.51 56.1766 111.51C56.8486 111.51 57.446 111.645 57.9686 111.916C58.5006 112.187 58.9113 112.579 59.2006 113.092L58.1786 113.75C57.9453 113.395 57.656 113.129 57.3106 112.952C56.9653 112.775 56.5826 112.686 56.1626 112.686C55.6773 112.686 55.2386 112.793 54.8466 113.008C54.464 113.223 54.1606 113.531 53.9366 113.932C53.722 114.324 53.6146 114.777 53.6146 115.29C53.6146 115.813 53.722 116.275 53.9366 116.676C54.1606 117.068 54.464 117.371 54.8466 117.586C55.2386 117.801 55.6773 117.908 56.1626 117.908C56.5826 117.908 56.9653 117.819 57.3106 117.642C57.656 117.465 57.9453 117.199 58.1786 116.844L59.2006 117.488C58.9113 118.001 58.5006 118.398 57.9686 118.678C57.446 118.949 56.8486 119.084 56.1766 119.084ZM66.375 112.756H63.659V119H62.315V112.756H59.599V111.58H66.375V112.756ZM70.5991 119.084C69.8618 119.084 69.1991 118.921 68.6111 118.594C68.0231 118.267 67.5611 117.819 67.2251 117.25C66.8985 116.671 66.7351 116.018 66.7351 115.29C66.7351 114.562 66.8985 113.913 67.2251 113.344C67.5611 112.765 68.0231 112.317 68.6111 112C69.1991 111.673 69.8618 111.51 70.5991 111.51C71.3365 111.51 71.9945 111.673 72.5731 112C73.1611 112.317 73.6185 112.765 73.9451 113.344C74.2811 113.913 74.4491 114.562 74.4491 115.29C74.4491 116.018 74.2811 116.671 73.9451 117.25C73.6185 117.819 73.1611 118.267 72.5731 118.594C71.9945 118.921 71.3365 119.084 70.5991 119.084ZM70.5991 117.908C71.0751 117.908 71.4998 117.801 71.8731 117.586C72.2558 117.362 72.5545 117.054 72.7691 116.662C72.9838 116.261 73.0911 115.803 73.0911 115.29C73.0911 114.777 72.9838 114.324 72.7691 113.932C72.5545 113.531 72.2558 113.223 71.8731 113.008C71.4998 112.793 71.0751 112.686 70.5991 112.686C70.1231 112.686 69.6938 112.793 69.3111 113.008C68.9378 113.223 68.6391 113.531 68.4151 113.932C68.2005 114.324 68.0931 114.777 68.0931 115.29C68.0931 115.803 68.2005 116.261 68.4151 116.662C68.6391 117.054 68.9378 117.362 69.3111 117.586C69.6938 117.801 70.1231 117.908 70.5991 117.908ZM80.3239 111.51C81.0426 111.51 81.6866 111.669 82.2559 111.986C82.8252 112.303 83.2686 112.747 83.5859 113.316C83.9126 113.885 84.0759 114.543 84.0759 115.29C84.0759 116.037 83.9126 116.699 83.5859 117.278C83.2686 117.847 82.8252 118.291 82.2559 118.608C81.6866 118.925 81.0426 119.084 80.3239 119.084C79.7919 119.084 79.3019 118.981 78.8539 118.776C78.4152 118.571 78.0419 118.272 77.7339 117.88V121.716H76.3899V111.58H77.6779V112.756C77.9766 112.345 78.3546 112.037 78.8119 111.832C79.2692 111.617 79.7732 111.51 80.3239 111.51ZM80.2119 117.908C80.6879 117.908 81.1126 117.801 81.4859 117.586C81.8686 117.362 82.1672 117.054 82.3819 116.662C82.6059 116.261 82.7179 115.803 82.7179 115.29C82.7179 114.777 82.6059 114.324 82.3819 113.932C82.1672 113.531 81.8686 113.223 81.4859 113.008C81.1126 112.793 80.6879 112.686 80.2119 112.686C79.7452 112.686 79.3206 112.798 78.9379 113.022C78.5646 113.237 78.2659 113.54 78.0419 113.932C77.8272 114.324 77.7199 114.777 77.7199 115.29C77.7199 115.803 77.8272 116.261 78.0419 116.662C78.2566 117.054 78.5552 117.362 78.9379 117.586C79.3206 117.801 79.7452 117.908 80.2119 117.908ZM89.3746 114.1C90.3079 114.109 91.0219 114.324 91.5166 114.744C92.0112 115.164 92.2586 115.757 92.2586 116.522C92.2586 117.325 91.9879 117.945 91.4466 118.384C90.9146 118.813 90.1492 119.023 89.1506 119.014L86.0286 119V111.58H87.3726V114.086L89.3746 114.1ZM93.3646 111.58H94.7086V119H93.3646V111.58ZM89.0526 117.992C89.6592 118.001 90.1166 117.88 90.4246 117.628C90.7419 117.376 90.9006 117.003 90.9006 116.508C90.9006 116.023 90.7466 115.668 90.4386 115.444C90.1306 115.22 89.6686 115.103 89.0526 115.094L87.3726 115.066V117.978L89.0526 117.992Z" fill="#333E63"/>
<defs>
<filter id="filter0_d_507_4757" x="0" y="22" width="199" height="118" filterUnits="userSpaceOnUse" color-interpolation-filters="sRGB">
<feFlood flood-opacity="0" result="BackgroundImageFix"/>
<feColorMatrix in="SourceAlpha" type="matrix" values="0 0 0 0 0 0 0 0 0 0 0 0 0 0 0 0 0 0 127 0" result="hardAlpha"/>
<feOffset dx="5" dy="5"/>
<feComposite in2="hardAlpha" operator="out"/>
<feColorMatrix type="matrix" values="0 0 0 0 0.2 0 0 0 0 0.243137 0 0 0 0 0.388235 0 0 0 1 0"/>
<feBlend mode="normal" in2="BackgroundImageFix" result="effect1_dropShadow_507_4757"/>
<feBlend mode="normal" in="SourceGraphic" in2="effect1_dropShadow_507_4757" result="shape"/>
</filter>
<clipPath id="clip0_507_4757">
<rect width="144" height="243" fill="white" transform="translate(191)"/>
</clipPath>
</defs>
</svg>
