<svg width="16" height="16" viewBox="0 0 16 16" fill="none" xmlns="http://www.w3.org/2000/svg">
<path d="M7.99978 15.1109C11.9271 15.1109 15.1109 11.9271 15.1109 7.99978C15.1109 4.07242 11.9271 0.888672 7.99978 0.888672C4.07242 0.888672 0.888672 4.07242 0.888672 7.99978C0.888672 11.9271 4.07242 15.1109 7.99978 15.1109Z" stroke="#B4B4B4" stroke-width="1.2" stroke-linecap="round" stroke-linejoin="round"/>
<path d="M7.46214 10.4938H8.6893V9.98765C8.6893 8.50617 11 8.2963 11 6.25926C11 4.88889 9.75979 4 8.27154 4C6.86162 4 6 4.79012 6 4.79012L6.69191 5.64198C6.69191 5.64198 7.3577 5.12346 8.18016 5.12346C9.04178 5.12346 9.68146 5.65432 9.68146 6.34568C9.68146 7.76543 7.46214 8.03704 7.46214 9.91358V10.4938ZM7.42298 12H8.72846V10.8025H7.42298V12Z" fill="#B4B4B4"/>
</svg>
