<svg width="15" height="15" viewBox="0 0 15 15" fill="none" xmlns="http://www.w3.org/2000/svg">
<path d="M12.9295 0.900391H2.89625C1.76347 0.900391 0.900391 1.76347 0.900391 2.89626V12.9295C0.900391 14.0623 1.76347 14.9254 2.89625 14.9254H12.9295C14.0623 14.9254 14.9254 14.0623 14.9254 12.9295V2.89626C14.9254 1.76347 14.0623 0.900391 12.9295 0.900391ZM7.91289 12.1204C10.2324 12.1204 12.1204 10.2864 12.1204 8.07472C12.1204 7.69712 12.0664 7.26558 11.9586 6.94193H13.1453V12.6598C13.1453 12.9295 12.9295 13.1992 12.6059 13.1992H3.21991C2.9502 13.1992 2.68049 12.9835 2.68049 12.6598V6.88799H3.92116C3.81328 7.26558 3.75933 7.64318 3.75933 8.02078C3.70539 10.2864 5.59337 12.1204 7.91289 12.1204ZM7.91289 10.5021C6.40251 10.5021 5.21578 9.31539 5.21578 7.85895C5.21578 6.40251 6.40251 5.21578 7.91289 5.21578C9.42328 5.21578 10.61 6.40251 10.61 7.85895C10.61 9.36933 9.42328 10.5021 7.91289 10.5021ZM13.0914 4.73029C13.0914 5.05395 12.8216 5.32366 12.498 5.32366H10.9876C10.6639 5.32366 10.3942 5.05395 10.3942 4.73029V3.27385C10.3942 2.9502 10.6639 2.68049 10.9876 2.68049H12.498C12.8216 2.68049 13.0914 2.9502 13.0914 3.27385V4.73029Z" fill="white"/>
</svg>
