<svg width="209" height="19" viewBox="0 0 209 19" fill="none" xmlns="http://www.w3.org/2000/svg">
<path d="M0.0750001 0.499999H4.125V18H0.0750001V0.499999ZM24.3281 0.499999V18H21.0031L12.2781 7.375V18H8.27813V0.499999H11.6281L20.3281 11.125V0.499999H24.3281ZM45.1959 0.499999L37.6209 18H33.6209L26.0709 0.499999H30.4459L35.7709 13L41.1709 0.499999H45.1959ZM60.207 14.75V18H46.657V0.499999H59.882V3.75H50.682V7.55H58.807V10.7H50.682V14.75H60.207ZM69.1795 18.3C67.7962 18.3 66.4545 18.1167 65.1545 17.75C63.8712 17.3667 62.8378 16.875 62.0545 16.275L63.4295 13.225C64.1795 13.775 65.0712 14.2167 66.1045 14.55C67.1378 14.8833 68.1712 15.05 69.2045 15.05C70.3545 15.05 71.2045 14.8833 71.7545 14.55C72.3045 14.2 72.5795 13.7417 72.5795 13.175C72.5795 12.7583 72.4128 12.4167 72.0795 12.15C71.7628 11.8667 71.3462 11.6417 70.8295 11.475C70.3295 11.3083 69.6462 11.125 68.7795 10.925C67.4462 10.6083 66.3545 10.2917 65.5045 9.975C64.6545 9.65833 63.9212 9.15 63.3045 8.45C62.7045 7.75 62.4045 6.81667 62.4045 5.65C62.4045 4.63333 62.6795 3.71667 63.2295 2.9C63.7795 2.06667 64.6045 1.40833 65.7045 0.924999C66.8212 0.441666 68.1795 0.2 69.7795 0.2C70.8962 0.2 71.9878 0.333333 73.0545 0.599999C74.1212 0.866666 75.0545 1.25 75.8545 1.75L74.6045 4.825C72.9878 3.90833 71.3712 3.45 69.7545 3.45C68.6212 3.45 67.7795 3.63333 67.2295 4C66.6962 4.36667 66.4295 4.85 66.4295 5.45C66.4295 6.05 66.7378 6.5 67.3545 6.8C67.9878 7.08333 68.9462 7.36667 70.2295 7.65C71.5628 7.96667 72.6545 8.28333 73.5045 8.6C74.3545 8.91667 75.0795 9.41667 75.6795 10.1C76.2962 10.7833 76.6045 11.7083 76.6045 12.875C76.6045 13.875 76.3212 14.7917 75.7545 15.625C75.2045 16.4417 74.3712 17.0917 73.2545 17.575C72.1378 18.0583 70.7795 18.3 69.1795 18.3ZM82.7527 3.8H77.1527V0.499999H92.4027V3.8H86.8027V18H82.7527V3.8ZM117.712 0.499999V18H113.662V10.825H105.712V18H101.662V0.499999H105.712V7.4H113.662V0.499999H117.712ZM135.402 14.75V18H121.852V0.499999H135.077V3.75H125.877V7.55H134.002V10.7H125.877V14.75H135.402ZM149.775 18L146.4 13.125H146.2H142.675V18H138.625V0.499999H146.2C147.75 0.499999 149.091 0.758332 150.225 1.275C151.375 1.79167 152.258 2.525 152.875 3.475C153.491 4.425 153.8 5.55 153.8 6.85C153.8 8.15 153.483 9.275 152.85 10.225C152.233 11.1583 151.35 11.875 150.2 12.375L154.125 18H149.775ZM149.7 6.85C149.7 5.86667 149.383 5.11667 148.75 4.6C148.116 4.06667 147.191 3.8 145.975 3.8H142.675V9.9H145.975C147.191 9.9 148.116 9.63333 148.75 9.1C149.383 8.56667 149.7 7.81667 149.7 6.85ZM165.484 18.3C163.667 18.3 162.025 17.9083 160.559 17.125C159.109 16.3417 157.967 15.2667 157.134 13.9C156.317 12.5167 155.909 10.9667 155.909 9.25C155.909 7.53333 156.317 5.99167 157.134 4.625C157.967 3.24167 159.109 2.15833 160.559 1.375C162.025 0.591666 163.667 0.2 165.484 0.2C167.3 0.2 168.934 0.591666 170.384 1.375C171.834 2.15833 172.975 3.24167 173.809 4.625C174.642 5.99167 175.059 7.53333 175.059 9.25C175.059 10.9667 174.642 12.5167 173.809 13.9C172.975 15.2667 171.834 16.3417 170.384 17.125C168.934 17.9083 167.3 18.3 165.484 18.3ZM165.484 14.85C166.517 14.85 167.45 14.6167 168.284 14.15C169.117 13.6667 169.767 13 170.234 12.15C170.717 11.3 170.959 10.3333 170.959 9.25C170.959 8.16667 170.717 7.2 170.234 6.35C169.767 5.5 169.117 4.84167 168.284 4.375C167.45 3.89167 166.517 3.65 165.484 3.65C164.45 3.65 163.517 3.89167 162.684 4.375C161.85 4.84167 161.192 5.5 160.709 6.35C160.242 7.2 160.009 8.16667 160.009 9.25C160.009 10.3333 160.242 11.3 160.709 12.15C161.192 13 161.85 13.6667 162.684 14.15C163.517 14.6167 164.45 14.85 165.484 14.85ZM191.652 14.75V18H178.102V0.499999H191.327V3.75H182.127V7.55H190.252V10.7H182.127V14.75H191.652ZM200.625 18.3C199.241 18.3 197.9 18.1167 196.6 17.75C195.316 17.3667 194.283 16.875 193.5 16.275L194.875 13.225C195.625 13.775 196.516 14.2167 197.55 14.55C198.583 14.8833 199.616 15.05 200.65 15.05C201.8 15.05 202.65 14.8833 203.2 14.55C203.75 14.2 204.025 13.7417 204.025 13.175C204.025 12.7583 203.858 12.4167 203.525 12.15C203.208 11.8667 202.791 11.6417 202.275 11.475C201.775 11.3083 201.091 11.125 200.225 10.925C198.891 10.6083 197.8 10.2917 196.95 9.975C196.1 9.65833 195.366 9.15 194.75 8.45C194.15 7.75 193.85 6.81667 193.85 5.65C193.85 4.63333 194.125 3.71667 194.675 2.9C195.225 2.06667 196.05 1.40833 197.15 0.924999C198.266 0.441666 199.625 0.2 201.225 0.2C202.341 0.2 203.433 0.333333 204.5 0.599999C205.566 0.866666 206.5 1.25 207.3 1.75L206.05 4.825C204.433 3.90833 202.816 3.45 201.2 3.45C200.066 3.45 199.225 3.63333 198.675 4C198.141 4.36667 197.875 4.85 197.875 5.45C197.875 6.05 198.183 6.5 198.8 6.8C199.433 7.08333 200.391 7.36667 201.675 7.65C203.008 7.96667 204.1 8.28333 204.95 8.6C205.8 8.91667 206.525 9.41667 207.125 10.1C207.741 10.7833 208.05 11.7083 208.05 12.875C208.05 13.875 207.766 14.7917 207.2 15.625C206.65 16.4417 205.816 17.0917 204.7 17.575C203.583 18.0583 202.225 18.3 200.625 18.3Z" fill="#FF5745"/>
</svg>
