<svg width="17" height="16" viewBox="0 0 17 16" fill="none" xmlns="http://www.w3.org/2000/svg">
<path d="M0.714133 7.80901L4.50757 9.2235L5.98635 13.9813C6.05064 14.3028 6.43642 14.3671 6.6936 14.1742L8.81533 12.4383C9.00822 12.2454 9.3297 12.2454 9.58688 12.4383L13.3803 15.203C13.6375 15.3958 14.0232 15.2672 14.0875 14.9458L16.9165 1.44378C16.9808 1.12231 16.6594 0.800832 16.3379 0.929423L0.714133 6.97317C0.328362 7.10176 0.328362 7.68042 0.714133 7.80901ZM5.79347 8.51625L13.2517 3.95129C13.3803 3.887 13.5089 4.07989 13.3803 4.14418L7.27225 9.86646C7.07936 10.0593 6.88648 10.3165 6.88648 10.638L6.6936 12.1811C6.6936 12.374 6.37212 12.4383 6.30782 12.1811L5.53627 9.35209C5.34339 9.03062 5.47199 8.64484 5.79347 8.51625Z" fill="white"/>
</svg>
