<svg width="18" height="11" viewBox="0 0 18 11" fill="none" xmlns="http://www.w3.org/2000/svg">
<path d="M17.5901 9.7227C17.5901 9.6542 17.5216 9.6542 17.5216 9.58571C17.2477 9.03776 16.6312 8.35282 15.8093 7.59939C15.3983 7.25692 15.1929 6.98294 15.0559 6.84595C14.8504 6.57198 14.8504 6.3665 14.9189 6.09253C14.9874 5.88705 15.2613 5.54457 15.7408 4.92812C16.0148 4.58565 16.1518 4.38018 16.3572 4.1747C17.3847 2.80482 17.8641 1.91439 17.7271 1.50343L17.6586 1.43494C17.5902 1.36645 17.5216 1.29795 17.3847 1.29795C17.2477 1.22946 17.0422 1.22946 16.8367 1.29795H14.2339C14.1655 1.29795 14.1654 1.29795 14.0285 1.29795C13.96 1.29795 13.8915 1.29795 13.8915 1.29795H13.823H13.7545L13.686 1.36644C13.6175 1.43493 13.6175 1.43493 13.6175 1.50343C13.3435 2.25686 13.001 2.87331 12.6586 3.55824C12.4531 3.90071 12.2476 4.24319 12.0421 4.51717C11.8367 4.79114 11.6997 4.99662 11.5627 5.13361C11.4257 5.27059 11.2887 5.33909 11.2202 5.47608C11.1517 5.54457 11.0147 5.61307 11.0147 5.54457C10.9462 5.54457 10.8777 5.54457 10.8777 5.47608C10.8092 5.40758 10.7408 5.33909 10.6723 5.27059C10.6038 5.2021 10.6038 5.06511 10.5353 4.92812C10.5353 4.79113 10.5353 4.65415 10.5353 4.58565C10.5353 4.51716 10.5353 4.31168 10.5353 4.1747C10.5353 3.96921 10.5353 3.83222 10.5353 3.76373C10.5353 3.55825 10.5353 3.28428 10.5353 3.0103C10.5353 2.73633 10.5353 2.53084 10.5353 2.39385C10.5353 2.25686 10.5353 2.05138 10.5353 1.91439C10.5353 1.70891 10.5353 1.57192 10.5353 1.50343C10.5353 1.43493 10.4668 1.29795 10.4668 1.22946C10.3983 1.16096 10.3298 1.09247 10.2613 1.02397C10.1928 0.955478 10.0558 0.95548 9.98732 0.886986C9.64485 0.818492 9.23389 0.75 8.75444 0.75C7.65853 0.75 6.9051 0.818496 6.63112 0.955484C6.49413 1.02398 6.35714 1.09247 6.28865 1.22946C6.15166 1.36644 6.15166 1.43494 6.22015 1.43494C6.56262 1.50343 6.8366 1.64041 6.97359 1.8459L7.04209 1.98289C7.11058 2.05139 7.11057 2.18837 7.17906 2.39385C7.24756 2.59933 7.24756 2.80481 7.24756 3.07879C7.24756 3.48975 7.24756 3.90072 7.24756 4.1747C7.24756 4.51717 7.17906 4.72264 7.17906 4.92812C7.17906 5.1336 7.11058 5.2706 7.04209 5.33909C6.97359 5.47608 6.97359 5.54457 6.90509 5.54457C6.90509 5.54457 6.90509 5.61306 6.83659 5.61306C6.7681 5.61306 6.69961 5.68156 6.56262 5.68156C6.49413 5.68156 6.35714 5.61307 6.28865 5.54457C6.15166 5.47608 6.01468 5.33909 5.94618 5.2021C5.80919 5.06512 5.6722 4.85963 5.53521 4.58565C5.39823 4.31168 5.19274 4.03771 5.05575 3.62674L4.91877 3.35277C4.85028 3.21578 4.71329 2.9418 4.5763 2.59933C4.43932 2.25686 4.30232 1.98289 4.16534 1.64042C4.09684 1.50344 4.02836 1.43493 3.95986 1.36644H3.89136C3.89136 1.36644 3.82286 1.29795 3.75437 1.29795C3.68587 1.29795 3.61739 1.22946 3.54889 1.22946H1.08311C0.809134 1.22946 0.672148 1.29795 0.603654 1.36644L0.535156 1.43494C0.535156 1.43494 0.535156 1.50343 0.535156 1.57192C0.535156 1.64042 0.53516 1.70891 0.603654 1.8459C0.946124 2.66782 1.35709 3.48975 1.76805 4.31168C2.17901 5.06511 2.58998 5.75006 2.86396 6.22951C3.20642 6.70897 3.4804 7.18843 3.82287 7.59939C4.16534 8.01035 4.37081 8.28433 4.43931 8.42132C4.57629 8.5583 4.64478 8.62679 4.71328 8.69529L4.91877 8.90077C5.05576 9.03776 5.26124 9.24324 5.53521 9.44872C5.80919 9.65421 6.15165 9.85968 6.49412 10.0652C6.83659 10.2706 7.24757 10.4076 7.65853 10.5446C8.13799 10.6816 8.54895 10.7501 8.95991 10.6816H9.98732C10.1928 10.6816 10.3298 10.6131 10.4668 10.4761L10.5353 10.4076C10.5353 10.3391 10.6038 10.3391 10.6038 10.2706C10.6038 10.2022 10.6038 10.1337 10.6038 9.99668C10.6038 9.7227 10.6038 9.51722 10.6723 9.31174C10.7408 9.10626 10.7408 8.96927 10.8093 8.83228C10.8777 8.6953 10.9462 8.6268 11.0147 8.5583C11.0832 8.48981 11.1517 8.42132 11.1517 8.42132H11.2202C11.3572 8.35282 11.5627 8.42131 11.6997 8.5583C11.9051 8.69529 12.1106 8.90077 12.2476 9.10626C12.3846 9.31174 12.5901 9.51722 12.8641 9.79119C13.138 10.0652 13.3435 10.2707 13.4805 10.3391L13.686 10.4761C13.823 10.5446 13.96 10.6131 14.1655 10.6816C14.3709 10.7501 14.5079 10.7501 14.6449 10.7501L16.9737 10.6816C17.1792 10.6816 17.3847 10.6131 17.5216 10.5446C17.6586 10.4761 17.7271 10.4076 17.7271 10.2706C17.7271 10.2022 17.7271 10.0652 17.7271 9.99668C17.5901 9.85969 17.5901 9.79119 17.5901 9.7227Z" fill="white"/>
</svg>
