<svg width="163" height="408" viewBox="0 0 163 408" fill="none" xmlns="http://www.w3.org/2000/svg">
<g clip-path="url(#clip0_507_4766)">
<path d="M109.876 391.583L112.598 394.127C112.598 394.127 124.23 402.09 124.807 402.911C125.384 403.732 125.219 404.717 124.642 405.62C124.147 406.276 123.487 406.769 122.662 407.179H97.9978C97.9978 407.179 97.0904 406.44 97.4204 403.403C97.7503 400.448 98.2453 396.18 98.2453 396.18L109.876 391.583Z" fill="white" stroke="#263238" stroke-miterlimit="10"/>
<path d="M124.642 405.62C124.807 405.373 124.89 405.127 125.054 404.881H97.3379C97.3379 406.687 97.9978 407.261 97.9978 407.261H122.662C123.487 406.769 124.147 406.276 124.642 405.62Z" fill="white" stroke="#263238" stroke-miterlimit="10"/>
<path d="M38.3574 250.638L40.3372 329.524L45.6165 386.986L44.8741 388.792L44.7091 393.306C46.194 393.717 47.6788 393.963 49.2461 393.881C52.3807 393.881 58.6499 396.015 58.6499 396.015C58.6499 396.015 60.4647 384.523 60.7946 379.023C61.1246 373.523 65.0841 305.719 65.0841 305.719L67.6413 280.929L70.0335 280.354L83.8093 350.949L98.4925 396.179L110.041 391.5C110.041 391.5 110.618 388.053 110.618 386.986C110.618 386.001 109.216 382.717 109.216 382.717L103.937 319.92L94.698 250.967L38.3574 250.638Z" fill="#263238" stroke="#263238" stroke-miterlimit="10"/>
<path d="M46.0292 391.172L42.0696 397.657C42.0696 397.657 34.8105 403.321 34.2331 404.716C33.9032 405.537 34.0681 406.604 34.6456 407.261H57.9077L58.4851 396.097C58.5676 396.097 49.9062 391.008 46.0292 391.172Z" fill="white" stroke="#263238" stroke-miterlimit="10"/>
<path d="M58.0729 404.799H34.1508C33.9033 405.62 34.0683 406.522 34.5633 407.179H57.8254L58.0729 404.799Z" fill="white" stroke="#263238" stroke-miterlimit="10"/>
<path d="M2.55713 407.59H163" stroke="#263238" stroke-miterlimit="10"/>
<path d="M97.3379 203.93L121.755 227.736L131.406 222.236L103.442 168.14L97.3379 203.93Z" fill="#B0BEC5" stroke="#263238" stroke-linecap="round" stroke-linejoin="round"/>
<path d="M115.403 233.892L130.251 234.549C132.561 232.989 134.046 230.527 134.376 227.818C134.871 223.139 129.509 218.952 129.509 218.952L117.053 225.027L115.403 233.892Z" fill="#B0BEC5" stroke="#263238" stroke-miterlimit="10"/>
<path d="M83.3149 260.16L84.8823 262.048L91.399 260.489L96.8433 269.272L100.143 262.13L129.922 234.713C124.89 227.818 116.063 231.019 116.063 231.019L96.4308 256.63L90.9865 256.22L83.3149 260.16Z" fill="white" stroke="#263238" stroke-linecap="round" stroke-linejoin="round"/>
<path d="M31.3464 171.834L3.38232 226.012L13.0336 231.512L37.4506 207.624L31.3464 171.834Z" fill="#B0BEC5" stroke="#263238" stroke-linecap="round" stroke-linejoin="round"/>
<path d="M56.1756 161.984L31.2637 171.752C31.2637 171.752 38.2753 214.602 38.5228 222.4C38.7702 230.198 36.873 251.049 38.5228 253.265C40.1726 255.481 44.3796 255.81 44.3796 255.81L95.4408 255.563C95.4408 255.563 99.8127 253.429 98.0804 245.549C97.0905 241.198 99.1528 206.885 99.7302 199.662C100.308 192.438 103.607 167.976 103.607 167.976C103.607 167.976 82.9023 162.148 77.293 161.327C71.7662 160.342 60.3001 159.275 56.1756 161.984Z" fill="#B0BEC5" stroke="#263238" stroke-linecap="round" stroke-linejoin="round"/>
<path d="M70.5288 229.87L73.4984 227.572" stroke="#263238" stroke-linecap="round" stroke-linejoin="round"/>
<path d="M42.9775 250.884L67.2295 232.415" stroke="#263238" stroke-linecap="round" stroke-linejoin="round"/>
<path d="M54.9385 237.258L72.0139 222.072" stroke="#263238" stroke-linecap="round" stroke-linejoin="round"/>
<path d="M17.8179 228.721L5.36193 222.646C5.36193 222.646 -0.0823938 226.833 0.495035 231.512C0.824994 234.22 2.30981 236.683 4.61953 238.243L19.4677 237.586L17.8179 228.721Z" fill="#B0BEC5" stroke="#263238" stroke-miterlimit="10"/>
<path d="M44.132 257.451L38.7702 258.19L17.5703 233.81C17.5703 233.81 8.5789 231.101 3.95947 238.325L35.3881 263.936L39.1001 270.832L43.967 261.72L50.5662 262.869L51.9686 260.899L44.132 257.451Z" fill="white" stroke="#263238" stroke-linecap="round" stroke-linejoin="round"/>
<path d="M61.0426 157.551C61.0426 157.551 56.7531 160.178 56.4231 161.327C56.1757 162.312 55.9282 163.297 55.8457 164.282C55.8457 164.282 57.743 187.349 58.5679 186.938C59.3928 186.528 66.2394 178.401 67.6417 177.006C69.0441 175.61 71.3538 175.446 71.8487 175.938C72.3437 176.431 81.4175 188.58 82.2424 186.856C82.9849 185.132 81.7475 167.319 79.6853 162.722C77.458 157.961 63.2698 155.663 61.0426 157.551Z" fill="white" stroke="#263238" stroke-miterlimit="10"/>
<path d="M59.3101 151.641L60.135 164.61C60.135 164.61 65.9917 183.983 69.7863 183.162C73.5808 182.341 78.5302 163.954 78.6127 163.461C78.7777 162.969 79.1901 155.663 79.1901 155.663C79.1901 155.663 79.5201 157.797 71.5185 155.827C67.3116 155.006 63.2696 153.611 59.3101 151.641Z" fill="white" stroke="#263238" stroke-miterlimit="10"/>
<path d="M59.9704 163.954C62.7751 164.775 68.0544 165.924 71.7665 163.625C74.6536 161.819 77.1283 159.275 78.8606 156.402C78.2832 156.812 76.4684 157.223 71.6015 155.909C67.312 154.924 63.1875 153.447 59.228 151.559L59.9704 163.954Z" fill="#263238" stroke="#263238" stroke-miterlimit="10"/>
<path d="M83.6448 140.969C83.6448 140.969 84.0573 147.7 82.2425 151.066C80.4277 154.432 77.1281 159.275 74.7359 159.931C72.3437 160.588 68.8791 159.439 65.3321 157.387C62.8574 155.909 60.6301 154.103 58.5679 152.133C56.8356 151.969 55.1033 151.23 54.031 149.835C52.1337 147.536 50.0714 145.238 51.0613 143.021C52.0512 140.805 52.6286 140.313 52.6286 140.313L53.1236 136.454C53.1236 136.454 51.8862 129.887 52.0512 127.261C52.2162 124.634 60.5477 117.164 66.0745 116.507C71.6013 115.85 76.7982 120.447 78.448 122.746C80.0978 125.044 84.5522 128.41 84.4697 129.559C84.3872 130.708 83.6448 140.969 83.6448 140.969Z" fill="white" stroke="#263238" stroke-miterlimit="10"/>
<path d="M83.6448 140.969C83.6448 140.969 85.1296 139.409 86.037 140.148C87.0269 140.887 87.5218 144.499 85.707 146.387C84.9646 147.372 83.9747 148.111 82.9849 148.767C83.0674 148.767 83.8923 141.872 83.6448 140.969Z" fill="white" stroke="#263238" stroke-miterlimit="10"/>
<path d="M73.3336 134.73C73.3336 134.73 72.9211 138.506 73.1686 139.081C73.4161 139.656 76.4682 141.297 76.0558 142.118C75.6433 142.939 72.2612 143.35 72.2612 143.35" stroke="#263238" stroke-miterlimit="10"/>
<path d="M65.6616 148.519C65.6616 148.519 69.7861 147.871 71.7659 148.118C73.7456 148.364 77.3752 148.273 78.0351 147.534" stroke="#263238" stroke-miterlimit="10"/>
<path d="M64.6584 136.294C64.8404 137.112 64.4764 137.793 63.9303 137.862C63.3843 137.93 62.8382 137.316 62.7472 136.498C62.6562 135.68 62.9292 134.998 63.4753 134.93C64.0213 134.862 64.5674 135.544 64.6584 136.294Z" fill="#263238"/>
<path d="M77.9955 136.294C78.1748 137.112 77.8162 137.793 77.2784 137.862C76.7405 137.93 76.2027 137.316 76.113 136.498C75.9338 135.68 76.2923 134.999 76.8302 134.93C77.368 134.862 77.9059 135.476 77.9955 136.294Z" fill="#263238"/>
<path d="M59.9697 134.56C61.6195 133.328 63.7643 132.754 65.8265 133.082" stroke="#263238" stroke-miterlimit="10"/>
<path d="M74.3232 132.838C75.973 131.689 78.2002 131.853 79.6851 133.248" stroke="#263238" stroke-miterlimit="10"/>
<path d="M63.6822 119.134C63.6822 119.134 58.8153 126.44 55.7632 128.574L52.7111 130.708C52.7111 130.708 54.4433 140.969 53.9484 141.544C53.4535 142.118 52.876 142.283 52.7935 141.38C52.7111 140.477 52.5461 139.656 51.8037 139.327C51.1437 138.999 48.999 137.85 48.999 137.85L46.1119 127.999C46.1119 127.999 43.2247 124.387 44.4621 121.679C45.6994 119.052 49.0815 114.537 49.0815 114.537C49.0815 114.537 47.5142 113.798 48.3391 112.649C49.164 111.5 56.7531 112.321 56.7531 112.321C56.7531 112.321 57.9079 108.709 60.2176 108.463C62.5273 108.216 62.5274 108.955 62.5274 108.955C62.5274 108.955 71.6012 105.836 76.5506 106.492C81.5 107.149 95.0283 121.186 93.3785 122.664C91.7287 124.141 86.3669 124.716 86.3669 124.716C86.3669 124.716 84.5521 138.671 83.9747 138.835L83.3148 138.999L82.4899 126.522C82.4074 126.522 67.3942 122.582 63.6822 119.134Z" fill="#263238" stroke="#263238" stroke-miterlimit="10"/>
</g>
<g filter="url(#filter0_d_507_4766)">
<path d="M57.5633 94L53.0587 74.9641L141.729 74.9641C146.852 74.9641 151 70.8065 151 65.6706L151 10.2936C151 5.15765 146.852 1 141.729 1L18.2711 1.00001C13.1476 1.00001 9 5.15766 9 10.2936L9 65.5483C9 70.6842 13.1476 74.8419 18.2711 74.8419L38.7861 74.8419L57.5633 94Z" fill="white"/>
<path d="M58.0498 93.8849C58.1015 94.1033 58.0013 94.3295 57.8047 94.4379C57.6081 94.5463 57.3633 94.5103 57.2062 94.35L38.5761 75.3419L18.2711 75.3419C12.8703 75.3419 8.5 70.9592 8.5 65.5483L8.5 10.2936C8.5 4.88266 12.8703 0.500006 18.2711 0.500006L141.729 0.5C147.13 0.5 151.5 4.88265 151.5 10.2936L151.5 65.6706C151.5 71.0815 147.13 75.4641 141.729 75.4641L53.6909 75.4641L58.0498 93.8849Z" stroke="#333E63" stroke-linecap="round" stroke-linejoin="round"/>
</g>
<path d="M23.25 16.7L26.036 20.578L28.808 16.7H30.026L26.68 21.404L30.292 26.5H29.074L26.036 22.286L22.998 26.5H21.808L25.406 21.446L22.06 16.7H23.25ZM34.6336 26.57C33.9243 26.57 33.285 26.4113 32.7156 26.094C32.1463 25.7673 31.6983 25.3193 31.3716 24.75C31.045 24.1807 30.8816 23.5367 30.8816 22.818C30.8816 22.0993 31.045 21.4553 31.3716 20.886C31.6983 20.3167 32.1463 19.8733 32.7156 19.556C33.285 19.2387 33.9243 19.08 34.6336 19.08C35.343 19.08 35.9823 19.2387 36.5516 19.556C37.121 19.8733 37.5643 20.3167 37.8816 20.886C38.2083 21.4553 38.3716 22.0993 38.3716 22.818C38.3716 23.5367 38.2083 24.1807 37.8816 24.75C37.5643 25.3193 37.121 25.7673 36.5516 26.094C35.9823 26.4113 35.343 26.57 34.6336 26.57ZM34.6336 25.688C35.1563 25.688 35.623 25.5713 36.0336 25.338C36.4536 25.0953 36.7803 24.7547 37.0136 24.316C37.247 23.8773 37.3636 23.378 37.3636 22.818C37.3636 22.258 37.247 21.7587 37.0136 21.32C36.7803 20.8813 36.4536 20.5453 36.0336 20.312C35.623 20.0693 35.1563 19.948 34.6336 19.948C34.111 19.948 33.6396 20.0693 33.2196 20.312C32.809 20.5453 32.4823 20.8813 32.2396 21.32C32.0063 21.7587 31.8896 22.258 31.8896 22.818C31.8896 23.378 32.0063 23.8773 32.2396 24.316C32.4823 24.7547 32.809 25.0953 33.2196 25.338C33.6396 25.5713 34.111 25.688 34.6336 25.688ZM44.29 19.08C44.9807 19.08 45.606 19.2387 46.166 19.556C46.726 19.864 47.1647 20.3027 47.482 20.872C47.7994 21.4413 47.958 22.09 47.958 22.818C47.958 23.5553 47.7994 24.2087 47.482 24.778C47.1647 25.3473 46.726 25.7907 46.166 26.108C45.6154 26.416 44.99 26.57 44.29 26.57C43.6927 26.57 43.1514 26.4487 42.666 26.206C42.19 25.954 41.798 25.59 41.49 25.114V29.216H40.496V19.136H41.448V20.592C41.7467 20.1067 42.1387 19.7333 42.624 19.472C43.1187 19.2107 43.674 19.08 44.29 19.08ZM44.22 25.688C44.7334 25.688 45.2 25.5713 45.62 25.338C46.04 25.0953 46.3667 24.7547 46.6 24.316C46.8427 23.8773 46.964 23.378 46.964 22.818C46.964 22.258 46.8427 21.7633 46.6 21.334C46.3667 20.8953 46.04 20.5547 45.62 20.312C45.2 20.0693 44.7334 19.948 44.22 19.948C43.6974 19.948 43.226 20.0693 42.806 20.312C42.3954 20.5547 42.0687 20.8953 41.826 21.334C41.5927 21.7633 41.476 22.258 41.476 22.818C41.476 23.378 41.5927 23.8773 41.826 24.316C42.0687 24.7547 42.3954 25.0953 42.806 25.338C43.226 25.5713 43.6974 25.688 44.22 25.688ZM53.1317 26.57C52.4224 26.57 51.783 26.4113 51.2137 26.094C50.6444 25.7673 50.1964 25.3193 49.8697 24.75C49.543 24.1807 49.3797 23.5367 49.3797 22.818C49.3797 22.0993 49.543 21.4553 49.8697 20.886C50.1964 20.3167 50.6444 19.8733 51.2137 19.556C51.783 19.2387 52.4224 19.08 53.1317 19.08C53.841 19.08 54.4804 19.2387 55.0497 19.556C55.619 19.8733 56.0624 20.3167 56.3797 20.886C56.7064 21.4553 56.8697 22.0993 56.8697 22.818C56.8697 23.5367 56.7064 24.1807 56.3797 24.75C56.0624 25.3193 55.619 25.7673 55.0497 26.094C54.4804 26.4113 53.841 26.57 53.1317 26.57ZM53.1317 25.688C53.6544 25.688 54.121 25.5713 54.5317 25.338C54.9517 25.0953 55.2784 24.7547 55.5117 24.316C55.745 23.8773 55.8617 23.378 55.8617 22.818C55.8617 22.258 55.745 21.7587 55.5117 21.32C55.2784 20.8813 54.9517 20.5453 54.5317 20.312C54.121 20.0693 53.6544 19.948 53.1317 19.948C52.609 19.948 52.1377 20.0693 51.7177 20.312C51.307 20.5453 50.9804 20.8813 50.7377 21.32C50.5044 21.7587 50.3877 22.258 50.3877 22.818C50.3877 23.378 50.5044 23.8773 50.7377 24.316C50.9804 24.7547 51.307 25.0953 51.7177 25.338C52.1377 25.5713 52.609 25.688 53.1317 25.688ZM69.1581 19.136V26.5H58.9941V19.136H59.9881V25.632H63.6001V19.136H64.5941V25.632H68.1641V19.136H69.1581ZM75.034 26.57C74.3247 26.57 73.6854 26.4113 73.116 26.094C72.5467 25.7673 72.0987 25.3193 71.772 24.75C71.4454 24.1807 71.282 23.5367 71.282 22.818C71.282 22.0993 71.4454 21.4553 71.772 20.886C72.0987 20.3167 72.5467 19.8733 73.116 19.556C73.6854 19.2387 74.3247 19.08 75.034 19.08C75.7434 19.08 76.3827 19.2387 76.952 19.556C77.5214 19.8733 77.9647 20.3167 78.282 20.886C78.6087 21.4553 78.772 22.0993 78.772 22.818C78.772 23.5367 78.6087 24.1807 78.282 24.75C77.9647 25.3193 77.5214 25.7673 76.952 26.094C76.3827 26.4113 75.7434 26.57 75.034 26.57ZM75.034 25.688C75.5567 25.688 76.0234 25.5713 76.434 25.338C76.854 25.0953 77.1807 24.7547 77.414 24.316C77.6474 23.8773 77.764 23.378 77.764 22.818C77.764 22.258 77.6474 21.7587 77.414 21.32C77.1807 20.8813 76.854 20.5453 76.434 20.312C76.0234 20.0693 75.5567 19.948 75.034 19.948C74.5114 19.948 74.04 20.0693 73.62 20.312C73.2094 20.5453 72.8827 20.8813 72.64 21.32C72.4067 21.7587 72.29 22.258 72.29 22.818C72.29 23.378 72.4067 23.8773 72.64 24.316C72.8827 24.7547 73.2094 25.0953 73.62 25.338C74.04 25.5713 74.5114 25.688 75.034 25.688ZM80.7613 26.57C80.556 26.57 80.3787 26.4953 80.2293 26.346C80.0893 26.1967 80.0193 26.0147 80.0193 25.8C80.0193 25.5853 80.0893 25.408 80.2293 25.268C80.3787 25.1187 80.556 25.044 80.7613 25.044C80.9667 25.044 81.144 25.1187 81.2933 25.268C81.4427 25.408 81.5173 25.5853 81.5173 25.8C81.5173 26.0147 81.4427 26.1967 81.2933 26.346C81.144 26.4953 80.9667 26.57 80.7613 26.57ZM83.7281 26.57C83.5228 26.57 83.3455 26.4953 83.1961 26.346C83.0561 26.1967 82.9861 26.0147 82.9861 25.8C82.9861 25.5853 83.0561 25.408 83.1961 25.268C83.3455 25.1187 83.5228 25.044 83.7281 25.044C83.9335 25.044 84.1108 25.1187 84.2601 25.268C84.4095 25.408 84.4841 25.5853 84.4841 25.8C84.4841 26.0147 84.4095 26.1967 84.2601 26.346C84.1108 26.4953 83.9335 26.57 83.7281 26.57ZM86.6949 26.57C86.4896 26.57 86.3123 26.4953 86.1629 26.346C86.0229 26.1967 85.9529 26.0147 85.9529 25.8C85.9529 25.5853 86.0229 25.408 86.1629 25.268C86.3123 25.1187 86.4896 25.044 86.6949 25.044C86.9003 25.044 87.0776 25.1187 87.2269 25.268C87.3763 25.408 87.4509 25.5853 87.4509 25.8C87.4509 26.0147 87.3763 26.1967 87.2269 26.346C87.0776 26.4953 86.9003 26.57 86.6949 26.57ZM89.6617 26.57C89.4564 26.57 89.2791 26.4953 89.1297 26.346C88.9897 26.1967 88.9197 26.0147 88.9197 25.8C88.9197 25.5853 88.9897 25.408 89.1297 25.268C89.2791 25.1187 89.4564 25.044 89.6617 25.044C89.8671 25.044 90.0444 25.1187 90.1937 25.268C90.3431 25.408 90.4177 25.5853 90.4177 25.8C90.4177 26.0147 90.3431 26.1967 90.1937 26.346C90.0444 26.4953 89.8671 26.57 89.6617 26.57ZM102.733 23.882H97.2726L96.0966 26.5H95.0186L99.4986 16.7H100.521L105.001 26.5H103.909L102.733 23.882ZM102.355 23.042L100.003 17.778L97.6506 23.042H102.355ZM115.485 20.018H112.699V26.5H111.705V20.018H108.919V19.136H115.485V20.018ZM119.456 19.08C120.417 19.08 121.154 19.3227 121.668 19.808C122.181 20.284 122.438 20.9933 122.438 21.936V26.5H121.486V25.352C121.262 25.7347 120.93 26.0333 120.492 26.248C120.062 26.4627 119.549 26.57 118.952 26.57C118.13 26.57 117.477 26.374 116.992 25.982C116.506 25.59 116.264 25.072 116.264 24.428C116.264 23.8027 116.488 23.2987 116.936 22.916C117.393 22.5333 118.116 22.342 119.106 22.342H121.444V21.894C121.444 21.2593 121.266 20.7787 120.912 20.452C120.557 20.116 120.039 19.948 119.358 19.948C118.891 19.948 118.443 20.0273 118.014 20.186C117.584 20.3353 117.216 20.5453 116.908 20.816L116.46 20.074C116.833 19.7567 117.281 19.514 117.804 19.346C118.326 19.1687 118.877 19.08 119.456 19.08ZM119.106 25.786C119.666 25.786 120.146 25.66 120.548 25.408C120.949 25.1467 121.248 24.7733 121.444 24.288V23.084H119.134C117.874 23.084 117.244 23.5227 117.244 24.4C117.244 24.8293 117.407 25.17 117.734 25.422C118.06 25.6647 118.518 25.786 119.106 25.786ZM127.758 23.224H126.078V26.5H125.084V19.136H126.078V22.37H127.772L130.362 19.136H131.44L128.542 22.706L131.65 26.5H130.474L127.758 23.224ZM28.934 36.136V43.5H27.94V37.018H24.412L24.314 38.838C24.2393 40.3687 24.062 41.5447 23.782 42.366C23.502 43.1873 23.0027 43.598 22.284 43.598C22.088 43.598 21.85 43.5607 21.57 43.486L21.64 42.632C21.808 42.6693 21.9247 42.688 21.99 42.688C22.3727 42.688 22.662 42.5107 22.858 42.156C23.054 41.8013 23.1847 41.3627 23.25 40.84C23.3153 40.3173 23.3713 39.6267 23.418 38.768L23.544 36.136H28.934ZM31.7597 36.136H32.7537V41.988L37.6677 36.136H38.5497V43.5H37.5557V37.648L32.6557 43.5H31.7597V36.136ZM47.0644 36.08C47.8018 36.08 48.4644 36.2433 49.0524 36.57C49.6498 36.8873 50.1164 37.3307 50.4524 37.9C50.7978 38.4693 50.9704 39.1087 50.9704 39.818C50.9704 40.5273 50.7978 41.1713 50.4524 41.75C50.1164 42.3193 49.6498 42.7673 49.0524 43.094C48.4644 43.4207 47.8018 43.584 47.0644 43.584C46.4484 43.584 45.8838 43.4907 45.3704 43.304C44.8571 43.108 44.4231 42.828 44.0684 42.464L44.6564 41.876C45.2818 42.464 46.0704 42.758 47.0224 42.758C47.5544 42.758 48.0351 42.646 48.4644 42.422C48.9031 42.198 49.2578 41.8853 49.5284 41.484C49.8084 41.0827 49.9718 40.6347 50.0184 40.14H46.0844V39.384H50.0044C49.9018 38.6467 49.5751 38.0493 49.0244 37.592C48.4738 37.1253 47.8064 36.892 47.0224 36.892C46.0704 36.892 45.2818 37.186 44.6564 37.774L44.0684 37.2C44.4231 36.836 44.8571 36.5607 45.3704 36.374C45.8838 36.178 46.4484 36.08 47.0644 36.08ZM61.9505 39.804C61.9505 40.952 61.5725 41.8527 60.8165 42.506C60.0605 43.1593 58.9918 43.514 57.6105 43.57V46.216H56.6445V43.584C55.2725 43.528 54.2085 43.1733 53.4525 42.52C52.7058 41.8573 52.3325 40.952 52.3325 39.804C52.3325 38.6653 52.7058 37.774 53.4525 37.13C54.2085 36.486 55.2725 36.136 56.6445 36.08V33.112H57.6105V36.08C58.9918 36.1453 60.0605 36.5 60.8165 37.144C61.5725 37.788 61.9505 38.6747 61.9505 39.804ZM53.3125 39.804C53.3125 40.6813 53.5925 41.3673 54.1525 41.862C54.7218 42.3567 55.5525 42.6367 56.6445 42.702V36.962C55.5618 37.018 54.7358 37.2933 54.1665 37.788C53.5972 38.2733 53.3125 38.9453 53.3125 39.804ZM57.6105 42.702C58.7025 42.646 59.5332 42.3707 60.1025 41.876C60.6812 41.3813 60.9705 40.6907 60.9705 39.804C60.9705 38.936 60.6812 38.2593 60.1025 37.774C59.5332 37.2887 58.7025 37.018 57.6105 36.962V42.702ZM72.9427 39.804C72.9427 40.952 72.5647 41.8527 71.8087 42.506C71.0527 43.1593 69.984 43.514 68.6027 43.57V46.216H67.6367V43.584C66.2647 43.528 65.2007 43.1733 64.4447 42.52C63.698 41.8573 63.3247 40.952 63.3247 39.804C63.3247 38.6653 63.698 37.774 64.4447 37.13C65.2007 36.486 66.2647 36.136 67.6367 36.08V33.112H68.6027V36.08C69.984 36.1453 71.0527 36.5 71.8087 37.144C72.5647 37.788 72.9427 38.6747 72.9427 39.804ZM64.3047 39.804C64.3047 40.6813 64.5847 41.3673 65.1447 41.862C65.714 42.3567 66.5447 42.6367 67.6367 42.702V36.962C66.554 37.018 65.728 37.2933 65.1587 37.788C64.5893 38.2733 64.3047 38.9453 64.3047 39.804ZM68.6027 42.702C69.6947 42.646 70.5253 42.3707 71.0947 41.876C71.6733 41.3813 71.9627 40.6907 71.9627 39.804C71.9627 38.936 71.6733 38.2593 71.0947 37.774C70.5253 37.2887 69.6947 37.018 68.6027 36.962V42.702ZM81.4849 40.126H75.3249C75.3809 40.8913 75.6749 41.512 76.2069 41.988C76.7389 42.4547 77.4109 42.688 78.2229 42.688C78.6802 42.688 79.1002 42.6087 79.4829 42.45C79.8655 42.282 80.1969 42.0393 80.4769 41.722L81.0369 42.366C80.7102 42.758 80.2995 43.0567 79.8049 43.262C79.3195 43.4673 78.7829 43.57 78.1949 43.57C77.4389 43.57 76.7669 43.4113 76.1789 43.094C75.6002 42.7673 75.1475 42.3193 74.8209 41.75C74.4942 41.1807 74.3309 40.5367 74.3309 39.818C74.3309 39.0993 74.4849 38.4553 74.7929 37.886C75.1102 37.3167 75.5395 36.8733 76.0809 36.556C76.6315 36.2387 77.2475 36.08 77.9289 36.08C78.6102 36.08 79.2215 36.2387 79.7629 36.556C80.3042 36.8733 80.7289 37.3167 81.0369 37.886C81.3449 38.446 81.4989 39.09 81.4989 39.818L81.4849 40.126ZM77.9289 36.934C77.2195 36.934 76.6222 37.1627 76.1369 37.62C75.6609 38.068 75.3902 38.656 75.3249 39.384H80.5469C80.4815 38.656 80.2062 38.068 79.7209 37.62C79.2449 37.1627 78.6475 36.934 77.9289 36.934ZM86.3732 40.224H84.6932V43.5H83.6992V36.136H84.6932V39.37H86.3872L88.9772 36.136H90.0552L87.1572 39.706L90.2652 43.5H89.0892L86.3732 40.224ZM96.8635 37.018H94.0775V43.5H93.0835V37.018H90.2975V36.136H96.8635V37.018ZM98.3007 36.136H99.2947V41.988L104.209 36.136H105.091V43.5H104.097V37.648L99.1967 43.5H98.3007V36.136ZM112.629 39.692C113.628 39.9253 114.127 40.5273 114.127 41.498C114.127 42.142 113.889 42.6367 113.413 42.982C112.937 43.3273 112.228 43.5 111.285 43.5H107.939V36.136H111.187C112.027 36.136 112.685 36.2993 113.161 36.626C113.637 36.9527 113.875 37.4193 113.875 38.026C113.875 38.4273 113.763 38.7727 113.539 39.062C113.325 39.342 113.021 39.552 112.629 39.692ZM108.905 39.412H111.117C111.687 39.412 112.121 39.3047 112.419 39.09C112.727 38.8753 112.881 38.5627 112.881 38.152C112.881 37.7413 112.727 37.4333 112.419 37.228C112.121 37.0227 111.687 36.92 111.117 36.92H108.905V39.412ZM111.243 42.716C111.878 42.716 112.354 42.6133 112.671 42.408C112.989 42.2027 113.147 41.8807 113.147 41.442C113.147 41.0033 113.003 40.6813 112.713 40.476C112.424 40.2613 111.967 40.154 111.341 40.154H108.905V42.716H111.243ZM116.457 36.136H117.451V39.398H122.085V36.136H123.079V43.5H122.085V40.252H117.451V43.5H116.457V36.136ZM128.998 38.74C129.922 38.7493 130.627 38.9547 131.112 39.356C131.598 39.7573 131.84 40.336 131.84 41.092C131.84 41.876 131.579 42.478 131.056 42.898C130.534 43.318 129.787 43.5233 128.816 43.514L125.904 43.5V36.136H126.898V38.712L128.998 38.74ZM133.072 36.136H134.066V43.5H133.072V36.136ZM128.76 42.758C129.442 42.7673 129.955 42.632 130.3 42.352C130.655 42.0627 130.832 41.6427 130.832 41.092C130.832 40.5507 130.66 40.1493 130.314 39.888C129.969 39.6267 129.451 39.4913 128.76 39.482L126.898 39.454V42.73L128.76 42.758ZM27.604 56.692C28.6027 56.9253 29.102 57.5273 29.102 58.498C29.102 59.142 28.864 59.6367 28.388 59.982C27.912 60.3273 27.2027 60.5 26.26 60.5H22.914V53.136H26.162C27.002 53.136 27.66 53.2993 28.136 53.626C28.612 53.9527 28.85 54.4193 28.85 55.026C28.85 55.4273 28.738 55.7727 28.514 56.062C28.2993 56.342 27.996 56.552 27.604 56.692ZM23.88 56.412H26.092C26.6613 56.412 27.0953 56.3047 27.394 56.09C27.702 55.8753 27.856 55.5627 27.856 55.152C27.856 54.7413 27.702 54.4333 27.394 54.228C27.0953 54.0227 26.6613 53.92 26.092 53.92H23.88V56.412ZM26.218 59.716C26.8527 59.716 27.3287 59.6133 27.646 59.408C27.9633 59.2027 28.122 58.8807 28.122 58.442C28.122 58.0033 27.9773 57.6813 27.688 57.476C27.3987 57.2613 26.9413 57.154 26.316 57.154H23.88V59.716H26.218ZM33.9656 53.08C34.9269 53.08 35.6642 53.3227 36.1776 53.808C36.6909 54.284 36.9476 54.9933 36.9476 55.936V60.5H35.9956V59.352C35.7716 59.7347 35.4402 60.0333 35.0016 60.248C34.5722 60.4627 34.0589 60.57 33.4616 60.57C32.6402 60.57 31.9869 60.374 31.5016 59.982C31.0162 59.59 30.7736 59.072 30.7736 58.428C30.7736 57.8027 30.9976 57.2987 31.4456 56.916C31.9029 56.5333 32.6262 56.342 33.6156 56.342H35.9536V55.894C35.9536 55.2593 35.7762 54.7787 35.4216 54.452C35.0669 54.116 34.5489 53.948 33.8676 53.948C33.4009 53.948 32.9529 54.0273 32.5236 54.186C32.0942 54.3353 31.7256 54.5453 31.4176 54.816L30.9696 54.074C31.3429 53.7567 31.7909 53.514 32.3136 53.346C32.8362 53.1687 33.3869 53.08 33.9656 53.08ZM33.6156 59.786C34.1756 59.786 34.6562 59.66 35.0576 59.408C35.4589 59.1467 35.7576 58.7733 35.9536 58.288V57.084H33.6436C32.3836 57.084 31.7536 57.5227 31.7536 58.4C31.7536 58.8293 31.9169 59.17 32.2436 59.422C32.5702 59.6647 33.0276 59.786 33.6156 59.786ZM49.7577 53.136V60.5H39.5937V53.136H40.5877V59.632H44.1997V53.136H45.1937V59.632H48.7637V53.136H49.7577ZM52.5956 53.136H53.5896V58.988L58.5036 53.136H59.3856V60.5H58.3916V54.648L53.4916 60.5H52.5956V53.136ZM65.8984 53.136H66.8924V58.988L71.8064 53.136H72.6884V60.5H71.6944V54.648L66.7944 60.5H65.8984V53.136ZM82.719 59.632V62.278H81.781V60.5H75.187V62.278H74.249V59.632H74.669C75.1637 59.604 75.4997 59.24 75.677 58.54C75.8544 57.84 75.9757 56.86 76.041 55.6L76.139 53.136H81.571V59.632H82.719ZM76.951 55.656C76.9044 56.7013 76.8157 57.5647 76.685 58.246C76.5544 58.918 76.321 59.38 75.985 59.632H80.577V54.018H77.035L76.951 55.656ZM91.0962 57.126H84.9362C84.9922 57.8913 85.2862 58.512 85.8182 58.988C86.3502 59.4547 87.0222 59.688 87.8342 59.688C88.2915 59.688 88.7115 59.6087 89.0942 59.45C89.4769 59.282 89.8082 59.0393 90.0882 58.722L90.6482 59.366C90.3215 59.758 89.9109 60.0567 89.4162 60.262C88.9309 60.4673 88.3942 60.57 87.8062 60.57C87.0502 60.57 86.3782 60.4113 85.7902 60.094C85.2115 59.7673 84.7589 59.3193 84.4322 58.75C84.1055 58.1807 83.9422 57.5367 83.9422 56.818C83.9422 56.0993 84.0962 55.4553 84.4042 54.886C84.7215 54.3167 85.1509 53.8733 85.6922 53.556C86.2429 53.2387 86.8589 53.08 87.5402 53.08C88.2215 53.08 88.8329 53.2387 89.3742 53.556C89.9155 53.8733 90.3402 54.3167 90.6482 54.886C90.9562 55.446 91.1102 56.09 91.1102 56.818L91.0962 57.126ZM87.5402 53.934C86.8309 53.934 86.2335 54.1627 85.7482 54.62C85.2722 55.068 85.0015 55.656 84.9362 56.384H90.1582C90.0929 55.656 89.8175 55.068 89.3322 54.62C88.8562 54.1627 88.2589 53.934 87.5402 53.934ZM93.3105 53.136H94.3045V58.988L99.2185 53.136H100.1V60.5H99.1065V54.648L94.2065 60.5H93.3105V53.136ZM104.962 57.56C104.962 57.1773 105.023 56.8413 105.144 56.552C105.275 56.2627 105.433 56.0153 105.62 55.81C105.807 55.6047 106.049 55.3713 106.348 55.11C106.749 54.7553 107.043 54.4473 107.23 54.186C107.426 53.9153 107.524 53.5887 107.524 53.206C107.524 52.6927 107.323 52.282 106.922 51.974C106.521 51.6567 105.97 51.498 105.27 51.498C104.113 51.498 103.221 51.876 102.596 52.632L101.854 52.072C102.647 51.1013 103.809 50.616 105.34 50.616C106.32 50.616 107.099 50.8353 107.678 51.274C108.266 51.7127 108.56 52.3053 108.56 53.052C108.56 53.4347 108.495 53.7753 108.364 54.074C108.243 54.3633 108.089 54.6107 107.902 54.816C107.725 55.0213 107.487 55.2593 107.188 55.53C106.787 55.894 106.488 56.2207 106.292 56.51C106.096 56.79 105.998 57.14 105.998 57.56H104.962ZM105.48 60.57C105.275 60.57 105.102 60.5 104.962 60.36C104.822 60.2107 104.752 60.038 104.752 59.842C104.752 59.6367 104.822 59.4687 104.962 59.338C105.102 59.198 105.275 59.128 105.48 59.128C105.695 59.128 105.872 59.198 106.012 59.338C106.152 59.4687 106.222 59.6367 106.222 59.842C106.222 60.038 106.147 60.2107 105.998 60.36C105.858 60.5 105.685 60.57 105.48 60.57Z" fill="#333E63"/>
<defs>
<filter id="filter0_d_507_4766" x="8" y="0" width="149" height="100" filterUnits="userSpaceOnUse" color-interpolation-filters="sRGB">
<feFlood flood-opacity="0" result="BackgroundImageFix"/>
<feColorMatrix in="SourceAlpha" type="matrix" values="0 0 0 0 0 0 0 0 0 0 0 0 0 0 0 0 0 0 127 0" result="hardAlpha"/>
<feOffset dx="5" dy="5"/>
<feComposite in2="hardAlpha" operator="out"/>
<feColorMatrix type="matrix" values="0 0 0 0 0.2 0 0 0 0 0.243137 0 0 0 0 0.388235 0 0 0 1 0"/>
<feBlend mode="normal" in2="BackgroundImageFix" result="effect1_dropShadow_507_4766"/>
<feBlend mode="normal" in="SourceGraphic" in2="effect1_dropShadow_507_4766" result="shape"/>
</filter>
<clipPath id="clip0_507_4766">
<rect width="163" height="302" fill="white" transform="translate(0 106)"/>
</clipPath>
</defs>
</svg>
