<svg width="528" height="616" viewBox="0 0 528 616" fill="none" xmlns="http://www.w3.org/2000/svg">
<path d="M222.448 582.513L227.959 587.703C227.959 587.703 251.507 603.945 252.676 605.619C253.845 607.293 253.511 609.303 252.342 611.144C251.34 612.484 250.004 613.489 248.333 614.326H198.399C198.399 614.326 196.562 612.819 197.23 606.624C197.898 600.596 198.9 591.889 198.9 591.889L222.448 582.513Z" fill="white" stroke="#263238" stroke-miterlimit="10"/>
<path d="M252.343 611.145C252.677 610.642 252.844 610.14 253.178 609.638H197.064C197.064 613.321 198.4 614.493 198.4 614.493H248.335C250.005 613.489 251.341 612.484 252.343 611.145Z" fill="white" stroke="#263238" stroke-miterlimit="10"/>
<path d="M77.6562 295.023L81.6643 455.93L92.3526 573.136L90.8496 576.82L90.5156 586.029C93.5216 586.866 96.5277 587.368 99.7008 587.201C106.047 587.201 118.739 591.554 118.739 591.554C118.739 591.554 122.413 568.113 123.081 556.895C123.749 545.676 131.766 407.374 131.766 407.374L136.943 356.808L141.786 355.636L169.675 499.631L199.402 591.889L222.783 582.345C222.783 582.345 223.952 575.313 223.952 573.136C223.952 571.127 221.113 564.429 221.113 564.429L210.424 436.34L191.72 295.693L77.6562 295.023Z" fill="#263238" stroke="#263238" stroke-miterlimit="10"/>
<path d="M93.1879 581.675L85.1717 594.902C85.1717 594.902 70.4753 606.456 69.3063 609.302C68.6383 610.976 68.9723 613.153 70.1413 614.493H117.236L118.405 591.721C118.572 591.721 101.037 581.34 93.1879 581.675Z" fill="white" stroke="#263238" stroke-miterlimit="10"/>
<path d="M117.571 609.47H69.1394C68.6383 611.144 68.9724 612.986 69.9744 614.325H117.07L117.571 609.47Z" fill="white" stroke="#263238" stroke-miterlimit="10"/>
<path d="M5.17676 615.163H330" stroke="#263238" stroke-miterlimit="10"/>
<path d="M197.064 199.752L246.498 248.309L266.037 237.091L209.423 126.75L197.064 199.752Z" fill="#B0BEC5" stroke="#263238" stroke-linecap="round" stroke-linejoin="round"/>
<path d="M233.639 260.866L263.699 262.206C268.376 259.024 271.382 254.001 272.05 248.476C273.052 238.932 262.196 230.393 262.196 230.393L236.979 242.783L233.639 260.866Z" fill="#B0BEC5" stroke="#263238" stroke-miterlimit="10"/>
<path d="M168.674 314.446L171.847 318.297L185.04 315.116L196.063 333.032L202.743 318.465L263.031 262.541C252.844 248.476 234.974 255.006 234.974 255.006L195.227 307.246L184.205 306.409L168.674 314.446Z" fill="white" stroke="#263238" stroke-linecap="round" stroke-linejoin="round"/>
<path d="M63.4611 134.284L6.84668 244.792L26.3862 256.011L75.8194 207.287L63.4611 134.284Z" fill="#B0BEC5" stroke="#263238" stroke-linecap="round" stroke-linejoin="round"/>
<path d="M113.729 114.192L63.2939 134.117C63.2939 134.117 77.4893 221.519 77.9903 237.426C78.4913 253.332 74.6502 295.861 77.9903 300.382C81.3304 304.903 89.8476 305.573 89.8476 305.573L193.223 305.07C193.223 305.07 202.074 300.717 198.567 284.643C196.563 275.769 200.738 205.78 201.907 191.046C203.076 176.311 209.756 126.415 209.756 126.415C209.756 126.415 167.838 114.527 156.482 112.853C145.293 110.844 122.079 108.667 113.729 114.192Z" fill="#B0BEC5" stroke="#263238" stroke-linecap="round" stroke-linejoin="round"/>
<path d="M142.788 252.662L148.8 247.974" stroke="#263238" stroke-linecap="round" stroke-linejoin="round"/>
<path d="M87.0088 295.526L136.108 257.853" stroke="#263238" stroke-linecap="round" stroke-linejoin="round"/>
<path d="M111.225 267.732L145.794 236.756" stroke="#263238" stroke-linecap="round" stroke-linejoin="round"/>
<path d="M36.0727 250.318L10.8551 237.928C10.8551 237.928 -0.167164 246.467 1.00186 256.011C1.66988 261.536 4.67595 266.559 9.35207 269.741L39.4128 268.401L36.0727 250.318Z" fill="#B0BEC5" stroke="#263238" stroke-miterlimit="10"/>
<path d="M89.3466 308.921L78.4913 310.428L35.5713 260.699C35.5713 260.699 17.3679 255.174 8.01562 269.908L71.6442 322.149L79.1594 336.213L89.0126 317.628L102.373 319.972L105.212 315.954L89.3466 308.921Z" fill="white" stroke="#263238" stroke-linecap="round" stroke-linejoin="round"/>
<path d="M123.583 105.151C123.583 105.151 114.899 110.509 114.231 112.853C113.73 114.862 113.229 116.871 113.062 118.88C113.062 118.88 116.903 165.93 118.573 165.093C120.243 164.256 134.104 147.68 136.943 144.833C139.782 141.987 144.458 141.652 145.46 142.656C146.462 143.661 164.833 168.442 166.503 164.926C168.006 161.409 165.501 125.076 161.326 115.699C156.817 105.988 128.092 101.3 123.583 105.151Z" fill="white" stroke="#263238" stroke-miterlimit="10"/>
<path d="M120.075 93.0947L121.745 119.55C121.745 119.55 133.603 159.065 141.285 157.39C148.967 155.716 158.987 118.21 159.154 117.206C159.488 116.201 160.323 101.299 160.323 101.299C160.323 101.299 160.991 105.652 144.792 101.634C136.275 99.9596 128.091 97.1132 120.075 93.0947Z" fill="white" stroke="#263238" stroke-miterlimit="10"/>
<path d="M121.412 118.211C127.09 119.885 137.779 122.229 145.294 117.541C151.139 113.857 156.149 108.667 159.656 102.807C158.487 103.644 154.813 104.481 144.96 101.802C136.276 99.7926 127.925 96.7788 119.909 92.9277L121.412 118.211Z" fill="#263238" stroke="#263238" stroke-miterlimit="10"/>
<path d="M169.343 71.3285C169.343 71.3285 170.178 85.0583 166.504 91.9232C162.829 98.7882 156.149 108.667 151.306 110.006C146.463 111.346 139.449 109.002 132.268 104.816C127.258 101.802 122.748 98.1184 118.573 94.0999C115.066 93.7651 111.559 92.2581 109.388 89.4117C105.547 84.7235 101.372 80.0352 103.376 75.5144C105.38 70.9936 106.549 69.989 106.549 69.989L107.551 62.1195C107.551 62.1195 105.046 48.7246 105.38 43.3666C105.714 38.0086 122.581 22.7718 133.771 21.4324C144.96 20.0929 155.481 29.4693 158.821 34.1575C162.161 38.8458 171.18 45.7107 171.013 48.0548C170.846 50.3989 169.343 71.3285 169.343 71.3285Z" fill="white" stroke="#263238" stroke-miterlimit="10"/>
<path d="M169.342 71.3276C169.342 71.3276 172.348 68.1463 174.185 69.6533C176.189 71.1602 177.191 78.5274 173.517 82.3785C172.014 84.3877 170.01 85.8946 168.006 87.2341C168.173 87.2341 169.843 73.1694 169.342 71.3276Z" fill="white" stroke="#263238" stroke-miterlimit="10"/>
<path d="M148.467 58.6025C148.467 58.6025 147.632 66.3046 148.133 67.4767C148.634 68.6487 154.813 71.9975 153.978 73.6719C153.143 75.3462 146.296 76.1834 146.296 76.1834" stroke="#263238" stroke-miterlimit="10"/>
<path d="M132.935 86.728C132.935 86.728 141.285 85.407 145.293 85.9093C149.301 86.4116 156.649 86.2257 157.985 84.7188" stroke="#263238" stroke-miterlimit="10"/>
<path d="M130.903 61.7909C131.272 63.4597 130.535 64.8504 129.429 64.9894C128.324 65.1285 127.218 63.8769 127.034 62.2081C126.85 60.5393 127.402 59.1487 128.508 59.0096C129.613 58.8706 130.719 60.2612 130.903 61.7909Z" fill="#263238"/>
<path d="M157.905 61.7914C158.268 63.46 157.542 64.8504 156.453 64.9894C155.364 65.1285 154.275 63.8771 154.093 62.2086C153.73 60.54 154.456 59.1496 155.545 59.0106C156.634 58.8715 157.723 60.1229 157.905 61.7914Z" fill="#263238"/>
<path d="M121.411 58.2543C124.751 55.7428 129.093 54.5707 133.268 55.2405" stroke="#263238" stroke-miterlimit="10"/>
<path d="M150.47 54.7421C153.81 52.398 158.319 52.7329 161.325 55.5793" stroke="#263238" stroke-miterlimit="10"/>
<path d="M128.927 26.7899C128.927 26.7899 119.073 41.6918 112.894 46.0451L106.715 50.3985C106.715 50.3985 110.222 71.3281 109.22 72.5001C108.218 73.6722 107.049 74.0071 106.882 72.1653C106.715 70.3234 106.381 68.6491 104.878 67.9793C103.542 67.3096 99.1999 64.9655 99.1999 64.9655L93.3548 44.8731C93.3548 44.8731 87.5097 37.5058 90.0147 31.9804C92.5198 26.6224 99.3669 17.4134 99.3669 17.4134C99.3669 17.4134 96.1939 15.9065 97.8639 13.5624C99.5339 11.2183 114.898 12.8926 114.898 12.8926C114.898 12.8926 117.236 5.52541 121.912 5.0231C126.589 4.52079 126.589 6.02772 126.589 6.02772C126.589 6.02772 144.959 -0.334877 154.979 1.00462C165 2.34411 192.388 30.9758 189.048 33.9897C185.708 37.0035 174.853 38.1756 174.853 38.1756C174.853 38.1756 171.179 66.6398 170.01 66.9747L168.674 67.3096L167.004 41.8592C166.837 41.8592 136.442 33.8222 128.927 26.7899Z" fill="#263238" stroke="#263238" stroke-miterlimit="10"/>
<g filter="url(#filter0_d_1111_2758)">
<path d="M239 100.587L288.036 126.082V164.752C288.036 169.876 292.194 174.023 297.329 174.023H512.706C517.842 174.023 522 169.876 522 164.752V91.2945C522 86.171 517.842 82.0234 512.706 82.0234H297.452C292.316 82.0234 288.158 86.171 288.158 91.2945V111.81L239 100.587Z" fill="white"/>
<path d="M238.769 101.03C238.546 100.914 238.444 100.65 238.531 100.414C238.617 100.178 238.866 100.043 239.111 100.099L287.658 111.183V91.2945C287.658 85.8937 292.041 81.5234 297.452 81.5234H512.706C518.117 81.5234 522.5 85.8937 522.5 91.2945V164.752C522.5 170.153 518.117 174.523 512.706 174.523H297.329C291.919 174.523 287.536 170.153 287.536 164.752V126.386L238.769 101.03Z" stroke="#333E63" stroke-linecap="round" stroke-linejoin="round"/>
</g>
<path d="M310.25 100.422L313.832 105.408L317.396 100.422H318.962L314.66 106.47L319.304 113.022H317.738L313.832 107.604L309.926 113.022H308.396L313.022 106.524L308.72 100.422H310.25ZM324.886 113.112C323.974 113.112 323.152 112.908 322.42 112.5C321.688 112.08 321.112 111.504 320.692 110.772C320.272 110.04 320.062 109.212 320.062 108.288C320.062 107.364 320.272 106.536 320.692 105.804C321.112 105.072 321.688 104.502 322.42 104.094C323.152 103.686 323.974 103.482 324.886 103.482C325.798 103.482 326.62 103.686 327.352 104.094C328.084 104.502 328.654 105.072 329.062 105.804C329.482 106.536 329.692 107.364 329.692 108.288C329.692 109.212 329.482 110.04 329.062 110.772C328.654 111.504 328.084 112.08 327.352 112.5C326.62 112.908 325.798 113.112 324.886 113.112ZM324.886 111.978C325.558 111.978 326.158 111.828 326.686 111.528C327.226 111.216 327.646 110.778 327.946 110.214C328.246 109.65 328.396 109.008 328.396 108.288C328.396 107.568 328.246 106.926 327.946 106.362C327.646 105.798 327.226 105.366 326.686 105.066C326.158 104.754 325.558 104.598 324.886 104.598C324.214 104.598 323.608 104.754 323.068 105.066C322.54 105.366 322.12 105.798 321.808 106.362C321.508 106.926 321.358 107.568 321.358 108.288C321.358 109.008 321.508 109.65 321.808 110.214C322.12 110.778 322.54 111.216 323.068 111.528C323.608 111.828 324.214 111.978 324.886 111.978ZM337.301 103.482C338.189 103.482 338.993 103.686 339.713 104.094C340.433 104.49 340.997 105.054 341.405 105.786C341.813 106.518 342.017 107.352 342.017 108.288C342.017 109.236 341.813 110.076 341.405 110.808C340.997 111.54 340.433 112.11 339.713 112.518C339.005 112.914 338.201 113.112 337.301 113.112C336.533 113.112 335.837 112.956 335.213 112.644C334.601 112.32 334.097 111.852 333.701 111.24V116.514H332.423V103.554H333.647V105.426C334.031 104.802 334.535 104.322 335.159 103.986C335.795 103.65 336.509 103.482 337.301 103.482ZM337.211 111.978C337.871 111.978 338.471 111.828 339.011 111.528C339.551 111.216 339.971 110.778 340.271 110.214C340.583 109.65 340.739 109.008 340.739 108.288C340.739 107.568 340.583 106.932 340.271 106.38C339.971 105.816 339.551 105.378 339.011 105.066C338.471 104.754 337.871 104.598 337.211 104.598C336.539 104.598 335.933 104.754 335.393 105.066C334.865 105.378 334.445 105.816 334.133 106.38C333.833 106.932 333.683 107.568 333.683 108.288C333.683 109.008 333.833 109.65 334.133 110.214C334.445 110.778 334.865 111.216 335.393 111.528C335.933 111.828 336.539 111.978 337.211 111.978ZM348.669 113.112C347.757 113.112 346.935 112.908 346.203 112.5C345.471 112.08 344.895 111.504 344.475 110.772C344.055 110.04 343.845 109.212 343.845 108.288C343.845 107.364 344.055 106.536 344.475 105.804C344.895 105.072 345.471 104.502 346.203 104.094C346.935 103.686 347.757 103.482 348.669 103.482C349.581 103.482 350.403 103.686 351.135 104.094C351.867 104.502 352.437 105.072 352.845 105.804C353.265 106.536 353.475 107.364 353.475 108.288C353.475 109.212 353.265 110.04 352.845 110.772C352.437 111.504 351.867 112.08 351.135 112.5C350.403 112.908 349.581 113.112 348.669 113.112ZM348.669 111.978C349.341 111.978 349.941 111.828 350.469 111.528C351.009 111.216 351.429 110.778 351.729 110.214C352.029 109.65 352.179 109.008 352.179 108.288C352.179 107.568 352.029 106.926 351.729 106.362C351.429 105.798 351.009 105.366 350.469 105.066C349.941 104.754 349.341 104.598 348.669 104.598C347.997 104.598 347.391 104.754 346.851 105.066C346.323 105.366 345.903 105.798 345.591 106.362C345.291 106.926 345.141 107.568 345.141 108.288C345.141 109.008 345.291 109.65 345.591 110.214C345.903 110.778 346.323 111.216 346.851 111.528C347.391 111.828 347.997 111.978 348.669 111.978ZM369.275 103.554V113.022H356.207V103.554H357.485V111.906H362.129V103.554H363.407V111.906H367.997V103.554H369.275ZM376.829 113.112C375.917 113.112 375.095 112.908 374.363 112.5C373.631 112.08 373.055 111.504 372.635 110.772C372.215 110.04 372.005 109.212 372.005 108.288C372.005 107.364 372.215 106.536 372.635 105.804C373.055 105.072 373.631 104.502 374.363 104.094C375.095 103.686 375.917 103.482 376.829 103.482C377.741 103.482 378.563 103.686 379.295 104.094C380.027 104.502 380.597 105.072 381.005 105.804C381.425 106.536 381.635 107.364 381.635 108.288C381.635 109.212 381.425 110.04 381.005 110.772C380.597 111.504 380.027 112.08 379.295 112.5C378.563 112.908 377.741 113.112 376.829 113.112ZM376.829 111.978C377.501 111.978 378.101 111.828 378.629 111.528C379.169 111.216 379.589 110.778 379.889 110.214C380.189 109.65 380.339 109.008 380.339 108.288C380.339 107.568 380.189 106.926 379.889 106.362C379.589 105.798 379.169 105.366 378.629 105.066C378.101 104.754 377.501 104.598 376.829 104.598C376.157 104.598 375.551 104.754 375.011 105.066C374.483 105.366 374.063 105.798 373.751 106.362C373.451 106.926 373.301 107.568 373.301 108.288C373.301 109.008 373.451 109.65 373.751 110.214C374.063 110.778 374.483 111.216 375.011 111.528C375.551 111.828 376.157 111.978 376.829 111.978ZM384.193 113.112C383.929 113.112 383.701 113.016 383.509 112.824C383.329 112.632 383.239 112.398 383.239 112.122C383.239 111.846 383.329 111.618 383.509 111.438C383.701 111.246 383.929 111.15 384.193 111.15C384.457 111.15 384.685 111.246 384.877 111.438C385.069 111.618 385.165 111.846 385.165 112.122C385.165 112.398 385.069 112.632 384.877 112.824C384.685 113.016 384.457 113.112 384.193 113.112ZM388.008 113.112C387.744 113.112 387.516 113.016 387.324 112.824C387.144 112.632 387.054 112.398 387.054 112.122C387.054 111.846 387.144 111.618 387.324 111.438C387.516 111.246 387.744 111.15 388.008 111.15C388.272 111.15 388.5 111.246 388.692 111.438C388.884 111.618 388.98 111.846 388.98 112.122C388.98 112.398 388.884 112.632 388.692 112.824C388.5 113.016 388.272 113.112 388.008 113.112ZM391.822 113.112C391.558 113.112 391.33 113.016 391.138 112.824C390.958 112.632 390.868 112.398 390.868 112.122C390.868 111.846 390.958 111.618 391.138 111.438C391.33 111.246 391.558 111.15 391.822 111.15C392.086 111.15 392.314 111.246 392.506 111.438C392.698 111.618 392.794 111.846 392.794 112.122C392.794 112.398 392.698 112.632 392.506 112.824C392.314 113.016 392.086 113.112 391.822 113.112ZM395.637 113.112C395.373 113.112 395.145 113.016 394.953 112.824C394.773 112.632 394.683 112.398 394.683 112.122C394.683 111.846 394.773 111.618 394.953 111.438C395.145 111.246 395.373 111.15 395.637 111.15C395.901 111.15 396.129 111.246 396.321 111.438C396.513 111.618 396.609 111.846 396.609 112.122C396.609 112.398 396.513 112.632 396.321 112.824C396.129 113.016 395.901 113.112 395.637 113.112ZM318.188 131.656H311.168L309.656 135.022H308.27L314.03 122.422H315.344L321.104 135.022H319.7L318.188 131.656ZM317.702 130.576L314.678 123.808L311.654 130.576H317.702ZM334.583 126.688H331.001V135.022H329.723V126.688H326.141V125.554H334.583V126.688ZM339.689 125.482C340.925 125.482 341.873 125.794 342.533 126.418C343.193 127.03 343.523 127.942 343.523 129.154V135.022H342.299V133.546C342.011 134.038 341.585 134.422 341.021 134.698C340.469 134.974 339.809 135.112 339.041 135.112C337.985 135.112 337.145 134.86 336.521 134.356C335.897 133.852 335.585 133.186 335.585 132.358C335.585 131.554 335.873 130.906 336.449 130.414C337.037 129.922 337.967 129.676 339.239 129.676H342.245V129.1C342.245 128.284 342.017 127.666 341.561 127.246C341.105 126.814 340.439 126.598 339.563 126.598C338.963 126.598 338.387 126.7 337.835 126.904C337.283 127.096 336.809 127.366 336.413 127.714L335.837 126.76C336.317 126.352 336.893 126.04 337.565 125.824C338.237 125.596 338.945 125.482 339.689 125.482ZM339.239 134.104C339.959 134.104 340.577 133.942 341.093 133.618C341.609 133.282 341.993 132.802 342.245 132.178V130.63H339.275C337.655 130.63 336.845 131.194 336.845 132.322C336.845 132.874 337.055 133.312 337.475 133.636C337.895 133.948 338.483 134.104 339.239 134.104ZM350.363 130.81H348.203V135.022H346.925V125.554H348.203V129.712H350.381L353.711 125.554H355.097L351.371 130.144L355.367 135.022H353.855L350.363 130.81ZM369.835 125.554V135.022H368.557V126.688H364.021L363.895 129.028C363.799 130.996 363.571 132.508 363.211 133.564C362.851 134.62 362.209 135.148 361.285 135.148C361.033 135.148 360.727 135.1 360.367 135.004L360.457 133.906C360.673 133.954 360.823 133.978 360.907 133.978C361.399 133.978 361.771 133.75 362.023 133.294C362.275 132.838 362.443 132.274 362.527 131.602C362.611 130.93 362.683 130.042 362.743 128.938L362.905 125.554H369.835ZM373.468 125.554H374.746V133.078L381.064 125.554H382.198V135.022H380.92V127.498L374.62 135.022H373.468V125.554ZM393.146 125.482C394.094 125.482 394.946 125.692 395.702 126.112C396.47 126.52 397.07 127.09 397.502 127.822C397.946 128.554 398.168 129.376 398.168 130.288C398.168 131.2 397.946 132.028 397.502 132.772C397.07 133.504 396.47 134.08 395.702 134.5C394.946 134.92 394.094 135.13 393.146 135.13C392.354 135.13 391.628 135.01 390.968 134.77C390.308 134.518 389.75 134.158 389.294 133.69L390.05 132.934C390.854 133.69 391.868 134.068 393.092 134.068C393.776 134.068 394.394 133.924 394.946 133.636C395.51 133.348 395.966 132.946 396.314 132.43C396.674 131.914 396.884 131.338 396.944 130.702H391.886V129.73H396.926C396.794 128.782 396.374 128.014 395.666 127.426C394.958 126.826 394.1 126.526 393.092 126.526C391.868 126.526 390.854 126.904 390.05 127.66L389.294 126.922C389.75 126.454 390.308 126.1 390.968 125.86C391.628 125.608 392.354 125.482 393.146 125.482ZM412.285 130.27C412.285 131.746 411.799 132.904 410.827 133.744C409.855 134.584 408.481 135.04 406.705 135.112V138.514H405.463V135.13C403.699 135.058 402.331 134.602 401.359 133.762C400.399 132.91 399.919 131.746 399.919 130.27C399.919 128.806 400.399 127.66 401.359 126.832C402.331 126.004 403.699 125.554 405.463 125.482V121.666H406.705V125.482C408.481 125.566 409.855 126.022 410.827 126.85C411.799 127.678 412.285 128.818 412.285 130.27ZM401.179 130.27C401.179 131.398 401.539 132.28 402.259 132.916C402.991 133.552 404.059 133.912 405.463 133.996V126.616C404.071 126.688 403.009 127.042 402.277 127.678C401.545 128.302 401.179 129.166 401.179 130.27ZM406.705 133.996C408.109 133.924 409.177 133.57 409.909 132.934C410.653 132.298 411.025 131.41 411.025 130.27C411.025 129.154 410.653 128.284 409.909 127.66C409.177 127.036 408.109 126.688 406.705 126.616V133.996ZM426.418 130.27C426.418 131.746 425.932 132.904 424.96 133.744C423.988 134.584 422.614 135.04 420.838 135.112V138.514H419.596V135.13C417.832 135.058 416.464 134.602 415.492 133.762C414.532 132.91 414.052 131.746 414.052 130.27C414.052 128.806 414.532 127.66 415.492 126.832C416.464 126.004 417.832 125.554 419.596 125.482V121.666H420.838V125.482C422.614 125.566 423.988 126.022 424.96 126.85C425.932 127.678 426.418 128.818 426.418 130.27ZM415.312 130.27C415.312 131.398 415.672 132.28 416.392 132.916C417.124 133.552 418.192 133.912 419.596 133.996V126.616C418.204 126.688 417.142 127.042 416.41 127.678C415.678 128.302 415.312 129.166 415.312 130.27ZM420.838 133.996C422.242 133.924 423.31 133.57 424.042 132.934C424.786 132.298 425.158 131.41 425.158 130.27C425.158 129.154 424.786 128.284 424.042 127.66C423.31 127.036 422.242 126.688 420.838 126.616V133.996ZM437.401 130.684H429.481C429.553 131.668 429.931 132.466 430.615 133.078C431.299 133.678 432.163 133.978 433.207 133.978C433.795 133.978 434.335 133.876 434.827 133.672C435.319 133.456 435.745 133.144 436.105 132.736L436.825 133.564C436.405 134.068 435.877 134.452 435.241 134.716C434.617 134.98 433.927 135.112 433.171 135.112C432.199 135.112 431.335 134.908 430.579 134.5C429.835 134.08 429.253 133.504 428.833 132.772C428.413 132.04 428.203 131.212 428.203 130.288C428.203 129.364 428.401 128.536 428.797 127.804C429.205 127.072 429.757 126.502 430.453 126.094C431.161 125.686 431.953 125.482 432.829 125.482C433.705 125.482 434.491 125.686 435.187 126.094C435.883 126.502 436.429 127.072 436.825 127.804C437.221 128.524 437.419 129.352 437.419 130.288L437.401 130.684ZM432.829 126.58C431.917 126.58 431.149 126.874 430.525 127.462C429.913 128.038 429.565 128.794 429.481 129.73H436.195C436.111 128.794 435.757 128.038 435.133 127.462C434.521 126.874 433.753 126.58 432.829 126.58ZM443.686 130.81H441.526V135.022H440.248V125.554H441.526V129.712H443.704L447.034 125.554H448.42L444.694 130.144L448.69 135.022H447.178L443.686 130.81ZM457.173 126.688H453.591V135.022H452.313V126.688H448.731V125.554H457.173V126.688ZM459.021 125.554H460.299V133.078L466.617 125.554H467.751V135.022H466.473V127.498L460.173 135.022H459.021V125.554ZM477.444 130.126C478.728 130.426 479.37 131.2 479.37 132.448C479.37 133.276 479.064 133.912 478.452 134.356C477.84 134.8 476.928 135.022 475.716 135.022H471.414V125.554H475.59C476.67 125.554 477.516 125.764 478.128 126.184C478.74 126.604 479.046 127.204 479.046 127.984C479.046 128.5 478.902 128.944 478.614 129.316C478.338 129.676 477.948 129.946 477.444 130.126ZM472.656 129.766H475.5C476.232 129.766 476.79 129.628 477.174 129.352C477.57 129.076 477.768 128.674 477.768 128.146C477.768 127.618 477.57 127.222 477.174 126.958C476.79 126.694 476.232 126.562 475.5 126.562H472.656V129.766ZM475.662 134.014C476.478 134.014 477.09 133.882 477.498 133.618C477.906 133.354 478.11 132.94 478.11 132.376C478.11 131.812 477.924 131.398 477.552 131.134C477.18 130.858 476.592 130.72 475.788 130.72H472.656V134.014H475.662ZM482.365 125.554H483.643V129.748H489.601V125.554H490.879V135.022H489.601V130.846H483.643V135.022H482.365V125.554ZM498.489 128.902C499.677 128.914 500.583 129.178 501.207 129.694C501.831 130.21 502.143 130.954 502.143 131.926C502.143 132.934 501.807 133.708 501.135 134.248C500.463 134.788 499.503 135.052 498.255 135.04L494.511 135.022V125.554H495.789V128.866L498.489 128.902ZM503.727 125.554H505.005V135.022H503.727V125.554ZM498.183 134.068C499.059 134.08 499.719 133.906 500.163 133.546C500.619 133.174 500.847 132.634 500.847 131.926C500.847 131.23 500.625 130.714 500.181 130.378C499.737 130.042 499.071 129.868 498.183 129.856L495.789 129.82V134.032L498.183 134.068ZM315.848 152.126C317.132 152.426 317.774 153.2 317.774 154.448C317.774 155.276 317.468 155.912 316.856 156.356C316.244 156.8 315.332 157.022 314.12 157.022H309.818V147.554H313.994C315.074 147.554 315.92 147.764 316.532 148.184C317.144 148.604 317.45 149.204 317.45 149.984C317.45 150.5 317.306 150.944 317.018 151.316C316.742 151.676 316.352 151.946 315.848 152.126ZM311.06 151.766H313.904C314.636 151.766 315.194 151.628 315.578 151.352C315.974 151.076 316.172 150.674 316.172 150.146C316.172 149.618 315.974 149.222 315.578 148.958C315.194 148.694 314.636 148.562 313.904 148.562H311.06V151.766ZM314.066 156.014C314.882 156.014 315.494 155.882 315.902 155.618C316.31 155.354 316.514 154.94 316.514 154.376C316.514 153.812 316.328 153.398 315.956 153.134C315.584 152.858 314.996 152.72 314.192 152.72H311.06V156.014H314.066ZM324.027 147.482C325.263 147.482 326.211 147.794 326.871 148.418C327.531 149.03 327.861 149.942 327.861 151.154V157.022H326.637V155.546C326.349 156.038 325.923 156.422 325.359 156.698C324.807 156.974 324.147 157.112 323.379 157.112C322.323 157.112 321.483 156.86 320.859 156.356C320.235 155.852 319.923 155.186 319.923 154.358C319.923 153.554 320.211 152.906 320.787 152.414C321.375 151.922 322.305 151.676 323.577 151.676H326.583V151.1C326.583 150.284 326.355 149.666 325.899 149.246C325.443 148.814 324.777 148.598 323.901 148.598C323.301 148.598 322.725 148.7 322.173 148.904C321.621 149.096 321.147 149.366 320.751 149.714L320.175 148.76C320.655 148.352 321.231 148.04 321.903 147.824C322.575 147.596 323.283 147.482 324.027 147.482ZM323.577 156.104C324.297 156.104 324.915 155.942 325.431 155.618C325.947 155.282 326.331 154.802 326.583 154.178V152.63H323.613C321.993 152.63 321.183 153.194 321.183 154.322C321.183 154.874 321.393 155.312 321.813 155.636C322.233 155.948 322.821 156.104 323.577 156.104ZM344.331 147.554V157.022H331.263V147.554H332.541V155.906H337.185V147.554H338.463V155.906H343.053V147.554H344.331ZM347.98 147.554H349.258V155.078L355.576 147.554H356.71V157.022H355.432V149.498L349.132 157.022H347.98V147.554ZM365.084 147.554H366.362V155.078L372.68 147.554H373.814V157.022H372.536V149.498L366.236 157.022H365.084V147.554ZM386.71 155.906V159.308H385.504V157.022H377.026V159.308H375.82V155.906H376.36C376.996 155.87 377.428 155.402 377.656 154.502C377.884 153.602 378.04 152.342 378.124 150.722L378.25 147.554H385.234V155.906H386.71ZM379.294 150.794C379.234 152.138 379.12 153.248 378.952 154.124C378.784 154.988 378.484 155.582 378.052 155.906H383.956V148.688H379.402L379.294 150.794ZM397.481 152.684H389.561C389.633 153.668 390.011 154.466 390.695 155.078C391.379 155.678 392.243 155.978 393.287 155.978C393.875 155.978 394.415 155.876 394.907 155.672C395.399 155.456 395.825 155.144 396.185 154.736L396.905 155.564C396.485 156.068 395.957 156.452 395.321 156.716C394.697 156.98 394.007 157.112 393.251 157.112C392.279 157.112 391.415 156.908 390.659 156.5C389.915 156.08 389.333 155.504 388.913 154.772C388.493 154.04 388.283 153.212 388.283 152.288C388.283 151.364 388.481 150.536 388.877 149.804C389.285 149.072 389.837 148.502 390.533 148.094C391.241 147.686 392.033 147.482 392.909 147.482C393.785 147.482 394.571 147.686 395.267 148.094C395.963 148.502 396.509 149.072 396.905 149.804C397.301 150.524 397.499 151.352 397.499 152.288L397.481 152.684ZM392.909 148.58C391.997 148.58 391.229 148.874 390.605 149.462C389.993 150.038 389.645 150.794 389.561 151.73H396.275C396.191 150.794 395.837 150.038 395.213 149.462C394.601 148.874 393.833 148.58 392.909 148.58ZM400.328 147.554H401.606V155.078L407.924 147.554H409.058V157.022H407.78V149.498L401.48 157.022H400.328V147.554ZM415.308 153.242C415.308 152.75 415.386 152.318 415.542 151.946C415.71 151.574 415.914 151.256 416.154 150.992C416.394 150.728 416.706 150.428 417.09 150.092C417.606 149.636 417.984 149.24 418.224 148.904C418.476 148.556 418.602 148.136 418.602 147.644C418.602 146.984 418.344 146.456 417.828 146.06C417.312 145.652 416.604 145.448 415.704 145.448C414.216 145.448 413.07 145.934 412.266 146.906L411.312 146.186C412.332 144.938 413.826 144.314 415.794 144.314C417.054 144.314 418.056 144.596 418.8 145.16C419.556 145.724 419.934 146.486 419.934 147.446C419.934 147.938 419.85 148.376 419.682 148.76C419.526 149.132 419.328 149.45 419.088 149.714C418.86 149.978 418.554 150.284 418.17 150.632C417.654 151.1 417.27 151.52 417.018 151.892C416.766 152.252 416.64 152.702 416.64 153.242H415.308ZM415.974 157.112C415.71 157.112 415.488 157.022 415.308 156.842C415.128 156.65 415.038 156.428 415.038 156.176C415.038 155.912 415.128 155.696 415.308 155.528C415.488 155.348 415.71 155.258 415.974 155.258C416.25 155.258 416.478 155.348 416.658 155.528C416.838 155.696 416.928 155.912 416.928 156.176C416.928 156.428 416.832 156.65 416.64 156.842C416.46 157.022 416.238 157.112 415.974 157.112Z" fill="#333E63"/>
<defs>
<filter id="filter0_d_1111_2758" x="238" y="81.0234" width="290" height="99" filterUnits="userSpaceOnUse" color-interpolation-filters="sRGB">
<feFlood flood-opacity="0" result="BackgroundImageFix"/>
<feColorMatrix in="SourceAlpha" type="matrix" values="0 0 0 0 0 0 0 0 0 0 0 0 0 0 0 0 0 0 127 0" result="hardAlpha"/>
<feOffset dx="5" dy="5"/>
<feComposite in2="hardAlpha" operator="out"/>
<feColorMatrix type="matrix" values="0 0 0 0 0.2 0 0 0 0 0.243137 0 0 0 0 0.388235 0 0 0 1 0"/>
<feBlend mode="normal" in2="BackgroundImageFix" result="effect1_dropShadow_1111_2758"/>
<feBlend mode="normal" in="SourceGraphic" in2="effect1_dropShadow_1111_2758" result="shape"/>
</filter>
</defs>
</svg>
