<svg width="222" height="295" viewBox="0 0 222 295" fill="none" xmlns="http://www.w3.org/2000/svg">
<g clip-path="url(#clip0_503_4761)">
<path d="M172.969 227.549L178.399 213.773L188.442 219.878L179.419 236.517L172.969 227.549Z" fill="white" stroke="#263238" stroke-linecap="round" stroke-linejoin="round"/>
<path d="M59.7866 125.091C59.7866 125.091 62.8538 124.449 67.2164 123.105" stroke="#7F7F7F" stroke-width="0.75" stroke-linecap="round" stroke-linejoin="round"/>
<path d="M55.5278 167.798L59.3048 160.038C59.3048 160.038 70.1579 156.211 71.6481 154.178C73.1382 152.146 73.2253 148.306 76.6487 146.465C80.072 144.624 75.4826 143.072 72.2718 145.211C69.0781 147.405 66.31 150.981 65.8108 147.201C65.3115 143.421 61.3826 137.732 61.9173 136.72C62.4521 135.708 68.0921 139.296 69.9007 136.924C71.7093 134.551 67.0435 133.144 63.9326 131.681C60.8218 130.219 60.3584 129.696 58.7146 130.444C57.0708 131.192 54.3395 132.336 55.8618 134.53C54.6381 134.483 53.5636 135.117 52.9184 136.163C52.9184 136.163 49.8466 136.201 49.032 138.268C49.032 138.268 46.0795 138.693 45.6772 141.117C45.2749 143.54 50.7951 153.218 50.189 155.765C49.5189 157.908 48.5769 159.953 47.3288 161.79L55.5278 167.798Z" fill="white" stroke="#263238" stroke-linecap="round" stroke-linejoin="round"/>
<path d="M58.884 151.997C60.4763 150.297 62.6553 149.323 64.9962 149.268" stroke="#263238" stroke-width="0.75" stroke-linecap="round" stroke-linejoin="round"/>
<path d="M58.6064 134.411C58.6064 134.411 58.5429 134.794 60.57 135.682" stroke="#263238" stroke-width="0.75" stroke-linecap="round" stroke-linejoin="round"/>
<path d="M58.2678 136.452C58.2678 136.452 63.5594 140.087 62.5106 141.197C61.1604 142.702 57.9046 140.377 54.7809 138.676C54.7809 138.676 61.6827 142.239 60.0946 143.757C58.5617 145.258 54.0643 141.257 51.502 140.594C51.502 140.594 57.3118 143.948 56.2083 145.862C54.9519 148.064 51.6134 142.133 49.8729 144.727" stroke="#263238" stroke-width="0.75" stroke-linecap="round" stroke-linejoin="round"/>
<path d="M98.8751 165.038C98.8751 165.038 88.5493 169.792 83.0886 175.226C80.5221 174.745 78.0334 176.48 77.5547 179.049C77.5547 179.049 63.593 185.346 47.3173 194.535C47.3173 194.535 50.3045 187.745 58.3942 165.523C58.3942 165.523 51.093 161.841 47.7848 156.99C47.7848 156.99 21.3274 208.108 27.4666 215.477C34.8004 224.172 89.0195 197.426 89.0195 197.426C89.0195 197.426 104.907 231.144 115.352 249.351C125.742 267.575 126.176 269.378 126.176 269.378C126.176 269.378 143.291 270.763 175.309 250.068C170.694 225.466 164.112 201.349 155.542 177.843C155.542 177.843 175.426 185.276 183.411 187.839C183.411 187.839 177.223 206.812 173.994 221.847C173.994 221.847 179.738 222.438 185.469 228.48C185.469 228.48 206.36 185.007 200.951 176.869C195.543 168.731 148.122 151.2 148.122 151.2C148.122 151.2 146.144 146.544 141.302 150.456C133.983 151.622 126.757 153.484 119.807 156.048L106.998 163.928L98.8751 165.038Z" fill="#B0BEC5"/>
<path opacity="0.3" d="M169.765 235.012C169.765 235.012 164.003 240.841 168.51 246.05C173.016 251.259 151.285 267.272 128.929 253.581C106.573 239.89 89.1105 185.354 84.1653 185.788C79.2201 186.222 85.143 194.262 65.0216 202.154C44.9002 210.047 47.0706 201.389 43.0895 201.224C39.1084 201.058 35.3333 211.964 30.4691 212.857C28.6338 213.181 27.4351 212.037 26.6864 210.391C26.505 212.747 26.7015 214.563 27.539 215.515C34.8728 224.21 89.0918 197.464 89.0918 197.464C89.0918 197.464 104.98 231.182 115.424 249.389C125.869 267.596 126.249 269.416 126.249 269.416C126.249 269.416 143.363 270.802 175.382 250.106C175.382 250.106 174.61 245.442 172.868 237.627L169.765 235.012Z" fill="black"/>
<path opacity="0.3" d="M184.475 177.163C180.983 169.947 177.048 176.606 173.94 179.076C170.848 181.602 157.734 169.845 153.312 170.602C148.89 171.359 155.542 177.843 155.542 177.843C155.542 177.843 175.426 185.276 183.411 187.839C183.411 187.839 182.546 190.527 181.227 194.685C184.934 183.558 187.619 183.638 184.475 177.163Z" fill="black"/>
<path d="M98.8751 165.038C98.8751 165.038 88.5493 169.792 83.0886 175.226C80.5221 174.745 78.0334 176.48 77.5547 179.049C77.5547 179.049 63.593 185.346 47.3173 194.535C47.3173 194.535 50.3045 187.745 58.3942 165.523C58.3942 165.523 51.093 161.841 47.7848 156.99C47.7848 156.99 21.3274 208.108 27.4666 215.477C34.8004 224.172 89.0194 197.426 89.0194 197.426C89.0194 197.426 104.907 231.144 115.352 249.351C125.742 267.575 126.176 269.378 126.176 269.378C126.176 269.378 143.291 270.763 175.309 250.068C170.694 225.466 164.112 201.349 155.542 177.843C155.542 177.843 175.426 185.276 183.411 187.839C183.411 187.839 177.223 206.812 173.994 221.847C173.994 221.847 179.738 222.438 185.469 228.48C185.469 228.48 206.36 185.007 200.951 176.869C195.543 168.731 148.122 151.2 148.122 151.2C148.122 151.2 146.144 146.544 141.302 150.456C133.983 151.622 126.757 153.484 119.807 156.048L106.998 163.928L98.8751 165.038Z" stroke="#263238" stroke-linecap="round" stroke-linejoin="round"/>
<path d="M82.6387 182.99C82.6387 182.99 84.3703 187.238 87.348 193.765" stroke="#263238" stroke-width="0.75" stroke-linecap="round" stroke-linejoin="round"/>
<path d="M150.966 175.743C146.89 174.093 145.472 167.328 145.018 162.324" stroke="#263238" stroke-width="0.75" stroke-linecap="round" stroke-linejoin="round"/>
<path d="M144.798 156.703C144.798 156.703 144.757 157.744 144.813 159.301" stroke="#263238" stroke-width="0.75" stroke-linecap="round" stroke-linejoin="round"/>
<path d="M186.678 179.994C186.067 181.151 185.566 182.274 185.142 183.251C184.853 183.885 184.097 184.178 183.464 183.889C183.192 183.792 183.014 183.604 182.873 183.345C181.589 181.138 180.619 178.774 180.108 176.329" stroke="#263238" stroke-width="0.75" stroke-linecap="round" stroke-linejoin="round"/>
<path d="M45.7304 197.626C44.3171 200.301 42.6318 202.878 40.6957 205.229" stroke="#263238" stroke-width="0.75" stroke-linecap="round" stroke-linejoin="round"/>
<path d="M158.334 254.631C157.294 254.588 156.219 254.435 155.144 254.282" stroke="#263238" stroke-width="0.75" stroke-linecap="round" stroke-linejoin="round"/>
<path d="M115.134 230.778C122.87 237.836 136.655 249.023 150.181 253.088" stroke="#263238" stroke-width="0.75" stroke-linecap="round" stroke-linejoin="round"/>
<path d="M108.855 224.723C108.855 224.723 109.96 225.956 111.894 227.721" stroke="#263238" stroke-width="0.75" stroke-linecap="round" stroke-linejoin="round"/>
<path d="M44.1624 159.558L46.9849 154.392L61.0618 163.975L58.6393 170.047L44.1624 159.558Z" fill="#B0BEC5" stroke="#263238" stroke-linecap="round" stroke-linejoin="round"/>
<path d="M173.652 217.595L171.458 222.447L186.317 232.214L188.77 227.222L173.652 217.595Z" fill="#B0BEC5" stroke="#263238" stroke-linecap="round" stroke-linejoin="round"/>
<path d="M171.548 224.114C170.672 223.234 168.844 220.831 167.667 221.133C165.496 221.741 164.276 227.201 164.243 229.45C164.138 230.875 164.27 232.286 164.751 233.651C165.07 234.098 166.167 234.91 166.63 234.646C167.479 234.263 167.168 231.878 167.426 230.951C168.046 229.429 168.793 227.928 169.574 226.537C169.566 228.476 169.414 230.339 169.152 232.235C168.579 234.106 165.324 240.616 169.815 240.08C169.815 240.08 169.825 242.861 172.148 241.964C174.472 241.067 175.863 236.16 175.863 236.16C175.817 237.384 175.643 238.588 175.342 239.77C174.804 241.751 172.769 242.801 173.781 243.337C175.298 244.141 177.095 243.103 178.508 241.215C180.067 239.404 180.813 237.116 180.519 234.786C180.295 230.921 174.052 226.55 171.548 224.114Z" fill="white" stroke="#263238" stroke-linecap="round" stroke-linejoin="round"/>
<path d="M170.923 238.771C171.857 237.091 172.701 235.318 173.418 233.524C173.868 232.235 174.007 230.921 173.837 229.582" stroke="#263238" stroke-width="0.75" stroke-linecap="round" stroke-linejoin="round"/>
<path d="M102.104 179.839L108.027 187.093C108.027 187.093 116.838 224.927 118.431 231.275C119.313 235.119 120.581 238.844 121.959 242.535L133.538 251.859L135.228 235.361C135.228 235.361 127.058 219.238 120.771 206.286C114.56 193.19 112.131 186.676 111.935 186.434C111.629 186.225 116.794 176.888 116.794 176.888C116.794 176.888 119.038 169.842 118.859 168.868C118.68 167.895 115.86 170.518 115.432 171.679C114.358 173.886 112.35 175.412 110.034 175.944C106.542 176.777 100.84 175.145 101.087 177.126C101.177 178.006 101.483 179.001 102.104 179.839Z" fill="#263238" stroke="#263238" stroke-width="0.75" stroke-miterlimit="10"/>
<path d="M100.603 162.206C100.301 162.601 97.8043 164.702 97.9036 167.576C98.003 170.451 98.155 183.9 97.5318 186.391C96.8364 188.845 98.8875 187.063 100.233 184.954C101.634 182.828 101.227 177.386 103.204 178.895C105.197 180.46 108.813 179.83 108.813 179.83C108.813 179.83 114.775 175.633 115.837 173.975C116.503 172.801 117.097 171.59 117.564 170.357C117.564 170.357 126.991 176.228 128.856 176.199C130.721 176.169 130.512 174.902 129.976 173.554C128.265 168.392 127.013 163.149 126.203 157.77C125.405 151.843 121.555 151.516 118.623 150.24C115.691 148.965 114.154 151.435 112.098 152.613C110.022 153.918 100.603 162.206 100.603 162.206Z" fill="#B0BEC5" stroke="#263238" stroke-width="0.75" stroke-miterlimit="10"/>
<path d="M96.0503 158.222C97.0917 159.051 98.0185 160.097 98.9283 161.088C99.3494 161.866 105.466 174.264 106.421 173.244C107.27 172.075 114.676 157.447 114.437 155.887C114.254 154.309 108.956 146.924 108.236 144.785C107.462 142.663 106.457 139.402 106.457 139.402C106.457 139.402 104.478 146.911 101.914 151.15C100.318 153.821 98.3095 156.134 96.0503 158.222Z" fill="white" stroke="#263238" stroke-linecap="round" stroke-linejoin="round"/>
<path d="M108.589 128.457C107.254 127.658 105.525 128.13 104.782 129.448C104.744 129.52 104.706 129.593 104.668 129.665C102.272 122.475 98.8421 113.303 98.8421 113.303L94.0994 111.254L83.7171 113.665L74.5174 118.738L69.2269 124.725C69.2269 124.725 69.7717 126.494 69.959 127.102C70.606 129.202 72.9546 135.257 72.9546 135.257C72.9546 135.257 80.1402 167.419 93.5041 163.303C104.052 160.054 106.827 147.277 106.666 139.096C111.572 137.161 112.562 130.562 108.589 128.457Z" fill="white" stroke="#263238" stroke-linecap="round" stroke-linejoin="round"/>
<path d="M80.4156 135.924C80.4156 135.924 83.2977 138.607 82.1931 146.21C83.3532 146.639 84.5557 146.814 85.7835 146.678C87.8184 146.414 88.5032 147.656 88.5032 147.656" stroke="#263238" stroke-width="0.75" stroke-linecap="round" stroke-linejoin="round"/>
<path d="M90.2255 150.696C92.549 149.798 94.4726 147.996 95.474 145.75" stroke="#263238" stroke-width="0.75" stroke-linecap="round" stroke-linejoin="round"/>
<path d="M69.9953 131.932C72.5816 129.925 74.2483 132.195 76.3256 131.677" stroke="#263238" stroke-width="0.75" stroke-linecap="round" stroke-linejoin="round"/>
<path d="M80.5653 130.129C82.4255 128.709 82.3427 125.103 86.4936 125.035" stroke="#263238" stroke-width="0.75" stroke-linecap="round" stroke-linejoin="round"/>
<path d="M77.7656 138.314C78.055 139.254 77.9068 140.147 77.3546 140.317C76.8023 140.487 76.1774 139.832 75.888 138.892C75.5985 137.953 75.802 137.043 76.299 136.89C76.8342 136.664 77.4761 137.374 77.7656 138.314Z" fill="#263238"/>
<path d="M87.1064 134.287C87.3959 135.227 87.2095 136.192 86.7125 136.345C86.2155 136.498 85.5353 135.86 85.2289 134.865C84.9394 133.926 85.1428 133.016 85.6398 132.863C86.1751 132.637 86.8 133.292 87.1064 134.287Z" fill="#263238"/>
<path d="M79.4218 137.017C80.5621 139.934 79.5782 143.021 77.1824 143.88C74.8037 144.794 71.9137 143.264 70.7905 140.402C69.595 137.502 70.6341 134.398 73.0299 133.539C75.4257 132.68 78.2986 134.156 79.4218 137.017Z" stroke="#263238" stroke-width="0.75" stroke-linecap="round" stroke-linejoin="round"/>
<path d="M91.5998 131.209C92.7401 134.126 91.7561 137.213 89.3604 138.071C86.9816 138.986 84.0917 137.455 82.9684 134.593C81.8452 131.732 82.8121 128.59 85.2079 127.731C87.5484 126.889 90.3661 128.381 91.5998 131.209Z" stroke="#263238" stroke-width="0.75" stroke-linecap="round" stroke-linejoin="round"/>
<path d="M79.4221 137.017C80.2712 135.848 81.6219 135.129 83.0494 135.053" stroke="#263238" stroke-width="0.75" stroke-linecap="round" stroke-linejoin="round"/>
<path d="M91.48 130.822C91.48 130.822 98.7179 127.624 101.297 127.556C102.716 127.845 104.114 128.262 105.453 128.878" stroke="#263238" stroke-width="0.75" stroke-linecap="round" stroke-linejoin="round"/>
<path d="M93.8715 114.047C83.6891 124.567 68.8512 129.198 54.5104 126.413C54.5104 126.413 61.4547 122.459 64.5915 117.135C68.3182 110.782 78.6892 103.23 94.8541 108.6C94.8541 108.6 110.728 109.884 105.219 127.135C104.531 129.223 104.985 135.8 104.985 135.8L102.518 137.408C102.518 137.408 101.269 130.409 99.1472 127.25C96.9531 124.052 93.1576 121.348 93.8715 114.047Z" fill="#263238" stroke="#263238" stroke-linecap="round" stroke-linejoin="round"/>
<path d="M71.855 121.676C78.8384 119.222 87.2613 115.357 92.8624 110.182" stroke="#7F7F7F" stroke-width="0.75" stroke-linecap="round" stroke-linejoin="round"/>
<path d="M67.5243 119.197C73.8225 114.715 81.0563 111.7 88.6733 110.323" stroke="#7F7F7F" stroke-width="0.75" stroke-linecap="round" stroke-linejoin="round"/>
<path d="M102.055 122.36C101.182 118.937 99.7014 115.701 97.5713 112.908" stroke="#7F7F7F" stroke-width="0.75" stroke-linecap="round" stroke-linejoin="round"/>
<path d="M102.801 127.335C102.75 126.382 102.66 125.502 102.498 124.584" stroke="#7F7F7F" stroke-width="0.75" stroke-linecap="round" stroke-linejoin="round"/>
</g>
<g filter="url(#filter0_d_503_4761)">
<path d="M107.563 104L133.059 74.9641L161.729 74.9641C166.852 74.9641 171 70.8065 171 65.6705L171 10.2936C171 5.15765 166.852 1 161.729 1L48.2711 1.00001C43.1476 1.00001 39 5.15766 39 10.2936L39 65.5483C39 70.6842 43.1476 74.8419 48.2711 74.8418L118.786 74.8418L107.563 104Z" fill="white"/>
<path d="M107.939 104.33C107.779 104.512 107.512 104.553 107.304 104.428C107.097 104.302 107.01 104.046 107.097 103.82L118.058 75.3418L48.2711 75.3418C42.8703 75.3419 38.5 70.9592 38.5 65.5483L38.5 10.2936C38.5 4.88266 42.8703 0.500006 48.2711 0.500005L161.729 0.5C167.13 0.5 171.5 4.88265 171.5 10.2936L171.5 65.6705C171.5 71.0815 167.13 75.4641 161.729 75.4641L133.285 75.4641L107.939 104.33Z" stroke="#333E63" stroke-linecap="round" stroke-linejoin="round"/>
</g>
<path d="M65.95 25.084C64.9793 25.084 64.0973 24.8693 63.304 24.44C62.52 24.0013 61.904 23.404 61.456 22.648C61.0173 21.892 60.798 21.0427 60.798 20.1C60.798 19.1573 61.0173 18.308 61.456 17.552C61.904 16.796 62.52 16.2033 63.304 15.774C64.0973 15.3353 64.9793 15.116 65.95 15.116C66.9207 15.116 67.7933 15.3307 68.568 15.76C69.352 16.1893 69.968 16.7867 70.416 17.552C70.864 18.308 71.088 19.1573 71.088 20.1C71.088 21.0427 70.864 21.8967 70.416 22.662C69.968 23.418 69.352 24.0107 68.568 24.44C67.7933 24.8693 66.9207 25.084 65.95 25.084ZM65.95 24.16C66.7247 24.16 67.4247 23.9873 68.05 23.642C68.6753 23.2873 69.1653 22.802 69.52 22.186C69.8747 21.5607 70.052 20.8653 70.052 20.1C70.052 19.3347 69.8747 18.644 69.52 18.028C69.1653 17.4027 68.6753 16.9173 68.05 16.572C67.4247 16.2173 66.7247 16.04 65.95 16.04C65.1753 16.04 64.4707 16.2173 63.836 16.572C63.2107 16.9173 62.716 17.4027 62.352 18.028C61.9973 18.644 61.82 19.3347 61.82 20.1C61.82 20.8653 61.9973 21.5607 62.352 22.186C62.716 22.802 63.2107 23.2873 63.836 23.642C64.4707 23.9873 65.1753 24.16 65.95 24.16ZM78.2971 18.518H75.5111V25H74.5171V18.518H71.7311V17.636H78.2971V18.518ZM84.4243 21.192C85.423 21.4253 85.9223 22.0273 85.9223 22.998C85.9223 23.642 85.6843 24.1367 85.2083 24.482C84.7323 24.8273 84.023 25 83.0803 25H79.7343V17.636H82.9823C83.8223 17.636 84.4803 17.7993 84.9563 18.126C85.4323 18.4527 85.6703 18.9193 85.6703 19.526C85.6703 19.9273 85.5583 20.2727 85.3343 20.562C85.1196 20.842 84.8163 21.052 84.4243 21.192ZM80.7003 20.912H82.9123C83.4816 20.912 83.9156 20.8047 84.2143 20.59C84.5223 20.3753 84.6763 20.0627 84.6763 19.652C84.6763 19.2413 84.5223 18.9333 84.2143 18.728C83.9156 18.5227 83.4816 18.42 82.9123 18.42H80.7003V20.912ZM83.0383 24.216C83.673 24.216 84.149 24.1133 84.4663 23.908C84.7836 23.7027 84.9423 23.3807 84.9423 22.942C84.9423 22.5033 84.7976 22.1813 84.5083 21.976C84.219 21.7613 83.7616 21.654 83.1363 21.654H80.7003V24.216H83.0383ZM94.6919 21.626H88.5319C88.5879 22.3913 88.8819 23.012 89.4139 23.488C89.9459 23.9547 90.6179 24.188 91.4299 24.188C91.8872 24.188 92.3072 24.1087 92.6899 23.95C93.0726 23.782 93.4039 23.5393 93.6839 23.222L94.2439 23.866C93.9172 24.258 93.5066 24.5567 93.0119 24.762C92.5266 24.9673 91.9899 25.07 91.4019 25.07C90.6459 25.07 89.9739 24.9113 89.3859 24.594C88.8072 24.2673 88.3546 23.8193 88.0279 23.25C87.7012 22.6807 87.5379 22.0367 87.5379 21.318C87.5379 20.5993 87.6919 19.9553 87.9999 19.386C88.3172 18.8167 88.7466 18.3733 89.2879 18.056C89.8386 17.7387 90.4546 17.58 91.1359 17.58C91.8172 17.58 92.4286 17.7387 92.9699 18.056C93.5112 18.3733 93.9359 18.8167 94.2439 19.386C94.5519 19.946 94.7059 20.59 94.7059 21.318L94.6919 21.626ZM91.1359 18.434C90.4266 18.434 89.8292 18.6627 89.3439 19.12C88.8679 19.568 88.5972 20.156 88.5319 20.884H93.7539C93.6886 20.156 93.4132 19.568 92.9279 19.12C92.4519 18.6627 91.8546 18.434 91.1359 18.434ZM101.758 18.518H98.9721V25H97.9781V18.518H95.1921V17.636H101.758V18.518ZM68.022 34.636V42H67.028V35.518H62.408V42H61.414V34.636H68.022ZM73.8856 42.07C73.1763 42.07 72.5369 41.9113 71.9676 41.594C71.3983 41.2673 70.9503 40.8193 70.6236 40.25C70.2969 39.6807 70.1336 39.0367 70.1336 38.318C70.1336 37.5993 70.2969 36.9553 70.6236 36.386C70.9503 35.8167 71.3983 35.3733 71.9676 35.056C72.5369 34.7387 73.1763 34.58 73.8856 34.58C74.5949 34.58 75.2343 34.7387 75.8036 35.056C76.3729 35.3733 76.8163 35.8167 77.1336 36.386C77.4603 36.9553 77.6236 37.5993 77.6236 38.318C77.6236 39.0367 77.4603 39.6807 77.1336 40.25C76.8163 40.8193 76.3729 41.2673 75.8036 41.594C75.2343 41.9113 74.5949 42.07 73.8856 42.07ZM73.8856 41.188C74.4083 41.188 74.8749 41.0713 75.2856 40.838C75.7056 40.5953 76.0323 40.2547 76.2656 39.816C76.4989 39.3773 76.6156 38.878 76.6156 38.318C76.6156 37.758 76.4989 37.2587 76.2656 36.82C76.0323 36.3813 75.7056 36.0453 75.2856 35.812C74.8749 35.5693 74.4083 35.448 73.8856 35.448C73.3629 35.448 72.8916 35.5693 72.4716 35.812C72.0609 36.0453 71.7343 36.3813 71.4916 36.82C71.2583 37.2587 71.1416 37.758 71.1416 38.318C71.1416 38.878 71.2583 39.3773 71.4916 39.816C71.7343 40.2547 72.0609 40.5953 72.4716 40.838C72.8916 41.0713 73.3629 41.188 73.8856 41.188ZM86.889 41.132V43.778H85.951V42H79.357V43.778H78.419V41.132H78.839C79.3336 41.104 79.6696 40.74 79.847 40.04C80.0243 39.34 80.1456 38.36 80.211 37.1L80.309 34.636H85.741V41.132H86.889ZM81.121 37.156C81.0743 38.2013 80.9856 39.0647 80.855 39.746C80.7243 40.418 80.491 40.88 80.155 41.132H84.747V35.518H81.205L81.121 37.156ZM91.9061 42.07C91.1781 42.07 90.5248 41.9113 89.9461 41.594C89.3768 41.2767 88.9288 40.8333 88.6021 40.264C88.2754 39.6853 88.1121 39.0367 88.1121 38.318C88.1121 37.5993 88.2754 36.9553 88.6021 36.386C88.9288 35.8167 89.3768 35.3733 89.9461 35.056C90.5248 34.7387 91.1781 34.58 91.9061 34.58C92.5408 34.58 93.1054 34.706 93.6001 34.958C94.1041 35.2007 94.5008 35.56 94.7901 36.036L94.0481 36.54C93.8054 36.176 93.4974 35.9053 93.1241 35.728C92.7508 35.5413 92.3448 35.448 91.9061 35.448C91.3741 35.448 90.8934 35.5693 90.4641 35.812C90.0441 36.0453 89.7128 36.3813 89.4701 36.82C89.2368 37.2587 89.1201 37.758 89.1201 38.318C89.1201 38.8873 89.2368 39.3913 89.4701 39.83C89.7128 40.2593 90.0441 40.5953 90.4641 40.838C90.8934 41.0713 91.3741 41.188 91.9061 41.188C92.3448 41.188 92.7508 41.0993 93.1241 40.922C93.4974 40.7447 93.8054 40.474 94.0481 40.11L94.7901 40.614C94.5008 41.09 94.1041 41.454 93.6001 41.706C93.0961 41.9487 92.5314 42.07 91.9061 42.07ZM99.3888 38.724H97.7088V42H96.7148V34.636H97.7088V37.87H99.4028L101.993 34.636H103.071L100.173 38.206L103.281 42H102.105L99.3888 38.724ZM107.247 34.58C108.208 34.58 108.945 34.8227 109.459 35.308C109.972 35.784 110.229 36.4933 110.229 37.436V42H109.277V40.852C109.053 41.2347 108.721 41.5333 108.283 41.748C107.853 41.9627 107.34 42.07 106.743 42.07C105.921 42.07 105.268 41.874 104.783 41.482C104.297 41.09 104.055 40.572 104.055 39.928C104.055 39.3027 104.279 38.7987 104.727 38.416C105.184 38.0333 105.907 37.842 106.897 37.842H109.235V37.394C109.235 36.7593 109.057 36.2787 108.703 35.952C108.348 35.616 107.83 35.448 107.149 35.448C106.682 35.448 106.234 35.5273 105.805 35.686C105.375 35.8353 105.007 36.0453 104.699 36.316L104.251 35.574C104.624 35.2567 105.072 35.014 105.595 34.846C106.117 34.6687 106.668 34.58 107.247 34.58ZM106.897 41.286C107.457 41.286 107.937 41.16 108.339 40.908C108.74 40.6467 109.039 40.2733 109.235 39.788V38.584H106.925C105.665 38.584 105.035 39.0227 105.035 39.9C105.035 40.3293 105.198 40.67 105.525 40.922C105.851 41.1647 106.309 41.286 106.897 41.286ZM119.329 38.724H117.733V42H116.739V38.724H115.143L112.889 42H111.699L114.345 38.206L111.909 34.636H112.987L115.143 37.87H116.739V34.636H117.733V37.87H119.329L121.499 34.636H122.577L120.141 38.22L122.787 42H121.597L119.329 38.724ZM130.276 34.636L126.594 42.882C126.295 43.5727 125.95 44.0627 125.558 44.352C125.166 44.6413 124.694 44.786 124.144 44.786C123.789 44.786 123.458 44.73 123.15 44.618C122.842 44.506 122.576 44.338 122.352 44.114L122.814 43.372C123.187 43.7453 123.635 43.932 124.158 43.932C124.494 43.932 124.778 43.8387 125.012 43.652C125.254 43.4653 125.478 43.148 125.684 42.7L126.006 41.986L122.716 34.636H123.752L126.524 40.894L129.296 34.636H130.276ZM137.032 35.518H134.246V42H133.252V35.518H130.466V34.636H137.032V35.518ZM69.086 58.132V60.848H68.148V59H61.414V51.636H62.408V58.132H66.902V51.636H67.896V58.132H69.086ZM70.9843 51.636H71.9783V57.488L76.8923 51.636H77.7743V59H76.7803V53.148L71.8803 59H70.9843V51.636ZM89.513 55.304C89.513 56.452 89.135 57.3527 88.379 58.006C87.623 58.6593 86.5543 59.014 85.173 59.07V61.716H84.207V59.084C82.835 59.028 81.771 58.6733 81.015 58.02C80.2683 57.3573 79.895 56.452 79.895 55.304C79.895 54.1653 80.2683 53.274 81.015 52.63C81.771 51.986 82.835 51.636 84.207 51.58V48.612H85.173V51.58C86.5543 51.6453 87.623 52 88.379 52.644C89.135 53.288 89.513 54.1747 89.513 55.304ZM80.875 55.304C80.875 56.1813 81.155 56.8673 81.715 57.362C82.2843 57.8567 83.115 58.1367 84.207 58.202V52.462C83.1243 52.518 82.2983 52.7933 81.729 53.288C81.1597 53.7733 80.875 54.4453 80.875 55.304ZM85.173 58.202C86.265 58.146 87.0957 57.8707 87.665 57.376C88.2437 56.8813 88.533 56.1907 88.533 55.304C88.533 54.436 88.2437 53.7593 87.665 53.274C87.0957 52.7887 86.265 52.518 85.173 52.462V58.202ZM95.4092 51.58C96.0998 51.58 96.7252 51.7387 97.2852 52.056C97.8452 52.364 98.2838 52.8027 98.6012 53.372C98.9185 53.9413 99.0772 54.59 99.0772 55.318C99.0772 56.0553 98.9185 56.7087 98.6012 57.278C98.2838 57.8473 97.8452 58.2907 97.2852 58.608C96.7345 58.916 96.1092 59.07 95.4092 59.07C94.8118 59.07 94.2705 58.9487 93.7852 58.706C93.3092 58.454 92.9172 58.09 92.6092 57.614V61.716H91.6152V51.636H92.5672V53.092C92.8658 52.6067 93.2578 52.2333 93.7432 51.972C94.2378 51.7107 94.7932 51.58 95.4092 51.58ZM95.3392 58.188C95.8525 58.188 96.3192 58.0713 96.7392 57.838C97.1592 57.5953 97.4858 57.2547 97.7192 56.816C97.9618 56.3773 98.0832 55.878 98.0832 55.318C98.0832 54.758 97.9618 54.2633 97.7192 53.834C97.4858 53.3953 97.1592 53.0547 96.7392 52.812C96.3192 52.5693 95.8525 52.448 95.3392 52.448C94.8165 52.448 94.3452 52.5693 93.9252 52.812C93.5145 53.0547 93.1878 53.3953 92.9452 53.834C92.7118 54.2633 92.5952 54.758 92.5952 55.318C92.5952 55.878 92.7118 56.3773 92.9452 56.816C93.1878 57.2547 93.5145 57.5953 93.9252 57.838C94.3452 58.0713 94.8165 58.188 95.3392 58.188ZM104.307 54.24C105.231 54.2493 105.935 54.4547 106.421 54.856C106.906 55.2573 107.149 55.836 107.149 56.592C107.149 57.376 106.887 57.978 106.365 58.398C105.842 58.818 105.095 59.0233 104.125 59.014L101.213 59V51.636H102.207V54.212L104.307 54.24ZM108.381 51.636H109.375V59H108.381V51.636ZM104.069 58.258C104.75 58.2673 105.263 58.132 105.609 57.852C105.963 57.5627 106.141 57.1427 106.141 56.592C106.141 56.0507 105.968 55.6493 105.623 55.388C105.277 55.1267 104.759 54.9913 104.069 54.982L102.207 54.954V58.23L104.069 58.258ZM112.023 49.2H113.199L112.989 56.06H112.219L112.023 49.2ZM112.611 59.07C112.406 59.07 112.228 59 112.079 58.86C111.939 58.7107 111.869 58.538 111.869 58.342C111.869 58.1367 111.939 57.9687 112.079 57.838C112.219 57.698 112.396 57.628 112.611 57.628C112.816 57.628 112.989 57.698 113.129 57.838C113.269 57.9687 113.339 58.1367 113.339 58.342C113.339 58.538 113.269 58.7107 113.129 58.86C112.989 59 112.816 59.07 112.611 59.07Z" fill="#333E63"/>
<defs>
<filter id="filter0_d_503_4761" x="38" y="0" width="139" height="110" filterUnits="userSpaceOnUse" color-interpolation-filters="sRGB">
<feFlood flood-opacity="0" result="BackgroundImageFix"/>
<feColorMatrix in="SourceAlpha" type="matrix" values="0 0 0 0 0 0 0 0 0 0 0 0 0 0 0 0 0 0 127 0" result="hardAlpha"/>
<feOffset dx="5" dy="5"/>
<feComposite in2="hardAlpha" operator="out"/>
<feColorMatrix type="matrix" values="0 0 0 0 0.2 0 0 0 0 0.243137 0 0 0 0 0.388235 0 0 0 1 0"/>
<feBlend mode="normal" in2="BackgroundImageFix" result="effect1_dropShadow_503_4761"/>
<feBlend mode="normal" in="SourceGraphic" in2="effect1_dropShadow_503_4761" result="shape"/>
</filter>
<clipPath id="clip0_503_4761">
<rect width="178.088" height="171.492" fill="white" transform="translate(0.869629 130.892) rotate(-17.1195)"/>
</clipPath>
</defs>
</svg>
