<svg width="626" height="401" viewBox="0 0 626 401" fill="none" xmlns="http://www.w3.org/2000/svg">
<g clip-path="url(#clip0_1103_2755)">
<path d="M533.433 292.729L546.799 266.783L565.29 280.737L544.314 311.587L533.433 292.729Z" fill="white" stroke="#263238" stroke-linecap="round" stroke-linejoin="round"/>
<path d="M331.682 69.4824C331.682 69.4824 337.823 68.828 346.643 67.0532" stroke="#7F7F7F" stroke-width="0.75" stroke-linecap="round" stroke-linejoin="round"/>
<path d="M314.91 152.395L323.847 137.922C323.847 137.922 345.885 132.557 349.208 128.865C352.531 125.173 353.459 117.661 360.536 114.725C367.612 111.789 358.918 107.841 352.2 111.402C345.504 115.075 339.371 121.542 339.137 114.031C338.903 106.519 332.32 94.5879 333.569 92.7088C334.817 90.8297 345.17 98.9793 349.184 94.683C353.199 90.3867 344.326 86.7068 338.514 83.225C332.702 79.7433 331.897 78.6263 328.526 79.7698C325.154 80.9132 319.573 82.6178 322.125 87.2206C319.735 86.8876 317.503 87.9182 316.031 89.8422C316.031 89.8422 310 89.3116 307.995 93.2035C307.995 93.2035 302.121 93.4552 300.854 98.1288C299.587 102.802 308.504 122.869 306.813 127.744C305.076 131.815 302.826 135.64 300.016 138.996L314.91 152.395Z" fill="white" stroke="#263238" stroke-linecap="round" stroke-linejoin="round"/>
<path d="M324.607 122.07C328.065 119.049 332.531 117.569 337.132 117.922" stroke="#263238" stroke-width="0.75" stroke-linecap="round" stroke-linejoin="round"/>
<path d="M327.529 87.5283C327.529 87.5283 327.329 88.2662 331.129 90.4086" stroke="#263238" stroke-width="0.75" stroke-linecap="round" stroke-linejoin="round"/>
<path d="M326.464 91.4639C326.464 91.4639 336.125 99.6366 333.849 101.606C330.904 104.292 324.978 99.0887 319.188 95.1374C319.188 95.1374 332.02 103.486 328.606 106.15C325.304 108.791 317.274 100.058 312.38 98.2516C312.38 98.2516 323.111 105.976 320.57 109.511C317.672 113.582 312.294 101.292 308.37 106.035" stroke="#263238" stroke-width="0.75" stroke-linecap="round" stroke-linejoin="round"/>
<path d="M400.46 155.529C400.46 155.529 379.273 162.815 367.492 172.395C362.554 170.947 357.331 173.858 355.886 178.8C355.886 178.8 327.265 188.397 293.535 203.208C293.535 203.208 300.732 190.48 320.979 148.498C320.979 148.498 307.387 139.838 301.856 129.671C301.856 129.671 239.891 224.7 250.477 240.361C263.145 258.859 374.745 217.1 374.745 217.1C374.745 217.1 399.252 286.356 416.145 324.12C432.926 361.907 433.422 365.529 433.422 365.529C433.422 365.529 466.711 371.621 533.583 337.351C529.384 288.195 521.232 239.601 509.062 191.817C509.062 191.817 546.589 210.313 561.741 216.915C561.741 216.915 545.865 252.901 536.567 281.749C536.567 281.749 547.716 284.041 557.763 297.02C557.763 297.02 607.305 215.886 598.303 198.86C589.301 181.834 499.764 138.105 499.764 138.105C499.764 138.105 496.803 128.584 486.537 135.301C471.953 136.143 457.415 138.37 443.282 142.028L416.608 154.954L400.46 155.529Z" fill="#B0BEC5"/>
<path opacity="0.3" d="M525.679 306.732C525.679 306.732 513.229 317.028 521.04 328.131C528.85 339.234 483.076 366.352 441.935 335.095C400.795 303.837 377.304 193.445 367.521 193.321C357.737 193.196 367.767 210.132 326.751 221.641C285.736 233.15 291.699 216.601 283.925 215.491C276.15 214.381 266.596 235.024 256.881 235.817C253.219 236.088 251.093 233.609 249.95 230.234C249.129 234.818 249.157 238.417 250.611 240.45C263.278 258.948 374.879 217.189 374.879 217.189C374.879 217.189 399.386 286.446 416.279 324.21C433.171 361.975 433.556 365.618 433.556 365.618C433.556 365.618 466.845 371.711 533.717 337.441C533.717 337.441 533.124 328.141 531.248 312.472L525.679 306.732Z" fill="black"/>
<path opacity="0.3" d="M565.935 196.187C560.509 181.348 551.48 193.63 544.896 197.862C538.336 202.206 514.937 176.564 506.116 177.177C497.294 177.789 509.061 191.817 509.061 191.817C509.061 191.817 546.589 210.313 561.741 216.915C561.741 216.915 559.515 222.014 556.108 229.909C565.572 208.818 570.822 209.506 565.935 196.187Z" fill="black"/>
<path d="M400.46 155.529C400.46 155.529 379.273 162.815 367.492 172.395C362.554 170.947 357.331 173.858 355.886 178.8C355.886 178.8 327.265 188.397 293.535 203.208C293.535 203.208 300.732 190.48 320.979 148.498C320.979 148.498 307.387 139.838 301.856 129.671C301.856 129.671 239.891 224.7 250.477 240.361C263.145 258.859 374.745 217.1 374.745 217.1C374.745 217.1 399.252 286.356 416.145 324.12C432.926 361.907 433.422 365.529 433.422 365.529C433.422 365.529 466.711 371.621 533.583 337.351C529.384 288.195 521.232 239.601 509.062 191.817C509.062 191.817 546.589 210.313 561.741 216.915C561.741 216.915 545.865 252.901 536.567 281.749C536.567 281.749 547.716 284.041 557.763 297.02C557.763 297.02 607.305 215.886 598.303 198.86C589.301 181.834 499.764 138.105 499.764 138.105C499.764 138.105 496.803 128.584 486.537 135.301C471.953 136.143 457.415 138.37 443.282 142.028L416.608 154.954L400.46 155.529Z" stroke="#263238" stroke-linecap="round" stroke-linejoin="round"/>
<path d="M365.078 187.533C365.078 187.533 367.636 196.205 372.189 209.591" stroke="#263238" stroke-width="0.75" stroke-linecap="round" stroke-linejoin="round"/>
<path d="M500.501 186.796C492.834 182.757 491.387 169.211 491.485 159.307" stroke="#263238" stroke-width="0.75" stroke-linecap="round" stroke-linejoin="round"/>
<path d="M492.162 148.24C492.162 148.24 491.875 150.275 491.678 153.338" stroke="#263238" stroke-width="0.75" stroke-linecap="round" stroke-linejoin="round"/>
<path d="M569.697 202.175C568.27 204.323 567.067 206.426 566.042 208.26C565.351 209.445 563.81 209.872 562.626 209.18C562.112 208.934 561.798 208.532 561.574 207.996C559.491 203.415 558.055 198.588 557.534 193.692" stroke="#263238" stroke-width="0.75" stroke-linecap="round" stroke-linejoin="round"/>
<path d="M289.815 208.957C286.516 213.924 282.703 218.644 278.442 222.874" stroke="#263238" stroke-width="0.75" stroke-linecap="round" stroke-linejoin="round"/>
<path d="M499.394 342.952C497.361 342.663 495.283 342.151 493.205 341.639" stroke="#263238" stroke-width="0.75" stroke-linecap="round" stroke-linejoin="round"/>
<path d="M419.379 287.655C433.159 303.022 457.985 327.679 483.708 338.317" stroke="#263238" stroke-width="0.75" stroke-linecap="round" stroke-linejoin="round"/>
<path d="M408.26 274.544C408.26 274.544 410.184 277.18 413.629 281.022" stroke="#263238" stroke-width="0.75" stroke-linecap="round" stroke-linejoin="round"/>
<path d="M294.247 133.993L300.801 124.419L326.516 145.989L320.568 157.419L294.247 133.993Z" fill="#B0BEC5" stroke="#263238" stroke-linecap="round" stroke-linejoin="round"/>
<path d="M536.736 273.343L531.477 282.425L558.69 304.508L564.485 295.202L536.736 273.343Z" fill="#B0BEC5" stroke="#263238" stroke-linecap="round" stroke-linejoin="round"/>
<path d="M531.325 285.711C529.781 283.813 526.669 278.741 524.302 279.101C519.925 279.866 516.455 290.331 515.947 294.736C515.46 297.509 515.441 300.303 516.115 303.075C516.652 304.013 518.643 305.822 519.603 305.396C521.344 304.813 521.204 300.074 521.894 298.307C523.409 295.444 525.169 292.648 526.975 290.075C526.578 293.876 525.913 297.498 525.025 301.166C523.533 304.722 515.866 316.846 524.778 316.681C524.778 316.681 524.249 322.136 528.982 320.835C533.716 319.533 537.411 310.185 537.411 310.185C537.079 312.577 536.502 314.903 535.678 317.162C534.231 320.941 530.035 322.6 531.912 323.85C534.729 325.725 538.457 324.045 541.602 320.621C545.015 317.376 546.93 313.037 546.812 308.41C547.137 300.786 535.754 290.983 531.325 285.711Z" fill="white" stroke="#263238" stroke-linecap="round" stroke-linejoin="round"/>
<path d="M527.21 314.331C529.372 311.222 531.378 307.911 533.138 304.533C534.274 302.096 534.806 299.546 534.736 296.886" stroke="#263238" stroke-width="0.75" stroke-linecap="round" stroke-linejoin="round"/>
<path d="M403.873 185.192L414.057 200.585C414.057 200.585 423.876 276.518 425.747 289.281C426.718 296.993 428.47 304.547 430.446 312.057L451.314 332.626L457.881 300.606C457.881 300.606 445.038 267.376 435.263 240.737C425.667 213.831 422.187 200.577 421.851 200.063C421.292 199.594 433.263 182.301 433.263 182.301C433.263 182.301 439.052 168.927 438.893 166.982C438.734 165.037 432.687 169.626 431.618 171.818C429.078 175.934 424.837 178.532 420.192 179.117C413.18 180.063 402.319 175.737 402.414 179.672C402.416 181.415 402.821 183.427 403.873 185.192Z" fill="#263238" stroke="#263238" stroke-width="0.75" stroke-miterlimit="10"/>
<path d="M404.407 150.317C403.738 151.033 398.427 154.66 398.055 160.316C397.683 165.972 395.328 192.377 393.615 197.14C391.768 201.814 396.141 198.725 399.196 194.854C402.362 190.961 402.638 180.208 406.216 183.558C409.817 187.019 417.031 186.498 417.031 186.498C417.031 186.498 429.552 179.444 431.96 176.401C433.498 174.231 434.902 171.972 436.061 169.645C436.061 169.645 453.389 183.019 457.053 183.329C460.716 183.638 460.556 181.112 459.771 178.363C457.434 167.903 456.012 157.375 455.484 146.667C455.088 134.886 447.604 133.485 442.105 130.405C436.606 127.325 433.106 131.867 428.842 133.772C424.512 135.922 404.407 150.317 404.407 150.317Z" fill="#B0BEC5" stroke="#263238" stroke-width="0.75" stroke-miterlimit="10"/>
<path d="M396.265 141.606C398.143 143.437 399.755 145.671 401.343 147.793C402.016 149.402 411.565 174.923 413.64 173.11C415.536 170.984 432.943 143.76 432.783 140.653C432.734 137.523 423.801 121.995 422.812 117.659C421.712 113.345 420.385 106.752 420.385 106.752C420.385 106.752 415.021 121.087 409.158 128.895C405.501 133.817 401.107 137.957 396.265 141.606Z" fill="white" stroke="#263238" stroke-linecap="round" stroke-linejoin="round"/>
<path d="M426.722 85.7085C424.262 83.8777 420.779 84.4624 419.062 86.9009C418.973 87.0351 418.884 87.1693 418.795 87.3036C415.514 72.7308 410.597 54.0686 410.597 54.0686L401.7 49.1144L380.865 51.7954L361.823 59.9293L350.268 70.6268C350.268 70.6268 350.987 74.203 351.235 75.4323C352.089 79.6791 355.501 92.0161 355.501 92.0161C355.501 92.0161 363.25 156.505 390.269 151.068C411.594 146.777 419.557 122.267 420.853 106.192C430.855 103.365 434.099 90.6195 426.722 85.7085Z" fill="white" stroke="#263238" stroke-linecap="round" stroke-linejoin="round"/>
<path d="M370.002 94.7968C370.002 94.7968 375.124 100.627 371.459 115.318C373.649 116.389 375.973 116.968 378.408 116.943C382.45 116.827 383.548 119.397 383.548 119.397" stroke="#263238" stroke-width="0.75" stroke-linecap="round" stroke-linejoin="round"/>
<path d="M386.327 125.698C391.06 124.397 395.188 121.241 397.595 117.036" stroke="#263238" stroke-width="0.75" stroke-linecap="round" stroke-linejoin="round"/>
<path d="M350.353 84.9124C355.821 81.4865 358.642 86.2679 362.818 85.6602" stroke="#263238" stroke-width="0.75" stroke-linecap="round" stroke-linejoin="round"/>
<path d="M371.438 83.4602C375.366 81.0419 375.915 73.9546 384.068 74.6395" stroke="#263238" stroke-width="0.75" stroke-linecap="round" stroke-linejoin="round"/>
<path d="M364.334 98.9598C364.716 100.86 364.25 102.582 363.133 102.806C362.017 103.031 360.92 101.624 360.538 99.7236C360.156 97.8238 360.734 96.0795 361.739 95.8773C362.833 95.5409 363.952 97.0599 364.334 98.9598Z" fill="#263238"/>
<path d="M383.445 92.9055C383.828 94.8053 383.272 96.6614 382.267 96.8636C381.262 97.0658 380.054 95.6809 379.649 93.6693C379.267 91.7694 379.845 90.0251 380.85 89.8229C381.944 89.4865 383.041 90.8938 383.445 92.9055Z" fill="#263238"/>
<path d="M367.836 96.7437C369.497 102.689 366.959 108.548 362.091 109.76C357.246 111.084 351.88 107.513 350.242 101.679C348.469 95.7568 351.119 89.8746 355.987 88.6626C360.855 87.4506 366.198 90.9105 367.836 96.7437Z" stroke="#263238" stroke-width="0.75" stroke-linecap="round" stroke-linejoin="round"/>
<path d="M392.863 87.7542C394.524 93.6992 391.985 99.5589 387.118 100.771C382.273 102.095 376.907 98.5231 375.269 92.6899C373.63 86.8566 376.146 80.8851 381.014 79.6731C385.77 78.4836 391.001 81.9659 392.863 87.7542Z" stroke="#263238" stroke-width="0.75" stroke-linecap="round" stroke-linejoin="round"/>
<path d="M367.837 96.7436C369.733 94.6179 372.523 93.475 375.338 93.6063" stroke="#263238" stroke-width="0.75" stroke-linecap="round" stroke-linejoin="round"/>
<path d="M392.706 86.9721C392.706 86.9721 407.53 82.1287 412.601 82.5037C415.327 83.3505 417.987 84.4433 420.49 85.9163" stroke="#263238" stroke-width="0.75" stroke-linecap="round" stroke-linejoin="round"/>
<path d="M400.702 54.548C378.66 73.1698 348.649 79.3249 321.075 71.0358C321.075 71.0358 335.473 64.6502 342.674 54.8289C351.235 43.106 373.062 30.3417 403.704 44.0602C403.704 44.0602 434.58 49.708 420.374 82.4509C418.614 86.4096 418.208 99.3987 418.208 99.3987L413.052 102.064C413.052 102.064 411.983 88.0929 408.445 81.479C404.773 74.7759 397.863 68.7244 400.702 54.548Z" fill="#263238" stroke="#263238" stroke-linecap="round" stroke-linejoin="round"/>
<path d="M356.023 65.1664C370.201 61.732 387.481 55.813 399.486 46.7694" stroke="#7F7F7F" stroke-width="0.75" stroke-linecap="round" stroke-linejoin="round"/>
<path d="M348.018 59.451C361.253 51.904 376.033 47.4182 391.242 46.2184" stroke="#7F7F7F" stroke-width="0.75" stroke-linecap="round" stroke-linejoin="round"/>
<path d="M415.112 72.4633C414.075 65.5787 411.81 58.9413 408.184 53.043" stroke="#7F7F7F" stroke-width="0.75" stroke-linecap="round" stroke-linejoin="round"/>
<path d="M415.594 82.3658C415.681 80.4879 415.678 78.7441 415.542 76.9111" stroke="#7F7F7F" stroke-width="0.75" stroke-linecap="round" stroke-linejoin="round"/>
</g>
<g filter="url(#filter0_d_1103_2755)">
<path d="M284 87.4367L234.964 61.9413V43.2711C234.964 38.1476 230.806 34 225.671 34H10.2936C5.15765 34 1 38.1476 1 43.2711V96.7289C1 101.852 5.15765 106 10.2936 106H225.548C230.684 106 234.842 101.852 234.842 96.7289V76.2139L284 87.4367Z" fill="white"/>
<path d="M284.231 86.9931C284.454 87.1092 284.556 87.373 284.469 87.6091C284.383 87.8453 284.134 87.9802 283.889 87.9242L235.342 76.8409V96.7289C235.342 102.13 230.959 106.5 225.548 106.5H10.2936C4.88266 106.5 0.5 102.13 0.5 96.7289V43.2711C0.5 37.8703 4.88266 33.5 10.2936 33.5H225.671C231.081 33.5 235.464 37.8703 235.464 43.2711V61.6377L284.231 86.9931Z" stroke="#333E63" stroke-linecap="round" stroke-linejoin="round"/>
</g>
<path d="M23.632 64.144C22.36 64.144 21.214 63.868 20.194 63.316C19.174 62.752 18.37 61.978 17.782 60.994C17.206 60.01 16.918 58.912 16.918 57.7C16.918 56.488 17.206 55.39 17.782 54.406C18.37 53.422 19.174 52.654 20.194 52.102C21.214 51.538 22.36 51.256 23.632 51.256C24.892 51.256 26.032 51.538 27.052 52.102C28.072 52.654 28.87 53.422 29.446 54.406C30.022 55.378 30.31 56.476 30.31 57.7C30.31 58.924 30.022 60.028 29.446 61.012C28.87 61.984 28.072 62.752 27.052 63.316C26.032 63.868 24.892 64.144 23.632 64.144ZM23.632 62.542C24.556 62.542 25.384 62.332 26.116 61.912C26.86 61.492 27.442 60.916 27.862 60.184C28.294 59.44 28.51 58.612 28.51 57.7C28.51 56.788 28.294 55.966 27.862 55.234C27.442 54.49 26.86 53.908 26.116 53.488C25.384 53.068 24.556 52.858 23.632 52.858C22.708 52.858 21.868 53.068 21.112 53.488C20.368 53.908 19.78 54.49 19.348 55.234C18.928 55.966 18.718 56.788 18.718 57.7C18.718 58.612 18.928 59.44 19.348 60.184C19.78 60.916 20.368 61.492 21.112 61.912C21.868 62.332 22.708 62.542 23.632 62.542ZM39.8309 55.972H36.3389V64H34.6109V55.972H31.1189V54.46H39.8309V55.972ZM48.0958 59.05C49.3318 59.362 49.9498 60.136 49.9498 61.372C49.9498 62.212 49.6318 62.86 48.9958 63.316C48.3718 63.772 47.4358 64 46.1878 64H41.5978V54.46H46.0258C47.1538 54.46 48.0358 54.676 48.6718 55.108C49.3078 55.528 49.6258 56.128 49.6258 56.908C49.6258 57.412 49.4878 57.85 49.2118 58.222C48.9478 58.582 48.5758 58.858 48.0958 59.05ZM43.2898 58.564H45.8818C46.5418 58.564 47.0398 58.444 47.3758 58.204C47.7238 57.964 47.8978 57.616 47.8978 57.16C47.8978 56.248 47.2258 55.792 45.8818 55.792H43.2898V58.564ZM46.0618 62.668C46.7818 62.668 47.3218 62.554 47.6818 62.326C48.0418 62.098 48.2218 61.744 48.2218 61.264C48.2218 60.772 48.0538 60.406 47.7178 60.166C47.3938 59.926 46.8778 59.806 46.1698 59.806H43.2898V62.668H46.0618ZM61.2765 59.284C61.2765 59.416 61.2645 59.59 61.2405 59.806H53.5005C53.6085 60.646 53.9745 61.324 54.5985 61.84C55.2345 62.344 56.0205 62.596 56.9565 62.596C58.0965 62.596 59.0145 62.212 59.7105 61.444L60.6645 62.56C60.2325 63.064 59.6925 63.448 59.0445 63.712C58.4085 63.976 57.6945 64.108 56.9025 64.108C55.8945 64.108 55.0005 63.904 54.2205 63.496C53.4405 63.076 52.8345 62.494 52.4025 61.75C51.9825 61.006 51.7725 60.166 51.7725 59.23C51.7725 58.306 51.9765 57.472 52.3845 56.728C52.8045 55.984 53.3745 55.408 54.0945 55C54.8265 54.58 55.6485 54.37 56.5605 54.37C57.4725 54.37 58.2825 54.58 58.9905 55C59.7105 55.408 60.2685 55.984 60.6645 56.728C61.0725 57.472 61.2765 58.324 61.2765 59.284ZM56.5605 55.828C55.7325 55.828 55.0365 56.08 54.4725 56.584C53.9205 57.088 53.5965 57.748 53.5005 58.564H59.6205C59.5245 57.76 59.1945 57.106 58.6305 56.602C58.0785 56.086 57.3885 55.828 56.5605 55.828ZM70.6629 55.972H67.1709V64H65.4429V55.972H61.9509V54.46H70.6629V55.972ZM86.1018 54.46V64H84.3738V55.972H78.9918V64H77.2638V54.46H86.1018ZM93.5315 64.108C92.5835 64.108 91.7315 63.898 90.9755 63.478C90.2195 63.058 89.6255 62.482 89.1935 61.75C88.7735 61.006 88.5635 60.166 88.5635 59.23C88.5635 58.294 88.7735 57.46 89.1935 56.728C89.6255 55.984 90.2195 55.408 90.9755 55C91.7315 54.58 92.5835 54.37 93.5315 54.37C94.4795 54.37 95.3255 54.58 96.0695 55C96.8255 55.408 97.4135 55.984 97.8335 56.728C98.2655 57.46 98.4815 58.294 98.4815 59.23C98.4815 60.166 98.2655 61.006 97.8335 61.75C97.4135 62.482 96.8255 63.058 96.0695 63.478C95.3255 63.898 94.4795 64.108 93.5315 64.108ZM93.5315 62.596C94.1435 62.596 94.6895 62.458 95.1695 62.182C95.6615 61.894 96.0455 61.498 96.3215 60.994C96.5975 60.478 96.7355 59.89 96.7355 59.23C96.7355 58.57 96.5975 57.988 96.3215 57.484C96.0455 56.968 95.6615 56.572 95.1695 56.296C94.6895 56.02 94.1435 55.882 93.5315 55.882C92.9195 55.882 92.3675 56.02 91.8755 56.296C91.3955 56.572 91.0115 56.968 90.7235 57.484C90.4475 57.988 90.3095 58.57 90.3095 59.23C90.3095 59.89 90.4475 60.478 90.7235 60.994C91.0115 61.498 91.3955 61.894 91.8755 62.182C92.3675 62.458 92.9195 62.596 93.5315 62.596ZM110.608 62.488V66.214H108.988V64H101.014V66.214H99.3764V62.488H99.8804C100.492 62.452 100.912 62.02 101.14 61.192C101.368 60.364 101.524 59.194 101.608 57.682L101.752 54.46H109.15V62.488H110.608ZM103.192 57.808C103.144 59.008 103.042 60.004 102.886 60.796C102.742 61.576 102.472 62.14 102.076 62.488H107.422V55.972H103.282L103.192 57.808ZM117.018 64.108C116.046 64.108 115.176 63.898 114.408 63.478C113.652 63.058 113.058 62.482 112.626 61.75C112.194 61.006 111.978 60.166 111.978 59.23C111.978 58.294 112.194 57.46 112.626 56.728C113.058 55.984 113.652 55.408 114.408 55C115.176 54.58 116.046 54.37 117.018 54.37C117.882 54.37 118.65 54.544 119.322 54.892C120.006 55.24 120.534 55.744 120.906 56.404L119.592 57.25C119.292 56.794 118.92 56.452 118.476 56.224C118.032 55.996 117.54 55.882 117 55.882C116.376 55.882 115.812 56.02 115.308 56.296C114.816 56.572 114.426 56.968 114.138 57.484C113.862 57.988 113.724 58.57 113.724 59.23C113.724 59.902 113.862 60.496 114.138 61.012C114.426 61.516 114.816 61.906 115.308 62.182C115.812 62.458 116.376 62.596 117 62.596C117.54 62.596 118.032 62.482 118.476 62.254C118.92 62.026 119.292 61.684 119.592 61.228L120.906 62.056C120.534 62.716 120.006 63.226 119.322 63.586C118.65 63.934 117.882 64.108 117.018 64.108ZM126.851 59.968H124.871V64H123.143V54.46H124.871V58.492H126.887L129.983 54.46H131.837L128.219 59.05L132.089 64H130.055L126.851 59.968ZM137.127 54.37C138.447 54.37 139.455 54.694 140.151 55.342C140.859 55.99 141.213 56.956 141.213 58.24V64H139.575V62.74C139.287 63.184 138.873 63.526 138.333 63.766C137.805 63.994 137.175 64.108 136.443 64.108C135.375 64.108 134.517 63.85 133.869 63.334C133.233 62.818 132.915 62.14 132.915 61.3C132.915 60.46 133.221 59.788 133.833 59.284C134.445 58.768 135.417 58.51 136.749 58.51H139.485V58.168C139.485 57.424 139.269 56.854 138.837 56.458C138.405 56.062 137.769 55.864 136.929 55.864C136.365 55.864 135.813 55.96 135.273 56.152C134.733 56.332 134.277 56.578 133.905 56.89L133.185 55.594C133.677 55.198 134.265 54.898 134.949 54.694C135.633 54.478 136.359 54.37 137.127 54.37ZM136.731 62.776C137.391 62.776 137.961 62.632 138.441 62.344C138.921 62.044 139.269 61.624 139.485 61.084V59.752H136.821C135.357 59.752 134.625 60.244 134.625 61.228C134.625 61.708 134.811 62.086 135.183 62.362C135.555 62.638 136.071 62.776 136.731 62.776ZM153 59.968H151.146V64H149.418V59.968H147.564L144.936 64H142.884L146.16 59.068L143.136 54.46H144.972L147.546 58.492H149.418V54.46H151.146V58.492H153.018L155.592 54.46H157.446L154.422 59.086L157.698 64H155.646L153 59.968ZM167.569 54.46L162.943 64.954C162.535 65.926 162.055 66.61 161.503 67.006C160.963 67.402 160.309 67.6 159.541 67.6C159.073 67.6 158.617 67.522 158.173 67.366C157.741 67.222 157.381 67.006 157.093 66.718L157.831 65.422C158.323 65.89 158.893 66.124 159.541 66.124C159.961 66.124 160.309 66.01 160.585 65.782C160.873 65.566 161.131 65.188 161.359 64.648L161.665 63.982L157.453 54.46H159.253L162.583 62.092L165.877 54.46H167.569ZM176.501 55.972H173.009V64H171.281V55.972H167.789V54.46H176.501V55.972ZM27.862 84.488V88.286H26.224V86H17.674V76.46H19.402V84.488H24.622V76.46H26.35V84.488H27.862ZM30.1017 76.46H31.8297V83.408L37.6797 76.46H39.2457V86H37.5177V79.052L31.6857 86H30.1017V76.46ZM54.6418 81.212C54.6418 82.688 54.1498 83.852 53.1658 84.704C52.1818 85.556 50.7958 86.03 49.0078 86.126V89.492H47.3158V86.126C45.5278 86.03 44.1418 85.562 43.1578 84.722C42.1858 83.87 41.6998 82.7 41.6998 81.212C41.6998 79.736 42.1858 78.584 43.1578 77.756C44.1298 76.928 45.5158 76.466 47.3158 76.37V72.644H49.0078V76.37C50.7958 76.466 52.1818 76.934 53.1658 77.774C54.1498 78.602 54.6418 79.748 54.6418 81.212ZM43.4098 81.212C43.4098 82.232 43.7338 83.03 44.3818 83.606C45.0418 84.182 46.0198 84.512 47.3158 84.596V77.9C46.0078 77.984 45.0298 78.308 44.3818 78.872C43.7338 79.436 43.4098 80.216 43.4098 81.212ZM49.0078 84.614C51.6238 84.41 52.9318 83.276 52.9318 81.212C52.9318 80.204 52.6018 79.424 51.9418 78.872C51.2818 78.308 50.3038 77.984 49.0078 77.9V84.614ZM62.1422 76.37C63.0662 76.37 63.8942 76.574 64.6262 76.982C65.3582 77.39 65.9282 77.96 66.3362 78.692C66.7562 79.424 66.9662 80.27 66.9662 81.23C66.9662 82.19 66.7562 83.042 66.3362 83.786C65.9282 84.518 65.3582 85.088 64.6262 85.496C63.8942 85.904 63.0662 86.108 62.1422 86.108C61.4582 86.108 60.8282 85.976 60.2522 85.712C59.6882 85.448 59.2082 85.064 58.8122 84.56V89.492H57.0842V76.46H58.7402V77.972C59.1242 77.444 59.6102 77.048 60.1982 76.784C60.7862 76.508 61.4342 76.37 62.1422 76.37ZM61.9982 84.596C62.6102 84.596 63.1562 84.458 63.6362 84.182C64.1282 83.894 64.5122 83.498 64.7882 82.994C65.0762 82.478 65.2202 81.89 65.2202 81.23C65.2202 80.57 65.0762 79.988 64.7882 79.484C64.5122 78.968 64.1282 78.572 63.6362 78.296C63.1562 78.02 62.6102 77.882 61.9982 77.882C61.3982 77.882 60.8522 78.026 60.3602 78.314C59.8802 78.59 59.4962 78.98 59.2082 79.484C58.9322 79.988 58.7942 80.57 58.7942 81.23C58.7942 81.89 58.9322 82.478 59.2082 82.994C59.4842 83.498 59.8682 83.894 60.3602 84.182C60.8522 84.458 61.3982 84.596 61.9982 84.596ZM73.7787 79.7C74.9787 79.712 75.8967 79.988 76.5327 80.528C77.1687 81.068 77.4867 81.83 77.4867 82.814C77.4867 83.846 77.1387 84.644 76.4427 85.208C75.7587 85.76 74.7747 86.03 73.4907 86.018L69.4767 86V76.46H71.2047V79.682L73.7787 79.7ZM78.9087 76.46H80.6367V86H78.9087V76.46ZM73.3647 84.704C74.1447 84.716 74.7327 84.56 75.1287 84.236C75.5367 83.912 75.7407 83.432 75.7407 82.796C75.7407 82.172 75.5427 81.716 75.1467 81.428C74.7507 81.14 74.1567 80.99 73.3647 80.978L71.2047 80.942V84.686L73.3647 84.704ZM83.7263 73.4H85.7603L85.4183 82.022H84.0503L83.7263 73.4ZM84.7523 86.108C84.4163 86.108 84.1343 86 83.9063 85.784C83.6783 85.556 83.5643 85.28 83.5643 84.956C83.5643 84.632 83.6783 84.362 83.9063 84.146C84.1343 83.918 84.4163 83.804 84.7523 83.804C85.0883 83.804 85.3643 83.918 85.5803 84.146C85.7963 84.362 85.9043 84.632 85.9043 84.956C85.9043 85.28 85.7903 85.556 85.5623 85.784C85.3463 86 85.0763 86.108 84.7523 86.108Z" fill="#333E63"/>
<defs>
<filter id="filter0_d_1103_2755" x="0" y="33" width="290" height="79" filterUnits="userSpaceOnUse" color-interpolation-filters="sRGB">
<feFlood flood-opacity="0" result="BackgroundImageFix"/>
<feColorMatrix in="SourceAlpha" type="matrix" values="0 0 0 0 0 0 0 0 0 0 0 0 0 0 0 0 0 0 127 0" result="hardAlpha"/>
<feOffset dx="5" dy="5"/>
<feComposite in2="hardAlpha" operator="out"/>
<feColorMatrix type="matrix" values="0 0 0 0 0.2 0 0 0 0 0.243137 0 0 0 0 0.388235 0 0 0 1 0"/>
<feBlend mode="normal" in2="BackgroundImageFix" result="effect1_dropShadow_1103_2755"/>
<feBlend mode="normal" in="SourceGraphic" in2="effect1_dropShadow_1103_2755" result="shape"/>
</filter>
<clipPath id="clip0_1103_2755">
<rect width="351" height="338" fill="white" transform="translate(215 69.2402) rotate(-11.3771)"/>
</clipPath>
</defs>
</svg>
