<svg width="436" height="502" viewBox="0 0 436 502" fill="none" xmlns="http://www.w3.org/2000/svg">
<path d="M150.761 495.694C233.388 495.694 300.371 428.591 300.371 345.815C300.371 263.039 233.388 195.936 150.761 195.936C68.1339 195.936 1.15137 263.039 1.15137 345.815C1.15137 428.591 68.1339 495.694 150.761 495.694Z" fill="#B0BEC5"/>
<path d="M55.4473 328.5V353H49.8123V333.12H38.7523V353H33.1173V328.5H55.4473ZM69.9206 353.28C67.9373 353.28 66.1523 352.872 64.5656 352.055C63.0023 351.215 61.7773 350.06 60.8906 348.59C60.0039 347.12 59.5606 345.452 59.5606 343.585C59.5606 341.718 60.0039 340.05 60.8906 338.58C61.7773 337.11 63.0023 335.967 64.5656 335.15C66.1523 334.31 67.9373 333.89 69.9206 333.89C71.9039 333.89 73.6773 334.31 75.2406 335.15C76.8039 335.967 78.0289 337.11 78.9156 338.58C79.8023 340.05 80.2456 341.718 80.2456 343.585C80.2456 345.452 79.8023 347.12 78.9156 348.59C78.0289 350.06 76.8039 351.215 75.2406 352.055C73.6773 352.872 71.9039 353.28 69.9206 353.28ZM69.9206 348.8C71.3206 348.8 72.4639 348.333 73.3506 347.4C74.2606 346.443 74.7156 345.172 74.7156 343.585C74.7156 341.998 74.2606 340.738 73.3506 339.805C72.4639 338.848 71.3206 338.37 69.9206 338.37C68.5206 338.37 67.3656 338.848 66.4556 339.805C65.5456 340.738 65.0906 341.998 65.0906 343.585C65.0906 345.172 65.5456 346.443 66.4556 347.4C67.3656 348.333 68.5206 348.8 69.9206 348.8ZM104.833 348.52V357.06H99.7575V353H86.5275V357.06H81.4525V348.52H82.2225C83.3892 348.497 84.1942 347.808 84.6375 346.455C85.0809 345.102 85.3609 343.177 85.4775 340.68L85.7225 334.17H102.138V348.52H104.833ZM90.4125 341.065C90.3425 342.978 90.1909 344.542 89.9575 345.755C89.7475 346.968 89.3392 347.89 88.7325 348.52H96.6775V338.65H90.5175L90.4125 341.065ZM126.994 334.17V353H121.534V338.65H113.694V353H108.269V334.17H126.994ZM132.229 334.17H137.654V345.37L146.824 334.17H151.829V353H146.404V341.8L137.269 353H132.229V334.17ZM166.037 353.28C164.03 353.28 162.222 352.872 160.612 352.055C159.025 351.215 157.777 350.06 156.867 348.59C155.98 347.12 155.537 345.452 155.537 343.585C155.537 341.718 155.98 340.05 156.867 338.58C157.777 337.11 159.025 335.967 160.612 335.15C162.222 334.31 164.03 333.89 166.037 333.89C168.02 333.89 169.747 334.31 171.217 335.15C172.71 335.967 173.795 337.145 174.472 338.685L170.237 340.96C169.257 339.233 167.845 338.37 166.002 338.37C164.579 338.37 163.4 338.837 162.467 339.77C161.534 340.703 161.067 341.975 161.067 343.585C161.067 345.195 161.534 346.467 162.467 347.4C163.4 348.333 164.579 348.8 166.002 348.8C167.869 348.8 169.28 347.937 170.237 346.21L174.472 348.52C173.795 350.013 172.71 351.18 171.217 352.02C169.747 352.86 168.02 353.28 166.037 353.28ZM185.105 333.89C188.022 333.89 190.262 334.59 191.825 335.99C193.388 337.367 194.17 339.455 194.17 342.255V353H189.06V350.655C188.033 352.405 186.12 353.28 183.32 353.28C181.873 353.28 180.613 353.035 179.54 352.545C178.49 352.055 177.685 351.378 177.125 350.515C176.565 349.652 176.285 348.672 176.285 347.575C176.285 345.825 176.938 344.448 178.245 343.445C179.575 342.442 181.617 341.94 184.37 341.94H188.71C188.71 340.75 188.348 339.84 187.625 339.21C186.902 338.557 185.817 338.23 184.37 338.23C183.367 338.23 182.375 338.393 181.395 338.72C180.438 339.023 179.622 339.443 178.945 339.98L176.985 336.165C178.012 335.442 179.237 334.882 180.66 334.485C182.107 334.088 183.588 333.89 185.105 333.89ZM184.685 349.605C185.618 349.605 186.447 349.395 187.17 348.975C187.893 348.532 188.407 347.89 188.71 347.05V345.125H184.965C182.725 345.125 181.605 345.86 181.605 347.33C181.605 348.03 181.873 348.59 182.41 349.01C182.97 349.407 183.728 349.605 184.685 349.605ZM216.973 334.17V353H211.513V338.65H205.563L205.388 341.975C205.295 344.448 205.061 346.502 204.688 348.135C204.315 349.768 203.708 351.052 202.868 351.985C202.028 352.918 200.861 353.385 199.368 353.385C198.575 353.385 197.63 353.245 196.533 352.965L196.813 348.485C197.186 348.532 197.455 348.555 197.618 348.555C198.435 348.555 199.041 348.263 199.438 347.68C199.858 347.073 200.138 346.315 200.278 345.405C200.418 344.472 200.523 343.247 200.593 341.73L200.873 334.17H216.973ZM231.184 353.28C229.177 353.28 227.369 352.872 225.759 352.055C224.172 351.215 222.924 350.06 222.014 348.59C221.127 347.12 220.684 345.452 220.684 343.585C220.684 341.718 221.127 340.05 222.014 338.58C222.924 337.11 224.172 335.967 225.759 335.15C227.369 334.31 229.177 333.89 231.184 333.89C233.167 333.89 234.894 334.31 236.364 335.15C237.857 335.967 238.942 337.145 239.619 338.685L235.384 340.96C234.404 339.233 232.992 338.37 231.149 338.37C229.725 338.37 228.547 338.837 227.614 339.77C226.68 340.703 226.214 341.975 226.214 343.585C226.214 345.195 226.68 346.467 227.614 347.4C228.547 348.333 229.725 348.8 231.149 348.8C233.015 348.8 234.427 347.937 235.384 346.21L239.619 348.52C238.942 350.013 237.857 351.18 236.364 352.02C234.894 352.86 233.167 353.28 231.184 353.28ZM259.188 334.17V353H254.323V347.61H250.298L246.728 353H240.918L245.223 346.84C243.916 346.327 242.913 345.592 242.213 344.635C241.536 343.655 241.198 342.477 241.198 341.1C241.198 338.883 241.991 337.18 243.578 335.99C245.188 334.777 247.393 334.17 250.193 334.17H259.188ZM250.298 338.615C249.131 338.615 248.245 338.825 247.638 339.245C247.055 339.665 246.763 340.342 246.763 341.275C246.763 342.208 247.043 342.897 247.603 343.34C248.186 343.76 249.061 343.97 250.228 343.97H254.323V338.615H250.298ZM263.631 328.5H270.141L269.056 344.495H264.716L263.631 328.5ZM266.886 353.28C265.929 353.28 265.124 352.977 264.471 352.37C263.841 351.74 263.526 350.982 263.526 350.095C263.526 349.208 263.841 348.473 264.471 347.89C265.101 347.283 265.906 346.98 266.886 346.98C267.866 346.98 268.671 347.283 269.301 347.89C269.931 348.473 270.246 349.208 270.246 350.095C270.246 350.982 269.919 351.74 269.266 352.37C268.636 352.977 267.842 353.28 266.886 353.28Z" fill="white"/>
<path d="M150.761 496.482C67.8065 496.482 0.476562 429.031 0.476562 345.815C0.476562 262.711 67.8065 195.26 150.761 195.26C233.715 195.26 301.045 262.711 301.045 345.815C300.932 429.031 233.715 496.37 150.761 496.482ZM150.761 196.724C68.5934 196.724 1.93781 263.499 1.93781 345.815C1.93781 428.13 68.5934 494.906 150.761 494.906C232.928 494.906 299.584 428.13 299.584 345.815C299.471 263.499 232.928 196.836 150.761 196.724Z" fill="#2E353A"/>
<path d="M354.099 219.808C354.099 219.808 349.265 228.929 348.479 230.167C347.692 231.406 345.107 238.275 345.893 239.964C346.68 241.541 347.467 242.554 348.928 242.779C350.502 243.005 351.738 245.82 354.324 246.383C355.897 246.721 357.583 246.833 359.157 246.946C359.944 247.509 361.068 247.734 361.967 247.396C363.541 246.946 364.777 246.158 365.789 241.766C366.463 239.626 366.576 237.374 366.238 235.122L365.789 226.339L354.099 219.808Z" fill="white"/>
<path d="M361.181 248.297C360.394 248.297 359.607 248.071 359.045 247.621C357.471 247.621 355.898 247.396 354.324 247.058C352.863 246.608 351.514 245.819 350.615 244.693C350.165 244.13 349.603 243.792 349.041 243.455C347.355 243.117 346.006 241.878 345.332 240.189C344.32 238.05 347.355 230.617 347.917 229.717C348.704 228.478 353.425 219.469 353.537 219.357C353.65 219.132 353.875 219.019 353.987 219.019C354.212 218.906 354.437 218.906 354.549 219.019L366.351 225.438C366.576 225.55 366.801 225.888 366.801 226.113L367.251 234.897C367.588 237.149 367.363 239.513 366.689 241.766C365.677 246.157 364.328 247.283 362.305 247.959C361.968 248.184 361.63 248.297 361.181 248.297ZM354.437 220.933C353.312 223.073 349.828 229.491 349.154 230.617C348.254 232.081 346.119 238.613 346.568 239.513C347.355 241.09 348.03 241.766 349.041 241.878C350.053 242.216 350.84 242.779 351.514 243.455C352.301 244.355 353.312 245.031 354.437 245.369C356.01 245.707 357.584 245.819 359.158 245.819C359.382 245.819 359.495 245.932 359.72 246.045C360.282 246.495 361.068 246.608 361.743 246.382C362.867 246.045 363.991 245.594 365.002 241.315C365.565 239.288 365.789 237.149 365.452 235.009L365.002 226.564L354.437 220.933Z" fill="#2E353A"/>
<path d="M382.313 464.39C382.313 464.39 375.344 475.65 375.344 478.465C375.344 481.168 384.898 486.235 388.945 488.037C392.991 489.839 400.297 491.303 406.255 492.091C412.212 492.992 424.464 495.357 420.867 490.74C417.27 486.123 395.352 473.961 394.452 472.497C393.328 471.146 392.092 469.907 390.631 468.781L382.313 464.39Z" fill="white"/>
<path d="M417.945 494.23C414.46 494.118 410.975 493.667 407.603 493.104L406.142 492.879C397.937 491.64 391.979 490.176 388.72 488.712C388.158 488.487 374.557 482.406 374.557 478.353C374.557 475.425 380.851 465.065 381.638 463.826C381.863 463.489 382.313 463.376 382.762 463.489L391.192 467.993C392.654 469.119 394.115 470.47 395.239 471.934C395.576 472.384 399.173 474.637 402.658 476.776C410.076 481.393 419.181 487.136 421.541 490.064C422.441 491.19 422.666 492.091 422.104 492.879C421.541 493.667 420.193 494.23 417.945 494.23ZM382.537 465.403C379.952 469.794 376.13 476.663 376.13 478.465C376.13 480.267 383.099 484.546 389.282 487.249C392.541 488.712 398.274 490.064 406.367 491.302L407.828 491.528C410.863 491.978 419.968 493.442 420.642 492.203C420.642 492.203 420.642 491.865 420.193 491.302C417.945 488.6 408.615 482.632 401.646 478.24C396.138 474.749 394.115 473.511 393.665 472.947C392.541 471.709 391.417 470.47 390.068 469.457L382.537 465.403Z" fill="#2E353A"/>
<path d="M393.217 482.181L395.69 485.784C398.275 489.726 401.872 492.991 406.031 495.356C412.55 498.847 422.554 502.901 431.322 500.536C445.597 496.595 409.628 474.749 409.628 474.749C409.628 474.749 396.589 483.645 393.217 482.181Z" fill="white"/>
<path d="M425.588 502C418.395 502 410.976 498.96 405.693 496.032C401.422 493.667 397.712 490.289 395.015 486.235L392.542 482.519C392.317 482.181 392.317 481.843 392.542 481.506C392.766 481.28 393.216 481.168 393.553 481.28C395.689 482.181 403.894 477.564 409.065 473.961C409.29 473.736 409.627 473.736 409.964 473.961C412.662 475.537 436.492 490.289 435.48 497.608C435.255 499.185 433.906 500.423 431.546 501.099C429.523 501.775 427.499 502 425.588 502ZM394.79 483.082L396.251 485.334C398.836 489.163 402.208 492.428 406.367 494.568C412.999 498.171 422.666 501.887 430.984 499.635C433.569 498.96 433.682 497.833 433.682 497.496C434.468 492.203 416.821 480.267 409.402 475.65C406.929 477.452 399.173 482.519 394.79 483.082Z" fill="#2E353A"/>
<path d="M397.262 483.87C401.196 489.838 407.153 494.23 414.122 496.144C425.925 499.522 429.297 498.622 431.77 495.243" fill="white"/>
<path d="M425.363 499.072C421.429 498.847 417.607 498.171 413.898 496.933C406.816 495.018 400.634 490.514 396.588 484.321C396.363 483.983 396.475 483.42 396.812 483.195C397.15 482.969 397.712 483.082 397.937 483.532C401.758 489.275 407.603 493.554 414.235 495.356C425.7 498.622 428.848 497.833 430.983 494.793C431.208 494.455 431.77 494.343 432.107 494.68C432.445 494.906 432.557 495.469 432.22 495.807C430.871 498.059 428.173 499.297 425.363 499.072Z" fill="#2E353A"/>
<path d="M376.244 476.325C376.244 476.325 389.283 485.672 395.578 485.784L376.244 476.325Z" fill="white"/>
<path d="M395.576 486.685C389.057 486.46 376.355 477.451 375.793 477.001C375.456 476.775 375.343 476.212 375.568 475.875C375.793 475.537 376.355 475.424 376.692 475.649C376.805 475.762 389.619 484.883 395.576 484.996C396.026 484.996 396.363 485.334 396.363 485.897C396.363 486.347 396.026 486.685 395.576 486.685Z" fill="#2E353A"/>
<path d="M348.031 222.961C348.031 222.961 359.608 242.104 362.081 246.608C364.554 251 395.69 286.696 408.054 317.438C420.419 348.179 432.221 375.881 431.772 384.777C431.322 393.672 390.744 468.894 390.744 468.894L382.314 464.502C382.314 464.502 395.128 393.672 393.667 386.24C392.205 378.808 346.794 305.051 346.794 305.051C346.794 305.051 325.55 290.187 316.67 272.846" fill="#2E353A"/>
<path d="M349.716 270.819C349.716 270.819 343.309 284.67 343.309 286.696C343.309 288.723 379.391 395.137 389.732 419.347C396.252 434.887 402.097 450.764 407.042 466.867C407.042 466.867 410.977 471.709 408.054 476.776C405.132 481.844 393.217 485.222 390.744 480.717C388.271 476.213 364.104 453.016 353.651 429.707C343.309 406.397 328.472 366.872 320.042 352.008C308.914 332.978 299.022 313.384 290.367 293.115C279.464 267.441 268.336 239.514 268.336 239.514C282.948 240.753 297.786 239.064 311.836 234.672C334.542 227.24 344.321 213.052 344.321 213.052C344.321 213.052 350.054 227.916 351.627 230.731" fill="#2E353A"/>
<path d="M353.088 312.596C352.863 312.596 352.639 312.483 352.526 312.258L341.174 282.642C341.061 282.417 341.173 282.192 341.286 281.967L353.988 271.044C354.212 270.819 354.55 270.819 354.774 271.044C354.999 271.269 354.999 271.607 354.774 271.832L342.298 282.53L353.538 311.807C353.65 312.145 353.538 312.371 353.201 312.596H353.088Z" fill="white"/>
<path d="M341.736 282.98C341.624 282.98 341.511 282.98 341.399 282.867C341.286 282.755 341.174 282.642 341.174 282.417C341.174 282.304 341.174 273.408 337.128 267.778C336.116 266.314 335.329 265.188 334.655 264.287C332.631 261.359 331.957 260.458 331.62 258.995C331.395 257.305 331.395 255.504 331.62 253.815C331.732 253.477 331.957 253.364 332.294 253.364C332.631 253.364 332.856 253.702 332.744 254.04C332.519 255.616 332.519 257.193 332.744 258.882C333.081 260.121 333.643 260.909 335.666 263.837C336.341 264.738 337.128 265.864 338.139 267.327C341.736 272.507 342.298 279.939 342.298 282.079L365.341 281.178C365.678 281.178 365.903 281.403 365.903 281.741C365.903 282.079 365.678 282.304 365.453 282.304L341.736 282.98Z" fill="white"/>
<path d="M419.068 388.38C408.84 388.38 395.688 381.736 395.126 381.398C394.902 381.286 394.789 380.948 394.902 380.61C395.014 380.385 395.351 380.272 395.688 380.385C395.801 380.498 410.638 388.042 420.867 387.141C421.204 387.141 421.429 387.367 421.429 387.592C421.429 387.93 421.204 388.155 420.979 388.155C420.305 388.38 419.743 388.38 419.068 388.38Z" fill="white"/>
<path d="M417.72 396.938H417.608C408.503 394.686 398.274 386.24 397.825 385.903C397.6 385.677 397.6 385.34 397.825 385.114C398.05 384.889 398.387 384.889 398.612 385.002C398.724 385.114 409.065 393.56 417.945 395.812C418.282 395.925 418.395 396.15 418.282 396.488C418.17 396.825 417.945 396.938 417.72 396.938Z" fill="white"/>
<path d="M341.285 274.31C341.06 274.31 340.948 274.197 340.836 274.085C340.611 273.859 340.723 273.522 340.948 273.296C343.196 271.72 346.568 268.792 346.568 267.328C346.568 266.315 345.332 265.189 344.095 264.063C342.746 262.937 341.51 261.473 340.723 259.784C339.936 257.869 336.901 250.212 337.463 248.41C337.576 248.073 337.913 247.96 338.138 248.073C338.475 248.185 338.588 248.523 338.475 248.748C338.138 249.762 339.936 255.279 341.622 259.333C342.409 260.797 343.533 262.148 344.77 263.162C346.231 264.626 347.58 265.864 347.58 267.328C347.58 269.806 342.072 273.747 341.398 274.197C341.398 274.31 341.398 274.31 341.285 274.31Z" fill="white"/>
<path d="M388.27 127.808C380.851 122.966 323.075 77.8106 317.568 75.7837C312.172 73.7567 301.269 75.7837 301.269 75.7837C301.269 75.7837 267.773 79.8375 260.804 82.7653C260.129 82.9905 245.067 91.6612 244.505 92.2242C239.11 96.7285 215.28 107.651 208.873 121.502C201.567 137.154 265.412 231.631 268.335 239.514C271.257 247.396 286.881 249.423 301.157 247.396C315.432 245.369 328.021 242.554 338.475 230.618C340.386 228.253 341.959 225.663 343.196 222.848C344.657 219.807 345.107 216.204 344.32 212.938C340.61 197.511 331.169 152.919 324.874 123.416C335.215 130.173 356.909 143.798 369.498 148.64C386.246 155.171 399.173 150.667 399.173 145.149C399.173 139.744 395.688 132.763 388.27 127.808Z" fill="#B0BEC5" stroke="#263238" stroke-miterlimit="10"/>
<path d="M368.149 137.379C358.258 136.366 348.703 133.326 339.936 128.483C339.936 128.483 352.75 122.515 353.312 119.588C353.761 116.66 335.552 119.137 338.025 118.124C340.498 117.11 343.982 114.633 338.025 114.633C333.304 114.295 328.695 113.282 324.199 111.705L324.874 123.416C330.494 127.132 339.486 132.763 348.478 137.942C356.909 142.447 365.676 146.388 374.556 149.766C374.556 149.766 385.459 139.406 368.149 137.379Z" fill="#B0BEC5"/>
<path d="M301.269 247.397L303.067 247.171C307.002 245.257 313.746 244.018 320.265 242.442C330.157 239.964 319.254 239.964 302.955 231.519C286.656 223.074 280.249 210.687 265.412 192.895C250.575 175.103 244.617 166.207 247.652 164.18C250.575 162.266 241.695 162.153 238.21 160.239C234.726 158.325 243.044 158.325 250.013 151.343C256.982 144.362 236.637 152.807 234.726 152.357C232.815 151.906 236.637 145.375 236.637 145.375L222.361 160.239L256.982 219.583L259.005 221.047L261.253 224.312L267.773 238.275C267.997 238.726 268.222 239.176 268.335 239.401C271.257 247.397 286.881 249.311 301.269 247.397Z" fill="#B0BEC5"/>
<path d="M235.739 109.003C246.642 107.426 277.104 124.767 277.104 124.767C260.356 113.394 245.743 102.697 235.627 97.8545L217.305 110.917L216.068 112.156C218.092 111.705 226.297 110.354 235.739 109.003Z" fill="#B0BEC5"/>
<path d="M368.149 137.379C358.258 136.366 348.703 133.326 339.936 128.483C339.936 128.483 352.75 122.515 353.312 119.588C353.761 116.66 335.552 119.137 338.025 118.124C340.498 117.11 343.982 114.633 338.025 114.633C333.304 114.295 328.695 113.282 324.199 111.705L324.874 123.416C330.494 127.132 339.486 132.763 348.478 137.942C356.909 142.447 365.676 146.388 374.556 149.766C374.556 149.766 385.459 139.406 368.149 137.379Z" fill="#B0BEC5"/>
<path d="M301.269 247.397L303.067 247.171C307.002 245.257 313.746 244.018 320.265 242.442C330.157 239.964 319.254 239.964 302.955 231.519C286.656 223.074 280.249 210.687 265.412 192.895C250.575 175.103 244.617 166.207 247.652 164.18C250.575 162.266 241.695 162.153 238.21 160.239C234.726 158.325 243.044 158.325 250.013 151.343C256.982 144.362 236.637 152.807 234.726 152.357C232.815 151.906 236.637 145.375 236.637 145.375L222.361 160.239L256.982 219.583L259.005 221.047L261.253 224.312L267.773 238.275C267.997 238.726 268.222 239.176 268.335 239.401C271.257 247.397 286.881 249.311 301.269 247.397Z" fill="#B0BEC5"/>
<path d="M290.816 248.86C279.913 248.86 270.022 246.27 267.549 239.739C266.874 237.825 262.041 229.942 255.971 220.146C230.118 178.143 202.916 132.312 208.087 121.052C212.92 110.467 227.42 101.796 236.862 96.0532C239.335 94.7019 241.696 93.1254 243.944 91.5489C244.506 91.0985 259.68 82.3152 260.467 81.9774C267.549 79.1622 299.809 75.1083 301.157 74.9957C301.607 74.8831 312.285 72.9688 317.793 74.9957C321.39 76.347 346.119 95.0397 365.902 110.129C376.693 118.237 385.91 125.331 388.608 127.133C396.926 132.65 399.848 140.082 399.848 145.15C399.736 147.064 398.612 148.753 397.038 149.767C392.205 153.032 381.751 154.271 369.162 149.429C360.394 146.05 345.445 137.718 326.111 125.218C332.631 156.185 341.51 197.962 345.107 212.826C345.894 216.317 345.557 220.033 343.983 223.299C342.747 226.114 341.061 228.816 339.15 231.181C328.247 243.568 315.096 246.383 301.382 248.185C297.785 248.635 294.301 248.86 290.816 248.86ZM310.937 75.784C307.789 75.784 304.53 76.1218 301.382 76.6848C301.045 76.6848 267.886 80.8513 261.029 83.5538C260.13 84.0043 245.63 92.3372 244.955 92.9002C242.595 94.5893 240.234 96.1658 237.762 97.5171C228.432 103.147 214.269 111.705 209.548 121.953C204.265 133.326 238.773 189.291 257.32 219.47C263.952 230.168 268.335 237.374 269.122 239.401C272.045 247.059 287.669 248.635 301.157 246.721C314.534 244.919 327.46 242.216 337.914 230.168C339.712 227.803 341.286 225.326 342.522 222.623C343.871 219.695 344.321 216.43 343.534 213.277C339.937 198.075 330.72 154.946 324.088 123.754C323.975 123.417 324.2 123.079 324.425 122.854C324.65 122.628 325.1 122.628 325.324 122.854C345.445 135.916 360.844 144.587 369.724 147.965C381.751 152.582 391.867 151.456 396.139 148.528C397.375 147.852 398.162 146.614 398.275 145.262C398.275 140.645 395.464 133.776 387.821 128.596C385.123 126.795 375.794 119.813 365.115 111.593C346.344 97.4044 320.716 77.9235 317.344 76.6848C315.32 76.1218 313.072 75.784 310.937 75.784Z" fill="#2E353A"/>
<path d="M216.742 111.368C216.742 111.368 210.785 117.899 208.537 120.94C196.172 136.817 156.718 187.941 156.381 191.994C156.044 196.048 157.843 198.863 167.397 202.579C177.064 206.295 241.471 141.659 241.471 141.659" fill="#B0BEC5"/>
<path d="M216.742 111.368C216.742 111.368 210.785 117.899 208.537 120.94C196.172 136.817 156.718 187.941 156.381 191.994C156.044 196.048 157.843 198.863 167.397 202.579C177.064 206.295 241.471 141.659 241.471 141.659" stroke="#263238" stroke-miterlimit="10"/>
<path opacity="0.8" d="M216.855 111.48L216.068 112.044C214.831 113.395 212.246 116.323 210.223 118.687L180.323 157.987C180.323 157.987 179.424 159 177.963 160.802C166.722 175.779 156.943 189.292 156.381 191.769C156.381 191.882 156.381 191.882 156.381 191.994C156.044 195.935 157.842 198.863 167.509 202.579C169.195 203.255 172.567 201.791 177.064 198.863C174.815 198.413 172.68 197.512 170.657 196.273C165.261 192.782 169.645 189.292 169.645 189.292C169.645 189.292 176.726 192.107 183.695 194.021C185.157 192.895 186.618 191.769 188.192 190.53C186.73 189.517 185.269 188.503 184.033 187.265C178.075 181.86 173.129 176.342 173.129 176.342L218.428 113.057L216.855 111.48Z" fill="#B0BEC5"/>
<path d="M216.855 111.48L216.068 112.044C214.831 113.395 212.246 116.323 210.223 118.687L180.323 157.987C180.323 157.987 179.424 159 177.963 160.802C166.722 175.779 156.943 189.292 156.381 191.769C156.381 191.882 156.381 191.882 156.381 191.994C156.044 195.935 157.842 198.863 167.509 202.579C169.195 203.255 172.567 201.791 177.064 198.863C174.815 198.413 172.68 197.512 170.657 196.273C165.261 192.782 169.645 189.292 169.645 189.292C169.645 189.292 176.726 192.107 183.695 194.021C185.157 192.895 186.618 191.769 188.192 190.53C186.73 189.517 185.269 188.503 184.033 187.265C178.075 181.86 173.129 176.342 173.129 176.342L218.428 113.057L216.855 111.48Z" fill="#B0BEC5"/>
<path d="M168.184 203.48C167.846 203.48 167.509 203.48 167.06 203.255C158.067 199.764 154.92 196.724 155.482 191.882C155.932 187.828 188.529 145.375 207.862 120.376C210.223 117.449 215.955 111.03 216.18 110.805C216.405 110.467 216.967 110.354 217.304 110.692C217.641 110.917 217.754 111.481 217.417 111.818C217.417 111.818 217.417 111.818 217.304 111.931C217.304 111.931 211.347 118.462 209.099 121.39C177.85 161.703 157.393 189.404 157.168 192.107C156.831 195.598 158.404 198.3 167.734 201.904C174.478 204.494 215.168 166.996 240.909 141.096C241.246 140.758 241.696 140.758 242.033 141.096C242.37 141.434 242.37 141.884 242.033 142.222C235.626 148.528 180.548 203.48 168.184 203.48Z" fill="#2E353A"/>
<path d="M324.874 124.205C324.537 124.205 324.199 123.98 324.087 123.642C323.975 123.304 324.087 122.854 324.424 122.628L346.68 107.539C347.018 107.314 347.58 107.426 347.804 107.764C348.029 108.102 347.917 108.665 347.58 108.89L329.258 121.277C334.878 119.588 343.083 116.66 343.196 116.66C343.645 116.548 344.095 116.773 344.32 117.223C344.432 117.674 344.207 118.124 343.758 118.349C343.083 118.574 328.134 123.867 324.986 124.317L324.874 124.205Z" fill="#2E353A"/>
<path d="M346.231 117.786C345.893 117.786 345.556 117.448 345.444 117.111C345.331 116.66 345.668 116.21 346.118 116.21L351.176 115.309C351.626 115.196 352.075 115.534 352.188 115.985C352.3 116.435 351.963 116.885 351.513 116.885L346.455 117.786H346.231Z" fill="#2E353A"/>
<path d="M181.11 176.117C177.626 176.004 174.254 176.68 171.106 178.031L181.11 176.117Z" fill="white"/>
<path d="M171.106 178.931C170.656 179.044 170.206 178.706 170.094 178.255C169.982 177.805 170.319 177.355 170.768 177.242C174.028 175.778 177.625 175.102 181.11 175.328C181.559 175.328 181.896 175.778 181.896 176.228C181.896 176.679 181.447 177.017 180.997 177.017C177.738 176.904 174.365 177.58 171.33 178.818C171.33 178.818 171.218 178.931 171.106 178.931Z" fill="#2E353A"/>
<path d="M229.668 153.82C229.668 153.82 242.145 149.991 245.517 147.401L229.668 153.82Z" fill="white"/>
<path d="M229.669 154.608C229.219 154.721 228.77 154.383 228.77 153.933C228.657 153.482 228.995 153.032 229.444 153.032C229.557 153.032 241.809 149.203 245.068 146.839C245.406 146.613 245.968 146.613 246.192 146.951C246.417 147.289 246.417 147.852 246.08 148.077C242.708 150.667 230.456 154.496 230.006 154.608C229.894 154.608 229.781 154.608 229.669 154.608Z" fill="#2E353A"/>
<path d="M248.664 146.163C248.664 146.163 250.687 144.361 251.474 144.361L248.664 146.163Z" fill="white"/>
<path d="M248.665 146.951C248.44 146.951 248.215 146.839 248.103 146.726C247.765 146.388 247.765 145.938 248.103 145.6C249.002 144.699 250.126 143.911 251.475 143.573C251.924 143.573 252.262 143.911 252.262 144.361C252.262 144.812 251.924 145.15 251.475 145.15C250.688 145.6 249.901 146.163 249.227 146.726C248.889 146.951 248.777 146.951 248.665 146.951Z" fill="#2E353A"/>
<path d="M324.875 124.205C324.425 124.205 324.088 123.867 324.088 123.417L322.064 102.472C322.064 102.022 322.402 101.571 322.851 101.571C323.301 101.571 323.751 101.909 323.751 102.36L325.774 123.304C325.774 123.755 325.549 124.093 325.099 124.205C324.987 124.205 324.987 124.205 324.875 124.205Z" fill="#2E353A"/>
<path d="M156.268 192.106C156.268 192.106 153.346 203.142 171.78 207.646C180.547 209.785 238.435 223.974 238.435 223.974C238.435 223.974 243.606 212.826 240.683 212.826C237.761 212.826 184.257 177.242 184.257 177.242" fill="#B0BEC5"/>
<path d="M156.268 192.106C156.268 192.106 153.346 203.142 171.78 207.646C180.547 209.785 238.435 223.974 238.435 223.974C238.435 223.974 243.606 212.826 240.683 212.826C237.761 212.826 184.257 177.242 184.257 177.242" stroke="#263238" stroke-miterlimit="10"/>
<path d="M164.923 205.281L232.141 222.51L233.94 218.231C233.94 218.231 208.649 213.164 192.8 205.169C176.951 197.174 175.939 199.764 170.544 196.273C165.148 192.782 169.532 189.291 169.532 189.291C169.532 189.291 184.369 195.259 192.238 195.71C200.106 196.16 189.765 192.782 183.807 187.264C181.334 185.012 179.086 182.76 177.288 180.846L156.156 191.994C156.268 192.106 154.245 200.101 164.923 205.281Z" fill="#B0BEC5"/>
<path d="M164.923 205.281L232.141 222.51L233.94 218.231C233.94 218.231 208.649 213.164 192.8 205.169C176.951 197.174 175.939 199.764 170.544 196.273C165.148 192.782 169.532 189.291 169.532 189.291C169.532 189.291 184.369 195.259 192.238 195.71C200.106 196.16 189.765 192.782 183.807 187.264C181.334 185.012 179.086 182.76 177.288 180.846L156.156 191.994C156.268 192.106 154.245 200.101 164.923 205.281Z" fill="#B0BEC5"/>
<path d="M238.548 224.988H238.323C238.323 224.988 180.435 210.799 171.668 208.66C164.361 206.858 159.415 203.818 156.943 199.651C155.481 197.399 155.032 194.697 155.481 191.994C155.594 191.544 156.043 191.319 156.493 191.431C156.943 191.544 157.167 191.994 157.055 192.445C156.718 194.697 157.167 196.949 158.404 198.863C160.652 202.579 165.26 205.394 172.117 206.971C180.21 208.998 231.804 221.61 238.211 223.186C240.234 218.795 241.47 214.515 240.908 213.84C237.873 213.84 193.024 184.112 184.144 178.031C183.807 177.806 183.695 177.243 183.92 176.905C184.144 176.567 184.706 176.454 185.044 176.68C206.063 190.755 238.323 211.813 240.908 212.151C241.47 212.151 241.92 212.489 242.257 212.939C243.606 215.079 240.459 222.285 239.335 224.537C239.11 224.763 238.885 224.988 238.548 224.988Z" fill="#2E353A"/>
<path d="M240.797 212.938C240.797 212.938 259.793 221.834 261.254 224.312C262.716 226.789 266.088 239.626 266.088 243.567C266.088 247.509 265.638 247.509 263.165 247.509C260.692 247.509 254.285 238.05 252.824 236.135C251.363 234.221 247.991 234.108 243.382 231.293C240.797 229.717 239.111 227.127 238.549 224.087L240.797 212.938Z" fill="white"/>
<path d="M263.277 248.41C261.142 248.41 257.657 244.131 253.049 237.825C252.711 237.375 252.487 237.037 252.262 236.699C251.363 235.798 250.126 235.123 248.89 234.785C246.866 234.109 244.843 233.096 243.045 231.857C240.235 230.168 238.324 227.353 237.762 224.087C237.762 223.975 237.762 223.975 237.762 223.862L240.01 212.714C240.01 212.489 240.235 212.263 240.459 212.151C240.684 212.038 240.909 212.038 241.134 212.151C244.394 213.615 260.467 221.272 262.041 223.862C263.615 226.452 267.099 239.514 267.099 243.568C266.987 247.735 266.312 248.41 263.277 248.41ZM239.335 224.087C239.897 226.79 241.583 229.154 243.944 230.618C245.63 231.744 247.541 232.645 249.452 233.321C251.025 233.771 252.374 234.56 253.498 235.798C253.723 236.023 253.948 236.361 254.285 236.924C260.243 245.145 262.378 246.834 263.165 246.834C265.301 246.834 265.301 246.834 265.301 243.681C265.301 239.852 261.929 227.24 260.467 224.763C259.568 223.186 248.553 217.556 241.246 214.178L239.335 224.087Z" fill="#2E353A"/>
<path d="M232.704 222.961C232.592 222.961 232.592 222.961 232.479 222.961C232.03 222.848 231.805 222.398 231.917 221.948L234.84 212.714C234.952 212.263 235.402 212.038 235.851 212.151C236.301 212.263 236.526 212.714 236.413 213.164C236.413 213.164 236.413 213.164 236.413 213.277L233.491 222.511C233.266 222.736 233.041 222.961 232.704 222.961Z" fill="#2E353A"/>
<path d="M376.918 143.573C376.918 143.573 372.084 160.351 369.949 170.261C367.925 180.17 354.1 219.808 354.1 219.808L365.902 227.24C365.902 227.24 392.092 172.851 397.038 161.027C401.984 149.203 400.522 140.195 395.577 135.24" fill="#B0BEC5"/>
<path d="M376.918 143.573C376.918 143.573 372.084 160.351 369.949 170.261C367.925 180.17 354.1 219.808 354.1 219.808L365.902 227.24C365.902 227.24 392.092 172.851 397.038 161.027C401.984 149.203 400.522 140.195 395.577 135.24" stroke="#263238" stroke-miterlimit="10"/>
<path d="M366.014 228.14C365.902 228.14 365.677 228.14 365.565 228.028L353.762 220.596C353.425 220.37 353.313 220.033 353.425 219.582C353.537 219.244 367.251 179.945 369.162 170.261C371.072 160.576 376.018 143.685 376.018 143.46C376.131 143.01 376.58 142.785 377.03 142.897C377.479 143.01 377.704 143.46 377.592 143.911C377.592 144.023 372.646 160.802 370.735 170.598C368.937 179.945 356.909 214.402 355.111 219.582L365.677 226.226C368.937 219.357 391.867 171.724 396.363 160.802C400.747 150.217 400.297 141.321 395.014 135.916C394.677 135.578 394.677 135.127 395.014 134.789C395.352 134.452 395.801 134.452 396.138 134.789C401.871 140.532 402.433 150.217 397.712 161.365C392.879 173.076 366.801 227.127 366.576 227.69C366.464 227.915 366.239 228.028 366.127 228.14H366.014Z" fill="#2E353A"/>
<path d="M356.348 214.178C357.247 214.178 368.487 220.371 368.487 220.371L356.348 214.178Z" fill="#2E353A"/>
<path d="M252.375 82.9906C252.375 82.9906 246.98 88.5083 246.867 90.4226C246.867 91.9991 246.867 93.463 247.092 95.1521C247.092 95.1521 258.67 129.047 259.681 128.146C260.693 127.132 267.887 112.493 269.46 109.791C270.922 107.088 274.406 106.075 275.305 106.525C276.205 106.976 294.414 121.84 294.864 119.025C295.313 116.209 286.771 89.9722 281.825 83.7788C276.879 77.5854 255.073 79.3871 252.375 82.9906Z" fill="white" stroke="#263238" stroke-miterlimit="10"/>
<path d="M247.654 74.8835L253.724 94.0266C253.724 94.0266 269.798 120.94 275.193 118.237C280.589 115.534 280.926 86.1442 280.926 85.3559C280.926 84.5677 278.903 73.5322 278.903 73.5322C278.903 73.5322 280.139 76.5726 267.55 76.5726C260.918 76.7978 254.286 76.2348 247.654 74.8835Z" fill="white" stroke="#263238" stroke-miterlimit="10"/>
<path d="M253.387 93.0131C257.883 93.1257 266.201 92.9005 270.81 88.171C274.406 84.3424 277.104 79.6129 278.678 74.6582C277.891 75.4464 275.531 76.7977 267.662 76.6851C260.918 76.7977 254.286 76.2347 247.654 74.8834L253.387 93.0131Z" fill="#263238" stroke="#263238" stroke-miterlimit="10"/>
<path d="M279.913 49.5467C279.913 49.5467 283.061 59.5687 281.599 65.199C280.138 70.8293 277.103 79.3874 273.844 81.3017C270.471 83.216 264.851 82.8782 258.894 81.0765C254.623 79.7253 250.688 77.9235 246.867 75.6714C244.169 76.1218 241.471 75.6714 239.223 73.9823C235.514 71.2798 231.58 68.5772 232.254 64.8612C232.929 61.1452 233.603 60.2443 233.603 60.2443L232.816 54.2762C232.816 54.2762 228.545 44.9298 227.758 40.9886C226.971 37.0474 236.638 22.6337 244.619 19.5933C252.599 16.553 262.041 21.5077 265.413 24.3228C268.785 27.138 276.654 30.5162 276.991 32.2053C277.103 33.7818 279.913 49.5467 279.913 49.5467Z" fill="white" stroke="#263238" stroke-miterlimit="10"/>
<path d="M279.914 49.5467C279.914 49.5467 281.488 46.6189 283.174 47.4072C284.86 48.1954 286.995 53.3753 284.972 56.8661C284.185 58.5552 283.061 60.1317 281.825 61.483C281.937 61.5956 280.588 50.898 279.914 49.5467Z" fill="white" stroke="#263238" stroke-miterlimit="10"/>
<path d="M262.266 44.1416C262.266 44.1416 263.052 49.9971 263.614 50.7854C264.176 51.5736 269.347 52.9249 269.01 54.2762C268.673 55.6275 263.839 57.5418 263.839 57.5418" stroke="#263238" stroke-miterlimit="10"/>
<path d="M253.949 64.861C253.949 64.861 260.918 66.5501 264.066 66.0997C267.1 65.6493 271.484 60.0189 272.159 58.7803" stroke="#263238" stroke-miterlimit="10"/>
<path d="M249.903 50.5604C250.465 52.0243 250.353 53.3756 249.678 53.7134C249.004 54.0512 247.992 53.0378 247.43 51.6865C246.868 50.2226 246.981 48.8713 247.655 48.5335C248.329 48.0831 249.341 49.2091 249.903 50.5604Z" fill="#263238"/>
<path d="M268.448 45.4924C269.01 46.9563 268.898 48.3075 268.223 48.6453C267.549 48.9832 266.537 47.9697 265.975 46.6184C265.413 45.1545 265.525 43.8033 266.2 43.4654C266.874 43.1276 267.886 44.0285 268.448 45.4924Z" fill="#263238"/>
<path d="M241.697 46.7315C243.721 44.2542 246.755 42.5651 249.903 42.3398" stroke="#263238" stroke-miterlimit="10"/>
<path d="M262.604 39.4123C264.627 37.0476 267.999 36.4845 270.697 37.9484" stroke="#263238" stroke-miterlimit="10"/>
<path d="M241.809 24.4353C241.809 24.4353 237.313 37.2725 233.491 41.6641L229.669 45.9432C229.669 45.9432 236.189 60.6946 235.739 61.8207C235.29 62.8342 234.503 63.3972 233.941 62.0459C233.379 60.6946 232.929 59.5686 231.693 59.3434C230.569 59.1181 226.972 58.2173 226.972 58.2173L218.991 44.4793C218.991 44.4793 213.371 40.0876 214.158 35.5834C214.944 31.1917 218.317 23.0841 218.317 23.0841C218.317 23.0841 215.619 22.521 216.518 20.4941C217.305 18.3546 228.882 16.8907 228.882 16.8907C228.882 16.8907 229.22 10.9225 232.592 9.57127C235.964 8.21999 236.189 9.45866 236.189 9.45866C236.189 9.45866 248.553 1.35099 256.197 0.562741C263.84 -0.225505 289.356 15.5394 287.333 18.4672C285.422 21.2823 277.666 24.2101 277.666 24.2101C277.666 24.2101 280.251 45.8306 279.464 46.281L278.565 46.7314L272.608 28.264C272.495 28.4892 248.778 28.1513 241.809 24.4353Z" fill="#263238" stroke="#263238" stroke-miterlimit="10"/>
</svg>
