<svg width="303" height="550" viewBox="0 0 303 550" fill="none" xmlns="http://www.w3.org/2000/svg">
<path d="M118.849 256.505C118.849 256.505 109.264 298.214 108.881 317.857C108.498 337.5 109.648 408.163 109.903 423.342C110.287 438.52 116.932 487.755 116.932 492.219C116.932 496.684 118.082 505.229 118.082 505.229L115.143 521.173C112.204 523.469 109.137 525.383 105.814 527.041C99.1686 530.74 91.3731 535.587 89.0728 538.138C88.1783 539.158 88.3061 540.816 89.3284 541.709C89.584 541.964 89.8396 542.092 90.0952 542.219C92.7789 543.24 95.4625 543.877 98.4018 544.133C104.664 544.515 115.143 544.515 120.638 542.985C126.133 541.454 130.606 536.735 133.29 534.821L135.846 532.908L136.229 536.99C137.507 536.862 138.657 536.607 139.935 536.224C142.619 535.459 145.302 534.311 147.73 532.908C147.73 532.908 148.114 526.658 148.114 522.959C148.114 519.26 146.197 512.627 145.941 511.097C145.558 509.566 145.941 496.301 144.791 491.837C143.641 487.372 142.874 488.52 142.235 480.357C141.468 472.194 148.114 395.153 147.858 392.985C147.603 390.816 157.315 323.979 157.315 323.979C157.315 323.979 176.101 411.097 181.979 427.806C187.858 444.515 190.925 476.658 190.925 478.954C190.925 481.122 194.247 507.398 195.781 511.224C197.314 514.923 201.404 526.403 201.404 526.403C201.404 526.403 207.282 535.332 209.966 539.668C212.522 544.133 221.468 547.832 228.113 548.979C234.758 550.127 239.998 550.51 240.381 541.582C240.765 532.653 237.442 526.786 231.819 522.704C226.196 518.622 225.174 514.923 225.174 514.923C225.557 509.439 225.557 504.081 225.174 498.597C224.407 492.347 220.317 487.5 219.934 474.49C219.551 461.479 216.995 393.367 214.694 382.653C212.394 371.939 209.583 300.127 209.966 290.051C210.35 280.102 209.072 252.168 209.072 252.168L118.465 251.275L118.849 256.505Z" fill="#263238" stroke="#263238" stroke-width="0.75" stroke-miterlimit="10"/>
<path d="M154.248 107.398C154.248 107.398 140.446 115.562 130.734 120.409C121.021 125.256 109.009 128.062 107.858 130.74C106.708 133.419 85.6222 178.317 81.6606 184.312C77.699 190.434 68.2422 202.296 70.0313 208.929C71.8205 215.562 79.4881 224.745 84.3443 224.235C89.2005 223.597 99.0406 220.919 103.002 213.904C106.964 206.888 116.421 184.312 116.421 184.312C116.421 184.312 117.954 205.358 117.571 215.689C117.315 226.021 117.315 234.567 116.676 239.796C116.037 245.026 113.354 251.404 114.504 253.189C115.654 254.975 117.187 256.888 118.849 256.506C120.51 256.123 143.257 255.868 150.158 256.251C157.059 256.506 188.88 256.251 195.653 256.506C202.426 256.761 208.177 253.444 208.816 252.169C209.455 250.893 210.605 249.108 210.094 242.475C209.455 235.842 210.733 215.307 212.522 207.398C214.311 199.49 225.301 169.006 225.301 169.006C225.301 169.006 254.311 191.837 260.445 193.623C266.579 195.409 283.064 192.73 288.559 185.97C294.055 179.337 295.844 174.108 292.521 169.516C289.198 164.924 276.93 160.715 264.151 146.939C251.371 133.164 246.387 126.786 237.57 122.577C228.752 118.24 210.733 112.501 206.388 110.715C202.043 108.929 200.893 108.036 198.209 106.761C195.525 105.485 189.008 103.062 177.123 102.807C169.2 102.934 161.532 104.465 154.248 107.398Z" fill="#B0BEC5" stroke="#263238" stroke-width="0.75" stroke-miterlimit="10"/>
<path d="M110.16 162.755C110.543 164.285 116.294 184.311 116.294 184.311L107.859 167.602" stroke="#263238" stroke-width="0.75" stroke-miterlimit="10"/>
<path d="M225.302 169.133C224.024 169.133 212.012 162.373 212.012 162.373" stroke="#263238" stroke-width="0.75" stroke-miterlimit="10"/>
<path d="M205.877 161.479C205.877 161.479 210.733 167.729 214.95 169.005" stroke="#263238" stroke-width="0.75" stroke-miterlimit="10"/>
<path d="M152.586 126.021L156.42 140.434C156.42 140.434 144.28 201.021 142.363 211.225C141.213 217.347 140.446 223.597 140.062 229.975L150.669 251.021L164.088 228.317C164.088 228.317 162.81 199.618 162.426 176.658C162.043 153.699 162.81 142.602 162.682 142.092C162.426 141.454 176.1 131.505 176.1 131.505C176.1 131.505 184.024 122.832 184.407 121.301C184.79 119.771 178.912 121.684 177.634 122.96C174.695 125.383 170.733 126.403 167.027 125.511C161.532 124.49 154.248 118.24 153.225 121.301C152.331 122.704 152.203 124.49 152.586 126.021Z" fill="#263238" stroke="#263238" stroke-width="0.75" stroke-miterlimit="10"/>
<path d="M161.66 101.403C161.021 101.785 155.909 103.061 154.248 107.398C152.587 111.607 143.769 131.25 141.213 134.311C138.657 137.5 142.747 136.224 146.069 134.056C149.52 131.887 152.459 123.597 154.376 127.296C156.293 130.867 161.788 132.398 161.788 132.398C161.788 132.398 173.289 130.229 175.845 128.571C177.634 127.296 179.168 126.02 180.701 124.489C180.701 124.489 190.542 139.158 193.225 140.433C196.037 141.709 196.42 139.54 196.676 137.245C197.698 128.699 199.359 120.28 201.532 111.989C204.216 102.806 198.976 99.8721 195.526 96.0455C192.075 92.219 188.241 94.77 184.407 95.1527C180.574 95.5353 161.66 101.403 161.66 101.403Z" fill="#B0BEC5" stroke="#263238" stroke-width="0.75" stroke-miterlimit="10"/>
<path d="M212.138 237.373C212.138 237.373 206.004 237.118 204.471 236.735C202.937 236.48 198.081 231.888 195.909 232.143C193.736 232.398 189.774 236.735 188.241 240.306C186.707 243.878 186.068 245.791 186.068 245.791C186.068 245.791 180.573 250.638 183.385 253.954C186.068 257.271 189.135 256.123 189.135 256.123C189.135 256.123 190.925 259.184 193.353 259.439C195.142 259.694 196.931 259.694 198.848 259.694C200.381 260.204 202.043 260.332 203.704 260.332C204.982 260.077 206.26 259.566 207.41 258.801C208.688 258.929 209.966 258.674 211.116 257.908C212.266 257.015 217.634 251.531 220.445 248.597L222.106 246.939L212.138 237.373Z" fill="white" stroke="#263238" stroke-width="0.75" stroke-miterlimit="10"/>
<path d="M263.128 174.618C263.128 174.618 251.882 187.118 248.176 193.24C242.298 202.551 235.908 211.48 229.007 220.026C224.79 224.873 209.838 236.735 209.838 236.735C209.838 236.735 214.438 246.429 217.761 247.96C219.678 248.852 221.723 249.618 223.895 250.128L236.163 240.944C236.163 240.944 259.294 223.215 271.562 213.266C283.831 203.189 300.827 189.796 302.105 184.057C303.383 178.317 302.361 175.256 296.355 170.664C292.521 167.858 288.304 165.689 283.831 164.286" fill="#B0BEC5"/>
<path d="M263.128 174.618C263.128 174.618 251.882 187.118 248.176 193.24C242.298 202.551 235.908 211.48 229.007 220.026C224.79 224.873 209.838 236.735 209.838 236.735C209.838 236.735 214.438 246.429 217.761 247.96C219.678 248.852 221.723 249.618 223.895 250.128L236.163 240.944C236.163 240.944 259.294 223.215 271.562 213.266C283.831 203.189 300.827 189.796 302.105 184.057C303.383 178.317 302.361 175.256 296.355 170.664C292.521 167.858 288.304 165.689 283.831 164.286" stroke="#263238" stroke-width="0.75" stroke-miterlimit="10"/>
<path d="M219.168 229.082C219.168 229.082 221.852 242.475 231.308 242.475" stroke="#263238" stroke-width="0.75" stroke-miterlimit="10"/>
<path d="M7.79688 191.964C7.79688 191.964 18.6594 192.092 23.5156 192.092C25.9436 192.219 28.3717 191.837 30.672 190.944C30.672 190.944 51.2469 203.699 51.8859 204.209C52.5248 204.719 70.2882 217.474 72.3329 219.388C74.3776 221.428 81.1507 226.275 86.1347 224.362C91.1187 222.449 100.959 219.77 101.853 214.541C102.748 209.311 100.575 201.658 98.403 196.173C96.2305 190.689 94.4413 188.903 86.2625 187.372C78.0837 185.842 62.8762 184.056 55.2085 181.505C47.4131 178.954 39.362 176.786 36.295 175.383C33.2279 173.979 35.1448 167.985 34.1225 165.816C33.1001 163.52 30.672 161.352 29.5219 157.398C28.7551 153.954 28.8829 150.383 30.0331 147.066C30.672 145.918 29.0107 143.367 26.7104 143.622C24.2823 143.877 22.4932 147.959 22.3654 152.168C22.2376 156.377 23.0044 160.331 22.2376 161.224C21.4709 162.117 10.225 161.735 10.225 161.735C10.225 161.735 9.4582 176.786 8.94702 181.888C8.43585 187.245 7.79688 191.964 7.79688 191.964Z" fill="white" stroke="#263238" stroke-width="0.75" stroke-miterlimit="10"/>
<path d="M2.68381 167.985C2.68381 167.985 16.4856 169.643 17.7635 169.771C18.9137 169.898 19.936 169.133 20.1916 167.985V167.857C20.1916 166.837 21.4696 164.158 18.5303 163.138C15.4632 162.118 6.90102 159.694 4.72852 160.077C2.55602 160.459 0.89469 165.817 2.68381 167.985Z" fill="white" stroke="#263238" stroke-width="0.75" stroke-miterlimit="10"/>
<path d="M2.68457 167.984C2.68457 167.984 0.128685 174.362 0.89545 176.403C1.66221 178.444 16.8697 177.423 18.1477 177.423C19.4256 177.423 20.448 174.489 20.1924 173.214C19.9368 171.938 19.4256 169.898 17.6365 169.643C15.8474 169.387 2.68457 167.984 2.68457 167.984Z" fill="white" stroke="#263238" stroke-width="0.75" stroke-miterlimit="10"/>
<path d="M1.15076 177.934C1.15076 177.934 -0.254978 182.143 1.02296 183.674C2.30091 185.204 4.34561 185.842 8.17944 185.842C12.0133 185.842 15.7193 185.204 19.2975 183.929C20.7033 183.291 21.2144 180.612 20.8311 178.827C20.4477 177.041 18.2752 177.424 18.2752 177.424C18.2752 177.424 17.3806 178.189 10.8631 177.551C4.34561 176.914 1.02296 176.403 1.02296 176.403L1.15076 177.934Z" fill="white" stroke="#263238" stroke-width="0.75" stroke-miterlimit="10"/>
<path d="M2.68359 185.586C2.81139 186.479 2.30021 191.709 4.34492 192.219C6.38963 192.729 16.4854 192.091 17.6355 191.454C18.7857 190.816 18.6579 188.392 18.4023 187.5C18.1467 186.607 17.6355 185.076 16.3576 185.076C15.0796 185.076 2.68359 185.586 2.68359 185.586Z" fill="white" stroke="#263238" stroke-width="0.75" stroke-miterlimit="10"/>
<path d="M44.217 189.413C43.3224 192.347 40.8943 194.643 37.9551 195.408C43.9614 199.107 51.5013 203.826 51.8846 204.082C52.3958 204.592 70.287 217.347 72.3317 219.26C74.3764 221.173 81.1495 226.148 86.1335 224.235C91.1175 222.321 100.958 219.643 101.852 214.413C102.747 209.184 100.574 201.531 98.4017 196.046C96.1014 190.561 94.4401 188.775 86.2613 187.245C78.0825 185.714 62.8749 183.928 55.2073 181.377C51.3735 180.102 47.5396 178.954 44.217 177.934C44.7282 182.015 44.856 185.714 44.217 189.413Z" fill="#B0BEC5" stroke="#263238" stroke-width="0.75" stroke-miterlimit="10"/>
<path d="M22.4922 176.785C22.4922 176.785 25.1759 180.739 27.8595 181.505C29.5209 181.887 31.31 181.76 32.9713 181.122" fill="white"/>
<path d="M22.4922 176.785C22.4922 176.785 25.1759 180.739 27.8595 181.505C29.5209 181.887 31.31 181.76 32.9713 181.122" stroke="#263238" stroke-width="0.75" stroke-miterlimit="10"/>
<path d="M161.277 85.2041C162.044 87.5 162.555 90.051 162.939 92.4745C162.811 94.1327 160.127 119.005 162.683 118.24C165.111 117.347 190.67 102.041 191.82 99.3623C192.97 96.6837 192.204 80.4847 192.97 76.4031C193.865 72.3215 195.526 66.4541 195.526 66.4541C195.526 66.4541 185.175 76.0204 177.124 80.1021C172.14 82.398 166.9 84.0561 161.277 85.2041Z" fill="white" stroke="#263238" stroke-linecap="round" stroke-linejoin="round"/>
<path d="M162.938 92.3469C162.938 93.2397 162.171 99.6173 161.916 105.867L185.43 84.1836L161.66 86.0969C162.299 88.0101 162.81 90.1785 162.938 92.3469Z" fill="#263238" stroke="#263238" stroke-linecap="round" stroke-linejoin="round"/>
<path d="M152.332 45.0256C151.309 44.8981 138.019 45.1532 137.891 34.4389C137.507 28.5715 141.469 23.0868 147.22 21.6838C147.22 21.6838 139.424 12.245 150.287 7.78072C161.149 3.31644 173.673 6.63276 173.673 6.63276C173.673 6.63276 172.779 -1.5305 182.491 1.14807C192.203 3.95419 198.21 15.4338 198.465 16.5817C198.721 17.6021 212.011 22.7042 216.101 29.9746C220.19 37.245 218.529 46.3011 214.567 52.296C210.861 57.5256 206.772 62.5001 202.427 67.2195C199.743 69.1328 196.293 69.3879 193.481 67.8572C188.37 65.4338 185.175 63.7756 185.558 59.4389C186.069 55.1021 185.175 43.7501 184.025 42.0919C182.874 40.6889 179.68 39.796 173.034 40.8164C166.517 42.0919 152.332 45.0256 152.332 45.0256Z" fill="#263238" stroke="#263238" stroke-linecap="round" stroke-linejoin="round"/>
<path d="M152.202 41.8368C152.202 41.8368 151.052 51.6582 150.03 54.3368C147.346 63.9031 145.302 73.597 143.64 83.546C142.873 89.9235 149.391 95.2807 152.841 95.6633C156.42 95.9184 162.426 93.3674 167.793 92.4745C173.161 91.5817 187.985 87.3725 190.541 84.1837C192.969 80.8674 193.863 79.9745 193.863 79.9745C193.863 79.9745 205.109 78.4439 207.154 69.3878C209.199 60.3317 203.32 58.9286 198.847 60.9694C196.419 61.9898 194.119 63.2654 191.946 64.796C191.946 64.796 188.752 64.4133 189.391 61.9898C190.03 60.4592 190.285 58.9286 190.669 57.398C190.924 55.6123 189.902 54.5919 189.007 50.3827C188.113 46.4286 187.218 46.5562 189.135 43.2398C190.924 39.9235 194.502 33.9286 194.502 33.9286C194.502 33.9286 164.343 33.6735 152.202 41.8368Z" fill="white" stroke="#263238" stroke-linecap="round" stroke-linejoin="round"/>
<path d="M166.9 44.898C166.9 44.898 172.14 44.5154 175.463 46.9388" stroke="#263238" stroke-linecap="round" stroke-linejoin="round"/>
<path d="M157.954 43.7496C156.293 42.7292 154.248 42.7292 152.459 43.2394" stroke="#263238" stroke-linecap="round" stroke-linejoin="round"/>
<path d="M150.031 75.3827C150.031 75.3827 156.549 78.1888 165.878 74.3623" stroke="#263238" stroke-linecap="round" stroke-linejoin="round"/>
<path d="M171.246 52.2964C171.118 53.4444 169.968 54.3372 168.817 54.0821C167.667 53.9546 166.773 52.8066 167.028 51.6586C167.156 50.5107 168.306 49.6178 169.456 49.8729C170.607 50.0005 171.501 51.1484 171.246 52.2964Z" fill="#263238"/>
<path d="M155.909 49.2348C155.909 50.2552 154.887 51.0205 153.864 50.7654C152.842 50.7654 152.075 49.745 152.331 48.7246C152.331 47.7042 153.353 46.9389 154.375 47.194C155.398 47.4491 156.165 48.4695 155.909 49.2348Z" fill="#263238"/>
<path d="M161.533 47.4487C161.533 47.4487 158.849 54.9742 162.427 58.1629C166.005 61.3517 174.951 61.0966 177.379 58.8007C179.807 56.5048 181.468 50.5099 181.468 50.5099C181.468 50.5099 170.606 46.0456 161.533 47.4487Z" stroke="#263238" stroke-linecap="round" stroke-linejoin="round"/>
<path d="M157.316 46.9387C157.316 46.9387 157.699 54.7194 154.505 57.2704C151.31 59.8214 144.792 57.5255 143.514 54.9745C142.236 52.4234 142.236 45.9183 142.236 45.9183C142.236 45.9183 151.182 43.75 157.316 46.9387Z" stroke="#263238" stroke-linecap="round" stroke-linejoin="round"/>
<path d="M157.316 46.9387C157.316 46.9387 158.467 45.9183 161.534 47.4489" stroke="#263238" stroke-linecap="round" stroke-linejoin="round"/>
<path d="M181.469 51.1484L196.293 61.6076" stroke="#263238" stroke-linecap="round" stroke-linejoin="round"/>
<path d="M158.848 50C158.848 50 144.28 60.4592 145.174 64.5408C146.069 68.4949 157.826 68.8776 157.826 68.8776" fill="white"/>
<path d="M158.848 50C158.848 50 144.28 60.4592 145.174 64.5408C146.069 68.4949 157.826 68.8776 157.826 68.8776" stroke="#263238" stroke-linecap="round" stroke-linejoin="round"/>
<path d="M98.2414 200.217C102.806 194.124 102.519 186.209 97.6014 182.539C92.6836 178.869 84.9968 180.834 80.4325 186.927C75.8681 193.02 76.1546 200.935 81.0724 204.605C85.9903 208.275 93.6771 206.31 98.2414 200.217Z" fill="#B0BEC5"/>
</svg>
