<svg width="172" height="251" viewBox="0 0 172 251" fill="none" xmlns="http://www.w3.org/2000/svg">
<g filter="url(#filter0_d_507_4763)">
<path d="M66.4367 92L51.9413 74.9641L23.2711 74.9641C18.1476 74.9641 14 70.8065 14 65.6706L14 10.2936C14 5.15765 18.1476 1 23.2711 1L156.729 0.999994C161.852 0.999994 166 5.15765 166 10.2936L166 65.5483C166 70.6842 161.852 74.8418 156.729 74.8418L66.2139 74.8418L66.4367 92Z" fill="white"/>
<path d="M66.4367 92L51.9413 74.9641L23.2711 74.9641C18.1476 74.9641 14 70.8065 14 65.6706L14 10.2936C14 5.15765 18.1476 1 23.2711 1L156.729 0.999994C161.852 0.999994 166 5.15765 166 10.2936L166 65.5483C166 70.6842 161.852 74.8418 156.729 74.8418L66.2139 74.8418L66.4367 92Z" stroke="#333E63" stroke-linecap="round" stroke-linejoin="round"/>
</g>
<g clip-path="url(#clip0_507_4763)">
<path d="M108.07 203.959C108.356 177.024 99.1915 157.205 99.1915 157.205H12.5063L12.936 157.873L16.3728 204.102H94.609V230.082H131.889V203.959H108.07Z" fill="#525252" stroke="#263238" stroke-width="0.8" stroke-linecap="round" stroke-linejoin="round"/>
<path d="M46.0634 249.997H43.0561C42.6265 249.997 42.2924 249.663 42.2924 249.281L40.8604 227.79H48.2591L46.8271 249.281C46.7794 249.663 46.4452 249.997 46.0634 249.997Z" fill="white" stroke="#263238" stroke-width="0.8" stroke-linecap="round" stroke-linejoin="round"/>
<path d="M144.969 249.997H141.962C141.58 249.997 141.246 249.663 141.246 249.281L139.813 227.79H147.212L145.78 249.281C145.733 249.711 145.398 249.997 144.969 249.997Z" fill="white" stroke="#263238" stroke-width="0.8" stroke-linecap="round" stroke-linejoin="round"/>
<path d="M14.3681 249.997H11.3608C10.9312 249.997 10.5971 249.663 10.5971 249.281L9.16504 227.79H16.5638L15.1318 249.281C15.0841 249.663 14.7499 249.997 14.3681 249.997Z" fill="white" stroke="#263238" stroke-width="0.8" stroke-linecap="round" stroke-linejoin="round"/>
<path d="M113.273 249.997H110.313C109.884 249.997 109.55 249.663 109.55 249.281L108.118 227.79H115.469L114.037 249.281C113.989 249.663 113.655 249.997 113.273 249.997Z" fill="white" stroke="#263238" stroke-width="0.8" stroke-linecap="round" stroke-linejoin="round"/>
<path d="M45.2042 230.082V203.959H21.3849C21.6713 177.024 12.5063 157.205 12.5063 157.205H9.49905C8.63984 157.205 7.92383 157.921 7.92383 158.781V230.082H45.2042Z" fill="#263238" stroke="#263238" stroke-width="0.8" stroke-linecap="round" stroke-linejoin="round"/>
<path d="M45.2041 203.959H145.732C147.785 203.959 149.408 205.63 149.408 207.636V230.034H45.2041V203.959Z" fill="#525252" stroke="#263238" stroke-width="0.8" stroke-linecap="round" stroke-linejoin="round"/>
<path d="M0.23877 249.902H157.761" stroke="#263238" stroke-width="0.8" stroke-linecap="round" stroke-linejoin="round"/>
<path d="M79.2864 144.119C79.2864 144.119 82.1505 150.137 84.0121 155.151C85.8737 160.166 89.4538 176.642 88.165 177.502C86.8761 178.361 82.5801 179.937 80.2888 177.072C77.9976 174.206 73.8447 161.598 73.8447 161.598L76.852 151.713" fill="#B0BEC5"/>
<path d="M79.2864 144.119C79.2864 144.119 82.1505 150.137 84.0121 155.151C85.8737 160.166 89.4538 176.642 88.165 177.502C86.8761 178.361 82.5801 179.937 80.2888 177.072C77.9976 174.206 73.8447 161.598 73.8447 161.598L76.852 151.713" stroke="#263238" stroke-width="0.8" stroke-linecap="round" stroke-linejoin="round"/>
<path d="M80.6233 154.578L75.9454 165.371L64.9188 184.904C64.9188 184.904 48.9278 185.381 46.6366 185.763C44.3454 186.145 34.9895 187.721 32.5073 189.059C30.0728 190.396 28.3067 191.781 27.9725 191.16C27.5907 190.539 26.636 188.82 26.9701 187.101C27.352 185.381 29.9774 182.564 31.123 180.08C32.2686 177.645 42.0064 144.358 42.2928 142.639C42.5315 140.919 44.0112 138.197 46.7321 136.382C49.4529 134.52 61.4819 131.941 61.4819 131.941C64.3937 132.992 67.21 134.281 69.9309 135.762C73.2245 137.72 76.3272 140.06 77.6638 141.779C79.0003 143.498 81.8167 150.853 81.8167 150.853" fill="#B0BEC5"/>
<path d="M80.6233 154.578L75.9454 165.371L64.9188 184.904C64.9188 184.904 48.9278 185.381 46.6366 185.763C44.3454 186.145 34.9895 187.721 32.5073 189.059C30.0728 190.396 28.3067 191.781 27.9725 191.16C27.5907 190.539 26.636 188.82 26.9701 187.101C27.352 185.381 29.9774 182.564 31.123 180.08C32.2686 177.645 42.0064 144.358 42.2928 142.639C42.5315 140.919 44.0112 138.197 46.7321 136.382C49.4529 134.52 61.4819 131.941 61.4819 131.941C64.3937 132.992 67.21 134.281 69.9309 135.762C73.2245 137.72 76.3272 140.06 77.6638 141.779C79.0003 143.498 81.8167 150.853 81.8167 150.853" stroke="#263238" stroke-width="0.8" stroke-linecap="round" stroke-linejoin="round"/>
<path d="M45.7773 181.991L46.923 182.277" stroke="#263238" stroke-width="0.8" stroke-linecap="round" stroke-linejoin="round"/>
<path d="M32.4595 182.277C32.4595 182.277 35.6099 180.367 43.3428 181.561" stroke="#263238" stroke-width="0.8" stroke-linecap="round" stroke-linejoin="round"/>
<path d="M29.0703 188.629C29.0703 188.629 30.2159 185.907 37.9011 185.668" stroke="#263238" stroke-width="0.8" stroke-linecap="round" stroke-linejoin="round"/>
<path d="M74.37 140.442L74.7518 148.179L70.9331 143.88L74.37 140.442Z" fill="white" stroke="#263238" stroke-width="0.8" stroke-linecap="round" stroke-linejoin="round"/>
<path d="M66.3504 125.971L64.1069 131.463L68.8803 138.293L69.3577 147.08L77.377 136.86L68.403 124.395L66.3504 125.971Z" fill="white" stroke="#263238" stroke-width="0.8" stroke-linecap="round" stroke-linejoin="round"/>
<path d="M69.1191 132.18C69.1191 132.18 72.2219 139.343 74.0358 140.967L76.7089 137.529L69.4533 130.365L69.1191 132.18Z" fill="#263238" stroke="#263238" stroke-width="0.8" stroke-linecap="round" stroke-linejoin="round"/>
<path d="M84.3462 125.112C83.3438 124.252 82.0549 123.822 80.7661 123.774" stroke="#263238" stroke-width="0.8" stroke-linecap="round" stroke-linejoin="round"/>
<path d="M82.1679 127.523C82.392 126.903 82.3728 126.327 82.1249 126.237C81.8769 126.148 81.4943 126.578 81.2701 127.198C81.046 127.818 81.0652 128.393 81.3131 128.483C81.5611 128.573 81.9437 128.143 82.1679 127.523Z" fill="#263238"/>
<path d="M63.8206 127.547L70.8375 140.585L66.5414 148.179L59.7632 131.846L63.8206 127.547Z" fill="white" stroke="#263238" stroke-width="0.8" stroke-linecap="round" stroke-linejoin="round"/>
<path d="M78.4751 139.057L79.7639 139.917C80.1935 139.439 80.5277 138.818 80.7186 138.197" stroke="#263238" stroke-width="0.8" stroke-linecap="round" stroke-linejoin="round"/>
<path d="M62.245 165.419C61.1472 167.234 60.1447 169.096 59.2378 171.054" stroke="#263238" stroke-width="0.8" stroke-linecap="round" stroke-linejoin="round"/>
<path d="M56.9948 169.048C56.7084 169.287 56.4697 169.574 56.2788 169.86" stroke="#263238" stroke-width="0.8" stroke-linecap="round" stroke-linejoin="round"/>
<path d="M60.2885 166.374C60.2885 166.374 59.1907 167.186 58.0928 168.093" stroke="#263238" stroke-width="0.8" stroke-linecap="round" stroke-linejoin="round"/>
<path d="M43.7246 160.118L39.7627 158.303" stroke="#263238" stroke-width="0.8" stroke-linecap="round" stroke-linejoin="round"/>
<path d="M72.7471 182.134C72.7471 182.134 91.5066 182.134 95.2776 182.659C99.0486 183.185 99.5259 186.671 99.2873 188.677C99.0486 190.683 88.7857 238.392 89.2631 238.87C89.7882 239.347 95.6595 243.741 98.2848 244.362C100.91 244.983 101.769 246.224 101.913 246.989C101.913 247.848 101.865 248.66 101.674 249.472C99.335 249.806 96.996 249.997 94.657 249.997C90.7906 249.997 82.7712 248.756 81.1483 248.756C79.5253 248.756 76.2794 249.615 75.7543 248.373C75.2292 247.132 76.9954 241.114 77.7592 239.634C78.5706 237.771 79.1435 235.766 79.3821 233.76C79.5253 232.279 81.0051 213.606 80.8619 207.732C80.7187 201.858 81.3392 199.327 81.3392 199.327L73.3199 201.476L72.7471 182.134Z" fill="white" stroke="#263238" stroke-width="0.8" stroke-linecap="round" stroke-linejoin="round"/>
<path d="M98.2847 244.362C95.6593 243.741 89.788 239.347 89.2629 238.869C89.2629 238.869 87.8787 238.392 87.4013 238.869C86.924 239.347 86.6376 241.353 86.6376 241.353C84.1554 241.066 81.6732 240.589 79.2388 239.872L77.8068 239.443L77.7113 239.634C76.9475 241.114 75.2291 247.132 75.7065 248.373C76.1838 249.615 79.4774 248.755 81.1004 248.755C82.7234 248.755 90.7427 249.997 94.6092 249.997C96.9481 249.997 99.3348 249.806 101.626 249.472C101.817 248.66 101.912 247.8 101.865 246.988C101.769 246.176 100.91 244.935 98.2847 244.362Z" fill="#B0BEC5" stroke="#263238" stroke-width="0.8" stroke-linecap="round" stroke-linejoin="round"/>
<path d="M75.7539 248.326C76.279 249.567 79.5249 248.708 81.1479 248.708C82.7709 248.708 90.7902 249.949 94.6567 249.949C96.9956 249.949 99.3824 249.758 101.674 249.424C101.817 248.851 101.865 248.278 101.912 247.705C97.7594 247.991 93.5588 247.896 89.4059 247.466C84.9189 247.036 80.4319 246.32 75.9926 245.317C75.7062 246.702 75.563 247.848 75.7539 248.326Z" fill="white" stroke="#263238" stroke-width="0.8" stroke-linecap="round" stroke-linejoin="round"/>
<path d="M90.7904 231.133C93.559 219.098 99.0962 190.062 99.2394 188.629C99.4781 186.623 99.0007 183.137 95.2297 182.612C91.4587 182.134 72.6992 182.086 72.6992 182.086L73.3198 201.38L81.3391 199.231C81.3391 199.231 80.7185 201.714 80.8617 207.636C80.9572 212.412 80.0025 227.981 79.5729 231.849L90.7904 231.133Z" fill="#263238" stroke="#263238" stroke-width="0.8" stroke-miterlimit="10"/>
<path d="M81.3867 199.279C81.3867 199.279 83.7734 192.784 88.881 190.539" stroke="#263238" stroke-width="0.8" stroke-linecap="round" stroke-linejoin="round"/>
<path d="M83.917 192.736C84.7285 191.733 85.8264 190.969 87.0674 190.491" stroke="#263238" stroke-width="0.8" stroke-linecap="round" stroke-linejoin="round"/>
<path d="M78.9049 229.318L78.7617 234.285L91.2681 233.425L92.4137 228.554L78.9049 229.318Z" fill="white" stroke="#263238" stroke-width="0.8" stroke-linecap="round" stroke-linejoin="round"/>
<path d="M82.7234 172.2C82.7234 172.2 79.5729 172.63 78.4273 173.776C77.2817 174.923 72.6992 183.662 72.6992 184.522C72.6992 185.381 77.2817 188.82 78.7137 188.963C80.1457 189.107 87.4491 180.653 88.5947 179.651C89.7403 178.648 88.7379 173.06 88.3083 171.341" fill="#B0BEC5"/>
<path d="M82.7234 172.2C82.7234 172.2 79.5729 172.63 78.4273 173.776C77.2817 174.923 72.6992 183.662 72.6992 184.522C72.6992 185.381 77.2817 188.82 78.7137 188.963C80.1457 189.107 87.4491 180.653 88.5947 179.651C89.7403 178.648 88.7379 173.06 88.3083 171.341" stroke="#263238" stroke-width="0.8" stroke-linecap="round" stroke-linejoin="round"/>
<path d="M77.7112 237.007C77.7112 237.007 79.5728 205.344 79.5728 196.7C79.5728 188.056 80.2889 183.949 77.7112 182.373C75.1336 180.797 47.2091 184.092 40.8605 185.811C34.5118 187.53 28.4019 191.399 28.4019 191.399C28.4019 191.399 28.9747 199.279 30.4067 201.285C31.8387 203.29 36.994 204.15 39.5716 204.15H56.6127L63.4864 202.287L67.7825 239.729C67.7825 239.729 66.9233 249.185 67.6393 249.758C68.3553 250.331 78.5227 250.904 82.1028 250.761C85.6828 250.618 91.8405 250.904 92.1269 249.902C92.4133 248.899 91.6973 246.32 91.6973 246.32C91.6973 246.32 85.2532 243.741 83.2484 242.451C81.4345 241.162 79.7161 239.777 78.0931 238.296L77.7112 237.007Z" fill="white" stroke="#263238" stroke-width="0.8" stroke-linecap="round" stroke-linejoin="round"/>
<path d="M83.296 242.451C81.4821 241.162 79.7636 239.777 78.1407 238.297L77.7111 237.007C77.7111 237.007 76.8518 236.721 75.8494 238.01C75.1334 239.108 74.6083 240.302 74.2742 241.592L67.7346 240.637C67.5437 243.025 67.1141 249.281 67.6869 249.758C68.4029 250.331 78.5703 250.904 82.1503 250.761C85.7304 250.618 91.8881 250.904 92.1745 249.902C92.4609 248.899 91.7449 246.32 91.7449 246.32C91.7449 246.32 85.3008 243.741 83.296 242.451Z" fill="#B0BEC5" stroke="#263238" stroke-width="0.8" stroke-linecap="round" stroke-linejoin="round"/>
<path d="M92.1749 249.902C92.2704 249.281 92.2703 248.612 92.1271 247.991C84.442 249.711 70.4081 248.182 67.4009 247.8C67.4009 248.851 67.4964 249.567 67.6873 249.758C68.4033 250.331 78.5707 250.905 82.1507 250.761C85.7308 250.618 91.8885 250.905 92.1749 249.902Z" fill="white" stroke="#263238" stroke-width="0.8" stroke-linecap="round" stroke-linejoin="round"/>
<path d="M63.5342 202.287L67.1143 234.667C70.1692 234.094 74.704 233.282 77.9976 232.661C78.5227 225.163 79.5729 203.052 79.5729 196.7C79.5729 188.104 80.2889 183.949 77.7112 182.373C75.1336 180.797 47.2091 184.092 40.8605 185.811C34.5118 187.53 28.4019 191.399 28.4019 191.399C28.4019 191.399 28.9747 199.279 30.4067 201.285C31.8387 203.29 36.994 204.15 39.5716 204.15H56.6127L63.5342 202.287Z" fill="#263238" stroke="#263238" stroke-width="0.8" stroke-miterlimit="10"/>
<path d="M69.644 190.73C70.1214 190.3 70.5987 189.823 71.1238 189.393" stroke="#263238" stroke-width="0.8" stroke-linecap="round" stroke-linejoin="round"/>
<path d="M63.6777 201.428C64.3937 198.18 65.8735 195.172 67.9261 192.593" stroke="#263238" stroke-width="0.8" stroke-linecap="round" stroke-linejoin="round"/>
<path d="M65.5389 193.405C65.5389 193.405 62.6748 197.416 62.6748 200.139" stroke="#263238" stroke-width="0.8" stroke-linecap="round" stroke-linejoin="round"/>
<path d="M65.6821 232.709L66.5413 237.294L78.5704 235.001V230.273L65.6821 232.709Z" fill="white" stroke="#263238" stroke-width="0.8" stroke-linecap="round" stroke-linejoin="round"/>
<path d="M70.6944 126.21C70.6944 126.21 71.6491 121.53 69.8352 120.193C68.0213 118.856 66.9711 122.008 67.3053 124.873C67.6872 127.738 69.2146 127.738 69.2146 127.738" fill="white"/>
<path d="M70.6944 126.21C70.6944 126.21 71.6491 121.53 69.8352 120.193C68.0213 118.856 66.9711 122.008 67.3053 124.873C67.6872 127.738 69.2146 127.738 69.2146 127.738" stroke="#263238" stroke-width="0.8" stroke-linecap="round" stroke-linejoin="round"/>
<path d="M70.6946 112.456L68.8807 120.431C68.8807 120.431 67.5919 118.664 66.8282 121.148C66.0644 123.631 65.778 125.828 66.5895 126.353C67.1146 126.688 67.6874 127.022 68.2602 127.261C68.2602 127.261 67.6874 130.46 68.3557 131.463C69.0239 132.466 73.0336 136.764 73.7973 137.529C74.5611 138.293 77.4729 138.866 78.1889 138.77C78.9049 138.722 82.4372 135.475 83.3442 134.568C84.2511 133.66 85.9218 129.553 85.9218 129.553C85.9218 129.553 87.7834 121.96 88.404 119.858C89.0723 117.757 89.836 115.847 89.2632 114.032C88.6904 112.217 85.1581 108.683 80.5279 108.206C75.8976 107.68 71.888 107.441 70.6946 112.456Z" fill="white" stroke="#263238" stroke-width="0.8" stroke-linecap="round" stroke-linejoin="round"/>
<path d="M79.3346 121.817C79.3346 121.817 76.9479 120.002 74.2271 121.052" stroke="#263238" stroke-width="0.8" stroke-linecap="round" stroke-linejoin="round"/>
<path d="M83.0098 122.724C83.0098 122.724 85.6351 122.008 86.4943 123.822" stroke="#263238" stroke-width="0.8" stroke-linecap="round" stroke-linejoin="round"/>
<path d="M77.4247 123.822C77.2338 124.347 76.7565 124.682 76.3269 124.586C75.8973 124.443 75.7063 123.918 75.8973 123.345C76.0882 122.819 76.5655 122.485 76.9474 122.58C77.377 122.724 77.6157 123.297 77.4247 123.822Z" fill="#263238"/>
<path d="M85.1472 126.278C85.3209 125.724 85.1151 125.167 84.6875 125.032C84.2599 124.898 83.7724 125.238 83.5987 125.792C83.425 126.345 83.6308 126.903 84.0584 127.037C84.486 127.171 84.9735 126.831 85.1472 126.278Z" fill="#263238"/>
<path d="M79.0477 110.116C79.0477 110.116 74.9425 113.65 72.8422 114.319L70.6942 115.083C70.6942 115.083 70.0259 121.434 69.5963 121.673C69.2622 121.96 68.8803 121.912 68.928 121.387C68.9758 120.861 69.0235 120.336 68.6894 120.002C68.3552 119.667 67.3051 118.712 67.3051 118.712V112.456C67.3051 112.456 66.2072 109.829 67.4006 108.444C68.5462 107.059 71.3147 105.054 71.3147 105.054C71.3147 105.054 70.5033 104.337 71.2193 103.812C71.9353 103.287 76.1836 105.054 76.1836 105.054C76.1836 105.054 77.4725 103.048 78.9045 103.287C80.3365 103.525 80.1456 103.955 80.1456 103.955C80.1456 103.955 85.9691 103.669 88.7377 104.863C91.5063 106.057 97.0912 116.611 95.8501 117.136C94.609 117.757 91.4108 117.184 91.4108 117.184C91.4108 117.184 88.0694 124.968 87.6875 124.968L87.2579 124.921L88.8332 117.471C88.7377 117.566 80.6706 112.743 79.0477 110.116Z" fill="#263238" stroke="#263238" stroke-width="0.8" stroke-miterlimit="10"/>
<path d="M78.6186 150.089V147.51C78.6186 147.51 77.2343 145.074 77.2343 143.785C77.2343 142.495 76.9956 139.2 76.9956 139.2C76.9956 139.2 77.5207 138.579 77.998 138.818L78.5231 139.057C78.5231 139.057 79.6687 137.29 80.7189 136.86C81.7213 136.478 83.7739 135.953 84.1557 136.86C84.4899 137.481 84.6331 138.197 84.5376 138.914C84.3944 139.296 86.2083 141.349 86.447 141.97C86.6856 142.591 86.5902 143.88 86.5902 144.788C86.5902 145.695 84.824 148.752 84.1557 149.659C83.5352 150.566 82.1032 153.241 82.1032 153.241L78.6186 150.089Z" fill="white" stroke="#263238" stroke-width="0.8" stroke-linecap="round" stroke-linejoin="round"/>
<path d="M75.1812 152.763L78.3793 149.038L83.3437 152.62L80.766 157.491L75.1812 152.763Z" fill="white" stroke="#263238" stroke-width="0.8" stroke-linecap="round" stroke-linejoin="round"/>
<path d="M43.5812 142.83C43.5812 142.83 39.667 153.05 40.6217 155.151C41.5764 157.253 43.6289 157.826 46.1589 163.031C52.7462 176.547 59.4289 183.901 60.9564 183.662C62.4839 183.424 80.1933 161.694 80.8616 160.357C81.5299 159.02 82.5323 157.539 81.9595 156.679C81.3867 155.82 76.2791 151.617 74.9903 151.76C73.7015 151.856 62.1975 165.419 62.1975 165.419L53.128 142.83C53.128 142.83 51.5051 141.827 48.2114 143.88" fill="#B0BEC5"/>
<path d="M43.5812 142.83C43.5812 142.83 39.667 153.05 40.6217 155.151C41.5764 157.253 43.6289 157.826 46.1589 163.031C52.7462 176.547 59.4289 183.901 60.9564 183.662C62.4839 183.424 80.1933 161.694 80.8616 160.357C81.5299 159.02 82.5323 157.539 81.9595 156.679C81.3866 155.82 76.2791 151.617 74.9903 151.76C73.7015 151.856 62.1975 165.419 62.1975 165.419L53.128 142.83C53.128 142.83 51.5051 141.827 48.2114 143.88" stroke="#263238" stroke-width="0.8" stroke-linecap="round" stroke-linejoin="round"/>
<path d="M77.1946 132.969L79.564 133.272" stroke="#263238" stroke-width="0.8" stroke-linecap="round" stroke-linejoin="round"/>
<path d="M80.6633 124.086C80.6633 124.086 79.8508 126.698 79.9502 127.186C80.0539 127.627 81.9727 129.193 81.5406 129.729C81.1084 130.265 78.7272 130.096 78.7272 130.096" stroke="#263238" stroke-width="0.8" stroke-miterlimit="10"/>
</g>
<path d="M33.462 19.946C34.1433 20.086 34.6613 20.3613 35.016 20.772C35.3707 21.1733 35.548 21.7007 35.548 22.354C35.548 23.2033 35.2447 23.8567 34.638 24.314C34.0407 24.7713 33.1587 25 31.992 25H27.652V15.2H31.726C32.7713 15.2 33.588 15.4147 34.176 15.844C34.764 16.2733 35.058 16.894 35.058 17.706C35.058 18.2567 34.918 18.7233 34.638 19.106C34.358 19.4793 33.966 19.7593 33.462 19.946ZM28.674 19.638H31.67C32.426 19.638 33.0047 19.484 33.406 19.176C33.8167 18.868 34.022 18.42 34.022 17.832C34.022 17.244 33.8167 16.796 33.406 16.488C33.0047 16.18 32.426 16.026 31.67 16.026H28.674V19.638ZM31.992 24.174C33.6813 24.174 34.526 23.544 34.526 22.284C34.526 21.052 33.6813 20.436 31.992 20.436H28.674V24.174H31.992ZM40.9943 20.24C41.9183 20.2493 42.623 20.4547 43.1083 20.856C43.5937 21.2573 43.8363 21.836 43.8363 22.592C43.8363 23.376 43.575 23.978 43.0523 24.398C42.5297 24.818 41.783 25.0233 40.8123 25.014L37.9003 25V17.636H38.8943V20.212L40.9943 20.24ZM45.0683 17.636H46.0623V25H45.0683V17.636ZM40.7563 24.258C41.4377 24.2673 41.951 24.132 42.2963 23.852C42.651 23.5627 42.8283 23.1427 42.8283 22.592C42.8283 22.0507 42.6557 21.6493 42.3103 21.388C41.965 21.1267 41.447 20.9913 40.7563 20.982L38.8943 20.954V24.23L40.7563 24.258ZM54.1005 18.518H49.8865V25H48.8925V17.636H54.1005V18.518ZM61.1059 17.636V25H60.1119V18.518H56.5839L56.4859 20.338C56.4112 21.8687 56.2339 23.0447 55.9539 23.866C55.6739 24.6873 55.1745 25.098 54.4559 25.098C54.2599 25.098 54.0219 25.0607 53.7419 24.986L53.8119 24.132C53.9799 24.1693 54.0965 24.188 54.1619 24.188C54.5445 24.188 54.8339 24.0107 55.0299 23.656C55.2259 23.3013 55.3565 22.8627 55.4219 22.34C55.4872 21.8173 55.5432 21.1267 55.5899 20.268L55.7159 17.636H61.1059ZM69.5876 17.636V25H68.6776V22.564H66.3676H66.0876L64.3796 25H63.3016L65.1356 22.424C64.5662 22.2653 64.1276 21.9947 63.8196 21.612C63.5116 21.2293 63.3576 20.744 63.3576 20.156C63.3576 19.3347 63.6376 18.7093 64.1976 18.28C64.7576 17.8507 65.5229 17.636 66.4936 17.636H69.5876ZM64.3656 20.184C64.3656 21.276 65.0609 21.822 66.4516 21.822H68.6776V18.518H66.5216C65.0842 18.518 64.3656 19.0733 64.3656 20.184ZM79.6038 24.132V26.778H78.6658V25H72.0718V26.778H71.1338V24.132H71.5538C72.0485 24.104 72.3845 23.74 72.5618 23.04C72.7391 22.34 72.8605 21.36 72.9258 20.1L73.0238 17.636H78.4558V24.132H79.6038ZM73.8358 20.156C73.7891 21.2013 73.7005 22.0647 73.5698 22.746C73.4391 23.418 73.2058 23.88 72.8698 24.132H77.4618V18.518H73.9198L73.8358 20.156ZM81.541 17.636H82.535V23.488L87.449 17.636H88.331V25H87.337V19.148L82.437 25H81.541V17.636ZM96.3596 18.518H93.5736V25H92.5796V18.518H89.7936V17.636H96.3596V18.518ZM27.414 34.636H28.408V37.898H33.042V34.636H34.036V42H33.042V38.752H28.408V42H27.414V34.636ZM43.3013 38.626H37.1413C37.1973 39.3913 37.4913 40.012 38.0233 40.488C38.5553 40.9547 39.2273 41.188 40.0393 41.188C40.4966 41.188 40.9166 41.1087 41.2993 40.95C41.6819 40.782 42.0133 40.5393 42.2933 40.222L42.8533 40.866C42.5266 41.258 42.1159 41.5567 41.6213 41.762C41.1359 41.9673 40.5993 42.07 40.0113 42.07C39.2553 42.07 38.5833 41.9113 37.9953 41.594C37.4166 41.2673 36.9639 40.8193 36.6373 40.25C36.3106 39.6807 36.1473 39.0367 36.1473 38.318C36.1473 37.5993 36.3013 36.9553 36.6093 36.386C36.9266 35.8167 37.3559 35.3733 37.8973 35.056C38.4479 34.7387 39.0639 34.58 39.7453 34.58C40.4266 34.58 41.0379 34.7387 41.5793 35.056C42.1206 35.3733 42.5453 35.8167 42.8533 36.386C43.1613 36.946 43.3153 37.59 43.3153 38.318L43.3013 38.626ZM39.7453 35.434C39.0359 35.434 38.4386 35.6627 37.9533 36.12C37.4773 36.568 37.2066 37.156 37.1413 37.884H42.3633C42.2979 37.156 42.0226 36.568 41.5373 36.12C41.0613 35.6627 40.4639 35.434 39.7453 35.434ZM52.1236 34.636V42H51.1296V35.518H46.5096V42H45.5156V34.636H52.1236ZM60.9692 34.636V42H59.9752V35.518H56.4472L56.3492 37.338C56.2745 38.8687 56.0972 40.0447 55.8172 40.866C55.5372 41.6873 55.0378 42.098 54.3192 42.098C54.1232 42.098 53.8852 42.0607 53.6052 41.986L53.6752 41.132C53.8432 41.1693 53.9598 41.188 54.0252 41.188C54.4078 41.188 54.6972 41.0107 54.8932 40.656C55.0892 40.3013 55.2198 39.8627 55.2852 39.34C55.3505 38.8173 55.4065 38.1267 55.4532 37.268L55.5792 34.636H60.9692ZM66.8329 42.07C66.1235 42.07 65.4842 41.9113 64.9149 41.594C64.3455 41.2673 63.8975 40.8193 63.5709 40.25C63.2442 39.6807 63.0809 39.0367 63.0809 38.318C63.0809 37.5993 63.2442 36.9553 63.5709 36.386C63.8975 35.8167 64.3455 35.3733 64.9149 35.056C65.4842 34.7387 66.1235 34.58 66.8329 34.58C67.5422 34.58 68.1815 34.7387 68.7509 35.056C69.3202 35.3733 69.7635 35.8167 70.0809 36.386C70.4075 36.9553 70.5709 37.5993 70.5709 38.318C70.5709 39.0367 70.4075 39.6807 70.0809 40.25C69.7635 40.8193 69.3202 41.2673 68.7509 41.594C68.1815 41.9113 67.5422 42.07 66.8329 42.07ZM66.8329 41.188C67.3555 41.188 67.8222 41.0713 68.2329 40.838C68.6529 40.5953 68.9795 40.2547 69.2129 39.816C69.4462 39.3773 69.5629 38.878 69.5629 38.318C69.5629 37.758 69.4462 37.2587 69.2129 36.82C68.9795 36.3813 68.6529 36.0453 68.2329 35.812C67.8222 35.5693 67.3555 35.448 66.8329 35.448C66.3102 35.448 65.8389 35.5693 65.4189 35.812C65.0082 36.0453 64.6815 36.3813 64.4389 36.82C64.2055 37.2587 64.0889 37.758 64.0889 38.318C64.0889 38.878 64.2055 39.3773 64.4389 39.816C64.6815 40.2547 65.0082 40.5953 65.4189 40.838C65.8389 41.0713 66.3102 41.188 66.8329 41.188ZM77.0415 42L74.7035 38.92L72.3515 42H71.2315L74.1435 38.22L71.3715 34.636H72.4915L74.7035 37.52L76.9155 34.636H78.0075L75.2355 38.22L78.1755 42H77.0415ZM82.5829 42.07C81.8735 42.07 81.2342 41.9113 80.6649 41.594C80.0955 41.2673 79.6475 40.8193 79.3209 40.25C78.9942 39.6807 78.8309 39.0367 78.8309 38.318C78.8309 37.5993 78.9942 36.9553 79.3209 36.386C79.6475 35.8167 80.0955 35.3733 80.6649 35.056C81.2342 34.7387 81.8735 34.58 82.5829 34.58C83.2922 34.58 83.9315 34.7387 84.5009 35.056C85.0702 35.3733 85.5135 35.8167 85.8309 36.386C86.1575 36.9553 86.3209 37.5993 86.3209 38.318C86.3209 39.0367 86.1575 39.6807 85.8309 40.25C85.5135 40.8193 85.0702 41.2673 84.5009 41.594C83.9315 41.9113 83.2922 42.07 82.5829 42.07ZM82.5829 41.188C83.1055 41.188 83.5722 41.0713 83.9829 40.838C84.4029 40.5953 84.7295 40.2547 84.9629 39.816C85.1962 39.3773 85.3129 38.878 85.3129 38.318C85.3129 37.758 85.1962 37.2587 84.9629 36.82C84.7295 36.3813 84.4029 36.0453 83.9829 35.812C83.5722 35.5693 83.1055 35.448 82.5829 35.448C82.0602 35.448 81.5889 35.5693 81.1689 35.812C80.7582 36.0453 80.4315 36.3813 80.1889 36.82C79.9555 37.2587 79.8389 37.758 79.8389 38.318C79.8389 38.878 79.9555 39.3773 80.1889 39.816C80.4315 40.2547 80.7582 40.5953 81.1689 40.838C81.5889 41.0713 82.0602 41.188 82.5829 41.188ZM88.3102 42.07C88.1048 42.07 87.9275 41.9953 87.7782 41.846C87.6382 41.6967 87.5682 41.5147 87.5682 41.3C87.5682 41.0853 87.6382 40.908 87.7782 40.768C87.9275 40.6187 88.1048 40.544 88.3102 40.544C88.5155 40.544 88.6928 40.6187 88.8422 40.768C88.9915 40.908 89.0662 41.0853 89.0662 41.3C89.0662 41.5147 88.9915 41.6967 88.8422 41.846C88.6928 41.9953 88.5155 42.07 88.3102 42.07ZM101.381 39.382H95.921L94.745 42H93.667L98.147 32.2H99.169L103.649 42H102.557L101.381 39.382ZM101.003 38.542L98.651 33.278L96.299 38.542H101.003ZM113.643 38.192C114.642 38.4253 115.141 39.0273 115.141 39.998C115.141 40.642 114.903 41.1367 114.427 41.482C113.951 41.8273 113.242 42 112.299 42H108.953V34.636H112.201C113.041 34.636 113.699 34.7993 114.175 35.126C114.651 35.4527 114.889 35.9193 114.889 36.526C114.889 36.9273 114.777 37.2727 114.553 37.562C114.338 37.842 114.035 38.052 113.643 38.192ZM109.919 37.912H112.131C112.7 37.912 113.134 37.8047 113.433 37.59C113.741 37.3753 113.895 37.0627 113.895 36.652C113.895 36.2413 113.741 35.9333 113.433 35.728C113.134 35.5227 112.7 35.42 112.131 35.42H109.919V37.912ZM112.257 41.216C112.892 41.216 113.368 41.1133 113.685 40.908C114.002 40.7027 114.161 40.3807 114.161 39.942C114.161 39.5033 114.016 39.1813 113.727 38.976C113.438 38.7613 112.98 38.654 112.355 38.654H109.919V41.216H112.257ZM120.005 34.58C120.966 34.58 121.703 34.8227 122.217 35.308C122.73 35.784 122.987 36.4933 122.987 37.436V42H122.035V40.852C121.811 41.2347 121.479 41.5333 121.041 41.748C120.611 41.9627 120.098 42.07 119.501 42.07C118.679 42.07 118.026 41.874 117.541 41.482C117.055 41.09 116.813 40.572 116.813 39.928C116.813 39.3027 117.037 38.7987 117.485 38.416C117.942 38.0333 118.665 37.842 119.655 37.842H121.993V37.394C121.993 36.7593 121.815 36.2787 121.461 35.952C121.106 35.616 120.588 35.448 119.907 35.448C119.44 35.448 118.992 35.5273 118.563 35.686C118.133 35.8353 117.765 36.0453 117.457 36.316L117.009 35.574C117.382 35.2567 117.83 35.014 118.353 34.846C118.875 34.6687 119.426 34.58 120.005 34.58ZM119.655 41.286C120.215 41.286 120.695 41.16 121.097 40.908C121.498 40.6467 121.797 40.2733 121.993 39.788V38.584H119.683C118.423 38.584 117.793 39.0227 117.793 39.9C117.793 40.3293 117.956 40.67 118.283 40.922C118.609 41.1647 119.067 41.286 119.655 41.286ZM133.865 34.636V42H132.955V36.176L129.973 41.104H129.525L126.543 36.162V42H125.633V34.636H126.641L129.763 39.942L132.941 34.636H133.865ZM35.646 51.636V59H34.736V53.176L31.754 58.104H31.306L28.324 53.162V59H27.414V51.636H28.422L31.544 56.942L34.722 51.636H35.646ZM41.5125 59.07C40.8032 59.07 40.1639 58.9113 39.5945 58.594C39.0252 58.2673 38.5772 57.8193 38.2505 57.25C37.9239 56.6807 37.7605 56.0367 37.7605 55.318C37.7605 54.5993 37.9239 53.9553 38.2505 53.386C38.5772 52.8167 39.0252 52.3733 39.5945 52.056C40.1639 51.7387 40.8032 51.58 41.5125 51.58C42.2219 51.58 42.8612 51.7387 43.4305 52.056C43.9999 52.3733 44.4432 52.8167 44.7605 53.386C45.0872 53.9553 45.2505 54.5993 45.2505 55.318C45.2505 56.0367 45.0872 56.6807 44.7605 57.25C44.4432 57.8193 43.9999 58.2673 43.4305 58.594C42.8612 58.9113 42.2219 59.07 41.5125 59.07ZM41.5125 58.188C42.0352 58.188 42.5019 58.0713 42.9125 57.838C43.3325 57.5953 43.6592 57.2547 43.8925 56.816C44.1259 56.3773 44.2425 55.878 44.2425 55.318C44.2425 54.758 44.1259 54.2587 43.8925 53.82C43.6592 53.3813 43.3325 53.0453 42.9125 52.812C42.5019 52.5693 42.0352 52.448 41.5125 52.448C40.9899 52.448 40.5185 52.5693 40.0985 52.812C39.6879 53.0453 39.3612 53.3813 39.1185 53.82C38.8852 54.2587 38.7685 54.758 38.7685 55.318C38.7685 55.878 38.8852 56.3773 39.1185 56.816C39.3612 57.2547 39.6879 57.5953 40.0985 57.838C40.5185 58.0713 40.9899 58.188 41.5125 58.188ZM53.5692 55.724H51.9732V59H50.9792V55.724H49.3832L47.1292 59H45.9392L48.5852 55.206L46.1492 51.636H47.2272L49.3832 54.87H50.9792V51.636H51.9732V54.87H53.5692L55.7392 51.636H56.8172L54.3812 55.22L57.0272 59H55.8372L53.5692 55.724ZM58.6816 51.636H59.6756V54.898H64.3096V51.636H65.3036V59H64.3096V55.752H59.6756V59H58.6816V51.636ZM71.1668 59.07C70.4575 59.07 69.8182 58.9113 69.2488 58.594C68.6795 58.2673 68.2315 57.8193 67.9048 57.25C67.5782 56.6807 67.4148 56.0367 67.4148 55.318C67.4148 54.5993 67.5782 53.9553 67.9048 53.386C68.2315 52.8167 68.6795 52.3733 69.2488 52.056C69.8182 51.7387 70.4575 51.58 71.1668 51.58C71.8762 51.58 72.5155 51.7387 73.0848 52.056C73.6542 52.3733 74.0975 52.8167 74.4148 53.386C74.7415 53.9553 74.9048 54.5993 74.9048 55.318C74.9048 56.0367 74.7415 56.6807 74.4148 57.25C74.0975 57.8193 73.6542 58.2673 73.0848 58.594C72.5155 58.9113 71.8762 59.07 71.1668 59.07ZM71.1668 58.188C71.6895 58.188 72.1562 58.0713 72.5668 57.838C72.9868 57.5953 73.3135 57.2547 73.5468 56.816C73.7802 56.3773 73.8968 55.878 73.8968 55.318C73.8968 54.758 73.7802 54.2587 73.5468 53.82C73.3135 53.3813 72.9868 53.0453 72.5668 52.812C72.1562 52.5693 71.6895 52.448 71.1668 52.448C70.6442 52.448 70.1728 52.5693 69.7528 52.812C69.3422 53.0453 69.0155 53.3813 68.7728 53.82C68.5395 54.2587 68.4228 54.758 68.4228 55.318C68.4228 55.878 68.5395 56.3773 68.7728 56.816C69.0155 57.2547 69.3422 57.5953 69.7528 57.838C70.1728 58.0713 70.6442 58.188 71.1668 58.188ZM87.8753 58.132V60.778H86.9373V59H80.3433V60.778H79.4053V58.132H79.8253C80.32 58.104 80.656 57.74 80.8333 57.04C81.0106 56.34 81.132 55.36 81.1973 54.1L81.2953 51.636H86.7273V58.132H87.8753ZM82.1073 54.156C82.0606 55.2013 81.972 56.0647 81.8413 56.746C81.7106 57.418 81.4773 57.88 81.1413 58.132H85.7333V52.518H82.1913L82.1073 54.156ZM92.8504 59.07C92.1411 59.07 91.5018 58.9113 90.9324 58.594C90.3631 58.2673 89.9151 57.8193 89.5884 57.25C89.2618 56.6807 89.0984 56.0367 89.0984 55.318C89.0984 54.5993 89.2618 53.9553 89.5884 53.386C89.9151 52.8167 90.3631 52.3733 90.9324 52.056C91.5018 51.7387 92.1411 51.58 92.8504 51.58C93.5598 51.58 94.1991 51.7387 94.7684 52.056C95.3378 52.3733 95.7811 52.8167 96.0984 53.386C96.4251 53.9553 96.5884 54.5993 96.5884 55.318C96.5884 56.0367 96.4251 56.6807 96.0984 57.25C95.7811 57.8193 95.3378 58.2673 94.7684 58.594C94.1991 58.9113 93.5598 59.07 92.8504 59.07ZM92.8504 58.188C93.3731 58.188 93.8398 58.0713 94.2504 57.838C94.6704 57.5953 94.9971 57.2547 95.2304 56.816C95.4638 56.3773 95.5804 55.878 95.5804 55.318C95.5804 54.758 95.4638 54.2587 95.2304 53.82C94.9971 53.3813 94.6704 53.0453 94.2504 52.812C93.8398 52.5693 93.3731 52.448 92.8504 52.448C92.3278 52.448 91.8564 52.5693 91.4364 52.812C91.0258 53.0453 90.6991 53.3813 90.4564 53.82C90.2231 54.2587 90.1064 54.758 90.1064 55.318C90.1064 55.878 90.2231 56.3773 90.4564 56.816C90.6991 57.2547 91.0258 57.5953 91.4364 57.838C91.8564 58.0713 92.3278 58.188 92.8504 58.188ZM103.403 55.192C104.401 55.4253 104.901 56.0273 104.901 56.998C104.901 57.642 104.663 58.1367 104.187 58.482C103.711 58.8273 103.001 59 102.059 59H98.7128V51.636H101.961C102.801 51.636 103.459 51.7993 103.935 52.126C104.411 52.4527 104.649 52.9193 104.649 53.526C104.649 53.9273 104.537 54.2727 104.313 54.562C104.098 54.842 103.795 55.052 103.403 55.192ZM99.6788 54.912H101.891C102.46 54.912 102.894 54.8047 103.193 54.59C103.501 54.3753 103.655 54.0627 103.655 53.652C103.655 53.2413 103.501 52.9333 103.193 52.728C102.894 52.5227 102.46 52.42 101.891 52.42H99.6788V54.912ZM102.017 58.216C102.651 58.216 103.127 58.1133 103.445 57.908C103.762 57.7027 103.921 57.3807 103.921 56.942C103.921 56.5033 103.776 56.1813 103.487 55.976C103.197 55.7613 102.74 55.654 102.115 55.654H99.6788V58.216H102.017ZM113.67 55.626H107.51C107.566 56.3913 107.86 57.012 108.392 57.488C108.924 57.9547 109.596 58.188 110.408 58.188C110.866 58.188 111.286 58.1087 111.668 57.95C112.051 57.782 112.382 57.5393 112.662 57.222L113.222 57.866C112.896 58.258 112.485 58.5567 111.99 58.762C111.505 58.9673 110.968 59.07 110.38 59.07C109.624 59.07 108.952 58.9113 108.364 58.594C107.786 58.2673 107.333 57.8193 107.006 57.25C106.68 56.6807 106.516 56.0367 106.516 55.318C106.516 54.5993 106.67 53.9553 106.978 53.386C107.296 52.8167 107.725 52.3733 108.266 52.056C108.817 51.7387 109.433 51.58 110.114 51.58C110.796 51.58 111.407 51.7387 111.948 52.056C112.49 52.3733 112.914 52.8167 113.222 53.386C113.53 53.946 113.684 54.59 113.684 55.318L113.67 55.626ZM110.114 52.434C109.405 52.434 108.808 52.6627 108.322 53.12C107.846 53.568 107.576 54.156 107.51 54.884H112.732C112.667 54.156 112.392 53.568 111.906 53.12C111.43 52.6627 110.833 52.434 110.114 52.434ZM119.679 51.58C120.369 51.58 120.995 51.7387 121.555 52.056C122.115 52.364 122.553 52.8027 122.871 53.372C123.188 53.9413 123.347 54.59 123.347 55.318C123.347 56.0553 123.188 56.7087 122.871 57.278C122.553 57.8473 122.115 58.2907 121.555 58.608C121.004 58.916 120.379 59.07 119.679 59.07C119.081 59.07 118.54 58.9487 118.055 58.706C117.579 58.454 117.187 58.09 116.879 57.614V61.716H115.885V51.636H116.837V53.092C117.135 52.6067 117.527 52.2333 118.013 51.972C118.507 51.7107 119.063 51.58 119.679 51.58ZM119.609 58.188C120.122 58.188 120.589 58.0713 121.009 57.838C121.429 57.5953 121.755 57.2547 121.989 56.816C122.231 56.3773 122.353 55.878 122.353 55.318C122.353 54.758 122.231 54.2633 121.989 53.834C121.755 53.3953 121.429 53.0547 121.009 52.812C120.589 52.5693 120.122 52.448 119.609 52.448C119.086 52.448 118.615 52.5693 118.195 52.812C117.784 53.0547 117.457 53.3953 117.215 53.834C116.981 54.2633 116.865 54.758 116.865 55.318C116.865 55.878 116.981 56.3773 117.215 56.816C117.457 57.2547 117.784 57.5953 118.195 57.838C118.615 58.0713 119.086 58.188 119.609 58.188ZM130.879 51.636V59H129.969V56.564H127.659H127.379L125.671 59H124.593L126.427 56.424C125.857 56.2653 125.419 55.9947 125.111 55.612C124.803 55.2293 124.649 54.744 124.649 54.156C124.649 53.3347 124.929 52.7093 125.489 52.28C126.049 51.8507 126.814 51.636 127.785 51.636H130.879ZM125.657 54.184C125.657 55.276 126.352 55.822 127.743 55.822H129.969V52.518H127.813C126.375 52.518 125.657 53.0733 125.657 54.184ZM138.893 52.518H136.107V59H135.113V52.518H132.327V51.636H138.893V52.518ZM143.494 54.24C144.418 54.2493 145.118 54.4547 145.594 54.856C146.079 55.2573 146.322 55.836 146.322 56.592C146.322 57.376 146.061 57.978 145.538 58.398C145.025 58.818 144.278 59.0233 143.298 59.014L140.33 59V51.636H141.324V54.212L143.494 54.24ZM143.242 58.258C143.923 58.2673 144.437 58.132 144.782 57.852C145.137 57.5627 145.314 57.1427 145.314 56.592C145.314 56.0507 145.141 55.6493 144.796 55.388C144.451 55.1267 143.933 54.9913 143.242 54.982L141.324 54.954V58.23L143.242 58.258ZM149.507 56.06C149.507 55.6773 149.567 55.3413 149.689 55.052C149.819 54.7627 149.978 54.5153 150.165 54.31C150.351 54.1047 150.594 53.8713 150.893 53.61C151.294 53.2553 151.588 52.9473 151.775 52.686C151.971 52.4153 152.069 52.0887 152.069 51.706C152.069 51.1927 151.868 50.782 151.467 50.474C151.065 50.1567 150.515 49.998 149.815 49.998C148.657 49.998 147.766 50.376 147.141 51.132L146.399 50.572C147.192 49.6013 148.354 49.116 149.885 49.116C150.865 49.116 151.644 49.3353 152.223 49.774C152.811 50.2127 153.105 50.8053 153.105 51.552C153.105 51.9347 153.039 52.2753 152.909 52.574C152.787 52.8633 152.633 53.1107 152.447 53.316C152.269 53.5213 152.031 53.7593 151.733 54.03C151.331 54.394 151.033 54.7207 150.837 55.01C150.641 55.29 150.543 55.64 150.543 56.06H149.507ZM150.025 59.07C149.819 59.07 149.647 59 149.507 58.86C149.367 58.7107 149.297 58.538 149.297 58.342C149.297 58.1367 149.367 57.9687 149.507 57.838C149.647 57.698 149.819 57.628 150.025 57.628C150.239 57.628 150.417 57.698 150.557 57.838C150.697 57.9687 150.767 58.1367 150.767 58.342C150.767 58.538 150.692 58.7107 150.543 58.86C150.403 59 150.23 59.07 150.025 59.07Z" fill="#333E63"/>
<defs>
<filter id="filter0_d_507_4763" x="13.5" y="0.5" width="158" height="97" filterUnits="userSpaceOnUse" color-interpolation-filters="sRGB">
<feFlood flood-opacity="0" result="BackgroundImageFix"/>
<feColorMatrix in="SourceAlpha" type="matrix" values="0 0 0 0 0 0 0 0 0 0 0 0 0 0 0 0 0 0 127 0" result="hardAlpha"/>
<feOffset dx="5" dy="5"/>
<feComposite in2="hardAlpha" operator="out"/>
<feColorMatrix type="matrix" values="0 0 0 0 0.2 0 0 0 0 0.243137 0 0 0 0 0.388235 0 0 0 1 0"/>
<feBlend mode="normal" in2="BackgroundImageFix" result="effect1_dropShadow_507_4763"/>
<feBlend mode="normal" in="SourceGraphic" in2="effect1_dropShadow_507_4763" result="shape"/>
</filter>
<clipPath id="clip0_507_4763">
<rect width="158" height="148" fill="white" transform="translate(0 103)"/>
</clipPath>
</defs>
</svg>
