<svg width="591" height="383" viewBox="0 0 591 383" fill="none" xmlns="http://www.w3.org/2000/svg">
<path d="M272.911 264.444C273.634 196.56 250.49 146.61 250.49 146.61H31.582L32.6669 148.295L41.3461 264.805H238.917V330.282H333.062V264.444H272.911Z" fill="#525252" stroke="#263238" stroke-linecap="round" stroke-linejoin="round"/>
<path d="M116.324 380.472H108.73C107.645 380.472 106.801 379.63 106.801 378.667L103.185 324.504H121.869L118.253 378.667C118.132 379.63 117.288 380.472 116.324 380.472Z" fill="white" stroke="#263238" stroke-linecap="round" stroke-linejoin="round"/>
<path d="M366.091 380.472H358.497C357.532 380.472 356.689 379.63 356.689 378.667L353.072 324.504H371.757L368.14 378.667C368.02 379.75 367.176 380.472 366.091 380.472Z" fill="white" stroke="#263238" stroke-linecap="round" stroke-linejoin="round"/>
<path d="M36.2828 380.472H28.6886C27.6037 380.472 26.7599 379.63 26.7599 378.667L23.1436 324.504H41.8278L38.2115 378.667C38.091 379.63 37.2472 380.472 36.2828 380.472Z" fill="white" stroke="#263238" stroke-linecap="round" stroke-linejoin="round"/>
<path d="M286.05 380.472H278.576C277.491 380.472 276.648 379.63 276.648 378.667L273.031 324.504H291.595L287.979 378.667C287.858 379.63 287.014 380.472 286.05 380.472Z" fill="white" stroke="#263238" stroke-linecap="round" stroke-linejoin="round"/>
<path d="M114.154 330.282V264.444H54.0031C54.7264 196.56 31.582 146.61 31.582 146.61H23.9877C21.8179 146.61 20.0098 148.416 20.0098 150.582V330.282H114.154Z" fill="#263238" stroke="#263238" stroke-linecap="round" stroke-linejoin="round"/>
<path d="M114.154 264.444H368.02C373.203 264.444 377.301 268.657 377.301 273.712V330.162H114.154V264.444Z" fill="#525252" stroke="#263238" stroke-linecap="round" stroke-linejoin="round"/>
<path d="M0.602539 380.231H398.397" stroke="#263238" stroke-linecap="round" stroke-linejoin="round"/>
<path d="M200.222 113.631C200.222 113.631 207.455 128.797 212.156 141.435C216.858 154.073 225.898 195.597 222.644 197.764C219.389 199.93 208.54 203.902 202.754 196.681C196.968 189.459 186.48 157.684 186.48 157.684L194.075 132.769" fill="#B0BEC5"/>
<path d="M200.222 113.631C200.222 113.631 207.455 128.797 212.156 141.435C216.858 154.073 225.898 195.597 222.644 197.764C219.389 199.93 208.54 203.902 202.754 196.681C196.968 189.459 186.48 157.684 186.48 157.684L194.075 132.769" stroke="#263238" stroke-linecap="round" stroke-linejoin="round"/>
<path d="M203.598 139.99L191.785 167.192L163.939 216.42C163.939 216.42 123.557 217.623 117.771 218.586C111.985 219.549 88.3581 223.521 82.0898 226.891C75.9421 230.261 71.482 233.752 70.6382 232.187C69.6738 230.622 67.263 226.289 68.1068 221.956C69.0711 217.623 75.701 210.522 78.5941 204.263C81.4871 198.125 106.078 114.233 106.801 109.9C107.404 105.567 111.141 98.7063 118.012 94.1326C124.883 89.4385 155.26 82.939 155.26 82.939C162.613 85.5869 169.725 88.8367 176.596 92.5679C184.914 97.5027 192.749 103.4 196.124 107.733C199.5 112.066 206.612 130.602 206.612 130.602" fill="#B0BEC5"/>
<path d="M203.598 139.99L191.785 167.192L163.939 216.42C163.939 216.42 123.557 217.623 117.771 218.586C111.985 219.549 88.3581 223.521 82.0898 226.891C75.9421 230.261 71.482 233.752 70.6382 232.187C69.6738 230.622 67.263 226.289 68.1068 221.956C69.0711 217.623 75.701 210.522 78.5941 204.263C81.4871 198.125 106.078 114.233 106.801 109.9C107.404 105.567 111.141 98.7063 118.012 94.1326C124.883 89.4385 155.26 82.939 155.26 82.939C162.613 85.5869 169.725 88.8367 176.596 92.5679C184.914 97.5027 192.749 103.4 196.124 107.733C199.5 112.066 206.612 130.602 206.612 130.602" stroke="#263238" stroke-linecap="round" stroke-linejoin="round"/>
<path d="M115.602 209.078L118.495 209.8" stroke="#263238" stroke-linecap="round" stroke-linejoin="round"/>
<path d="M81.9697 209.8C81.9697 209.8 89.9256 204.985 109.454 207.994" stroke="#263238" stroke-linecap="round" stroke-linejoin="round"/>
<path d="M73.4111 225.808C73.4111 225.808 76.3042 218.948 95.7117 218.346" stroke="#263238" stroke-linecap="round" stroke-linejoin="round"/>
<path d="M187.807 104.363L188.771 123.862L179.128 113.029L187.807 104.363Z" fill="white" stroke="#263238" stroke-linecap="round" stroke-linejoin="round"/>
<path d="M167.555 67.8938L161.89 81.7354L173.944 98.947L175.149 121.094L195.401 95.3362L172.739 63.9219L167.555 67.8938Z" fill="white" stroke="#263238" stroke-linecap="round" stroke-linejoin="round"/>
<path d="M174.547 83.5405C174.547 83.5405 182.382 101.595 186.963 105.687L193.713 97.021L175.391 78.9668L174.547 83.5405Z" fill="#263238" stroke="#263238" stroke-linecap="round" stroke-linejoin="round"/>
<path d="M213.001 65.7275C210.469 63.561 207.215 62.4778 203.96 62.3574" stroke="#263238" stroke-linecap="round" stroke-linejoin="round"/>
<path d="M207.499 71.8035C208.065 70.2407 208.017 68.7905 207.39 68.5644C206.764 68.3383 205.798 69.422 205.232 70.9848C204.666 72.5476 204.715 73.9977 205.341 74.2238C205.967 74.4499 206.933 73.3663 207.499 71.8035Z" fill="#263238"/>
<path d="M161.167 71.8657L178.887 104.724L168.038 123.862L150.921 82.6982L161.167 71.8657Z" fill="white" stroke="#263238" stroke-linecap="round" stroke-linejoin="round"/>
<path d="M198.174 100.873L201.429 103.039C202.513 101.835 203.357 100.271 203.839 98.7061" stroke="#263238" stroke-linecap="round" stroke-linejoin="round"/>
<path d="M157.189 167.312C154.416 171.886 151.885 176.58 149.595 181.515" stroke="#263238" stroke-linecap="round" stroke-linejoin="round"/>
<path d="M143.929 176.46C143.206 177.062 142.603 177.784 142.121 178.506" stroke="#263238" stroke-linecap="round" stroke-linejoin="round"/>
<path d="M152.247 169.72C152.247 169.72 149.475 171.766 146.702 174.053" stroke="#263238" stroke-linecap="round" stroke-linejoin="round"/>
<path d="M110.418 153.952L100.413 149.378" stroke="#263238" stroke-linecap="round" stroke-linejoin="round"/>
<path d="M183.709 209.439C183.709 209.439 231.083 209.439 240.606 210.763C250.129 212.087 251.334 220.873 250.731 225.928C250.129 230.984 224.212 351.225 225.417 352.428C226.743 353.632 241.57 364.705 248.2 366.27C254.83 367.835 257 370.964 257.361 372.89C257.361 375.056 257.241 377.102 256.759 379.149C250.852 379.991 244.945 380.473 239.039 380.473C229.275 380.473 209.023 377.343 204.925 377.343C200.826 377.343 192.629 379.51 191.303 376.38C189.977 373.251 194.437 358.085 196.366 354.354C198.415 349.66 199.862 344.605 200.465 339.55C200.826 335.818 204.563 288.757 204.201 273.953C203.84 259.148 205.407 252.769 205.407 252.769L185.156 258.185L183.709 209.439Z" fill="white" stroke="#263238" stroke-linecap="round" stroke-linejoin="round"/>
<path d="M248.2 366.27C241.57 364.705 226.743 353.632 225.417 352.428C225.417 352.428 221.921 351.224 220.716 352.428C219.511 353.632 218.787 358.687 218.787 358.687C212.519 357.965 206.251 356.761 200.103 354.956L196.487 353.872L196.246 354.354C194.317 358.085 189.977 373.251 191.183 376.38C192.388 379.509 200.706 377.343 204.804 377.343C208.903 377.343 229.154 380.472 238.918 380.472C244.825 380.472 250.852 379.991 256.638 379.148C257.12 377.102 257.361 374.936 257.241 372.889C257 370.843 254.83 367.714 248.2 366.27Z" fill="#B0BEC5" stroke="#263238" stroke-linecap="round" stroke-linejoin="round"/>
<path d="M191.303 376.26C192.629 379.389 200.826 377.222 204.924 377.222C209.023 377.222 229.274 380.352 239.038 380.352C244.945 380.352 250.972 379.87 256.758 379.028C257.119 377.584 257.24 376.139 257.361 374.695C246.873 375.417 236.265 375.176 225.778 374.093C214.447 373.01 203.116 371.204 191.905 368.677C191.182 372.167 190.82 375.056 191.303 376.26Z" fill="white" stroke="#263238" stroke-linecap="round" stroke-linejoin="round"/>
<path d="M229.274 332.929C236.266 302.598 250.249 229.419 250.61 225.808C251.213 220.753 250.007 211.966 240.485 210.642C230.962 209.439 183.588 209.318 183.588 209.318L185.155 257.944L205.406 252.528C205.406 252.528 203.839 258.787 204.201 273.712C204.442 285.748 202.031 324.986 200.946 334.735L229.274 332.929Z" fill="#263238" stroke="#263238" stroke-miterlimit="10"/>
<path d="M205.527 252.649C205.527 252.649 211.555 236.28 224.453 230.623" stroke="#263238" stroke-linecap="round" stroke-linejoin="round"/>
<path d="M211.916 236.159C213.965 233.631 216.738 231.706 219.872 230.502" stroke="#263238" stroke-linecap="round" stroke-linejoin="round"/>
<path d="M199.259 328.356L198.897 340.874L230.48 338.707L233.373 326.43L199.259 328.356Z" fill="white" stroke="#263238" stroke-linecap="round" stroke-linejoin="round"/>
<path d="M208.902 184.404C208.902 184.404 200.946 185.487 198.053 188.376C195.16 191.264 183.588 213.291 183.588 215.457C183.588 217.624 195.16 226.29 198.776 226.651C202.393 227.012 220.836 205.708 223.729 203.18C226.622 200.653 224.091 186.57 223.006 182.237" fill="#B0BEC5"/>
<path d="M208.902 184.404C208.902 184.404 200.946 185.487 198.053 188.376C195.16 191.264 183.588 213.291 183.588 215.457C183.588 217.624 195.16 226.29 198.776 226.651C202.393 227.012 220.836 205.708 223.729 203.18C226.622 200.653 224.091 186.57 223.006 182.237" stroke="#263238" stroke-linecap="round" stroke-linejoin="round"/>
<path d="M196.245 347.734C196.245 347.734 200.947 267.934 200.947 246.149C200.947 224.363 202.755 214.012 196.245 210.04C189.736 206.069 119.218 214.373 103.186 218.706C87.1532 223.039 71.7236 232.789 71.7236 232.789C71.7236 232.789 73.1702 252.648 76.7865 257.704C80.4028 262.759 93.4215 264.925 99.9309 264.925H142.965L160.323 260.231L171.172 354.594C171.172 354.594 169.002 378.426 170.811 379.87C172.619 381.315 198.295 382.759 207.335 382.398C216.376 382.037 231.926 382.759 232.65 380.231C233.373 377.704 231.565 371.204 231.565 371.204C231.565 371.204 215.291 364.705 210.228 361.455C205.648 358.205 201.308 354.715 197.21 350.984L196.245 347.734Z" fill="white" stroke="#263238" stroke-linecap="round" stroke-linejoin="round"/>
<path d="M210.349 361.455C205.768 358.205 201.428 354.715 197.33 350.984L196.245 347.734C196.245 347.734 194.075 347.012 191.544 350.261C189.736 353.03 188.41 356.039 187.566 359.289L171.051 356.881C170.569 362.899 169.484 378.667 170.931 379.87C172.739 381.315 198.415 382.759 207.456 382.398C216.496 382.037 232.047 382.759 232.77 380.231C233.493 377.704 231.685 371.204 231.685 371.204C231.685 371.204 215.411 364.705 210.349 361.455Z" fill="#B0BEC5" stroke="#263238" stroke-linecap="round" stroke-linejoin="round"/>
<path d="M232.77 380.232C233.011 378.667 233.011 376.982 232.65 375.417C213.242 379.75 177.802 375.899 170.208 374.936C170.208 377.584 170.449 379.389 170.931 379.871C172.739 381.315 198.415 382.759 207.456 382.398C216.497 382.037 232.047 382.76 232.77 380.232Z" fill="white" stroke="#263238" stroke-linecap="round" stroke-linejoin="round"/>
<path d="M160.444 260.231L169.485 341.836C177.199 340.392 188.651 338.346 196.969 336.781C198.295 317.884 200.947 262.157 200.947 246.149C200.947 224.484 202.755 214.012 196.245 210.04C189.736 206.069 119.218 214.373 103.186 218.706C87.1532 223.039 71.7236 232.789 71.7236 232.789C71.7236 232.789 73.1702 252.648 76.7865 257.704C80.4028 262.759 93.4215 264.925 99.9309 264.925H142.965L160.444 260.231Z" fill="#263238" stroke="#263238" stroke-miterlimit="10"/>
<path d="M175.873 231.104C177.078 230.021 178.284 228.817 179.61 227.734" stroke="#263238" stroke-linecap="round" stroke-linejoin="round"/>
<path d="M160.806 258.065C162.614 249.88 166.351 242.297 171.534 235.798" stroke="#263238" stroke-linecap="round" stroke-linejoin="round"/>
<path d="M165.506 237.844C165.506 237.844 158.273 247.955 158.273 254.815" stroke="#263238" stroke-linecap="round" stroke-linejoin="round"/>
<path d="M165.868 336.902L168.038 348.456L198.415 342.679V330.763L165.868 336.902Z" fill="white" stroke="#263238" stroke-linecap="round" stroke-linejoin="round"/>
<path d="M178.525 68.4956C178.525 68.4956 180.936 56.7002 176.355 53.33C171.774 49.9599 169.122 57.9038 169.966 65.1255C170.931 72.3471 174.788 72.3471 174.788 72.3471" fill="white"/>
<path d="M178.525 68.4956C178.525 68.4956 180.936 56.7002 176.355 53.33C171.774 49.9599 169.122 57.9038 169.966 65.1255C170.931 72.3471 174.788 72.3471 174.788 72.3471" stroke="#263238" stroke-linecap="round" stroke-linejoin="round"/>
<path d="M178.525 33.8315L173.945 53.9319C173.945 53.9319 170.69 49.4785 168.761 55.7373C166.833 61.9961 166.109 67.5327 168.159 68.8567C169.485 69.6992 170.931 70.5418 172.378 71.1436C172.378 71.1436 170.931 79.2078 172.619 81.7354C174.306 84.263 184.432 95.0955 186.361 97.0213C188.289 98.9471 195.643 100.391 197.451 100.151C199.259 100.03 208.179 91.8457 210.47 89.5589C212.76 87.272 216.979 76.9209 216.979 76.9209C216.979 76.9209 221.68 57.7834 223.247 52.4875C224.935 47.1916 226.863 42.3772 225.417 37.8034C223.97 33.2297 215.05 24.323 203.357 23.1194C191.665 21.7954 181.539 21.1936 178.525 33.8315Z" fill="white" stroke="#263238" stroke-linecap="round" stroke-linejoin="round"/>
<path d="M200.343 57.4226C200.343 57.4226 194.316 52.8489 187.445 55.4968" stroke="#263238" stroke-linecap="round" stroke-linejoin="round"/>
<path d="M209.626 59.7093C209.626 59.7093 216.256 57.9039 218.426 62.4776" stroke="#263238" stroke-linecap="round" stroke-linejoin="round"/>
<path d="M195.522 62.4775C195.04 63.8015 193.834 64.644 192.749 64.4033C191.664 64.0422 191.182 62.7182 191.664 61.2739C192.147 59.9499 193.352 59.1074 194.316 59.3481C195.401 59.7092 196.004 61.1535 195.522 62.4775Z" fill="#263238"/>
<path d="M215.023 68.666C215.462 67.2707 214.942 65.8653 213.862 65.5268C212.782 65.1883 211.551 66.0451 211.113 67.4404C210.674 68.8357 211.194 70.2412 212.274 70.5796C213.353 70.9181 214.584 70.0613 215.023 68.666Z" fill="#263238"/>
<path d="M199.62 27.9338C199.62 27.9338 189.254 36.8406 183.95 38.5256L178.525 40.4514C178.525 40.4514 176.838 56.4595 175.753 57.0613C174.909 57.7834 173.944 57.6631 174.065 56.3391C174.186 55.0151 174.306 53.6912 173.462 52.8486C172.618 52.0061 169.967 49.5989 169.967 49.5989V33.8315C169.967 33.8315 167.194 27.2116 170.208 23.7212C173.101 20.2307 180.092 15.1755 180.092 15.1755C180.092 15.1755 178.043 13.3701 179.851 12.0461C181.659 10.7221 192.388 15.1755 192.388 15.1755C192.388 15.1755 195.642 10.1203 199.259 10.7221C202.875 11.3239 202.393 12.4072 202.393 12.4072C202.393 12.4072 217.099 11.685 224.091 14.6941C231.082 17.7031 245.186 44.303 242.052 45.6269C238.918 47.1916 230.841 45.7473 230.841 45.7473C230.841 45.7473 222.403 65.3662 221.439 65.3662L220.354 65.2459L224.332 46.4695C224.091 46.7102 203.719 34.5537 199.62 27.9338Z" fill="#263238" stroke="#263238" stroke-miterlimit="10"/>
<path d="M198.536 128.677V122.177C198.536 122.177 195.04 116.039 195.04 112.789C195.04 109.539 194.438 101.234 194.438 101.234C194.438 101.234 195.763 99.6695 196.969 100.271L198.295 100.873C198.295 100.873 201.188 96.4197 203.84 95.3365C206.371 94.3736 211.555 93.0496 212.519 95.3365C213.363 96.9012 213.725 98.7066 213.483 100.512C213.122 101.475 217.702 106.65 218.305 108.215C218.908 109.78 218.667 113.03 218.667 115.316C218.667 117.603 214.207 125.306 212.519 127.593C210.952 129.88 207.336 136.62 207.336 136.62L198.536 128.677Z" fill="white" stroke="#263238" stroke-linecap="round" stroke-linejoin="round"/>
<path d="M189.856 135.416L197.933 126.028L210.469 135.055L203.96 147.332L189.856 135.416Z" fill="white" stroke="#263238" stroke-linecap="round" stroke-linejoin="round"/>
<path d="M110.057 110.381C110.057 110.381 100.172 136.139 102.583 141.435C104.994 146.73 110.177 148.175 116.566 161.294C133.201 195.356 150.077 213.892 153.935 213.29C157.792 212.688 202.514 157.924 204.201 154.554C205.889 151.184 208.42 147.453 206.974 145.286C205.527 143.12 192.629 132.528 189.374 132.889C186.12 133.13 157.069 167.312 157.069 167.312L134.165 110.381C134.165 110.381 130.067 107.854 121.749 113.029" fill="#B0BEC5"/>
<path d="M110.057 110.381C110.057 110.381 100.172 136.139 102.583 141.435C104.994 146.73 110.177 148.175 116.566 161.294C133.201 195.356 150.077 213.892 153.935 213.29C157.792 212.688 202.514 157.924 204.201 154.554C205.889 151.184 208.42 147.453 206.974 145.286C205.527 143.12 192.629 132.528 189.374 132.889C186.12 133.13 157.069 167.312 157.069 167.312L134.165 110.381C134.165 110.381 130.067 107.854 121.749 113.029" stroke="#263238" stroke-linecap="round" stroke-linejoin="round"/>
<path d="M194.94 85.5289L200.924 86.2929" stroke="#263238" stroke-linecap="round" stroke-linejoin="round"/>
<path d="M203.7 63.1426C203.7 63.1426 201.648 69.724 201.899 70.9554C202.161 72.067 207.007 76.0131 205.916 77.364C204.824 78.715 198.811 78.2884 198.811 78.2884" stroke="#263238" stroke-miterlimit="10"/>
<g filter="url(#filter0_d_1111_2755)">
<path d="M262 64.4367L311.036 38.9413V10.2711C311.036 5.14759 315.194 1 320.329 1H575.706C580.842 1 585 5.14759 585 10.2711V73.7289C585 78.8524 580.842 83 575.706 83H320.452C315.316 83 311.158 78.8524 311.158 73.7289V53.2139L262 64.4367Z" fill="white"/>
<path d="M261.769 63.9931C261.546 64.1092 261.444 64.373 261.531 64.6091C261.617 64.8453 261.866 64.9802 262.111 64.9242L310.658 53.8409V73.7289C310.658 79.1297 315.041 83.5 320.452 83.5H575.706C581.117 83.5 585.5 79.1297 585.5 73.7289V10.2711C585.5 4.87031 581.117 0.5 575.706 0.5H320.329C314.919 0.5 310.536 4.87031 310.536 10.2711V38.6377L261.769 63.9931Z" stroke="#333E63" stroke-linecap="round" stroke-linejoin="round"/>
</g>
<path d="M338.594 28.502C339.47 28.682 340.136 29.036 340.592 29.564C341.048 30.08 341.276 30.758 341.276 31.598C341.276 32.69 340.886 33.53 340.106 34.118C339.338 34.706 338.204 35 336.704 35H331.124V22.4H336.362C337.706 22.4 338.756 22.676 339.512 23.228C340.268 23.78 340.646 24.578 340.646 25.622C340.646 26.33 340.466 26.93 340.106 27.422C339.746 27.902 339.242 28.262 338.594 28.502ZM332.438 28.106H336.29C337.262 28.106 338.006 27.908 338.522 27.512C339.05 27.116 339.314 26.54 339.314 25.784C339.314 25.028 339.05 24.452 338.522 24.056C338.006 23.66 337.262 23.462 336.29 23.462H332.438V28.106ZM336.704 33.938C338.876 33.938 339.962 33.128 339.962 31.508C339.962 29.924 338.876 29.132 336.704 29.132H332.438V33.938H336.704ZM348.278 28.88C349.466 28.892 350.372 29.156 350.996 29.672C351.62 30.188 351.932 30.932 351.932 31.904C351.932 32.912 351.596 33.686 350.924 34.226C350.252 34.766 349.292 35.03 348.044 35.018L344.3 35V25.532H345.578V28.844L348.278 28.88ZM353.516 25.532H354.794V35H353.516V25.532ZM347.972 34.046C348.848 34.058 349.508 33.884 349.952 33.524C350.408 33.152 350.636 32.612 350.636 31.904C350.636 31.208 350.414 30.692 349.97 30.356C349.526 30.02 348.86 29.846 347.972 29.834L345.578 29.798V34.01L347.972 34.046ZM365.129 26.666H359.711V35H358.433V25.532H365.129V26.666ZM374.136 25.532V35H372.858V26.666H368.322L368.196 29.006C368.1 30.974 367.872 32.486 367.512 33.542C367.152 34.598 366.51 35.126 365.586 35.126C365.334 35.126 365.028 35.078 364.668 34.982L364.758 33.884C364.974 33.932 365.124 33.956 365.208 33.956C365.7 33.956 366.072 33.728 366.324 33.272C366.576 32.816 366.744 32.252 366.828 31.58C366.912 30.908 366.984 30.02 367.044 28.916L367.206 25.532H374.136ZM385.041 25.532V35H383.871V31.868H380.901H380.541L378.345 35H376.959L379.317 31.688C378.585 31.484 378.021 31.136 377.625 30.644C377.229 30.152 377.031 29.528 377.031 28.772C377.031 27.716 377.391 26.912 378.111 26.36C378.831 25.808 379.815 25.532 381.063 25.532H385.041ZM378.327 28.808C378.327 30.212 379.221 30.914 381.009 30.914H383.871V26.666H381.099C379.251 26.666 378.327 27.38 378.327 28.808ZM397.919 33.884V37.286H396.713V35H388.235V37.286H387.029V33.884H387.569C388.205 33.848 388.637 33.38 388.865 32.48C389.093 31.58 389.249 30.32 389.333 28.7L389.459 25.532H396.443V33.884H397.919ZM390.503 28.772C390.443 30.116 390.329 31.226 390.161 32.102C389.993 32.966 389.693 33.56 389.261 33.884H395.165V26.666H390.611L390.503 28.772ZM400.41 25.532H401.688V33.056L408.006 25.532H409.14V35H407.862V27.476L401.562 35H400.41V25.532ZM419.462 26.666H415.88V35H414.602V26.666H411.02V25.532H419.462V26.666ZM426.021 25.532H427.299V29.726H433.257V25.532H434.535V35H433.257V30.824H427.299V35H426.021V25.532ZM446.448 30.662H438.528C438.6 31.646 438.978 32.444 439.662 33.056C440.346 33.656 441.21 33.956 442.254 33.956C442.842 33.956 443.382 33.854 443.874 33.65C444.366 33.434 444.792 33.122 445.152 32.714L445.872 33.542C445.452 34.046 444.924 34.43 444.288 34.694C443.664 34.958 442.974 35.09 442.218 35.09C441.246 35.09 440.382 34.886 439.626 34.478C438.882 34.058 438.3 33.482 437.88 32.75C437.46 32.018 437.25 31.19 437.25 30.266C437.25 29.342 437.448 28.514 437.844 27.782C438.252 27.05 438.804 26.48 439.5 26.072C440.208 25.664 441 25.46 441.876 25.46C442.752 25.46 443.538 25.664 444.234 26.072C444.93 26.48 445.476 27.05 445.872 27.782C446.268 28.502 446.466 29.33 446.466 30.266L446.448 30.662ZM441.876 26.558C440.964 26.558 440.196 26.852 439.572 27.44C438.96 28.016 438.612 28.772 438.528 29.708H445.242C445.158 28.772 444.804 28.016 444.18 27.44C443.568 26.852 442.8 26.558 441.876 26.558ZM457.791 25.532V35H456.513V26.666H450.573V35H449.295V25.532H457.791ZM469.163 25.532V35H467.885V26.666H463.349L463.223 29.006C463.127 30.974 462.899 32.486 462.539 33.542C462.179 34.598 461.537 35.126 460.613 35.126C460.361 35.126 460.055 35.078 459.695 34.982L459.785 33.884C460.001 33.932 460.151 33.956 460.235 33.956C460.727 33.956 461.099 33.728 461.351 33.272C461.603 32.816 461.771 32.252 461.855 31.58C461.939 30.908 462.011 30.02 462.071 28.916L462.233 25.532H469.163ZM476.703 35.09C475.791 35.09 474.969 34.886 474.237 34.478C473.505 34.058 472.929 33.482 472.509 32.75C472.089 32.018 471.879 31.19 471.879 30.266C471.879 29.342 472.089 28.514 472.509 27.782C472.929 27.05 473.505 26.48 474.237 26.072C474.969 25.664 475.791 25.46 476.703 25.46C477.615 25.46 478.437 25.664 479.169 26.072C479.901 26.48 480.471 27.05 480.879 27.782C481.299 28.514 481.509 29.342 481.509 30.266C481.509 31.19 481.299 32.018 480.879 32.75C480.471 33.482 479.901 34.058 479.169 34.478C478.437 34.886 477.615 35.09 476.703 35.09ZM476.703 33.956C477.375 33.956 477.975 33.806 478.503 33.506C479.043 33.194 479.463 32.756 479.763 32.192C480.063 31.628 480.213 30.986 480.213 30.266C480.213 29.546 480.063 28.904 479.763 28.34C479.463 27.776 479.043 27.344 478.503 27.044C477.975 26.732 477.375 26.576 476.703 26.576C476.031 26.576 475.425 26.732 474.885 27.044C474.357 27.344 473.937 27.776 473.625 28.34C473.325 28.904 473.175 29.546 473.175 30.266C473.175 30.986 473.325 31.628 473.625 32.192C473.937 32.756 474.357 33.194 474.885 33.506C475.425 33.806 476.031 33.956 476.703 33.956ZM489.828 35L486.822 31.04L483.798 35H482.358L486.102 30.14L482.538 25.532H483.978L486.822 29.24L489.666 25.532H491.07L487.506 30.14L491.286 35H489.828ZM496.953 35.09C496.041 35.09 495.219 34.886 494.487 34.478C493.755 34.058 493.179 33.482 492.759 32.75C492.339 32.018 492.129 31.19 492.129 30.266C492.129 29.342 492.339 28.514 492.759 27.782C493.179 27.05 493.755 26.48 494.487 26.072C495.219 25.664 496.041 25.46 496.953 25.46C497.865 25.46 498.687 25.664 499.419 26.072C500.151 26.48 500.721 27.05 501.129 27.782C501.549 28.514 501.759 29.342 501.759 30.266C501.759 31.19 501.549 32.018 501.129 32.75C500.721 33.482 500.151 34.058 499.419 34.478C498.687 34.886 497.865 35.09 496.953 35.09ZM496.953 33.956C497.625 33.956 498.225 33.806 498.753 33.506C499.293 33.194 499.713 32.756 500.013 32.192C500.313 31.628 500.463 30.986 500.463 30.266C500.463 29.546 500.313 28.904 500.013 28.34C499.713 27.776 499.293 27.344 498.753 27.044C498.225 26.732 497.625 26.576 496.953 26.576C496.281 26.576 495.675 26.732 495.135 27.044C494.607 27.344 494.187 27.776 493.875 28.34C493.575 28.904 493.425 29.546 493.425 30.266C493.425 30.986 493.575 31.628 493.875 32.192C494.187 32.756 494.607 33.194 495.135 33.506C495.675 33.806 496.281 33.956 496.953 33.956ZM504.316 35.09C504.052 35.09 503.824 34.994 503.632 34.802C503.452 34.61 503.362 34.376 503.362 34.1C503.362 33.824 503.452 33.596 503.632 33.416C503.824 33.224 504.052 33.128 504.316 33.128C504.58 33.128 504.808 33.224 505 33.416C505.192 33.596 505.288 33.824 505.288 34.1C505.288 34.376 505.192 34.61 505 34.802C504.808 34.994 504.58 35.09 504.316 35.09ZM521.122 31.634H514.102L512.59 35H511.204L516.964 22.4H518.278L524.038 35H522.634L521.122 31.634ZM520.636 30.554L517.612 23.786L514.588 30.554H520.636ZM536.887 30.104C538.171 30.404 538.813 31.178 538.813 32.426C538.813 33.254 538.507 33.89 537.895 34.334C537.283 34.778 536.371 35 535.159 35H530.857V25.532H535.033C536.113 25.532 536.959 25.742 537.571 26.162C538.183 26.582 538.489 27.182 538.489 27.962C538.489 28.478 538.345 28.922 538.057 29.294C537.781 29.654 537.391 29.924 536.887 30.104ZM532.099 29.744H534.943C535.675 29.744 536.233 29.606 536.617 29.33C537.013 29.054 537.211 28.652 537.211 28.124C537.211 27.596 537.013 27.2 536.617 26.936C536.233 26.672 535.675 26.54 534.943 26.54H532.099V29.744ZM535.105 33.992C535.921 33.992 536.533 33.86 536.941 33.596C537.349 33.332 537.553 32.918 537.553 32.354C537.553 31.79 537.367 31.376 536.995 31.112C536.623 30.836 536.035 30.698 535.231 30.698H532.099V33.992H535.105ZM545.066 25.46C546.302 25.46 547.25 25.772 547.91 26.396C548.57 27.008 548.9 27.92 548.9 29.132V35H547.676V33.524C547.388 34.016 546.962 34.4 546.398 34.676C545.846 34.952 545.186 35.09 544.418 35.09C543.362 35.09 542.522 34.838 541.898 34.334C541.274 33.83 540.962 33.164 540.962 32.336C540.962 31.532 541.25 30.884 541.826 30.392C542.414 29.9 543.344 29.654 544.616 29.654H547.622V29.078C547.622 28.262 547.394 27.644 546.938 27.224C546.482 26.792 545.816 26.576 544.94 26.576C544.34 26.576 543.764 26.678 543.212 26.882C542.66 27.074 542.186 27.344 541.79 27.692L541.214 26.738C541.694 26.33 542.27 26.018 542.942 25.802C543.614 25.574 544.322 25.46 545.066 25.46ZM544.616 34.082C545.336 34.082 545.954 33.92 546.47 33.596C546.986 33.26 547.37 32.78 547.622 32.156V30.608H544.652C543.032 30.608 542.222 31.172 542.222 32.3C542.222 32.852 542.432 33.29 542.852 33.614C543.272 33.926 543.86 34.082 544.616 34.082ZM562.886 25.532V35H561.716V27.512L557.882 33.848H557.306L553.472 27.494V35H552.302V25.532H553.598L557.612 32.354L561.698 25.532H562.886ZM341.402 47.532V57H340.232V49.512L336.398 55.848H335.822L331.988 49.494V57H330.818V47.532H332.114L336.128 54.354L340.214 47.532H341.402ZM348.945 57.09C348.033 57.09 347.211 56.886 346.479 56.478C345.747 56.058 345.171 55.482 344.751 54.75C344.331 54.018 344.121 53.19 344.121 52.266C344.121 51.342 344.331 50.514 344.751 49.782C345.171 49.05 345.747 48.48 346.479 48.072C347.211 47.664 348.033 47.46 348.945 47.46C349.857 47.46 350.679 47.664 351.411 48.072C352.143 48.48 352.713 49.05 353.121 49.782C353.541 50.514 353.751 51.342 353.751 52.266C353.751 53.19 353.541 54.018 353.121 54.75C352.713 55.482 352.143 56.058 351.411 56.478C350.679 56.886 349.857 57.09 348.945 57.09ZM348.945 55.956C349.617 55.956 350.217 55.806 350.745 55.506C351.285 55.194 351.705 54.756 352.005 54.192C352.305 53.628 352.455 52.986 352.455 52.266C352.455 51.546 352.305 50.904 352.005 50.34C351.705 49.776 351.285 49.344 350.745 49.044C350.217 48.732 349.617 48.576 348.945 48.576C348.273 48.576 347.667 48.732 347.127 49.044C346.599 49.344 346.179 49.776 345.867 50.34C345.567 50.904 345.417 51.546 345.417 52.266C345.417 52.986 345.567 53.628 345.867 54.192C346.179 54.756 346.599 55.194 347.127 55.506C347.667 55.806 348.273 55.956 348.945 55.956ZM364.446 52.788H362.394V57H361.116V52.788H359.064L356.166 57H354.636L358.038 52.122L354.906 47.532H356.292L359.064 51.69H361.116V47.532H362.394V51.69H364.446L367.236 47.532H368.622L365.49 52.14L368.892 57H367.362L364.446 52.788ZM371.019 47.532H372.297V51.726H378.255V47.532H379.533V57H378.255V52.824H372.297V57H371.019V47.532ZM387.072 57.09C386.16 57.09 385.338 56.886 384.606 56.478C383.874 56.058 383.298 55.482 382.878 54.75C382.458 54.018 382.248 53.19 382.248 52.266C382.248 51.342 382.458 50.514 382.878 49.782C383.298 49.05 383.874 48.48 384.606 48.072C385.338 47.664 386.16 47.46 387.072 47.46C387.984 47.46 388.806 47.664 389.538 48.072C390.27 48.48 390.84 49.05 391.248 49.782C391.668 50.514 391.878 51.342 391.878 52.266C391.878 53.19 391.668 54.018 391.248 54.75C390.84 55.482 390.27 56.058 389.538 56.478C388.806 56.886 387.984 57.09 387.072 57.09ZM387.072 55.956C387.744 55.956 388.344 55.806 388.872 55.506C389.412 55.194 389.832 54.756 390.132 54.192C390.432 53.628 390.582 52.986 390.582 52.266C390.582 51.546 390.432 50.904 390.132 50.34C389.832 49.776 389.412 49.344 388.872 49.044C388.344 48.732 387.744 48.576 387.072 48.576C386.4 48.576 385.794 48.732 385.254 49.044C384.726 49.344 384.306 49.776 383.994 50.34C383.694 50.904 383.544 51.546 383.544 52.266C383.544 52.986 383.694 53.628 383.994 54.192C384.306 54.756 384.726 55.194 385.254 55.506C385.794 55.806 386.4 55.956 387.072 55.956ZM408.554 55.884V59.286H407.348V57H398.87V59.286H397.664V55.884H398.204C398.84 55.848 399.272 55.38 399.5 54.48C399.728 53.58 399.884 52.32 399.968 50.7L400.094 47.532H407.078V55.884H408.554ZM401.138 50.772C401.078 52.116 400.964 53.226 400.796 54.102C400.628 54.966 400.328 55.56 399.896 55.884H405.8V48.666H401.246L401.138 50.772ZM414.951 57.09C414.039 57.09 413.217 56.886 412.485 56.478C411.753 56.058 411.177 55.482 410.757 54.75C410.337 54.018 410.127 53.19 410.127 52.266C410.127 51.342 410.337 50.514 410.757 49.782C411.177 49.05 411.753 48.48 412.485 48.072C413.217 47.664 414.039 47.46 414.951 47.46C415.863 47.46 416.685 47.664 417.417 48.072C418.149 48.48 418.719 49.05 419.127 49.782C419.547 50.514 419.757 51.342 419.757 52.266C419.757 53.19 419.547 54.018 419.127 54.75C418.719 55.482 418.149 56.058 417.417 56.478C416.685 56.886 415.863 57.09 414.951 57.09ZM414.951 55.956C415.623 55.956 416.223 55.806 416.751 55.506C417.291 55.194 417.711 54.756 418.011 54.192C418.311 53.628 418.461 52.986 418.461 52.266C418.461 51.546 418.311 50.904 418.011 50.34C417.711 49.776 417.291 49.344 416.751 49.044C416.223 48.732 415.623 48.576 414.951 48.576C414.279 48.576 413.673 48.732 413.133 49.044C412.605 49.344 412.185 49.776 411.873 50.34C411.573 50.904 411.423 51.546 411.423 52.266C411.423 52.986 411.573 53.628 411.873 54.192C412.185 54.756 412.605 55.194 413.133 55.506C413.673 55.806 414.279 55.956 414.951 55.956ZM428.518 52.104C429.802 52.404 430.444 53.178 430.444 54.426C430.444 55.254 430.138 55.89 429.526 56.334C428.914 56.778 428.002 57 426.79 57H422.488V47.532H426.664C427.744 47.532 428.59 47.742 429.202 48.162C429.814 48.582 430.12 49.182 430.12 49.962C430.12 50.478 429.976 50.922 429.688 51.294C429.412 51.654 429.022 51.924 428.518 52.104ZM423.73 51.744H426.574C427.306 51.744 427.864 51.606 428.248 51.33C428.644 51.054 428.842 50.652 428.842 50.124C428.842 49.596 428.644 49.2 428.248 48.936C427.864 48.672 427.306 48.54 426.574 48.54H423.73V51.744ZM426.736 55.992C427.552 55.992 428.164 55.86 428.572 55.596C428.98 55.332 429.184 54.918 429.184 54.354C429.184 53.79 428.998 53.376 428.626 53.112C428.254 52.836 427.666 52.698 426.862 52.698H423.73V55.992H426.736ZM441.719 52.662H433.799C433.871 53.646 434.249 54.444 434.933 55.056C435.617 55.656 436.481 55.956 437.525 55.956C438.113 55.956 438.653 55.854 439.145 55.65C439.637 55.434 440.063 55.122 440.423 54.714L441.143 55.542C440.723 56.046 440.195 56.43 439.559 56.694C438.935 56.958 438.245 57.09 437.489 57.09C436.517 57.09 435.653 56.886 434.897 56.478C434.153 56.058 433.571 55.482 433.151 54.75C432.731 54.018 432.521 53.19 432.521 52.266C432.521 51.342 432.719 50.514 433.115 49.782C433.523 49.05 434.075 48.48 434.771 48.072C435.479 47.664 436.271 47.46 437.147 47.46C438.023 47.46 438.809 47.664 439.505 48.072C440.201 48.48 440.747 49.05 441.143 49.782C441.539 50.502 441.737 51.33 441.737 52.266L441.719 52.662ZM437.147 48.558C436.235 48.558 435.467 48.852 434.843 49.44C434.231 50.016 433.883 50.772 433.799 51.708H440.513C440.429 50.772 440.075 50.016 439.451 49.44C438.839 48.852 438.071 48.558 437.147 48.558ZM449.444 47.46C450.332 47.46 451.136 47.664 451.856 48.072C452.576 48.468 453.14 49.032 453.548 49.764C453.956 50.496 454.16 51.33 454.16 52.266C454.16 53.214 453.956 54.054 453.548 54.786C453.14 55.518 452.576 56.088 451.856 56.496C451.148 56.892 450.344 57.09 449.444 57.09C448.676 57.09 447.98 56.934 447.356 56.622C446.744 56.298 446.24 55.83 445.844 55.218V60.492H444.566V47.532H445.79V49.404C446.174 48.78 446.678 48.3 447.302 47.964C447.938 47.628 448.652 47.46 449.444 47.46ZM449.354 55.956C450.014 55.956 450.614 55.806 451.154 55.506C451.694 55.194 452.114 54.756 452.414 54.192C452.726 53.628 452.882 52.986 452.882 52.266C452.882 51.546 452.726 50.91 452.414 50.358C452.114 49.794 451.694 49.356 451.154 49.044C450.614 48.732 450.014 48.576 449.354 48.576C448.682 48.576 448.076 48.732 447.536 49.044C447.008 49.356 446.588 49.794 446.276 50.358C445.976 50.91 445.826 51.546 445.826 52.266C445.826 52.986 445.976 53.628 446.276 54.192C446.588 54.756 447.008 55.194 447.536 55.506C448.076 55.806 448.682 55.956 449.354 55.956ZM463.844 47.532V57H462.674V53.868H459.704H459.344L457.148 57H455.762L458.12 53.688C457.388 53.484 456.824 53.136 456.428 52.644C456.032 52.152 455.834 51.528 455.834 50.772C455.834 49.716 456.194 48.912 456.914 48.36C457.634 47.808 458.618 47.532 459.866 47.532H463.844ZM457.13 50.808C457.13 52.212 458.024 52.914 459.812 52.914H462.674V48.666H459.902C458.054 48.666 457.13 49.38 457.13 50.808ZM474.148 48.666H470.566V57H469.288V48.666H465.706V47.532H474.148V48.666ZM480.064 50.88C481.252 50.892 482.152 51.156 482.764 51.672C483.388 52.188 483.7 52.932 483.7 53.904C483.7 54.912 483.364 55.686 482.692 56.226C482.032 56.766 481.072 57.03 479.812 57.018L475.996 57V47.532H477.274V50.844L480.064 50.88ZM479.74 56.046C480.616 56.058 481.276 55.884 481.72 55.524C482.176 55.152 482.404 54.612 482.404 53.904C482.404 53.208 482.182 52.692 481.738 52.356C481.294 52.02 480.628 51.846 479.74 51.834L477.274 51.798V56.01L479.74 56.046ZM487.794 53.22C487.794 52.728 487.872 52.296 488.028 51.924C488.196 51.552 488.4 51.234 488.64 50.97C488.88 50.706 489.192 50.406 489.576 50.07C490.092 49.614 490.47 49.218 490.71 48.882C490.962 48.534 491.088 48.114 491.088 47.622C491.088 46.962 490.83 46.434 490.314 46.038C489.798 45.63 489.09 45.426 488.19 45.426C486.702 45.426 485.556 45.912 484.752 46.884L483.798 46.164C484.818 44.916 486.312 44.292 488.28 44.292C489.54 44.292 490.542 44.574 491.286 45.138C492.042 45.702 492.42 46.464 492.42 47.424C492.42 47.916 492.336 48.354 492.168 48.738C492.012 49.11 491.814 49.428 491.574 49.692C491.346 49.956 491.04 50.262 490.656 50.61C490.14 51.078 489.756 51.498 489.504 51.87C489.252 52.23 489.126 52.68 489.126 53.22H487.794ZM488.46 57.09C488.196 57.09 487.974 57 487.794 56.82C487.614 56.628 487.524 56.406 487.524 56.154C487.524 55.89 487.614 55.674 487.794 55.506C487.974 55.326 488.196 55.236 488.46 55.236C488.736 55.236 488.964 55.326 489.144 55.506C489.324 55.674 489.414 55.89 489.414 56.154C489.414 56.406 489.318 56.628 489.126 56.82C488.946 57 488.724 57.09 488.46 57.09Z" fill="#333E63"/>
<defs>
<filter id="filter0_d_1111_2755" x="261" y="0" width="330" height="89" filterUnits="userSpaceOnUse" color-interpolation-filters="sRGB">
<feFlood flood-opacity="0" result="BackgroundImageFix"/>
<feColorMatrix in="SourceAlpha" type="matrix" values="0 0 0 0 0 0 0 0 0 0 0 0 0 0 0 0 0 0 127 0" result="hardAlpha"/>
<feOffset dx="5" dy="5"/>
<feComposite in2="hardAlpha" operator="out"/>
<feColorMatrix type="matrix" values="0 0 0 0 0.2 0 0 0 0 0.243137 0 0 0 0 0.388235 0 0 0 1 0"/>
<feBlend mode="normal" in2="BackgroundImageFix" result="effect1_dropShadow_1111_2755"/>
<feBlend mode="normal" in="SourceGraphic" in2="effect1_dropShadow_1111_2755" result="shape"/>
</filter>
</defs>
</svg>
