<svg width="200" height="325" viewBox="0 0 200 325" fill="none" xmlns="http://www.w3.org/2000/svg">
<g filter="url(#filter0_d_502_4758)">
<path d="M53.4367 92L38.9413 74.9641L10.2711 74.9641C5.14759 74.9641 1 70.8065 1 65.6706L0.999996 10.2936C0.999996 5.15765 5.14759 1 10.2711 1L143.729 0.999994C148.852 0.999994 153 5.15765 153 10.2936L153 65.5483C153 70.6842 148.852 74.8418 143.729 74.8418L53.2139 74.8418L53.4367 92Z" fill="white"/>
<path d="M53.4367 92L38.9413 74.9641L10.2711 74.9641C5.14759 74.9641 1 70.8065 1 65.6706L0.999996 10.2936C0.999996 5.15765 5.14759 1 10.2711 1L143.729 0.999994C148.852 0.999994 153 5.15765 153 10.2936L153 65.5483C153 70.6842 148.852 74.8418 143.729 74.8418L53.2139 74.8418L53.4367 92Z" stroke="#333E63" stroke-linecap="round" stroke-linejoin="round"/>
</g>
<path d="M24.462 18.946C25.1433 19.086 25.6613 19.3613 26.016 19.772C26.3707 20.1733 26.548 20.7007 26.548 21.354C26.548 22.2033 26.2447 22.8567 25.638 23.314C25.0407 23.7713 24.1587 24 22.992 24H18.652V14.2H22.726C23.7713 14.2 24.588 14.4147 25.176 14.844C25.764 15.2733 26.058 15.894 26.058 16.706C26.058 17.2567 25.918 17.7233 25.638 18.106C25.358 18.4793 24.966 18.7593 24.462 18.946ZM19.674 18.638H22.67C23.426 18.638 24.0047 18.484 24.406 18.176C24.8167 17.868 25.022 17.42 25.022 16.832C25.022 16.244 24.8167 15.796 24.406 15.488C24.0047 15.18 23.426 15.026 22.67 15.026H19.674V18.638ZM22.992 23.174C24.6813 23.174 25.526 22.544 25.526 21.284C25.526 20.052 24.6813 19.436 22.992 19.436H19.674V23.174H22.992ZM37.1323 16.636V24H36.2223V18.176L33.2403 23.104H32.7923L29.8103 18.162V24H28.9003V16.636H29.9083L33.0303 21.942L36.2083 16.636H37.1323ZM46.4009 20.626H40.2409C40.2969 21.3913 40.5909 22.012 41.1229 22.488C41.6549 22.9547 42.3269 23.188 43.1389 23.188C43.5962 23.188 44.0162 23.1087 44.3989 22.95C44.7815 22.782 45.1129 22.5393 45.3929 22.222L45.9529 22.866C45.6262 23.258 45.2155 23.5567 44.7209 23.762C44.2355 23.9673 43.6989 24.07 43.1109 24.07C42.3549 24.07 41.6829 23.9113 41.0949 23.594C40.5162 23.2673 40.0635 22.8193 39.7369 22.25C39.4102 21.6807 39.2469 21.0367 39.2469 20.318C39.2469 19.5993 39.4009 18.9553 39.7089 18.386C40.0262 17.8167 40.4555 17.3733 40.9969 17.056C41.5475 16.7387 42.1635 16.58 42.8449 16.58C43.5262 16.58 44.1375 16.7387 44.6789 17.056C45.2202 17.3733 45.6449 17.8167 45.9529 18.386C46.2609 18.946 46.4149 19.59 46.4149 20.318L46.4009 20.626ZM42.8449 17.434C42.1355 17.434 41.5382 17.6627 41.0529 18.12C40.5769 18.568 40.3062 19.156 40.2409 19.884H45.4629C45.3975 19.156 45.1222 18.568 44.6369 18.12C44.1609 17.6627 43.5635 17.434 42.8449 17.434ZM51.6952 24.07C50.9672 24.07 50.3138 23.9113 49.7352 23.594C49.1658 23.2767 48.7178 22.8333 48.3912 22.264C48.0645 21.6853 47.9012 21.0367 47.9012 20.318C47.9012 19.5993 48.0645 18.9553 48.3912 18.386C48.7178 17.8167 49.1658 17.3733 49.7352 17.056C50.3138 16.7387 50.9672 16.58 51.6952 16.58C52.3298 16.58 52.8945 16.706 53.3892 16.958C53.8932 17.2007 54.2898 17.56 54.5792 18.036L53.8372 18.54C53.5945 18.176 53.2865 17.9053 52.9132 17.728C52.5398 17.5413 52.1338 17.448 51.6952 17.448C51.1632 17.448 50.6825 17.5693 50.2532 17.812C49.8332 18.0453 49.5018 18.3813 49.2592 18.82C49.0258 19.2587 48.9092 19.758 48.9092 20.318C48.9092 20.8873 49.0258 21.3913 49.2592 21.83C49.5018 22.2593 49.8332 22.5953 50.2532 22.838C50.6825 23.0713 51.1632 23.188 51.6952 23.188C52.1338 23.188 52.5398 23.0993 52.9132 22.922C53.2865 22.7447 53.5945 22.474 53.8372 22.11L54.5792 22.614C54.2898 23.09 53.8932 23.454 53.3892 23.706C52.8852 23.9487 52.3205 24.07 51.6952 24.07ZM61.5471 17.518H58.7611V24H57.7671V17.518H54.9811V16.636H61.5471V17.518ZM69.0825 20.626H62.9225C62.9785 21.3913 63.2725 22.012 63.8045 22.488C64.3365 22.9547 65.0085 23.188 65.8205 23.188C66.2778 23.188 66.6978 23.1087 67.0805 22.95C67.4632 22.782 67.7945 22.5393 68.0745 22.222L68.6345 22.866C68.3078 23.258 67.8972 23.5567 67.4025 23.762C66.9172 23.9673 66.3805 24.07 65.7925 24.07C65.0365 24.07 64.3645 23.9113 63.7765 23.594C63.1978 23.2673 62.7452 22.8193 62.4185 22.25C62.0918 21.6807 61.9285 21.0367 61.9285 20.318C61.9285 19.5993 62.0825 18.9553 62.3905 18.386C62.7078 17.8167 63.1372 17.3733 63.6785 17.056C64.2292 16.7387 64.8452 16.58 65.5265 16.58C66.2078 16.58 66.8192 16.7387 67.3605 17.056C67.9018 17.3733 68.3265 17.8167 68.6345 18.386C68.9425 18.946 69.0965 19.59 69.0965 20.318L69.0825 20.626ZM65.5265 17.434C64.8172 17.434 64.2198 17.6627 63.7345 18.12C63.2585 18.568 62.9878 19.156 62.9225 19.884H68.1445C68.0792 19.156 67.8038 18.568 67.3185 18.12C66.8425 17.6627 66.2452 17.434 65.5265 17.434ZM78.0409 24.07C77.3129 24.07 76.6595 23.9113 76.0809 23.594C75.5115 23.2767 75.0635 22.8333 74.7369 22.264C74.4102 21.6853 74.2469 21.0367 74.2469 20.318C74.2469 19.5993 74.4102 18.9553 74.7369 18.386C75.0635 17.8167 75.5115 17.3733 76.0809 17.056C76.6595 16.7387 77.3129 16.58 78.0409 16.58C78.6755 16.58 79.2402 16.706 79.7349 16.958C80.2389 17.2007 80.6355 17.56 80.9249 18.036L80.1829 18.54C79.9402 18.176 79.6322 17.9053 79.2589 17.728C78.8855 17.5413 78.4795 17.448 78.0409 17.448C77.5089 17.448 77.0282 17.5693 76.5989 17.812C76.1789 18.0453 75.8475 18.3813 75.6049 18.82C75.3715 19.2587 75.2549 19.758 75.2549 20.318C75.2549 20.8873 75.3715 21.3913 75.6049 21.83C75.8475 22.2593 76.1789 22.5953 76.5989 22.838C77.0282 23.0713 77.5089 23.188 78.0409 23.188C78.4795 23.188 78.8855 23.0993 79.2589 22.922C79.6322 22.7447 79.9402 22.474 80.1829 22.11L80.9249 22.614C80.6355 23.09 80.2389 23.454 79.7349 23.706C79.2309 23.9487 78.6662 24.07 78.0409 24.07ZM86.5136 16.636H87.5076V19.898H92.1416V16.636H93.1356V24H92.1416V20.752H87.5076V24H86.5136V16.636ZM98.4949 16.58C99.4562 16.58 100.194 16.8227 100.707 17.308C101.22 17.784 101.477 18.4933 101.477 19.436V24H100.525V22.852C100.301 23.2347 99.9695 23.5333 99.5309 23.748C99.1015 23.9627 98.5882 24.07 97.9909 24.07C97.1695 24.07 96.5162 23.874 96.0309 23.482C95.5455 23.09 95.3029 22.572 95.3029 21.928C95.3029 21.3027 95.5269 20.7987 95.9749 20.416C96.4322 20.0333 97.1555 19.842 98.1449 19.842H100.483V19.394C100.483 18.7593 100.306 18.2787 99.9509 17.952C99.5962 17.616 99.0782 17.448 98.3969 17.448C97.9302 17.448 97.4822 17.5273 97.0529 17.686C96.6235 17.8353 96.2549 18.0453 95.9469 18.316L95.4989 17.574C95.8722 17.2567 96.3202 17.014 96.8429 16.846C97.3655 16.6687 97.9162 16.58 98.4949 16.58ZM98.1449 23.286C98.7049 23.286 99.1855 23.16 99.5869 22.908C99.9882 22.6467 100.287 22.2733 100.483 21.788V20.584H98.1729C96.9129 20.584 96.2829 21.0227 96.2829 21.9C96.2829 22.3293 96.4462 22.67 96.7729 22.922C97.0995 23.1647 97.5569 23.286 98.1449 23.286ZM112.355 16.636V24H111.445V18.176L108.463 23.104H108.015L105.033 18.162V24H104.123V16.636H105.131L108.253 21.942L111.431 16.636H112.355ZM115.184 16.636H116.178V22.488L121.092 16.636H121.974V24H120.98V18.148L116.08 24H115.184V16.636Z" fill="#333E63"/>
<path d="M24.672 33.636L20.99 41.882C20.6913 42.5727 20.346 43.0627 19.954 43.352C19.562 43.6413 19.0907 43.786 18.54 43.786C18.1853 43.786 17.854 43.73 17.546 43.618C17.238 43.506 16.972 43.338 16.748 43.114L17.21 42.372C17.5833 42.7453 18.0313 42.932 18.554 42.932C18.89 42.932 19.1747 42.8387 19.408 42.652C19.6507 42.4653 19.8747 42.148 20.08 41.7L20.402 40.986L17.112 33.636H18.148L20.92 39.894L23.692 33.636H24.672ZM32.2508 37.724H30.6548V41H29.6608V37.724H28.0648L25.8108 41H24.6208L27.2668 37.206L24.8308 33.636H25.9088L28.0648 36.87H29.6608V33.636H30.6548V36.87H32.2508L34.4208 33.636H35.4988L33.0628 37.22L35.7088 41H34.5188L32.2508 37.724ZM43.5435 37.626H37.3835C37.4395 38.3913 37.7335 39.012 38.2655 39.488C38.7975 39.9547 39.4695 40.188 40.2815 40.188C40.7388 40.188 41.1588 40.1087 41.5415 39.95C41.9241 39.782 42.2555 39.5393 42.5355 39.222L43.0955 39.866C42.7688 40.258 42.3581 40.5567 41.8635 40.762C41.3781 40.9673 40.8415 41.07 40.2535 41.07C39.4975 41.07 38.8255 40.9113 38.2375 40.594C37.6588 40.2673 37.2061 39.8193 36.8795 39.25C36.5528 38.6807 36.3895 38.0367 36.3895 37.318C36.3895 36.5993 36.5435 35.9553 36.8515 35.386C37.1688 34.8167 37.5981 34.3733 38.1395 34.056C38.6901 33.7387 39.3061 33.58 39.9875 33.58C40.6688 33.58 41.2801 33.7387 41.8215 34.056C42.3628 34.3733 42.7875 34.8167 43.0955 35.386C43.4035 35.946 43.5575 36.59 43.5575 37.318L43.5435 37.626ZM39.9875 34.434C39.2781 34.434 38.6808 34.6627 38.1955 35.12C37.7195 35.568 37.4488 36.156 37.3835 36.884H42.6055C42.5401 36.156 42.2648 35.568 41.7795 35.12C41.3035 34.6627 40.7061 34.434 39.9875 34.434ZM52.9918 33.818C53.6731 33.818 54.2798 33.972 54.8118 34.28C55.3531 34.5787 55.7731 35.0033 56.0718 35.554C56.3705 36.0953 56.5198 36.716 56.5198 37.416C56.5198 38.1347 56.3611 38.774 56.0438 39.334C55.7358 39.8847 55.3018 40.314 54.7418 40.622C54.1818 40.93 53.5378 41.084 52.8098 41.084C51.5871 41.084 50.6398 40.6547 49.9678 39.796C49.2958 38.9373 48.9598 37.752 48.9598 36.24C48.9598 34.6627 49.2585 33.454 49.8558 32.614C50.4625 31.774 51.4051 31.2047 52.6838 30.906L55.9878 30.15L56.1558 31.06L53.0478 31.774C51.9931 32.0073 51.2185 32.4227 50.7238 33.02C50.2291 33.608 49.9585 34.4807 49.9118 35.638C50.2105 35.0687 50.6258 34.6253 51.1578 34.308C51.6898 33.9813 52.3011 33.818 52.9918 33.818ZM52.8378 40.258C53.3511 40.258 53.8085 40.1413 54.2098 39.908C54.6205 39.6653 54.9378 39.3293 55.1618 38.9C55.3951 38.4707 55.5118 37.9853 55.5118 37.444C55.5118 36.9027 55.3998 36.4267 55.1758 36.016C54.9518 35.6053 54.6345 35.288 54.2238 35.064C53.8225 34.8307 53.3605 34.714 52.8378 34.714C52.3151 34.714 51.8485 34.8307 51.4378 35.064C51.0365 35.288 50.7191 35.6053 50.4858 36.016C50.2618 36.4267 50.1498 36.9027 50.1498 37.444C50.1498 37.9853 50.2618 38.4707 50.4858 38.9C50.7191 39.3293 51.0411 39.6653 51.4518 39.908C51.8625 40.1413 52.3245 40.258 52.8378 40.258ZM61.6883 41.07C60.979 41.07 60.3397 40.9113 59.7703 40.594C59.201 40.2673 58.753 39.8193 58.4263 39.25C58.0997 38.6807 57.9363 38.0367 57.9363 37.318C57.9363 36.5993 58.0997 35.9553 58.4263 35.386C58.753 34.8167 59.201 34.3733 59.7703 34.056C60.3397 33.7387 60.979 33.58 61.6883 33.58C62.3977 33.58 63.037 33.7387 63.6063 34.056C64.1757 34.3733 64.619 34.8167 64.9363 35.386C65.263 35.9553 65.4263 36.5993 65.4263 37.318C65.4263 38.0367 65.263 38.6807 64.9363 39.25C64.619 39.8193 64.1757 40.2673 63.6063 40.594C63.037 40.9113 62.3977 41.07 61.6883 41.07ZM61.6883 40.188C62.211 40.188 62.6777 40.0713 63.0883 39.838C63.5083 39.5953 63.835 39.2547 64.0683 38.816C64.3017 38.3773 64.4183 37.878 64.4183 37.318C64.4183 36.758 64.3017 36.2587 64.0683 35.82C63.835 35.3813 63.5083 35.0453 63.0883 34.812C62.6777 34.5693 62.211 34.448 61.6883 34.448C61.1657 34.448 60.6943 34.5693 60.2743 34.812C59.8637 35.0453 59.537 35.3813 59.2943 35.82C59.061 36.2587 58.9443 36.758 58.9443 37.318C58.9443 37.878 59.061 38.3773 59.2943 38.816C59.537 39.2547 59.8637 39.5953 60.2743 39.838C60.6943 40.0713 61.1657 40.188 61.6883 40.188ZM73.5297 33.636V41H72.5357V34.518H69.0077L68.9097 36.338C68.835 37.8687 68.6577 39.0447 68.3777 39.866C68.0977 40.6873 67.5984 41.098 66.8797 41.098C66.6837 41.098 66.4457 41.0607 66.1657 40.986L66.2357 40.132C66.4037 40.1693 66.5204 40.188 66.5857 40.188C66.9684 40.188 67.2577 40.0107 67.4537 39.656C67.6497 39.3013 67.7804 38.8627 67.8457 38.34C67.911 37.8173 67.967 37.1267 68.0137 36.268L68.1397 33.636H73.5297ZM82.7954 37.626H76.6354C76.6914 38.3913 76.9854 39.012 77.5174 39.488C78.0494 39.9547 78.7214 40.188 79.5334 40.188C79.9907 40.188 80.4107 40.1087 80.7934 39.95C81.1761 39.782 81.5074 39.5393 81.7874 39.222L82.3474 39.866C82.0207 40.258 81.6101 40.5567 81.1154 40.762C80.6301 40.9673 80.0934 41.07 79.5054 41.07C78.7494 41.07 78.0774 40.9113 77.4894 40.594C76.9107 40.2673 76.4581 39.8193 76.1314 39.25C75.8047 38.6807 75.6414 38.0367 75.6414 37.318C75.6414 36.5993 75.7954 35.9553 76.1034 35.386C76.4207 34.8167 76.8501 34.3733 77.3914 34.056C77.9421 33.7387 78.5581 33.58 79.2394 33.58C79.9207 33.58 80.5321 33.7387 81.0734 34.056C81.6147 34.3733 82.0394 34.8167 82.3474 35.386C82.6554 35.946 82.8094 36.59 82.8094 37.318L82.7954 37.626ZM79.2394 34.434C78.5301 34.434 77.9327 34.6627 77.4474 35.12C76.9714 35.568 76.7007 36.156 76.6354 36.884H81.8574C81.7921 36.156 81.5167 35.568 81.0314 35.12C80.5554 34.6627 79.9581 34.434 79.2394 34.434ZM91.4497 37.626H85.2897C85.3457 38.3913 85.6397 39.012 86.1717 39.488C86.7037 39.9547 87.3757 40.188 88.1877 40.188C88.645 40.188 89.065 40.1087 89.4477 39.95C89.8304 39.782 90.1617 39.5393 90.4417 39.222L91.0017 39.866C90.675 40.258 90.2644 40.5567 89.7697 40.762C89.2844 40.9673 88.7477 41.07 88.1597 41.07C87.4037 41.07 86.7317 40.9113 86.1437 40.594C85.565 40.2673 85.1124 39.8193 84.7857 39.25C84.459 38.6807 84.2957 38.0367 84.2957 37.318C84.2957 36.5993 84.4497 35.9553 84.7577 35.386C85.075 34.8167 85.5044 34.3733 86.0457 34.056C86.5964 33.7387 87.2124 33.58 87.8937 33.58C88.575 33.58 89.1864 33.7387 89.7277 34.056C90.269 34.3733 90.6937 34.8167 91.0017 35.386C91.3097 35.946 91.4637 36.59 91.4637 37.318L91.4497 37.626ZM87.8937 34.434C87.1844 34.434 86.587 34.6627 86.1017 35.12C85.6257 35.568 85.355 36.156 85.2897 36.884H90.5117C90.4464 36.156 90.171 35.568 89.6857 35.12C89.2097 34.6627 88.6124 34.434 87.8937 34.434ZM99.9741 35.4C101.001 35.456 101.78 35.736 102.312 36.24C102.853 36.7347 103.124 37.3833 103.124 38.186C103.124 38.746 102.989 39.2453 102.718 39.684C102.447 40.1133 102.046 40.454 101.514 40.706C100.982 40.958 100.333 41.084 99.5681 41.084C98.8587 41.084 98.1867 40.972 97.5521 40.748C96.9267 40.5147 96.4227 40.2067 96.0401 39.824L96.5301 39.026C96.8567 39.362 97.2907 39.6373 97.8321 39.852C98.3734 40.0573 98.9521 40.16 99.5681 40.16C100.371 40.16 100.991 39.9873 101.43 39.642C101.869 39.2873 102.088 38.802 102.088 38.186C102.088 37.5793 101.869 37.1033 101.43 36.758C100.991 36.4127 100.329 36.24 99.4421 36.24H98.7421V35.498L101.458 32.096H96.4461V31.2H102.746V31.914L99.9741 35.4ZM108.45 41.084C107.694 41.084 107.018 40.8833 106.42 40.482C105.832 40.0807 105.37 39.5067 105.034 38.76C104.708 38.004 104.544 37.1173 104.544 36.1C104.544 35.0827 104.708 34.2007 105.034 33.454C105.37 32.698 105.832 32.1193 106.42 31.718C107.018 31.3167 107.694 31.116 108.45 31.116C109.206 31.116 109.878 31.3167 110.466 31.718C111.064 32.1193 111.53 32.698 111.866 33.454C112.202 34.2007 112.37 35.0827 112.37 36.1C112.37 37.1173 112.202 38.004 111.866 38.76C111.53 39.5067 111.064 40.0807 110.466 40.482C109.878 40.8833 109.206 41.084 108.45 41.084ZM108.45 40.16C109.02 40.16 109.519 40.0013 109.948 39.684C110.387 39.3667 110.728 38.9047 110.97 38.298C111.213 37.6913 111.334 36.9587 111.334 36.1C111.334 35.2413 111.213 34.5087 110.97 33.902C110.728 33.2953 110.387 32.8333 109.948 32.516C109.519 32.1987 109.02 32.04 108.45 32.04C107.881 32.04 107.377 32.1987 106.938 32.516C106.509 32.8333 106.173 33.2953 105.93 33.902C105.688 34.5087 105.566 35.2413 105.566 36.1C105.566 36.9587 105.688 37.6913 105.93 38.298C106.173 38.9047 106.509 39.3667 106.938 39.684C107.377 40.0013 107.881 40.16 108.45 40.16ZM117.72 41.084C116.964 41.084 116.287 40.8833 115.69 40.482C115.102 40.0807 114.64 39.5067 114.304 38.76C113.977 38.004 113.814 37.1173 113.814 36.1C113.814 35.0827 113.977 34.2007 114.304 33.454C114.64 32.698 115.102 32.1193 115.69 31.718C116.287 31.3167 116.964 31.116 117.72 31.116C118.476 31.116 119.148 31.3167 119.736 31.718C120.333 32.1193 120.8 32.698 121.136 33.454C121.472 34.2007 121.64 35.0827 121.64 36.1C121.64 37.1173 121.472 38.004 121.136 38.76C120.8 39.5067 120.333 40.0807 119.736 40.482C119.148 40.8833 118.476 41.084 117.72 41.084ZM117.72 40.16C118.289 40.16 118.789 40.0013 119.218 39.684C119.657 39.3667 119.997 38.9047 120.24 38.298C120.483 37.6913 120.604 36.9587 120.604 36.1C120.604 35.2413 120.483 34.5087 120.24 33.902C119.997 33.2953 119.657 32.8333 119.218 32.516C118.789 32.1987 118.289 32.04 117.72 32.04C117.151 32.04 116.647 32.1987 116.208 32.516C115.779 32.8333 115.443 33.2953 115.2 33.902C114.957 34.5087 114.836 35.2413 114.836 36.1C114.836 36.9587 114.957 37.6913 115.2 38.298C115.443 38.9047 115.779 39.3667 116.208 39.684C116.647 40.0013 117.151 40.16 117.72 40.16ZM126.989 41.084C126.233 41.084 125.557 40.8833 124.959 40.482C124.371 40.0807 123.909 39.5067 123.573 38.76C123.247 38.004 123.083 37.1173 123.083 36.1C123.083 35.0827 123.247 34.2007 123.573 33.454C123.909 32.698 124.371 32.1193 124.959 31.718C125.557 31.3167 126.233 31.116 126.989 31.116C127.745 31.116 128.417 31.3167 129.005 31.718C129.603 32.1193 130.069 32.698 130.405 33.454C130.741 34.2007 130.909 35.0827 130.909 36.1C130.909 37.1173 130.741 38.004 130.405 38.76C130.069 39.5067 129.603 40.0807 129.005 40.482C128.417 40.8833 127.745 41.084 126.989 41.084ZM126.989 40.16C127.559 40.16 128.058 40.0013 128.487 39.684C128.926 39.3667 129.267 38.9047 129.509 38.298C129.752 37.6913 129.873 36.9587 129.873 36.1C129.873 35.2413 129.752 34.5087 129.509 33.902C129.267 33.2953 128.926 32.8333 128.487 32.516C128.058 32.1987 127.559 32.04 126.989 32.04C126.42 32.04 125.916 32.1987 125.477 32.516C125.048 32.8333 124.712 33.2953 124.469 33.902C124.227 34.5087 124.105 35.2413 124.105 36.1C124.105 36.9587 124.227 37.6913 124.469 38.298C124.712 38.9047 125.048 39.3667 125.477 39.684C125.916 40.0013 126.42 40.16 126.989 40.16ZM18.414 50.636H19.408V56.488L24.322 50.636H25.204V58H24.21V52.148L19.31 58H18.414V50.636ZM28.0527 50.636H29.0467V53.898H33.6807V50.636H34.6747V58H33.6807V54.752H29.0467V58H28.0527V50.636ZM42.1899 54.192C43.1886 54.4253 43.6879 55.0273 43.6879 55.998C43.6879 56.642 43.4499 57.1367 42.9739 57.482C42.4979 57.8273 41.7886 58 40.8459 58H37.4999V50.636H40.7479C41.5879 50.636 42.2459 50.7993 42.7219 51.126C43.1979 51.4527 43.4359 51.9193 43.4359 52.526C43.4359 52.9273 43.3239 53.2727 43.0999 53.562C42.8853 53.842 42.5819 54.052 42.1899 54.192ZM38.4659 53.912H40.6779C41.2473 53.912 41.6813 53.8047 41.9799 53.59C42.2879 53.3753 42.4419 53.0627 42.4419 52.652C42.4419 52.2413 42.2879 51.9333 41.9799 51.728C41.6813 51.5227 41.2473 51.42 40.6779 51.42H38.4659V53.912ZM40.8039 57.216C41.4386 57.216 41.9146 57.1133 42.2319 56.908C42.5493 56.7027 42.7079 56.3807 42.7079 55.942C42.7079 55.5033 42.5633 55.1813 42.2739 54.976C41.9846 54.7613 41.5273 54.654 40.9019 54.654H38.4659V57.216H40.8039ZM52.4575 54.626H46.2975C46.3535 55.3913 46.6475 56.012 47.1795 56.488C47.7115 56.9547 48.3835 57.188 49.1955 57.188C49.6528 57.188 50.0728 57.1087 50.4555 56.95C50.8382 56.782 51.1695 56.5393 51.4495 56.222L52.0095 56.866C51.6828 57.258 51.2722 57.5567 50.7775 57.762C50.2922 57.9673 49.7555 58.07 49.1675 58.07C48.4115 58.07 47.7395 57.9113 47.1515 57.594C46.5728 57.2673 46.1202 56.8193 45.7935 56.25C45.4668 55.6807 45.3035 55.0367 45.3035 54.318C45.3035 53.5993 45.4575 52.9553 45.7655 52.386C46.0828 51.8167 46.5122 51.3733 47.0535 51.056C47.6042 50.7387 48.2202 50.58 48.9015 50.58C49.5828 50.58 50.1942 50.7387 50.7355 51.056C51.2768 51.3733 51.7015 51.8167 52.0095 52.386C52.3175 52.946 52.4715 53.59 52.4715 54.318L52.4575 54.626ZM48.9015 51.434C48.1922 51.434 47.5948 51.6627 47.1095 52.12C46.6335 52.568 46.3628 53.156 46.2975 53.884H51.5195C51.4542 53.156 51.1788 52.568 50.6935 52.12C50.2175 51.6627 49.6202 51.434 48.9015 51.434ZM57.7518 58.07C57.0238 58.07 56.3705 57.9113 55.7918 57.594C55.2225 57.2767 54.7745 56.8333 54.4478 56.264C54.1211 55.6853 53.9578 55.0367 53.9578 54.318C53.9578 53.5993 54.1211 52.9553 54.4478 52.386C54.7745 51.8167 55.2225 51.3733 55.7918 51.056C56.3705 50.7387 57.0238 50.58 57.7518 50.58C58.3865 50.58 58.9511 50.706 59.4458 50.958C59.9498 51.2007 60.3465 51.56 60.6358 52.036L59.8938 52.54C59.6511 52.176 59.3431 51.9053 58.9698 51.728C58.5965 51.5413 58.1905 51.448 57.7518 51.448C57.2198 51.448 56.7391 51.5693 56.3098 51.812C55.8898 52.0453 55.5585 52.3813 55.3158 52.82C55.0825 53.2587 54.9658 53.758 54.9658 54.318C54.9658 54.8873 55.0825 55.3913 55.3158 55.83C55.5585 56.2593 55.8898 56.5953 56.3098 56.838C56.7391 57.0713 57.2198 57.188 57.7518 57.188C58.1905 57.188 58.5965 57.0993 58.9698 56.922C59.3431 56.7447 59.6511 56.474 59.8938 56.11L60.6358 56.614C60.3465 57.09 59.9498 57.454 59.4458 57.706C58.9418 57.9487 58.3771 58.07 57.7518 58.07ZM67.6038 51.518H64.8178V58H63.8238V51.518H61.0378V50.636H67.6038V51.518ZM71.7372 58.07C71.0278 58.07 70.3885 57.9113 69.8192 57.594C69.2498 57.2673 68.8018 56.8193 68.4752 56.25C68.1485 55.6807 67.9852 55.0367 67.9852 54.318C67.9852 53.5993 68.1485 52.9553 68.4752 52.386C68.8018 51.8167 69.2498 51.3733 69.8192 51.056C70.3885 50.7387 71.0278 50.58 71.7372 50.58C72.4465 50.58 73.0858 50.7387 73.6552 51.056C74.2245 51.3733 74.6678 51.8167 74.9852 52.386C75.3118 52.9553 75.4752 53.5993 75.4752 54.318C75.4752 55.0367 75.3118 55.6807 74.9852 56.25C74.6678 56.8193 74.2245 57.2673 73.6552 57.594C73.0858 57.9113 72.4465 58.07 71.7372 58.07ZM71.7372 57.188C72.2598 57.188 72.7265 57.0713 73.1372 56.838C73.5572 56.5953 73.8838 56.2547 74.1172 55.816C74.3505 55.3773 74.4672 54.878 74.4672 54.318C74.4672 53.758 74.3505 53.2587 74.1172 52.82C73.8838 52.3813 73.5572 52.0453 73.1372 51.812C72.7265 51.5693 72.2598 51.448 71.7372 51.448C71.2145 51.448 70.7432 51.5693 70.3232 51.812C69.9125 52.0453 69.5858 52.3813 69.3432 52.82C69.1098 53.2587 68.9932 53.758 68.9932 54.318C68.9932 54.878 69.1098 55.3773 69.3432 55.816C69.5858 56.2547 69.9125 56.5953 70.3232 56.838C70.7432 57.0713 71.2145 57.188 71.7372 57.188ZM81.3935 50.58C82.0842 50.58 82.7095 50.7387 83.2695 51.056C83.8295 51.364 84.2682 51.8027 84.5855 52.372C84.9029 52.9413 85.0615 53.59 85.0615 54.318C85.0615 55.0553 84.9029 55.7087 84.5855 56.278C84.2682 56.8473 83.8295 57.2907 83.2695 57.608C82.7189 57.916 82.0935 58.07 81.3935 58.07C80.7962 58.07 80.2549 57.9487 79.7695 57.706C79.2935 57.454 78.9015 57.09 78.5935 56.614V60.716H77.5995V50.636H78.5515V52.092C78.8502 51.6067 79.2422 51.2333 79.7275 50.972C80.2222 50.7107 80.7775 50.58 81.3935 50.58ZM81.3235 57.188C81.8369 57.188 82.3035 57.0713 82.7235 56.838C83.1435 56.5953 83.4702 56.2547 83.7035 55.816C83.9462 55.3773 84.0675 54.878 84.0675 54.318C84.0675 53.758 83.9462 53.2633 83.7035 52.834C83.4702 52.3953 83.1435 52.0547 82.7235 51.812C82.3035 51.5693 81.8369 51.448 81.3235 51.448C80.8009 51.448 80.3295 51.5693 79.9095 51.812C79.4989 52.0547 79.1722 52.3953 78.9295 52.834C78.6962 53.2633 78.5795 53.758 78.5795 54.318C78.5795 54.878 78.6962 55.3773 78.9295 55.816C79.1722 56.2547 79.4989 56.5953 79.9095 56.838C80.3295 57.0713 80.8009 57.188 81.3235 57.188ZM90.2352 58.07C89.5259 58.07 88.8865 57.9113 88.3172 57.594C87.7479 57.2673 87.2999 56.8193 86.9732 56.25C86.6465 55.6807 86.4832 55.0367 86.4832 54.318C86.4832 53.5993 86.6465 52.9553 86.9732 52.386C87.2999 51.8167 87.7479 51.3733 88.3172 51.056C88.8865 50.7387 89.5259 50.58 90.2352 50.58C90.9445 50.58 91.5839 50.7387 92.1532 51.056C92.7225 51.3733 93.1659 51.8167 93.4832 52.386C93.8099 52.9553 93.9732 53.5993 93.9732 54.318C93.9732 55.0367 93.8099 55.6807 93.4832 56.25C93.1659 56.8193 92.7225 57.2673 92.1532 57.594C91.5839 57.9113 90.9445 58.07 90.2352 58.07ZM90.2352 57.188C90.7579 57.188 91.2245 57.0713 91.6352 56.838C92.0552 56.5953 92.3819 56.2547 92.6152 55.816C92.8485 55.3773 92.9652 54.878 92.9652 54.318C92.9652 53.758 92.8485 53.2587 92.6152 52.82C92.3819 52.3813 92.0552 52.0453 91.6352 51.812C91.2245 51.5693 90.7579 51.448 90.2352 51.448C89.7125 51.448 89.2412 51.5693 88.8212 51.812C88.4105 52.0453 88.0839 52.3813 87.8412 52.82C87.6079 53.2587 87.4912 53.758 87.4912 54.318C87.4912 54.878 87.6079 55.3773 87.8412 55.816C88.0839 56.2547 88.4105 56.5953 88.8212 56.838C89.2412 57.0713 89.7125 57.188 90.2352 57.188ZM100.788 54.192C101.786 54.4253 102.286 55.0273 102.286 55.998C102.286 56.642 102.048 57.1367 101.572 57.482C101.096 57.8273 100.386 58 99.4436 58H96.0976V50.636H99.3456C100.186 50.636 100.844 50.7993 101.32 51.126C101.796 51.4527 102.034 51.9193 102.034 52.526C102.034 52.9273 101.922 53.2727 101.698 53.562C101.483 53.842 101.18 54.052 100.788 54.192ZM97.0636 53.912H99.2756C99.8449 53.912 100.279 53.8047 100.578 53.59C100.886 53.3753 101.04 53.0627 101.04 52.652C101.04 52.2413 100.886 51.9333 100.578 51.728C100.279 51.5227 99.8449 51.42 99.2756 51.42H97.0636V53.912ZM99.4016 57.216C100.036 57.216 100.512 57.1133 100.83 56.908C101.147 56.7027 101.306 56.3807 101.306 55.942C101.306 55.5033 101.161 55.1813 100.872 54.976C100.582 54.7613 100.125 54.654 99.4996 54.654H97.0636V57.216H99.4016ZM104.433 48.2H105.609L105.399 55.06H104.629L104.433 48.2ZM105.021 58.07C104.816 58.07 104.639 58 104.489 57.86C104.349 57.7107 104.279 57.538 104.279 57.342C104.279 57.1367 104.349 56.9687 104.489 56.838C104.629 56.698 104.807 56.628 105.021 56.628C105.227 56.628 105.399 56.698 105.539 56.838C105.679 56.9687 105.749 57.1367 105.749 57.342C105.749 57.538 105.679 57.7107 105.539 57.86C105.399 58 105.227 58.07 105.021 58.07Z" fill="#FF5745"/>
<g clip-path="url(#clip0_502_4758)">
<path d="M79.0897 116.802H35.228V148.054H79.0897V116.802Z" fill="#263238" stroke="#263238" stroke-width="0.7" stroke-linecap="round" stroke-linejoin="round"/>
<path d="M77.2418 118.655H37.0752V146.202H77.2418V118.655Z" fill="white" stroke="#263238" stroke-width="0.7" stroke-linecap="round" stroke-linejoin="round"/>
<path d="M44.1919 128.157H70.4336" stroke="#263238" stroke-width="0.7" stroke-linecap="round" stroke-linejoin="round"/>
<path d="M39.8467 132.411H74.1286" stroke="#263238" stroke-width="0.7" stroke-linecap="round" stroke-linejoin="round"/>
<path d="M39.8467 141.399H47.6131" stroke="#263238" stroke-width="0.7" stroke-linecap="round" stroke-linejoin="round"/>
<path d="M66.499 141.399H74.2655" stroke="#263238" stroke-width="0.7" stroke-linecap="round" stroke-linejoin="round"/>
<path d="M55.9268 138.072L54.8662 144.452L57.1243 142.84L59.1087 144.315L57.6375 137.557L55.9268 138.072Z" fill="#263238" stroke="#263238" stroke-width="0.7" stroke-linecap="round" stroke-linejoin="round"/>
<path d="M59.3829 136.734C59.3829 135.327 58.2538 134.229 56.8853 134.229C55.4825 134.229 54.3877 135.362 54.3877 136.734C54.3877 138.14 55.5167 139.238 56.8853 139.238C58.2538 139.272 59.3829 138.14 59.3829 136.734Z" fill="#B0BEC5" stroke="#263238" stroke-width="0.7" stroke-miterlimit="10"/>
<path d="M130.752 92.1721H86.8901V143.252H130.752V92.1721Z" fill="#263238" stroke="#263238" stroke-width="0.7" stroke-linecap="round" stroke-linejoin="round"/>
<path d="M128.904 95.1904H88.7378V140.199H128.904V95.1904Z" fill="white" stroke="#263238" stroke-width="0.7" stroke-linecap="round" stroke-linejoin="round"/>
<path d="M126.236 98.2434H91.4746V137.214H126.236V98.2434Z" fill="white" stroke="#263238" stroke-width="0.7" stroke-linecap="round" stroke-linejoin="round"/>
<path d="M96.9829 103.526H120.898" stroke="#263238" stroke-width="0.7" stroke-linecap="round" stroke-linejoin="round"/>
<path d="M93.0142 107.78H124.285" stroke="#263238" stroke-width="0.7" stroke-linecap="round" stroke-linejoin="round"/>
<path d="M93.8354 131.588H101.636" stroke="#263238" stroke-width="0.7" stroke-linecap="round" stroke-linejoin="round"/>
<path d="M116.348 131.588H124.115" stroke="#263238" stroke-width="0.7" stroke-linecap="round" stroke-linejoin="round"/>
<path d="M116.587 116.802L114.808 127.403L118.572 124.761L121.856 127.197L119.427 115.945L116.587 116.802Z" fill="#263238" stroke="#263238" stroke-width="0.7" stroke-linecap="round" stroke-linejoin="round"/>
<path d="M119.08 118.683C121.324 118.153 122.715 115.9 122.187 113.65C121.659 111.4 119.412 110.005 117.168 110.535C114.924 111.064 113.533 113.317 114.061 115.567C114.589 117.817 116.836 119.212 119.08 118.683Z" fill="#B0BEC5" stroke="#263238" stroke-width="0.7" stroke-miterlimit="10"/>
<path d="M182.311 116.802H138.45V148.054H182.311V116.802Z" fill="#263238" stroke="#263238" stroke-width="0.7" stroke-linecap="round" stroke-linejoin="round"/>
<path d="M180.327 121.914C178.788 121.914 177.522 120.645 177.522 119.101C177.522 118.964 177.522 118.827 177.556 118.655H143.171C143.206 118.792 143.206 118.929 143.206 119.101C143.206 120.645 141.94 121.914 140.4 121.914H140.297V142.943H140.4C141.94 142.943 143.206 144.212 143.206 145.756C143.206 145.928 143.206 146.065 143.171 146.236H177.556C177.522 146.065 177.522 145.928 177.522 145.756C177.522 144.212 178.788 142.943 180.327 142.943H180.464V121.88L180.327 121.914Z" fill="white" stroke="#263238" stroke-width="0.7" stroke-linecap="round" stroke-linejoin="round"/>
<path d="M153.059 128.157H173.656" stroke="#263238" stroke-width="0.7" stroke-linecap="round" stroke-linejoin="round"/>
<path d="M152.819 132.411H177.316" stroke="#263238" stroke-width="0.7" stroke-linecap="round" stroke-linejoin="round"/>
<path d="M143.034 141.399H150.801" stroke="#263238" stroke-width="0.7" stroke-linecap="round" stroke-linejoin="round"/>
<path d="M169.687 141.399H177.453" stroke="#263238" stroke-width="0.7" stroke-linecap="round" stroke-linejoin="round"/>
<path d="M146.182 128.501L144.779 137.077L147.79 134.95L150.459 136.905L148.509 127.78L146.182 128.501Z" fill="#263238" stroke="#263238" stroke-width="0.7" stroke-linecap="round" stroke-linejoin="round"/>
<path d="M150.835 126.717C150.835 124.83 149.329 123.321 147.448 123.321C145.566 123.321 144.061 124.83 144.061 126.717C144.061 128.604 145.566 130.113 147.448 130.113C149.329 130.113 150.835 128.604 150.835 126.717Z" fill="#B0BEC5" stroke="#263238" stroke-width="0.7" stroke-miterlimit="10"/>
<path d="M199.829 155.704H155.557V191.45H199.829V155.704Z" stroke="#263238" stroke-width="0.7" stroke-linecap="round" stroke-linejoin="round"/>
<path d="M197.536 157.557H157.849V189.632H197.536V157.557Z" fill="#263238" stroke="#263238" stroke-width="0.7" stroke-linecap="round" stroke-linejoin="round"/>
<path d="M194.115 160.336H161.27V186.854H194.115V160.336Z" fill="white" stroke="#263238" stroke-width="0.7" stroke-linecap="round" stroke-linejoin="round"/>
<path d="M164.897 177.557L163.905 183.457L165.992 181.982L167.839 183.354L166.471 177.042L164.897 177.557Z" fill="#263238" stroke="#263238" stroke-width="0.7" stroke-linecap="round" stroke-linejoin="round"/>
<path d="M165.752 178.654C167.037 178.654 168.079 177.61 168.079 176.322C168.079 175.033 167.037 173.989 165.752 173.989C164.467 173.989 163.426 175.033 163.426 176.322C163.426 177.61 164.467 178.654 165.752 178.654Z" fill="#B0BEC5" stroke="#263238" stroke-width="0.7" stroke-miterlimit="10"/>
<path d="M190.968 169.186C188.778 165.138 183.646 162.325 177.693 162.325C172.116 162.325 167.292 164.795 164.897 168.432" stroke="#263238" stroke-width="0.7" stroke-linecap="round" stroke-linejoin="round"/>
<path d="M169.618 172.48H186.417" stroke="#263238" stroke-width="0.7" stroke-linecap="round" stroke-linejoin="round"/>
<path d="M169.618 175.121H186.417" stroke="#263238" stroke-width="0.7" stroke-linecap="round" stroke-linejoin="round"/>
<path d="M169.618 181.262H186.417" stroke="#263238" stroke-width="0.7" stroke-linecap="round" stroke-linejoin="round"/>
<path d="M60.4431 155.704H16.1709V191.45H60.4431V155.704Z" stroke="#263238" stroke-width="0.7" stroke-linecap="round" stroke-linejoin="round"/>
<path d="M58.151 157.557H18.4634V189.632H58.151V157.557Z" fill="#263238" stroke="#263238" stroke-width="0.7" stroke-linecap="round" stroke-linejoin="round"/>
<path d="M54.7297 160.336H21.8848V186.854H54.7297V160.336Z" fill="white" stroke="#263238" stroke-width="0.7" stroke-linecap="round" stroke-linejoin="round"/>
<path d="M25.5112 177.557L24.519 183.457L26.6061 181.982L28.4536 183.354L27.1193 177.042L25.5112 177.557Z" fill="#263238" stroke="#263238" stroke-width="0.7" stroke-linecap="round" stroke-linejoin="round"/>
<path d="M26.3666 178.654C27.6515 178.654 28.6931 177.61 28.6931 176.322C28.6931 175.033 27.6515 173.989 26.3666 173.989C25.0817 173.989 24.04 175.033 24.04 176.322C24.04 177.61 25.0817 178.654 26.3666 178.654Z" fill="#B0BEC5" stroke="#263238" stroke-width="0.7" stroke-miterlimit="10"/>
<path d="M51.5819 169.186C49.3922 165.138 44.2602 162.325 38.3071 162.325C32.7303 162.325 27.9062 164.795 25.5112 168.432" stroke="#263238" stroke-width="0.7" stroke-linecap="round" stroke-linejoin="round"/>
<path d="M30.2329 172.48H47.0317" stroke="#263238" stroke-width="0.7" stroke-linecap="round" stroke-linejoin="round"/>
<path d="M30.2329 175.121H47.0317" stroke="#263238" stroke-width="0.7" stroke-linecap="round" stroke-linejoin="round"/>
<path d="M30.2329 181.262H47.0317" stroke="#263238" stroke-width="0.7" stroke-linecap="round" stroke-linejoin="round"/>
<path d="M58.1167 324.829H150.288" stroke="#263238" stroke-width="0.7" stroke-linecap="round" stroke-linejoin="round"/>
<path d="M86.6845 215.635L87.0608 211.69L121.069 211.21L121.651 216.733L129.041 285.378L131.538 311.415L123.293 312.17L110.326 258.036L105.228 235.635L102.731 234.64L96.5721 311.93L87.3003 312.17L86.3081 219.203L86.6845 215.635Z" fill="#263238" stroke="#263238" stroke-width="0.7" stroke-linecap="round" stroke-linejoin="round"/>
<path d="M87.0609 211.69L121.069 211.21L121.651 216.733L86.6846 215.635L87.0609 211.69Z" fill="#737373" stroke="#263238" stroke-width="0.7" stroke-linecap="round" stroke-linejoin="round"/>
<path d="M115.424 217.145L115.526 212.891L117.785 212.754V217.282" fill="#263238"/>
<path d="M115.424 217.145L115.526 212.891L117.785 212.754V217.282" stroke="#263238" stroke-width="0.7" stroke-linecap="round" stroke-linejoin="round"/>
<path d="M91.2349 216.733L91.3717 212.479L93.6298 212.342V216.87" fill="#263238"/>
<path d="M91.2349 216.733L91.3717 212.479L93.6298 212.342V216.87" stroke="#263238" stroke-width="0.7" stroke-linecap="round" stroke-linejoin="round"/>
<path d="M106.357 213.268H99.9937V216.321H106.357V213.268Z" fill="white" stroke="#263238" stroke-width="0.7" stroke-linecap="round" stroke-linejoin="round"/>
<path d="M66.8066 184.384C66.8066 184.384 66.8409 189.564 67.4909 192.068C68.141 194.572 70.2964 195.395 72.0413 195.395C73.273 195.395 76.3864 193.92 78.0971 193.028L87.061 189.495L87.6769 204.143C87.6769 204.143 85.4188 209.289 85.5556 210.524C85.6925 211.793 87.061 213.268 87.4374 213.268H100.917L120.522 213.886C121.377 213.783 122.164 213.337 122.643 212.617C123.635 211.382 122.643 206.339 122.643 206.339L124.388 189.564L127.946 194.606L131.196 199.478C131.196 199.478 134.344 203.56 135.952 203.457C137.56 203.354 141.837 199.992 143.445 197.557C144.471 195.944 145.292 194.195 145.874 192.377L138.792 188.74L128.665 168.363L115.424 163.698L103.791 161.811C103.791 161.811 88.9085 164.315 87.4374 165.07C85.932 165.824 83.1949 172.445 81.1763 175.224C79.4314 177.625 75.1889 181.399 72.6914 183.526L66.8066 184.384Z" fill="white" stroke="#263238" stroke-width="0.7" stroke-linecap="round" stroke-linejoin="round"/>
<path d="M78.6787 191.245C79.9104 188.809 78.7814 183.526 78.7814 183.526" stroke="#263238" stroke-width="0.7" stroke-linecap="round" stroke-linejoin="round"/>
<path d="M76.5571 191.759C77.8915 189.941 78.9863 182.497 78.9863 182.497" stroke="#263238" stroke-width="0.7" stroke-linecap="round" stroke-linejoin="round"/>
<path d="M84.084 174.984L87.0605 189.529L86.2394 176.905" stroke="#263238" stroke-width="0.7" stroke-linecap="round" stroke-linejoin="round"/>
<path d="M86.069 174.16L85.9321 172.342" stroke="#263238" stroke-width="0.7" stroke-linecap="round" stroke-linejoin="round"/>
<path d="M131.333 195.018L133.352 188.706" stroke="#263238" stroke-width="0.7" stroke-linecap="round" stroke-linejoin="round"/>
<path d="M129.725 192.479L134.583 187.574" stroke="#263238" stroke-width="0.7" stroke-linecap="round" stroke-linejoin="round"/>
<path d="M129.314 178.346L128.356 180.541" stroke="#263238" stroke-width="0.7" stroke-linecap="round" stroke-linejoin="round"/>
<path d="M127.741 181.948L124.422 189.632L127.467 176.699" stroke="#263238" stroke-width="0.7" stroke-linecap="round" stroke-linejoin="round"/>
<path d="M128.014 174.366L128.493 172.342" stroke="#263238" stroke-width="0.7" stroke-linecap="round" stroke-linejoin="round"/>
<path d="M99.3776 198.071L100.062 194.847L101.02 190.318L101.704 187.094L102.662 182.565L103.346 179.341L104.304 174.778L104.578 173.646L102.628 170.421L101.602 168.775L105.776 166.751L109.026 170.181L107.178 172.583L106.083 173.955L106.186 175.67L106.528 180.816L106.768 184.486L107.11 189.632L107.349 193.303L107.692 198.449L107.897 201.811L107.76 202.016L105.091 205.756L103.21 208.431L102.936 208.843L102.525 208.123L99.7882 203.251L98.6934 201.296L99.3776 198.071Z" fill="#B0BEC5" stroke="#263238" stroke-width="0.7" stroke-miterlimit="10"/>
<path d="M104.578 173.646L104.338 174.778L106.22 175.67L106.118 173.955L107.212 172.582L102.662 170.456L104.578 173.646ZM102.662 182.565L106.768 184.486L106.528 180.816L103.346 179.306L102.662 182.565ZM101.02 190.318L107.349 193.303L107.11 189.632L101.704 187.094L101.02 190.318ZM99.3433 198.071L107.726 202.016L107.862 201.81L107.657 198.448L100.028 194.846L99.3433 198.071ZM99.788 203.251L102.525 208.123L103.209 208.431L105.091 205.755L99.788 203.251Z" fill="#263238" stroke="#263238" stroke-width="0.7" stroke-linecap="round" stroke-linejoin="round"/>
<path d="M104.133 159.547C104.133 159.547 100.986 160.987 100.643 162.085C100.267 163.183 99.3091 170.456 99.3091 170.456L102.936 169.255L105.468 171.176L107.657 169.975L111.386 172.891L116.724 164.178L113.816 160.439L111.523 160.061L104.133 159.547Z" fill="white" stroke="#263238" stroke-width="0.7" stroke-linecap="round" stroke-linejoin="round"/>
<path d="M103.039 156.871L102.56 162.325L103.175 166.819L105.468 171.176L108.478 167.917L112.618 161.708L112.379 154.573L103.039 156.871Z" fill="white" stroke="#263238" stroke-width="0.7" stroke-linecap="round" stroke-linejoin="round"/>
<path d="M112.481 158.861L112.344 154.607L103.038 156.905L102.901 158.449C106.528 160.027 110.873 159.238 112.481 158.861Z" fill="#263238" stroke="#263238" stroke-width="0.7" stroke-linecap="round" stroke-linejoin="round"/>
<path d="M77.2072 181.124C75.7019 182.257 70.0908 181.502 69.3381 180.987C68.5854 180.473 68.5854 177.968 68.5854 177.968L72.4516 163.183C72.4516 163.183 72.5884 160.919 72.5884 159.787C72.5884 158.655 72.5884 155.91 72.8279 155.293C73.0674 154.675 80.0812 153.406 80.0812 153.406L81.2787 154.504C81.2787 154.504 84.3237 153.269 86.0685 153.783C87.8134 154.298 87.3344 155.156 86.2054 155.293C85.0421 155.499 83.9131 155.979 82.9551 156.665C82.5788 157.042 82.2024 159.169 81.3471 160.061C80.3549 160.953 79.2943 161.776 78.2336 162.565L78.61 177.728C78.5758 177.728 78.7126 179.992 77.2072 181.124Z" fill="white" stroke="#263238" stroke-width="0.7" stroke-linecap="round" stroke-linejoin="round"/>
<path d="M80.4576 150.181C79.9444 150.181 79.7049 151.073 79.9444 152.171C80.1839 153.269 80.0812 154.538 80.9366 154.435C81.8261 154.298 82.5788 150.696 82.5788 150.696C82.3051 150.044 80.9366 150.181 80.4576 150.181Z" fill="white" stroke="#263238" stroke-width="0.7" stroke-linecap="round" stroke-linejoin="round"/>
<path d="M73.5807 152.583C72.9648 152.96 72.828 155.361 73.3412 155.979C73.8544 156.596 78.4732 155.327 79.3285 154.847C80.2181 154.332 79.4654 150.73 79.4654 150.73C78.5758 150.559 74.1965 152.205 73.5807 152.583Z" fill="white" stroke="#263238" stroke-width="0.7" stroke-linecap="round" stroke-linejoin="round"/>
<path d="M77.5837 155.396L77.3784 151.279" stroke="#263238" stroke-width="0.7" stroke-linecap="round" stroke-linejoin="round"/>
<path d="M75.2913 155.842L75.0518 152.034" stroke="#263238" stroke-width="0.7" stroke-linecap="round" stroke-linejoin="round"/>
<path d="M75.873 158.689C76.831 155.945 79.705 154.881 80.6972 154.744C81.6551 154.607 81.8262 154.058 81.8262 154.058" stroke="#263238" stroke-width="0.7" stroke-linecap="round" stroke-linejoin="round"/>
<path d="M71.699 180.095C70.2962 180.164 69.0303 179.272 68.5856 177.969C68.5856 177.969 65.3695 184.109 65.4721 185.138C65.5748 186.133 68.1066 188.534 70.7068 188.534C73.3412 188.534 78.7127 186.03 79.4654 184.898C80.2181 183.766 78.5759 177.763 78.5759 177.763C78.5759 177.763 76.2836 180.13 71.699 180.095Z" fill="white" stroke="#263238" stroke-width="0.7" stroke-linecap="round" stroke-linejoin="round"/>
<path d="M136.397 183.217C135.678 183.217 133.865 184.349 133.454 185.55C133.044 186.751 132.428 189.015 132.53 189.907C132.633 190.799 135.986 195.601 139.134 195.807C142.281 196.013 146.832 195.018 147.345 193.577C147.858 192.137 147.55 186.751 147.447 186.133C147.345 185.516 145.429 184.487 145.429 184.487C145.429 184.487 137.115 183.217 136.397 183.217Z" fill="white" stroke="#263238" stroke-width="0.7" stroke-linecap="round" stroke-linejoin="round"/>
<path d="M136.807 187.985C138.312 189.118 144.471 189.392 145.224 188.912C145.976 188.431 145.976 185.893 145.976 185.893L142.144 168.878C142.144 168.878 142.007 166.613 142.007 165.481C142.007 164.349 142.007 161.605 141.768 160.987C141.528 160.37 134.515 159.101 134.515 159.101L133.317 160.198C133.317 160.198 130.272 158.963 128.527 159.478C126.782 159.993 127.261 160.85 128.391 160.987C129.554 161.193 130.683 161.673 131.641 162.36C132.017 162.737 132.393 164.864 133.283 165.756C134.275 166.648 135.336 167.471 136.396 168.26L135.438 184.624C135.438 184.589 135.302 186.853 136.807 187.985Z" fill="white" stroke="#263238" stroke-width="0.7" stroke-linecap="round" stroke-linejoin="round"/>
<path d="M134.138 155.842C134.652 155.842 134.891 156.734 134.652 157.831C134.412 158.929 134.515 160.198 133.659 160.095C132.77 159.958 132.017 156.356 132.017 156.356C132.291 155.739 133.659 155.842 134.138 155.842Z" fill="white" stroke="#263238" stroke-width="0.7" stroke-linecap="round" stroke-linejoin="round"/>
<path d="M141.015 158.243C141.631 158.62 141.768 161.022 141.255 161.639C140.741 162.257 136.123 160.988 135.267 160.507C134.412 160.027 135.13 156.391 135.13 156.391C136.02 156.219 140.399 157.866 141.015 158.243Z" fill="white" stroke="#263238" stroke-width="0.7" stroke-linecap="round" stroke-linejoin="round"/>
<path d="M137.013 161.09L137.218 156.939" stroke="#263238" stroke-width="0.7" stroke-linecap="round" stroke-linejoin="round"/>
<path d="M139.339 161.536L139.544 157.729" stroke="#263238" stroke-width="0.7" stroke-linecap="round" stroke-linejoin="round"/>
<path d="M138.723 164.384C137.765 161.639 134.891 160.576 133.899 160.439C132.941 160.301 132.77 159.752 132.77 159.752" stroke="#263238" stroke-width="0.7" stroke-linecap="round" stroke-linejoin="round"/>
<path d="M118.297 146.545C118.297 146.545 117.203 148.363 116.963 148.981C116.724 149.598 115.15 149.701 114.671 149.358C114.192 148.981 115.526 144.624 115.526 144.624C115.047 143.801 114.466 143.046 113.816 142.325C112.721 141.125 113.097 138.929 113.097 136.974C113.097 135.019 112.379 135.876 110.189 136.356C107.999 136.837 104.27 138.415 103.312 138.415C102.354 138.415 100.78 137.317 100.78 137.317C100.78 137.317 98.2484 135.979 97.872 135.121C97.4957 134.264 97.2562 134.264 98.5905 134.401C99.9248 134.538 99.4459 132.926 100.643 131.142C101.841 129.324 107.178 123.972 110.805 125.55C114.431 127.128 115.047 131.965 115.047 131.965C115.047 131.965 116.484 132.103 117.716 132.103C120.624 132.411 122.916 134.744 123.156 137.694C123.532 141.948 119.666 145.825 119.666 145.825L118.297 146.545Z" fill="#263238" stroke="#263238" stroke-width="0.7" stroke-linecap="round" stroke-linejoin="round"/>
<path d="M99.5145 145.962C99.5145 145.482 97.9406 142.943 98.5565 141.125C99.1723 139.307 100.507 141.262 100.507 141.262C100.507 141.262 99.5145 146.442 99.5145 145.962Z" fill="white" stroke="#263238" stroke-width="0.7" stroke-linecap="round" stroke-linejoin="round"/>
<path d="M112.482 133.578C111.626 133.338 111.01 134.538 108 136.116C104.989 137.694 100.746 137.317 100.746 137.317C100.746 137.317 97.7013 152.377 98.933 155.739C100.165 159.101 104.749 159.512 108.718 157.934C111.25 156.837 113.44 155.018 115.013 152.72C115.8 152.686 116.587 152.548 117.306 152.24C118.366 151.759 119.974 151.039 120.077 147.883C120.214 144.727 118.024 145.344 118.024 145.344C118.024 145.344 115.834 148.981 115.492 148.603C115.116 148.226 116.929 144.109 116.929 144.109C116.108 143.389 115.39 142.531 114.876 141.571C114.021 139.993 114.021 135.019 114.021 135.019C114.021 135.019 113.337 133.818 112.482 133.578Z" fill="white" stroke="#263238" stroke-width="0.7" stroke-linecap="round" stroke-linejoin="round"/>
<path d="M107.042 149.735C107.042 149.735 104.51 150.456 104.133 149.495C103.757 148.535 106.323 141.742 106.323 141.742" stroke="#263238" stroke-width="0.7" stroke-linecap="round" stroke-linejoin="round"/>
<path d="M101.362 148.74C101.362 148.74 102.936 153.955 106.186 153.475C108.068 153.234 109.779 152.205 110.908 150.696" stroke="#263238" stroke-width="0.7" stroke-linecap="round" stroke-linejoin="round"/>
<path d="M111.763 151.794L110.292 150.078" stroke="#263238" stroke-width="0.7" stroke-linecap="round" stroke-linejoin="round"/>
<path d="M111.044 147.643C112.972 147.643 114.534 146.076 114.534 144.144C114.534 142.211 112.972 140.645 111.044 140.645C109.117 140.645 107.555 142.211 107.555 144.144C107.555 146.076 109.117 147.643 111.044 147.643Z" stroke="#263238" stroke-width="0.7" stroke-linecap="round" stroke-linejoin="round"/>
<path d="M109.368 143.972C110.497 145.31 112.413 144.795 112.413 144.795" stroke="#263238" stroke-width="0.7" stroke-linecap="round" stroke-linejoin="round"/>
<path d="M100.952 141.468C102.32 143.046 104.578 142.36 104.578 142.36" stroke="#263238" stroke-width="0.7" stroke-linecap="round" stroke-linejoin="round"/>
<path d="M110.839 139.032C113.2 139.856 113.884 140.885 113.884 140.885L110.839 139.032Z" fill="white"/>
<path d="M110.839 139.032C113.2 139.856 113.884 140.885 113.884 140.885" stroke="#263238" stroke-width="0.7" stroke-linecap="round" stroke-linejoin="round"/>
<path d="M101.533 137.832C102.868 137.386 104.339 137.454 105.605 138.072" stroke="#263238" stroke-width="0.7" stroke-linecap="round" stroke-linejoin="round"/>
<path d="M102.696 145.207C104.624 145.207 106.186 143.641 106.186 141.708C106.186 139.776 104.624 138.209 102.696 138.209C100.769 138.209 99.2065 139.776 99.2065 141.708C99.2065 143.641 100.769 145.207 102.696 145.207Z" stroke="#263238" stroke-width="0.7" stroke-linecap="round" stroke-linejoin="round"/>
<path d="M106.186 142.566L107.76 142.943" stroke="#263238" stroke-width="0.7" stroke-linecap="round" stroke-linejoin="round"/>
<path d="M117.819 146.099L114.534 145.001" stroke="#263238" stroke-width="0.7" stroke-linecap="round" stroke-linejoin="round"/>
<path d="M123.293 312.17L123.019 316.458L122.54 321.913L122.951 323.834L124.011 324.485C124.011 324.485 139.852 325.137 140.263 324.485C140.673 323.834 139.613 322.359 139.613 322.359L134.104 316.218L131.162 310.695L123.293 312.17Z" fill="white" stroke="#263238" stroke-width="0.7" stroke-linecap="round" stroke-linejoin="round"/>
<path d="M122.711 322.564L122.985 323.868L124.046 324.52C124.046 324.52 139.887 325.171 140.297 324.52C140.434 324.142 140.4 323.731 140.195 323.388L122.711 322.564Z" fill="white" stroke="#263238" stroke-width="0.7" stroke-linecap="round" stroke-linejoin="round"/>
<path d="M96.3671 312.17L96.7092 313.268L97.1198 321.947L96.7092 323.868L95.6486 324.52C95.6486 324.52 79.8078 325.172 79.3972 324.52C78.9866 323.868 80.0473 322.393 80.0473 322.393L85.5556 316.252L87.4031 312.204H96.3671V312.17Z" fill="white" stroke="#263238" stroke-width="0.7" stroke-linecap="round" stroke-linejoin="round"/>
<path d="M95.6144 324.485L96.675 323.834L97.0514 322.118L79.6709 322.907C79.3972 323.388 79.0893 324.108 79.363 324.485C79.7736 325.137 95.6144 324.485 95.6144 324.485Z" fill="white" stroke="#263238" stroke-width="0.7" stroke-linecap="round" stroke-linejoin="round"/>
</g>
<defs>
<filter id="filter0_d_502_4758" x="0.5" y="0.5" width="158" height="97" filterUnits="userSpaceOnUse" color-interpolation-filters="sRGB">
<feFlood flood-opacity="0" result="BackgroundImageFix"/>
<feColorMatrix in="SourceAlpha" type="matrix" values="0 0 0 0 0 0 0 0 0 0 0 0 0 0 0 0 0 0 127 0" result="hardAlpha"/>
<feOffset dx="5" dy="5"/>
<feComposite in2="hardAlpha" operator="out"/>
<feColorMatrix type="matrix" values="0 0 0 0 0.2 0 0 0 0 0.243137 0 0 0 0 0.388235 0 0 0 1 0"/>
<feBlend mode="normal" in2="BackgroundImageFix" result="effect1_dropShadow_502_4758"/>
<feBlend mode="normal" in="SourceGraphic" in2="effect1_dropShadow_502_4758" result="shape"/>
</filter>
<clipPath id="clip0_502_4758">
<rect width="184" height="233" fill="white" transform="translate(16 92)"/>
</clipPath>
</defs>
</svg>
