<svg width="837" height="610" viewBox="0 0 837 610" fill="none" xmlns="http://www.w3.org/2000/svg">
<path d="M519.266 65.7212H404.367V147.271H519.266V65.7212Z" fill="#263238" stroke="#263238" stroke-linecap="round" stroke-linejoin="round"/>
<path d="M514.426 70.5547H409.207V142.437H514.426V70.5547Z" fill="white" stroke="#263238" stroke-linecap="round" stroke-linejoin="round"/>
<path d="M427.85 95.3511H496.592" stroke="#263238" stroke-linecap="round" stroke-linejoin="round"/>
<path d="M416.467 106.451H506.27" stroke="#263238" stroke-linecap="round" stroke-linejoin="round"/>
<path d="M416.467 129.905H436.812" stroke="#263238" stroke-linecap="round" stroke-linejoin="round"/>
<path d="M486.285 129.905H506.63" stroke="#263238" stroke-linecap="round" stroke-linejoin="round"/>
<path d="M458.591 121.222L455.812 137.872L461.728 133.665L466.926 137.514L463.072 119.879L458.591 121.222Z" fill="#263238" stroke="#263238" stroke-linecap="round" stroke-linejoin="round"/>
<path d="M467.644 117.731C467.644 114.06 464.686 111.196 461.101 111.196C457.427 111.196 454.559 114.15 454.559 117.731C454.559 121.401 457.516 124.265 461.101 124.265C464.686 124.355 467.644 121.401 467.644 117.731Z" fill="#B0BEC5" stroke="#263238" stroke-miterlimit="10"/>
<path d="M654.6 1.44775H539.701V134.739H654.6V1.44775Z" fill="#263238" stroke="#263238" stroke-linecap="round" stroke-linejoin="round"/>
<path d="M649.76 9.3252H544.541V126.772H649.76V9.3252Z" fill="white" stroke="#263238" stroke-linecap="round" stroke-linejoin="round"/>
<path d="M642.769 17.2925H551.711V118.984H642.769V17.2925Z" fill="white" stroke="#263238" stroke-linecap="round" stroke-linejoin="round"/>
<path d="M566.141 31.0781H628.788" stroke="#263238" stroke-linecap="round" stroke-linejoin="round"/>
<path d="M555.744 42.1782H637.661" stroke="#263238" stroke-linecap="round" stroke-linejoin="round"/>
<path d="M557.895 104.303H578.329" stroke="#263238" stroke-linecap="round" stroke-linejoin="round"/>
<path d="M616.867 104.303H637.212" stroke="#263238" stroke-linecap="round" stroke-linejoin="round"/>
<path d="M617.494 65.7208L612.834 93.3816L622.693 86.4888L631.297 92.8445L624.933 63.4829L617.494 65.7208Z" fill="#263238" stroke="#263238" stroke-linecap="round" stroke-linejoin="round"/>
<path d="M624.024 70.6269C629.902 69.2457 633.547 63.3665 632.164 57.4954C630.781 51.6243 624.895 47.9845 619.016 49.3658C613.138 50.747 609.494 56.6262 610.877 62.4973C612.26 68.3684 618.146 72.0082 624.024 70.6269Z" fill="#B0BEC5" stroke="#263238" stroke-miterlimit="10"/>
<path d="M789.664 65.7212H674.766V147.271H789.664V65.7212Z" fill="#263238" stroke="#263238" stroke-linecap="round" stroke-linejoin="round"/>
<path d="M784.466 79.0588C780.433 79.0588 777.117 75.7467 777.117 71.7184C777.117 71.3603 777.117 71.0023 777.206 70.5547H687.134C687.224 70.9128 687.224 71.2708 687.224 71.7184C687.224 75.7467 683.907 79.0588 679.874 79.0588H679.605V133.933H679.874C683.907 133.933 687.224 137.245 687.224 141.273C687.224 141.721 687.224 142.079 687.134 142.526H777.206C777.117 142.079 777.117 141.721 777.117 141.273C777.117 137.245 780.433 133.933 784.466 133.933H784.825V78.9693L784.466 79.0588Z" fill="white" stroke="#263238" stroke-linecap="round" stroke-linejoin="round"/>
<path d="M713.035 95.3511H766.989" stroke="#263238" stroke-linecap="round" stroke-linejoin="round"/>
<path d="M712.406 106.451H776.577" stroke="#263238" stroke-linecap="round" stroke-linejoin="round"/>
<path d="M686.773 129.905H707.118" stroke="#263238" stroke-linecap="round" stroke-linejoin="round"/>
<path d="M756.592 129.905H776.936" stroke="#263238" stroke-linecap="round" stroke-linejoin="round"/>
<path d="M695.02 96.2466L691.346 118.626L699.233 113.076L706.223 118.178L701.115 94.3667L695.02 96.2466Z" fill="#263238" stroke="#263238" stroke-linecap="round" stroke-linejoin="round"/>
<path d="M707.209 91.5917C707.209 86.6682 703.265 82.7295 698.336 82.7295C693.406 82.7295 689.463 86.6682 689.463 91.5917C689.463 96.5151 693.406 100.454 698.336 100.454C703.265 100.454 707.209 96.5151 707.209 91.5917Z" fill="#B0BEC5" stroke="#263238" stroke-miterlimit="10"/>
<path d="M835.55 167.233H719.576V260.51H835.55V167.233Z" stroke="#263238" stroke-linecap="round" stroke-linejoin="round"/>
<path d="M829.546 172.067H725.582V255.766H829.546V172.067Z" fill="#263238" stroke="#263238" stroke-linecap="round" stroke-linejoin="round"/>
<path d="M820.584 179.318H734.545V248.515H820.584V179.318Z" fill="white" stroke="#263238" stroke-linecap="round" stroke-linejoin="round"/>
<path d="M744.044 224.256L741.445 239.653L746.912 235.804L751.752 239.384L748.167 222.913L744.044 224.256Z" fill="#263238" stroke="#263238" stroke-linecap="round" stroke-linejoin="round"/>
<path d="M746.286 227.12C749.652 227.12 752.38 224.395 752.38 221.033C752.38 217.671 749.652 214.946 746.286 214.946C742.92 214.946 740.191 217.671 740.191 221.033C740.191 224.395 742.92 227.12 746.286 227.12Z" fill="#B0BEC5" stroke="#263238" stroke-miterlimit="10"/>
<path d="M812.339 202.414C806.603 191.851 793.159 184.51 777.564 184.51C762.956 184.51 750.319 190.955 744.045 200.444" stroke="#263238" stroke-linecap="round" stroke-linejoin="round"/>
<path d="M756.412 211.007H800.418" stroke="#263238" stroke-linecap="round" stroke-linejoin="round"/>
<path d="M756.412 217.9H800.418" stroke="#263238" stroke-linecap="round" stroke-linejoin="round"/>
<path d="M756.412 233.924H800.418" stroke="#263238" stroke-linecap="round" stroke-linejoin="round"/>
<path d="M470.421 167.233H354.447V260.51H470.421V167.233Z" stroke="#263238" stroke-linecap="round" stroke-linejoin="round"/>
<path d="M464.417 172.067H360.453V255.766H464.417V172.067Z" fill="#263238" stroke="#263238" stroke-linecap="round" stroke-linejoin="round"/>
<path d="M455.453 179.318H369.414V248.515H455.453V179.318Z" fill="white" stroke="#263238" stroke-linecap="round" stroke-linejoin="round"/>
<path d="M378.916 224.256L376.316 239.653L381.783 235.804L386.623 239.384L383.128 222.913L378.916 224.256Z" fill="#263238" stroke="#263238" stroke-linecap="round" stroke-linejoin="round"/>
<path d="M381.155 227.12C384.521 227.12 387.249 224.395 387.249 221.033C387.249 217.671 384.521 214.946 381.155 214.946C377.789 214.946 375.061 217.671 375.061 221.033C375.061 224.395 377.789 227.12 381.155 227.12Z" fill="#B0BEC5" stroke="#263238" stroke-miterlimit="10"/>
<path d="M447.208 202.414C441.472 191.851 428.028 184.51 412.434 184.51C397.825 184.51 385.188 190.955 378.914 200.444" stroke="#263238" stroke-linecap="round" stroke-linejoin="round"/>
<path d="M391.283 211.007H435.289" stroke="#263238" stroke-linecap="round" stroke-linejoin="round"/>
<path d="M391.283 217.9H435.289" stroke="#263238" stroke-linecap="round" stroke-linejoin="round"/>
<path d="M391.283 233.924H435.289" stroke="#263238" stroke-linecap="round" stroke-linejoin="round"/>
<path d="M464.326 608.553H705.774" stroke="#263238" stroke-linecap="round" stroke-linejoin="round"/>
<path d="M539.164 323.619L540.149 313.325L629.236 312.072L630.76 326.484L650.119 505.608L656.661 573.551L635.062 575.521L601.094 434.263L587.74 375.808L581.197 373.212L565.065 574.894L540.777 575.521L538.178 332.929L539.164 323.619Z" fill="#263238" stroke="#263238" stroke-linecap="round" stroke-linejoin="round"/>
<path d="M540.15 313.325L629.237 312.072L630.76 326.484L539.164 323.619L540.15 313.325Z" fill="#737373" stroke="#263238" stroke-linecap="round" stroke-linejoin="round"/>
<path d="M614.447 327.558L614.716 316.458L620.631 316.1V327.916" fill="#263238"/>
<path d="M614.447 327.558L614.716 316.458L620.631 316.1V327.916" stroke="#263238" stroke-linecap="round" stroke-linejoin="round"/>
<path d="M551.084 326.484L551.442 315.384L557.358 315.026V326.842" fill="#263238"/>
<path d="M551.084 326.484L551.442 315.384L557.358 315.026V326.842" stroke="#263238" stroke-linecap="round" stroke-linejoin="round"/>
<path d="M590.697 317.443H574.027V325.41H590.697V317.443Z" fill="white" stroke="#263238" stroke-linecap="round" stroke-linejoin="round"/>
<path d="M487.092 242.07C487.092 242.07 487.181 255.587 488.884 262.122C490.587 268.656 496.233 270.805 500.804 270.805C504.031 270.805 512.187 266.955 516.668 264.628L540.149 255.408L541.763 293.632C541.763 293.632 535.847 307.059 536.206 310.282C536.564 313.594 540.149 317.443 541.135 317.443H576.447L627.802 319.054C630.043 318.786 632.104 317.622 633.359 315.742C635.958 312.52 633.359 299.361 633.359 299.361L637.93 255.587L647.251 268.746L655.765 281.457C655.765 281.457 664.01 292.11 668.223 291.841C672.435 291.573 683.638 282.8 687.85 276.444C690.539 272.237 692.69 267.672 694.214 262.927L675.661 253.438L649.133 200.265L614.448 188.091L583.976 183.167C583.976 183.167 544.989 189.702 541.135 191.672C537.192 193.641 530.022 210.918 524.734 218.169C520.163 224.435 509.05 234.282 502.507 239.832L487.092 242.07Z" fill="white" stroke="#263238" stroke-linecap="round" stroke-linejoin="round"/>
<path d="M518.191 259.973C521.418 253.617 518.46 239.832 518.46 239.832" stroke="#263238" stroke-linecap="round" stroke-linejoin="round"/>
<path d="M512.635 261.316C516.13 256.571 518.998 237.146 518.998 237.146" stroke="#263238" stroke-linecap="round" stroke-linejoin="round"/>
<path d="M532.352 217.542L540.149 255.497L537.998 222.555" stroke="#263238" stroke-linecap="round" stroke-linejoin="round"/>
<path d="M537.55 215.393L537.191 210.649" stroke="#263238" stroke-linecap="round" stroke-linejoin="round"/>
<path d="M656.123 269.82L661.411 253.349" stroke="#263238" stroke-linecap="round" stroke-linejoin="round"/>
<path d="M651.91 263.195L664.637 250.395" stroke="#263238" stroke-linecap="round" stroke-linejoin="round"/>
<path d="M650.836 226.314L648.326 232.044" stroke="#263238" stroke-linecap="round" stroke-linejoin="round"/>
<path d="M646.713 235.714L638.02 255.766L645.996 222.018" stroke="#263238" stroke-linecap="round" stroke-linejoin="round"/>
<path d="M647.43 215.93L648.684 210.649" stroke="#263238" stroke-linecap="round" stroke-linejoin="round"/>
<path d="M572.414 277.787L574.206 269.372L576.716 257.556L578.508 249.141L581.018 237.325L582.81 228.91L585.319 217.005L586.036 214.051L580.928 205.636L578.239 201.339L589.173 196.058L597.688 205.009L592.848 211.276L589.98 214.856L590.249 219.332L591.145 232.76L591.772 242.338L592.669 255.766L593.296 265.344L594.192 278.771L594.73 287.544L594.372 288.081L587.381 297.839L582.452 304.821L581.735 305.895L580.659 304.015L573.489 291.304L570.621 286.201L572.414 277.787Z" fill="#B0BEC5" stroke="#263238" stroke-miterlimit="10"/>
<path d="M586.037 214.051L585.409 217.005L590.339 219.332L590.07 214.856L592.938 211.276L581.018 205.726L586.037 214.051ZM581.018 237.325L591.773 242.338L591.145 232.76L582.81 228.821L581.018 237.325ZM576.716 257.556L593.296 265.344L592.669 255.766L578.508 249.141L576.716 257.556ZM572.324 277.787L594.282 288.081L594.641 287.544L594.103 278.772L574.117 269.372L572.324 277.787ZM573.489 291.304L580.659 304.015L582.452 304.821L587.381 297.839L573.489 291.304Z" fill="#263238" stroke="#263238" stroke-linecap="round" stroke-linejoin="round"/>
<path d="M584.871 177.259C584.871 177.259 576.626 181.019 575.73 183.884C574.744 186.748 572.234 205.726 572.234 205.726L581.735 202.593L588.367 207.606L594.103 204.472L603.872 212.081L617.853 189.344L610.235 179.587L604.23 178.602L584.871 177.259Z" fill="white" stroke="#263238" stroke-linecap="round" stroke-linejoin="round"/>
<path d="M582.005 170.277L580.75 184.51L582.363 196.237L588.368 207.606L596.255 199.101L607.1 182.899L606.472 164.279L582.005 170.277Z" fill="white" stroke="#263238" stroke-linecap="round" stroke-linejoin="round"/>
<path d="M606.739 175.469L606.381 164.369L582.003 170.366L581.645 174.395C591.145 178.512 602.527 176.453 606.739 175.469Z" fill="#263238" stroke="#263238" stroke-linecap="round" stroke-linejoin="round"/>
<path d="M514.337 233.566C510.394 236.52 495.695 234.55 493.724 233.208C491.752 231.865 491.752 225.33 491.752 225.33L501.88 186.748C501.88 186.748 502.238 180.84 502.238 177.886C502.238 174.932 502.238 167.771 502.865 166.159C503.493 164.548 521.866 161.236 521.866 161.236L525.003 164.1C525.003 164.1 532.979 160.878 537.55 162.221C542.121 163.563 540.866 165.801 537.909 166.159C534.861 166.696 531.904 167.95 529.394 169.74C528.408 170.725 527.422 176.275 525.182 178.602C522.583 180.93 519.804 183.078 517.026 185.137L518.012 224.703C517.922 224.703 518.281 230.612 514.337 233.566Z" fill="white" stroke="#263238" stroke-linecap="round" stroke-linejoin="round"/>
<path d="M522.852 152.821C521.508 152.821 520.881 155.148 521.508 158.013C522.135 160.878 521.867 164.19 524.107 163.921C526.437 163.563 528.409 154.164 528.409 154.164C527.692 152.463 524.107 152.821 522.852 152.821Z" fill="white" stroke="#263238" stroke-linecap="round" stroke-linejoin="round"/>
<path d="M504.836 159.087C503.223 160.072 502.864 166.338 504.209 167.949C505.553 169.561 517.652 166.249 519.893 164.995C522.223 163.653 520.252 154.253 520.252 154.253C517.921 153.806 506.449 158.103 504.836 159.087Z" fill="white" stroke="#263238" stroke-linecap="round" stroke-linejoin="round"/>
<path d="M515.323 166.428L514.785 155.686" stroke="#263238" stroke-linecap="round" stroke-linejoin="round"/>
<path d="M509.319 167.591L508.691 157.655" stroke="#263238" stroke-linecap="round" stroke-linejoin="round"/>
<path d="M510.842 175.021C513.351 167.86 520.88 165.085 523.479 164.727C525.988 164.369 526.436 162.937 526.436 162.937" stroke="#263238" stroke-linecap="round" stroke-linejoin="round"/>
<path d="M499.908 230.88C496.233 231.059 492.917 228.732 491.752 225.33C491.752 225.33 483.327 241.354 483.596 244.039C483.865 246.635 490.497 252.901 497.309 252.901C504.21 252.901 518.281 246.367 520.253 243.413C522.224 240.458 517.922 224.793 517.922 224.793C517.922 224.793 511.917 230.97 499.908 230.88Z" fill="white" stroke="#263238" stroke-linecap="round" stroke-linejoin="round"/>
<path d="M669.388 239.026C667.506 239.026 662.756 241.98 661.68 245.113C660.605 248.246 658.991 254.154 659.26 256.482C659.529 258.809 668.312 271.342 676.558 271.879C684.803 272.416 696.723 269.82 698.068 266.06C699.412 262.3 698.605 248.246 698.336 246.635C698.068 245.024 693.049 242.338 693.049 242.338C693.049 242.338 671.27 239.026 669.388 239.026Z" fill="white" stroke="#263238" stroke-linecap="round" stroke-linejoin="round"/>
<path d="M670.463 251.469C674.407 254.423 690.539 255.139 692.511 253.886C694.482 252.633 694.482 246.009 694.482 246.009L684.445 201.608C684.445 201.608 684.086 195.7 684.086 192.746C684.086 189.792 684.086 182.63 683.459 181.019C682.831 179.408 664.458 176.096 664.458 176.096L661.321 178.96C661.321 178.96 653.345 175.738 648.774 177.08C644.203 178.423 645.458 180.661 648.416 181.019C651.463 181.556 654.42 182.809 656.93 184.6C657.916 185.585 658.902 191.135 661.232 193.462C663.831 195.789 666.609 197.938 669.388 199.997L666.878 242.696C666.878 242.607 666.52 248.515 670.463 251.469Z" fill="white" stroke="#263238" stroke-linecap="round" stroke-linejoin="round"/>
<path d="M663.473 167.591C664.817 167.591 665.444 169.919 664.817 172.783C664.19 175.648 664.459 178.96 662.218 178.692C659.888 178.334 657.916 168.934 657.916 168.934C658.633 167.323 662.218 167.591 663.473 167.591Z" fill="white" stroke="#263238" stroke-linecap="round" stroke-linejoin="round"/>
<path d="M681.487 173.858C683.1 174.842 683.459 181.109 682.114 182.72C680.77 184.331 668.671 181.019 666.43 179.766C664.19 178.513 666.072 169.024 666.072 169.024C668.402 168.576 679.874 172.873 681.487 173.858Z" fill="white" stroke="#263238" stroke-linecap="round" stroke-linejoin="round"/>
<path d="M671 181.288L671.538 170.456" stroke="#263238" stroke-linecap="round" stroke-linejoin="round"/>
<path d="M677.096 182.451L677.633 172.515" stroke="#263238" stroke-linecap="round" stroke-linejoin="round"/>
<path d="M675.481 189.881C672.972 182.72 665.443 179.945 662.844 179.587C660.335 179.229 659.887 177.796 659.887 177.796" stroke="#263238" stroke-linecap="round" stroke-linejoin="round"/>
<path d="M621.977 143.332C621.977 143.332 619.109 148.077 618.481 149.688C617.854 151.299 613.731 151.568 612.477 150.673C611.222 149.688 614.717 138.319 614.717 138.319C613.462 136.171 611.939 134.201 610.236 132.322C607.368 129.189 608.354 123.459 608.354 118.357C608.354 113.254 606.472 115.492 600.736 116.746C595 117.999 585.231 122.117 582.721 122.117C580.212 122.117 576.089 119.252 576.089 119.252C576.089 119.252 569.457 115.761 568.471 113.523C567.485 111.285 566.858 111.285 570.353 111.643C573.848 112.001 572.594 107.794 575.731 103.139C578.867 98.3946 592.849 84.43 602.349 88.5478C611.849 92.6655 613.462 105.287 613.462 105.287C613.462 105.287 617.227 105.646 620.453 105.646C628.071 106.451 634.076 112.538 634.703 120.237C635.689 131.337 625.562 141.452 625.562 141.452L621.977 143.332Z" fill="#263238" stroke="#263238" stroke-linecap="round" stroke-linejoin="round"/>
<path d="M572.773 141.811C572.773 140.557 568.65 133.933 570.263 129.189C571.876 124.444 575.372 129.547 575.372 129.547C575.372 129.547 572.773 143.064 572.773 141.811Z" fill="white" stroke="#263238" stroke-linecap="round" stroke-linejoin="round"/>
<path d="M606.74 109.495C604.5 108.868 602.886 112.001 594.999 116.119C587.112 120.237 575.999 119.252 575.999 119.252C575.999 119.252 568.022 158.55 571.249 167.323C574.475 176.095 586.485 177.169 596.882 173.052C603.514 170.187 609.25 165.443 613.372 159.445C615.434 159.356 617.495 158.998 619.377 158.192C622.156 156.939 626.368 155.059 626.637 146.823C626.995 138.588 621.259 140.199 621.259 140.199C621.259 140.199 615.523 149.688 614.627 148.703C613.641 147.718 618.391 136.976 618.391 136.976C616.24 135.096 614.358 132.859 613.014 130.352C610.773 126.234 610.773 113.254 610.773 113.254C610.773 113.254 608.981 110.121 606.74 109.495Z" fill="white" stroke="#263238" stroke-linecap="round" stroke-linejoin="round"/>
<path d="M592.49 151.657C592.49 151.657 585.858 153.537 584.872 151.031C583.886 148.524 590.608 130.8 590.608 130.8" stroke="#263238" stroke-linecap="round" stroke-linejoin="round"/>
<path d="M577.611 149.062C577.611 149.062 581.734 162.668 590.248 161.415C595.178 160.788 599.659 158.103 602.617 154.164" stroke="#263238" stroke-linecap="round" stroke-linejoin="round"/>
<path d="M604.858 157.028L601.004 152.552" stroke="#263238" stroke-linecap="round" stroke-linejoin="round"/>
<path d="M602.976 146.197C608.025 146.197 612.117 142.109 612.117 137.066C612.117 132.023 608.025 127.935 602.976 127.935C597.927 127.935 593.834 132.023 593.834 137.066C593.834 142.109 597.927 146.197 602.976 146.197Z" stroke="#263238" stroke-linecap="round" stroke-linejoin="round"/>
<path d="M598.584 136.619C601.542 140.11 606.561 138.767 606.561 138.767" stroke="#263238" stroke-linecap="round" stroke-linejoin="round"/>
<path d="M576.537 130.083C580.122 134.201 586.037 132.411 586.037 132.411" stroke="#263238" stroke-linecap="round" stroke-linejoin="round"/>
<path d="M602.438 123.728C608.622 125.876 610.414 128.562 610.414 128.562L602.438 123.728Z" fill="white"/>
<path d="M602.438 123.728C608.622 125.876 610.414 128.562 610.414 128.562" stroke="#263238" stroke-linecap="round" stroke-linejoin="round"/>
<path d="M578.061 120.595C581.556 119.431 585.41 119.61 588.726 121.222" stroke="#263238" stroke-linecap="round" stroke-linejoin="round"/>
<path d="M581.107 139.841C586.155 139.841 590.248 135.753 590.248 130.71C590.248 125.668 586.155 121.58 581.107 121.58C576.058 121.58 571.965 125.668 571.965 130.71C571.965 135.753 576.058 139.841 581.107 139.841Z" stroke="#263238" stroke-linecap="round" stroke-linejoin="round"/>
<path d="M590.25 132.948L594.373 133.933" stroke="#263238" stroke-linecap="round" stroke-linejoin="round"/>
<path d="M620.721 142.169L612.117 139.304" stroke="#263238" stroke-linecap="round" stroke-linejoin="round"/>
<path d="M635.062 575.521L634.345 586.71L633.09 600.943L634.165 605.956L636.944 607.657C636.944 607.657 678.44 609.358 679.515 607.657C680.591 605.956 677.812 602.107 677.812 602.107L663.383 586.084L655.675 571.671L635.062 575.521Z" fill="white" stroke="#263238" stroke-linecap="round" stroke-linejoin="round"/>
<path d="M633.537 602.645L634.254 606.046L637.032 607.747C637.032 607.747 678.529 609.448 679.604 607.747C679.963 606.762 679.873 605.688 679.335 604.793L633.537 602.645Z" fill="white" stroke="#263238" stroke-linecap="round" stroke-linejoin="round"/>
<path d="M564.527 575.521L565.424 578.385L566.499 601.033L565.424 606.046L562.645 607.747C562.645 607.747 521.149 609.447 520.074 607.747C518.998 606.046 521.776 602.197 521.776 602.197L536.206 586.173L541.046 575.61H564.527V575.521Z" fill="white" stroke="#263238" stroke-linecap="round" stroke-linejoin="round"/>
<path d="M562.556 607.657L565.334 605.956L566.32 601.48L520.791 603.539C520.074 604.793 519.267 606.672 519.984 607.657C521.06 609.358 562.556 607.657 562.556 607.657Z" fill="white" stroke="#263238" stroke-linecap="round" stroke-linejoin="round"/>
<g filter="url(#filter0_d_1103_2754)">
<path d="M484 304.563L434.964 337.059V385.729C434.964 390.852 430.806 395 425.671 395H10.2936C5.15765 395 1 390.852 1 385.729V302.271C1 297.148 5.15765 293 10.2936 293H425.548C430.684 293 434.842 297.148 434.842 302.271V322.786L484 304.563Z" fill="white"/>
<path d="M484.276 304.98C484.488 304.84 484.561 304.563 484.446 304.337C484.331 304.11 484.064 304.006 483.826 304.094L435.342 322.068V302.271C435.342 296.87 430.959 292.5 425.548 292.5H10.2936C4.88266 292.5 0.5 296.87 0.5 302.271V385.729C0.5 391.13 4.88266 395.5 10.2936 395.5H425.671C431.081 395.5 435.464 391.13 435.464 385.729V337.327L484.276 304.98Z" stroke="#333E63" stroke-linecap="round" stroke-linejoin="round"/>
</g>
<path d="M42.016 324.78C43.2107 325.135 44.1253 325.713 44.76 326.516C45.3947 327.319 45.712 328.308 45.712 329.484C45.712 331.22 45.0493 332.573 43.724 333.544C42.4173 334.515 40.5413 335 38.096 335H28.436V315.4H37.564C39.8413 315.4 41.6147 315.839 42.884 316.716C44.1533 317.593 44.788 318.844 44.788 320.468C44.788 321.439 44.5453 322.297 44.06 323.044C43.5747 323.772 42.8933 324.351 42.016 324.78ZM32.944 323.52H37.172C38.1613 323.52 38.908 323.324 39.412 322.932C39.916 322.521 40.168 321.924 40.168 321.14C40.168 320.375 39.9067 319.787 39.384 319.376C38.88 318.965 38.1427 318.76 37.172 318.76H32.944V323.52ZM37.928 331.64C40.056 331.64 41.12 330.8 41.12 329.12C41.12 327.496 40.056 326.684 37.928 326.684H32.944V331.64H37.928ZM63.6633 335V325.984L59.1553 333.544H57.3073L52.9113 325.956V335H48.9633V319.936H53.5273L58.3433 328.644L63.4673 319.936H67.5553L67.6113 335H63.6633ZM86.4393 327.524C86.4393 327.58 86.4113 327.972 86.3553 328.7H74.9593C75.1646 329.633 75.65 330.371 76.4153 330.912C77.1806 331.453 78.1326 331.724 79.2713 331.724C80.0553 331.724 80.746 331.612 81.3433 331.388C81.9593 331.145 82.5286 330.772 83.0513 330.268L85.3753 332.788C83.9566 334.412 81.8846 335.224 79.1593 335.224C77.4606 335.224 75.958 334.897 74.6513 334.244C73.3446 333.572 72.3366 332.648 71.6273 331.472C70.918 330.296 70.5633 328.961 70.5633 327.468C70.5633 325.993 70.9086 324.668 71.5993 323.492C72.3086 322.297 73.27 321.373 74.4833 320.72C75.7153 320.048 77.0873 319.712 78.5993 319.712C80.074 319.712 81.4086 320.029 82.6033 320.664C83.798 321.299 84.7313 322.213 85.4033 323.408C86.094 324.584 86.4393 325.956 86.4393 327.524ZM78.6273 323.016C77.638 323.016 76.8073 323.296 76.1353 323.856C75.4633 324.416 75.0526 325.181 74.9033 326.152H82.3233C82.174 325.2 81.7633 324.444 81.0913 323.884C80.4193 323.305 79.598 323.016 78.6273 323.016ZM96.9555 335.224C95.3502 335.224 93.9035 334.897 92.6155 334.244C91.3462 333.572 90.3475 332.648 89.6195 331.472C88.9102 330.296 88.5555 328.961 88.5555 327.468C88.5555 325.975 88.9102 324.64 89.6195 323.464C90.3475 322.288 91.3462 321.373 92.6155 320.72C93.9035 320.048 95.3502 319.712 96.9555 319.712C98.5422 319.712 99.9235 320.048 101.1 320.72C102.294 321.373 103.162 322.316 103.704 323.548L100.316 325.368C99.5315 323.987 98.4022 323.296 96.9275 323.296C95.7888 323.296 94.8462 323.669 94.0995 324.416C93.3528 325.163 92.9795 326.18 92.9795 327.468C92.9795 328.756 93.3528 329.773 94.0995 330.52C94.8462 331.267 95.7888 331.64 96.9275 331.64C98.4208 331.64 99.5502 330.949 100.316 329.568L103.704 331.416C103.162 332.611 102.294 333.544 101.1 334.216C99.9235 334.888 98.5422 335.224 96.9555 335.224ZM118.959 323.52H113.863V335H109.523V323.52H104.427V319.936H118.959V323.52ZM135.303 327.524C135.303 327.58 135.275 327.972 135.219 328.7H123.823C124.028 329.633 124.513 330.371 125.279 330.912C126.044 331.453 126.996 331.724 128.135 331.724C128.919 331.724 129.609 331.612 130.207 331.388C130.823 331.145 131.392 330.772 131.915 330.268L134.239 332.788C132.82 334.412 130.748 335.224 128.023 335.224C126.324 335.224 124.821 334.897 123.515 334.244C122.208 333.572 121.2 332.648 120.491 331.472C119.781 330.296 119.427 328.961 119.427 327.468C119.427 325.993 119.772 324.668 120.463 323.492C121.172 322.297 122.133 321.373 123.347 320.72C124.579 320.048 125.951 319.712 127.463 319.712C128.937 319.712 130.272 320.029 131.467 320.664C132.661 321.299 133.595 322.213 134.267 323.408C134.957 324.584 135.303 325.956 135.303 327.524ZM127.491 323.016C126.501 323.016 125.671 323.296 124.999 323.856C124.327 324.416 123.916 325.181 123.767 326.152H131.187C131.037 325.2 130.627 324.444 129.955 323.884C129.283 323.305 128.461 323.016 127.491 323.016ZM153.748 335.224C152.143 335.224 150.696 334.897 149.408 334.244C148.139 333.572 147.14 332.648 146.412 331.472C145.703 330.296 145.348 328.961 145.348 327.468C145.348 325.975 145.703 324.64 146.412 323.464C147.14 322.288 148.139 321.373 149.408 320.72C150.696 320.048 152.143 319.712 153.748 319.712C155.335 319.712 156.716 320.048 157.892 320.72C159.087 321.373 159.955 322.316 160.496 323.548L157.108 325.368C156.324 323.987 155.195 323.296 153.72 323.296C152.582 323.296 151.639 323.669 150.892 324.416C150.146 325.163 149.772 326.18 149.772 327.468C149.772 328.756 150.146 329.773 150.892 330.52C151.639 331.267 152.582 331.64 153.72 331.64C155.214 331.64 156.343 330.949 157.108 329.568L160.496 331.416C159.955 332.611 159.087 333.544 157.892 334.216C156.716 334.888 155.335 335.224 153.748 335.224ZM171.08 319.936H175.42V325.816H181.972V319.936H186.34V335H181.972V329.372H175.42V335H171.08V319.936ZM196.374 319.712C198.707 319.712 200.499 320.272 201.75 321.392C203.001 322.493 203.626 324.164 203.626 326.404V335H199.538V333.124C198.717 334.524 197.186 335.224 194.946 335.224C193.789 335.224 192.781 335.028 191.922 334.636C191.082 334.244 190.438 333.703 189.99 333.012C189.542 332.321 189.318 331.537 189.318 330.66C189.318 329.26 189.841 328.159 190.886 327.356C191.95 326.553 193.583 326.152 195.786 326.152H199.258C199.258 325.2 198.969 324.472 198.39 323.968C197.811 323.445 196.943 323.184 195.786 323.184C194.983 323.184 194.19 323.315 193.406 323.576C192.641 323.819 191.987 324.155 191.446 324.584L189.878 321.532C190.699 320.953 191.679 320.505 192.818 320.188C193.975 319.871 195.161 319.712 196.374 319.712ZM196.038 332.284C196.785 332.284 197.447 332.116 198.026 331.78C198.605 331.425 199.015 330.912 199.258 330.24V328.7H196.262C194.47 328.7 193.574 329.288 193.574 330.464C193.574 331.024 193.789 331.472 194.218 331.808C194.666 332.125 195.273 332.284 196.038 332.284ZM222.12 335V325.984L217.612 333.544H215.764L211.368 325.956V335H207.42V319.936H211.984L216.8 328.644L221.924 319.936H226.012L226.068 335H222.12ZM230.252 319.936H234.592V328.896L241.928 319.936H245.932V335H241.592V326.04L234.284 335H230.252V319.936Z" fill="#333E63"/>
<path d="M273.153 319.936L266.349 335.924C265.658 337.66 264.8 338.883 263.773 339.592C262.765 340.301 261.542 340.656 260.105 340.656C259.321 340.656 258.546 340.535 257.781 340.292C257.016 340.049 256.39 339.713 255.905 339.284L257.501 336.176C257.837 336.475 258.22 336.708 258.649 336.876C259.097 337.044 259.536 337.128 259.965 337.128C260.562 337.128 261.048 336.979 261.421 336.68C261.794 336.4 262.13 335.924 262.429 335.252L262.485 335.112L255.961 319.936H260.469L264.697 330.156L268.953 319.936H273.153ZM289.337 329.288H287.237V335H282.925V329.288H280.825L277.633 335H272.481L277.213 327.216L272.817 319.936H277.437L280.769 325.788H282.925V319.936H287.237V325.788H289.365L292.725 319.936H297.345L292.949 327.216L297.709 335H292.529L289.337 329.288ZM314.158 327.524C314.158 327.58 314.13 327.972 314.074 328.7H302.678C302.883 329.633 303.369 330.371 304.134 330.912C304.899 331.453 305.851 331.724 306.99 331.724C307.774 331.724 308.465 331.612 309.062 331.388C309.678 331.145 310.247 330.772 310.77 330.268L313.094 332.788C311.675 334.412 309.603 335.224 306.878 335.224C305.179 335.224 303.677 334.897 302.37 334.244C301.063 333.572 300.055 332.648 299.346 331.472C298.637 330.296 298.282 328.961 298.282 327.468C298.282 325.993 298.627 324.668 299.318 323.492C300.027 322.297 300.989 321.373 302.202 320.72C303.434 320.048 304.806 319.712 306.318 319.712C307.793 319.712 309.127 320.029 310.322 320.664C311.517 321.299 312.45 322.213 313.122 323.408C313.813 324.584 314.158 325.956 314.158 327.524ZM306.346 323.016C305.357 323.016 304.526 323.296 303.854 323.856C303.182 324.416 302.771 325.181 302.622 326.152H310.042C309.893 325.2 309.482 324.444 308.81 323.884C308.138 323.305 307.317 323.016 306.346 323.016ZM334.144 320.972C335.581 320.972 336.841 321.271 337.924 321.868C339.007 322.447 339.837 323.268 340.416 324.332C341.013 325.396 341.312 326.628 341.312 328.028C341.312 329.465 340.957 330.744 340.248 331.864C339.557 332.965 338.587 333.824 337.336 334.44C336.085 335.037 334.667 335.336 333.08 335.336C330.448 335.336 328.376 334.496 326.864 332.816C325.371 331.117 324.624 328.635 324.624 325.368C324.624 322.344 325.277 319.936 326.584 318.144C327.909 316.333 329.935 315.148 332.66 314.588L339.828 313.16L340.416 316.912L334.088 318.172C332.371 318.508 331.092 319.068 330.252 319.852C329.431 320.636 328.945 321.747 328.796 323.184C329.449 322.475 330.233 321.933 331.148 321.56C332.063 321.168 333.061 320.972 334.144 320.972ZM333.108 331.948C334.228 331.948 335.124 331.584 335.796 330.856C336.487 330.128 336.832 329.204 336.832 328.084C336.832 326.945 336.487 326.04 335.796 325.368C335.124 324.696 334.228 324.36 333.108 324.36C331.969 324.36 331.055 324.696 330.364 325.368C329.673 326.04 329.328 326.945 329.328 328.084C329.328 329.223 329.683 330.156 330.392 330.884C331.101 331.593 332.007 331.948 333.108 331.948ZM351.332 335.224C349.745 335.224 348.317 334.897 347.048 334.244C345.797 333.572 344.817 332.648 344.108 331.472C343.398 330.296 343.044 328.961 343.044 327.468C343.044 325.975 343.398 324.64 344.108 323.464C344.817 322.288 345.797 321.373 347.048 320.72C348.317 320.048 349.745 319.712 351.332 319.712C352.918 319.712 354.337 320.048 355.588 320.72C356.838 321.373 357.818 322.288 358.528 323.464C359.237 324.64 359.592 325.975 359.592 327.468C359.592 328.961 359.237 330.296 358.528 331.472C357.818 332.648 356.838 333.572 355.588 334.244C354.337 334.897 352.918 335.224 351.332 335.224ZM351.332 331.64C352.452 331.64 353.366 331.267 354.076 330.52C354.804 329.755 355.168 328.737 355.168 327.468C355.168 326.199 354.804 325.191 354.076 324.444C353.366 323.679 352.452 323.296 351.332 323.296C350.212 323.296 349.288 323.679 348.56 324.444C347.832 325.191 347.468 326.199 347.468 327.468C347.468 328.737 347.832 329.755 348.56 330.52C349.288 331.267 350.212 331.64 351.332 331.64ZM376.825 319.936V335H372.457V323.52H367.697L367.557 326.18C367.483 328.159 367.296 329.801 366.997 331.108C366.699 332.415 366.213 333.441 365.541 334.188C364.869 334.935 363.936 335.308 362.741 335.308C362.107 335.308 361.351 335.196 360.473 334.972L360.697 331.388C360.996 331.425 361.211 331.444 361.341 331.444C361.995 331.444 362.48 331.211 362.797 330.744C363.133 330.259 363.357 329.652 363.469 328.924C363.581 328.177 363.665 327.197 363.721 325.984L363.945 319.936H376.825ZM395.67 327.524C395.67 327.58 395.642 327.972 395.586 328.7H384.19C384.395 329.633 384.88 330.371 385.646 330.912C386.411 331.453 387.363 331.724 388.502 331.724C389.286 331.724 389.976 331.612 390.574 331.388C391.19 331.145 391.759 330.772 392.282 330.268L394.606 332.788C393.187 334.412 391.115 335.224 388.39 335.224C386.691 335.224 385.188 334.897 383.882 334.244C382.575 333.572 381.567 332.648 380.858 331.472C380.148 330.296 379.794 328.961 379.794 327.468C379.794 325.993 380.139 324.668 380.83 323.492C381.539 322.297 382.5 321.373 383.714 320.72C384.946 320.048 386.318 319.712 387.83 319.712C389.304 319.712 390.639 320.029 391.834 320.664C393.028 321.299 393.962 322.213 394.634 323.408C395.324 324.584 395.67 325.956 395.67 327.524ZM387.858 323.016C386.868 323.016 386.038 323.296 385.366 323.856C384.694 324.416 384.283 325.181 384.134 326.152H391.554C391.404 325.2 390.994 324.444 390.322 323.884C389.65 323.305 388.828 323.016 387.858 323.016ZM413.662 327.524C413.662 327.58 413.634 327.972 413.578 328.7H402.182C402.387 329.633 402.873 330.371 403.638 330.912C404.403 331.453 405.355 331.724 406.494 331.724C407.278 331.724 407.969 331.612 408.566 331.388C409.182 331.145 409.751 330.772 410.274 330.268L412.598 332.788C411.179 334.412 409.107 335.224 406.382 335.224C404.683 335.224 403.181 334.897 401.874 334.244C400.567 333.572 399.559 332.648 398.85 331.472C398.141 330.296 397.786 328.961 397.786 327.468C397.786 325.993 398.131 324.668 398.822 323.492C399.531 322.297 400.493 321.373 401.706 320.72C402.938 320.048 404.31 319.712 405.822 319.712C407.297 319.712 408.631 320.029 409.826 320.664C411.021 321.299 411.954 322.213 412.626 323.408C413.317 324.584 413.662 325.956 413.662 327.524ZM405.85 323.016C404.861 323.016 404.03 323.296 403.358 323.856C402.686 324.416 402.275 325.181 402.126 326.152H409.546C409.397 325.2 408.986 324.444 408.314 323.884C407.642 323.305 406.821 323.016 405.85 323.016ZM36.248 357.38C37.9653 357.66 39.2813 358.304 40.196 359.312C41.1107 360.301 41.568 361.533 41.568 363.008C41.568 364.147 41.2693 365.201 40.672 366.172C40.0747 367.124 39.16 367.889 37.928 368.468C36.7147 369.047 35.2213 369.336 33.448 369.336C32.0667 369.336 30.704 369.159 29.36 368.804C28.0347 368.431 26.9053 367.908 25.972 367.236L27.736 363.764C28.4827 364.324 29.3413 364.763 30.312 365.08C31.3013 365.379 32.3093 365.528 33.336 365.528C34.4747 365.528 35.3707 365.313 36.024 364.884C36.6773 364.436 37.004 363.811 37.004 363.008C37.004 361.403 35.7813 360.6 33.336 360.6H31.264V357.604L35.296 353.04H26.952V349.4H40.672V352.34L36.248 357.38ZM52.0623 369.336C50.4383 369.336 48.9916 368.935 47.7223 368.132C46.453 367.329 45.4543 366.172 44.7263 364.66C44.017 363.129 43.6623 361.309 43.6623 359.2C43.6623 357.091 44.017 355.28 44.7263 353.768C45.4543 352.237 46.453 351.071 47.7223 350.268C48.9916 349.465 50.4383 349.064 52.0623 349.064C53.6863 349.064 55.133 349.465 56.4023 350.268C57.6716 351.071 58.661 352.237 59.3703 353.768C60.0983 355.28 60.4623 357.091 60.4623 359.2C60.4623 361.309 60.0983 363.129 59.3703 364.66C58.661 366.172 57.6716 367.329 56.4023 368.132C55.133 368.935 53.6863 369.336 52.0623 369.336ZM52.0623 365.5C53.257 365.5 54.1903 364.987 54.8623 363.96C55.553 362.933 55.8983 361.347 55.8983 359.2C55.8983 357.053 55.553 355.467 54.8623 354.44C54.1903 353.413 53.257 352.9 52.0623 352.9C50.8863 352.9 49.953 353.413 49.2623 354.44C48.5903 355.467 48.2543 357.053 48.2543 359.2C48.2543 361.347 48.5903 362.933 49.2623 363.96C49.953 364.987 50.8863 365.5 52.0623 365.5ZM71.0662 369.336C69.4422 369.336 67.9956 368.935 66.7262 368.132C65.4569 367.329 64.4582 366.172 63.7302 364.66C63.0209 363.129 62.6662 361.309 62.6662 359.2C62.6662 357.091 63.0209 355.28 63.7302 353.768C64.4582 352.237 65.4569 351.071 66.7262 350.268C67.9956 349.465 69.4422 349.064 71.0662 349.064C72.6902 349.064 74.1369 349.465 75.4062 350.268C76.6756 351.071 77.6649 352.237 78.3742 353.768C79.1022 355.28 79.4662 357.091 79.4662 359.2C79.4662 361.309 79.1022 363.129 78.3742 364.66C77.6649 366.172 76.6756 367.329 75.4062 368.132C74.1369 368.935 72.6902 369.336 71.0662 369.336ZM71.0662 365.5C72.2609 365.5 73.1942 364.987 73.8662 363.96C74.5569 362.933 74.9022 361.347 74.9022 359.2C74.9022 357.053 74.5569 355.467 73.8662 354.44C73.1942 353.413 72.2609 352.9 71.0662 352.9C69.8902 352.9 68.9569 353.413 68.2662 354.44C67.5942 355.467 67.2582 357.053 67.2582 359.2C67.2582 361.347 67.5942 362.933 68.2662 363.96C68.9569 364.987 69.8902 365.5 71.0662 365.5ZM90.0701 369.336C88.4461 369.336 86.9995 368.935 85.7301 368.132C84.4608 367.329 83.4621 366.172 82.7341 364.66C82.0248 363.129 81.6701 361.309 81.6701 359.2C81.6701 357.091 82.0248 355.28 82.7341 353.768C83.4621 352.237 84.4608 351.071 85.7301 350.268C86.9995 349.465 88.4461 349.064 90.0701 349.064C91.6941 349.064 93.1408 349.465 94.4101 350.268C95.6795 351.071 96.6688 352.237 97.3781 353.768C98.1061 355.28 98.4701 357.091 98.4701 359.2C98.4701 361.309 98.1061 363.129 97.3781 364.66C96.6688 366.172 95.6795 367.329 94.4101 368.132C93.1408 368.935 91.6941 369.336 90.0701 369.336ZM90.0701 365.5C91.2648 365.5 92.1981 364.987 92.8701 363.96C93.5608 362.933 93.9061 361.347 93.9061 359.2C93.9061 357.053 93.5608 355.467 92.8701 354.44C92.1981 353.413 91.2648 352.9 90.0701 352.9C88.8941 352.9 87.9608 353.413 87.2701 354.44C86.5981 355.467 86.2621 357.053 86.2621 359.2C86.2621 361.347 86.5981 362.933 87.2701 363.96C87.9608 364.987 88.8941 365.5 90.0701 365.5ZM109.612 353.936H113.952V362.896L121.288 353.936H125.292V369H120.952V360.04L113.644 369H109.612V353.936ZM129.491 353.936H133.831V359.816H140.383V353.936H144.751V369H140.383V363.372H133.831V369H129.491V353.936ZM160.44 361.132C162.213 361.729 163.1 362.924 163.1 364.716C163.1 366.079 162.587 367.133 161.56 367.88C160.533 368.627 159.003 369 156.968 369H148.932V353.936H156.632C158.517 353.936 159.992 354.281 161.056 354.972C162.12 355.644 162.652 356.596 162.652 357.828C162.652 358.575 162.456 359.237 162.064 359.816C161.691 360.376 161.149 360.815 160.44 361.132ZM152.936 360.124H156.24C157.771 360.124 158.536 359.583 158.536 358.5C158.536 357.436 157.771 356.904 156.24 356.904H152.936V360.124ZM156.604 366.032C158.209 366.032 159.012 365.481 159.012 364.38C159.012 363.801 158.825 363.381 158.452 363.12C158.079 362.84 157.491 362.7 156.688 362.7H152.936V366.032H156.604ZM180.994 361.524C180.994 361.58 180.966 361.972 180.91 362.7H169.514C169.719 363.633 170.205 364.371 170.97 364.912C171.735 365.453 172.687 365.724 173.826 365.724C174.61 365.724 175.301 365.612 175.898 365.388C176.514 365.145 177.083 364.772 177.606 364.268L179.93 366.788C178.511 368.412 176.439 369.224 173.714 369.224C172.015 369.224 170.513 368.897 169.206 368.244C167.899 367.572 166.891 366.648 166.182 365.472C165.473 364.296 165.118 362.961 165.118 361.468C165.118 359.993 165.463 358.668 166.154 357.492C166.863 356.297 167.825 355.373 169.038 354.72C170.27 354.048 171.642 353.712 173.154 353.712C174.629 353.712 175.963 354.029 177.158 354.664C178.353 355.299 179.286 356.213 179.958 357.408C180.649 358.584 180.994 359.956 180.994 361.524ZM173.182 357.016C172.193 357.016 171.362 357.296 170.69 357.856C170.018 358.416 169.607 359.181 169.458 360.152H176.878C176.729 359.2 176.318 358.444 175.646 357.884C174.974 357.305 174.153 357.016 173.182 357.016ZM191.51 369.224C189.905 369.224 188.458 368.897 187.17 368.244C185.901 367.572 184.902 366.648 184.174 365.472C183.465 364.296 183.11 362.961 183.11 361.468C183.11 359.975 183.465 358.64 184.174 357.464C184.902 356.288 185.901 355.373 187.17 354.72C188.458 354.048 189.905 353.712 191.51 353.712C193.097 353.712 194.478 354.048 195.654 354.72C196.849 355.373 197.717 356.316 198.258 357.548L194.87 359.368C194.086 357.987 192.957 357.296 191.482 357.296C190.344 357.296 189.401 357.669 188.654 358.416C187.908 359.163 187.534 360.18 187.534 361.468C187.534 362.756 187.908 363.773 188.654 364.52C189.401 365.267 190.344 365.64 191.482 365.64C192.976 365.64 194.105 364.949 194.87 363.568L198.258 365.416C197.717 366.611 196.849 367.544 195.654 368.216C194.478 368.888 193.097 369.224 191.51 369.224ZM213.514 357.52H208.418V369H204.078V357.52H198.982V353.936H213.514V357.52ZM222.269 369.224C220.683 369.224 219.255 368.897 217.985 368.244C216.735 367.572 215.755 366.648 215.045 365.472C214.336 364.296 213.981 362.961 213.981 361.468C213.981 359.975 214.336 358.64 215.045 357.464C215.755 356.288 216.735 355.373 217.985 354.72C219.255 354.048 220.683 353.712 222.269 353.712C223.856 353.712 225.275 354.048 226.525 354.72C227.776 355.373 228.756 356.288 229.465 357.464C230.175 358.64 230.529 359.975 230.529 361.468C230.529 362.961 230.175 364.296 229.465 365.472C228.756 366.648 227.776 367.572 226.525 368.244C225.275 368.897 223.856 369.224 222.269 369.224ZM222.269 365.64C223.389 365.64 224.304 365.267 225.013 364.52C225.741 363.755 226.105 362.737 226.105 361.468C226.105 360.199 225.741 359.191 225.013 358.444C224.304 357.679 223.389 357.296 222.269 357.296C221.149 357.296 220.225 357.679 219.497 358.444C218.769 359.191 218.405 360.199 218.405 361.468C218.405 362.737 218.769 363.755 219.497 364.52C220.225 365.267 221.149 365.64 222.269 365.64ZM242.41 353.712C243.81 353.712 245.079 354.039 246.218 354.692C247.375 355.327 248.28 356.232 248.934 357.408C249.587 358.565 249.914 359.919 249.914 361.468C249.914 363.017 249.587 364.38 248.934 365.556C248.28 366.713 247.375 367.619 246.218 368.272C245.079 368.907 243.81 369.224 242.41 369.224C240.487 369.224 238.975 368.617 237.874 367.404V374.432H233.506V353.936H237.678V355.672C238.76 354.365 240.338 353.712 242.41 353.712ZM241.654 365.64C242.774 365.64 243.688 365.267 244.398 364.52C245.126 363.755 245.49 362.737 245.49 361.468C245.49 360.199 245.126 359.191 244.398 358.444C243.688 357.679 242.774 357.296 241.654 357.296C240.534 357.296 239.61 357.679 238.882 358.444C238.172 359.191 237.818 360.199 237.818 361.468C237.818 362.737 238.172 363.755 238.882 364.52C239.61 365.267 240.534 365.64 241.654 365.64ZM260.031 369.224C258.444 369.224 257.016 368.897 255.747 368.244C254.496 367.572 253.516 366.648 252.807 365.472C252.098 364.296 251.743 362.961 251.743 361.468C251.743 359.975 252.098 358.64 252.807 357.464C253.516 356.288 254.496 355.373 255.747 354.72C257.016 354.048 258.444 353.712 260.031 353.712C261.618 353.712 263.036 354.048 264.287 354.72C265.538 355.373 266.518 356.288 267.227 357.464C267.936 358.64 268.291 359.975 268.291 361.468C268.291 362.961 267.936 364.296 267.227 365.472C266.518 366.648 265.538 367.572 264.287 368.244C263.036 368.897 261.618 369.224 260.031 369.224ZM260.031 365.64C261.151 365.64 262.066 365.267 262.775 364.52C263.503 363.755 263.867 362.737 263.867 361.468C263.867 360.199 263.503 359.191 262.775 358.444C262.066 357.679 261.151 357.296 260.031 357.296C258.911 357.296 257.987 357.679 257.259 358.444C256.531 359.191 256.167 360.199 256.167 361.468C256.167 362.737 256.531 363.755 257.259 364.52C257.987 365.267 258.911 365.64 260.031 365.64ZM282.803 361.132C284.577 361.729 285.463 362.924 285.463 364.716C285.463 366.079 284.95 367.133 283.923 367.88C282.897 368.627 281.366 369 279.331 369H271.295V353.936H278.995C280.881 353.936 282.355 354.281 283.419 354.972C284.483 355.644 285.015 356.596 285.015 357.828C285.015 358.575 284.819 359.237 284.427 359.816C284.054 360.376 283.513 360.815 282.803 361.132ZM275.299 360.124H278.603C280.134 360.124 280.899 359.583 280.899 358.5C280.899 357.436 280.134 356.904 278.603 356.904H275.299V360.124ZM278.967 366.032C280.573 366.032 281.375 365.481 281.375 364.38C281.375 363.801 281.189 363.381 280.815 363.12C280.442 362.84 279.854 362.7 279.051 362.7H275.299V366.032H278.967ZM288.069 349.4H293.277L292.409 362.196H288.937L288.069 349.4ZM290.673 369.224C289.908 369.224 289.264 368.981 288.741 368.496C288.237 367.992 287.985 367.385 287.985 366.676C287.985 365.967 288.237 365.379 288.741 364.912C289.245 364.427 289.889 364.184 290.673 364.184C291.457 364.184 292.101 364.427 292.605 364.912C293.109 365.379 293.361 365.967 293.361 366.676C293.361 367.385 293.1 367.992 292.577 368.496C292.073 368.981 291.439 369.224 290.673 369.224Z" fill="#FF5745"/>
<defs>
<filter id="filter0_d_1103_2754" x="0" y="292" width="490" height="109" filterUnits="userSpaceOnUse" color-interpolation-filters="sRGB">
<feFlood flood-opacity="0" result="BackgroundImageFix"/>
<feColorMatrix in="SourceAlpha" type="matrix" values="0 0 0 0 0 0 0 0 0 0 0 0 0 0 0 0 0 0 127 0" result="hardAlpha"/>
<feOffset dx="5" dy="5"/>
<feComposite in2="hardAlpha" operator="out"/>
<feColorMatrix type="matrix" values="0 0 0 0 0.2 0 0 0 0 0.243137 0 0 0 0 0.388235 0 0 0 1 0"/>
<feBlend mode="normal" in2="BackgroundImageFix" result="effect1_dropShadow_1103_2754"/>
<feBlend mode="normal" in="SourceGraphic" in2="effect1_dropShadow_1103_2754" result="shape"/>
</filter>
</defs>
</svg>
