<svg width="40" height="40" viewBox="0 0 40 40" fill="none" xmlns="http://www.w3.org/2000/svg">
<path d="M33.333 11.6667H6.66634C4.82539 11.6667 3.33301 13.1591 3.33301 15.0001V31.6667C3.33301 33.5077 4.82539 35.0001 6.66634 35.0001H33.333C35.174 35.0001 36.6663 33.5077 36.6663 31.6667V15.0001C36.6663 13.1591 35.174 11.6667 33.333 11.6667Z" stroke="white" stroke-width="1.83333" stroke-linecap="round" stroke-linejoin="round"/>
<path d="M26.6663 35V8.33333C26.6663 7.44928 26.3152 6.60143 25.69 5.97631C25.0649 5.35119 24.2171 5 23.333 5H16.6663C15.7823 5 14.9344 5.35119 14.3093 5.97631C13.6842 6.60143 13.333 7.44928 13.333 8.33333V35" stroke="white" stroke-width="1.83333" stroke-linecap="round" stroke-linejoin="round"/>
</svg>
