<svg width="40" height="40" viewBox="0 0 40 40" fill="none" xmlns="http://www.w3.org/2000/svg">
<path d="M37.567 10.7001C37.369 9.9091 36.9658 9.18437 36.3981 8.59909C35.8303 8.01382 35.1182 7.58872 34.3336 7.36675C31.467 6.66675 20.0003 6.66675 20.0003 6.66675C20.0003 6.66675 8.53363 6.66675 5.66697 7.43341C4.88238 7.65539 4.17026 8.08048 3.60255 8.66576C3.03483 9.25103 2.63162 9.97576 2.43364 10.7667C1.90899 13.676 1.65236 16.6273 1.66697 19.5834C1.64827 22.5618 1.90491 25.5356 2.43364 28.4667C2.6519 29.2332 3.06415 29.9303 3.63054 30.4909C4.19694 31.0514 4.89834 31.4564 5.66697 31.6667C8.53363 32.4334 20.0003 32.4334 20.0003 32.4334C20.0003 32.4334 31.467 32.4334 34.3336 31.6667C35.1182 31.4448 35.8303 31.0197 36.3981 30.4344C36.9658 29.8491 37.369 29.1244 37.567 28.3334C38.0876 25.4461 38.3442 22.5173 38.3336 19.5834C38.3523 16.605 38.0957 13.6312 37.567 10.7001V10.7001Z" stroke="white" stroke-width="1.83333" stroke-linecap="round" stroke-linejoin="round"/>
<path d="M16.25 25.0333L25.8333 19.5833L16.25 14.1333V25.0333Z" stroke="white" stroke-width="1.83333" stroke-linecap="round" stroke-linejoin="round"/>
</svg>
