<svg width="32" height="32" viewBox="0 0 32 32" fill="none" xmlns="http://www.w3.org/2000/svg">
<path d="M31 15.1667C31.0057 17.3665 30.4918 19.5365 29.5 21.5C28.3241 23.853 26.5162 25.832 24.2791 27.2155C22.0419 28.599 19.4637 29.3324 16.8333 29.3334C14.6336 29.3391 12.4635 28.8252 10.5 27.8334L1 31L4.16667 21.5C3.17489 19.5365 2.66093 17.3665 2.66667 15.1667C2.66768 12.5363 3.40102 9.95813 4.78453 7.72096C6.16804 5.4838 8.14709 3.67599 10.5 2.50005C12.4635 1.50827 14.6336 0.994312 16.8333 1.00005H17.6667C21.1406 1.1917 24.4217 2.65798 26.8819 5.11815C29.3421 7.57831 30.8083 10.8595 31 14.3334V15.1667Z" stroke="white" stroke-width="1.83333" stroke-linecap="round" stroke-linejoin="round"/>
</svg>
