<svg width="32" height="36" viewBox="0 0 32 36" fill="none" xmlns="http://www.w3.org/2000/svg">
<path d="M23.5 13.6667L8.5 5.01672" stroke="white" stroke-width="1.83333" stroke-linecap="round" stroke-linejoin="round"/>
<path d="M31 24.6667V11.3334C30.9994 10.7488 30.8451 10.1747 30.5526 9.66865C30.26 9.16257 29.8396 8.74231 29.3333 8.45004L17.6667 1.78337C17.1599 1.49081 16.5851 1.33679 16 1.33679C15.4149 1.33679 14.8401 1.49081 14.3333 1.78337L2.66667 8.45004C2.16044 8.74231 1.73997 9.16257 1.44744 9.66865C1.1549 10.1747 1.0006 10.7488 1 11.3334V24.6667C1.0006 25.2513 1.1549 25.8254 1.44744 26.3314C1.73997 26.8375 2.16044 27.2578 2.66667 27.55L14.3333 34.2167C14.8401 34.5093 15.4149 34.6633 16 34.6633C16.5851 34.6633 17.1599 34.5093 17.6667 34.2167L29.3333 27.55C29.8396 27.2578 30.26 26.8375 30.5526 26.3314C30.8451 25.8254 30.9994 25.2513 31 24.6667Z" stroke="white" stroke-width="1.83333" stroke-linecap="round" stroke-linejoin="round"/>
<path d="M1.4502 9.59998L16.0002 18.0166L30.5502 9.59998" stroke="white" stroke-width="1.83333" stroke-linecap="round" stroke-linejoin="round"/>
<path d="M16 34.8V18" stroke="white" stroke-width="1.83333" stroke-linecap="round" stroke-linejoin="round"/>
</svg>
