<svg width="36" height="35" viewBox="0 0 36 35" fill="none" xmlns="http://www.w3.org/2000/svg">
<path fill-rule="evenodd" clip-rule="evenodd" d="M7.6108 0.0920704C7.04743 0.228738 6.51315 0.527256 6.04005 0.969833C5.00673 1.93643 4.6753 3.46611 5.21505 4.77762C5.30197 4.98895 6.0098 6.15381 6.78799 7.36622C7.56618 8.57864 8.20291 9.58383 8.20291 9.59998C8.20291 9.61606 7.27136 10.362 6.13272 11.2576C4.99407 12.1532 3.77447 13.1652 3.42244 13.5065C1.85689 15.0241 0.784907 16.9448 0.268692 19.157C0.017737 20.2324 -0.0220245 21.0719 0.00911399 24.6319C0.0339563 27.4711 0.0570193 28.0951 0.15153 28.4865C0.559546 30.1759 1.26492 31.4618 2.41396 32.6108C3.36126 33.5581 4.43324 34.2211 5.66023 34.6184C6.85301 35.0047 6.76753 35 12.622 35H18.0335L18.3109 34.8164C18.7381 34.5337 18.9132 34.1992 18.9132 33.6655C18.9132 33.1319 18.7381 32.7973 18.311 32.5146L18.0337 32.331L12.6563 32.2944C6.85793 32.2549 7.1687 32.2743 6.13463 31.8874C4.92187 31.4337 3.59168 30.1033 3.13685 28.8891C2.75614 27.8729 2.76223 27.9513 2.76223 24.0844C2.76223 20.8305 2.77428 20.4366 2.89 19.9098C3.24129 18.3102 3.94987 16.9279 5.0235 15.7477C5.24188 15.5077 6.68322 14.316 8.26409 13.0683C9.84093 11.8239 11.1651 10.7291 11.2318 10.6148C11.3889 10.3453 11.4508 9.87167 11.3681 9.57212C11.3319 9.44093 10.5237 8.11779 9.57198 6.63176C8.6203 5.14581 7.79825 3.82725 7.74521 3.70167C7.61415 3.39172 7.72947 3.04235 8.02176 2.86415C8.2311 2.73651 8.48056 2.73282 16.9445 2.73261L25.6519 2.73234L25.8626 2.92054C26.0099 3.05214 26.0839 3.19107 26.1088 3.38248C26.143 3.6448 26.068 3.77729 24.3081 6.56476L22.4719 9.4733L22.4726 9.91814C22.4732 10.2392 22.5113 10.4263 22.6095 10.5906C22.752 10.8291 24.8443 12.5576 25.223 12.7498C25.3435 12.8109 25.5988 12.8609 25.7903 12.8609C26.7888 12.8609 27.437 11.8699 27.0279 10.9689C26.9408 10.7772 26.6963 10.5127 26.2737 10.1533C25.9297 9.86079 25.6613 9.58807 25.677 9.54735C25.6928 9.50663 26.2223 8.6572 26.8536 7.65974C28.4482 5.14047 28.4873 5.07464 28.657 4.62097C29.2351 3.07541 28.5181 1.20313 27.0498 0.424328C26.207 -0.022697 26.6685 -0.00360334 16.8601 0.00173469C9.99122 0.00543024 7.88304 0.0260295 7.6108 0.0920704ZM14.6504 8.6249C14.3258 8.72105 13.9058 9.16931 13.8113 9.52032C13.6474 10.1287 13.8908 10.7682 14.4089 11.0902C14.6701 11.2526 14.6705 11.2526 16.9335 11.2526H19.1969L19.4743 11.069C19.9015 10.7863 20.0766 10.4518 20.0766 9.91814C20.0766 9.38454 19.9016 9.05002 19.4745 8.76725L19.1973 8.58363L17.0363 8.5709C15.7917 8.56358 14.78 8.58644 14.6504 8.6249ZM26.9 14.5104C22.7114 15.0763 20.3064 18.1088 21.7967 20.9449C22.5068 22.2961 24.1713 23.3821 26.2016 23.819C26.8014 23.948 27.1296 23.9736 28.1863 23.9736C29.243 23.9736 29.5711 23.948 30.1709 23.819C33.9802 22.9994 35.9666 20.1526 34.5758 17.506C33.8699 16.1626 32.1875 15.0604 30.2051 14.6424C29.4053 14.4737 27.6808 14.4049 26.9 14.5104ZM29.863 17.3732C31.0237 17.6712 32.0549 18.3603 32.2338 18.9575C32.4126 19.5543 31.9431 20.1841 30.9592 20.6676C30.035 21.1216 29.494 21.2317 28.1863 21.2317C26.8775 21.2317 26.3349 21.1211 25.4146 20.667C24.4334 20.1829 23.9612 19.5502 24.1388 18.9575C24.356 18.2323 25.6889 17.4674 27.1255 17.2435C27.7766 17.142 29.2308 17.2109 29.863 17.3732ZM22.1783 25.1843C21.8522 25.284 21.4334 25.7321 21.3392 26.0819C21.2393 26.4531 21.2998 26.9074 21.4903 27.2158C21.7337 27.6096 22.9718 28.3579 24.0459 28.7603C25.3741 29.258 26.5256 29.4543 28.1178 29.4543C29.4426 29.4543 29.948 29.3947 31.0606 29.1076C32.2447 28.8021 33.0809 28.4396 34.0437 27.8145C34.7552 27.3527 34.9272 27.0927 34.9272 26.4797C34.9272 25.946 34.7522 25.6115 34.325 25.3288C34.0942 25.1761 33.9715 25.1452 33.5945 25.1452C33.1781 25.1452 33.1059 25.1684 32.6998 25.4327C30.0347 27.1676 26.2093 27.173 23.5553 25.4454C23.0937 25.1449 22.608 25.0527 22.1783 25.1843ZM22.1783 30.7276C21.8522 30.8274 21.4334 31.2754 21.3392 31.6252C21.2393 31.9965 21.2998 32.4508 21.4903 32.7591C21.7337 33.1529 22.9718 33.9012 24.0459 34.3037C25.3741 34.8013 26.5256 34.9976 28.1178 34.9976C29.4426 34.9976 29.948 34.9381 31.0606 34.6509C32.2447 34.3454 33.0809 33.9829 34.0437 33.3579C34.7552 32.8961 34.9272 32.6361 34.9272 32.023C34.9272 31.4894 34.7522 31.1548 34.325 30.8721C34.0942 30.7194 33.9715 30.6885 33.5945 30.6885C33.1781 30.6885 33.1059 30.7117 32.6998 30.976C30.0347 32.7109 26.2093 32.7163 23.5553 30.9887C23.0937 30.6882 22.608 30.5961 22.1783 30.7276Z" fill="#333E63"/>
</svg>
