<svg width="35" height="35" viewBox="0 0 35 35" fill="none" xmlns="http://www.w3.org/2000/svg">
<path fill-rule="evenodd" clip-rule="evenodd" d="M7.36084 0.0116803C7.30435 0.023252 7.02704 0.0700867 6.74459 0.115826C5.15762 0.372664 3.60318 1.18857 2.39054 2.40121C1.22981 3.56201 0.482712 4.93172 0.127754 6.54985C0.00635392 7.10344 0.000122982 7.63636 0.000122982 17.4711C0.000122982 28.6888 -0.0178851 28.1269 0.381922 29.3615C0.779469 30.5891 1.44276 31.6617 2.39054 32.6095C3.33833 33.5572 4.41087 34.2205 5.6385 34.6181C6.87312 35.0179 6.31124 34.9999 17.5289 34.9999C27.3536 34.9999 27.8971 34.9935 28.4502 34.8725C31.7514 34.1503 34.2362 31.612 34.8942 28.2896C35.0352 27.5784 35.0352 7.43231 34.8942 6.72103C34.2447 3.44171 31.8784 0.980761 28.5871 0.161428C28.0086 0.0174319 27.942 0.0164733 17.7343 0.0036006C12.0854 -0.00345199 7.41733 0.000177014 7.36084 0.0116803ZM28.1088 2.8649C29.6146 3.32065 30.6229 4.04624 31.4018 5.23471C31.7369 5.74585 31.9345 6.20132 32.1361 6.92644C32.2404 7.30153 32.2503 8.22227 32.2503 17.5053C32.2503 28.597 32.276 27.8168 31.8755 28.8858C31.4205 30.1006 30.0896 31.4317 28.8762 31.8856C27.8021 32.2875 28.626 32.2581 17.8028 32.2815C7.17686 32.3047 7.3162 32.3086 6.32719 31.9586C4.94036 31.4679 3.6014 30.1875 3.11381 28.8858C2.71332 27.8168 2.73899 28.597 2.73899 17.5053C2.73899 6.41366 2.71332 7.19389 3.11381 6.12484C3.59167 4.84914 4.91345 3.56537 6.25358 3.07525C7.23869 2.71495 6.86134 2.72611 17.6658 2.73877C26.8481 2.74959 27.7643 2.76062 28.1088 2.8649ZM13.1017 11.8548C11.6342 12.0946 9.88451 13.0822 9.49244 13.8921C9.05798 14.7895 9.72408 15.862 10.716 15.862C11.0893 15.862 11.3701 15.7351 11.7777 15.3824C12.7137 14.5722 14.1015 14.2962 15.2508 14.6916C15.8106 14.8842 15.9983 14.9971 16.579 15.4906C17.2934 16.0978 17.6078 16.3069 18.2775 16.6208C20.4281 17.6286 22.9654 17.3435 24.8802 15.8789C25.5735 15.3487 25.7455 15.074 25.7455 14.4976C25.7455 14.143 25.7111 13.992 25.583 13.7862C25.2651 13.2747 24.62 13.0238 24.033 13.1832C23.8827 13.224 23.5904 13.3987 23.3832 13.5713C22.46 14.3409 21.3489 14.6321 20.2335 14.3966C19.5452 14.2513 18.993 13.9673 18.4381 13.4735C17.8597 12.9587 17.5027 12.7129 16.8813 12.401C15.8482 11.8825 14.3008 11.6589 13.1017 11.8548ZM13.1062 18.4287C12.0292 18.6335 11.0806 19.0715 10.2018 19.7698C9.65033 20.208 9.41499 20.5894 9.41499 21.0449C9.41499 21.788 10.0525 22.4353 10.7844 22.4353C11.1577 22.4353 11.4385 22.3084 11.8462 21.9557C12.7822 21.1455 14.17 20.8695 15.3193 21.2649C15.8827 21.4588 16.0917 21.584 16.6275 22.0488C17.3429 22.6696 17.5365 22.8045 18.1532 23.1116C20.3107 24.186 23.0399 23.9335 24.9239 22.4852C25.1875 22.2825 25.4956 21.9855 25.6086 21.8251C25.7871 21.5716 25.814 21.4736 25.814 21.0771C25.814 20.716 25.7801 20.5663 25.6515 20.3594C25.3336 19.848 24.6885 19.5971 24.1015 19.7565C23.9512 19.7973 23.6588 19.9719 23.4517 20.1445C21.9779 21.3727 19.9975 21.3494 18.5498 20.0868C17.6129 19.2697 16.7494 18.791 15.7338 18.5257C15.0294 18.3417 13.8023 18.2964 13.1062 18.4287Z" fill="#333E63"/>
</svg>
