<svg width="35" height="35" viewBox="0 0 35 35" fill="none" xmlns="http://www.w3.org/2000/svg">
<path fill-rule="evenodd" clip-rule="evenodd" d="M6.09163 0.0674753C5.62381 0.202381 5.18815 0.825165 5.18815 1.35911C5.18815 1.94103 5.09055 1.83172 10.0358 6.78765C15.0025 11.7651 15.2674 12.0034 16.1848 12.3202C16.5785 12.4561 16.7866 12.4815 17.5076 12.4815C18.2239 12.4815 18.4377 12.4557 18.821 12.3232C19.3778 12.1309 19.9623 11.7614 20.5178 11.2507C20.7467 11.0402 21.0121 10.8383 21.1075 10.802C21.3374 10.7147 21.8995 10.7181 22.1403 10.8083C22.2462 10.848 23.5733 12.1186 25.0893 13.6317L27.8457 16.3829L26.5557 16.4171C25.2977 16.4505 25.2587 16.4559 24.9884 16.6349C24.5598 16.9188 24.3863 17.252 24.3863 17.791C24.3863 18.1645 24.4175 18.288 24.57 18.5184C24.6709 18.6709 24.8711 18.8689 25.0149 18.9583C25.2695 19.1166 25.3205 19.1212 27.0501 19.1421C29.0785 19.1665 29.4879 19.1103 30.3242 18.6921C31.0007 18.3538 31.7645 17.5901 32.1028 16.9136C32.5211 16.0768 32.5772 15.6684 32.5527 13.6343L32.5313 11.8551L32.3477 11.5778C32.0649 11.1507 31.7303 10.9757 31.1966 10.9757C30.663 10.9757 30.3284 11.1507 30.0456 11.5778C29.865 11.8503 29.8615 11.877 29.8394 13.1527L29.8168 14.4504L26.9304 11.5759C24.2123 8.86914 24.0142 8.68714 23.5308 8.45361C22.8458 8.12281 22.3217 7.99831 21.6143 7.99831C20.5141 7.99831 19.6068 8.36415 18.7127 9.16824C18.4181 9.43326 18.1014 9.67885 18.0089 9.71396C17.7837 9.79965 17.22 9.79507 16.9816 9.70561C16.8751 9.6657 14.6604 7.50926 12.0319 4.8863C7.94739 0.810244 7.23631 0.128734 7.0012 0.0650797C6.6778 -0.0224619 6.40093 -0.021709 6.09163 0.0674753ZM5.54345 10.8061C4.79425 11.0024 4.2638 11.3129 3.67927 11.8974C3.0864 12.4902 2.78257 13.0154 2.58476 13.7885C2.45527 14.295 2.44958 14.5658 2.44958 20.25C2.44958 25.9343 2.45527 26.205 2.58476 26.7115C2.78257 27.4847 3.0864 28.0098 3.67927 28.6027C4.27215 29.1956 4.79726 29.4994 5.57042 29.6972C6.24146 29.8688 6.87115 29.8688 7.54219 29.6972C8.31535 29.4994 8.84046 29.1956 9.43334 28.6027C10.0262 28.0098 10.33 27.4847 10.5278 26.7115C10.6573 26.205 10.663 25.9343 10.663 20.25C10.663 14.5658 10.6573 14.295 10.5278 13.7885C10.4534 13.4978 10.2928 13.0693 10.1708 12.8364C9.87988 12.2812 9.0495 11.4508 8.49427 11.1599C7.58867 10.6855 6.50148 10.5551 5.54345 10.8061ZM7.30818 13.6363C7.45006 13.7301 7.63925 13.9245 7.72857 14.0682L7.89099 14.3295V20.25V26.1705L7.72857 26.4318C7.63925 26.5755 7.44124 26.7757 7.28867 26.8767C7.05753 27.0297 6.93522 27.0603 6.55631 27.0603C6.17739 27.0603 6.05508 27.0297 5.82394 26.8767C5.67138 26.7757 5.47336 26.5755 5.38404 26.4318L5.22162 26.1705L5.203 20.3999C5.1902 16.4436 5.20752 14.5433 5.25797 14.3559C5.34647 14.0271 5.77575 13.5754 6.09163 13.4788C6.45049 13.3689 7.01462 13.442 7.30818 13.6363ZM16.4947 16.2817C15.7455 16.478 15.2151 16.7885 14.6305 17.373C14.0377 17.9659 13.7338 18.491 13.536 19.2641C13.4109 19.7535 13.4008 20.0301 13.4008 22.9878C13.4008 26.5537 13.4233 26.7668 13.8931 27.6636C14.184 28.2188 15.0144 29.0492 15.5696 29.3401C16.4777 29.816 17.5278 29.9441 18.4934 29.6972C19.2666 29.4994 19.7917 29.1956 20.3846 28.6027C20.9775 28.0098 21.2813 27.4847 21.4791 26.7115C21.6042 26.2222 21.6143 25.9456 21.6143 22.9878C21.6143 19.422 21.5918 19.2088 21.122 18.3121C20.8311 17.7568 20.0008 16.9265 19.4455 16.6356C18.5399 16.1611 17.4527 16.0307 16.4947 16.2817ZM18.2594 19.1119C18.4013 19.2058 18.5905 19.4001 18.6798 19.5439L18.8422 19.8051V22.9878V26.1705L18.6798 26.4318C18.5905 26.5755 18.3925 26.7757 18.2399 26.8767C18.0088 27.0297 17.8865 27.0603 17.5076 27.0603C17.1286 27.0603 17.0063 27.0297 16.7752 26.8767C16.6226 26.7757 16.4246 26.5755 16.3353 26.4318L16.1729 26.1705L16.1531 23.142C16.1398 21.1072 16.1578 20.0224 16.208 19.8359C16.2978 19.5027 16.7248 19.0518 17.0429 18.9544C17.4017 18.8446 17.9659 18.9176 18.2594 19.1119ZM27.446 21.7573C26.6968 21.9536 26.1663 22.2642 25.5818 22.8486C24.9889 23.4415 24.6851 23.9666 24.4873 24.7398C24.2403 25.7055 24.3685 26.7555 24.8444 27.6636C25.1352 28.2188 25.9656 29.0492 26.5209 29.3401C27.429 29.816 28.479 29.9441 29.4447 29.6972C30.2179 29.4994 30.743 29.1956 31.3359 28.6027C31.9287 28.0098 32.2326 27.4847 32.4304 26.7115C32.6773 25.7458 32.5491 24.6958 32.0733 23.7877C31.7824 23.2325 30.952 22.4021 30.3968 22.1112C29.4912 21.6367 28.404 21.5063 27.446 21.7573ZM29.2107 24.5875C29.6188 24.8576 29.7935 25.1988 29.7935 25.7257C29.7935 26.2594 29.6184 26.594 29.1912 26.8767C28.8093 27.1294 28.1409 27.1393 27.7527 26.8979C27.2345 26.5758 26.9911 25.9363 27.1549 25.3278C27.2491 24.978 27.668 24.5298 27.9941 24.4301C28.353 24.3202 28.9171 24.3932 29.2107 24.5875ZM0.889783 32.3734C0.566242 32.4671 0.145303 32.9155 0.0505746 33.2674C-0.113284 33.8759 0.130176 34.5155 0.648308 34.8376L0.909564 35H17.5076H34.1056L34.3668 34.8376C34.5106 34.7483 34.7108 34.5502 34.8117 34.3977C34.9647 34.1665 34.9953 34.0442 34.9953 33.6653C34.9953 33.2864 34.9647 33.1641 34.8117 32.9329C34.7108 32.7804 34.5106 32.5824 34.3668 32.493L34.1056 32.3306L17.6102 32.3194C7.32885 32.3124 1.0301 32.3328 0.889783 32.3734Z" fill="#333E63"/>
</svg>
