<svg width="25" height="35" viewBox="0 0 25 35" fill="none" xmlns="http://www.w3.org/2000/svg">
<path fill-rule="evenodd" clip-rule="evenodd" d="M10.94 0.075399C7.85549 0.424514 4.8963 2.00812 2.91438 4.37043C-0.967761 8.99732 -0.971866 15.6902 2.90452 20.241C3.89644 21.4056 4.37208 22.0611 4.67658 22.6831C5.17705 23.7054 5.46582 24.9176 5.46582 25.9958C5.46582 26.5807 5.6713 27.3922 5.95794 27.9393C6.24876 28.4944 7.07891 29.3245 7.63399 29.6153C8.53052 30.085 8.74361 30.1075 12.3085 30.1075C15.2655 30.1075 15.542 30.0974 16.0312 29.9723C17.41 29.6196 18.5315 28.5685 18.9532 27.2335C19.0446 26.9442 19.1156 26.4515 19.1563 25.8241C19.2897 23.7652 19.9099 22.2824 21.2712 20.767C22.8845 18.9712 23.8736 17.0849 24.34 14.9151C24.9289 12.1754 24.5948 9.44771 23.3639 6.94492C22.8266 5.85242 22.2792 5.025 21.5311 4.17486C18.8996 1.18433 14.882 -0.370745 10.94 0.075399ZM14.2381 2.94064C15.4907 3.20402 16.5929 3.67226 17.733 4.42537C18.3757 4.84989 19.7792 6.25621 20.2135 6.91071C20.9535 8.02614 21.466 9.26645 21.7272 10.574C21.9103 11.4905 21.8943 13.2799 21.6947 14.2111C21.3027 16.04 20.6139 17.3675 19.2514 18.9197C17.4401 20.9831 16.6062 22.9451 16.4255 25.5689C16.3546 26.5973 16.2573 26.8352 15.7778 27.1526L15.5004 27.3362H12.3085H9.11667L8.83927 27.1526C8.35973 26.8352 8.26243 26.5973 8.19154 25.5689C8.01082 22.9451 7.1769 20.9831 5.36564 18.9197C4.00613 17.3709 3.33808 16.0869 2.92259 14.2243C2.70116 13.2315 2.70095 11.4526 2.92218 10.4218C3.20184 9.1183 3.6681 8.01971 4.41909 6.89456C4.83519 6.27119 5.88596 5.17075 6.51856 4.69593C7.8507 3.69608 9.4614 3.0324 11.0908 2.81207C11.8414 2.71059 13.4579 2.77662 14.2381 2.94064ZM11.2959 5.6121C10.5497 5.8076 10.0168 6.11908 9.42904 6.7031C8.82524 7.30321 8.48208 7.92076 8.3015 8.73217C8.08383 9.71054 8.27139 10.382 8.86547 10.7513C9.07048 10.8787 9.22232 10.9137 9.57144 10.9137C10.3713 10.9137 10.8113 10.4864 10.9392 9.58518C11.0236 8.98966 11.1929 8.68235 11.5763 8.42863C11.8066 8.27624 11.9301 8.24504 12.3035 8.24504C12.8425 8.24504 13.1756 8.41857 13.4593 8.84719C13.6116 9.07745 13.6428 9.20096 13.6428 9.57437C13.6428 10.1932 13.4798 10.4372 12.7414 10.9235C12.3769 11.1635 12.0484 11.4484 11.8562 11.6911C10.9987 12.7739 10.6862 14.3592 11.1893 15.0736C11.5894 15.6414 12.3301 15.8272 12.9307 15.5101C13.3739 15.2762 13.596 14.9185 13.6708 14.3181C13.752 13.667 13.8953 13.4411 14.4675 13.0626C16.0054 12.0452 16.7144 10.2962 16.279 8.59374C16.2046 8.30306 16.044 7.87471 15.922 7.64192C15.6312 7.08684 14.801 6.25668 14.246 5.96587C13.3406 5.49153 12.2537 5.36118 11.2959 5.6121ZM11.844 17.8639C11.5179 17.9637 11.0991 18.4116 11.005 18.7614C10.8412 19.3697 11.0846 20.0091 11.6026 20.3311C11.9907 20.5724 12.6589 20.5625 13.0407 20.3099C13.4678 20.0272 13.6428 19.6927 13.6428 19.1591C13.6428 18.6324 13.4681 18.2913 13.0602 18.0213C12.7667 17.8271 12.2027 17.7541 11.844 17.8639ZM9.10688 32.373C8.78268 32.4685 8.36247 32.9167 8.2679 33.2679C8.10409 33.8762 8.34748 34.5156 8.86547 34.8376L9.12666 35H12.3085H15.4904L15.7516 34.8376C15.8953 34.7483 16.0954 34.5504 16.1963 34.3978C16.3493 34.1668 16.3799 34.0445 16.3799 33.6657C16.3799 33.2869 16.3493 33.1646 16.1963 32.9335C16.0954 32.781 15.8953 32.583 15.7516 32.4937L15.4904 32.3313L12.4112 32.3191C10.5876 32.3118 9.24018 32.3338 9.10688 32.373Z" fill="#333E63"/>
</svg>
