<svg width="25" height="35" viewBox="0 0 25 35" fill="none" xmlns="http://www.w3.org/2000/svg">
<path fill-rule="evenodd" clip-rule="evenodd" d="M5.81526 0.135258C5.06658 0.331423 4.53649 0.641743 3.95238 1.22579C3.35992 1.81825 3.0563 2.343 2.85863 3.11562C2.72827 3.62559 2.72355 3.89816 2.72355 10.9712V18.2985L2.56965 18.6037C2.4544 18.8324 2.29565 18.9878 1.93697 19.2233C0.10754 20.4245 -0.504688 22.6033 0.439679 24.5517C0.677976 25.0434 0.877698 25.2544 5.23661 29.6225C8.69822 33.0914 9.88506 34.2398 10.2042 34.4292C11.4005 35.1395 12.8569 35.1895 14.146 34.5646C14.6375 34.3263 14.8492 34.1261 19.2168 29.7676C24.0531 24.9414 24.1213 24.8648 24.4112 23.9361C24.9669 22.1566 24.27 20.2795 22.6615 19.2233C22.3028 18.9878 22.144 18.8324 22.0288 18.6037L21.8749 18.2985V10.9712C21.8749 3.89816 21.8702 3.62559 21.7398 3.11562C21.5421 2.343 21.2385 1.81825 20.6461 1.22579C20.0536 0.63333 19.5289 0.329713 18.7562 0.132043C18.2494 0.00242977 17.9861 -0.00290525 12.2712 0.000719826C6.63227 0.00427651 6.28782 0.0114583 5.81526 0.135258ZM18.5029 2.95057C18.6554 3.05146 18.8532 3.25152 18.9425 3.39516L19.1048 3.65623L19.139 11.2484L19.1732 18.8405L19.3322 19.2851C19.6658 20.2176 20.1478 20.84 20.9408 21.3622C21.2705 21.5793 21.5809 21.843 21.6629 21.9757C21.8511 22.2803 21.9088 22.7338 21.808 23.1161C21.7343 23.3958 21.3479 23.8031 17.4748 27.6844C15.1361 30.0281 13.1149 32.0133 12.9832 32.0961C12.8002 32.211 12.6391 32.2465 12.2992 32.2465C11.9594 32.2465 11.7982 32.211 11.6152 32.0961C11.4836 32.0133 9.46236 30.0281 7.12364 27.6844C3.25055 23.8031 2.86417 23.3958 2.79044 23.1161C2.68962 22.7338 2.74735 22.2803 2.93558 21.9757C3.01766 21.8429 3.32825 21.5792 3.65882 21.3615C4.30647 20.9349 4.72992 20.4556 5.05529 19.7807C5.4654 18.9301 5.45692 19.1103 5.45863 11.18C5.45973 6.29023 5.4838 3.84487 5.53271 3.66889C5.62114 3.35029 6.05773 2.89839 6.36305 2.80933C6.50033 2.76925 8.85595 2.74825 12.4069 2.75537L18.2257 2.76706L18.5029 2.95057ZM11.8349 5.26844C11.5275 5.36248 11.0924 5.81452 11.0045 6.1312C10.9646 6.2747 10.9301 6.79227 10.9278 7.28131L10.9235 8.17048L10.4316 8.40406C9.74949 8.72778 8.99513 9.48324 8.64993 10.1882C8.19632 11.1147 8.08825 12.073 8.33045 13.0202C8.51177 13.7289 8.82715 14.3008 9.33322 14.8382C10.0718 15.6224 10.938 16.0223 12.1461 16.137C12.8805 16.2066 13.1658 16.3463 13.4495 16.7749C13.6018 17.0051 13.633 17.1285 13.633 17.5018C13.633 18.0404 13.4595 18.3734 13.0313 18.657L12.7542 18.8405L10.9313 18.8747L9.10833 18.9089L8.83125 19.0924C8.40445 19.375 8.22956 19.7094 8.22956 20.2427C8.22956 20.776 8.40445 21.1103 8.83132 21.3929C9.09075 21.5647 9.1662 21.5779 10.0133 21.6001L10.9181 21.6238L10.9418 22.5235C10.9629 23.328 10.9826 23.4508 11.1278 23.6842C11.217 23.8279 11.4149 24.0279 11.5674 24.1288C11.7983 24.2817 11.9206 24.3123 12.2992 24.3123C12.6779 24.3123 12.8001 24.2817 13.0311 24.1288C13.1835 24.0279 13.3814 23.8279 13.4707 23.6842C13.6187 23.446 13.6352 23.3333 13.6588 22.3972L13.6845 21.3712L14.1717 21.1377C14.8497 20.8127 15.6058 20.0534 15.9485 19.3535C16.4021 18.4271 16.5102 17.4687 16.268 16.5216C16.0867 15.8128 15.7713 15.241 15.2652 14.7036C14.5254 13.9179 13.6607 13.5194 12.4462 13.4042C11.7123 13.3346 11.399 13.1769 11.1278 12.7406C10.8866 12.3527 10.8965 11.6847 11.149 11.3031C11.2499 11.1506 11.4499 10.9528 11.5936 10.8635C11.8469 10.706 11.9081 10.7002 13.6672 10.667C15.4262 10.6338 15.4874 10.628 15.7408 10.4705C15.8844 10.3812 16.0845 10.1834 16.1854 10.0309C16.3377 9.80074 16.3689 9.67728 16.3689 9.30404C16.3689 8.76534 16.1954 8.43237 15.7671 8.1488C15.5077 7.97698 15.4322 7.96378 14.5851 7.94162L13.6803 7.91796L13.6566 7.01825C13.6355 6.21369 13.6158 6.09092 13.4707 5.85748C13.1481 5.33861 12.4394 5.08342 11.8349 5.26844Z" fill="#333E63"/>
</svg>
