<svg width="35" height="35" viewBox="0 0 35 35" fill="none" xmlns="http://www.w3.org/2000/svg">
<path fill-rule="evenodd" clip-rule="evenodd" d="M15.6677 0.0553094C15.343 0.151981 14.9233 0.600107 14.8289 0.950807C14.6651 1.55903 14.9084 2.19831 15.4263 2.52027C15.6841 2.6805 15.7112 2.68262 17.5055 2.68262H19.3235L19.6009 2.49906C20.0279 2.21644 20.203 1.88202 20.203 1.34851C20.203 0.815138 20.028 0.480652 19.6011 0.197957L19.3239 0.0143965L17.6083 0.00132907C16.6444 -0.00599145 15.7942 0.0176121 15.6677 0.0553094ZM6.07503 2.48196C5.06501 2.65786 4.46096 2.84196 3.7831 3.18042C1.72767 4.20673 0.356135 6.13818 0.0490832 8.43881C-0.166154 10.0516 0.353808 12.1985 1.07526 12.676C1.77317 13.1378 2.73373 12.8737 3.07294 12.1268C3.25137 11.7341 3.23194 11.4079 2.98776 10.6965C2.44221 9.10778 2.78723 7.56582 3.94791 6.40507C5.10866 5.24439 6.65062 4.89937 8.23938 5.44492C8.9507 5.6891 9.27691 5.70853 9.66968 5.5301C10.4166 5.19089 10.6806 4.23033 10.2188 3.53242C9.8503 2.97572 8.51099 2.52835 7.06707 2.47977C6.61552 2.46458 6.16911 2.46554 6.07503 2.48196ZM27.3524 2.49113C26.866 2.54408 25.9357 2.80646 25.4595 3.02505C25.0805 3.19896 24.9267 3.31417 24.7822 3.53242C24.3204 4.23033 24.5845 5.19089 25.3314 5.5301C25.7241 5.70853 26.0503 5.6891 26.7617 5.44492C28.3504 4.89937 29.8924 5.24439 31.0531 6.40507C32.2154 7.56746 32.5577 9.11093 32.0081 10.7117C31.769 11.4081 31.7504 11.7358 31.9281 12.1268C32.2673 12.8737 33.2279 13.1378 33.9258 12.676C34.267 12.4501 34.5751 11.8329 34.8159 10.8926C35.0007 10.1716 35.0377 8.71309 34.889 8.01908C34.5844 6.59766 33.9551 5.40989 33.0017 4.45652C31.5355 2.99029 29.4456 2.26323 27.3524 2.49113ZM16.0296 5.26109C12.9024 5.58018 9.8464 7.09566 7.60933 9.43659C2.41491 14.8724 2.5969 23.5152 8.01477 28.6947C12.9428 33.406 20.3589 33.839 25.7939 29.733C26.521 29.1837 27.8212 27.8835 28.3705 27.1564C29.9275 25.0954 30.8547 22.7339 31.1124 20.1728C31.4532 16.7865 30.4725 13.3519 28.3705 10.5696C27.8212 9.8425 26.521 8.54239 25.7939 7.99308C22.9675 5.85775 19.5508 4.90177 16.0296 5.26109ZM19.5558 8.11657C23.9658 8.98128 27.3686 12.3894 28.2548 16.8292C28.4559 17.8367 28.4723 19.7935 28.2875 20.7445C27.6611 23.9688 25.839 26.6032 23.0868 28.2637C22.0405 28.895 20.7077 29.3939 19.382 29.6505C18.4061 29.8393 16.4666 29.8197 15.448 29.6107C10.9792 28.6937 7.63383 25.3437 6.74626 20.8969C6.52658 19.7965 6.52658 17.9296 6.74626 16.8292C7.68959 12.1032 11.4562 8.59138 16.2312 7.98576C17.0061 7.88744 18.7343 7.95545 19.5558 8.11657ZM17.036 13.463C16.7286 13.5571 16.2934 14.0092 16.2055 14.326C16.1058 14.6849 16.1083 18.9444 16.2083 19.3077C16.2699 19.5313 16.561 19.8608 17.7986 21.108C18.6318 21.9476 19.4213 22.7019 19.553 22.7842C19.9003 23.0012 20.5835 22.9949 20.943 22.7714C21.4656 22.4465 21.7043 21.8103 21.5369 21.1885C21.4656 20.9236 21.2767 20.7023 20.1654 19.5814L18.8766 18.2815L18.8556 16.2974C18.835 14.3461 18.832 14.309 18.6723 14.0522C18.3496 13.5332 17.6408 13.2779 17.036 13.463ZM7.05735 31.5171C6.71028 31.5995 6.40022 31.8271 5.84865 32.4044C5.27436 33.0056 5.14033 33.3092 5.21354 33.8431C5.32499 34.6564 6.12963 35.1656 6.95295 34.9439C7.29961 34.8506 8.23705 33.9996 8.5142 33.5266C8.8114 33.0196 8.70324 32.217 8.2887 31.8533C7.9664 31.5704 7.43905 31.4263 7.05735 31.5171ZM27.3866 31.5192C26.7168 31.6703 26.3066 32.1811 26.3066 32.864C26.3066 33.34 26.5137 33.6803 27.2052 34.3409C27.8104 34.9192 28.1143 35.0546 28.6434 34.9821C29.4626 34.8699 29.9726 34.068 29.7501 33.2419C29.6914 33.0241 29.5338 32.8038 29.1471 32.399C28.4101 31.6275 27.9425 31.3938 27.3866 31.5192Z" fill="#333E63"/>
</svg>
