<svg width="134" height="370" viewBox="0 0 134 370" fill="none" xmlns="http://www.w3.org/2000/svg">
<g clip-path="url(#clip0_507_4764)">
<path d="M74.2261 182.353C74.2261 182.353 77.8385 186.696 78.2901 188.792C78.7416 190.964 71.7426 220.167 71.6673 221.14C71.5921 222.114 74.1508 226.606 74.0003 230.35C73.8498 234.094 71.2158 238.512 71.2158 238.512L63.3889 221.29C65.5714 217.771 65.6466 213.353 63.6146 209.758C60.0775 203.768 57.3682 190.14 57.3682 190.14L74.2261 182.353Z" fill="white" stroke="#263238" stroke-linecap="round" stroke-linejoin="round"/>
<path d="M18.8359 352.778L18.3091 355.473C18.3091 355.473 11.9121 363.111 10.6327 364.309C9.35328 365.507 9.05225 369.551 9.05225 369.551H34.2639C34.2639 369.551 35.6938 364.309 35.5433 362.737C35.3928 361.164 35.3928 356.746 35.3928 356.746L18.8359 352.778Z" fill="white" stroke="#263238" stroke-miterlimit="10"/>
<path d="M9.65432 366.406C9.35328 367.454 9.20276 368.577 9.05225 369.626H34.2639C34.2639 369.626 34.7155 368.053 35.0165 366.406H9.65432Z" fill="white" stroke="#263238" stroke-linecap="round" stroke-linejoin="round"/>
<path d="M70.5384 352.778L71.0652 355.473C71.0652 355.473 77.4622 363.111 78.7416 364.309C80.021 365.507 80.322 369.551 80.322 369.551H55.1103C55.1103 369.551 53.6804 364.309 53.8309 362.737C53.9814 361.164 53.9814 356.746 53.9814 356.746L70.5384 352.778Z" fill="white" stroke="#263238" stroke-miterlimit="10"/>
<path d="M79.7206 366.406C80.0216 367.454 80.1721 368.577 80.3226 369.626H55.111C55.111 369.626 54.6594 368.053 54.3584 366.406H79.7206Z" fill="white" stroke="#263238" stroke-linecap="round" stroke-linejoin="round"/>
<path d="M69.1091 303.882L70.9153 233.196L45.3273 228.029H44.0479L18.46 233.196L20.2662 303.882L21.1693 348.36L18.6857 350.382L18.8363 352.778L35.3932 356.821C35.3932 356.821 35.7695 350.531 35.92 349.633C36.0705 348.809 35.3932 345.215 35.3932 344.541C35.3932 343.867 40.8871 285.761 40.8871 285.761L42.9943 253.563L44.65 253.188L46.3057 253.563L48.4129 285.761C48.4129 285.761 53.9068 343.867 53.9068 344.541C53.9068 345.215 53.2295 348.809 53.38 349.633C53.5305 350.456 53.9068 356.821 53.9068 356.821L70.4637 352.703L70.6142 350.307L68.1307 348.285L69.1091 303.882Z" fill="#263238" stroke="#263238" stroke-linecap="round" stroke-linejoin="round"/>
<path d="M30.2 145.587L17.8575 145.287C16.0513 144.913 14.2451 146.036 13.8688 147.833L2.05322 183.026L15.2988 183.326L17.3307 237.239C17.406 238.512 18.3844 239.485 19.6638 239.56L40.8867 239.635L44.8754 239.56L47.8105 239.336L69.2592 234.843C70.6139 234.469 71.517 233.27 71.4417 231.923L69.7108 192.836L80.6233 186.396L74.9789 154.647L53.3044 144.389L30.2 145.587Z" fill="#B0BEC5" stroke="#263238" stroke-miterlimit="10"/>
<path d="M69.8613 192.761L68.2056 173.667" stroke="#263238" stroke-linecap="round" stroke-linejoin="round"/>
<path d="M17.0298 179.133L21.4701 164.007" stroke="#263238" stroke-linecap="round" stroke-linejoin="round"/>
<path d="M36.7474 140.121C36.7474 140.121 33.0597 142.517 32.7587 143.565C32.5329 144.464 32.3824 145.287 32.3071 146.186C32.3071 146.186 34.4896 166.403 35.167 166.029C35.8443 165.58 41.7145 158.391 42.9186 157.118C44.1228 155.845 46.1547 155.696 46.6063 156.07C47.0578 156.444 55.261 167.002 55.9384 165.43C56.6157 163.857 55.1105 148.357 53.1538 144.314C51.1971 140.121 38.7041 138.399 36.7474 140.121Z" fill="white" stroke="#263238" stroke-miterlimit="10"/>
<path d="M35.167 135.029L36.1454 146.411C36.1454 146.411 41.7145 163.333 45.0259 162.51C48.3373 161.686 52.2507 145.437 52.4012 145.063C52.4765 144.688 52.7775 138.249 52.7775 138.249C52.7775 138.249 53.0786 140.121 46.0795 138.548C42.2413 137.799 38.6289 136.601 35.167 135.029Z" fill="white" stroke="#263238" stroke-miterlimit="10"/>
<path d="M50.0684 142.816L43.6714 138.773L37.5755 133.906L36.8229 136.002L34.9414 143.865L36.1455 146.485L50.0684 142.816Z" fill="#263238" stroke="#263238" stroke-linecap="round" stroke-linejoin="round"/>
<path d="M25.0825 112.64L27.7918 124.097C27.7918 124.097 25.0072 122.599 25.534 126.343C26.0608 130.012 27.1145 133.082 28.5444 133.232C29.4475 133.307 30.4258 133.382 31.3289 133.382C31.3289 133.382 32.6083 137.874 34.1135 138.773C35.6187 139.672 43.5209 142.667 45.026 143.191C46.5312 143.715 50.6704 142.592 51.5735 141.993C52.4766 141.469 55.0354 135.029 55.5623 133.307C56.1643 131.585 55.7128 125.22 55.7128 125.22C55.7128 125.22 53.3045 114.213 52.8529 111.068C52.4014 107.923 52.1756 105.002 50.2941 102.981C48.4127 100.959 41.5641 98.5628 35.2424 100.884C28.8454 103.205 23.4268 105.377 25.0825 112.64Z" fill="white" stroke="#263238" stroke-linecap="round" stroke-linejoin="round"/>
<path d="M42.2414 117.807C42.2414 117.807 38.0269 116.908 35.0918 119.978" stroke="#263238" stroke-linecap="round" stroke-linejoin="round"/>
<path d="M47.585 116.758C47.585 116.758 50.52 114.213 52.7778 116.01" stroke="#263238" stroke-linecap="round" stroke-linejoin="round"/>
<path d="M41.037 123.123C41.1875 123.947 40.736 124.696 40.0586 124.771C39.3813 124.845 38.8545 124.246 38.704 123.423C38.5535 122.599 39.005 121.85 39.6071 121.775C40.2844 121.7 40.8865 122.3 41.037 123.123Z" fill="#263238"/>
<path d="M51.6399 123.034C52.2976 122.936 52.7313 122.194 52.6085 121.376C52.4857 120.558 51.853 119.974 51.1953 120.071C50.5376 120.169 50.1039 120.912 50.2267 121.73C50.3495 122.548 50.9822 123.131 51.6399 123.034Z" fill="#263238"/>
<path d="M34.4897 104.328C34.4897 104.328 31.4041 111.442 29.0711 113.688L26.7381 116.01C26.7381 116.01 29.8237 124.621 29.5226 125.22C29.2216 125.819 28.6948 126.043 28.469 125.295C28.2432 124.546 27.9422 123.872 27.3401 123.647C26.7381 123.423 24.7061 122.824 24.7061 122.824L20.7174 114.737C20.7174 114.737 17.6318 112.041 18.3091 109.495C18.9112 106.949 21.2442 102.606 21.2442 102.606C21.2442 102.606 19.739 102.232 20.3411 101.109C20.9431 99.9855 27.5659 99.6111 27.5659 99.6111C27.5659 99.6111 27.9422 96.2415 29.9742 95.6425C32.0062 95.0435 32.0062 95.7174 32.0062 95.7174C32.0062 95.7174 39.3815 91.599 43.8218 91.3744C48.1868 91.1498 62.1096 101.333 60.8302 102.756C59.6261 104.328 55.1106 105.601 55.1106 105.601C55.1106 105.601 55.6374 117.957 55.1858 118.181L54.5838 118.406L51.9497 107.773C51.7992 107.923 38.2526 106.725 34.4897 104.328Z" fill="#263238" stroke="#263238" stroke-miterlimit="10"/>
<path d="M35.2424 156.594C35.2424 156.594 33.5867 147.833 34.565 145.886C35.5434 143.94 39.2311 141.843 41.4136 140.495C43.5961 139.147 44.8002 139.896 43.9724 141.469C43.1445 142.891 42.0157 144.164 40.7363 145.437C40.7363 145.437 51.1972 139.522 52.4766 140.42C53.756 141.319 54.2076 142.667 53.0787 143.64C52.0251 144.389 51.122 145.213 50.2941 146.111C49.7673 146.86 51.8745 151.278 50.8962 153C49.9178 154.797 44.4992 157.493 41.8651 159.44C39.1558 161.386 21.2443 182.278 15.9009 185.273C10.5575 188.268 7.39665 190.215 3.93475 187.969C0.472853 185.722 0.548112 182.802 3.78424 178.758C7.02036 174.715 35.2424 156.594 35.2424 156.594Z" fill="white" stroke="#263238" stroke-linecap="round" stroke-linejoin="round"/>
<path d="M46.832 135.104L50.5197 133.981" stroke="#263238" stroke-linecap="round" stroke-linejoin="round"/>
<path d="M46.832 121.626C46.832 121.626 47.4341 125.145 47.8104 125.669C48.1867 126.118 51.3476 126.867 51.197 127.691C51.0465 128.589 48.1114 129.787 48.1114 129.787" stroke="#263238" stroke-miterlimit="10"/>
</g>
<g filter="url(#filter0_d_507_4764)">
<path d="M38.5633 82L44.0587 54.9641L118.729 54.9641C123.852 54.9641 128 50.8065 128 45.6706L128 10.2936C128 5.15765 123.852 1 118.729 1L10.2711 1.00001C5.14759 1.00001 0.999997 5.15766 0.999997 10.2936L0.999998 45.5483C0.999999 50.6842 5.14759 54.8419 10.2711 54.8419L29.7861 54.8419L38.5633 82Z" fill="white"/>
<path d="M39.0532 82.0996C39.008 82.3223 38.8182 82.4865 38.5913 82.4992C38.3643 82.5119 38.1574 82.37 38.0875 82.1538L29.4223 55.3419L10.2711 55.3419C4.87031 55.3419 0.499999 50.9592 0.499998 45.5483L0.499997 10.2936C0.499997 4.88266 4.8703 0.500005 10.2711 0.500005L118.729 0.5C124.13 0.5 128.5 4.88265 128.5 10.2936L128.5 45.6706C128.5 51.0815 124.13 55.4641 118.729 55.4641L44.4673 55.4641L39.0532 82.0996Z" stroke="#333E63" stroke-linecap="round" stroke-linejoin="round"/>
</g>
<path d="M14.9 20.506H12.66V25H11.652V15.2H12.66V19.596H14.9L18.218 15.2H19.338L15.698 19.96L19.548 25H18.358L14.9 20.506ZM25.7268 18.518H22.9408V25H21.9468V18.518H19.1608V17.636H25.7268V18.518ZM29.8602 25.07C29.1509 25.07 28.5115 24.9113 27.9422 24.594C27.3729 24.2673 26.9249 23.8193 26.5982 23.25C26.2715 22.6807 26.1082 22.0367 26.1082 21.318C26.1082 20.5993 26.2715 19.9553 26.5982 19.386C26.9249 18.8167 27.3729 18.3733 27.9422 18.056C28.5115 17.7387 29.1509 17.58 29.8602 17.58C30.5695 17.58 31.2089 17.7387 31.7782 18.056C32.3475 18.3733 32.7909 18.8167 33.1082 19.386C33.4349 19.9553 33.5982 20.5993 33.5982 21.318C33.5982 22.0367 33.4349 22.6807 33.1082 23.25C32.7909 23.8193 32.3475 24.2673 31.7782 24.594C31.2089 24.9113 30.5695 25.07 29.8602 25.07ZM29.8602 24.188C30.3829 24.188 30.8495 24.0713 31.2602 23.838C31.6802 23.5953 32.0069 23.2547 32.2402 22.816C32.4735 22.3773 32.5902 21.878 32.5902 21.318C32.5902 20.758 32.4735 20.2587 32.2402 19.82C32.0069 19.3813 31.6802 19.0453 31.2602 18.812C30.8495 18.5693 30.3829 18.448 29.8602 18.448C29.3375 18.448 28.8662 18.5693 28.4462 18.812C28.0355 19.0453 27.7089 19.3813 27.4662 19.82C27.2329 20.2587 27.1162 20.758 27.1162 21.318C27.1162 21.878 27.2329 22.3773 27.4662 22.816C27.7089 23.2547 28.0355 23.5953 28.4462 23.838C28.8662 24.0713 29.3375 24.188 29.8602 24.188ZM43.1807 17.58C43.8713 17.58 44.4967 17.7387 45.0567 18.056C45.6167 18.364 46.0553 18.8027 46.3727 19.372C46.69 19.9413 46.8487 20.59 46.8487 21.318C46.8487 22.0553 46.69 22.7087 46.3727 23.278C46.0553 23.8473 45.6167 24.2907 45.0567 24.608C44.506 24.916 43.8807 25.07 43.1807 25.07C42.5833 25.07 42.042 24.9487 41.5567 24.706C41.0807 24.454 40.6887 24.09 40.3807 23.614V27.716H39.3867V17.636H40.3387V19.092C40.6373 18.6067 41.0293 18.2333 41.5147 17.972C42.0093 17.7107 42.5647 17.58 43.1807 17.58ZM43.1107 24.188C43.624 24.188 44.0907 24.0713 44.5107 23.838C44.9307 23.5953 45.2573 23.2547 45.4907 22.816C45.7333 22.3773 45.8547 21.878 45.8547 21.318C45.8547 20.758 45.7333 20.2633 45.4907 19.834C45.2573 19.3953 44.9307 19.0547 44.5107 18.812C44.0907 18.5693 43.624 18.448 43.1107 18.448C42.588 18.448 42.1167 18.5693 41.6967 18.812C41.286 19.0547 40.9593 19.3953 40.7167 19.834C40.4833 20.2633 40.3667 20.758 40.3667 21.318C40.3667 21.878 40.4833 22.3773 40.7167 22.816C40.9593 23.2547 41.286 23.5953 41.6967 23.838C42.1167 24.0713 42.588 24.188 43.1107 24.188ZM51.4773 17.58C52.4386 17.58 53.176 17.8227 53.6893 18.308C54.2026 18.784 54.4593 19.4933 54.4593 20.436V25H53.5073V23.852C53.2833 24.2347 52.952 24.5333 52.5133 24.748C52.084 24.9627 51.5706 25.07 50.9733 25.07C50.152 25.07 49.4986 24.874 49.0133 24.482C48.528 24.09 48.2853 23.572 48.2853 22.928C48.2853 22.3027 48.5093 21.7987 48.9573 21.416C49.4146 21.0333 50.138 20.842 51.1273 20.842H53.4653V20.394C53.4653 19.7593 53.288 19.2787 52.9333 18.952C52.5786 18.616 52.0606 18.448 51.3793 18.448C50.9126 18.448 50.4646 18.5273 50.0353 18.686C49.606 18.8353 49.2373 19.0453 48.9293 19.316L48.4813 18.574C48.8546 18.2567 49.3026 18.014 49.8253 17.846C50.348 17.6687 50.8986 17.58 51.4773 17.58ZM51.1273 24.286C51.6873 24.286 52.168 24.16 52.5693 23.908C52.9706 23.6467 53.2693 23.2733 53.4653 22.788V21.584H51.1553C49.8953 21.584 49.2653 22.0227 49.2653 22.9C49.2653 23.3293 49.4286 23.67 49.7553 23.922C50.082 24.1647 50.5393 24.286 51.1273 24.286ZM60.6754 17.818C61.3567 17.818 61.9634 17.972 62.4954 18.28C63.0367 18.5787 63.4567 19.0033 63.7554 19.554C64.0541 20.0953 64.2034 20.716 64.2034 21.416C64.2034 22.1347 64.0447 22.774 63.7274 23.334C63.4194 23.8847 62.9854 24.314 62.4254 24.622C61.8654 24.93 61.2214 25.084 60.4934 25.084C59.2707 25.084 58.3234 24.6547 57.6514 23.796C56.9794 22.9373 56.6434 21.752 56.6434 20.24C56.6434 18.6627 56.9421 17.454 57.5394 16.614C58.1461 15.774 59.0887 15.2047 60.3674 14.906L63.6714 14.15L63.8394 15.06L60.7314 15.774C59.6767 16.0073 58.9021 16.4227 58.4074 17.02C57.9127 17.608 57.6421 18.4807 57.5954 19.638C57.8941 19.0687 58.3094 18.6253 58.8414 18.308C59.3734 17.9813 59.9847 17.818 60.6754 17.818ZM60.5214 24.258C61.0347 24.258 61.4921 24.1413 61.8934 23.908C62.3041 23.6653 62.6214 23.3293 62.8454 22.9C63.0787 22.4707 63.1954 21.9853 63.1954 21.444C63.1954 20.9027 63.0834 20.4267 62.8594 20.016C62.6354 19.6053 62.3181 19.288 61.9074 19.064C61.5061 18.8307 61.0441 18.714 60.5214 18.714C59.9987 18.714 59.5321 18.8307 59.1214 19.064C58.7201 19.288 58.4027 19.6053 58.1694 20.016C57.9454 20.4267 57.8334 20.9027 57.8334 21.444C57.8334 21.9853 57.9454 22.4707 58.1694 22.9C58.4027 23.3293 58.7247 23.6653 59.1354 23.908C59.5461 24.1413 60.0081 24.258 60.5214 24.258ZM69.3719 25.07C68.6626 25.07 68.0233 24.9113 67.4539 24.594C66.8846 24.2673 66.4366 23.8193 66.1099 23.25C65.7833 22.6807 65.6199 22.0367 65.6199 21.318C65.6199 20.5993 65.7833 19.9553 66.1099 19.386C66.4366 18.8167 66.8846 18.3733 67.4539 18.056C68.0233 17.7387 68.6626 17.58 69.3719 17.58C70.0813 17.58 70.7206 17.7387 71.2899 18.056C71.8593 18.3733 72.3026 18.8167 72.6199 19.386C72.9466 19.9553 73.1099 20.5993 73.1099 21.318C73.1099 22.0367 72.9466 22.6807 72.6199 23.25C72.3026 23.8193 71.8593 24.2673 71.2899 24.594C70.7206 24.9113 70.0813 25.07 69.3719 25.07ZM69.3719 24.188C69.8946 24.188 70.3613 24.0713 70.7719 23.838C71.1919 23.5953 71.5186 23.2547 71.7519 22.816C71.9853 22.3773 72.1019 21.878 72.1019 21.318C72.1019 20.758 71.9853 20.2587 71.7519 19.82C71.5186 19.3813 71.1919 19.0453 70.7719 18.812C70.3613 18.5693 69.8946 18.448 69.3719 18.448C68.8493 18.448 68.3779 18.5693 67.9579 18.812C67.5473 19.0453 67.2206 19.3813 66.9779 19.82C66.7446 20.2587 66.6279 20.758 66.6279 21.318C66.6279 21.878 66.7446 22.3773 66.9779 22.816C67.2206 23.2547 67.5473 23.5953 67.9579 23.838C68.3779 24.0713 68.8493 24.188 69.3719 24.188ZM80.1409 18.518H77.3549V25H76.3609V18.518H73.5749V17.636H80.1409V18.518ZM84.1121 17.58C85.0734 17.58 85.8107 17.8227 86.3241 18.308C86.8374 18.784 87.0941 19.4933 87.0941 20.436V25H86.1421V23.852C85.9181 24.2347 85.5867 24.5333 85.1481 24.748C84.7187 24.9627 84.2054 25.07 83.6081 25.07C82.7867 25.07 82.1334 24.874 81.6481 24.482C81.1627 24.09 80.9201 23.572 80.9201 22.928C80.9201 22.3027 81.1441 21.7987 81.5921 21.416C82.0494 21.0333 82.7727 20.842 83.7621 20.842H86.1001V20.394C86.1001 19.7593 85.9227 19.2787 85.5681 18.952C85.2134 18.616 84.6954 18.448 84.0141 18.448C83.5474 18.448 83.0994 18.5273 82.6701 18.686C82.2407 18.8353 81.8721 19.0453 81.5641 19.316L81.1161 18.574C81.4894 18.2567 81.9374 18.014 82.4601 17.846C82.9827 17.6687 83.5334 17.58 84.1121 17.58ZM83.7621 24.286C84.3221 24.286 84.8027 24.16 85.2041 23.908C85.6054 23.6467 85.9041 23.2733 86.1001 22.788V21.584H83.7901C82.5301 21.584 81.9001 22.0227 81.9001 22.9C81.9001 23.3293 82.0634 23.67 82.3901 23.922C82.7167 24.1647 83.1741 24.286 83.7621 24.286ZM96.1802 21.626H90.0202C90.0762 22.3913 90.3702 23.012 90.9022 23.488C91.4342 23.9547 92.1062 24.188 92.9182 24.188C93.3755 24.188 93.7955 24.1087 94.1782 23.95C94.5608 23.782 94.8922 23.5393 95.1722 23.222L95.7322 23.866C95.4055 24.258 94.9948 24.5567 94.5002 24.762C94.0148 24.9673 93.4782 25.07 92.8902 25.07C92.1342 25.07 91.4622 24.9113 90.8742 24.594C90.2955 24.2673 89.8428 23.8193 89.5162 23.25C89.1895 22.6807 89.0262 22.0367 89.0262 21.318C89.0262 20.5993 89.1802 19.9553 89.4882 19.386C89.8055 18.8167 90.2348 18.3733 90.7762 18.056C91.3268 17.7387 91.9428 17.58 92.6242 17.58C93.3055 17.58 93.9168 17.7387 94.4582 18.056C94.9995 18.3733 95.4242 18.8167 95.7322 19.386C96.0402 19.946 96.1942 20.59 96.1942 21.318L96.1802 21.626ZM92.6242 18.434C91.9148 18.434 91.3175 18.6627 90.8322 19.12C90.3562 19.568 90.0855 20.156 90.0202 20.884H95.2422C95.1768 20.156 94.9015 19.568 94.4162 19.12C93.9402 18.6627 93.3428 18.434 92.6242 18.434ZM103.246 18.518H100.46V25H99.4663V18.518H96.6803V17.636H103.246V18.518ZM11.414 34.636H12.408V37.898H17.042V34.636H18.036V42H17.042V38.752H12.408V42H11.414V34.636ZM23.3953 34.58C24.3566 34.58 25.0939 34.8227 25.6073 35.308C26.1206 35.784 26.3773 36.4933 26.3773 37.436V42H25.4253V40.852C25.2013 41.2347 24.8699 41.5333 24.4313 41.748C24.0019 41.9627 23.4886 42.07 22.8913 42.07C22.0699 42.07 21.4166 41.874 20.9313 41.482C20.4459 41.09 20.2033 40.572 20.2033 39.928C20.2033 39.3027 20.4273 38.7987 20.8753 38.416C21.3326 38.0333 22.0559 37.842 23.0453 37.842H25.3833V37.394C25.3833 36.7593 25.2059 36.2787 24.8513 35.952C24.4966 35.616 23.9786 35.448 23.2973 35.448C22.8306 35.448 22.3826 35.5273 21.9533 35.686C21.5239 35.8353 21.1553 36.0453 20.8473 36.316L20.3993 35.574C20.7726 35.2567 21.2206 35.014 21.7433 34.846C22.2659 34.6687 22.8166 34.58 23.3953 34.58ZM23.0453 41.286C23.6053 41.286 24.0859 41.16 24.4873 40.908C24.8886 40.6467 25.1873 40.2733 25.3833 39.788V38.584H23.0733C21.8133 38.584 21.1833 39.0227 21.1833 39.9C21.1833 40.3293 21.3466 40.67 21.6733 40.922C21.9999 41.1647 22.4573 41.286 23.0453 41.286ZM36.2054 41.132V43.778H35.2674V42H28.6734V43.778H27.7354V41.132H28.1554C28.65 41.104 28.986 40.74 29.1634 40.04C29.3407 39.34 29.462 38.36 29.5274 37.1L29.6254 34.636H35.0574V41.132H36.2054ZM30.4374 37.156C30.3907 38.2013 30.302 39.0647 30.1714 39.746C30.0407 40.418 29.8074 40.88 29.4714 41.132H34.0634V35.518H30.5214L30.4374 37.156ZM44.8866 42.07C44.1586 42.07 43.5052 41.9113 42.9266 41.594C42.3572 41.2767 41.9092 40.8333 41.5826 40.264C41.2559 39.6853 41.0926 39.0367 41.0926 38.318C41.0926 37.5993 41.2559 36.9553 41.5826 36.386C41.9092 35.8167 42.3572 35.3733 42.9266 35.056C43.5052 34.7387 44.1586 34.58 44.8866 34.58C45.5212 34.58 46.0859 34.706 46.5806 34.958C47.0846 35.2007 47.4812 35.56 47.7706 36.036L47.0286 36.54C46.7859 36.176 46.4779 35.9053 46.1046 35.728C45.7312 35.5413 45.3252 35.448 44.8866 35.448C44.3546 35.448 43.8739 35.5693 43.4446 35.812C43.0246 36.0453 42.6932 36.3813 42.4506 36.82C42.2172 37.2587 42.1006 37.758 42.1006 38.318C42.1006 38.8873 42.2172 39.3913 42.4506 39.83C42.6932 40.2593 43.0246 40.5953 43.4446 40.838C43.8739 41.0713 44.3546 41.188 44.8866 41.188C45.3252 41.188 45.7312 41.0993 46.1046 40.922C46.4779 40.7447 46.7859 40.474 47.0286 40.11L47.7706 40.614C47.4812 41.09 47.0846 41.454 46.5806 41.706C46.0766 41.9487 45.5119 42.07 44.8866 42.07ZM56.0122 38.626H49.8522C49.9082 39.3913 50.2022 40.012 50.7342 40.488C51.2662 40.9547 51.9382 41.188 52.7502 41.188C53.2075 41.188 53.6275 41.1087 54.0102 40.95C54.3929 40.782 54.7242 40.5393 55.0042 40.222L55.5642 40.866C55.2375 41.258 54.8269 41.5567 54.3322 41.762C53.8469 41.9673 53.3102 42.07 52.7222 42.07C51.9662 42.07 51.2942 41.9113 50.7062 41.594C50.1275 41.2673 49.6749 40.8193 49.3482 40.25C49.0215 39.6807 48.8582 39.0367 48.8582 38.318C48.8582 37.5993 49.0122 36.9553 49.3202 36.386C49.6375 35.8167 50.0669 35.3733 50.6082 35.056C51.1589 34.7387 51.7749 34.58 52.4562 34.58C53.1375 34.58 53.7489 34.7387 54.2902 35.056C54.8315 35.3733 55.2562 35.8167 55.5642 36.386C55.8722 36.946 56.0262 37.59 56.0262 38.318L56.0122 38.626ZM52.4562 35.434C51.7469 35.434 51.1495 35.6627 50.6642 36.12C50.1882 36.568 49.9175 37.156 49.8522 37.884H55.0742C55.0089 37.156 54.7335 36.568 54.2482 36.12C53.7722 35.6627 53.1749 35.434 52.4562 35.434ZM62.0205 34.58C62.7112 34.58 63.3365 34.7387 63.8965 35.056C64.4565 35.364 64.8952 35.8027 65.2125 36.372C65.5298 36.9413 65.6885 37.59 65.6885 38.318C65.6885 39.0553 65.5298 39.7087 65.2125 40.278C64.8952 40.8473 64.4565 41.2907 63.8965 41.608C63.3458 41.916 62.7205 42.07 62.0205 42.07C61.4232 42.07 60.8818 41.9487 60.3965 41.706C59.9205 41.454 59.5285 41.09 59.2205 40.614V44.716H58.2265V34.636H59.1785V36.092C59.4772 35.6067 59.8692 35.2333 60.3545 34.972C60.8492 34.7107 61.4045 34.58 62.0205 34.58ZM61.9505 41.188C62.4638 41.188 62.9305 41.0713 63.3505 40.838C63.7705 40.5953 64.0972 40.2547 64.3305 39.816C64.5732 39.3773 64.6945 38.878 64.6945 38.318C64.6945 37.758 64.5732 37.2633 64.3305 36.834C64.0972 36.3953 63.7705 36.0547 63.3505 35.812C62.9305 35.5693 62.4638 35.448 61.9505 35.448C61.4278 35.448 60.9565 35.5693 60.5365 35.812C60.1258 36.0547 59.7992 36.3953 59.5565 36.834C59.3232 37.2633 59.2065 37.758 59.2065 38.318C59.2065 38.878 59.3232 39.3773 59.5565 39.816C59.7992 40.2547 60.1258 40.5953 60.5365 40.838C60.9565 41.0713 61.4278 41.188 61.9505 41.188ZM72.5142 38.192C73.5128 38.4253 74.0122 39.0273 74.0122 39.998C74.0122 40.642 73.7742 41.1367 73.2982 41.482C72.8222 41.8273 72.1128 42 71.1702 42H67.8242V34.636H71.0722C71.9122 34.636 72.5702 34.7993 73.0462 35.126C73.5222 35.4527 73.7602 35.9193 73.7602 36.526C73.7602 36.9273 73.6482 37.2727 73.4242 37.562C73.2095 37.842 72.9062 38.052 72.5142 38.192ZM68.7902 37.912H71.0022C71.5715 37.912 72.0055 37.8047 72.3042 37.59C72.6122 37.3753 72.7662 37.0627 72.7662 36.652C72.7662 36.2413 72.6122 35.9333 72.3042 35.728C72.0055 35.5227 71.5715 35.42 71.0022 35.42H68.7902V37.912ZM71.1282 41.216C71.7628 41.216 72.2388 41.1133 72.5562 40.908C72.8735 40.7027 73.0322 40.3807 73.0322 39.942C73.0322 39.5033 72.8875 39.1813 72.5982 38.976C72.3088 38.7613 71.8515 38.654 71.2262 38.654H68.7902V41.216H71.1282ZM76.3417 34.636H77.3357V40.488L82.2497 34.636H83.1317V42H82.1377V36.148L77.2377 42H76.3417V34.636ZM89.0604 42.07C88.3324 42.07 87.6791 41.9113 87.1004 41.594C86.5311 41.2767 86.0831 40.8333 85.7564 40.264C85.4297 39.6853 85.2664 39.0367 85.2664 38.318C85.2664 37.5993 85.4297 36.9553 85.7564 36.386C86.0831 35.8167 86.5311 35.3733 87.1004 35.056C87.6791 34.7387 88.3324 34.58 89.0604 34.58C89.6951 34.58 90.2597 34.706 90.7544 34.958C91.2584 35.2007 91.6551 35.56 91.9444 36.036L91.2024 36.54C90.9597 36.176 90.6517 35.9053 90.2784 35.728C89.9051 35.5413 89.4991 35.448 89.0604 35.448C88.5284 35.448 88.0477 35.5693 87.6184 35.812C87.1984 36.0453 86.8671 36.3813 86.6244 36.82C86.3911 37.2587 86.2744 37.758 86.2744 38.318C86.2744 38.8873 86.3911 39.3913 86.6244 39.83C86.8671 40.2593 87.1984 40.5953 87.6184 40.838C88.0477 41.0713 88.5284 41.188 89.0604 41.188C89.4991 41.188 89.9051 41.0993 90.2784 40.922C90.6517 40.7447 90.9597 40.474 91.2024 40.11L91.9444 40.614C91.6551 41.09 91.2584 41.454 90.7544 41.706C90.2504 41.9487 89.6857 42.07 89.0604 42.07ZM96.784 42.07C96.0747 42.07 95.4354 41.9113 94.866 41.594C94.2967 41.2673 93.8487 40.8193 93.522 40.25C93.1954 39.6807 93.032 39.0367 93.032 38.318C93.032 37.5993 93.1954 36.9553 93.522 36.386C93.8487 35.8167 94.2967 35.3733 94.866 35.056C95.4354 34.7387 96.0747 34.58 96.784 34.58C97.4934 34.58 98.1327 34.7387 98.702 35.056C99.2714 35.3733 99.7147 35.8167 100.032 36.386C100.359 36.9553 100.522 37.5993 100.522 38.318C100.522 39.0367 100.359 39.6807 100.032 40.25C99.7147 40.8193 99.2714 41.2673 98.702 41.594C98.1327 41.9113 97.4934 42.07 96.784 42.07ZM96.784 41.188C97.3067 41.188 97.7734 41.0713 98.184 40.838C98.604 40.5953 98.9307 40.2547 99.164 39.816C99.3974 39.3773 99.514 38.878 99.514 38.318C99.514 37.758 99.3974 37.2587 99.164 36.82C98.9307 36.3813 98.604 36.0453 98.184 35.812C97.7734 35.5693 97.3067 35.448 96.784 35.448C96.2614 35.448 95.79 35.5693 95.37 35.812C94.9594 36.0453 94.6327 36.3813 94.39 36.82C94.1567 37.2587 94.04 37.758 94.04 38.318C94.04 38.878 94.1567 39.3773 94.39 39.816C94.6327 40.2547 94.9594 40.5953 95.37 40.838C95.79 41.0713 96.2614 41.188 96.784 41.188ZM110.878 34.636V42H109.968V36.176L106.986 41.104H106.538L103.556 36.162V42H102.646V34.636H103.654L106.776 39.942L109.954 34.636H110.878ZM115.72 39.06C115.72 38.6773 115.78 38.3413 115.902 38.052C116.032 37.7627 116.191 37.5153 116.378 37.31C116.564 37.1047 116.807 36.8713 117.106 36.61C117.507 36.2553 117.801 35.9473 117.988 35.686C118.184 35.4153 118.282 35.0887 118.282 34.706C118.282 34.1927 118.081 33.782 117.68 33.474C117.278 33.1567 116.728 32.998 116.028 32.998C114.87 32.998 113.979 33.376 113.354 34.132L112.612 33.572C113.405 32.6013 114.567 32.116 116.098 32.116C117.078 32.116 117.857 32.3353 118.436 32.774C119.024 33.2127 119.318 33.8053 119.318 34.552C119.318 34.9347 119.252 35.2753 119.122 35.574C119 35.8633 118.846 36.1107 118.66 36.316C118.482 36.5213 118.244 36.7593 117.946 37.03C117.544 37.394 117.246 37.7207 117.05 38.01C116.854 38.29 116.756 38.64 116.756 39.06H115.72ZM116.238 42.07C116.032 42.07 115.86 42 115.72 41.86C115.58 41.7107 115.51 41.538 115.51 41.342C115.51 41.1367 115.58 40.9687 115.72 40.838C115.86 40.698 116.032 40.628 116.238 40.628C116.452 40.628 116.63 40.698 116.77 40.838C116.91 40.9687 116.98 41.1367 116.98 41.342C116.98 41.538 116.905 41.7107 116.756 41.86C116.616 42 116.443 42.07 116.238 42.07Z" fill="#333E63"/>
<defs>
<filter id="filter0_d_507_4764" x="0" y="0" width="134" height="88" filterUnits="userSpaceOnUse" color-interpolation-filters="sRGB">
<feFlood flood-opacity="0" result="BackgroundImageFix"/>
<feColorMatrix in="SourceAlpha" type="matrix" values="0 0 0 0 0 0 0 0 0 0 0 0 0 0 0 0 0 0 127 0" result="hardAlpha"/>
<feOffset dx="5" dy="5"/>
<feComposite in2="hardAlpha" operator="out"/>
<feColorMatrix type="matrix" values="0 0 0 0 0.2 0 0 0 0 0.243137 0 0 0 0 0.388235 0 0 0 1 0"/>
<feBlend mode="normal" in2="BackgroundImageFix" result="effect1_dropShadow_507_4764"/>
<feBlend mode="normal" in="SourceGraphic" in2="effect1_dropShadow_507_4764" result="shape"/>
</filter>
<clipPath id="clip0_507_4764">
<rect width="80" height="279" fill="white" transform="translate(1 91)"/>
</clipPath>
</defs>
</svg>
