<svg width="404" height="597" viewBox="0 0 404 597" fill="none" xmlns="http://www.w3.org/2000/svg">
<path d="M156.521 195.475C156.521 195.475 164.243 204.768 165.208 209.254C166.173 213.901 151.213 276.388 151.052 278.471C150.891 280.554 156.36 290.168 156.039 298.179C155.717 306.19 150.087 315.644 150.087 315.644L133.357 278.792C138.022 271.261 138.182 261.808 133.839 254.117C126.278 241.299 120.487 212.138 120.487 212.138L156.521 195.475Z" fill="white" stroke="#263238" stroke-linecap="round" stroke-linejoin="round"/>
<path d="M38.1244 560.147L36.9984 565.916C36.9984 565.916 23.3248 582.259 20.5901 584.822C17.8554 587.386 17.2119 596.038 17.2119 596.038H71.1019C71.1019 596.038 74.1583 584.822 73.8366 581.457C73.5148 578.093 73.5148 568.639 73.5148 568.639L38.1244 560.147Z" fill="white" stroke="#263238" stroke-miterlimit="10"/>
<path d="M18.4988 589.309C17.8554 591.552 17.5336 593.955 17.2119 596.198H71.1018C71.1018 596.198 72.067 592.834 72.7105 589.309H18.4988Z" fill="white" stroke="#263238" stroke-linecap="round" stroke-linejoin="round"/>
<path d="M148.639 560.147L149.765 565.916C149.765 565.916 163.439 582.259 166.174 584.822C168.908 587.386 169.552 596.038 169.552 596.038H115.662C115.662 596.038 112.605 584.822 112.927 581.457C113.249 578.093 113.249 568.639 113.249 568.639L148.639 560.147Z" fill="white" stroke="#263238" stroke-miterlimit="10"/>
<path d="M168.264 589.309C168.908 591.552 169.23 593.955 169.551 596.198H115.661C115.661 596.198 114.696 592.834 114.053 589.309H168.264Z" fill="white" stroke="#263238" stroke-linecap="round" stroke-linejoin="round"/>
<path d="M145.583 455.52L149.444 304.267L94.7493 293.212H92.0146L37.3203 304.267L41.1811 455.52L43.1115 550.694L37.8029 555.02L38.1246 560.147L73.515 568.8C73.515 568.8 74.3194 555.341 74.6411 553.418C74.9628 551.656 73.515 543.965 73.515 542.523C73.515 541.081 85.2582 416.746 85.2582 416.746L89.7625 347.849L93.3015 347.048L96.8405 347.849L101.345 416.746C101.345 416.746 113.088 541.081 113.088 542.523C113.088 543.965 111.64 551.656 111.962 553.418C112.284 555.18 113.088 568.8 113.088 568.8L148.478 559.987L148.8 554.86L143.492 550.534L145.583 455.52Z" fill="#263238" stroke="#263238" stroke-linecap="round" stroke-linejoin="round"/>
<path d="M62.4147 116.804L36.0327 116.163C32.172 115.362 28.3112 117.765 27.5069 121.611L2.25098 196.917L30.5633 197.557L34.9067 312.92C35.0675 315.644 37.1588 317.727 39.8935 317.887L85.2576 318.047L93.7834 317.887L100.057 317.406L145.904 307.793C148.799 306.991 150.73 304.428 150.569 301.544L146.869 217.906L170.195 204.127L158.13 136.191L111.8 114.24L62.4147 116.804Z" fill="#B0BEC5" stroke="#263238" stroke-miterlimit="10"/>
<path d="M147.191 217.746L143.652 176.889" stroke="#263238" stroke-linecap="round" stroke-linejoin="round"/>
<path d="M34.2637 188.585L43.7547 156.22" stroke="#263238" stroke-linecap="round" stroke-linejoin="round"/>
<path d="M76.411 105.108C76.411 105.108 68.5286 110.235 67.8851 112.478C67.4025 114.401 67.0808 116.163 66.9199 118.086C66.9199 118.086 71.585 161.347 73.0328 160.546C74.4806 159.584 87.0281 144.203 89.602 141.479C92.1758 138.755 96.5192 138.435 97.4844 139.236C98.4496 140.037 115.984 162.629 117.432 159.264C118.879 155.899 115.662 122.733 111.48 114.08C107.297 105.108 80.5935 101.423 76.411 105.108Z" fill="white" stroke="#263238" stroke-miterlimit="10"/>
<path d="M73.0322 94.2119L75.1235 118.566C75.1235 118.566 87.0275 154.777 94.1056 153.015C101.184 151.252 109.549 116.483 109.87 115.682C110.031 114.881 110.675 101.102 110.675 101.102C110.675 101.102 111.318 105.107 96.3577 101.743C88.1536 100.14 80.432 97.5766 73.0322 94.2119Z" fill="white" stroke="#263238" stroke-miterlimit="10"/>
<path d="M104.884 110.875L91.2102 102.223L78.1801 91.8086L76.5714 96.2949L72.5498 113.119L75.1237 118.726L104.884 110.875Z" fill="#263238" stroke="#263238" stroke-linecap="round" stroke-linejoin="round"/>
<path d="M51.4769 46.3051L57.268 70.8196C57.268 70.8196 51.316 67.6151 52.4421 75.6264C53.5681 83.4774 55.8202 90.0466 58.8767 90.3671C60.8071 90.5273 62.8983 90.6875 64.8287 90.6875C64.8287 90.6875 67.5634 100.301 70.7807 102.224C73.998 104.146 90.8889 110.555 94.1062 111.677C97.3235 112.799 106.171 110.395 108.102 109.113C110.032 107.992 115.501 94.2125 116.627 90.5273C117.914 86.8421 116.949 73.223 116.949 73.223C116.949 73.223 111.801 49.6698 110.836 42.9404C109.871 36.2109 109.388 29.9621 105.367 25.636C101.345 21.3099 86.7064 16.1827 73.1937 21.1497C59.5201 26.1167 47.9378 30.7632 51.4769 46.3051Z" fill="white" stroke="#263238" stroke-linecap="round" stroke-linejoin="round"/>
<path d="M88.1533 57.3608C88.1533 57.3608 79.1449 55.4381 72.8711 62.0073" stroke="#263238" stroke-linecap="round" stroke-linejoin="round"/>
<path d="M99.5752 55.1168C99.5752 55.1168 105.849 49.6691 110.675 53.5145" stroke="#263238" stroke-linecap="round" stroke-linejoin="round"/>
<path d="M85.5795 68.7365C85.9012 70.4989 84.936 72.1012 83.4882 72.2614C82.0404 72.4216 80.9144 71.1398 80.5926 69.3774C80.2709 67.6149 81.2361 66.0126 82.523 65.8524C83.9708 65.6922 85.2577 66.974 85.5795 68.7365Z" fill="#263238"/>
<path d="M108.243 68.5448C109.649 68.3357 110.576 66.7473 110.313 64.9969C110.051 63.2466 108.698 61.9972 107.293 62.2063C105.887 62.4154 104.96 64.0039 105.222 65.7542C105.485 67.5046 106.837 68.754 108.243 68.5448Z" fill="#263238"/>
<path d="M71.5838 28.5198C71.5838 28.5198 64.9883 43.7412 60.0015 48.548L55.0147 53.515C55.0147 53.515 61.6102 71.9409 60.9667 73.2227C60.3232 74.5045 59.1972 74.9852 58.7146 73.3829C58.232 71.7807 57.5885 70.3386 56.3016 69.858C55.0147 69.3773 50.6713 68.0955 50.6713 68.0955L42.1454 50.7911C42.1454 50.7911 35.55 45.023 36.9977 39.5754C38.2847 34.1277 43.2715 24.8346 43.2715 24.8346C43.2715 24.8346 40.0542 24.0335 41.3411 21.6301C42.628 19.2267 56.7842 18.4256 56.7842 18.4256C56.7842 18.4256 57.5885 11.2155 61.9319 9.93365C66.2753 8.65185 66.2753 10.0939 66.2753 10.0939C66.2753 10.0939 82.0401 1.28148 91.5311 0.800802C100.861 0.320125 130.621 22.1108 127.887 25.1551C125.313 28.5198 115.661 31.2436 115.661 31.2436C115.661 31.2436 116.787 57.6808 115.822 58.1615L114.535 58.6422L108.905 35.8902C108.583 36.2106 79.6271 33.647 71.5838 28.5198Z" fill="#263238" stroke="#263238" stroke-miterlimit="10"/>
<path d="M73.1931 140.357C73.1931 140.357 69.6541 121.611 71.7453 117.445C73.8366 113.279 81.719 108.793 86.3841 105.909C91.0492 103.025 93.623 104.627 91.8535 107.992C90.084 111.036 87.671 113.76 84.9363 116.484C84.9363 116.484 107.297 103.826 110.031 105.749C112.766 107.671 113.731 110.555 111.318 112.638C109.066 114.24 107.136 116.003 105.366 117.926C104.24 119.528 108.744 128.981 106.653 132.666C104.562 136.512 92.9796 142.28 87.3493 146.446C81.5581 150.612 43.2721 195.314 31.8507 201.724C20.4292 208.133 13.6729 212.298 6.27308 207.492C-1.12673 202.685 -0.965862 196.436 5.95135 187.784C12.8686 179.132 73.1931 140.357 73.1931 140.357Z" fill="white" stroke="#263238" stroke-linecap="round" stroke-linejoin="round"/>
<path d="M97.9668 94.3721L105.849 91.9688" stroke="#263238" stroke-linecap="round" stroke-linejoin="round"/>
<path d="M97.9668 65.5322C97.9668 65.5322 99.2537 73.0628 100.058 74.1844C100.862 75.1458 107.619 76.748 107.297 78.5105C106.975 80.4332 100.702 82.9968 100.702 82.9968" stroke="#263238" stroke-miterlimit="10"/>
<g filter="url(#filter0_d_1111_2756)">
<path d="M145 91.5633L194.036 117.059V145.729C194.036 150.852 198.194 155 203.329 155H388.706C393.842 155 398 150.852 398 145.729V82.2711C398 77.1476 393.842 73 388.706 73H203.452C198.316 73 194.158 77.1476 194.158 82.2711V102.786L145 91.5633Z" fill="white"/>
<path d="M144.769 92.0069C144.546 91.8908 144.444 91.627 144.531 91.3909C144.617 91.1547 144.866 91.0198 145.111 91.0758L193.658 102.159V82.2711C193.658 76.8703 198.041 72.5 203.452 72.5H388.706C394.117 72.5 398.5 76.8703 398.5 82.2711V145.729C398.5 151.13 394.117 155.5 388.706 155.5H203.329C197.919 155.5 193.536 151.13 193.536 145.729V117.362L144.769 92.0069Z" stroke="#333E63" stroke-linecap="round" stroke-linejoin="round"/>
</g>
<path d="M221.3 104.222H218.42V110H217.124V97.4H218.42V103.052H221.3L225.566 97.4H227.006L222.326 103.52L227.276 110H225.746L221.3 104.222ZM235.22 101.666H231.638V110H230.36V101.666H226.778V100.532H235.22V101.666ZM240.535 110.09C239.623 110.09 238.801 109.886 238.069 109.478C237.337 109.058 236.761 108.482 236.341 107.75C235.921 107.018 235.711 106.19 235.711 105.266C235.711 104.342 235.921 103.514 236.341 102.782C236.761 102.05 237.337 101.48 238.069 101.072C238.801 100.664 239.623 100.46 240.535 100.46C241.447 100.46 242.269 100.664 243.001 101.072C243.733 101.48 244.303 102.05 244.711 102.782C245.131 103.514 245.341 104.342 245.341 105.266C245.341 106.19 245.131 107.018 244.711 107.75C244.303 108.482 243.733 109.058 243.001 109.478C242.269 109.886 241.447 110.09 240.535 110.09ZM240.535 108.956C241.207 108.956 241.807 108.806 242.335 108.506C242.875 108.194 243.295 107.756 243.595 107.192C243.895 106.628 244.045 105.986 244.045 105.266C244.045 104.546 243.895 103.904 243.595 103.34C243.295 102.776 242.875 102.344 242.335 102.044C241.807 101.732 241.207 101.576 240.535 101.576C239.863 101.576 239.257 101.732 238.717 102.044C238.189 102.344 237.769 102.776 237.457 103.34C237.157 103.904 237.007 104.546 237.007 105.266C237.007 105.986 237.157 106.628 237.457 107.192C237.769 107.756 238.189 108.194 238.717 108.506C239.257 108.806 239.863 108.956 240.535 108.956ZM257.661 100.46C258.549 100.46 259.353 100.664 260.073 101.072C260.793 101.468 261.357 102.032 261.765 102.764C262.173 103.496 262.377 104.33 262.377 105.266C262.377 106.214 262.173 107.054 261.765 107.786C261.357 108.518 260.793 109.088 260.073 109.496C259.365 109.892 258.561 110.09 257.661 110.09C256.893 110.09 256.197 109.934 255.573 109.622C254.961 109.298 254.457 108.83 254.061 108.218V113.492H252.783V100.532H254.007V102.404C254.391 101.78 254.895 101.3 255.519 100.964C256.155 100.628 256.869 100.46 257.661 100.46ZM257.571 108.956C258.231 108.956 258.831 108.806 259.371 108.506C259.911 108.194 260.331 107.756 260.631 107.192C260.943 106.628 261.099 105.986 261.099 105.266C261.099 104.546 260.943 103.91 260.631 103.358C260.331 102.794 259.911 102.356 259.371 102.044C258.831 101.732 258.231 101.576 257.571 101.576C256.899 101.576 256.293 101.732 255.753 102.044C255.225 102.356 254.805 102.794 254.493 103.358C254.193 103.91 254.043 104.546 254.043 105.266C254.043 105.986 254.193 106.628 254.493 107.192C254.805 107.756 255.225 108.194 255.753 108.506C256.293 108.806 256.899 108.956 257.571 108.956ZM268.328 100.46C269.564 100.46 270.512 100.772 271.172 101.396C271.832 102.008 272.162 102.92 272.162 104.132V110H270.938V108.524C270.65 109.016 270.224 109.4 269.66 109.676C269.108 109.952 268.448 110.09 267.68 110.09C266.624 110.09 265.784 109.838 265.16 109.334C264.536 108.83 264.224 108.164 264.224 107.336C264.224 106.532 264.512 105.884 265.088 105.392C265.676 104.9 266.606 104.654 267.878 104.654H270.884V104.078C270.884 103.262 270.656 102.644 270.2 102.224C269.744 101.792 269.078 101.576 268.202 101.576C267.602 101.576 267.026 101.678 266.474 101.882C265.922 102.074 265.448 102.344 265.052 102.692L264.476 101.738C264.956 101.33 265.532 101.018 266.204 100.802C266.876 100.574 267.584 100.46 268.328 100.46ZM267.878 109.082C268.598 109.082 269.216 108.92 269.732 108.596C270.248 108.26 270.632 107.78 270.884 107.156V105.608H267.914C266.294 105.608 265.484 106.172 265.484 107.3C265.484 107.852 265.694 108.29 266.114 108.614C266.534 108.926 267.122 109.082 267.878 109.082ZM280.154 100.766C281.03 100.766 281.81 100.964 282.494 101.36C283.19 101.744 283.73 102.29 284.114 102.998C284.498 103.694 284.69 104.492 284.69 105.392C284.69 106.316 284.486 107.138 284.078 107.858C283.682 108.566 283.124 109.118 282.404 109.514C281.684 109.91 280.856 110.108 279.92 110.108C278.348 110.108 277.13 109.556 276.266 108.452C275.402 107.348 274.97 105.824 274.97 103.88C274.97 101.852 275.354 100.298 276.122 99.218C276.902 98.138 278.114 97.406 279.758 97.022L284.006 96.05L284.222 97.22L280.226 98.138C278.87 98.438 277.874 98.972 277.238 99.74C276.602 100.496 276.254 101.618 276.194 103.106C276.578 102.374 277.112 101.804 277.796 101.396C278.48 100.976 279.266 100.766 280.154 100.766ZM279.956 109.046C280.616 109.046 281.204 108.896 281.72 108.596C282.248 108.284 282.656 107.852 282.944 107.3C283.244 106.748 283.394 106.124 283.394 105.428C283.394 104.732 283.25 104.12 282.962 103.592C282.674 103.064 282.266 102.656 281.738 102.368C281.222 102.068 280.628 101.918 279.956 101.918C279.284 101.918 278.684 102.068 278.156 102.368C277.64 102.656 277.232 103.064 276.932 103.592C276.644 104.12 276.5 104.732 276.5 105.428C276.5 106.124 276.644 106.748 276.932 107.3C277.232 107.852 277.646 108.284 278.174 108.596C278.702 108.896 279.296 109.046 279.956 109.046ZM291.335 110.09C290.423 110.09 289.601 109.886 288.869 109.478C288.137 109.058 287.561 108.482 287.141 107.75C286.721 107.018 286.511 106.19 286.511 105.266C286.511 104.342 286.721 103.514 287.141 102.782C287.561 102.05 288.137 101.48 288.869 101.072C289.601 100.664 290.423 100.46 291.335 100.46C292.247 100.46 293.069 100.664 293.801 101.072C294.533 101.48 295.103 102.05 295.511 102.782C295.931 103.514 296.141 104.342 296.141 105.266C296.141 106.19 295.931 107.018 295.511 107.75C295.103 108.482 294.533 109.058 293.801 109.478C293.069 109.886 292.247 110.09 291.335 110.09ZM291.335 108.956C292.007 108.956 292.607 108.806 293.135 108.506C293.675 108.194 294.095 107.756 294.395 107.192C294.695 106.628 294.845 105.986 294.845 105.266C294.845 104.546 294.695 103.904 294.395 103.34C294.095 102.776 293.675 102.344 293.135 102.044C292.607 101.732 292.007 101.576 291.335 101.576C290.663 101.576 290.057 101.732 289.517 102.044C288.989 102.344 288.569 102.776 288.257 103.34C287.957 103.904 287.807 104.546 287.807 105.266C287.807 105.986 287.957 106.628 288.257 107.192C288.569 107.756 288.989 108.194 289.517 108.506C290.057 108.806 290.663 108.956 291.335 108.956ZM305.181 101.666H301.599V110H300.321V101.666H296.739V100.532H305.181V101.666ZM310.287 100.46C311.523 100.46 312.471 100.772 313.131 101.396C313.791 102.008 314.121 102.92 314.121 104.132V110H312.897V108.524C312.609 109.016 312.183 109.4 311.619 109.676C311.067 109.952 310.407 110.09 309.639 110.09C308.583 110.09 307.743 109.838 307.119 109.334C306.495 108.83 306.183 108.164 306.183 107.336C306.183 106.532 306.471 105.884 307.047 105.392C307.635 104.9 308.565 104.654 309.837 104.654H312.843V104.078C312.843 103.262 312.615 102.644 312.159 102.224C311.703 101.792 311.037 101.576 310.161 101.576C309.561 101.576 308.985 101.678 308.433 101.882C307.881 102.074 307.407 102.344 307.011 102.692L306.435 101.738C306.915 101.33 307.491 101.018 308.163 100.802C308.835 100.574 309.543 100.46 310.287 100.46ZM309.837 109.082C310.557 109.082 311.175 108.92 311.691 108.596C312.207 108.26 312.591 107.78 312.843 107.156V105.608H309.873C308.253 105.608 307.443 106.172 307.443 107.3C307.443 107.852 307.653 108.29 308.073 108.614C308.493 108.926 309.081 109.082 309.837 109.082ZM325.803 105.662H317.883C317.955 106.646 318.333 107.444 319.017 108.056C319.701 108.656 320.565 108.956 321.609 108.956C322.197 108.956 322.737 108.854 323.229 108.65C323.721 108.434 324.147 108.122 324.507 107.714L325.227 108.542C324.807 109.046 324.279 109.43 323.643 109.694C323.019 109.958 322.329 110.09 321.573 110.09C320.601 110.09 319.737 109.886 318.981 109.478C318.237 109.058 317.655 108.482 317.235 107.75C316.815 107.018 316.605 106.19 316.605 105.266C316.605 104.342 316.803 103.514 317.199 102.782C317.607 102.05 318.159 101.48 318.855 101.072C319.563 100.664 320.355 100.46 321.231 100.46C322.107 100.46 322.893 100.664 323.589 101.072C324.285 101.48 324.831 102.05 325.227 102.782C325.623 103.502 325.821 104.33 325.821 105.266L325.803 105.662ZM321.231 101.558C320.319 101.558 319.551 101.852 318.927 102.44C318.315 103.016 317.967 103.772 317.883 104.708H324.597C324.513 103.772 324.159 103.016 323.535 102.44C322.923 101.852 322.155 101.558 321.231 101.558ZM334.888 101.666H331.306V110H330.028V101.666H326.446V100.532H334.888V101.666ZM341.447 100.532H342.725V104.726H348.683V100.532H349.961V110H348.683V105.824H342.725V110H341.447V100.532ZM356.851 100.46C358.087 100.46 359.035 100.772 359.695 101.396C360.355 102.008 360.685 102.92 360.685 104.132V110H359.461V108.524C359.173 109.016 358.747 109.4 358.183 109.676C357.631 109.952 356.971 110.09 356.203 110.09C355.147 110.09 354.307 109.838 353.683 109.334C353.059 108.83 352.747 108.164 352.747 107.336C352.747 106.532 353.035 105.884 353.611 105.392C354.199 104.9 355.129 104.654 356.401 104.654H359.407V104.078C359.407 103.262 359.179 102.644 358.723 102.224C358.267 101.792 357.601 101.576 356.725 101.576C356.125 101.576 355.549 101.678 354.997 101.882C354.445 102.074 353.971 102.344 353.575 102.692L352.999 101.738C353.479 101.33 354.055 101.018 354.727 100.802C355.399 100.574 356.107 100.46 356.851 100.46ZM356.401 109.082C357.121 109.082 357.739 108.92 358.255 108.596C358.771 108.26 359.155 107.78 359.407 107.156V105.608H356.437C354.817 105.608 354.007 106.172 354.007 107.3C354.007 107.852 354.217 108.29 354.637 108.614C355.057 108.926 355.645 109.082 356.401 109.082ZM373.322 108.884V112.286H372.116V110H363.638V112.286H362.432V108.884H362.972C363.608 108.848 364.04 108.38 364.268 107.48C364.496 106.58 364.652 105.32 364.736 103.7L364.862 100.532H371.846V108.884H373.322ZM365.906 103.772C365.846 105.116 365.732 106.226 365.564 107.102C365.396 107.966 365.096 108.56 364.664 108.884H370.568V101.666H366.014L365.906 103.772ZM220.778 132.09C219.842 132.09 219.002 131.886 218.258 131.478C217.526 131.07 216.95 130.5 216.53 129.768C216.11 129.024 215.9 128.19 215.9 127.266C215.9 126.342 216.11 125.514 216.53 124.782C216.95 124.05 217.526 123.48 218.258 123.072C219.002 122.664 219.842 122.46 220.778 122.46C221.594 122.46 222.32 122.622 222.956 122.946C223.604 123.258 224.114 123.72 224.486 124.332L223.532 124.98C223.22 124.512 222.824 124.164 222.344 123.936C221.864 123.696 221.342 123.576 220.778 123.576C220.094 123.576 219.476 123.732 218.924 124.044C218.384 124.344 217.958 124.776 217.646 125.34C217.346 125.904 217.196 126.546 217.196 127.266C217.196 127.998 217.346 128.646 217.646 129.21C217.958 129.762 218.384 130.194 218.924 130.506C219.476 130.806 220.094 130.956 220.778 130.956C221.342 130.956 221.864 130.842 222.344 130.614C222.824 130.386 223.22 130.038 223.532 129.57L224.486 130.218C224.114 130.83 223.604 131.298 222.956 131.622C222.308 131.934 221.582 132.09 220.778 132.09ZM235.082 127.662H227.162C227.234 128.646 227.612 129.444 228.296 130.056C228.98 130.656 229.844 130.956 230.888 130.956C231.476 130.956 232.016 130.854 232.508 130.65C233 130.434 233.426 130.122 233.786 129.714L234.506 130.542C234.086 131.046 233.558 131.43 232.922 131.694C232.298 131.958 231.608 132.09 230.852 132.09C229.88 132.09 229.016 131.886 228.26 131.478C227.516 131.058 226.934 130.482 226.514 129.75C226.094 129.018 225.884 128.19 225.884 127.266C225.884 126.342 226.082 125.514 226.478 124.782C226.886 124.05 227.438 123.48 228.134 123.072C228.842 122.664 229.634 122.46 230.51 122.46C231.386 122.46 232.172 122.664 232.868 123.072C233.564 123.48 234.11 124.05 234.506 124.782C234.902 125.502 235.1 126.33 235.1 127.266L235.082 127.662ZM230.51 123.558C229.598 123.558 228.83 123.852 228.206 124.44C227.594 125.016 227.246 125.772 227.162 126.708H233.876C233.792 125.772 233.438 125.016 232.814 124.44C232.202 123.852 231.434 123.558 230.51 123.558ZM242.807 122.46C243.695 122.46 244.499 122.664 245.219 123.072C245.939 123.468 246.503 124.032 246.911 124.764C247.319 125.496 247.523 126.33 247.523 127.266C247.523 128.214 247.319 129.054 246.911 129.786C246.503 130.518 245.939 131.088 245.219 131.496C244.511 131.892 243.707 132.09 242.807 132.09C242.039 132.09 241.343 131.934 240.719 131.622C240.107 131.298 239.603 130.83 239.207 130.218V135.492H237.929V122.532H239.153V124.404C239.537 123.78 240.041 123.3 240.665 122.964C241.301 122.628 242.015 122.46 242.807 122.46ZM242.717 130.956C243.377 130.956 243.977 130.806 244.517 130.506C245.057 130.194 245.477 129.756 245.777 129.192C246.089 128.628 246.245 127.986 246.245 127.266C246.245 126.546 246.089 125.91 245.777 125.358C245.477 124.794 245.057 124.356 244.517 124.044C243.977 123.732 243.377 123.576 242.717 123.576C242.045 123.576 241.439 123.732 240.899 124.044C240.371 124.356 239.951 124.794 239.639 125.358C239.339 125.91 239.189 126.546 239.189 127.266C239.189 127.986 239.339 128.628 239.639 129.192C239.951 129.756 240.371 130.194 240.899 130.506C241.439 130.806 242.045 130.956 242.717 130.956ZM256.299 127.104C257.583 127.404 258.225 128.178 258.225 129.426C258.225 130.254 257.919 130.89 257.307 131.334C256.695 131.778 255.783 132 254.571 132H250.269V122.532H254.445C255.525 122.532 256.371 122.742 256.983 123.162C257.595 123.582 257.901 124.182 257.901 124.962C257.901 125.478 257.757 125.922 257.469 126.294C257.193 126.654 256.803 126.924 256.299 127.104ZM251.511 126.744H254.355C255.087 126.744 255.645 126.606 256.029 126.33C256.425 126.054 256.623 125.652 256.623 125.124C256.623 124.596 256.425 124.2 256.029 123.936C255.645 123.672 255.087 123.54 254.355 123.54H251.511V126.744ZM254.517 130.992C255.333 130.992 255.945 130.86 256.353 130.596C256.761 130.332 256.965 129.918 256.965 129.354C256.965 128.79 256.779 128.376 256.407 128.112C256.035 127.836 255.447 127.698 254.643 127.698H251.511V130.992H254.517ZM261.22 122.532H262.498V130.056L268.816 122.532H269.95V132H268.672V124.476L262.372 132H261.22V122.532ZM277.573 132.09C276.637 132.09 275.797 131.886 275.053 131.478C274.321 131.07 273.745 130.5 273.325 129.768C272.905 129.024 272.695 128.19 272.695 127.266C272.695 126.342 272.905 125.514 273.325 124.782C273.745 124.05 274.321 123.48 275.053 123.072C275.797 122.664 276.637 122.46 277.573 122.46C278.389 122.46 279.115 122.622 279.751 122.946C280.399 123.258 280.909 123.72 281.281 124.332L280.327 124.98C280.015 124.512 279.619 124.164 279.139 123.936C278.659 123.696 278.137 123.576 277.573 123.576C276.889 123.576 276.271 123.732 275.719 124.044C275.179 124.344 274.753 124.776 274.441 125.34C274.141 125.904 273.991 126.546 273.991 127.266C273.991 127.998 274.141 128.646 274.441 129.21C274.753 129.762 275.179 130.194 275.719 130.506C276.271 130.806 276.889 130.956 277.573 130.956C278.137 130.956 278.659 130.842 279.139 130.614C279.619 130.386 280.015 130.038 280.327 129.57L281.281 130.218C280.909 130.83 280.399 131.298 279.751 131.622C279.103 131.934 278.377 132.09 277.573 132.09ZM287.503 132.09C286.591 132.09 285.769 131.886 285.037 131.478C284.305 131.058 283.729 130.482 283.309 129.75C282.889 129.018 282.679 128.19 282.679 127.266C282.679 126.342 282.889 125.514 283.309 124.782C283.729 124.05 284.305 123.48 285.037 123.072C285.769 122.664 286.591 122.46 287.503 122.46C288.415 122.46 289.237 122.664 289.969 123.072C290.701 123.48 291.271 124.05 291.679 124.782C292.099 125.514 292.309 126.342 292.309 127.266C292.309 128.19 292.099 129.018 291.679 129.75C291.271 130.482 290.701 131.058 289.969 131.478C289.237 131.886 288.415 132.09 287.503 132.09ZM287.503 130.956C288.175 130.956 288.775 130.806 289.303 130.506C289.843 130.194 290.263 129.756 290.563 129.192C290.863 128.628 291.013 127.986 291.013 127.266C291.013 126.546 290.863 125.904 290.563 125.34C290.263 124.776 289.843 124.344 289.303 124.044C288.775 123.732 288.175 123.576 287.503 123.576C286.831 123.576 286.225 123.732 285.685 124.044C285.157 124.344 284.737 124.776 284.425 125.34C284.125 125.904 283.975 126.546 283.975 127.266C283.975 127.986 284.125 128.628 284.425 129.192C284.737 129.756 285.157 130.194 285.685 130.506C286.225 130.806 286.831 130.956 287.503 130.956ZM305.625 122.532V132H304.455V124.512L300.621 130.848H300.045L296.211 124.494V132H295.041V122.532H296.337L300.351 129.354L304.437 122.532H305.625ZM311.849 128.22C311.849 127.728 311.927 127.296 312.083 126.924C312.251 126.552 312.455 126.234 312.695 125.97C312.935 125.706 313.247 125.406 313.631 125.07C314.147 124.614 314.525 124.218 314.765 123.882C315.017 123.534 315.143 123.114 315.143 122.622C315.143 121.962 314.885 121.434 314.369 121.038C313.853 120.63 313.145 120.426 312.245 120.426C310.757 120.426 309.611 120.912 308.807 121.884L307.853 121.164C308.873 119.916 310.367 119.292 312.335 119.292C313.595 119.292 314.597 119.574 315.341 120.138C316.097 120.702 316.475 121.464 316.475 122.424C316.475 122.916 316.391 123.354 316.223 123.738C316.067 124.11 315.869 124.428 315.629 124.692C315.401 124.956 315.095 125.262 314.711 125.61C314.195 126.078 313.811 126.498 313.559 126.87C313.307 127.23 313.181 127.68 313.181 128.22H311.849ZM312.515 132.09C312.251 132.09 312.029 132 311.849 131.82C311.669 131.628 311.579 131.406 311.579 131.154C311.579 130.89 311.669 130.674 311.849 130.506C312.029 130.326 312.251 130.236 312.515 130.236C312.791 130.236 313.019 130.326 313.199 130.506C313.379 130.674 313.469 130.89 313.469 131.154C313.469 131.406 313.373 131.628 313.181 131.82C313.001 132 312.779 132.09 312.515 132.09Z" fill="#333E63"/>
<defs>
<filter id="filter0_d_1111_2756" x="144" y="72" width="260" height="89" filterUnits="userSpaceOnUse" color-interpolation-filters="sRGB">
<feFlood flood-opacity="0" result="BackgroundImageFix"/>
<feColorMatrix in="SourceAlpha" type="matrix" values="0 0 0 0 0 0 0 0 0 0 0 0 0 0 0 0 0 0 127 0" result="hardAlpha"/>
<feOffset dx="5" dy="5"/>
<feComposite in2="hardAlpha" operator="out"/>
<feColorMatrix type="matrix" values="0 0 0 0 0.2 0 0 0 0 0.243137 0 0 0 0 0.388235 0 0 0 1 0"/>
<feBlend mode="normal" in2="BackgroundImageFix" result="effect1_dropShadow_1111_2756"/>
<feBlend mode="normal" in="SourceGraphic" in2="effect1_dropShadow_1111_2756" result="shape"/>
</filter>
</defs>
</svg>
