<svg width="203" height="392" viewBox="0 0 203 392" fill="none" xmlns="http://www.w3.org/2000/svg">
<g clip-path="url(#clip0_507_4765)">
<path d="M97.8685 228.946C97.8685 228.946 92.5921 252.153 92.3659 263.039C92.1398 273.924 92.7428 313.232 92.969 321.623C93.1951 330.014 96.8886 357.378 96.8886 359.873C96.8886 362.368 97.4916 367.054 97.4916 367.054L95.8333 375.899C94.2504 377.108 92.5167 378.242 90.7076 379.225C87.0141 381.266 82.7176 383.987 81.5115 385.423C80.9839 386.028 81.0593 386.935 81.6623 387.464C81.8131 387.54 81.9638 387.691 82.1146 387.691C83.5467 388.296 85.1297 388.598 86.7126 388.75C90.18 388.976 95.9087 388.976 98.9992 388.145C102.09 387.313 104.577 384.668 106.009 383.609L107.441 382.551L107.668 384.819C108.346 384.743 109.024 384.592 109.703 384.441C111.21 383.987 112.643 383.382 113.999 382.626C113.999 382.626 114.225 379.149 114.225 377.033C114.225 374.916 113.17 371.288 113.019 370.456C112.869 369.625 113.019 362.216 112.416 359.797C111.813 357.378 111.361 357.908 110.984 353.448C110.607 348.988 114.301 306.127 114.075 304.917C113.849 303.708 119.276 266.591 119.276 266.591C119.276 266.591 129.678 314.971 132.919 324.269C136.16 333.567 137.819 351.407 137.819 352.616C137.819 353.826 139.703 368.415 140.457 370.532C141.211 372.648 143.547 378.922 143.547 378.922C143.547 378.922 146.864 383.836 148.296 386.331C149.728 388.825 154.628 390.866 158.321 391.471C162.015 392.076 164.879 392.302 165.105 387.389C165.332 382.475 163.447 379.149 160.357 376.881C157.266 374.614 156.588 372.497 156.588 372.497C156.814 369.473 156.814 366.45 156.588 363.426C156.211 359.949 153.95 357.227 153.723 350.046C153.497 342.865 152.065 304.993 150.859 299.021C149.653 293.049 147.995 253.136 148.221 247.618C148.447 242.099 147.693 226.603 147.693 226.603L97.7931 225.998L97.8685 228.946Z" fill="#263238" stroke="#263238" stroke-width="0.75" stroke-miterlimit="10"/>
<path d="M117.467 146.096C117.467 146.096 109.854 150.632 104.427 153.278C98.9993 155.923 92.4415 157.511 91.7631 159.023C91.0847 160.535 79.4765 185.405 77.2152 188.806C74.9538 192.208 69.7528 198.785 70.8081 202.489C71.8633 206.193 76.0091 211.257 78.7227 210.955C81.4363 210.653 86.8635 209.065 89.0495 205.21C91.2354 201.355 96.5119 188.806 96.5119 188.806C96.5119 188.806 97.341 200.448 97.1903 206.268C97.0395 212.089 97.0395 216.776 96.6626 219.648C96.2857 222.521 94.7782 226.074 95.4566 227.132C96.135 228.19 96.9641 229.173 97.7933 229.022C98.6224 228.87 111.286 228.719 115.13 228.87C118.974 229.022 136.537 228.87 140.306 229.022C144.075 229.173 147.241 227.359 147.543 226.678C147.844 225.998 148.598 225.015 148.221 221.236C147.844 217.456 148.598 206.193 149.578 201.808C150.558 197.424 156.663 180.491 156.663 180.491C156.663 180.491 172.719 193.191 176.111 194.173C179.503 195.156 188.623 193.644 191.639 189.94C194.654 186.236 195.709 183.364 193.824 180.793C191.94 178.299 185.231 175.88 178.146 168.245C171.06 160.61 168.347 157.057 163.447 154.714C158.548 152.37 148.598 149.12 146.261 148.137C143.924 147.155 143.246 146.625 141.738 145.945C140.231 145.265 136.688 143.904 130.055 143.753C125.758 143.677 121.462 144.509 117.467 146.096Z" fill="#B0BEC5" stroke="#263238" stroke-width="0.75" stroke-miterlimit="10"/>
<path d="M93.1198 176.863C93.3459 177.694 96.5118 188.882 96.5118 188.882L91.8384 179.584" stroke="#263238" stroke-width="0.75" stroke-miterlimit="10"/>
<path d="M156.739 180.416C156.06 180.416 149.427 176.636 149.427 176.636" stroke="#263238" stroke-width="0.75" stroke-miterlimit="10"/>
<path d="M146.035 176.182C146.035 176.182 148.673 179.66 151.01 180.415" stroke="#263238" stroke-width="0.75" stroke-miterlimit="10"/>
<path d="M116.562 156.453L118.672 164.466C118.672 164.466 111.964 198.104 110.908 203.774C110.23 207.176 109.853 210.653 109.627 214.13L115.506 225.771L122.893 213.147C122.893 213.147 122.215 197.197 121.914 184.498C121.612 171.798 122.14 165.599 121.989 165.297C121.838 164.995 129.376 159.401 129.376 159.401C129.376 159.401 133.748 154.563 133.974 153.731C134.2 152.9 130.959 153.958 130.205 154.714C128.547 156.075 126.361 156.604 124.326 156.15C121.235 155.546 117.24 152.144 116.712 153.807C116.411 154.638 116.336 155.546 116.562 156.453Z" fill="#263238" stroke="#263238" stroke-width="0.75" stroke-miterlimit="10"/>
<path d="M121.612 142.77C121.236 142.997 118.447 143.753 117.467 146.096C116.487 148.44 111.738 159.325 110.306 161.064C108.874 162.802 111.135 162.122 113.019 160.913C114.904 159.703 116.562 155.167 117.617 157.133C118.673 159.098 121.763 159.93 121.763 159.93C121.763 159.93 128.095 158.72 129.527 157.813C130.507 157.133 131.412 156.377 132.241 155.545C132.241 155.545 137.668 163.709 139.175 164.39C140.683 165.07 140.985 163.936 141.06 162.651C141.588 157.889 142.492 153.202 143.774 148.591C145.281 143.526 142.341 141.863 140.457 139.747C138.572 137.63 136.462 139.066 134.351 139.293C132.241 139.52 121.612 142.77 121.612 142.77Z" fill="#B0BEC5" stroke="#263238" stroke-width="0.75" stroke-miterlimit="10"/>
<path d="M149.502 218.288C149.502 218.288 146.11 218.136 145.281 217.985C144.452 217.834 141.738 215.264 140.532 215.415C139.326 215.566 137.14 217.985 136.311 219.951C135.482 221.916 135.105 222.974 135.105 222.974C135.105 222.974 132.09 225.696 133.597 227.51C135.105 229.324 136.839 228.719 136.839 228.719C136.839 228.719 137.819 230.382 139.175 230.609C140.155 230.685 141.211 230.76 142.19 230.76C143.095 231.063 144 231.138 144.904 231.063C145.658 230.912 146.336 230.609 146.939 230.231C147.618 230.307 148.371 230.156 148.974 229.702C149.577 229.249 152.593 226.149 154.1 224.562L155.005 223.579L149.502 218.288Z" fill="white" stroke="#263238" stroke-width="0.75" stroke-miterlimit="10"/>
<path d="M177.694 183.439C177.694 183.439 171.437 190.394 169.402 193.72C166.161 198.86 162.618 203.849 158.774 208.612C156.437 211.333 148.146 217.91 148.146 217.91C148.146 217.91 150.708 223.352 152.517 224.184C153.573 224.713 154.703 225.091 155.909 225.393L162.693 220.328C162.693 220.328 175.508 210.501 182.292 204.908C189.076 199.314 198.498 191.906 199.176 188.655C199.855 185.405 199.327 183.742 195.935 181.247C193.824 179.66 191.488 178.526 189 177.694" fill="#B0BEC5"/>
<path d="M177.694 183.439C177.694 183.439 171.437 190.394 169.402 193.72C166.161 198.86 162.618 203.849 158.774 208.612C156.437 211.333 148.146 217.909 148.146 217.909C148.146 217.909 150.708 223.352 152.517 224.184C153.573 224.713 154.703 225.091 155.909 225.393L162.693 220.328C162.693 220.328 175.508 210.501 182.292 204.908C189.076 199.314 198.498 191.906 199.176 188.655C199.855 185.405 199.327 183.742 195.935 181.247C193.824 179.66 191.488 178.526 189 177.694" stroke="#263238" stroke-width="0.75" stroke-miterlimit="10"/>
<path d="M153.422 213.752C153.422 213.752 154.929 221.236 160.206 221.236" stroke="#263238" stroke-width="0.75" stroke-miterlimit="10"/>
<path d="M79.8532 158.872C79.8532 158.872 80.5316 164.843 80.9085 167.489C80.9839 168.85 81.4361 170.135 82.0392 171.344C82.0392 171.344 76.5366 183.591 76.3105 183.968C76.0843 184.346 70.3556 195.081 69.4511 196.366C68.5465 197.651 66.2852 201.733 67.7174 204.303C69.1496 206.873 71.3355 212.089 74.1999 212.24C77.0642 212.391 81.21 210.577 83.999 208.99C86.788 207.402 87.6925 206.268 87.994 201.657C88.2955 197.046 88.0694 188.58 88.8985 184.195C89.7277 179.735 90.3307 175.124 90.8584 173.385C91.386 171.647 94.8534 172.252 95.984 171.496C97.1147 170.74 98.17 169.303 100.281 168.321C102.09 167.64 104.049 167.489 106.009 167.867C106.688 168.094 107.969 167.036 107.668 165.751C107.366 164.466 104.954 163.785 102.693 164.012C100.431 164.239 98.2454 164.919 97.7177 164.617C97.1901 164.314 96.5871 158.116 96.5871 158.116C96.5871 158.116 88.2955 158.796 85.4312 158.947C82.5668 159.098 79.8532 158.872 79.8532 158.872Z" fill="white" stroke="#263238" stroke-width="0.75" stroke-miterlimit="10"/>
<path d="M92.667 154.336C92.667 154.336 92.8177 162.046 92.8177 162.727C92.8177 163.407 93.3454 163.936 94.0238 163.861H94.0992C94.7022 163.785 96.2098 164.314 96.5866 162.576C96.9635 160.837 97.6419 155.923 97.265 154.79C96.8882 153.656 93.7223 153.202 92.667 154.336Z" fill="white" stroke="#263238" stroke-width="0.75" stroke-miterlimit="10"/>
<path d="M92.6674 154.336C92.6674 154.336 88.9739 153.429 87.9187 153.958C86.8634 154.487 88.5217 162.802 88.5971 163.483C88.6724 164.163 90.3307 164.541 91.0091 164.314C91.6875 164.087 92.7428 163.634 92.7428 162.651C92.7428 161.668 92.6674 154.336 92.6674 154.336Z" fill="white" stroke="#263238" stroke-width="0.75" stroke-miterlimit="10"/>
<path d="M87.0896 154.26C87.0896 154.26 84.6775 153.807 83.9237 154.638C83.1699 155.47 83.0191 156.604 83.2453 158.72C83.5468 160.761 84.1498 162.802 85.1297 164.692C85.582 165.373 87.0896 165.524 88.0695 165.146C89.0494 164.768 88.6725 163.634 88.6725 163.634C88.6725 163.634 88.2202 163.18 88.0695 159.552C87.9187 155.923 87.9941 154.034 87.9941 154.034L87.0896 154.26Z" fill="white" stroke="#263238" stroke-width="0.75" stroke-miterlimit="10"/>
<path d="M83.0193 155.621C82.5671 155.697 79.6273 155.848 79.552 157.057C79.4766 158.267 80.4565 163.709 80.9841 164.314C81.5118 164.919 82.7178 164.692 83.1701 164.39C83.6224 164.087 84.4515 163.785 84.3008 163.105C84.15 162.424 83.0193 155.621 83.0193 155.621Z" fill="white" stroke="#263238" stroke-width="0.75" stroke-miterlimit="10"/>
<path d="M83.9239 178.752C82.1902 178.45 80.758 177.316 80.155 175.729C78.5721 179.282 76.5369 183.817 76.3861 184.044C76.16 184.422 70.4313 195.156 69.5268 196.441C68.6222 197.726 66.3609 201.808 67.7931 204.378C69.2253 206.949 71.4112 212.165 74.2756 212.316C77.1399 212.467 81.2857 210.653 84.0747 209.065C86.8636 207.478 87.7682 206.344 88.0697 201.733C88.3712 197.122 88.1451 188.655 88.9742 184.271C89.3511 182.079 89.728 179.886 90.0295 177.921C88.0697 178.526 86.0345 178.828 83.9239 178.752Z" fill="#B0BEC5" stroke="#263238" stroke-width="0.75" stroke-miterlimit="10"/>
<path d="M89.2753 165.902C89.2753 165.902 87.3154 167.64 87.0893 169.152C86.9385 170.135 87.1647 171.118 87.6923 171.949" fill="white"/>
<path d="M89.2753 165.902C89.2753 165.902 87.3154 167.64 87.0893 169.152C86.9385 170.135 87.1647 171.118 87.6923 171.949" stroke="#263238" stroke-width="0.75" stroke-miterlimit="10"/>
<path d="M120.18 134.455C120.708 135.74 121.009 137.101 121.311 138.462C121.311 139.369 120.557 153.429 121.914 152.975C123.271 152.371 137.065 143.073 137.668 141.561C138.271 140.049 137.291 130.902 137.668 128.635C138.045 126.367 138.798 122.965 138.798 122.965C138.798 122.965 133.296 128.635 128.924 131.129C126.135 132.565 123.195 133.624 120.18 134.455Z" fill="white" stroke="#263238" stroke-linecap="round" stroke-linejoin="round"/>
<path d="M121.31 138.386C121.31 138.915 121.084 142.468 121.084 146.021L133.597 133.17L120.331 134.909C120.783 135.967 121.16 137.176 121.31 138.386Z" fill="#263238" stroke="#263238" stroke-linecap="round" stroke-linejoin="round"/>
<path d="M113.999 112.08C113.396 112.004 106.009 112.609 105.632 106.561C105.255 103.235 107.29 100.136 110.532 99.0776C110.532 99.0776 105.858 94.0129 111.813 91.216C117.768 88.419 124.853 89.9309 124.853 89.9309C124.853 89.9309 124.175 85.3197 129.678 86.6048C135.18 87.8899 138.949 94.2397 139.025 94.7688C139.175 95.3736 146.788 97.8681 149.276 101.799C151.763 105.73 151.085 110.946 149.05 114.347C147.09 117.371 144.979 120.319 142.643 123.116C141.21 124.25 139.251 124.477 137.668 123.797C134.728 122.587 132.844 121.68 132.994 119.261C133.145 116.842 132.316 110.417 131.637 109.585C130.959 108.829 129.15 108.451 125.457 109.131C121.838 110.039 113.999 112.08 113.999 112.08Z" fill="#263238" stroke="#263238" stroke-linecap="round" stroke-linejoin="round"/>
<path d="M113.848 110.265C113.848 110.265 113.471 115.784 113.019 117.371C111.813 122.814 110.909 128.332 110.306 133.926C110.08 137.479 113.848 140.351 115.808 140.427C117.843 140.503 121.085 138.839 124.1 138.235C127.115 137.554 135.256 134.757 136.537 132.943C137.818 130.978 138.271 130.524 138.271 130.524C138.271 130.524 144.527 129.39 145.432 124.174C146.336 119.034 143.02 118.429 140.532 119.639C139.175 120.319 137.969 121.075 136.839 121.982C136.839 121.982 135.03 121.831 135.331 120.47C135.633 119.639 135.783 118.732 135.934 117.9C136.009 116.918 135.406 116.313 134.803 114.045C134.125 111.853 133.748 111.928 134.653 110.039C135.557 108.073 137.366 104.672 137.366 104.672C137.366 104.672 120.331 105.352 113.848 110.265Z" fill="white" stroke="#263238" stroke-linecap="round" stroke-linejoin="round"/>
<path d="M122.14 111.626C122.14 111.626 125.079 111.248 127.039 112.533" stroke="#263238" stroke-linecap="round" stroke-linejoin="round"/>
<path d="M117.09 111.248C116.185 110.719 114.979 110.719 114 111.097" stroke="#263238" stroke-linecap="round" stroke-linejoin="round"/>
<path d="M114.979 128.483C114.979 128.483 117.466 129.844 120.858 127.501" stroke="#263238" stroke-linecap="round" stroke-linejoin="round"/>
<path d="M124.778 115.632C124.703 116.313 124.1 116.766 123.497 116.691C122.818 116.615 122.366 116.01 122.441 115.406C122.517 114.725 123.12 114.272 123.723 114.347C124.401 114.423 124.853 114.952 124.778 115.632Z" fill="#263238"/>
<path d="M116.11 114.423C116.11 115.028 115.582 115.406 115.055 115.33C114.452 115.33 114.075 114.801 114.15 114.272C114.15 113.667 114.678 113.289 115.205 113.365C115.809 113.365 116.185 113.894 116.11 114.423Z" fill="#263238"/>
<path d="M119.2 113.138C119.2 113.138 117.918 117.447 119.954 119.185C122.064 120.924 127.039 120.47 128.321 119.11C129.602 117.749 130.431 114.272 130.431 114.272C130.431 114.272 124.25 112.155 119.2 113.138Z" stroke="#263238" stroke-linecap="round" stroke-linejoin="round"/>
<path d="M116.863 113.062C116.863 113.062 117.316 117.447 115.582 118.958C113.848 120.47 110.155 119.412 109.326 117.976C108.572 116.539 108.346 112.987 108.346 112.987C108.346 112.987 113.245 111.475 116.863 113.062Z" stroke="#263238" stroke-linecap="round" stroke-linejoin="round"/>
<path d="M116.863 113.062C116.863 113.062 117.542 112.458 119.2 113.213" stroke="#263238" stroke-linecap="round" stroke-linejoin="round"/>
<path d="M130.431 114.65L139.024 120.168" stroke="#263238" stroke-linecap="round" stroke-linejoin="round"/>
<path d="M117.768 114.65C117.768 114.65 109.929 121 110.532 123.192C111.21 125.384 117.768 125.308 117.768 125.308" fill="white"/>
<path d="M117.768 114.65C117.768 114.65 109.929 121 110.532 123.192C111.21 125.384 117.768 125.308 117.768 125.308" stroke="#263238" stroke-linecap="round" stroke-linejoin="round"/>
</g>
<g filter="url(#filter0_d_507_4765)">
<path d="M97.5633 84L93.0587 66.9641L187.729 66.9641C192.852 66.9641 197 62.8065 197 57.6705L197 10.2936C197 5.15765 192.852 1 187.729 1L10.2711 1.00001C5.14759 1.00001 0.999997 5.15766 0.999997 10.2936L0.999999 57.5483C0.999999 62.6842 5.1476 66.8419 10.2711 66.8419L78.7861 66.8418L97.5633 84Z" fill="white"/>
<path d="M98.0467 83.8722C98.1034 84.0866 98.012 84.3128 97.8222 84.4277C97.6325 84.5426 97.3897 84.5187 97.226 84.3691L78.5921 67.3418L10.2711 67.3419C4.87031 67.3419 0.499999 62.9592 0.499999 57.5483L0.499997 10.2936C0.499997 4.88266 4.87031 0.500008 10.2711 0.500008L187.729 0.5C193.13 0.5 197.5 4.88265 197.5 10.2936L197.5 57.6705C197.5 63.0815 193.13 67.4641 187.729 67.4641L93.7081 67.4641L98.0467 83.8722Z" stroke="#333E63" stroke-linecap="round" stroke-linejoin="round"/>
</g>
<path d="M23.842 13.2V23H22.82V18.478H16.688V23H15.652V13.2H16.688V17.568H22.82V13.2H23.842ZM29.446 15.58C30.4074 15.58 31.1447 15.8227 31.658 16.308C32.1714 16.784 32.428 17.4933 32.428 18.436V23H31.476V21.852C31.252 22.2347 30.9207 22.5333 30.482 22.748C30.0527 22.9627 29.5394 23.07 28.942 23.07C28.1207 23.07 27.4674 22.874 26.982 22.482C26.4967 22.09 26.254 21.572 26.254 20.928C26.254 20.3027 26.478 19.7987 26.926 19.416C27.3834 19.0333 28.1067 18.842 29.096 18.842H31.434V18.394C31.434 17.7593 31.2567 17.2787 30.902 16.952C30.5474 16.616 30.0294 16.448 29.348 16.448C28.8814 16.448 28.4334 16.5273 28.004 16.686C27.5747 16.8353 27.206 17.0453 26.898 17.316L26.45 16.574C26.8234 16.2567 27.2714 16.014 27.794 15.846C28.3167 15.6687 28.8674 15.58 29.446 15.58ZM29.096 22.286C29.656 22.286 30.1367 22.16 30.538 21.908C30.9394 21.6467 31.238 21.2733 31.434 20.788V19.584H29.124C27.864 19.584 27.234 20.0227 27.234 20.9C27.234 21.3293 27.3974 21.67 27.724 21.922C28.0507 22.1647 28.508 22.286 29.096 22.286ZM45.2382 15.636V23H35.0742V15.636H36.0682V22.132H39.6802V15.636H40.6742V22.132H44.2442V15.636H45.2382ZM50.6101 15.58C51.5714 15.58 52.3088 15.8227 52.8221 16.308C53.3354 16.784 53.5921 17.4933 53.5921 18.436V23H52.6401V21.852C52.4161 22.2347 52.0848 22.5333 51.6461 22.748C51.2168 22.9627 50.7034 23.07 50.1061 23.07C49.2848 23.07 48.6314 22.874 48.1461 22.482C47.6608 22.09 47.4181 21.572 47.4181 20.928C47.4181 20.3027 47.6421 19.7987 48.0901 19.416C48.5474 19.0333 49.2708 18.842 50.2601 18.842H52.5981V18.394C52.5981 17.7593 52.4208 17.2787 52.0661 16.952C51.7114 16.616 51.1934 16.448 50.5121 16.448C50.0454 16.448 49.5974 16.5273 49.1681 16.686C48.7388 16.8353 48.3701 17.0453 48.0621 17.316L47.6141 16.574C47.9874 16.2567 48.4354 16.014 48.9581 15.846C49.4808 15.6687 50.0314 15.58 50.6101 15.58ZM50.2601 22.286C50.8201 22.286 51.3008 22.16 51.7021 21.908C52.1034 21.6467 52.4021 21.2733 52.5981 20.788V19.584H50.2881C49.0281 19.584 48.3981 20.0227 48.3981 20.9C48.3981 21.3293 48.5614 21.67 48.8881 21.922C49.2148 22.1647 49.6721 22.286 50.2601 22.286ZM62.5763 19.724H60.8963V23H59.9023V15.636H60.8963V18.87H62.5903L65.1803 15.636H66.2583L63.3603 19.206L66.4683 23H65.2923L62.5763 19.724ZM70.8153 23.07C70.1059 23.07 69.4666 22.9113 68.8973 22.594C68.3279 22.2673 67.8799 21.8193 67.5533 21.25C67.2266 20.6807 67.0633 20.0367 67.0633 19.318C67.0633 18.5993 67.2266 17.9553 67.5533 17.386C67.8799 16.8167 68.3279 16.3733 68.8973 16.056C69.4666 15.7387 70.1059 15.58 70.8153 15.58C71.5246 15.58 72.1639 15.7387 72.7333 16.056C73.3026 16.3733 73.7459 16.8167 74.0633 17.386C74.3899 17.9553 74.5533 18.5993 74.5533 19.318C74.5533 20.0367 74.3899 20.6807 74.0633 21.25C73.7459 21.8193 73.3026 22.2673 72.7333 22.594C72.1639 22.9113 71.5246 23.07 70.8153 23.07ZM70.8153 22.188C71.3379 22.188 71.8046 22.0713 72.2153 21.838C72.6353 21.5953 72.9619 21.2547 73.1953 20.816C73.4286 20.3773 73.5453 19.878 73.5453 19.318C73.5453 18.758 73.4286 18.2587 73.1953 17.82C72.9619 17.3813 72.6353 17.0453 72.2153 16.812C71.8046 16.5693 71.3379 16.448 70.8153 16.448C70.2926 16.448 69.8213 16.5693 69.4013 16.812C68.9906 17.0453 68.6639 17.3813 68.4213 17.82C68.1879 18.2587 68.0713 18.758 68.0713 19.318C68.0713 19.878 68.1879 20.3773 68.4213 20.816C68.6639 21.2547 68.9906 21.5953 69.4013 21.838C69.8213 22.0713 70.2926 22.188 70.8153 22.188ZM84.9097 15.636V23H83.9997V17.176L81.0177 22.104H80.5697L77.5877 17.162V23H76.6777V15.636H77.6857L80.8077 20.942L83.9857 15.636H84.9097ZM90.2722 15.58C91.2336 15.58 91.9709 15.8227 92.4842 16.308C92.9976 16.784 93.2542 17.4933 93.2542 18.436V23H92.3022V21.852C92.0782 22.2347 91.7469 22.5333 91.3082 22.748C90.8789 22.9627 90.3656 23.07 89.7682 23.07C88.9469 23.07 88.2936 22.874 87.8082 22.482C87.3229 22.09 87.0802 21.572 87.0802 20.928C87.0802 20.3027 87.3042 19.7987 87.7522 19.416C88.2096 19.0333 88.9329 18.842 89.9222 18.842H92.2602V18.394C92.2602 17.7593 92.0829 17.2787 91.7282 16.952C91.3736 16.616 90.8556 16.448 90.1742 16.448C89.7076 16.448 89.2596 16.5273 88.8302 16.686C88.4009 16.8353 88.0322 17.0453 87.7242 17.316L87.2762 16.574C87.6496 16.2567 88.0976 16.014 88.6202 15.846C89.1429 15.6687 89.6936 15.58 90.2722 15.58ZM89.9222 22.286C90.4822 22.286 90.9629 22.16 91.3642 21.908C91.7656 21.6467 92.0642 21.2733 92.2602 20.788V19.584H89.9502C88.6902 19.584 88.0602 20.0227 88.0602 20.9C88.0602 21.3293 88.2236 21.67 88.5502 21.922C88.8769 22.1647 89.3342 22.286 89.9222 22.286ZM95.9003 15.636H96.8943V18.898H101.528V15.636H102.522V23H101.528V19.752H96.8943V23H95.9003V15.636ZM112.53 22.132V24.778H111.592V23H104.998V24.778H104.06V22.132H104.48C104.974 22.104 105.31 21.74 105.488 21.04C105.665 20.34 105.786 19.36 105.852 18.1L105.95 15.636H111.382V22.132H112.53ZM106.762 18.156C106.715 19.2013 106.626 20.0647 106.496 20.746C106.365 21.418 106.132 21.88 105.796 22.132H110.388V16.518H106.846L106.762 18.156ZM117.001 15.58C117.962 15.58 118.699 15.8227 119.213 16.308C119.726 16.784 119.983 17.4933 119.983 18.436V23H119.031V21.852C118.807 22.2347 118.475 22.5333 118.037 22.748C117.607 22.9627 117.094 23.07 116.497 23.07C115.675 23.07 115.022 22.874 114.537 22.482C114.051 22.09 113.809 21.572 113.809 20.928C113.809 20.3027 114.033 19.7987 114.481 19.416C114.938 19.0333 115.661 18.842 116.651 18.842H118.989V18.394C118.989 17.7593 118.811 17.2787 118.457 16.952C118.102 16.616 117.584 16.448 116.903 16.448C116.436 16.448 115.988 16.5273 115.559 16.686C115.129 16.8353 114.761 17.0453 114.453 17.316L114.005 16.574C114.378 16.2567 114.826 16.014 115.349 15.846C115.871 15.6687 116.422 15.58 117.001 15.58ZM116.651 22.286C117.211 22.286 117.691 22.16 118.093 21.908C118.494 21.6467 118.793 21.2733 118.989 20.788V19.584H116.679C115.419 19.584 114.789 20.0227 114.789 20.9C114.789 21.3293 114.952 21.67 115.279 21.922C115.605 22.1647 116.063 22.286 116.651 22.286ZM122.713 21.544C122.928 21.544 123.105 21.6187 123.245 21.768C123.385 21.908 123.455 22.0853 123.455 22.3C123.455 22.412 123.436 22.5333 123.399 22.664C123.371 22.7947 123.324 22.944 123.259 23.112L122.671 25.044H121.999L122.475 23.014C122.326 22.9673 122.204 22.8833 122.111 22.762C122.018 22.6313 121.971 22.4773 121.971 22.3C121.971 22.0853 122.041 21.908 122.181 21.768C122.321 21.6187 122.498 21.544 122.713 21.544ZM131.934 19.724H130.254V23H129.26V15.636H130.254V18.87H131.948L134.538 15.636H135.616L132.718 19.206L135.826 23H134.65L131.934 19.724ZM140.173 23.07C139.463 23.07 138.824 22.9113 138.255 22.594C137.685 22.2673 137.237 21.8193 136.911 21.25C136.584 20.6807 136.421 20.0367 136.421 19.318C136.421 18.5993 136.584 17.9553 136.911 17.386C137.237 16.8167 137.685 16.3733 138.255 16.056C138.824 15.7387 139.463 15.58 140.173 15.58C140.882 15.58 141.521 15.7387 142.091 16.056C142.66 16.3733 143.103 16.8167 143.421 17.386C143.747 17.9553 143.911 18.5993 143.911 19.318C143.911 20.0367 143.747 20.6807 143.421 21.25C143.103 21.8193 142.66 22.2673 142.091 22.594C141.521 22.9113 140.882 23.07 140.173 23.07ZM140.173 22.188C140.695 22.188 141.162 22.0713 141.573 21.838C141.993 21.5953 142.319 21.2547 142.553 20.816C142.786 20.3773 142.903 19.878 142.903 19.318C142.903 18.758 142.786 18.2587 142.553 17.82C142.319 17.3813 141.993 17.0453 141.573 16.812C141.162 16.5693 140.695 16.448 140.173 16.448C139.65 16.448 139.179 16.5693 138.759 16.812C138.348 17.0453 138.021 17.3813 137.779 17.82C137.545 18.2587 137.429 18.758 137.429 19.318C137.429 19.878 137.545 20.3773 137.779 20.816C138.021 21.2547 138.348 21.5953 138.759 21.838C139.179 22.0713 139.65 22.188 140.173 22.188ZM150.942 16.518H148.156V23H147.162V16.518H144.376V15.636H150.942V16.518ZM155.075 23.07C154.366 23.07 153.726 22.9113 153.157 22.594C152.588 22.2673 152.14 21.8193 151.813 21.25C151.486 20.6807 151.323 20.0367 151.323 19.318C151.323 18.5993 151.486 17.9553 151.813 17.386C152.14 16.8167 152.588 16.3733 153.157 16.056C153.726 15.7387 154.366 15.58 155.075 15.58C155.784 15.58 156.424 15.7387 156.993 16.056C157.562 16.3733 158.006 16.8167 158.323 17.386C158.65 17.9553 158.813 18.5993 158.813 19.318C158.813 20.0367 158.65 20.6807 158.323 21.25C158.006 21.8193 157.562 22.2673 156.993 22.594C156.424 22.9113 155.784 23.07 155.075 23.07ZM155.075 22.188C155.598 22.188 156.064 22.0713 156.475 21.838C156.895 21.5953 157.222 21.2547 157.455 20.816C157.688 20.3773 157.805 19.878 157.805 19.318C157.805 18.758 157.688 18.2587 157.455 17.82C157.222 17.3813 156.895 17.0453 156.475 16.812C156.064 16.5693 155.598 16.448 155.075 16.448C154.552 16.448 154.081 16.5693 153.661 16.812C153.25 17.0453 152.924 17.3813 152.681 17.82C152.448 18.2587 152.331 18.758 152.331 19.318C152.331 19.878 152.448 20.3773 152.681 20.816C152.924 21.2547 153.25 21.5953 153.661 21.838C154.081 22.0713 154.552 22.188 155.075 22.188ZM164.731 15.58C165.422 15.58 166.047 15.7387 166.607 16.056C167.167 16.364 167.606 16.8027 167.923 17.372C168.241 17.9413 168.399 18.59 168.399 19.318C168.399 20.0553 168.241 20.7087 167.923 21.278C167.606 21.8473 167.167 22.2907 166.607 22.608C166.057 22.916 165.431 23.07 164.731 23.07C164.134 23.07 163.593 22.9487 163.107 22.706C162.631 22.454 162.239 22.09 161.931 21.614V25.716H160.937V15.636H161.889V17.092C162.188 16.6067 162.58 16.2333 163.065 15.972C163.56 15.7107 164.115 15.58 164.731 15.58ZM164.661 22.188C165.175 22.188 165.641 22.0713 166.061 21.838C166.481 21.5953 166.808 21.2547 167.041 20.816C167.284 20.3773 167.405 19.878 167.405 19.318C167.405 18.758 167.284 18.2633 167.041 17.834C166.808 17.3953 166.481 17.0547 166.061 16.812C165.641 16.5693 165.175 16.448 164.661 16.448C164.139 16.448 163.667 16.5693 163.247 16.812C162.837 17.0547 162.51 17.3953 162.267 17.834C162.034 18.2633 161.917 18.758 161.917 19.318C161.917 19.878 162.034 20.3773 162.267 20.816C162.51 21.2547 162.837 21.5953 163.247 21.838C163.667 22.0713 164.139 22.188 164.661 22.188ZM173.028 15.58C173.989 15.58 174.727 15.8227 175.24 16.308C175.753 16.784 176.01 17.4933 176.01 18.436V23H175.058V21.852C174.834 22.2347 174.503 22.5333 174.064 22.748C173.635 22.9627 173.121 23.07 172.524 23.07C171.703 23.07 171.049 22.874 170.564 22.482C170.079 22.09 169.836 21.572 169.836 20.928C169.836 20.3027 170.06 19.7987 170.508 19.416C170.965 19.0333 171.689 18.842 172.678 18.842H175.016V18.394C175.016 17.7593 174.839 17.2787 174.484 16.952C174.129 16.616 173.611 16.448 172.93 16.448C172.463 16.448 172.015 16.5273 171.586 16.686C171.157 16.8353 170.788 17.0453 170.48 17.316L170.032 16.574C170.405 16.2567 170.853 16.014 171.376 15.846C171.899 15.6687 172.449 15.58 173.028 15.58ZM172.678 22.286C173.238 22.286 173.719 22.16 174.12 21.908C174.521 21.6467 174.82 21.2733 175.016 20.788V19.584H172.706C171.446 19.584 170.816 20.0227 170.816 20.9C170.816 21.3293 170.979 21.67 171.306 21.922C171.633 22.1647 172.09 22.286 172.678 22.286ZM184.312 15.636V23H183.402V20.564H181.092H180.812L179.104 23H178.026L179.86 20.424C179.291 20.2653 178.852 19.9947 178.544 19.612C178.236 19.2293 178.082 18.744 178.082 18.156C178.082 17.3347 178.362 16.7093 178.922 16.28C179.482 15.8507 180.248 15.636 181.218 15.636H184.312ZM179.09 18.184C179.09 19.276 179.786 19.822 181.176 19.822H183.402V16.518H181.246C179.809 16.518 179.09 17.0733 179.09 18.184ZM19.208 32.58C19.8987 32.58 20.524 32.7387 21.084 33.056C21.644 33.364 22.0827 33.8027 22.4 34.372C22.7173 34.9413 22.876 35.59 22.876 36.318C22.876 37.0553 22.7173 37.7087 22.4 38.278C22.0827 38.8473 21.644 39.2907 21.084 39.608C20.5333 39.916 19.908 40.07 19.208 40.07C18.6107 40.07 18.0693 39.9487 17.584 39.706C17.108 39.454 16.716 39.09 16.408 38.614V42.716H15.414V32.636H16.366V34.092C16.6647 33.6067 17.0567 33.2333 17.542 32.972C18.0367 32.7107 18.592 32.58 19.208 32.58ZM19.138 39.188C19.6513 39.188 20.118 39.0713 20.538 38.838C20.958 38.5953 21.2847 38.2547 21.518 37.816C21.7607 37.3773 21.882 36.878 21.882 36.318C21.882 35.758 21.7607 35.2633 21.518 34.834C21.2847 34.3953 20.958 34.0547 20.538 33.812C20.118 33.5693 19.6513 33.448 19.138 33.448C18.6153 33.448 18.144 33.5693 17.724 33.812C17.3133 34.0547 16.9867 34.3953 16.744 34.834C16.5107 35.2633 16.394 35.758 16.394 36.318C16.394 36.878 16.5107 37.3773 16.744 37.816C16.9867 38.2547 17.3133 38.5953 17.724 38.838C18.144 39.0713 18.6153 39.188 19.138 39.188ZM31.4517 36.626H25.2917C25.3477 37.3913 25.6417 38.012 26.1737 38.488C26.7057 38.9547 27.3777 39.188 28.1897 39.188C28.647 39.188 29.067 39.1087 29.4497 38.95C29.8323 38.782 30.1637 38.5393 30.4437 38.222L31.0037 38.866C30.677 39.258 30.2663 39.5567 29.7717 39.762C29.2863 39.9673 28.7497 40.07 28.1617 40.07C27.4057 40.07 26.7337 39.9113 26.1457 39.594C25.567 39.2673 25.1143 38.8193 24.7877 38.25C24.461 37.6807 24.2977 37.0367 24.2977 36.318C24.2977 35.5993 24.4517 34.9553 24.7597 34.386C25.077 33.8167 25.5063 33.3733 26.0477 33.056C26.5983 32.7387 27.2143 32.58 27.8957 32.58C28.577 32.58 29.1883 32.7387 29.7297 33.056C30.271 33.3733 30.6957 33.8167 31.0037 34.386C31.3117 34.946 31.4657 35.59 31.4657 36.318L31.4517 36.626ZM27.8957 33.434C27.1863 33.434 26.589 33.6627 26.1037 34.12C25.6277 34.568 25.357 35.156 25.2917 35.884H30.5137C30.4483 35.156 30.173 34.568 29.6877 34.12C29.2117 33.6627 28.6143 33.434 27.8957 33.434ZM43.83 32.636V40H33.666V32.636H34.66V39.132H38.272V32.636H39.266V39.132H42.836V32.636H43.83ZM49.2019 32.58C50.1632 32.58 50.9006 32.8227 51.4139 33.308C51.9272 33.784 52.1839 34.4933 52.1839 35.436V40H51.2319V38.852C51.0079 39.2347 50.6766 39.5333 50.2379 39.748C49.8086 39.9627 49.2952 40.07 48.6979 40.07C47.8766 40.07 47.2232 39.874 46.7379 39.482C46.2526 39.09 46.0099 38.572 46.0099 37.928C46.0099 37.3027 46.2339 36.7987 46.6819 36.416C47.1392 36.0333 47.8626 35.842 48.8519 35.842H51.1899V35.394C51.1899 34.7593 51.0126 34.2787 50.6579 33.952C50.3032 33.616 49.7852 33.448 49.1039 33.448C48.6372 33.448 48.1892 33.5273 47.7599 33.686C47.3306 33.8353 46.9619 34.0453 46.6539 34.316L46.2059 33.574C46.5792 33.2567 47.0272 33.014 47.5499 32.846C48.0726 32.6687 48.6232 32.58 49.2019 32.58ZM48.8519 39.286C49.4119 39.286 49.8926 39.16 50.2939 38.908C50.6952 38.6467 50.9939 38.2733 51.1899 37.788V36.584H48.8799C47.6199 36.584 46.9899 37.0227 46.9899 37.9C46.9899 38.3293 47.1532 38.67 47.4799 38.922C47.8066 39.1647 48.2639 39.286 48.8519 39.286ZM61.27 36.626H55.11C55.166 37.3913 55.46 38.012 55.992 38.488C56.524 38.9547 57.196 39.188 58.008 39.188C58.4653 39.188 58.8853 39.1087 59.268 38.95C59.6507 38.782 59.982 38.5393 60.262 38.222L60.822 38.866C60.4953 39.258 60.0847 39.5567 59.59 39.762C59.1047 39.9673 58.568 40.07 57.98 40.07C57.224 40.07 56.552 39.9113 55.964 39.594C55.3853 39.2673 54.9327 38.8193 54.606 38.25C54.2793 37.6807 54.116 37.0367 54.116 36.318C54.116 35.5993 54.27 34.9553 54.578 34.386C54.8953 33.8167 55.3247 33.3733 55.866 33.056C56.4167 32.7387 57.0327 32.58 57.714 32.58C58.3953 32.58 59.0067 32.7387 59.548 33.056C60.0893 33.3733 60.514 33.8167 60.822 34.386C61.13 34.946 61.284 35.59 61.284 36.318L61.27 36.626ZM57.714 33.434C57.0047 33.434 56.4073 33.6627 55.922 34.12C55.446 34.568 55.1753 35.156 55.11 35.884H60.332C60.2667 35.156 59.9913 34.568 59.506 34.12C59.03 33.6627 58.4327 33.434 57.714 33.434ZM68.3362 33.518H65.5502V40H64.5562V33.518H61.7702V32.636H68.3362V33.518ZM80.0454 32.636V40H79.0514V33.518H74.4314V40H73.4374V32.636H80.0454ZM86.665 32.58C87.3557 32.58 87.981 32.7387 88.541 33.056C89.101 33.364 89.5397 33.8027 89.857 34.372C90.1744 34.9413 90.333 35.59 90.333 36.318C90.333 37.0553 90.1744 37.7087 89.857 38.278C89.5397 38.8473 89.101 39.2907 88.541 39.608C87.9904 39.916 87.365 40.07 86.665 40.07C86.0677 40.07 85.5264 39.9487 85.041 39.706C84.565 39.454 84.173 39.09 83.865 38.614V42.716H82.871V32.636H83.823V34.092C84.1217 33.6067 84.5137 33.2333 84.999 32.972C85.4937 32.7107 86.049 32.58 86.665 32.58ZM86.595 39.188C87.1084 39.188 87.575 39.0713 87.995 38.838C88.415 38.5953 88.7417 38.2547 88.975 37.816C89.2177 37.3773 89.339 36.878 89.339 36.318C89.339 35.758 89.2177 35.2633 88.975 34.834C88.7417 34.3953 88.415 34.0547 87.995 33.812C87.575 33.5693 87.1084 33.448 86.595 33.448C86.0724 33.448 85.601 33.5693 85.181 33.812C84.7704 34.0547 84.4437 34.3953 84.201 34.834C83.9677 35.2633 83.851 35.758 83.851 36.318C83.851 36.878 83.9677 37.3773 84.201 37.816C84.4437 38.2547 84.7704 38.5953 85.181 38.838C85.601 39.0713 86.0724 39.188 86.595 39.188ZM95.5067 40.07C94.7974 40.07 94.158 39.9113 93.5887 39.594C93.0194 39.2673 92.5714 38.8193 92.2447 38.25C91.918 37.6807 91.7547 37.0367 91.7547 36.318C91.7547 35.5993 91.918 34.9553 92.2447 34.386C92.5714 33.8167 93.0194 33.3733 93.5887 33.056C94.158 32.7387 94.7974 32.58 95.5067 32.58C96.216 32.58 96.8554 32.7387 97.4247 33.056C97.994 33.3733 98.4374 33.8167 98.7547 34.386C99.0814 34.9553 99.2447 35.5993 99.2447 36.318C99.2447 37.0367 99.0814 37.6807 98.7547 38.25C98.4374 38.8193 97.994 39.2673 97.4247 39.594C96.8554 39.9113 96.216 40.07 95.5067 40.07ZM95.5067 39.188C96.0294 39.188 96.496 39.0713 96.9067 38.838C97.3267 38.5953 97.6534 38.2547 97.8867 37.816C98.12 37.3773 98.2367 36.878 98.2367 36.318C98.2367 35.758 98.12 35.2587 97.8867 34.82C97.6534 34.3813 97.3267 34.0453 96.9067 33.812C96.496 33.5693 96.0294 33.448 95.5067 33.448C94.984 33.448 94.5127 33.5693 94.0927 33.812C93.682 34.0453 93.3554 34.3813 93.1127 34.82C92.8794 35.2587 92.7627 35.758 92.7627 36.318C92.7627 36.878 92.8794 37.3773 93.1127 37.816C93.3554 38.2547 93.682 38.5953 94.0927 38.838C94.5127 39.0713 94.984 39.188 95.5067 39.188ZM104.939 32.818C105.62 32.818 106.227 32.972 106.759 33.28C107.3 33.5787 107.72 34.0033 108.019 34.554C108.318 35.0953 108.467 35.716 108.467 36.416C108.467 37.1347 108.308 37.774 107.991 38.334C107.683 38.8847 107.249 39.314 106.689 39.622C106.129 39.93 105.485 40.084 104.757 40.084C103.534 40.084 102.587 39.6547 101.915 38.796C101.243 37.9373 100.907 36.752 100.907 35.24C100.907 33.6627 101.206 32.454 101.803 31.614C102.41 30.774 103.352 30.2047 104.631 29.906L107.935 29.15L108.103 30.06L104.995 30.774C103.94 31.0073 103.166 31.4227 102.671 32.02C102.176 32.608 101.906 33.4807 101.859 34.638C102.158 34.0687 102.573 33.6253 103.105 33.308C103.637 32.9813 104.248 32.818 104.939 32.818ZM104.785 39.258C105.298 39.258 105.756 39.1413 106.157 38.908C106.568 38.6653 106.885 38.3293 107.109 37.9C107.342 37.4707 107.459 36.9853 107.459 36.444C107.459 35.9027 107.347 35.4267 107.123 35.016C106.899 34.6053 106.582 34.288 106.171 34.064C105.77 33.8307 105.308 33.714 104.785 33.714C104.262 33.714 103.796 33.8307 103.385 34.064C102.984 34.288 102.666 34.6053 102.433 35.016C102.209 35.4267 102.097 35.9027 102.097 36.444C102.097 36.9853 102.209 37.4707 102.433 37.9C102.666 38.3293 102.988 38.6653 103.399 38.908C103.81 39.1413 104.272 39.258 104.785 39.258ZM116.577 32.636V40H115.583V33.518H112.055L111.957 35.338C111.882 36.8687 111.705 38.0447 111.425 38.866C111.145 39.6873 110.645 40.098 109.927 40.098C109.731 40.098 109.493 40.0607 109.213 39.986L109.283 39.132C109.451 39.1693 109.567 39.188 109.633 39.188C110.015 39.188 110.305 39.0107 110.501 38.656C110.697 38.3013 110.827 37.8627 110.893 37.34C110.958 36.8173 111.014 36.1267 111.061 35.268L111.187 32.636H116.577ZM125.842 36.626H119.682C119.738 37.3913 120.032 38.012 120.564 38.488C121.096 38.9547 121.768 39.188 122.58 39.188C123.038 39.188 123.458 39.1087 123.84 38.95C124.223 38.782 124.554 38.5393 124.834 38.222L125.394 38.866C125.068 39.258 124.657 39.5567 124.162 39.762C123.677 39.9673 123.14 40.07 122.552 40.07C121.796 40.07 121.124 39.9113 120.536 39.594C119.958 39.2673 119.505 38.8193 119.178 38.25C118.852 37.6807 118.688 37.0367 118.688 36.318C118.688 35.5993 118.842 34.9553 119.15 34.386C119.468 33.8167 119.897 33.3733 120.438 33.056C120.989 32.7387 121.605 32.58 122.286 32.58C122.968 32.58 123.579 32.7387 124.12 33.056C124.662 33.3733 125.086 33.8167 125.394 34.386C125.702 34.946 125.856 35.59 125.856 36.318L125.842 36.626ZM122.286 33.434C121.577 33.434 120.98 33.6627 120.494 34.12C120.018 34.568 119.748 35.156 119.682 35.884H124.904C124.839 35.156 124.564 34.568 124.078 34.12C123.602 33.6627 123.005 33.434 122.286 33.434ZM136.289 32.636V40H135.379V34.176L132.397 39.104H131.949L128.967 34.162V40H128.057V32.636H129.065L132.187 37.942L135.365 32.636H136.289ZM142.211 35.24C143.135 35.2493 143.84 35.4547 144.325 35.856C144.81 36.2573 145.053 36.836 145.053 37.592C145.053 38.376 144.792 38.978 144.269 39.398C143.746 39.818 143 40.0233 142.029 40.014L139.117 40V32.636H140.111V35.212L142.211 35.24ZM146.285 32.636H147.279V40H146.285V32.636ZM141.973 39.258C142.654 39.2673 143.168 39.132 143.513 38.852C143.868 38.5627 144.045 38.1427 144.045 37.592C144.045 37.0507 143.872 36.6493 143.527 36.388C143.182 36.1267 142.664 35.9913 141.973 35.982L140.111 35.954V39.23L141.973 39.258ZM15.414 49.636H16.408V55.488L21.322 49.636H22.204V57H21.21V51.148L16.31 57H15.414V49.636ZM25.0527 49.636H26.0467V52.898H30.6807V49.636H31.6747V57H30.6807V53.752H26.0467V57H25.0527V49.636ZM39.1899 53.192C40.1886 53.4253 40.6879 54.0273 40.6879 54.998C40.6879 55.642 40.4499 56.1367 39.9739 56.482C39.4979 56.8273 38.7886 57 37.8459 57H34.4999V49.636H37.7479C38.5879 49.636 39.2459 49.7993 39.7219 50.126C40.1979 50.4527 40.4359 50.9193 40.4359 51.526C40.4359 51.9273 40.3239 52.2727 40.0999 52.562C39.8853 52.842 39.5819 53.052 39.1899 53.192ZM35.4659 52.912H37.6779C38.2473 52.912 38.6813 52.8047 38.9799 52.59C39.2879 52.3753 39.4419 52.0627 39.4419 51.652C39.4419 51.2413 39.2879 50.9333 38.9799 50.728C38.6813 50.5227 38.2473 50.42 37.6779 50.42H35.4659V52.912ZM37.8039 56.216C38.4386 56.216 38.9146 56.1133 39.2319 55.908C39.5493 55.7027 39.7079 55.3807 39.7079 54.942C39.7079 54.5033 39.5633 54.1813 39.2739 53.976C38.9846 53.7613 38.5273 53.654 37.9019 53.654H35.4659V56.216H37.8039ZM49.4575 53.626H43.2975C43.3535 54.3913 43.6475 55.012 44.1795 55.488C44.7115 55.9547 45.3835 56.188 46.1955 56.188C46.6528 56.188 47.0728 56.1087 47.4555 55.95C47.8382 55.782 48.1695 55.5393 48.4495 55.222L49.0095 55.866C48.6828 56.258 48.2722 56.5567 47.7775 56.762C47.2922 56.9673 46.7555 57.07 46.1675 57.07C45.4115 57.07 44.7395 56.9113 44.1515 56.594C43.5728 56.2673 43.1202 55.8193 42.7935 55.25C42.4668 54.6807 42.3035 54.0367 42.3035 53.318C42.3035 52.5993 42.4575 51.9553 42.7655 51.386C43.0828 50.8167 43.5122 50.3733 44.0535 50.056C44.6042 49.7387 45.2202 49.58 45.9015 49.58C46.5828 49.58 47.1942 49.7387 47.7355 50.056C48.2768 50.3733 48.7015 50.8167 49.0095 51.386C49.3175 51.946 49.4715 52.59 49.4715 53.318L49.4575 53.626ZM45.9015 50.434C45.1922 50.434 44.5948 50.6627 44.1095 51.12C43.6335 51.568 43.3628 52.156 43.2975 52.884H48.5195C48.4542 52.156 48.1788 51.568 47.6935 51.12C47.2175 50.6627 46.6202 50.434 45.9015 50.434ZM54.7518 57.07C54.0238 57.07 53.3705 56.9113 52.7918 56.594C52.2225 56.2767 51.7745 55.8333 51.4478 55.264C51.1211 54.6853 50.9578 54.0367 50.9578 53.318C50.9578 52.5993 51.1211 51.9553 51.4478 51.386C51.7745 50.8167 52.2225 50.3733 52.7918 50.056C53.3705 49.7387 54.0238 49.58 54.7518 49.58C55.3865 49.58 55.9511 49.706 56.4458 49.958C56.9498 50.2007 57.3465 50.56 57.6358 51.036L56.8938 51.54C56.6511 51.176 56.3431 50.9053 55.9698 50.728C55.5965 50.5413 55.1905 50.448 54.7518 50.448C54.2198 50.448 53.7391 50.5693 53.3098 50.812C52.8898 51.0453 52.5585 51.3813 52.3158 51.82C52.0825 52.2587 51.9658 52.758 51.9658 53.318C51.9658 53.8873 52.0825 54.3913 52.3158 54.83C52.5585 55.2593 52.8898 55.5953 53.3098 55.838C53.7391 56.0713 54.2198 56.188 54.7518 56.188C55.1905 56.188 55.5965 56.0993 55.9698 55.922C56.3431 55.7447 56.6511 55.474 56.8938 55.11L57.6358 55.614C57.3465 56.09 56.9498 56.454 56.4458 56.706C55.9418 56.9487 55.3771 57.07 54.7518 57.07ZM64.6038 50.518H61.8178V57H60.8238V50.518H58.0378V49.636H64.6038V50.518ZM68.7372 57.07C68.0278 57.07 67.3885 56.9113 66.8192 56.594C66.2498 56.2673 65.8018 55.8193 65.4752 55.25C65.1485 54.6807 64.9852 54.0367 64.9852 53.318C64.9852 52.5993 65.1485 51.9553 65.4752 51.386C65.8018 50.8167 66.2498 50.3733 66.8192 50.056C67.3885 49.7387 68.0278 49.58 68.7372 49.58C69.4465 49.58 70.0858 49.7387 70.6552 50.056C71.2245 50.3733 71.6678 50.8167 71.9852 51.386C72.3118 51.9553 72.4752 52.5993 72.4752 53.318C72.4752 54.0367 72.3118 54.6807 71.9852 55.25C71.6678 55.8193 71.2245 56.2673 70.6552 56.594C70.0858 56.9113 69.4465 57.07 68.7372 57.07ZM68.7372 56.188C69.2598 56.188 69.7265 56.0713 70.1372 55.838C70.5572 55.5953 70.8838 55.2547 71.1172 54.816C71.3505 54.3773 71.4672 53.878 71.4672 53.318C71.4672 52.758 71.3505 52.2587 71.1172 51.82C70.8838 51.3813 70.5572 51.0453 70.1372 50.812C69.7265 50.5693 69.2598 50.448 68.7372 50.448C68.2145 50.448 67.7432 50.5693 67.3232 50.812C66.9125 51.0453 66.5858 51.3813 66.3432 51.82C66.1098 52.2587 65.9932 52.758 65.9932 53.318C65.9932 53.878 66.1098 54.3773 66.3432 54.816C66.5858 55.2547 66.9125 55.5953 67.3232 55.838C67.7432 56.0713 68.2145 56.188 68.7372 56.188ZM78.3935 49.58C79.0842 49.58 79.7095 49.7387 80.2695 50.056C80.8295 50.364 81.2682 50.8027 81.5855 51.372C81.9029 51.9413 82.0615 52.59 82.0615 53.318C82.0615 54.0553 81.9029 54.7087 81.5855 55.278C81.2682 55.8473 80.8295 56.2907 80.2695 56.608C79.7189 56.916 79.0935 57.07 78.3935 57.07C77.7962 57.07 77.2549 56.9487 76.7695 56.706C76.2935 56.454 75.9015 56.09 75.5935 55.614V59.716H74.5995V49.636H75.5515V51.092C75.8502 50.6067 76.2422 50.2333 76.7275 49.972C77.2222 49.7107 77.7775 49.58 78.3935 49.58ZM78.3235 56.188C78.8369 56.188 79.3035 56.0713 79.7235 55.838C80.1435 55.5953 80.4702 55.2547 80.7035 54.816C80.9462 54.3773 81.0675 53.878 81.0675 53.318C81.0675 52.758 80.9462 52.2633 80.7035 51.834C80.4702 51.3953 80.1435 51.0547 79.7235 50.812C79.3035 50.5693 78.8369 50.448 78.3235 50.448C77.8009 50.448 77.3295 50.5693 76.9095 50.812C76.4989 51.0547 76.1722 51.3953 75.9295 51.834C75.6962 52.2633 75.5795 52.758 75.5795 53.318C75.5795 53.878 75.6962 54.3773 75.9295 54.816C76.1722 55.2547 76.4989 55.5953 76.9095 55.838C77.3295 56.0713 77.8009 56.188 78.3235 56.188ZM87.2352 57.07C86.5259 57.07 85.8865 56.9113 85.3172 56.594C84.7479 56.2673 84.2999 55.8193 83.9732 55.25C83.6465 54.6807 83.4832 54.0367 83.4832 53.318C83.4832 52.5993 83.6465 51.9553 83.9732 51.386C84.2999 50.8167 84.7479 50.3733 85.3172 50.056C85.8865 49.7387 86.5259 49.58 87.2352 49.58C87.9445 49.58 88.5839 49.7387 89.1532 50.056C89.7225 50.3733 90.1659 50.8167 90.4832 51.386C90.8099 51.9553 90.9732 52.5993 90.9732 53.318C90.9732 54.0367 90.8099 54.6807 90.4832 55.25C90.1659 55.8193 89.7225 56.2673 89.1532 56.594C88.5839 56.9113 87.9445 57.07 87.2352 57.07ZM87.2352 56.188C87.7579 56.188 88.2245 56.0713 88.6352 55.838C89.0552 55.5953 89.3819 55.2547 89.6152 54.816C89.8485 54.3773 89.9652 53.878 89.9652 53.318C89.9652 52.758 89.8485 52.2587 89.6152 51.82C89.3819 51.3813 89.0552 51.0453 88.6352 50.812C88.2245 50.5693 87.7579 50.448 87.2352 50.448C86.7125 50.448 86.2412 50.5693 85.8212 50.812C85.4105 51.0453 85.0839 51.3813 84.8412 51.82C84.6079 52.2587 84.4912 52.758 84.4912 53.318C84.4912 53.878 84.6079 54.3773 84.8412 54.816C85.0839 55.2547 85.4105 55.5953 85.8212 55.838C86.2412 56.0713 86.7125 56.188 87.2352 56.188ZM97.7876 53.192C98.7863 53.4253 99.2856 54.0273 99.2856 54.998C99.2856 55.642 99.0476 56.1367 98.5716 56.482C98.0956 56.8273 97.3863 57 96.4436 57H93.0976V49.636H96.3456C97.1856 49.636 97.8436 49.7993 98.3196 50.126C98.7956 50.4527 99.0336 50.9193 99.0336 51.526C99.0336 51.9273 98.9216 52.2727 98.6976 52.562C98.4829 52.842 98.1796 53.052 97.7876 53.192ZM94.0636 52.912H96.2756C96.8449 52.912 97.2789 52.8047 97.5776 52.59C97.8856 52.3753 98.0396 52.0627 98.0396 51.652C98.0396 51.2413 97.8856 50.9333 97.5776 50.728C97.2789 50.5227 96.8449 50.42 96.2756 50.42H94.0636V52.912ZM96.4016 56.216C97.0363 56.216 97.5123 56.1133 97.8296 55.908C98.1469 55.7027 98.3056 55.3807 98.3056 54.942C98.3056 54.5033 98.1609 54.1813 97.8716 53.976C97.5823 53.7613 97.1249 53.654 96.4996 53.654H94.0636V56.216H96.4016Z" fill="#333E63"/>
<defs>
<filter id="filter0_d_507_4765" x="0" y="0" width="203" height="90" filterUnits="userSpaceOnUse" color-interpolation-filters="sRGB">
<feFlood flood-opacity="0" result="BackgroundImageFix"/>
<feColorMatrix in="SourceAlpha" type="matrix" values="0 0 0 0 0 0 0 0 0 0 0 0 0 0 0 0 0 0 127 0" result="hardAlpha"/>
<feOffset dx="5" dy="5"/>
<feComposite in2="hardAlpha" operator="out"/>
<feColorMatrix type="matrix" values="0 0 0 0 0.2 0 0 0 0 0.243137 0 0 0 0 0.388235 0 0 0 1 0"/>
<feBlend mode="normal" in2="BackgroundImageFix" result="effect1_dropShadow_507_4765"/>
<feBlend mode="normal" in="SourceGraphic" in2="effect1_dropShadow_507_4765" result="shape"/>
</filter>
<clipPath id="clip0_507_4765">
<rect width="133" height="306" fill="white" transform="translate(67 86)"/>
</clipPath>
</defs>
</svg>
