<svg width="553" height="653" viewBox="0 0 553 653" fill="none" xmlns="http://www.w3.org/2000/svg">
<g filter="url(#filter0_d_1111_2757)">
<path d="M314 103.563L264.964 129.059V157.729C264.964 162.852 260.806 167 255.671 167H10.2936C5.15765 167 1 162.852 1 157.729V81.2711C1 76.1476 5.15765 72 10.2936 72H255.548C260.684 72 264.842 76.1476 264.842 81.2711V114.786L314 103.563Z" fill="white"/>
<path d="M314.231 104.007C314.454 103.891 314.556 103.627 314.469 103.391C314.383 103.155 314.134 103.02 313.889 103.076L265.342 114.159V81.2711C265.342 75.8703 260.959 71.5 255.548 71.5H10.2936C4.88266 71.5 0.5 75.8703 0.5 81.2711V157.729C0.5 163.13 4.88266 167.5 10.2936 167.5H255.671C261.081 167.5 265.464 163.13 265.464 157.729V129.362L314.231 104.007Z" stroke="#333E63" stroke-linecap="round" stroke-linejoin="round"/>
</g>
<path d="M34.798 90.4V103H32.998V97.384H25.762V103H23.962V90.4H25.762V95.818H32.998V90.4H34.798ZM41.8416 93.37C43.1616 93.37 44.1696 93.694 44.8656 94.342C45.5736 94.99 45.9276 95.956 45.9276 97.24V103H44.2896V101.74C44.0016 102.184 43.5876 102.526 43.0476 102.766C42.5196 102.994 41.8896 103.108 41.1576 103.108C40.0896 103.108 39.2316 102.85 38.5836 102.334C37.9476 101.818 37.6296 101.14 37.6296 100.3C37.6296 99.46 37.9356 98.788 38.5476 98.284C39.1596 97.768 40.1316 97.51 41.4636 97.51H44.1996V97.168C44.1996 96.424 43.9836 95.854 43.5516 95.458C43.1196 95.062 42.4836 94.864 41.6436 94.864C41.0796 94.864 40.5276 94.96 39.9876 95.152C39.4476 95.332 38.9916 95.578 38.6196 95.89L37.8996 94.594C38.3916 94.198 38.9796 93.898 39.6636 93.694C40.3476 93.478 41.0736 93.37 41.8416 93.37ZM41.4456 101.776C42.1056 101.776 42.6756 101.632 43.1556 101.344C43.6356 101.044 43.9836 100.624 44.1996 100.084V98.752H41.5356C40.0716 98.752 39.3396 99.244 39.3396 100.228C39.3396 100.708 39.5256 101.086 39.8976 101.362C40.2696 101.638 40.7856 101.776 41.4456 101.776ZM62.6292 93.46V103H49.0392V93.46H50.7672V101.488H54.9792V93.46H56.7072V101.488H60.9012V93.46H62.6292ZM69.3865 93.37C70.7065 93.37 71.7145 93.694 72.4105 94.342C73.1185 94.99 73.4725 95.956 73.4725 97.24V103H71.8345V101.74C71.5465 102.184 71.1325 102.526 70.5925 102.766C70.0645 102.994 69.4345 103.108 68.7025 103.108C67.6345 103.108 66.7765 102.85 66.1285 102.334C65.4925 101.818 65.1745 101.14 65.1745 100.3C65.1745 99.46 65.4805 98.788 66.0925 98.284C66.7045 97.768 67.6765 97.51 69.0085 97.51H71.7445V97.168C71.7445 96.424 71.5285 95.854 71.0965 95.458C70.6645 95.062 70.0285 94.864 69.1885 94.864C68.6245 94.864 68.0725 94.96 67.5325 95.152C66.9925 95.332 66.5365 95.578 66.1645 95.89L65.4445 94.594C65.9365 94.198 66.5245 93.898 67.2085 93.694C67.8925 93.478 68.6185 93.37 69.3865 93.37ZM68.9905 101.776C69.6505 101.776 70.2205 101.632 70.7005 101.344C71.1805 101.044 71.5285 100.624 71.7445 100.084V98.752H69.0805C67.6165 98.752 66.8845 99.244 66.8845 100.228C66.8845 100.708 67.0705 101.086 67.4425 101.362C67.8145 101.638 68.3305 101.776 68.9905 101.776ZM85.1261 98.968H83.1461V103H81.4181V93.46H83.1461V97.492H85.1621L88.2581 93.46H90.1121L86.4941 98.05L90.3641 103H88.3301L85.1261 98.968ZM95.9455 103.108C94.9975 103.108 94.1455 102.898 93.3895 102.478C92.6335 102.058 92.0395 101.482 91.6075 100.75C91.1875 100.006 90.9775 99.166 90.9775 98.23C90.9775 97.294 91.1875 96.46 91.6075 95.728C92.0395 94.984 92.6335 94.408 93.3895 94C94.1455 93.58 94.9975 93.37 95.9455 93.37C96.8935 93.37 97.7395 93.58 98.4835 94C99.2395 94.408 99.8275 94.984 100.248 95.728C100.68 96.46 100.896 97.294 100.896 98.23C100.896 99.166 100.68 100.006 100.248 100.75C99.8275 101.482 99.2395 102.058 98.4835 102.478C97.7395 102.898 96.8935 103.108 95.9455 103.108ZM95.9455 101.596C96.5575 101.596 97.1035 101.458 97.5835 101.182C98.0755 100.894 98.4595 100.498 98.7355 99.994C99.0115 99.478 99.1495 98.89 99.1495 98.23C99.1495 97.57 99.0115 96.988 98.7355 96.484C98.4595 95.968 98.0755 95.572 97.5835 95.296C97.1035 95.02 96.5575 94.882 95.9455 94.882C95.3335 94.882 94.7815 95.02 94.2895 95.296C93.8095 95.572 93.4255 95.968 93.1375 96.484C92.8615 96.988 92.7235 97.57 92.7235 98.23C92.7235 98.89 92.8615 99.478 93.1375 99.994C93.4255 100.498 93.8095 100.894 94.2895 101.182C94.7815 101.458 95.3335 101.596 95.9455 101.596ZM114.389 93.46V103H112.823V96.034L109.259 101.92H108.503L104.975 96.016V103H103.391V93.46H105.173L108.917 99.904L112.769 93.46H114.389ZM121.154 93.37C122.474 93.37 123.482 93.694 124.178 94.342C124.886 94.99 125.24 95.956 125.24 97.24V103H123.602V101.74C123.314 102.184 122.9 102.526 122.36 102.766C121.832 102.994 121.202 103.108 120.47 103.108C119.402 103.108 118.544 102.85 117.896 102.334C117.26 101.818 116.942 101.14 116.942 100.3C116.942 99.46 117.248 98.788 117.86 98.284C118.472 97.768 119.444 97.51 120.776 97.51H123.512V97.168C123.512 96.424 123.296 95.854 122.864 95.458C122.432 95.062 121.796 94.864 120.956 94.864C120.392 94.864 119.84 94.96 119.3 95.152C118.76 95.332 118.304 95.578 117.932 95.89L117.212 94.594C117.704 94.198 118.292 93.898 118.976 93.694C119.66 93.478 120.386 93.37 121.154 93.37ZM120.758 101.776C121.418 101.776 121.988 101.632 122.468 101.344C122.948 101.044 123.296 100.624 123.512 100.084V98.752H120.848C119.384 98.752 118.652 99.244 118.652 100.228C118.652 100.708 118.838 101.086 119.21 101.362C119.582 101.638 120.098 101.776 120.758 101.776ZM128.352 93.46H130.08V97.51H135.516V93.46H137.244V103H135.516V99.004H130.08V103H128.352V93.46ZM150.306 101.488V105.214H148.686V103H140.712V105.214H139.074V101.488H139.578C140.19 101.452 140.61 101.02 140.838 100.192C141.066 99.364 141.222 98.194 141.306 96.682L141.45 93.46H148.848V101.488H150.306ZM142.89 96.808C142.842 98.008 142.74 99.004 142.584 99.796C142.44 100.576 142.17 101.14 141.774 101.488H147.12V94.972H142.98L142.89 96.808ZM155.959 93.37C157.279 93.37 158.287 93.694 158.983 94.342C159.691 94.99 160.045 95.956 160.045 97.24V103H158.407V101.74C158.119 102.184 157.705 102.526 157.165 102.766C156.637 102.994 156.007 103.108 155.275 103.108C154.207 103.108 153.349 102.85 152.701 102.334C152.065 101.818 151.747 101.14 151.747 100.3C151.747 99.46 152.053 98.788 152.665 98.284C153.277 97.768 154.249 97.51 155.581 97.51H158.317V97.168C158.317 96.424 158.101 95.854 157.669 95.458C157.237 95.062 156.601 94.864 155.761 94.864C155.197 94.864 154.645 94.96 154.105 95.152C153.565 95.332 153.109 95.578 152.737 95.89L152.017 94.594C152.509 94.198 153.097 93.898 153.781 93.694C154.465 93.478 155.191 93.37 155.959 93.37ZM155.563 101.776C156.223 101.776 156.793 101.632 157.273 101.344C157.753 101.044 158.101 100.624 158.317 100.084V98.752H155.653C154.189 98.752 153.457 99.244 153.457 100.228C153.457 100.708 153.643 101.086 154.015 101.362C154.387 101.638 154.903 101.776 155.563 101.776ZM163.552 100.642C163.888 100.642 164.164 100.762 164.38 101.002C164.608 101.23 164.722 101.518 164.722 101.866C164.722 102.046 164.698 102.22 164.65 102.388C164.614 102.556 164.536 102.814 164.416 103.162L163.57 105.664H162.436L163.102 102.982C162.874 102.898 162.688 102.76 162.544 102.568C162.412 102.364 162.346 102.13 162.346 101.866C162.346 101.506 162.46 101.212 162.688 100.984C162.916 100.756 163.204 100.642 163.552 100.642ZM175.777 98.968H173.797V103H172.069V93.46H173.797V97.492H175.813L178.909 93.46H180.763L177.145 98.05L181.015 103H178.981L175.777 98.968ZM186.596 103.108C185.648 103.108 184.796 102.898 184.04 102.478C183.284 102.058 182.69 101.482 182.258 100.75C181.838 100.006 181.628 99.166 181.628 98.23C181.628 97.294 181.838 96.46 182.258 95.728C182.69 94.984 183.284 94.408 184.04 94C184.796 93.58 185.648 93.37 186.596 93.37C187.544 93.37 188.39 93.58 189.134 94C189.89 94.408 190.478 94.984 190.898 95.728C191.33 96.46 191.546 97.294 191.546 98.23C191.546 99.166 191.33 100.006 190.898 100.75C190.478 101.482 189.89 102.058 189.134 102.478C188.39 102.898 187.544 103.108 186.596 103.108ZM186.596 101.596C187.208 101.596 187.754 101.458 188.234 101.182C188.726 100.894 189.11 100.498 189.386 99.994C189.662 99.478 189.8 98.89 189.8 98.23C189.8 97.57 189.662 96.988 189.386 96.484C189.11 95.968 188.726 95.572 188.234 95.296C187.754 95.02 187.208 94.882 186.596 94.882C185.984 94.882 185.432 95.02 184.94 95.296C184.46 95.572 184.076 95.968 183.788 96.484C183.512 96.988 183.374 97.57 183.374 98.23C183.374 98.89 183.512 99.478 183.788 99.994C184.076 100.498 184.46 100.894 184.94 101.182C185.432 101.458 185.984 101.596 186.596 101.596ZM200.8 94.972H197.308V103H195.58V94.972H192.088V93.46H200.8V94.972ZM206.231 103.108C205.283 103.108 204.431 102.898 203.675 102.478C202.919 102.058 202.325 101.482 201.893 100.75C201.473 100.006 201.263 99.166 201.263 98.23C201.263 97.294 201.473 96.46 201.893 95.728C202.325 94.984 202.919 94.408 203.675 94C204.431 93.58 205.283 93.37 206.231 93.37C207.179 93.37 208.025 93.58 208.769 94C209.525 94.408 210.113 94.984 210.533 95.728C210.965 96.46 211.181 97.294 211.181 98.23C211.181 99.166 210.965 100.006 210.533 100.75C210.113 101.482 209.525 102.058 208.769 102.478C208.025 102.898 207.179 103.108 206.231 103.108ZM206.231 101.596C206.843 101.596 207.389 101.458 207.869 101.182C208.361 100.894 208.745 100.498 209.021 99.994C209.297 99.478 209.435 98.89 209.435 98.23C209.435 97.57 209.297 96.988 209.021 96.484C208.745 95.968 208.361 95.572 207.869 95.296C207.389 95.02 206.843 94.882 206.231 94.882C205.619 94.882 205.067 95.02 204.575 95.296C204.095 95.572 203.711 95.968 203.423 96.484C203.147 96.988 203.009 97.57 203.009 98.23C203.009 98.89 203.147 99.478 203.423 99.994C203.711 100.498 204.095 100.894 204.575 101.182C205.067 101.458 205.619 101.596 206.231 101.596ZM218.734 93.37C219.658 93.37 220.486 93.574 221.218 93.982C221.95 94.39 222.52 94.96 222.928 95.692C223.348 96.424 223.558 97.27 223.558 98.23C223.558 99.19 223.348 100.042 222.928 100.786C222.52 101.518 221.95 102.088 221.218 102.496C220.486 102.904 219.658 103.108 218.734 103.108C218.05 103.108 217.42 102.976 216.844 102.712C216.28 102.448 215.8 102.064 215.404 101.56V106.492H213.676V93.46H215.332V94.972C215.716 94.444 216.202 94.048 216.79 93.784C217.378 93.508 218.026 93.37 218.734 93.37ZM218.59 101.596C219.202 101.596 219.748 101.458 220.228 101.182C220.72 100.894 221.104 100.498 221.38 99.994C221.668 99.478 221.812 98.89 221.812 98.23C221.812 97.57 221.668 96.988 221.38 96.484C221.104 95.968 220.72 95.572 220.228 95.296C219.748 95.02 219.202 94.882 218.59 94.882C217.99 94.882 217.444 95.026 216.952 95.314C216.472 95.59 216.088 95.98 215.8 96.484C215.524 96.988 215.386 97.57 215.386 98.23C215.386 98.89 215.524 99.478 215.8 99.994C216.076 100.498 216.46 100.894 216.952 101.182C217.444 101.458 217.99 101.596 218.59 101.596ZM229.383 93.37C230.703 93.37 231.711 93.694 232.407 94.342C233.115 94.99 233.469 95.956 233.469 97.24V103H231.831V101.74C231.543 102.184 231.129 102.526 230.589 102.766C230.061 102.994 229.431 103.108 228.699 103.108C227.631 103.108 226.773 102.85 226.125 102.334C225.489 101.818 225.171 101.14 225.171 100.3C225.171 99.46 225.477 98.788 226.089 98.284C226.701 97.768 227.673 97.51 229.005 97.51H231.741V97.168C231.741 96.424 231.525 95.854 231.093 95.458C230.661 95.062 230.025 94.864 229.185 94.864C228.621 94.864 228.069 94.96 227.529 95.152C226.989 95.332 226.533 95.578 226.161 95.89L225.441 94.594C225.933 94.198 226.521 93.898 227.205 93.694C227.889 93.478 228.615 93.37 229.383 93.37ZM228.987 101.776C229.647 101.776 230.217 101.632 230.697 101.344C231.177 101.044 231.525 100.624 231.741 100.084V98.752H229.077C227.613 98.752 226.881 99.244 226.881 100.228C226.881 100.708 227.067 101.086 227.439 101.362C227.811 101.638 228.327 101.776 228.987 101.776ZM244.23 93.46V103H242.682V99.976H239.91H239.712L237.624 103H235.77L238.092 99.742C237.372 99.526 236.82 99.172 236.436 98.68C236.052 98.176 235.86 97.552 235.86 96.808C235.86 95.716 236.232 94.888 236.976 94.324C237.72 93.748 238.746 93.46 240.054 93.46H244.23ZM237.624 96.862C237.624 97.498 237.822 97.972 238.218 98.284C238.626 98.584 239.232 98.734 240.036 98.734H242.682V94.972H240.108C238.452 94.972 237.624 95.602 237.624 96.862ZM28.732 115.37C29.656 115.37 30.484 115.574 31.216 115.982C31.948 116.39 32.518 116.96 32.926 117.692C33.346 118.424 33.556 119.27 33.556 120.23C33.556 121.19 33.346 122.042 32.926 122.786C32.518 123.518 31.948 124.088 31.216 124.496C30.484 124.904 29.656 125.108 28.732 125.108C28.048 125.108 27.418 124.976 26.842 124.712C26.278 124.448 25.798 124.064 25.402 123.56V128.492H23.674V115.46H25.33V116.972C25.714 116.444 26.2 116.048 26.788 115.784C27.376 115.508 28.024 115.37 28.732 115.37ZM28.588 123.596C29.2 123.596 29.746 123.458 30.226 123.182C30.718 122.894 31.102 122.498 31.378 121.994C31.666 121.478 31.81 120.89 31.81 120.23C31.81 119.57 31.666 118.988 31.378 118.484C31.102 117.968 30.718 117.572 30.226 117.296C29.746 117.02 29.2 116.882 28.588 116.882C27.988 116.882 27.442 117.026 26.95 117.314C26.47 117.59 26.086 117.98 25.798 118.484C25.522 118.988 25.384 119.57 25.384 120.23C25.384 120.89 25.522 121.478 25.798 121.994C26.074 122.498 26.458 122.894 26.95 123.182C27.442 123.458 27.988 123.596 28.588 123.596ZM44.6886 120.284C44.6886 120.416 44.6766 120.59 44.6526 120.806H36.9126C37.0206 121.646 37.3866 122.324 38.0106 122.84C38.6466 123.344 39.4326 123.596 40.3686 123.596C41.5086 123.596 42.4266 123.212 43.1226 122.444L44.0766 123.56C43.6446 124.064 43.1046 124.448 42.4566 124.712C41.8206 124.976 41.1066 125.108 40.3146 125.108C39.3066 125.108 38.4126 124.904 37.6326 124.496C36.8526 124.076 36.2466 123.494 35.8146 122.75C35.3946 122.006 35.1846 121.166 35.1846 120.23C35.1846 119.306 35.3886 118.472 35.7966 117.728C36.2166 116.984 36.7866 116.408 37.5066 116C38.2386 115.58 39.0606 115.37 39.9726 115.37C40.8846 115.37 41.6946 115.58 42.4026 116C43.1226 116.408 43.6806 116.984 44.0766 117.728C44.4846 118.472 44.6886 119.324 44.6886 120.284ZM39.9726 116.828C39.1446 116.828 38.4486 117.08 37.8846 117.584C37.3326 118.088 37.0086 118.748 36.9126 119.564H43.0326C42.9366 118.76 42.6066 118.106 42.0426 117.602C41.4906 117.086 40.8006 116.828 39.9726 116.828ZM60.9593 115.46V125H47.3693V115.46H49.0973V123.488H53.3093V115.46H55.0373V123.488H59.2313V115.46H60.9593ZM67.7166 115.37C69.0366 115.37 70.0446 115.694 70.7406 116.342C71.4486 116.99 71.8026 117.956 71.8026 119.24V125H70.1646V123.74C69.8766 124.184 69.4626 124.526 68.9226 124.766C68.3946 124.994 67.7646 125.108 67.0326 125.108C65.9646 125.108 65.1066 124.85 64.4586 124.334C63.8226 123.818 63.5046 123.14 63.5046 122.3C63.5046 121.46 63.8106 120.788 64.4226 120.284C65.0346 119.768 66.0066 119.51 67.3386 119.51H70.0746V119.168C70.0746 118.424 69.8586 117.854 69.4266 117.458C68.9946 117.062 68.3586 116.864 67.5186 116.864C66.9546 116.864 66.4026 116.96 65.8626 117.152C65.3226 117.332 64.8666 117.578 64.4946 117.89L63.7746 116.594C64.2666 116.198 64.8546 115.898 65.5386 115.694C66.2226 115.478 66.9486 115.37 67.7166 115.37ZM67.3206 123.776C67.9806 123.776 68.5506 123.632 69.0306 123.344C69.5106 123.044 69.8586 122.624 70.0746 122.084V120.752H67.4106C65.9466 120.752 65.2146 121.244 65.2146 122.228C65.2146 122.708 65.4006 123.086 65.7726 123.362C66.1446 123.638 66.6606 123.776 67.3206 123.776ZM83.5362 120.284C83.5362 120.416 83.5242 120.59 83.5002 120.806H75.7602C75.8682 121.646 76.2342 122.324 76.8582 122.84C77.4942 123.344 78.2802 123.596 79.2162 123.596C80.3562 123.596 81.2742 123.212 81.9702 122.444L82.9242 123.56C82.4922 124.064 81.9522 124.448 81.3042 124.712C80.6682 124.976 79.9542 125.108 79.1622 125.108C78.1542 125.108 77.2602 124.904 76.4802 124.496C75.7002 124.076 75.0942 123.494 74.6622 122.75C74.2422 122.006 74.0322 121.166 74.0322 120.23C74.0322 119.306 74.2362 118.472 74.6442 117.728C75.0642 116.984 75.6342 116.408 76.3542 116C77.0862 115.58 77.9082 115.37 78.8202 115.37C79.7322 115.37 80.5422 115.58 81.2502 116C81.9702 116.408 82.5282 116.984 82.9242 117.728C83.3322 118.472 83.5362 119.324 83.5362 120.284ZM78.8202 116.828C77.9922 116.828 77.2962 117.08 76.7322 117.584C76.1802 118.088 75.8562 118.748 75.7602 119.564H81.8802C81.7842 118.76 81.4542 118.106 80.8902 117.602C80.3382 117.086 79.6482 116.828 78.8202 116.828ZM92.9227 116.972H89.4307V125H87.7027V116.972H84.2107V115.46H92.9227V116.972ZM108.362 115.46V125H106.634V116.972H101.252V125H99.5236V115.46H108.362ZM116.763 115.37C117.687 115.37 118.515 115.574 119.247 115.982C119.979 116.39 120.549 116.96 120.957 117.692C121.377 118.424 121.587 119.27 121.587 120.23C121.587 121.19 121.377 122.042 120.957 122.786C120.549 123.518 119.979 124.088 119.247 124.496C118.515 124.904 117.687 125.108 116.763 125.108C116.079 125.108 115.449 124.976 114.873 124.712C114.309 124.448 113.829 124.064 113.433 123.56V128.492H111.705V115.46H113.361V116.972C113.745 116.444 114.231 116.048 114.819 115.784C115.407 115.508 116.055 115.37 116.763 115.37ZM116.619 123.596C117.231 123.596 117.777 123.458 118.257 123.182C118.749 122.894 119.133 122.498 119.409 121.994C119.697 121.478 119.841 120.89 119.841 120.23C119.841 119.57 119.697 118.988 119.409 118.484C119.133 117.968 118.749 117.572 118.257 117.296C117.777 117.02 117.231 116.882 116.619 116.882C116.019 116.882 115.473 117.026 114.981 117.314C114.501 117.59 114.117 117.98 113.829 118.484C113.553 118.988 113.415 119.57 113.415 120.23C113.415 120.89 113.553 121.478 113.829 121.994C114.105 122.498 114.489 122.894 114.981 123.182C115.473 123.458 116.019 123.596 116.619 123.596ZM128.184 125.108C127.236 125.108 126.384 124.898 125.628 124.478C124.872 124.058 124.278 123.482 123.846 122.75C123.426 122.006 123.216 121.166 123.216 120.23C123.216 119.294 123.426 118.46 123.846 117.728C124.278 116.984 124.872 116.408 125.628 116C126.384 115.58 127.236 115.37 128.184 115.37C129.132 115.37 129.978 115.58 130.722 116C131.478 116.408 132.066 116.984 132.486 117.728C132.918 118.46 133.134 119.294 133.134 120.23C133.134 121.166 132.918 122.006 132.486 122.75C132.066 123.482 131.478 124.058 130.722 124.478C129.978 124.898 129.132 125.108 128.184 125.108ZM128.184 123.596C128.796 123.596 129.342 123.458 129.822 123.182C130.314 122.894 130.698 122.498 130.974 121.994C131.25 121.478 131.388 120.89 131.388 120.23C131.388 119.57 131.25 118.988 130.974 118.484C130.698 117.968 130.314 117.572 129.822 117.296C129.342 117.02 128.796 116.882 128.184 116.882C127.572 116.882 127.02 117.02 126.528 117.296C126.048 117.572 125.664 117.968 125.376 118.484C125.1 118.988 124.962 119.57 124.962 120.23C124.962 120.89 125.1 121.478 125.376 121.994C125.664 122.498 126.048 122.894 126.528 123.182C127.02 123.458 127.572 123.596 128.184 123.596ZM140.489 115.784C141.377 115.784 142.169 115.982 142.865 116.378C143.561 116.774 144.101 117.326 144.485 118.034C144.881 118.73 145.079 119.528 145.079 120.428C145.079 121.352 144.869 122.174 144.449 122.894C144.041 123.602 143.459 124.154 142.703 124.55C141.959 124.946 141.107 125.144 140.147 125.144C138.527 125.144 137.273 124.592 136.385 123.488C135.509 122.372 135.071 120.806 135.071 118.79C135.071 116.834 135.473 115.304 136.277 114.2C137.081 113.084 138.311 112.346 139.967 111.986L144.323 111.014L144.575 112.598L140.561 113.462C139.313 113.738 138.383 114.206 137.771 114.866C137.159 115.526 136.811 116.474 136.727 117.71C137.135 117.098 137.663 116.624 138.311 116.288C138.959 115.952 139.685 115.784 140.489 115.784ZM140.183 123.704C140.795 123.704 141.335 123.566 141.803 123.29C142.283 123.014 142.655 122.636 142.919 122.156C143.183 121.664 143.315 121.106 143.315 120.482C143.315 119.534 143.027 118.772 142.451 118.196C141.875 117.62 141.119 117.332 140.183 117.332C139.247 117.332 138.485 117.62 137.897 118.196C137.321 118.772 137.033 119.534 137.033 120.482C137.033 121.106 137.165 121.664 137.429 122.156C137.705 122.636 138.083 123.014 138.563 123.29C139.043 123.566 139.583 123.704 140.183 123.704ZM155.667 115.46V125H153.939V116.972H149.835L149.727 119.096C149.667 120.38 149.553 121.454 149.385 122.318C149.217 123.17 148.941 123.854 148.557 124.37C148.173 124.886 147.639 125.144 146.955 125.144C146.643 125.144 146.289 125.09 145.893 124.982L146.001 123.524C146.157 123.56 146.301 123.578 146.433 123.578C146.913 123.578 147.273 123.368 147.513 122.948C147.753 122.528 147.909 122.03 147.981 121.454C148.053 120.878 148.119 120.056 148.179 118.988L148.341 115.46H155.667ZM167.63 120.284C167.63 120.416 167.618 120.59 167.594 120.806H159.854C159.962 121.646 160.328 122.324 160.952 122.84C161.588 123.344 162.374 123.596 163.31 123.596C164.45 123.596 165.368 123.212 166.064 122.444L167.018 123.56C166.586 124.064 166.046 124.448 165.398 124.712C164.762 124.976 164.048 125.108 163.256 125.108C162.248 125.108 161.354 124.904 160.574 124.496C159.794 124.076 159.188 123.494 158.756 122.75C158.336 122.006 158.126 121.166 158.126 120.23C158.126 119.306 158.33 118.472 158.738 117.728C159.158 116.984 159.728 116.408 160.448 116C161.18 115.58 162.002 115.37 162.914 115.37C163.826 115.37 164.636 115.58 165.344 116C166.064 116.408 166.622 116.984 167.018 117.728C167.426 118.472 167.63 119.324 167.63 120.284ZM162.914 116.828C162.086 116.828 161.39 117.08 160.826 117.584C160.274 118.088 159.95 118.748 159.854 119.564H165.974C165.878 118.76 165.548 118.106 164.984 117.602C164.432 117.086 163.742 116.828 162.914 116.828ZM181.309 115.46V125H179.743V118.034L176.179 123.92H175.423L171.895 118.016V125H170.311V115.46H172.093L175.837 121.904L179.689 115.46H181.309ZM188.974 118.7C190.174 118.712 191.092 118.988 191.728 119.528C192.364 120.068 192.682 120.83 192.682 121.814C192.682 122.846 192.334 123.644 191.638 124.208C190.954 124.76 189.97 125.03 188.686 125.018L184.672 125V115.46H186.4V118.682L188.974 118.7ZM194.104 115.46H195.832V125H194.104V115.46ZM188.56 123.704C189.34 123.716 189.928 123.56 190.324 123.236C190.732 122.912 190.936 122.432 190.936 121.796C190.936 121.172 190.738 120.716 190.342 120.428C189.946 120.14 189.352 119.99 188.56 119.978L186.4 119.942V123.686L188.56 123.704ZM23.674 137.46H25.402V144.408L31.252 137.46H32.818V147H31.09V140.052L25.258 147H23.674V137.46ZM36.172 137.46H37.9V141.51H43.336V137.46H45.064V147H43.336V143.004H37.9V147H36.172V137.46ZM54.922 142.05C56.158 142.362 56.776 143.136 56.776 144.372C56.776 145.212 56.458 145.86 55.822 146.316C55.198 146.772 54.262 147 53.014 147H48.424V137.46H52.852C53.98 137.46 54.862 137.676 55.498 138.108C56.134 138.528 56.452 139.128 56.452 139.908C56.452 140.412 56.314 140.85 56.038 141.222C55.774 141.582 55.402 141.858 54.922 142.05ZM50.116 141.564H52.708C53.368 141.564 53.866 141.444 54.202 141.204C54.55 140.964 54.724 140.616 54.724 140.16C54.724 139.248 54.052 138.792 52.708 138.792H50.116V141.564ZM52.888 145.668C53.608 145.668 54.148 145.554 54.508 145.326C54.868 145.098 55.048 144.744 55.048 144.264C55.048 143.772 54.88 143.406 54.544 143.166C54.22 142.926 53.704 142.806 52.996 142.806H50.116V145.668H52.888ZM68.1026 142.284C68.1026 142.416 68.0906 142.59 68.0666 142.806H60.3266C60.4346 143.646 60.8006 144.324 61.4246 144.84C62.0606 145.344 62.8466 145.596 63.7826 145.596C64.9226 145.596 65.8406 145.212 66.5366 144.444L67.4906 145.56C67.0586 146.064 66.5186 146.448 65.8706 146.712C65.2346 146.976 64.5206 147.108 63.7286 147.108C62.7206 147.108 61.8266 146.904 61.0466 146.496C60.2666 146.076 59.6606 145.494 59.2286 144.75C58.8086 144.006 58.5986 143.166 58.5986 142.23C58.5986 141.306 58.8026 140.472 59.2106 139.728C59.6306 138.984 60.2006 138.408 60.9206 138C61.6526 137.58 62.4746 137.37 63.3866 137.37C64.2986 137.37 65.1086 137.58 65.8166 138C66.5366 138.408 67.0946 138.984 67.4906 139.728C67.8986 140.472 68.1026 141.324 68.1026 142.284ZM63.3866 138.828C62.5586 138.828 61.8626 139.08 61.2986 139.584C60.7466 140.088 60.4226 140.748 60.3266 141.564H66.4466C66.3506 140.76 66.0206 140.106 65.4566 139.602C64.9046 139.086 64.2146 138.828 63.3866 138.828ZM74.9414 147.108C73.9694 147.108 73.0994 146.898 72.3314 146.478C71.5754 146.058 70.9814 145.482 70.5494 144.75C70.1174 144.006 69.9014 143.166 69.9014 142.23C69.9014 141.294 70.1174 140.46 70.5494 139.728C70.9814 138.984 71.5754 138.408 72.3314 138C73.0994 137.58 73.9694 137.37 74.9414 137.37C75.8054 137.37 76.5734 137.544 77.2454 137.892C77.9294 138.24 78.4574 138.744 78.8294 139.404L77.5154 140.25C77.2154 139.794 76.8434 139.452 76.3994 139.224C75.9554 138.996 75.4634 138.882 74.9234 138.882C74.2994 138.882 73.7354 139.02 73.2314 139.296C72.7394 139.572 72.3494 139.968 72.0614 140.484C71.7854 140.988 71.6474 141.57 71.6474 142.23C71.6474 142.902 71.7854 143.496 72.0614 144.012C72.3494 144.516 72.7394 144.906 73.2314 145.182C73.7354 145.458 74.2994 145.596 74.9234 145.596C75.4634 145.596 75.9554 145.482 76.3994 145.254C76.8434 145.026 77.2154 144.684 77.5154 144.228L78.8294 145.056C78.4574 145.716 77.9294 146.226 77.2454 146.586C76.5734 146.934 75.8054 147.108 74.9414 147.108ZM88.0535 138.972H84.5615V147H82.8335V138.972H79.3415V137.46H88.0535V138.972ZM93.4846 147.108C92.5366 147.108 91.6846 146.898 90.9286 146.478C90.1726 146.058 89.5786 145.482 89.1466 144.75C88.7266 144.006 88.5166 143.166 88.5166 142.23C88.5166 141.294 88.7266 140.46 89.1466 139.728C89.5786 138.984 90.1726 138.408 90.9286 138C91.6846 137.58 92.5366 137.37 93.4846 137.37C94.4326 137.37 95.2786 137.58 96.0226 138C96.7786 138.408 97.3666 138.984 97.7866 139.728C98.2186 140.46 98.4346 141.294 98.4346 142.23C98.4346 143.166 98.2186 144.006 97.7866 144.75C97.3666 145.482 96.7786 146.058 96.0226 146.478C95.2786 146.898 94.4326 147.108 93.4846 147.108ZM93.4846 145.596C94.0966 145.596 94.6426 145.458 95.1226 145.182C95.6146 144.894 95.9986 144.498 96.2746 143.994C96.5506 143.478 96.6886 142.89 96.6886 142.23C96.6886 141.57 96.5506 140.988 96.2746 140.484C95.9986 139.968 95.6146 139.572 95.1226 139.296C94.6426 139.02 94.0966 138.882 93.4846 138.882C92.8726 138.882 92.3206 139.02 91.8286 139.296C91.3486 139.572 90.9646 139.968 90.6766 140.484C90.4006 140.988 90.2626 141.57 90.2626 142.23C90.2626 142.89 90.4006 143.478 90.6766 143.994C90.9646 144.498 91.3486 144.894 91.8286 145.182C92.3206 145.458 92.8726 145.596 93.4846 145.596ZM105.988 137.37C106.912 137.37 107.74 137.574 108.472 137.982C109.204 138.39 109.774 138.96 110.182 139.692C110.602 140.424 110.812 141.27 110.812 142.23C110.812 143.19 110.602 144.042 110.182 144.786C109.774 145.518 109.204 146.088 108.472 146.496C107.74 146.904 106.912 147.108 105.988 147.108C105.304 147.108 104.674 146.976 104.098 146.712C103.534 146.448 103.054 146.064 102.658 145.56V150.492H100.93V137.46H102.586V138.972C102.97 138.444 103.456 138.048 104.044 137.784C104.632 137.508 105.28 137.37 105.988 137.37ZM105.844 145.596C106.456 145.596 107.002 145.458 107.482 145.182C107.974 144.894 108.358 144.498 108.634 143.994C108.922 143.478 109.066 142.89 109.066 142.23C109.066 141.57 108.922 140.988 108.634 140.484C108.358 139.968 107.974 139.572 107.482 139.296C107.002 139.02 106.456 138.882 105.844 138.882C105.244 138.882 104.698 139.026 104.206 139.314C103.726 139.59 103.342 139.98 103.054 140.484C102.778 140.988 102.64 141.57 102.64 142.23C102.64 142.89 102.778 143.478 103.054 143.994C103.33 144.498 103.714 144.894 104.206 145.182C104.698 145.458 105.244 145.596 105.844 145.596ZM117.408 147.108C116.46 147.108 115.608 146.898 114.852 146.478C114.096 146.058 113.502 145.482 113.07 144.75C112.65 144.006 112.44 143.166 112.44 142.23C112.44 141.294 112.65 140.46 113.07 139.728C113.502 138.984 114.096 138.408 114.852 138C115.608 137.58 116.46 137.37 117.408 137.37C118.356 137.37 119.202 137.58 119.946 138C120.702 138.408 121.29 138.984 121.71 139.728C122.142 140.46 122.358 141.294 122.358 142.23C122.358 143.166 122.142 144.006 121.71 144.75C121.29 145.482 120.702 146.058 119.946 146.478C119.202 146.898 118.356 147.108 117.408 147.108ZM117.408 145.596C118.02 145.596 118.566 145.458 119.046 145.182C119.538 144.894 119.922 144.498 120.198 143.994C120.474 143.478 120.612 142.89 120.612 142.23C120.612 141.57 120.474 140.988 120.198 140.484C119.922 139.968 119.538 139.572 119.046 139.296C118.566 139.02 118.02 138.882 117.408 138.882C116.796 138.882 116.244 139.02 115.752 139.296C115.272 139.572 114.888 139.968 114.6 140.484C114.324 140.988 114.186 141.57 114.186 142.23C114.186 142.89 114.324 143.478 114.6 143.994C114.888 144.498 115.272 144.894 115.752 145.182C116.244 145.458 116.796 145.596 117.408 145.596ZM131.352 142.05C132.588 142.362 133.206 143.136 133.206 144.372C133.206 145.212 132.888 145.86 132.252 146.316C131.628 146.772 130.692 147 129.444 147H124.854V137.46H129.282C130.41 137.46 131.292 137.676 131.928 138.108C132.564 138.528 132.882 139.128 132.882 139.908C132.882 140.412 132.744 140.85 132.468 141.222C132.204 141.582 131.832 141.858 131.352 142.05ZM126.546 141.564H129.138C129.798 141.564 130.296 141.444 130.632 141.204C130.98 140.964 131.154 140.616 131.154 140.16C131.154 139.248 130.482 138.792 129.138 138.792H126.546V141.564ZM129.318 145.668C130.038 145.668 130.578 145.554 130.938 145.326C131.298 145.098 131.478 144.744 131.478 144.264C131.478 143.772 131.31 143.406 130.974 143.166C130.65 142.926 130.134 142.806 129.426 142.806H126.546V145.668H129.318Z" fill="#333E63"/>
<path d="M334.147 305.045C334.147 305.045 322.84 354.569 322.355 377.798C321.871 401.027 323.163 484.911 323.648 502.816C324.132 520.722 332.047 579.118 332.047 584.441C332.047 589.765 333.339 599.766 333.339 599.766L329.785 618.64C326.393 621.221 322.678 623.641 318.802 625.738C310.887 630.093 301.68 635.901 299.096 638.966C297.965 640.256 298.127 642.192 299.419 643.321C299.742 643.482 300.065 643.805 300.388 643.805C303.457 645.096 306.849 645.741 310.241 646.063C317.671 646.547 329.947 646.547 336.569 644.773C343.192 642.999 348.522 637.353 351.591 635.094L354.66 632.836L355.145 637.675C356.598 637.514 358.052 637.191 359.506 636.869C362.736 635.901 365.805 634.61 368.713 632.997C368.713 632.997 369.197 625.577 369.197 621.06C369.197 616.543 366.936 608.8 366.613 607.025C366.29 605.251 366.613 589.442 365.321 584.28C364.028 579.118 363.059 580.247 362.252 570.73C361.444 561.212 369.359 469.747 368.874 467.166C368.39 464.585 380.019 385.38 380.019 385.38C380.019 385.38 402.31 488.621 409.255 508.462C416.201 528.304 419.754 566.374 419.754 568.955C419.754 571.536 423.792 602.67 425.407 607.187C427.023 611.704 432.03 625.093 432.03 625.093C432.03 625.093 439.137 635.578 442.206 640.901C445.275 646.225 455.774 650.58 463.689 651.871C471.603 653.161 477.741 653.645 478.226 643.16C478.71 632.674 474.672 625.577 468.05 620.737C461.427 615.898 459.974 611.381 459.974 611.381C460.458 604.928 460.458 598.476 459.974 592.023C459.166 584.603 454.32 578.795 453.836 563.471C453.351 548.146 450.282 467.327 447.698 454.583C445.113 441.84 441.56 356.666 442.044 344.89C442.529 333.114 440.914 300.044 440.914 300.044L333.985 298.754L334.147 305.045Z" fill="#263238" stroke="#263238" stroke-width="0.75" stroke-miterlimit="10"/>
<path d="M376.144 128.245C376.144 128.245 359.83 137.924 348.2 143.57C336.57 149.216 322.518 152.604 321.064 155.83C319.61 159.056 294.736 212.129 289.89 219.388C285.044 226.647 273.899 240.681 276.16 248.586C278.422 256.49 287.306 267.298 293.12 266.653C298.935 266.008 310.565 262.62 315.249 254.393C319.933 246.166 331.24 219.388 331.24 219.388C331.24 219.388 333.017 244.23 332.694 256.651C332.371 269.073 332.371 279.074 331.563 285.204C330.755 291.334 327.525 298.916 328.979 301.174C330.432 303.432 332.209 305.53 333.986 305.207C335.763 304.884 362.899 304.562 371.136 304.884C379.374 305.207 417.009 304.884 425.085 305.207C433.161 305.53 439.945 301.658 440.592 300.206C441.238 298.754 442.853 296.657 442.045 288.592C441.238 280.526 442.853 256.49 444.953 247.134C447.053 237.778 460.136 201.643 460.136 201.643C460.136 201.643 494.54 228.744 501.809 230.841C509.078 232.938 528.622 229.712 535.083 221.807C541.544 213.903 543.805 207.773 539.767 202.288C535.729 196.965 521.353 191.803 506.17 175.51C490.987 159.218 485.172 151.636 474.673 146.635C464.174 141.634 442.853 134.698 437.846 132.601C432.838 130.504 431.385 129.374 428.154 127.923C424.924 126.471 417.332 123.567 403.118 123.244C393.911 123.083 384.704 124.858 376.144 128.245Z" fill="#B0BEC5" stroke="#263238" stroke-width="0.75" stroke-miterlimit="10"/>
<path d="M323.971 193.899C324.455 195.674 331.239 219.548 331.239 219.548L321.225 199.707" stroke="#263238" stroke-width="0.75" stroke-miterlimit="10"/>
<path d="M460.297 201.482C458.843 201.482 444.629 193.416 444.629 193.416" stroke="#263238" stroke-width="0.75" stroke-miterlimit="10"/>
<path d="M437.361 192.447C437.361 192.447 443.015 199.868 448.022 201.481" stroke="#263238" stroke-width="0.75" stroke-miterlimit="10"/>
<path d="M374.204 150.345L378.727 167.444C378.727 167.444 364.351 239.229 362.09 251.328C360.636 258.587 359.828 266.007 359.344 273.428L371.943 298.27L387.772 271.331C387.772 271.331 386.318 237.293 385.672 210.193C385.026 183.092 386.157 169.864 385.834 169.219C385.511 168.574 401.663 156.636 401.663 156.636C401.663 156.636 411.031 146.312 411.516 144.538C412 142.763 405.055 145.022 403.44 146.635C399.886 149.539 395.202 150.668 390.841 149.7C384.218 148.409 375.658 141.15 374.527 144.699C373.881 146.474 373.719 148.409 374.204 150.345Z" fill="#263238" stroke="#263238" stroke-width="0.75" stroke-miterlimit="10"/>
<path d="M385.026 121.147C384.218 121.631 378.242 123.244 376.142 128.245C374.042 133.245 363.866 156.475 360.797 160.185C357.728 163.895 362.574 162.443 366.612 159.862C370.65 157.281 374.204 147.602 376.465 151.797C378.726 155.991 385.349 157.765 385.349 157.765C385.349 157.765 398.917 155.184 401.986 153.248C404.086 151.797 406.024 150.183 407.801 148.409C407.801 148.409 419.43 165.831 422.661 167.283C425.891 168.735 426.537 166.315 426.699 163.573C427.83 153.41 429.768 143.408 432.514 133.568C435.744 122.76 429.445 119.211 425.407 114.694C421.369 110.178 416.846 113.243 412.323 113.726C407.801 114.21 385.026 121.147 385.026 121.147Z" fill="#B0BEC5" stroke="#263238" stroke-width="0.75" stroke-miterlimit="10"/>
<path d="M444.791 282.3C444.791 282.3 437.522 281.977 435.745 281.655C433.969 281.332 428.154 275.847 425.569 276.17C422.985 276.493 418.301 281.655 416.524 285.849C414.747 290.043 413.94 292.301 413.94 292.301C413.94 292.301 407.479 298.109 410.709 301.98C413.94 305.852 417.655 304.561 417.655 304.561C417.655 304.561 419.755 308.11 422.662 308.594C424.762 308.755 427.023 308.917 429.123 308.917C431.061 309.562 432.999 309.723 434.938 309.562C436.553 309.239 438.007 308.594 439.299 307.788C440.753 307.949 442.368 307.626 443.66 306.658C444.952 305.69 451.413 299.077 454.644 295.689L456.582 293.592L444.791 282.3Z" fill="white" stroke="#263238" stroke-width="0.75" stroke-miterlimit="10"/>
<path d="M505.2 207.934C505.2 207.934 491.794 222.775 487.432 229.872C480.487 240.842 472.895 251.489 464.658 261.651C459.65 267.459 441.883 281.493 441.883 281.493C441.883 281.493 447.375 293.108 451.251 294.882C453.513 296.011 455.935 296.818 458.52 297.463L473.057 286.655C473.057 286.655 500.516 265.684 515.053 253.747C529.59 241.81 549.781 226.001 551.234 219.064C552.688 212.128 551.557 208.579 544.289 203.256C539.766 199.868 534.759 197.448 529.429 195.674" fill="#B0BEC5"/>
<path d="M505.2 207.934C505.2 207.934 491.794 222.775 487.432 229.872C480.487 240.842 472.895 251.489 464.658 261.651C459.65 267.459 441.883 281.493 441.883 281.493C441.883 281.493 447.375 293.108 451.251 294.882C453.513 296.011 455.935 296.818 458.52 297.463L473.057 286.655C473.057 286.655 500.516 265.684 515.053 253.747C529.59 241.81 549.781 226.001 551.234 219.064C552.688 212.128 551.557 208.579 544.289 203.256C539.766 199.868 534.759 197.448 529.429 195.674" stroke="#263238" stroke-width="0.75" stroke-miterlimit="10"/>
<path d="M453.189 272.621C453.189 272.621 456.42 288.591 467.727 288.591" stroke="#263238" stroke-width="0.75" stroke-miterlimit="10"/>
<path d="M295.541 155.507C295.541 155.507 296.995 168.251 297.803 173.897C297.964 176.8 298.933 179.543 300.226 182.124C300.226 182.124 288.434 208.256 287.95 209.063C287.465 209.87 275.189 232.776 273.251 235.519C271.313 238.261 266.467 246.972 269.536 252.457C272.605 257.941 277.289 269.072 283.427 269.395C289.565 269.717 298.449 265.846 304.425 262.458C310.402 259.07 312.34 256.651 312.986 246.811C313.632 236.97 313.148 218.903 314.924 209.547C316.701 200.029 317.993 190.189 319.124 186.479C320.255 182.769 327.685 184.059 330.108 182.446C332.53 180.833 334.792 177.768 339.314 175.671C343.191 174.219 347.391 173.897 351.59 174.703C353.044 175.187 355.79 172.929 355.144 170.186C354.498 167.444 349.329 165.992 344.483 166.476C339.637 166.96 334.953 168.412 333.823 167.767C332.692 167.121 331.4 153.894 331.4 153.894C331.4 153.894 313.632 155.345 307.494 155.668C301.356 155.991 295.541 155.507 295.541 155.507Z" fill="white" stroke="#263238" stroke-width="0.75" stroke-miterlimit="10"/>
<path d="M323.002 145.828C323.002 145.828 323.325 162.282 323.325 163.734C323.325 165.186 324.456 166.315 325.909 166.154H326.071C327.363 165.993 330.594 167.122 331.401 163.412C332.209 159.701 333.663 149.216 332.855 146.796C332.047 144.377 325.263 143.409 323.002 145.828Z" fill="white" stroke="#263238" stroke-width="0.75" stroke-miterlimit="10"/>
<path d="M323.001 145.828C323.001 145.828 315.086 143.892 312.825 145.022C310.564 146.151 314.117 163.895 314.279 165.347C314.44 166.799 317.994 167.606 319.447 167.122C320.901 166.638 323.162 165.67 323.162 163.573C323.162 161.476 323.001 145.828 323.001 145.828Z" fill="white" stroke="#263238" stroke-width="0.75" stroke-miterlimit="10"/>
<path d="M311.05 145.667C311.05 145.667 305.881 144.699 304.266 146.473C302.65 148.248 302.327 150.667 302.812 155.184C303.458 159.54 304.75 163.895 306.85 167.928C307.819 169.38 311.05 169.702 313.149 168.896C315.249 168.089 314.442 165.67 314.442 165.67C314.442 165.67 313.473 164.702 313.149 156.959C312.826 149.215 312.988 145.183 312.988 145.183L311.05 145.667Z" fill="white" stroke="#263238" stroke-width="0.75" stroke-miterlimit="10"/>
<path d="M302.328 148.57C301.358 148.732 295.059 149.054 294.897 151.635C294.736 154.216 296.836 165.831 297.966 167.121C299.097 168.412 301.681 167.928 302.651 167.283C303.62 166.637 305.397 165.992 305.073 164.54C304.75 163.089 302.328 148.57 302.328 148.57Z" fill="white" stroke="#263238" stroke-width="0.75" stroke-miterlimit="10"/>
<path d="M304.264 197.933C300.549 197.288 297.48 194.868 296.188 191.48C292.796 199.062 288.435 208.741 288.112 209.225C287.627 210.032 275.352 232.938 273.413 235.681C271.475 238.423 266.629 247.134 269.698 252.619C272.767 258.103 277.451 269.234 283.589 269.557C289.727 269.879 298.611 266.008 304.587 262.62C310.564 259.232 312.502 256.813 313.148 246.973C313.794 237.132 313.31 219.065 315.086 209.709C315.894 205.031 316.702 200.353 317.348 196.159C313.148 197.449 308.787 198.094 304.264 197.933Z" fill="#B0BEC5" stroke="#263238" stroke-width="0.75" stroke-miterlimit="10"/>
<path d="M315.732 170.509C315.732 170.509 311.532 174.219 311.047 177.445C310.724 179.542 311.209 181.639 312.34 183.414" fill="white"/>
<path d="M315.732 170.509C315.732 170.509 311.532 174.219 311.047 177.445C310.724 179.542 311.209 181.639 312.34 183.414" stroke="#263238" stroke-width="0.75" stroke-miterlimit="10"/>
<path d="M381.957 103.403C383.088 106.145 383.734 109.049 384.38 111.952C384.38 113.888 382.765 143.892 385.672 142.925C388.58 141.634 418.138 121.792 419.431 118.566C420.723 115.34 418.623 95.8208 419.431 90.9814C420.238 86.142 421.853 78.8828 421.853 78.8828C421.853 78.8828 410.062 90.9814 400.694 96.3047C394.717 99.3697 388.418 101.628 381.957 103.403Z" fill="white" stroke="#263238" stroke-linecap="round" stroke-linejoin="round"/>
<path d="M384.379 111.791C384.379 112.92 383.895 120.502 383.895 128.084L410.707 100.66L382.279 104.37C383.248 106.629 384.056 109.21 384.379 111.791Z" fill="#263238" stroke="#263238" stroke-linecap="round" stroke-linejoin="round"/>
<path d="M368.713 55.6531C367.42 55.4918 351.591 56.7823 350.783 43.8772C349.976 36.7793 354.337 30.1654 361.282 27.907C361.282 27.907 351.268 17.099 364.028 11.1304C376.789 5.16174 391.972 8.38803 391.972 8.38803C391.972 8.38803 390.518 -1.45214 402.309 1.2902C414.101 4.03254 422.177 17.5829 422.338 18.7121C422.661 20.0027 438.975 25.326 444.306 33.7144C449.636 42.1027 448.182 53.2334 443.821 60.4925C439.621 66.9451 435.099 73.2363 430.092 79.205C427.023 81.6247 422.823 82.1086 419.431 80.6568C413.132 78.0758 409.093 76.14 409.417 70.978C409.74 65.8159 407.963 52.1042 406.509 50.3297C405.055 48.7166 401.179 47.91 393.264 49.3618C385.511 51.2976 368.713 55.6531 368.713 55.6531Z" fill="#263238" stroke="#263238" stroke-linecap="round" stroke-linejoin="round"/>
<path d="M368.39 51.782C368.39 51.782 367.582 63.5579 366.613 66.9455C364.029 78.5601 362.09 90.3361 360.798 102.273C360.314 109.855 368.39 115.985 372.589 116.146C376.951 116.308 383.896 112.759 390.357 111.468C396.818 110.016 414.262 104.048 417.008 100.176C419.754 95.9821 420.723 95.0142 420.723 95.0142C420.723 95.0142 434.13 92.5945 436.068 81.4638C438.006 70.4944 430.899 69.2039 425.569 71.7849C422.662 73.2368 420.077 74.8499 417.655 76.7857C417.655 76.7857 413.778 76.4631 414.424 73.5594C415.07 71.7849 415.393 69.8492 415.716 68.0747C415.878 65.9776 414.586 64.6871 413.293 59.8477C411.84 55.1696 411.032 55.3309 412.97 51.298C414.909 47.1039 418.785 39.8447 418.785 39.8447C418.785 39.8447 382.281 41.2966 368.39 51.782Z" fill="white" stroke="#263238" stroke-linecap="round" stroke-linejoin="round"/>
<path d="M386.156 54.6858C386.156 54.6858 392.456 53.8793 396.655 56.6216" stroke="#263238" stroke-linecap="round" stroke-linejoin="round"/>
<path d="M375.335 53.8786C373.397 52.7494 370.813 52.7494 368.713 53.556" stroke="#263238" stroke-linecap="round" stroke-linejoin="round"/>
<path d="M370.812 90.6586C370.812 90.6586 376.143 93.5623 383.411 88.5615" stroke="#263238" stroke-linecap="round" stroke-linejoin="round"/>
<path d="M391.81 63.2345C391.648 64.6863 390.356 65.6542 389.064 65.4929C387.61 65.3316 386.641 64.041 386.803 62.7505C386.964 61.2987 388.256 60.3308 389.549 60.4921C391.002 60.6534 391.971 61.7827 391.81 63.2345Z" fill="#263238"/>
<path d="M373.236 60.6538C373.236 61.9444 372.105 62.7509 370.974 62.5896C369.682 62.5896 368.875 61.4604 369.036 60.3312C369.036 59.0407 370.167 58.2341 371.297 58.3955C372.59 58.3955 373.397 59.5246 373.236 60.6538Z" fill="#263238"/>
<path d="M379.857 57.9109C379.857 57.9109 377.111 67.1058 381.472 70.8161C385.995 74.5263 396.655 73.5584 399.401 70.6547C402.147 67.7511 403.924 60.3306 403.924 60.3306C403.924 60.3306 390.679 55.8138 379.857 57.9109Z" stroke="#263238" stroke-linecap="round" stroke-linejoin="round"/>
<path d="M374.85 57.7498C374.85 57.7498 375.819 67.106 372.104 70.3323C368.389 73.5585 360.474 71.3001 358.697 68.2352C357.082 65.1702 356.598 57.5884 356.598 57.5884C356.598 57.5884 367.097 54.3622 374.85 57.7498Z" stroke="#263238" stroke-linecap="round" stroke-linejoin="round"/>
<path d="M374.85 57.7504C374.85 57.7504 376.303 56.4599 379.857 58.0731" stroke="#263238" stroke-linecap="round" stroke-linejoin="round"/>
<path d="M403.924 61.1377L422.338 72.9136" stroke="#263238" stroke-linecap="round" stroke-linejoin="round"/>
<path d="M376.788 61.1377C376.788 61.1377 359.99 74.6881 361.282 79.3662C362.736 84.0443 376.788 83.883 376.788 83.883" fill="white"/>
<path d="M376.788 61.1377C376.788 61.1377 359.99 74.6881 361.282 79.3662C362.736 84.0443 376.788 83.883 376.788 83.883" stroke="#263238" stroke-linecap="round" stroke-linejoin="round"/>
<defs>
<filter id="filter0_d_1111_2757" x="0" y="71" width="320" height="102" filterUnits="userSpaceOnUse" color-interpolation-filters="sRGB">
<feFlood flood-opacity="0" result="BackgroundImageFix"/>
<feColorMatrix in="SourceAlpha" type="matrix" values="0 0 0 0 0 0 0 0 0 0 0 0 0 0 0 0 0 0 127 0" result="hardAlpha"/>
<feOffset dx="5" dy="5"/>
<feComposite in2="hardAlpha" operator="out"/>
<feColorMatrix type="matrix" values="0 0 0 0 0.2 0 0 0 0 0.243137 0 0 0 0 0.388235 0 0 0 1 0"/>
<feBlend mode="normal" in2="BackgroundImageFix" result="effect1_dropShadow_1111_2757"/>
<feBlend mode="normal" in="SourceGraphic" in2="effect1_dropShadow_1111_2757" result="shape"/>
</filter>
</defs>
</svg>
