<svg width="31" height="31" viewBox="0 0 31 31" fill="none" xmlns="http://www.w3.org/2000/svg">
<path d="M15.5003 29.7083C23.3474 29.7083 29.7087 23.347 29.7087 15.5C29.7087 7.65291 23.3474 1.29163 15.5003 1.29163C7.65328 1.29163 1.29199 7.65291 1.29199 15.5C1.29199 23.347 7.65328 29.7083 15.5003 29.7083Z" stroke="#333E63" stroke-width="1.3" stroke-linecap="round" stroke-linejoin="round"/>
<path d="M24.1536 26.0593V23.7989C24.1536 22.5999 23.6773 21.45 22.8295 20.6022C21.9817 19.7544 20.8318 19.2781 19.6328 19.2781H10.5911C9.39215 19.2781 8.24225 19.7544 7.39443 20.6022C6.54661 21.45 6.07031 22.5999 6.07031 23.7989V26.0593" stroke="#333E63" stroke-width="1.3" stroke-linecap="round" stroke-linejoin="round"/>
<path d="M15.1126 15.7572C17.6094 15.7572 19.6335 13.7332 19.6335 11.2364C19.6335 8.73962 17.6094 6.71558 15.1126 6.71558C12.6158 6.71558 10.5918 8.73962 10.5918 11.2364C10.5918 13.7332 12.6158 15.7572 15.1126 15.7572Z" stroke="#333E63" stroke-width="1.3" stroke-linecap="round" stroke-linejoin="round"/>
</svg>
