<svg width="167" height="317" viewBox="0 0 167 317" fill="none" xmlns="http://www.w3.org/2000/svg">
<g clip-path="url(#clip0_507_4767)">
<path d="M50.0933 290.576C46.945 294.491 44.0066 298.545 41.348 302.739C37.7799 308.541 39.0392 314.693 43.4469 316.301C47.8545 317.909 53.3815 313.645 54.8507 310.289C56.3199 306.934 55.8302 305.186 58.139 301.831C60.4477 298.475 62.2667 295.12 61.4272 290.716C60.5876 286.312 52.2621 287.43 50.0933 290.576Z" fill="white" stroke="#263238" stroke-miterlimit="10"/>
<path d="M53.3816 308.961C52.1223 310.918 50.4432 316.301 44.0067 314.064C42.1877 313.575 40.5785 312.526 39.3892 310.918C39.669 313.365 41.2082 315.462 43.447 316.231C47.7846 317.769 53.3816 313.575 54.8508 310.219C56.32 306.864 55.8303 305.116 58.139 301.761C60.4478 298.405 62.2668 295.05 61.4273 290.646C61.4273 295.959 59.6083 296.797 57.2995 299.803C54.9907 302.809 54.571 307.004 53.3816 308.961Z" fill="white" stroke="#263238" stroke-linecap="round" stroke-linejoin="round"/>
<path d="M111.24 290.576C114.389 294.491 117.327 298.545 119.986 302.739C123.554 308.541 122.294 314.693 117.887 316.301C113.479 317.839 107.952 313.645 106.483 310.289C105.014 306.934 105.504 305.186 103.195 301.831C100.886 298.475 99.067 295.12 99.9066 290.716C100.606 286.312 108.932 287.43 111.24 290.576Z" fill="white" stroke="#263238" stroke-miterlimit="10"/>
<path d="M107.952 308.961C109.212 310.918 110.891 316.301 117.327 314.064C119.146 313.575 120.755 312.526 121.945 310.918C121.665 313.365 120.126 315.462 117.887 316.231C113.549 317.769 107.952 313.575 106.483 310.219C105.014 306.864 105.504 305.116 103.195 301.761C100.886 298.405 99.067 295.05 99.9066 290.646C99.9066 295.959 101.726 296.797 104.034 299.803C106.273 302.809 106.623 307.004 107.952 308.961Z" fill="white" stroke="#263238" stroke-linecap="round" stroke-linejoin="round"/>
<path d="M120.965 214.03C120.965 209.975 114.529 205.571 114.529 205.571C104.874 195.085 87.3832 196.414 80.9467 197.392C74.5101 196.414 57.0196 195.015 47.3648 205.571C47.3648 205.571 40.9282 209.975 40.9282 214.03C40.9282 218.084 48.9739 290.156 48.9739 290.156C48.9739 290.156 48.764 293.861 54.5709 294.351C60.3777 294.84 62.8264 291.205 62.8264 291.205L65.1352 230.248C65.1352 230.248 74.5101 223.187 76.1193 222.908C76.7489 222.838 77.5185 222.698 78.428 222.628V222.698C80.1071 222.278 81.7162 222.278 83.3953 222.698V222.628C84.3048 222.698 85.0744 222.908 85.7041 222.908C87.3832 223.117 96.6882 230.248 96.6882 230.248L98.9969 291.205C98.9969 291.205 101.446 294.77 107.252 294.351C113.059 293.861 112.849 290.156 112.849 290.156C112.849 290.156 120.965 218.014 120.965 214.03Z" fill="#263238" stroke="#263238" stroke-linecap="round" stroke-linejoin="round"/>
<path d="M96.6883 230.248C96.6883 230.248 95.4289 215.638 101.446 210.045" stroke="#707070" stroke-linecap="round" stroke-linejoin="round"/>
<path d="M65.205 230.248C65.205 230.248 65.8347 218.084 64.5753 213.54C63.316 208.996 61.2871 207.389 61.2871 207.389" stroke="#707070" stroke-linecap="round" stroke-linejoin="round"/>
<path d="M72.8311 201.167C72.8311 201.167 79.4075 209.416 80.7368 216.267" stroke="#707070" stroke-linecap="round" stroke-linejoin="round"/>
<path d="M87.3832 201.657C87.3832 201.657 83.6052 206.061 83.2554 209.416" stroke="#707070" stroke-linecap="round" stroke-linejoin="round"/>
<path d="M40.0182 160.552L48.4837 170.828C48.4837 170.828 35.2608 179.287 34.6311 179.287C33.9315 179.287 32.1824 177.05 30.8532 174.114C29.5239 171.178 16.5109 136.505 16.5109 136.505C16.5109 136.505 4.6173 128.046 3.91767 127.627C3.21805 127.207 0.139709 119.518 0.349596 117.071C0.559482 114.624 3.91767 119.588 5.52681 120.496C7.13594 121.405 14.9018 124.271 14.9018 124.271C14.9018 124.271 14.482 122.454 13.7824 122.034C13.0827 121.615 11.5436 120.916 11.1238 119.378C10.704 117.84 11.3337 116.442 12.2432 117.56C13.5725 118.958 15.1116 120.287 16.7208 121.335C18.2599 122.454 19.3793 123.572 19.6592 125.599C19.8691 127.627 21.4782 134.547 21.4782 134.547L39.8083 161.391L40.0182 160.552Z" fill="white" stroke="#263238" stroke-miterlimit="10" stroke-linecap="round"/>
<path d="M126.982 160.552L118.516 170.828C118.516 170.828 131.739 179.287 132.369 179.287C132.998 179.287 134.817 177.05 136.147 174.114C137.476 171.178 150.489 136.505 150.489 136.505C150.489 136.505 162.382 127.976 163.012 127.557C163.712 127.137 166.79 119.448 166.58 117.001C166.37 114.554 163.012 119.518 161.403 120.427C159.864 121.335 152.028 124.201 152.028 124.201C152.028 124.201 152.448 122.384 153.147 121.964C153.847 121.545 155.386 120.846 155.806 119.308C156.226 117.77 155.596 116.372 154.687 117.491C153.357 118.889 151.818 120.217 150.209 121.265C148.67 122.384 147.55 123.502 147.271 125.53C147.061 127.557 145.452 134.477 145.452 134.477L127.121 161.321L126.982 160.552Z" fill="white" stroke="#263238" stroke-miterlimit="10" stroke-linecap="round"/>
<path d="M74.8596 131.402L53.1713 136.784L38.6191 160.063L45.5454 177.259L55.62 166.284L59.398 190.471L57.1592 200.118C57.1592 200.118 65.2048 202.985 71.5014 203.893C77.798 204.802 81.3661 205.711 93.8894 203.194C106.413 200.678 105.783 200.048 105.783 200.048L103.754 192.429L106.692 164.676L119.216 175.442L127.261 160.692L109.631 136.784L89.9015 131.402H74.8596Z" fill="#B0BEC5" stroke="#263238" stroke-miterlimit="10"/>
<path d="M74.7195 127.347C73.1804 128.256 70.6617 130.003 70.6617 131.122C70.6617 132.24 69.1226 150.346 69.1226 150.346L79.8967 142.097L92.2101 150.346L92.9097 134.477L90.2512 130.003L88.2223 128.256C88.1523 128.256 76.2587 126.438 74.7195 127.347Z" fill="white" stroke="#263238" stroke-miterlimit="10" stroke-linecap="round"/>
<path d="M73.3906 117.211L73.8804 130.772L79.8971 144.823C79.8971 144.823 88.3626 132.87 88.6424 131.751C88.8523 130.633 89.1322 124.621 89.1322 124.621L73.3906 117.211Z" fill="white" stroke="#263238" stroke-miterlimit="10" stroke-linecap="round"/>
<path d="M89.0623 126.019L83.1155 123.223L76.0493 123.922C76.0493 123.922 79.3375 129.514 85.2843 130.843C86.4737 131.122 87.6631 131.192 88.8524 131.052C88.9224 128.885 89.0623 126.019 89.0623 126.019Z" fill="#263238" stroke="#263238" stroke-miterlimit="10" stroke-linecap="round"/>
<path d="M65.5547 98.9657L68.1434 109.941C68.1434 109.941 65.4848 108.473 65.9745 112.108C66.4643 115.603 67.5137 118.609 68.843 118.749C69.6825 118.819 70.662 118.889 71.5015 118.889C71.5015 118.889 72.6909 123.223 74.1601 124.062C75.6293 124.901 83.1852 127.767 84.5845 128.326C85.9837 128.885 89.9716 127.767 90.8111 127.207C91.6507 126.718 94.0994 120.496 94.5891 118.889C95.0788 117.281 94.729 111.129 94.729 111.129C94.729 111.129 92.4203 100.573 92.0005 97.6375C91.5807 94.6316 91.3708 91.7654 89.5518 89.878C87.7328 87.9207 81.2263 85.6138 75.1396 87.8507C69.1228 89.878 63.9456 91.9752 65.5547 98.9657Z" fill="white" stroke="#263238" stroke-linecap="round" stroke-linejoin="round"/>
<path d="M81.8558 103.929C81.8558 103.929 77.798 103.09 74.9995 106.026" stroke="#263238" stroke-linecap="round" stroke-linejoin="round"/>
<path d="M87.0332 102.88C87.0332 102.88 89.8317 100.434 92.0005 102.181" stroke="#263238" stroke-linecap="round" stroke-linejoin="round"/>
<path d="M80.8064 109.032C80.9464 109.801 80.5266 110.57 79.8969 110.64C79.2673 110.71 78.7775 110.15 78.5676 109.312C78.4277 108.543 78.8475 107.774 79.4072 107.704C80.0369 107.634 80.6665 108.193 80.8064 109.032Z" fill="#263238"/>
<path d="M90.8834 108.95C91.4948 108.859 91.8933 108.135 91.7735 107.333C91.6536 106.531 91.0608 105.955 90.4494 106.046C89.838 106.137 89.4394 106.861 89.5593 107.663C89.6791 108.465 90.272 109.041 90.8834 108.95Z" fill="#263238"/>
<path d="M86.2637 107.564C86.2637 107.564 86.8234 110.919 87.1732 111.479C87.523 111.898 90.5314 112.597 90.3914 113.436C90.2515 114.275 87.453 115.463 87.453 115.463" stroke="#263238" stroke-miterlimit="10"/>
<path d="M82.5557 119.588C88.5724 120.986 91.5108 118.609 91.5108 118.609" stroke="#263238" stroke-miterlimit="10" stroke-linecap="round"/>
<path d="M75.9094 93.1634C75.9094 93.1634 73.1109 99.6646 70.9421 101.692L68.8432 103.789C68.8432 103.789 71.6417 111.688 71.3618 112.178C71.082 112.737 70.5922 112.947 70.3824 112.248C70.1725 111.548 69.8926 110.919 69.3329 110.71C68.7033 110.5 66.9542 109.941 66.9542 109.941L63.3861 102.671C63.3861 102.671 60.5876 100.224 61.2173 97.8471C61.777 95.5402 63.8759 91.5556 63.8759 91.5556C63.8759 91.5556 62.4766 91.2061 63.0363 90.1575C63.596 89.1089 69.6128 88.7594 69.6128 88.7594C69.6128 88.7594 69.9626 85.6836 71.7816 85.1243C73.6006 84.5651 73.6006 85.1942 73.6006 85.1942C73.6006 85.1942 80.317 81.4892 84.3049 81.2795C88.2927 81.0698 100.956 90.3672 99.7665 91.6954C98.6471 93.1634 94.5893 94.2819 94.5893 94.2819C94.5893 94.2819 95.0791 105.607 94.6593 105.816L94.0996 106.026L91.7209 96.3791C91.6509 96.449 79.3375 95.3305 75.9094 93.1634Z" fill="#263238" stroke="#263238" stroke-miterlimit="10"/>
</g>
<g filter="url(#filter0_d_507_4767)">
<path d="M78.5633 72L93.0587 54.9641L141.729 54.9641C146.852 54.9641 151 50.8065 151 45.6705L151 10.2936C151 5.15765 146.852 1 141.729 1L18.2711 1.00001C13.1476 1.00001 9 5.15766 9 10.2936L9 45.5483C9 50.6842 13.1476 54.8419 18.2711 54.8419L78.7861 54.8418L78.5633 72Z" fill="white"/>
<path d="M78.9441 72.324C78.8075 72.4845 78.5849 72.5422 78.3876 72.4681C78.1903 72.3941 78.0606 72.2043 78.0633 71.9935L78.2796 55.3418L18.2711 55.3419C12.8703 55.3419 8.5 50.9592 8.5 45.5483L8.5 10.2936C8.5 4.88266 12.8703 0.500006 18.2711 0.500006L141.729 0.5C147.13 0.5 151.5 4.88265 151.5 10.2936L151.5 45.6705C151.5 51.0815 147.13 55.4641 141.729 55.4641L93.2898 55.4641L78.9441 72.324Z" stroke="#333E63" stroke-linecap="round" stroke-linejoin="round"/>
</g>
<path d="M33.338 14.2V24H32.316V15.096H27.584L27.472 18.372C27.4253 19.7253 27.3133 20.8173 27.136 21.648C26.968 22.4693 26.7067 23.0853 26.352 23.496C25.9973 23.8973 25.526 24.098 24.938 24.098C24.686 24.098 24.4247 24.0653 24.154 24L24.238 23.076C24.3967 23.1133 24.5507 23.132 24.7 23.132C25.1107 23.132 25.442 22.9687 25.694 22.642C25.9553 22.3153 26.1513 21.8113 26.282 21.13C26.4127 20.4393 26.5013 19.5293 26.548 18.4L26.688 14.2H33.338ZM38.9402 16.58C39.9015 16.58 40.6389 16.8227 41.1522 17.308C41.6655 17.784 41.9222 18.4933 41.9222 19.436V24H40.9702V22.852C40.7462 23.2347 40.4149 23.5333 39.9762 23.748C39.5469 23.9627 39.0335 24.07 38.4362 24.07C37.6149 24.07 36.9615 23.874 36.4762 23.482C35.9909 23.09 35.7482 22.572 35.7482 21.928C35.7482 21.3027 35.9722 20.7987 36.4202 20.416C36.8775 20.0333 37.6009 19.842 38.5902 19.842H40.9282V19.394C40.9282 18.7593 40.7509 18.2787 40.3962 17.952C40.0415 17.616 39.5235 17.448 38.8422 17.448C38.3755 17.448 37.9275 17.5273 37.4982 17.686C37.0689 17.8353 36.7002 18.0453 36.3922 18.316L35.9442 17.574C36.3175 17.2567 36.7655 17.014 37.2882 16.846C37.8109 16.6687 38.3615 16.58 38.9402 16.58ZM38.5902 23.286C39.1502 23.286 39.6309 23.16 40.0322 22.908C40.4335 22.6467 40.7322 22.2733 40.9282 21.788V20.584H38.6182C37.3582 20.584 36.7282 21.0227 36.7282 21.9C36.7282 22.3293 36.8915 22.67 37.2182 22.922C37.5449 23.1647 38.0022 23.286 38.5902 23.286ZM51.7503 23.132V25.778H50.8123V24H44.2183V25.778H43.2803V23.132H43.7003C44.195 23.104 44.531 22.74 44.7083 22.04C44.8856 21.34 45.007 20.36 45.0723 19.1L45.1703 16.636H50.6023V23.132H51.7503ZM45.9823 19.156C45.9356 20.2013 45.847 21.0647 45.7163 21.746C45.5856 22.418 45.3523 22.88 45.0163 23.132H49.6083V17.518H46.0663L45.9823 19.156ZM53.6874 16.636H54.6814V19.898H59.3154V16.636H60.3094V24H59.3154V20.752H54.6814V24H53.6874V16.636ZM66.1727 24.07C65.4634 24.07 64.824 23.9113 64.2547 23.594C63.6854 23.2673 63.2374 22.8193 62.9107 22.25C62.584 21.6807 62.4207 21.0367 62.4207 20.318C62.4207 19.5993 62.584 18.9553 62.9107 18.386C63.2374 17.8167 63.6854 17.3733 64.2547 17.056C64.824 16.7387 65.4634 16.58 66.1727 16.58C66.882 16.58 67.5214 16.7387 68.0907 17.056C68.66 17.3733 69.1034 17.8167 69.4207 18.386C69.7474 18.9553 69.9107 19.5993 69.9107 20.318C69.9107 21.0367 69.7474 21.6807 69.4207 22.25C69.1034 22.8193 68.66 23.2673 68.0907 23.594C67.5214 23.9113 66.882 24.07 66.1727 24.07ZM66.1727 23.188C66.6954 23.188 67.162 23.0713 67.5727 22.838C67.9927 22.5953 68.3194 22.2547 68.5527 21.816C68.786 21.3773 68.9027 20.878 68.9027 20.318C68.9027 19.758 68.786 19.2587 68.5527 18.82C68.3194 18.3813 67.9927 18.0453 67.5727 17.812C67.162 17.5693 66.6954 17.448 66.1727 17.448C65.65 17.448 65.1787 17.5693 64.7587 17.812C64.348 18.0453 64.0214 18.3813 63.7787 18.82C63.5454 19.2587 63.4287 19.758 63.4287 20.318C63.4287 20.878 63.5454 21.3773 63.7787 21.816C64.0214 22.2547 64.348 22.5953 64.7587 22.838C65.1787 23.0713 65.65 23.188 66.1727 23.188ZM71.9 24.07C71.6947 24.07 71.5173 23.9953 71.368 23.846C71.228 23.6967 71.158 23.5147 71.158 23.3C71.158 23.0853 71.228 22.908 71.368 22.768C71.5173 22.6187 71.6947 22.544 71.9 22.544C72.1053 22.544 72.2827 22.6187 72.432 22.768C72.5813 22.908 72.656 23.0853 72.656 23.3C72.656 23.5147 72.5813 23.6967 72.432 23.846C72.2827 23.9953 72.1053 24.07 71.9 24.07ZM84.9709 21.382H79.5109L78.3349 24H77.2569L81.7369 14.2H82.7589L87.2389 24H86.1469L84.9709 21.382ZM84.5929 20.542L82.2409 15.278L79.8889 20.542H84.5929ZM95.6229 24.07C94.8949 24.07 94.2416 23.9113 93.6629 23.594C93.0936 23.2767 92.6456 22.8333 92.3189 22.264C91.9922 21.6853 91.8289 21.0367 91.8289 20.318C91.8289 19.5993 91.9922 18.9553 92.3189 18.386C92.6456 17.8167 93.0936 17.3733 93.6629 17.056C94.2416 16.7387 94.8949 16.58 95.6229 16.58C96.2576 16.58 96.8222 16.706 97.3169 16.958C97.8209 17.2007 98.2176 17.56 98.5069 18.036L97.7649 18.54C97.5222 18.176 97.2142 17.9053 96.8409 17.728C96.4676 17.5413 96.0616 17.448 95.6229 17.448C95.0909 17.448 94.6102 17.5693 94.1809 17.812C93.7609 18.0453 93.4296 18.3813 93.1869 18.82C92.9536 19.2587 92.8369 19.758 92.8369 20.318C92.8369 20.8873 92.9536 21.3913 93.1869 21.83C93.4296 22.2593 93.7609 22.5953 94.1809 22.838C94.6102 23.0713 95.0909 23.188 95.6229 23.188C96.0616 23.188 96.4676 23.0993 96.8409 22.922C97.2142 22.7447 97.5222 22.474 97.7649 22.11L98.5069 22.614C98.2176 23.09 97.8209 23.454 97.3169 23.706C96.8129 23.9487 96.2482 24.07 95.6229 24.07ZM109.654 16.636V24H108.66V20.934C107.81 21.3073 106.975 21.494 106.154 21.494C105.267 21.494 104.576 21.2933 104.082 20.892C103.587 20.4813 103.34 19.87 103.34 19.058V16.636H104.334V19.002C104.334 19.5527 104.511 19.9727 104.866 20.262C105.22 20.542 105.71 20.682 106.336 20.682C107.026 20.682 107.801 20.5 108.66 20.136V16.636H109.654ZM118.917 20.626H112.757C112.813 21.3913 113.107 22.012 113.639 22.488C114.171 22.9547 114.843 23.188 115.655 23.188C116.112 23.188 116.532 23.1087 116.915 22.95C117.297 22.782 117.629 22.5393 117.909 22.222L118.469 22.866C118.142 23.258 117.731 23.5567 117.237 23.762C116.751 23.9673 116.215 24.07 115.627 24.07C114.871 24.07 114.199 23.9113 113.611 23.594C113.032 23.2673 112.579 22.8193 112.253 22.25C111.926 21.6807 111.763 21.0367 111.763 20.318C111.763 19.5993 111.917 18.9553 112.225 18.386C112.542 17.8167 112.971 17.3733 113.513 17.056C114.063 16.7387 114.679 16.58 115.361 16.58C116.042 16.58 116.653 16.7387 117.195 17.056C117.736 17.3733 118.161 17.8167 118.469 18.386C118.777 18.946 118.931 19.59 118.931 20.318L118.917 20.626ZM115.361 17.434C114.651 17.434 114.054 17.6627 113.569 18.12C113.093 18.568 112.822 19.156 112.757 19.884H117.979C117.913 19.156 117.638 18.568 117.153 18.12C116.677 17.6627 116.079 17.434 115.361 17.434ZM126.339 17.518H122.125V24H121.131V16.636H126.339V17.518ZM130.472 24.07C129.762 24.07 129.123 23.9113 128.554 23.594C127.984 23.2673 127.536 22.8193 127.21 22.25C126.883 21.6807 126.72 21.0367 126.72 20.318C126.72 19.5993 126.883 18.9553 127.21 18.386C127.536 17.8167 127.984 17.3733 128.554 17.056C129.123 16.7387 129.762 16.58 130.472 16.58C131.181 16.58 131.82 16.7387 132.39 17.056C132.959 17.3733 133.402 17.8167 133.72 18.386C134.046 18.9553 134.21 19.5993 134.21 20.318C134.21 21.0367 134.046 21.6807 133.72 22.25C133.402 22.8193 132.959 23.2673 132.39 23.594C131.82 23.9113 131.181 24.07 130.472 24.07ZM130.472 23.188C130.994 23.188 131.461 23.0713 131.872 22.838C132.292 22.5953 132.618 22.2547 132.852 21.816C133.085 21.3773 133.202 20.878 133.202 20.318C133.202 19.758 133.085 19.2587 132.852 18.82C132.618 18.3813 132.292 18.0453 131.872 17.812C131.461 17.5693 130.994 17.448 130.472 17.448C129.949 17.448 129.478 17.5693 129.058 17.812C128.647 18.0453 128.32 18.3813 128.078 18.82C127.844 19.2587 127.728 19.758 127.728 20.318C127.728 20.878 127.844 21.3773 128.078 21.816C128.32 22.2547 128.647 22.5953 129.058 22.838C129.478 23.0713 129.949 23.188 130.472 23.188ZM33.646 33.636V41H32.736V35.176L29.754 40.104H29.306L26.324 35.162V41H25.414V33.636H26.422L29.544 38.942L32.722 33.636H33.646ZM36.4745 33.636H37.4685V36.898H42.1025V33.636H43.0965V41H42.1025V37.752H37.4685V41H36.4745V33.636ZM52.3618 37.626H46.2018C46.2578 38.3913 46.5518 39.012 47.0838 39.488C47.6158 39.9547 48.2878 40.188 49.0998 40.188C49.5571 40.188 49.9771 40.1087 50.3598 39.95C50.7425 39.782 51.0738 39.5393 51.3538 39.222L51.9138 39.866C51.5871 40.258 51.1765 40.5567 50.6818 40.762C50.1965 40.9673 49.6598 41.07 49.0718 41.07C48.3158 41.07 47.6438 40.9113 47.0558 40.594C46.4771 40.2673 46.0245 39.8193 45.6978 39.25C45.3711 38.6807 45.2078 38.0367 45.2078 37.318C45.2078 36.5993 45.3618 35.9553 45.6698 35.386C45.9871 34.8167 46.4165 34.3733 46.9578 34.056C47.5085 33.7387 48.1245 33.58 48.8058 33.58C49.4871 33.58 50.0985 33.7387 50.6398 34.056C51.1811 34.3733 51.6058 34.8167 51.9138 35.386C52.2218 35.946 52.3758 36.59 52.3758 37.318L52.3618 37.626ZM48.8058 34.434C48.0965 34.434 47.4991 34.6627 47.0138 35.12C46.5378 35.568 46.2671 36.156 46.2018 36.884H51.4238C51.3585 36.156 51.0831 35.568 50.5978 35.12C50.1218 34.6627 49.5245 34.434 48.8058 34.434ZM58.2402 33.636H59.2342V36.898H63.8682V33.636H64.8622V41H63.8682V37.752H59.2342V41H58.2402V33.636ZM70.2214 33.58C71.1828 33.58 71.9201 33.8227 72.4334 34.308C72.9468 34.784 73.2034 35.4933 73.2034 36.436V41H72.2514V39.852C72.0274 40.2347 71.6961 40.5333 71.2574 40.748C70.8281 40.9627 70.3148 41.07 69.7174 41.07C68.8961 41.07 68.2428 40.874 67.7574 40.482C67.2721 40.09 67.0294 39.572 67.0294 38.928C67.0294 38.3027 67.2534 37.7987 67.7014 37.416C68.1588 37.0333 68.8821 36.842 69.8714 36.842H72.2094V36.394C72.2094 35.7593 72.0321 35.2787 71.6774 34.952C71.3228 34.616 70.8048 34.448 70.1234 34.448C69.6568 34.448 69.2088 34.5273 68.7794 34.686C68.3501 34.8353 67.9814 35.0453 67.6734 35.316L67.2254 34.574C67.5988 34.2567 68.0468 34.014 68.5694 33.846C69.0921 33.6687 69.6428 33.58 70.2214 33.58ZM69.8714 40.286C70.4314 40.286 70.9121 40.16 71.3134 39.908C71.7148 39.6467 72.0134 39.2733 72.2094 38.788V37.584H69.8994C68.6394 37.584 68.0094 38.0227 68.0094 38.9C68.0094 39.3293 68.1728 39.67 68.4994 39.922C68.8261 40.1647 69.2834 40.286 69.8714 40.286ZM81.4075 33.636V41H80.4135V37.934C79.5642 38.3073 78.7289 38.494 77.9075 38.494C77.0209 38.494 76.3302 38.2933 75.8355 37.892C75.3409 37.4813 75.0935 36.87 75.0935 36.058V33.636H76.0875V36.002C76.0875 36.5527 76.2649 36.9727 76.6195 37.262C76.9742 37.542 77.4642 37.682 78.0895 37.682C78.7802 37.682 79.5549 37.5 80.4135 37.136V33.636H81.4075ZM86.7644 33.58C87.7257 33.58 88.4631 33.8227 88.9764 34.308C89.4897 34.784 89.7464 35.4933 89.7464 36.436V41H88.7944V39.852C88.5704 40.2347 88.2391 40.5333 87.8004 40.748C87.3711 40.9627 86.8577 41.07 86.2604 41.07C85.4391 41.07 84.7857 40.874 84.3004 40.482C83.8151 40.09 83.5724 39.572 83.5724 38.928C83.5724 38.3027 83.7964 37.7987 84.2444 37.416C84.7017 37.0333 85.4251 36.842 86.4144 36.842H88.7524V36.394C88.7524 35.7593 88.5751 35.2787 88.2204 34.952C87.8657 34.616 87.3477 34.448 86.6664 34.448C86.1997 34.448 85.7517 34.5273 85.3224 34.686C84.8931 34.8353 84.5244 35.0453 84.2164 35.316L83.7684 34.574C84.1417 34.2567 84.5897 34.014 85.1124 33.846C85.6351 33.6687 86.1857 33.58 86.7644 33.58ZM86.4144 40.286C86.9744 40.286 87.4551 40.16 87.8564 39.908C88.2577 39.6467 88.5564 39.2733 88.7524 38.788V37.584H86.4424C85.1824 37.584 84.5524 38.0227 84.5524 38.9C84.5524 39.3293 84.7157 39.67 85.0424 39.922C85.3691 40.1647 85.8264 40.286 86.4144 40.286ZM97.5725 34.518H94.7865V41H93.7925V34.518H91.0065V33.636H97.5725V34.518ZM102.174 36.24C103.098 36.2493 103.798 36.4547 104.274 36.856C104.759 37.2573 105.002 37.836 105.002 38.592C105.002 39.376 104.74 39.978 104.218 40.398C103.704 40.818 102.958 41.0233 101.978 41.014L99.0097 41V33.636H100.004V36.212L102.174 36.24ZM101.922 40.258C102.603 40.2673 103.116 40.132 103.462 39.852C103.816 39.5627 103.994 39.1427 103.994 38.592C103.994 38.0507 103.821 37.6493 103.476 37.388C103.13 37.1267 102.612 36.9913 101.922 36.982L100.004 36.954V40.23L101.922 40.258ZM108.186 38.06C108.186 37.6773 108.247 37.3413 108.368 37.052C108.499 36.7627 108.658 36.5153 108.844 36.31C109.031 36.1047 109.274 35.8713 109.572 35.61C109.974 35.2553 110.268 34.9473 110.454 34.686C110.65 34.4153 110.748 34.0887 110.748 33.706C110.748 33.1927 110.548 32.782 110.146 32.474C109.745 32.1567 109.194 31.998 108.494 31.998C107.337 31.998 106.446 32.376 105.82 33.132L105.078 32.572C105.872 31.6013 107.034 31.116 108.564 31.116C109.544 31.116 110.324 31.3353 110.902 31.774C111.49 32.2127 111.784 32.8053 111.784 33.552C111.784 33.9347 111.719 34.2753 111.588 34.574C111.467 34.8633 111.313 35.1107 111.126 35.316C110.949 35.5213 110.711 35.7593 110.412 36.03C110.011 36.394 109.712 36.7207 109.516 37.01C109.32 37.29 109.222 37.64 109.222 38.06H108.186ZM108.704 41.07C108.499 41.07 108.326 41 108.186 40.86C108.046 40.7107 107.976 40.538 107.976 40.342C107.976 40.1367 108.046 39.9687 108.186 39.838C108.326 39.698 108.499 39.628 108.704 39.628C108.919 39.628 109.096 39.698 109.236 39.838C109.376 39.9687 109.446 40.1367 109.446 40.342C109.446 40.538 109.372 40.7107 109.222 40.86C109.082 41 108.91 41.07 108.704 41.07Z" fill="#333E63"/>
<defs>
<filter id="filter0_d_507_4767" x="8" y="0" width="149" height="78.0001" filterUnits="userSpaceOnUse" color-interpolation-filters="sRGB">
<feFlood flood-opacity="0" result="BackgroundImageFix"/>
<feColorMatrix in="SourceAlpha" type="matrix" values="0 0 0 0 0 0 0 0 0 0 0 0 0 0 0 0 0 0 127 0" result="hardAlpha"/>
<feOffset dx="5" dy="5"/>
<feComposite in2="hardAlpha" operator="out"/>
<feColorMatrix type="matrix" values="0 0 0 0 0.2 0 0 0 0 0.243137 0 0 0 0 0.388235 0 0 0 1 0"/>
<feBlend mode="normal" in2="BackgroundImageFix" result="effect1_dropShadow_507_4767"/>
<feBlend mode="normal" in="SourceGraphic" in2="effect1_dropShadow_507_4767" result="shape"/>
</filter>
<clipPath id="clip0_507_4767">
<rect width="167" height="236" fill="white" transform="translate(0 81)"/>
</clipPath>
</defs>
</svg>
