<svg width="598" height="486" viewBox="0 0 598 486" fill="none" xmlns="http://www.w3.org/2000/svg">
<path d="M102.285 432.032C95.8569 440.027 89.8569 448.308 84.4284 456.874C77.1426 468.724 79.7141 481.288 88.7141 484.572C97.7141 487.856 109 479.147 112 472.294C115 465.441 114 461.871 118.714 455.018C123.428 448.165 127.143 441.312 125.428 432.317C123.714 423.323 106.714 425.607 102.285 432.032Z" fill="white" stroke="#263238" stroke-miterlimit="10"/>
<path d="M109 469.581C106.429 473.579 103 484.572 89.8573 480.004C86.143 479.004 82.8573 476.863 80.4287 473.579C81.0001 478.576 84.143 482.859 88.7144 484.43C97.5716 487.571 109 479.004 112 472.151C115 465.298 114 461.729 118.714 454.876C123.429 448.023 127.143 441.169 125.429 432.175C125.429 443.026 121.714 444.739 117 450.878C112.286 457.017 111.429 465.584 109 469.581Z" fill="white" stroke="#263238" stroke-linecap="round" stroke-linejoin="round"/>
<path d="M227.142 432.032C233.571 440.027 239.571 448.308 245 456.874C252.285 468.724 249.714 481.288 240.714 484.572C231.714 487.713 220.428 479.147 217.428 472.294C214.428 465.441 215.428 461.871 210.714 455.018C206 448.165 202.285 441.312 204 432.317C205.428 423.323 222.428 425.607 227.142 432.032Z" fill="white" stroke="#263238" stroke-miterlimit="10"/>
<path d="M220.428 469.581C223 473.579 226.428 484.572 239.571 480.004C243.285 479.004 246.571 476.863 249 473.579C248.428 478.576 245.285 482.859 240.714 484.43C231.857 487.571 220.428 479.004 217.428 472.151C214.428 465.298 215.428 461.729 210.714 454.876C206 448.023 202.285 441.169 204 432.175C204 443.026 207.714 444.739 212.428 450.878C217 457.017 217.714 465.584 220.428 469.581Z" fill="white" stroke="#263238" stroke-linecap="round" stroke-linejoin="round"/>
<path d="M247 275.696C247 267.415 233.857 258.421 233.857 258.421C214.143 237.005 178.428 239.718 165.286 241.716C152.143 239.718 116.428 236.862 96.7141 258.421C96.7141 258.421 83.5713 267.415 83.5713 275.696C83.5713 283.977 99.9999 431.176 99.9999 431.176C99.9999 431.176 99.5713 438.742 111.428 439.742C123.286 440.741 128.286 433.317 128.286 433.317L133 308.82C133 308.82 152.143 294.399 155.428 293.828C156.714 293.686 158.286 293.4 160.143 293.257V293.4C163.571 292.543 166.857 292.543 170.286 293.4V293.257C172.143 293.4 173.714 293.828 175 293.828C178.428 294.257 197.428 308.82 197.428 308.82L202.143 433.317C202.143 433.317 207.143 440.599 219 439.742C230.857 438.742 230.428 431.176 230.428 431.176C230.428 431.176 247 283.834 247 275.696Z" fill="#263238" stroke="#263238" stroke-linecap="round" stroke-linejoin="round"/>
<path d="M197.428 308.82C197.428 308.82 194.857 278.98 207.142 267.559" stroke="#707070" stroke-linecap="round" stroke-linejoin="round"/>
<path d="M133.143 308.819C133.143 308.819 134.428 283.977 131.857 274.697C129.285 265.417 125.143 262.133 125.143 262.133" stroke="#707070" stroke-linecap="round" stroke-linejoin="round"/>
<path d="M148.714 249.426C148.714 249.426 162.142 266.273 164.857 280.265" stroke="#707070" stroke-linecap="round" stroke-linejoin="round"/>
<path d="M178.429 250.426C178.429 250.426 170.714 259.42 170 266.274" stroke="#707070" stroke-linecap="round" stroke-linejoin="round"/>
<path d="M81.7143 166.475L99 187.462C99 187.462 72 204.738 70.7143 204.738C69.2857 204.738 65.7143 200.169 63 194.173C60.2857 188.176 33.7143 117.361 33.7143 117.361C33.7143 117.361 9.42855 100.086 7.99998 99.229C6.57141 98.3723 0.285697 82.6673 0.714269 77.6703C1.14284 72.6733 7.99998 82.8101 11.2857 84.6662C14.5714 86.5222 30.4286 92.3759 30.4286 92.3759C30.4286 92.3759 29.5714 88.6638 28.1428 87.8072C26.7143 86.9505 23.5714 85.5228 22.7143 82.3818C21.8571 79.2408 23.1428 76.3854 25 78.6697C27.7143 81.5252 30.8571 84.2378 34.1428 86.3794C37.2857 88.6638 39.5714 90.9482 40.1428 95.0886C40.5714 99.229 43.8571 113.363 43.8571 113.363L81.2857 168.188L81.7143 166.475Z" fill="white" stroke="#263238" stroke-miterlimit="10" stroke-linecap="round"/>
<path d="M259.286 166.475L242 187.463C242 187.463 269 204.738 270.286 204.738C271.571 204.738 275.286 200.169 278 194.173C280.714 188.176 307.286 117.361 307.286 117.361C307.286 117.361 331.571 99.943 332.857 99.0864C334.286 98.2297 340.571 82.5248 340.143 77.5277C339.714 72.5307 332.857 82.6675 329.571 84.5236C326.429 86.3796 310.429 92.2333 310.429 92.2333C310.429 92.2333 311.286 88.5212 312.714 87.6646C314.143 86.8079 317.286 85.3802 318.143 82.2392C319 79.0982 317.714 76.2428 315.857 78.5271C313.143 81.3826 310 84.0953 306.714 86.2368C303.571 88.5212 301.286 90.8056 300.714 94.946C300.286 99.0864 297 113.221 297 113.221L259.571 168.045L259.286 166.475Z" fill="white" stroke="#263238" stroke-miterlimit="10" stroke-linecap="round"/>
<path d="M152.857 106.938L108.572 117.932L78.8574 165.475L93.0003 200.597L113.572 178.182L121.286 227.581L116.715 247.284C116.715 247.284 133.143 253.138 146 254.994C158.857 256.85 166.143 258.706 191.715 253.566C217.286 248.426 216 247.141 216 247.141L211.857 231.579L217.857 174.898L243.429 196.885L259.857 166.76L223.857 117.932L183.572 106.938H152.857Z" fill="#B0BEC5" stroke="#263238" stroke-miterlimit="10"/>
<path d="M152.571 98.6584C149.428 100.514 144.285 104.084 144.285 106.368C144.285 108.652 141.143 145.631 141.143 145.631L163.143 128.783L188.285 145.631L189.714 113.221L184.285 104.084L180.143 100.514C180 100.514 155.714 96.8023 152.571 98.6584Z" fill="white" stroke="#263238" stroke-miterlimit="10" stroke-linecap="round"/>
<path d="M149.857 77.9561L150.857 105.654L163.143 134.351C163.143 134.351 180.429 109.937 181 107.653C181.429 105.368 182 93.0899 182 93.0899L149.857 77.9561Z" fill="white" stroke="#263238" stroke-miterlimit="10" stroke-linecap="round"/>
<path d="M181.858 95.9453L169.715 90.2344L155.286 91.6621C155.286 91.6621 162 103.084 174.143 105.797C176.572 106.368 179 106.51 181.429 106.225C181.572 101.799 181.858 95.9453 181.858 95.9453Z" fill="#263238" stroke="#263238" stroke-miterlimit="10" stroke-linecap="round"/>
<path d="M133.857 40.6923L139.143 63.1076C139.143 63.1076 133.714 60.1094 134.714 67.5335C135.714 74.6722 137.857 80.8114 140.572 81.0969C142.286 81.2397 144.286 81.3825 146 81.3825C146 81.3825 148.429 90.2344 151.429 91.9476C154.429 93.6609 169.857 99.5146 172.714 100.657C175.572 101.799 183.714 99.5146 185.429 98.3724C187.143 97.373 192.143 84.6662 193.143 81.3825C194.143 78.0987 193.429 65.5347 193.429 65.5347C193.429 65.5347 188.714 43.9761 187.857 37.9796C187 31.8404 186.572 25.9867 182.857 22.1319C179.143 18.1342 165.857 13.4228 153.429 17.9915C141.143 22.1319 130.572 26.4151 133.857 40.6923Z" fill="white" stroke="#263238" stroke-linecap="round" stroke-linejoin="round"/>
<path d="M167.144 50.8291C167.144 50.8291 158.858 49.1158 153.144 55.1123" stroke="#263238" stroke-linecap="round" stroke-linejoin="round"/>
<path d="M177.714 48.6877C177.714 48.6877 183.428 43.6906 187.857 47.26" stroke="#263238" stroke-linecap="round" stroke-linejoin="round"/>
<path d="M165 61.2511C165.286 62.8216 164.428 64.3921 163.143 64.5348C161.857 64.6776 160.857 63.5354 160.428 61.8222C160.143 60.2517 161 58.6812 162.143 58.5384C163.428 58.3956 164.714 59.5378 165 61.2511Z" fill="#263238"/>
<path d="M185.576 61.0833C186.825 60.897 187.639 59.4183 187.394 57.7807C187.149 56.143 185.939 54.9665 184.69 55.1528C183.442 55.3392 182.628 56.8178 182.873 58.4555C183.118 60.0931 184.328 61.2697 185.576 61.0833Z" fill="#263238"/>
<path d="M176.143 58.2529C176.143 58.2529 177.285 65.106 178 66.2482C178.714 67.1048 184.857 68.5326 184.571 70.2458C184.285 71.9591 178.571 74.3862 178.571 74.3862" stroke="#263238" stroke-miterlimit="10"/>
<path d="M168.571 82.8103C180.857 85.6658 186.857 80.8115 186.857 80.8115" stroke="#263238" stroke-miterlimit="10" stroke-linecap="round"/>
<path d="M155 28.8419C155 28.8419 149.286 42.1198 144.857 46.2602L140.571 50.5434C140.571 50.5434 146.286 66.6766 145.714 67.6761C145.143 68.8182 144.143 69.2466 143.714 67.8188C143.286 66.3911 142.714 65.1062 141.571 64.6778C140.286 64.2495 136.714 63.1073 136.714 63.1073L129.429 48.259C129.429 48.259 123.714 43.262 125 38.4077C126.143 33.6962 130.429 25.5582 130.429 25.5582C130.429 25.5582 127.571 24.8443 128.714 22.7027C129.857 20.5611 142.143 19.8473 142.143 19.8473C142.143 19.8473 142.857 13.5653 146.571 12.4231C150.286 11.2809 150.286 12.5659 150.286 12.5659C150.286 12.5659 164 4.99893 172.143 4.57061C180.286 4.14229 206.143 23.131 203.714 25.8437C201.429 28.8419 193.143 31.1263 193.143 31.1263C193.143 31.1263 194.143 54.2554 193.286 54.6838L192.143 55.1121L187.286 35.4095C187.143 35.5522 162 33.2679 155 28.8419Z" fill="#263238" stroke="#263238" stroke-miterlimit="10"/>
<g filter="url(#filter0_d_1111_2759)">
<path d="M309 64.4367L358.036 38.9413V10.2711C358.036 5.14759 362.194 1 367.329 1H582.706C587.842 1 592 5.14759 592 10.2711V73.7289C592 78.8524 587.842 83 582.706 83H367.452C362.316 83 358.158 78.8524 358.158 73.7289V53.2139L309 64.4367Z" fill="white"/>
<path d="M308.769 63.9931C308.546 64.1092 308.444 64.373 308.531 64.6091C308.617 64.8453 308.866 64.9802 309.111 64.9242L357.658 53.8409V73.7289C357.658 79.1297 362.041 83.5 367.452 83.5H582.706C588.117 83.5 592.5 79.1297 592.5 73.7289V10.2711C592.5 4.87031 588.117 0.5 582.706 0.5H367.329C361.919 0.5 357.536 4.87031 357.536 10.2711V38.6377L308.769 63.9931Z" stroke="#333E63" stroke-linecap="round" stroke-linejoin="round"/>
</g>
<path d="M391.006 24.4V37H389.692V25.552H383.608L383.464 29.764C383.404 31.504 383.26 32.908 383.032 33.976C382.816 35.032 382.48 35.824 382.024 36.352C381.568 36.868 380.962 37.126 380.206 37.126C379.882 37.126 379.546 37.084 379.198 37L379.306 35.812C379.51 35.86 379.708 35.884 379.9 35.884C380.428 35.884 380.854 35.674 381.178 35.254C381.514 34.834 381.766 34.186 381.934 33.31C382.102 32.422 382.216 31.252 382.276 29.8L382.456 24.4H391.006ZM398.209 27.46C399.445 27.46 400.393 27.772 401.053 28.396C401.713 29.008 402.043 29.92 402.043 31.132V37H400.819V35.524C400.531 36.016 400.105 36.4 399.541 36.676C398.989 36.952 398.329 37.09 397.561 37.09C396.505 37.09 395.665 36.838 395.041 36.334C394.417 35.83 394.105 35.164 394.105 34.336C394.105 33.532 394.393 32.884 394.969 32.392C395.557 31.9 396.487 31.654 397.759 31.654H400.765V31.078C400.765 30.262 400.537 29.644 400.081 29.224C399.625 28.792 398.959 28.576 398.083 28.576C397.483 28.576 396.907 28.678 396.355 28.882C395.803 29.074 395.329 29.344 394.933 29.692L394.357 28.738C394.837 28.33 395.413 28.018 396.085 27.802C396.757 27.574 397.465 27.46 398.209 27.46ZM397.759 36.082C398.479 36.082 399.097 35.92 399.613 35.596C400.129 35.26 400.513 34.78 400.765 34.156V32.608H397.795C396.175 32.608 395.365 33.172 395.365 34.3C395.365 34.852 395.575 35.29 395.995 35.614C396.415 35.926 397.003 36.082 397.759 36.082ZM414.679 35.884V39.286H413.473V37H404.995V39.286H403.789V35.884H404.329C404.965 35.848 405.397 35.38 405.625 34.48C405.853 33.58 406.009 32.32 406.093 30.7L406.219 27.532H413.203V35.884H414.679ZM407.263 30.772C407.203 32.116 407.089 33.226 406.921 34.102C406.753 34.966 406.453 35.56 406.021 35.884H411.925V28.666H407.371L407.263 30.772ZM417.17 27.532H418.448V31.726H424.406V27.532H425.684V37H424.406V32.824H418.448V37H417.17V27.532ZM433.222 37.09C432.31 37.09 431.488 36.886 430.756 36.478C430.024 36.058 429.448 35.482 429.028 34.75C428.608 34.018 428.398 33.19 428.398 32.266C428.398 31.342 428.608 30.514 429.028 29.782C429.448 29.05 430.024 28.48 430.756 28.072C431.488 27.664 432.31 27.46 433.222 27.46C434.134 27.46 434.956 27.664 435.688 28.072C436.42 28.48 436.99 29.05 437.398 29.782C437.818 30.514 438.028 31.342 438.028 32.266C438.028 33.19 437.818 34.018 437.398 34.75C436.99 35.482 436.42 36.058 435.688 36.478C434.956 36.886 434.134 37.09 433.222 37.09ZM433.222 35.956C433.894 35.956 434.494 35.806 435.022 35.506C435.562 35.194 435.982 34.756 436.282 34.192C436.582 33.628 436.732 32.986 436.732 32.266C436.732 31.546 436.582 30.904 436.282 30.34C435.982 29.776 435.562 29.344 435.022 29.044C434.494 28.732 433.894 28.576 433.222 28.576C432.55 28.576 431.944 28.732 431.404 29.044C430.876 29.344 430.456 29.776 430.144 30.34C429.844 30.904 429.694 31.546 429.694 32.266C429.694 32.986 429.844 33.628 430.144 34.192C430.456 34.756 430.876 35.194 431.404 35.506C431.944 35.806 432.55 35.956 433.222 35.956ZM440.586 37.09C440.322 37.09 440.094 36.994 439.902 36.802C439.722 36.61 439.632 36.376 439.632 36.1C439.632 35.824 439.722 35.596 439.902 35.416C440.094 35.224 440.322 35.128 440.586 35.128C440.85 35.128 441.078 35.224 441.27 35.416C441.462 35.596 441.558 35.824 441.558 36.1C441.558 36.376 441.462 36.61 441.27 36.802C441.078 36.994 440.85 37.09 440.586 37.09ZM457.391 33.634H450.371L448.859 37H447.473L453.233 24.4H454.547L460.307 37H458.903L457.391 33.634ZM456.905 32.554L453.881 25.786L450.857 32.554H456.905ZM471.087 37.09C470.151 37.09 469.311 36.886 468.567 36.478C467.835 36.07 467.259 35.5 466.839 34.768C466.419 34.024 466.209 33.19 466.209 32.266C466.209 31.342 466.419 30.514 466.839 29.782C467.259 29.05 467.835 28.48 468.567 28.072C469.311 27.664 470.151 27.46 471.087 27.46C471.903 27.46 472.629 27.622 473.265 27.946C473.913 28.258 474.423 28.72 474.795 29.332L473.841 29.98C473.529 29.512 473.133 29.164 472.653 28.936C472.173 28.696 471.651 28.576 471.087 28.576C470.403 28.576 469.785 28.732 469.233 29.044C468.693 29.344 468.267 29.776 467.955 30.34C467.655 30.904 467.505 31.546 467.505 32.266C467.505 32.998 467.655 33.646 467.955 34.21C468.267 34.762 468.693 35.194 469.233 35.506C469.785 35.806 470.403 35.956 471.087 35.956C471.651 35.956 472.173 35.842 472.653 35.614C473.133 35.386 473.529 35.038 473.841 34.57L474.795 35.218C474.423 35.83 473.913 36.298 473.265 36.622C472.617 36.934 471.891 37.09 471.087 37.09ZM489.126 27.532V37H487.848V33.058C486.756 33.538 485.682 33.778 484.626 33.778C483.486 33.778 482.598 33.52 481.962 33.004C481.326 32.476 481.008 31.69 481.008 30.646V27.532H482.286V30.574C482.286 31.282 482.514 31.822 482.97 32.194C483.426 32.554 484.056 32.734 484.86 32.734C485.748 32.734 486.744 32.5 487.848 32.032V27.532H489.126ZM501.036 32.662H493.116C493.188 33.646 493.566 34.444 494.25 35.056C494.934 35.656 495.798 35.956 496.842 35.956C497.43 35.956 497.97 35.854 498.462 35.65C498.954 35.434 499.38 35.122 499.74 34.714L500.46 35.542C500.04 36.046 499.512 36.43 498.876 36.694C498.252 36.958 497.562 37.09 496.806 37.09C495.834 37.09 494.97 36.886 494.214 36.478C493.47 36.058 492.888 35.482 492.468 34.75C492.048 34.018 491.838 33.19 491.838 32.266C491.838 31.342 492.036 30.514 492.432 29.782C492.84 29.05 493.392 28.48 494.088 28.072C494.796 27.664 495.588 27.46 496.464 27.46C497.34 27.46 498.126 27.664 498.822 28.072C499.518 28.48 500.064 29.05 500.46 29.782C500.856 30.502 501.054 31.33 501.054 32.266L501.036 32.662ZM496.464 28.558C495.552 28.558 494.784 28.852 494.16 29.44C493.548 30.016 493.2 30.772 493.116 31.708H499.83C499.746 30.772 499.392 30.016 498.768 29.44C498.156 28.852 497.388 28.558 496.464 28.558ZM510.578 28.666H505.16V37H503.882V27.532H510.578V28.666ZM515.892 37.09C514.98 37.09 514.158 36.886 513.426 36.478C512.694 36.058 512.118 35.482 511.698 34.75C511.278 34.018 511.068 33.19 511.068 32.266C511.068 31.342 511.278 30.514 511.698 29.782C512.118 29.05 512.694 28.48 513.426 28.072C514.158 27.664 514.98 27.46 515.892 27.46C516.804 27.46 517.626 27.664 518.358 28.072C519.09 28.48 519.66 29.05 520.068 29.782C520.488 30.514 520.698 31.342 520.698 32.266C520.698 33.19 520.488 34.018 520.068 34.75C519.66 35.482 519.09 36.058 518.358 36.478C517.626 36.886 516.804 37.09 515.892 37.09ZM515.892 35.956C516.564 35.956 517.164 35.806 517.692 35.506C518.232 35.194 518.652 34.756 518.952 34.192C519.252 33.628 519.402 32.986 519.402 32.266C519.402 31.546 519.252 30.904 518.952 30.34C518.652 29.776 518.232 29.344 517.692 29.044C517.164 28.732 516.564 28.576 515.892 28.576C515.22 28.576 514.614 28.732 514.074 29.044C513.546 29.344 513.126 29.776 512.814 30.34C512.514 30.904 512.364 31.546 512.364 32.266C512.364 32.986 512.514 33.628 512.814 34.192C513.126 34.756 513.546 35.194 514.074 35.506C514.614 35.806 515.22 35.956 515.892 35.956ZM538.724 27.532V37H537.554V29.512L533.72 35.848H533.144L529.31 29.494V37H528.14V27.532H529.436L533.45 34.354L537.536 27.532H538.724ZM542.361 27.532H543.639V31.726H549.597V27.532H550.875V37H549.597V32.824H543.639V37H542.361V27.532ZM562.787 32.662H554.867C554.939 33.646 555.317 34.444 556.001 35.056C556.685 35.656 557.549 35.956 558.593 35.956C559.181 35.956 559.721 35.854 560.213 35.65C560.705 35.434 561.131 35.122 561.491 34.714L562.211 35.542C561.791 36.046 561.263 36.43 560.627 36.694C560.003 36.958 559.313 37.09 558.557 37.09C557.585 37.09 556.721 36.886 555.965 36.478C555.221 36.058 554.639 35.482 554.219 34.75C553.799 34.018 553.589 33.19 553.589 32.266C553.589 31.342 553.787 30.514 554.183 29.782C554.591 29.05 555.143 28.48 555.839 28.072C556.547 27.664 557.339 27.46 558.215 27.46C559.091 27.46 559.877 27.664 560.573 28.072C561.269 28.48 561.815 29.05 562.211 29.782C562.607 30.502 562.805 31.33 562.805 32.266L562.787 32.662ZM558.215 28.558C557.303 28.558 556.535 28.852 555.911 29.44C555.299 30.016 554.951 30.772 554.867 31.708H561.581C561.497 30.772 561.143 30.016 560.519 29.44C559.907 28.852 559.139 28.558 558.215 28.558ZM380.818 49.532H382.096V53.726H388.054V49.532H389.332V59H388.054V54.824H382.096V59H380.818V49.532ZM396.222 49.46C397.458 49.46 398.406 49.772 399.066 50.396C399.726 51.008 400.056 51.92 400.056 53.132V59H398.832V57.524C398.544 58.016 398.118 58.4 397.554 58.676C397.002 58.952 396.342 59.09 395.574 59.09C394.518 59.09 393.678 58.838 393.054 58.334C392.43 57.83 392.118 57.164 392.118 56.336C392.118 55.532 392.406 54.884 392.982 54.392C393.57 53.9 394.5 53.654 395.772 53.654H398.778V53.078C398.778 52.262 398.55 51.644 398.094 51.224C397.638 50.792 396.972 50.576 396.096 50.576C395.496 50.576 394.92 50.678 394.368 50.882C393.816 51.074 393.342 51.344 392.946 51.692L392.37 50.738C392.85 50.33 393.426 50.018 394.098 49.802C394.77 49.574 395.478 49.46 396.222 49.46ZM395.772 58.082C396.492 58.082 397.11 57.92 397.626 57.596C398.142 57.26 398.526 56.78 398.778 56.156V54.608H395.808C394.188 54.608 393.378 55.172 393.378 56.3C393.378 56.852 393.588 57.29 394.008 57.614C394.428 57.926 395.016 58.082 395.772 58.082ZM410.605 49.532V59H409.327V55.058C408.235 55.538 407.161 55.778 406.105 55.778C404.965 55.778 404.077 55.52 403.441 55.004C402.805 54.476 402.487 53.69 402.487 52.646V49.532H403.765V52.574C403.765 53.282 403.993 53.822 404.449 54.194C404.905 54.554 405.535 54.734 406.339 54.734C407.227 54.734 408.223 54.5 409.327 54.032V49.532H410.605ZM417.492 49.46C418.728 49.46 419.676 49.772 420.336 50.396C420.996 51.008 421.326 51.92 421.326 53.132V59H420.102V57.524C419.814 58.016 419.388 58.4 418.824 58.676C418.272 58.952 417.612 59.09 416.844 59.09C415.788 59.09 414.948 58.838 414.324 58.334C413.7 57.83 413.388 57.164 413.388 56.336C413.388 55.532 413.676 54.884 414.252 54.392C414.84 53.9 415.77 53.654 417.042 53.654H420.048V53.078C420.048 52.262 419.82 51.644 419.364 51.224C418.908 50.792 418.242 50.576 417.366 50.576C416.766 50.576 416.19 50.678 415.638 50.882C415.086 51.074 414.612 51.344 414.216 51.692L413.64 50.738C414.12 50.33 414.696 50.018 415.368 49.802C416.04 49.574 416.748 49.46 417.492 49.46ZM417.042 58.082C417.762 58.082 418.38 57.92 418.896 57.596C419.412 57.26 419.796 56.78 420.048 56.156V54.608H417.078C415.458 54.608 414.648 55.172 414.648 56.3C414.648 56.852 414.858 57.29 415.278 57.614C415.698 57.926 416.286 58.082 417.042 58.082ZM431.388 50.666H427.806V59H426.528V50.666H422.946V49.532H431.388V50.666ZM437.304 52.88C438.492 52.892 439.392 53.156 440.004 53.672C440.628 54.188 440.94 54.932 440.94 55.904C440.94 56.912 440.604 57.686 439.932 58.226C439.272 58.766 438.312 59.03 437.052 59.018L433.236 59V49.532H434.514V52.844L437.304 52.88ZM436.98 58.046C437.856 58.058 438.516 57.884 438.96 57.524C439.416 57.152 439.644 56.612 439.644 55.904C439.644 55.208 439.422 54.692 438.978 54.356C438.534 54.02 437.868 53.846 436.98 53.834L434.514 53.798V58.01L436.98 58.046ZM445.035 55.22C445.035 54.728 445.113 54.296 445.269 53.924C445.437 53.552 445.641 53.234 445.881 52.97C446.121 52.706 446.433 52.406 446.817 52.07C447.333 51.614 447.711 51.218 447.951 50.882C448.203 50.534 448.329 50.114 448.329 49.622C448.329 48.962 448.071 48.434 447.555 48.038C447.039 47.63 446.331 47.426 445.431 47.426C443.943 47.426 442.797 47.912 441.993 48.884L441.039 48.164C442.059 46.916 443.553 46.292 445.521 46.292C446.781 46.292 447.783 46.574 448.527 47.138C449.283 47.702 449.661 48.464 449.661 49.424C449.661 49.916 449.577 50.354 449.409 50.738C449.253 51.11 449.055 51.428 448.815 51.692C448.587 51.956 448.281 52.262 447.897 52.61C447.381 53.078 446.997 53.498 446.745 53.87C446.493 54.23 446.367 54.68 446.367 55.22H445.035ZM445.701 59.09C445.437 59.09 445.215 59 445.035 58.82C444.855 58.628 444.765 58.406 444.765 58.154C444.765 57.89 444.855 57.674 445.035 57.506C445.215 57.326 445.437 57.236 445.701 57.236C445.977 57.236 446.205 57.326 446.385 57.506C446.565 57.674 446.655 57.89 446.655 58.154C446.655 58.406 446.559 58.628 446.367 58.82C446.187 59 445.965 59.09 445.701 59.09Z" fill="#333E63"/>
<defs>
<filter id="filter0_d_1111_2759" x="308" y="0" width="290" height="89" filterUnits="userSpaceOnUse" color-interpolation-filters="sRGB">
<feFlood flood-opacity="0" result="BackgroundImageFix"/>
<feColorMatrix in="SourceAlpha" type="matrix" values="0 0 0 0 0 0 0 0 0 0 0 0 0 0 0 0 0 0 127 0" result="hardAlpha"/>
<feOffset dx="5" dy="5"/>
<feComposite in2="hardAlpha" operator="out"/>
<feColorMatrix type="matrix" values="0 0 0 0 0.2 0 0 0 0 0.243137 0 0 0 0 0.388235 0 0 0 1 0"/>
<feBlend mode="normal" in2="BackgroundImageFix" result="effect1_dropShadow_1111_2759"/>
<feBlend mode="normal" in="SourceGraphic" in2="effect1_dropShadow_1111_2759" result="shape"/>
</filter>
</defs>
</svg>
