<svg width="159" height="420" viewBox="0 0 159 420" fill="none" xmlns="http://www.w3.org/2000/svg">
<g clip-path="url(#clip0_507_4768)">
<path d="M121.486 133.46C121.922 134.797 122.212 136.208 122.357 137.545C122.284 138.436 120.326 152.399 121.849 152.028C123.372 151.582 138.75 143.486 139.476 142.075C140.201 140.59 139.911 131.454 140.491 129.226C141.071 126.998 142.159 123.656 142.159 123.656C142.159 123.656 135.849 128.781 131.061 130.935C128.015 132.123 124.823 132.94 121.486 133.46Z" fill="white" stroke="#263238" stroke-linecap="round" stroke-linejoin="round"/>
<path d="M121.704 138.213C121.704 138.733 121.486 142.298 121.486 145.789L134.833 132.94L120.688 134.648C121.123 135.836 121.558 136.95 121.704 138.213Z" fill="#263238" stroke="#263238" stroke-linecap="round" stroke-linejoin="round"/>
<path d="M113.869 111.995C113.289 111.921 105.31 112.515 104.947 106.499C104.584 103.231 106.688 100.038 110.17 99.0721C110.17 99.0721 105.237 94.0216 111.548 91.1993C117.859 88.3769 125.403 89.8624 125.403 89.8624C125.403 89.8624 124.605 85.2575 130.48 86.5944C136.356 87.9313 140.345 94.1701 140.491 94.7643C140.636 95.3585 148.76 97.8094 151.371 101.746C154.055 105.682 153.257 110.807 151.154 114.298C149.122 117.269 146.801 120.24 144.335 123.062C142.812 124.176 140.781 124.399 138.967 123.73C135.848 122.542 133.89 121.651 134.035 119.2C134.18 116.749 133.382 110.361 132.584 109.544C131.786 108.727 129.9 108.43 126.056 109.099C122.284 109.916 113.869 111.995 113.869 111.995Z" fill="#263238" stroke="#263238" stroke-linecap="round" stroke-linejoin="round"/>
<path d="M113.724 110.213C113.724 110.213 113.362 115.709 112.781 117.269C111.476 122.69 110.533 128.187 109.88 133.831C109.662 137.396 113.724 140.293 115.756 140.367C117.859 140.441 121.413 138.807 124.605 138.139C127.797 137.471 136.501 134.722 137.879 132.866C139.258 130.935 139.693 130.415 139.693 130.415C139.693 130.415 146.366 129.301 147.309 124.102C148.325 118.977 144.698 118.383 142.087 119.571C140.636 120.24 139.33 120.982 138.097 121.948C138.097 121.948 136.211 121.799 136.501 120.462C136.791 119.571 136.936 118.754 137.082 117.863C137.154 116.897 136.574 116.303 135.848 114.001C135.196 111.773 134.688 111.921 135.703 109.99C136.719 108.059 138.605 104.642 138.605 104.642C138.605 104.642 120.688 105.311 113.724 110.213Z" fill="white" stroke="#263238" stroke-linecap="round" stroke-linejoin="round"/>
<path d="M122.574 111.475C122.574 111.475 125.693 111.104 127.796 112.441" stroke="#263238" stroke-linecap="round" stroke-linejoin="round"/>
<path d="M117.207 111.178C116.192 110.659 114.958 110.659 113.943 111.03" stroke="#263238" stroke-linecap="round" stroke-linejoin="round"/>
<path d="M113.507 128.632C113.507 128.632 115.973 130.34 119.818 128.484" stroke="#263238" stroke-linecap="round" stroke-linejoin="round"/>
<path d="M125.403 115.486C125.331 116.154 124.751 116.6 124.025 116.526C123.372 116.451 122.792 115.857 122.865 115.263C122.937 114.595 123.517 114.149 124.243 114.223C124.968 114.298 125.476 114.892 125.403 115.486Z" fill="#263238"/>
<path d="M116.191 114.298C116.191 114.892 115.684 115.263 115.031 115.263C114.45 115.263 113.943 114.743 114.015 114.223C114.015 113.629 114.523 113.258 115.176 113.258C115.829 113.258 116.264 113.778 116.191 114.298Z" fill="#263238"/>
<path d="M119.456 113.109C119.456 113.109 118.077 117.417 120.326 119.125C122.575 120.834 127.87 120.388 129.248 119.051C130.626 117.714 131.497 114.223 131.497 114.223C131.497 114.223 124.823 112.069 119.456 113.109Z" stroke="#263238" stroke-linecap="round" stroke-linejoin="round"/>
<path d="M116.917 112.961C116.917 112.961 117.352 117.343 115.538 118.828C113.725 120.314 109.735 119.274 108.865 117.863C107.994 116.452 107.777 112.887 107.777 112.887C107.777 112.887 113.145 111.327 116.917 112.961Z" stroke="#263238" stroke-linecap="round" stroke-linejoin="round"/>
<path d="M116.917 112.961C116.917 112.961 117.569 112.366 119.455 113.109" stroke="#263238" stroke-linecap="round" stroke-linejoin="round"/>
<path d="M131.424 114.595L140.564 120.017" stroke="#263238" stroke-linecap="round" stroke-linejoin="round"/>
<path d="M117.932 114.595C117.932 114.595 109.518 120.908 110.243 123.136C110.896 125.364 117.932 125.216 117.932 125.216" fill="white"/>
<path d="M117.932 114.595C117.932 114.595 109.518 120.908 110.243 123.136C110.896 125.364 117.932 125.216 117.932 125.216" stroke="#263238" stroke-linecap="round" stroke-linejoin="round"/>
<path d="M78.9791 192.654L85.0722 190.352C85.0722 190.352 87.9012 187.678 88.3364 187.455C88.6991 187.158 93.5591 186.564 93.7042 185.45C93.8492 184.41 97.8388 181.439 97.8388 181.439L96.8233 195.179L76.8755 195.996C76.8755 195.996 77.891 194.362 78.9791 192.654Z" fill="#B0BEC5" stroke="#263238" stroke-miterlimit="10" stroke-linecap="round"/>
<path d="M86.6685 193.323C86.0157 192.432 85.5079 191.392 85.1452 190.352C84.8551 189.312 85.653 188.644 86.6685 188.867C87.684 189.089 89.57 192.06 89.57 192.06L88.6996 188.569C88.3369 187.084 89.2073 186.044 90.3679 186.861C91.5285 187.678 93.342 192.58 93.342 192.58C93.342 192.58 91.8187 187.01 92.1814 186.193C92.5441 185.376 92.9793 184.559 93.7772 185.376C94.8652 186.935 95.7357 188.644 96.2435 190.426C96.4611 191.54 96.6787 192.654 97.0414 193.768L88.3369 195.254L86.6685 193.323Z" fill="white" stroke="#263238" stroke-miterlimit="10" stroke-linecap="round"/>
<path d="M107.994 165.694C107.994 165.694 96.1702 177.8 95.88 179.806C95.5899 181.811 92.906 214.119 91.4552 218.798C90.0045 223.477 86.3776 238.257 86.3776 238.257C86.3776 238.257 80.9373 273.239 81.4451 273.388C81.9528 273.537 89.7869 274.576 89.7869 274.576L93.2687 234.841L103.061 176.835L110.75 165.397C109.807 165.026 108.864 165.174 107.994 165.694Z" fill="#B0BEC5" stroke="#263238" stroke-miterlimit="10" stroke-linecap="round"/>
<path d="M89.6427 239.594C89.6427 239.594 87.9743 267.892 88.1919 272.942C88.4096 277.993 91.6737 306.587 91.6737 306.587C91.6737 306.587 92.8343 339.415 96.7514 347.957C100.668 356.498 114.305 378.779 116.046 381.453C117.715 384.127 120.326 390.96 120.326 390.96C120.326 390.96 117.352 394.154 118.222 396.159C119.093 398.164 120.689 401.209 120.689 401.209C120.689 401.209 114.596 406.78 110.533 409.231C106.471 411.682 101.539 414.578 101.684 415.395C101.829 416.212 102.482 416.435 103.642 416.732C104.803 417.029 140.782 416.732 140.782 416.732L140.201 392L132.512 366.97L118.005 323.596L119.165 271.16L117.86 238.183L89.6427 239.594Z" fill="#263238" stroke="#263238" stroke-miterlimit="10" stroke-linecap="round"/>
<path d="M122.647 403.586C122.647 403.586 113.798 410.122 113.362 410.419C113 410.642 102.264 415.99 100.886 416.435C99.4353 416.881 98.4198 417.104 98.5648 418.144C98.7099 419.183 98.0571 418.961 98.7099 419.183C99.3627 419.406 113.29 419.555 120.761 419.555C128.233 419.555 130.917 418.738 130.917 418.738L133.818 417.252L134.834 416.955V419.109H146.294C146.294 419.109 146.512 415.915 146.512 415.098V414.281C146.149 412.573 145.642 410.939 144.989 409.379L143.538 406.483L122.647 403.586Z" fill="#707070" stroke="#263238" stroke-miterlimit="10" stroke-linecap="round"/>
<path d="M102.409 281.409C102.409 281.409 106.326 327.161 108.72 333.696C111.186 340.232 114.088 350.111 114.088 350.111C114.088 350.111 123.082 381.602 123.445 385.464C123.808 389.326 124.461 390.811 123.735 391.48C123.01 392.148 122.72 394.376 123.082 395.862C123.372 397.05 123.518 398.313 123.59 399.576C122.937 399.798 122.502 400.467 122.575 401.209V403.586C126.999 405.592 131.642 407.225 136.357 408.414C144.698 410.568 144.844 409.454 144.844 409.454C144.844 409.454 146.367 400.095 145.714 395.713C145.061 391.331 144.408 383.681 144.698 381.305C144.989 378.928 147.02 365.559 146.367 361.028C145.932 358.132 145.206 355.31 144.191 352.636C144.191 352.636 137.662 325.155 137.662 324.635C137.662 324.115 138.025 311.712 138.025 311.712C138.025 311.712 138.895 291.139 138.895 290.767C138.895 290.396 140.491 283.712 141.072 281.038C141.724 278.364 141.942 277.547 141.942 277.547L102.409 281.409Z" fill="#263238" stroke="#263238" stroke-miterlimit="10" stroke-linecap="round"/>
<path d="M114.813 158.267C114.813 158.267 99.7973 174.309 98.6367 179.211C97.4761 184.113 92.9063 223.774 91.8907 228.379C90.8752 232.984 86.8131 238.554 90.7301 241.08C94.6472 243.605 96.9684 243.308 96.9684 243.308C96.9684 243.308 105.31 191.986 109.445 183.296C113.579 174.606 128.304 156.855 126.926 154.999C125.476 153.142 119.237 156.113 114.813 158.267Z" fill="#707070" stroke="#263238" stroke-miterlimit="10" stroke-linecap="round"/>
<path d="M121.196 147.2L113.362 153.068C113.362 153.068 111.694 162.426 112.854 161.906L114.523 161.015V163.688L120.108 155.444L121.196 147.2Z" fill="#707070" stroke="#263238" stroke-miterlimit="10" stroke-linecap="round"/>
<path d="M114.522 161.014L114.16 153.959" stroke="#263238" stroke-miterlimit="10" stroke-linecap="round"/>
<path d="M119.455 156.484C119.455 156.484 108.139 172.601 104.222 184.633C100.305 196.665 94.2841 253.631 94.2841 253.631L93.9214 281.632C93.9214 281.632 104.512 289.207 121.195 286.237C131.061 284.528 140.781 282.226 150.355 279.404C150.355 279.404 147.091 241.896 146.293 239.148C145.495 236.326 143.827 226.745 143.827 226.745C143.827 226.745 159.35 183.816 158.697 173.121C158.044 162.426 148.905 150.171 145.641 146.234C144.335 144.526 142.884 142.818 141.361 141.332L119.455 156.484Z" fill="#B0BEC5" stroke="#263238" stroke-miterlimit="10" stroke-linecap="round"/>
<path d="M141.361 137.396L117.787 152.77L119.237 159.678L143.175 141.704L141.361 137.396Z" fill="#707070" stroke="#263238" stroke-miterlimit="10" stroke-linecap="round"/>
<path d="M105.673 207.212C105.673 207.212 106.036 200.379 106.471 197.333C106.834 195.254 107.632 193.323 108.792 191.614L89.2796 193.1C89.2796 193.1 80.5751 191.912 77.8186 193.768C75.0622 195.625 74.5545 198.373 72.8861 201.938C71.2177 205.503 70.9276 209.811 72.2333 211.816C73.5389 213.822 77.8186 215.827 82.8963 217.387C87.9739 218.946 90.2225 217.09 92.3987 215.679C94.5748 214.119 105.673 207.212 105.673 207.212Z" fill="#B0BEC5" stroke="#263238" stroke-miterlimit="10" stroke-linecap="round"/>
<path d="M108.792 191.614L112.201 191.094C112.201 191.094 108.792 196.442 108.72 199.116C108.647 200.973 108.865 202.829 109.227 204.686L105.746 207.211C105.746 207.211 104.948 198.522 105.601 195.476C105.891 193.694 107.124 192.209 108.792 191.614Z" fill="white" stroke="#263238" stroke-miterlimit="10" stroke-linecap="round"/>
<path d="M112.201 191.095C113.435 190.5 114.813 190.426 116.118 190.946C117.932 191.837 122.429 194.14 122.429 194.14L120.253 204.538C120.253 204.538 115.466 206.246 112.854 206.246C111.476 206.32 110.098 205.726 109.227 204.612C109.372 202.755 109.155 200.824 108.72 199.042C107.849 195.997 112.201 191.095 112.201 191.095Z" fill="white" stroke="#263238" stroke-miterlimit="10" stroke-linecap="round"/>
<path d="M130.698 163.689C130.698 163.689 123.155 175.869 123.3 178.617C123.3 180.028 123.517 181.365 124.098 182.628L118.367 195.997C118.367 195.997 116.191 196.294 116.191 198.151C116.264 199.042 116.118 199.933 115.828 200.824C115.828 200.824 110.243 204.389 106.471 205.652C100.886 207.509 95.6629 210.257 90.948 213.822C86.1605 217.684 82.7512 222.735 84.9274 223.923C87.1035 225.111 92.7614 224.443 93.5593 224.294C94.3572 224.146 116.771 226.819 121.849 225.111C126.927 223.403 125.113 226.002 130.191 223.254C135.268 220.506 135.776 217.684 135.776 217.684C135.776 217.684 137.59 217.016 144.771 203.275C151.952 189.535 154.418 180.325 154.708 172.75" fill="#B0BEC5"/>
<path d="M130.698 163.689C130.698 163.689 123.155 175.869 123.3 178.617C123.3 180.028 123.517 181.365 124.098 182.628L118.367 195.997C118.367 195.997 116.191 196.294 116.191 198.151C116.264 199.042 116.118 199.933 115.828 200.824C115.828 200.824 110.243 204.389 106.471 205.652C100.886 207.509 95.6629 210.257 90.948 213.822C86.1605 217.684 82.7512 222.735 84.9274 223.923C87.1035 225.111 92.7614 224.443 93.5593 224.294C94.3572 224.146 116.771 226.819 121.849 225.111C126.927 223.403 125.113 226.002 130.191 223.254C135.268 220.506 135.776 217.684 135.776 217.684C135.776 217.684 137.59 217.016 144.771 203.275C151.952 189.535 154.418 180.325 154.708 172.75" stroke="#263238" stroke-miterlimit="10" stroke-linecap="round"/>
<path d="M134.905 178.468C134.18 179.285 133.527 180.177 133.02 181.142" stroke="#263238" stroke-miterlimit="10" stroke-linecap="round"/>
<path d="M149.848 166.808C145.496 169.63 141.362 172.75 137.372 176.092" stroke="#263238" stroke-miterlimit="10" stroke-linecap="round"/>
<path d="M122.72 220.878C123.663 221.472 124.678 221.992 125.766 222.363" stroke="#263238" stroke-miterlimit="10" stroke-linecap="round"/>
<path d="M110.098 208.697C113.144 212.411 116.481 215.827 120.035 218.872" stroke="#263238" stroke-miterlimit="10" stroke-linecap="round"/>
<path d="M108.212 210.108C108.212 210.108 114.45 217.016 116.191 218.427" stroke="#263238" stroke-miterlimit="10" stroke-linecap="round"/>
<path d="M115.683 200.825C115.683 200.825 118.512 200.973 124.677 197.259" stroke="#263238" stroke-miterlimit="10" stroke-linecap="round"/>
</g>
<g filter="url(#filter0_d_507_4768)">
<path d="M97.5633 79L95.0587 54.9641L133.729 54.9641C138.852 54.9641 143 50.8065 143 45.6705L143 10.2936C143 5.15765 138.852 1 133.729 1L10.2711 1.00001C5.14759 1.00001 0.999997 5.15766 0.999997 10.2936L0.999999 45.5483C0.999999 50.6842 5.1476 54.8418 10.2711 54.8418L80.7861 54.8418L97.5633 79Z" fill="white"/>
<path d="M98.0606 78.9482C98.0842 79.1752 97.9512 79.3893 97.7372 79.4688C97.5233 79.5482 97.2827 79.4726 97.1526 79.2852L80.5246 55.3418L10.2711 55.3418C4.87031 55.3418 0.499999 50.9592 0.499999 45.5483L0.499997 10.2936C0.499997 4.88266 4.87031 0.500006 10.2711 0.500006L133.729 0.5C139.13 0.5 143.5 4.88265 143.5 10.2936L143.5 45.6705C143.5 51.0815 139.13 55.4641 133.729 55.4641L95.6135 55.4641L98.0606 78.9482Z" stroke="#333E63" stroke-linecap="round" stroke-linejoin="round"/>
</g>
<path d="M22.898 5.2V15H21.876V6.096H15.674V15H14.652V5.2H22.898ZM32.4067 11.626H26.2467C26.3027 12.3913 26.5967 13.012 27.1287 13.488C27.6607 13.9547 28.3327 14.188 29.1447 14.188C29.6021 14.188 30.0221 14.1087 30.4047 13.95C30.7874 13.782 31.1187 13.5393 31.3987 13.222L31.9587 13.866C31.6321 14.258 31.2214 14.5567 30.7267 14.762C30.2414 14.9673 29.7047 15.07 29.1167 15.07C28.3607 15.07 27.6887 14.9113 27.1007 14.594C26.5221 14.2673 26.0694 13.8193 25.7427 13.25C25.4161 12.6807 25.2527 12.0367 25.2527 11.318C25.2527 10.5993 25.4067 9.95533 25.7147 9.386C26.0321 8.81667 26.4614 8.37333 27.0027 8.056C27.5534 7.73867 28.1694 7.58 28.8507 7.58C29.5321 7.58 30.1434 7.73867 30.6847 8.056C31.2261 8.37333 31.6507 8.81667 31.9587 9.386C32.2667 9.946 32.4207 10.59 32.4207 11.318L32.4067 11.626ZM28.8507 8.434C28.1414 8.434 27.5441 8.66267 27.0587 9.12C26.5827 9.568 26.3121 10.156 26.2467 10.884H31.4687C31.4034 10.156 31.1281 9.568 30.6427 9.12C30.1667 8.66267 29.5694 8.434 28.8507 8.434ZM38.415 7.58C39.1057 7.58 39.731 7.73867 40.291 8.056C40.851 8.364 41.2897 8.80267 41.607 9.372C41.9244 9.94133 42.083 10.59 42.083 11.318C42.083 12.0553 41.9244 12.7087 41.607 13.278C41.2897 13.8473 40.851 14.2907 40.291 14.608C39.7404 14.916 39.115 15.07 38.415 15.07C37.8177 15.07 37.2764 14.9487 36.791 14.706C36.315 14.454 35.923 14.09 35.615 13.614V17.716H34.621V7.636H35.573V9.092C35.8717 8.60667 36.2637 8.23333 36.749 7.972C37.2437 7.71067 37.799 7.58 38.415 7.58ZM38.345 14.188C38.8584 14.188 39.325 14.0713 39.745 13.838C40.165 13.5953 40.4917 13.2547 40.725 12.816C40.9677 12.3773 41.089 11.878 41.089 11.318C41.089 10.758 40.9677 10.2633 40.725 9.834C40.4917 9.39533 40.165 9.05467 39.745 8.812C39.325 8.56933 38.8584 8.448 38.345 8.448C37.8224 8.448 37.351 8.56933 36.931 8.812C36.5204 9.05467 36.1937 9.39533 35.951 9.834C35.7177 10.2633 35.601 10.758 35.601 11.318C35.601 11.878 35.7177 12.3773 35.951 12.816C36.1937 13.2547 36.5204 13.5953 36.931 13.838C37.351 14.0713 37.8224 14.188 38.345 14.188ZM48.9087 11.192C49.9074 11.4253 50.4067 12.0273 50.4067 12.998C50.4067 13.642 50.1687 14.1367 49.6927 14.482C49.2167 14.8273 48.5074 15 47.5647 15H44.2187V7.636H47.4667C48.3067 7.636 48.9647 7.79933 49.4407 8.126C49.9167 8.45267 50.1547 8.91933 50.1547 9.526C50.1547 9.92733 50.0427 10.2727 49.8187 10.562C49.604 10.842 49.3007 11.052 48.9087 11.192ZM45.1847 10.912H47.3967C47.966 10.912 48.4 10.8047 48.6987 10.59C49.0067 10.3753 49.1607 10.0627 49.1607 9.652C49.1607 9.24133 49.0067 8.93333 48.6987 8.728C48.4 8.52267 47.966 8.42 47.3967 8.42H45.1847V10.912ZM47.5227 14.216C48.1574 14.216 48.6334 14.1133 48.9507 13.908C49.268 13.7027 49.4267 13.3807 49.4267 12.942C49.4267 12.5033 49.282 12.1813 48.9927 11.976C48.7034 11.7613 48.246 11.654 47.6207 11.654H45.1847V14.216H47.5227ZM55.8303 10.24C56.7543 10.2493 57.4589 10.4547 57.9443 10.856C58.4296 11.2573 58.6723 11.836 58.6723 12.592C58.6723 13.376 58.4109 13.978 57.8883 14.398C57.3656 14.818 56.6189 15.0233 55.6483 15.014L52.7363 15V7.636H53.7303V10.212L55.8303 10.24ZM59.9043 7.636H60.8983V15H59.9043V7.636ZM55.5923 14.258C56.2736 14.2673 56.7869 14.132 57.1323 13.852C57.4869 13.5627 57.6643 13.1427 57.6643 12.592C57.6643 12.0507 57.4916 11.6493 57.1463 11.388C56.8009 11.1267 56.2829 10.9913 55.5923 10.982L53.7303 10.954V14.23L55.5923 14.258ZM71.9605 7.636V15H71.0505V9.176L68.0685 14.104H67.6205L64.6385 9.162V15H63.7285V7.636H64.7365L67.8585 12.942L71.0365 7.636H71.9605ZM85.6351 14.132V16.778H84.6971V15H78.1031V16.778H77.1651V14.132H77.5851C78.0797 14.104 78.4157 13.74 78.5931 13.04C78.7704 12.34 78.8917 11.36 78.9571 10.1L79.0551 7.636H84.4871V14.132H85.6351ZM79.8671 10.156C79.8204 11.2013 79.7317 12.0647 79.6011 12.746C79.4704 13.418 79.2371 13.88 78.9011 14.132H83.4931V8.518H79.9511L79.8671 10.156ZM94.0122 11.626H87.8522C87.9082 12.3913 88.2022 13.012 88.7342 13.488C89.2662 13.9547 89.9382 14.188 90.7502 14.188C91.2075 14.188 91.6275 14.1087 92.0102 13.95C92.3929 13.782 92.7242 13.5393 93.0042 13.222L93.5642 13.866C93.2375 14.258 92.8269 14.5567 92.3322 14.762C91.8469 14.9673 91.3102 15.07 90.7222 15.07C89.9662 15.07 89.2942 14.9113 88.7062 14.594C88.1275 14.2673 87.6749 13.8193 87.3482 13.25C87.0215 12.6807 86.8582 12.0367 86.8582 11.318C86.8582 10.5993 87.0122 9.95533 87.3202 9.386C87.6375 8.81667 88.0669 8.37333 88.6082 8.056C89.1589 7.73867 89.7749 7.58 90.4562 7.58C91.1375 7.58 91.7489 7.73867 92.2902 8.056C92.8315 8.37333 93.2562 8.81667 93.5642 9.386C93.8722 9.946 94.0262 10.59 94.0262 11.318L94.0122 11.626ZM90.4562 8.434C89.7469 8.434 89.1495 8.66267 88.6642 9.12C88.1882 9.568 87.9175 10.156 87.8522 10.884H93.0742C93.0089 10.156 92.7335 9.568 92.2482 9.12C91.7722 8.66267 91.1749 8.434 90.4562 8.434ZM102.096 7.636V15H101.102V8.518H97.5741L97.4761 10.338C97.4014 11.8687 97.2241 13.0447 96.9441 13.866C96.6641 14.6873 96.1648 15.098 95.4461 15.098C95.2501 15.098 95.0121 15.0607 94.7321 14.986L94.8021 14.132C94.9701 14.1693 95.0868 14.188 95.1521 14.188C95.5348 14.188 95.8241 14.0107 96.0201 13.656C96.2161 13.3013 96.3468 12.8627 96.4121 12.34C96.4774 11.8173 96.5334 11.1267 96.5801 10.268L96.7061 7.636H102.096ZM107.96 15.07C107.25 15.07 106.611 14.9113 106.042 14.594C105.472 14.2673 105.024 13.8193 104.698 13.25C104.371 12.6807 104.208 12.0367 104.208 11.318C104.208 10.5993 104.371 9.95533 104.698 9.386C105.024 8.81667 105.472 8.37333 106.042 8.056C106.611 7.73867 107.25 7.58 107.96 7.58C108.669 7.58 109.308 7.73867 109.878 8.056C110.447 8.37333 110.89 8.81667 111.208 9.386C111.534 9.95533 111.698 10.5993 111.698 11.318C111.698 12.0367 111.534 12.6807 111.208 13.25C110.89 13.8193 110.447 14.2673 109.878 14.594C109.308 14.9113 108.669 15.07 107.96 15.07ZM107.96 14.188C108.482 14.188 108.949 14.0713 109.36 13.838C109.78 13.5953 110.106 13.2547 110.34 12.816C110.573 12.3773 110.69 11.878 110.69 11.318C110.69 10.758 110.573 10.2587 110.34 9.82C110.106 9.38133 109.78 9.04533 109.36 8.812C108.949 8.56933 108.482 8.448 107.96 8.448C107.437 8.448 106.966 8.56933 106.546 8.812C106.135 9.04533 105.808 9.38133 105.566 9.82C105.332 10.2587 105.216 10.758 105.216 11.318C105.216 11.878 105.332 12.3773 105.566 12.816C105.808 13.2547 106.135 13.5953 106.546 13.838C106.966 14.0713 107.437 14.188 107.96 14.188ZM122.054 7.636V15H121.144V9.176L118.162 14.104H117.714L114.732 9.162V15H113.822V7.636H114.83L117.952 12.942L121.13 7.636H122.054ZM14.414 24.636H15.408V27.898H20.042V24.636H21.036V32H20.042V28.752H15.408V32H14.414V24.636ZM30.1193 24.636L26.4373 32.882C26.1386 33.5727 25.7933 34.0627 25.4013 34.352C25.0093 34.6413 24.5379 34.786 23.9873 34.786C23.6326 34.786 23.3013 34.73 22.9933 34.618C22.6853 34.506 22.4193 34.338 22.1953 34.114L22.6573 33.372C23.0306 33.7453 23.4786 33.932 24.0013 33.932C24.3373 33.932 24.6219 33.8387 24.8553 33.652C25.0979 33.4653 25.3219 33.148 25.5273 32.7L25.8493 31.986L22.5593 24.636H23.5953L26.3673 30.894L29.1393 24.636H30.1193ZM37.6981 28.724H36.1021V32H35.1081V28.724H33.5121L31.2581 32H30.0681L32.7141 28.206L30.2781 24.636H31.3561L33.5121 27.87H35.1081V24.636H36.1021V27.87H37.6981L39.8681 24.636H40.9461L38.5101 28.22L41.1561 32H39.9661L37.6981 28.724ZM42.8105 24.636H43.8045V27.898H48.4385V24.636H49.4325V32H48.4385V28.752H43.8045V32H42.8105V24.636ZM55.2958 32.07C54.5864 32.07 53.9471 31.9113 53.3778 31.594C52.8084 31.2673 52.3604 30.8193 52.0338 30.25C51.7071 29.6807 51.5438 29.0367 51.5438 28.318C51.5438 27.5993 51.7071 26.9553 52.0338 26.386C52.3604 25.8167 52.8084 25.3733 53.3778 25.056C53.9471 24.7387 54.5864 24.58 55.2958 24.58C56.0051 24.58 56.6444 24.7387 57.2138 25.056C57.7831 25.3733 58.2264 25.8167 58.5438 26.386C58.8704 26.9553 59.0338 27.5993 59.0338 28.318C59.0338 29.0367 58.8704 29.6807 58.5438 30.25C58.2264 30.8193 57.7831 31.2673 57.2138 31.594C56.6444 31.9113 56.0051 32.07 55.2958 32.07ZM55.2958 31.188C55.8184 31.188 56.2851 31.0713 56.6958 30.838C57.1158 30.5953 57.4424 30.2547 57.6758 29.816C57.9091 29.3773 58.0258 28.878 58.0258 28.318C58.0258 27.758 57.9091 27.2587 57.6758 26.82C57.4424 26.3813 57.1158 26.0453 56.6958 25.812C56.2851 25.5693 55.8184 25.448 55.2958 25.448C54.7731 25.448 54.3018 25.5693 53.8818 25.812C53.4711 26.0453 53.1444 26.3813 52.9017 26.82C52.6684 27.2587 52.5518 27.758 52.5518 28.318C52.5518 28.878 52.6684 29.3773 52.9017 29.816C53.1444 30.2547 53.4711 30.5953 53.8818 30.838C54.3018 31.0713 54.7731 31.188 55.2958 31.188ZM69.5122 28.192C70.5109 28.4253 71.0102 29.0273 71.0102 29.998C71.0102 30.642 70.7722 31.1367 70.2962 31.482C69.8202 31.8273 69.1109 32 68.1682 32H64.8222V24.636H68.0702C68.9102 24.636 69.5682 24.7993 70.0442 25.126C70.5202 25.4527 70.7582 25.9193 70.7582 26.526C70.7582 26.9273 70.6462 27.2727 70.4222 27.562C70.2075 27.842 69.9042 28.052 69.5122 28.192ZM65.7882 27.912H68.0002C68.5695 27.912 69.0035 27.8047 69.3022 27.59C69.6102 27.3753 69.7642 27.0627 69.7642 26.652C69.7642 26.2413 69.6102 25.9333 69.3022 25.728C69.0035 25.5227 68.5695 25.42 68.0002 25.42H65.7882V27.912ZM68.1262 31.216C68.7609 31.216 69.2369 31.1133 69.5542 30.908C69.8715 30.7027 70.0302 30.3807 70.0302 29.942C70.0302 29.5033 69.8855 29.1813 69.5962 28.976C69.3069 28.7613 68.8495 28.654 68.2242 28.654H65.7882V31.216H68.1262ZM76.4338 27.24C77.3578 27.2493 78.0624 27.4547 78.5478 27.856C79.0331 28.2573 79.2758 28.836 79.2758 29.592C79.2758 30.376 79.0144 30.978 78.4918 31.398C77.9691 31.818 77.2224 32.0233 76.2518 32.014L73.3398 32V24.636H74.3338V27.212L76.4338 27.24ZM80.5078 24.636H81.5018V32H80.5078V24.636ZM76.1958 31.258C76.8771 31.2673 77.3904 31.132 77.7358 30.852C78.0904 30.5627 78.2678 30.1427 78.2678 29.592C78.2678 29.0507 78.0951 28.6493 77.7498 28.388C77.4044 28.1267 76.8864 27.9913 76.1958 27.982L74.3338 27.954V31.23L76.1958 31.258ZM87.902 24.818C88.5833 24.818 89.19 24.972 89.722 25.28C90.2633 25.5787 90.6833 26.0033 90.982 26.554C91.2806 27.0953 91.43 27.716 91.43 28.416C91.43 29.1347 91.2713 29.774 90.954 30.334C90.646 30.8847 90.212 31.314 89.652 31.622C89.092 31.93 88.448 32.084 87.72 32.084C86.4973 32.084 85.55 31.6547 84.878 30.796C84.206 29.9373 83.87 28.752 83.87 27.24C83.87 25.6627 84.1686 24.454 84.766 23.614C85.3726 22.774 86.3153 22.2047 87.594 21.906L90.898 21.15L91.066 22.06L87.958 22.774C86.9033 23.0073 86.1286 23.4227 85.634 24.02C85.1393 24.608 84.8686 25.4807 84.822 26.638C85.1206 26.0687 85.536 25.6253 86.068 25.308C86.6 24.9813 87.2113 24.818 87.902 24.818ZM87.748 31.258C88.2613 31.258 88.7186 31.1413 89.12 30.908C89.5306 30.6653 89.848 30.3293 90.072 29.9C90.3053 29.4707 90.422 28.9853 90.422 28.444C90.422 27.9027 90.31 27.4267 90.086 27.016C89.862 26.6053 89.5446 26.288 89.134 26.064C88.7326 25.8307 88.2706 25.714 87.748 25.714C87.2253 25.714 86.7586 25.8307 86.348 26.064C85.9466 26.288 85.6293 26.6053 85.396 27.016C85.172 27.4267 85.06 27.9027 85.06 28.444C85.06 28.9853 85.172 29.4707 85.396 29.9C85.6293 30.3293 85.9513 30.6653 86.362 30.908C86.7726 31.1413 87.2346 31.258 87.748 31.258ZM97.3545 24.58C98.0452 24.58 98.6705 24.7387 99.2305 25.056C99.7905 25.364 100.229 25.8027 100.546 26.372C100.864 26.9413 101.022 27.59 101.022 28.318C101.022 29.0553 100.864 29.7087 100.546 30.278C100.229 30.8473 99.7905 31.2907 99.2305 31.608C98.6798 31.916 98.0545 32.07 97.3545 32.07C96.7572 32.07 96.2158 31.9487 95.7305 31.706C95.2545 31.454 94.8625 31.09 94.5545 30.614V34.716H93.5605V24.636H94.5125V26.092C94.8112 25.6067 95.2032 25.2333 95.6885 24.972C96.1832 24.7107 96.7385 24.58 97.3545 24.58ZM97.2845 31.188C97.7978 31.188 98.2645 31.0713 98.6845 30.838C99.1045 30.5953 99.4312 30.2547 99.6645 29.816C99.9072 29.3773 100.028 28.878 100.028 28.318C100.028 27.758 99.9072 27.2633 99.6645 26.834C99.4312 26.3953 99.1045 26.0547 98.6845 25.812C98.2645 25.5693 97.7978 25.448 97.2845 25.448C96.7618 25.448 96.2905 25.5693 95.8705 25.812C95.4598 26.0547 95.1332 26.3953 94.8905 26.834C94.6572 27.2633 94.5405 27.758 94.5405 28.318C94.5405 28.878 94.6572 29.3773 94.8905 29.816C95.1332 30.2547 95.4598 30.5953 95.8705 30.838C96.2905 31.0713 96.7618 31.188 97.2845 31.188ZM105.651 24.58C106.612 24.58 107.35 24.8227 107.863 25.308C108.376 25.784 108.633 26.4933 108.633 27.436V32H107.681V30.852C107.457 31.2347 107.126 31.5333 106.687 31.748C106.258 31.9627 105.744 32.07 105.147 32.07C104.326 32.07 103.672 31.874 103.187 31.482C102.702 31.09 102.459 30.572 102.459 29.928C102.459 29.3027 102.683 28.7987 103.131 28.416C103.588 28.0333 104.312 27.842 105.301 27.842H107.639V27.394C107.639 26.7593 107.462 26.2787 107.107 25.952C106.752 25.616 106.234 25.448 105.553 25.448C105.086 25.448 104.638 25.5273 104.209 25.686C103.78 25.8353 103.411 26.0453 103.103 26.316L102.655 25.574C103.028 25.2567 103.476 25.014 103.999 24.846C104.522 24.6687 105.072 24.58 105.651 24.58ZM105.301 31.286C105.861 31.286 106.342 31.16 106.743 30.908C107.144 30.6467 107.443 30.2733 107.639 29.788V28.584H105.329C104.069 28.584 103.439 29.0227 103.439 29.9C103.439 30.3293 103.602 30.67 103.929 30.922C104.256 31.1647 104.713 31.286 105.301 31.286ZM116.459 25.518H113.673V32H112.679V25.518H109.893V24.636H116.459V25.518ZM121.06 27.24C121.984 27.2493 122.684 27.4547 123.16 27.856C123.646 28.2573 123.888 28.836 123.888 29.592C123.888 30.376 123.627 30.978 123.104 31.398C122.591 31.818 121.844 32.0233 120.864 32.014L117.896 32V24.636H118.89V27.212L121.06 27.24ZM120.808 31.258C121.49 31.2673 122.003 31.132 122.348 30.852C122.703 30.5627 122.88 30.1427 122.88 29.592C122.88 29.0507 122.708 28.6493 122.362 28.388C122.017 28.1267 121.499 27.9913 120.808 27.982L118.89 27.954V31.23L120.808 31.258ZM19.594 42.518H16.808V49H15.814V42.518H13.028V41.636H19.594V42.518ZM23.5652 41.58C24.5265 41.58 25.2639 41.8227 25.7772 42.308C26.2905 42.784 26.5472 43.4933 26.5472 44.436V49H25.5952V47.852C25.3712 48.2347 25.0399 48.5333 24.6012 48.748C24.1719 48.9627 23.6585 49.07 23.0612 49.07C22.2399 49.07 21.5865 48.874 21.1012 48.482C20.6159 48.09 20.3732 47.572 20.3732 46.928C20.3732 46.3027 20.5972 45.7987 21.0452 45.416C21.5025 45.0333 22.2259 44.842 23.2152 44.842H25.5532V44.394C25.5532 43.7593 25.3759 43.2787 25.0212 42.952C24.6665 42.616 24.1485 42.448 23.4672 42.448C23.0005 42.448 22.5525 42.5273 22.1232 42.686C21.6939 42.8353 21.3252 43.0453 21.0172 43.316L20.5692 42.574C20.9425 42.2567 21.3905 42.014 21.9132 41.846C22.4359 41.6687 22.9865 41.58 23.5652 41.58ZM23.2152 48.286C23.7752 48.286 24.2559 48.16 24.6572 47.908C25.0585 47.6467 25.3572 47.2733 25.5532 46.788V45.584H23.2432C21.9832 45.584 21.3532 46.0227 21.3532 46.9C21.3532 47.3293 21.5165 47.67 21.8432 47.922C22.1699 48.1647 22.6272 48.286 23.2152 48.286ZM32.9873 41.58C33.678 41.58 34.3033 41.7387 34.8633 42.056C35.4233 42.364 35.862 42.8027 36.1793 43.372C36.4966 43.9413 36.6553 44.59 36.6553 45.318C36.6553 46.0553 36.4966 46.7087 36.1793 47.278C35.862 47.8473 35.4233 48.2907 34.8633 48.608C34.3126 48.916 33.6873 49.07 32.9873 49.07C32.39 49.07 31.8486 48.9487 31.3633 48.706C30.8873 48.454 30.4953 48.09 30.1873 47.614V51.716H29.1933V41.636H30.1453V43.092C30.444 42.6067 30.836 42.2333 31.3213 41.972C31.816 41.7107 32.3713 41.58 32.9873 41.58ZM32.9173 48.188C33.4306 48.188 33.8973 48.0713 34.3173 47.838C34.7373 47.5953 35.064 47.2547 35.2973 46.816C35.54 46.3773 35.6613 45.878 35.6613 45.318C35.6613 44.758 35.54 44.2633 35.2973 43.834C35.064 43.3953 34.7373 43.0547 34.3173 42.812C33.8973 42.5693 33.4306 42.448 32.9173 42.448C32.3946 42.448 31.9233 42.5693 31.5033 42.812C31.0926 43.0547 30.766 43.3953 30.5233 43.834C30.29 44.2633 30.1733 44.758 30.1733 45.318C30.1733 45.878 30.29 46.3773 30.5233 46.816C30.766 47.2547 31.0926 47.5953 31.5033 47.838C31.9233 48.0713 32.3946 48.188 32.9173 48.188ZM38.791 41.636H39.785V47.488L44.699 41.636H45.581V49H44.587V43.148L39.687 49H38.791V41.636ZM57.3196 45.304C57.3196 46.452 56.9416 47.3527 56.1856 48.006C55.4296 48.6593 54.361 49.014 52.9796 49.07V51.716H52.0136V49.084C50.6416 49.028 49.5776 48.6733 48.8216 48.02C48.075 47.3573 47.7016 46.452 47.7016 45.304C47.7016 44.1653 48.075 43.274 48.8216 42.63C49.5776 41.986 50.6416 41.636 52.0136 41.58V38.612H52.9796V41.58C54.361 41.6453 55.4296 42 56.1856 42.644C56.9416 43.288 57.3196 44.1747 57.3196 45.304ZM48.6816 45.304C48.6816 46.1813 48.9616 46.8673 49.5216 47.362C50.091 47.8567 50.9216 48.1367 52.0136 48.202V42.462C50.931 42.518 50.105 42.7933 49.5356 43.288C48.9663 43.7733 48.6816 44.4453 48.6816 45.304ZM52.9796 48.202C54.0716 48.146 54.9023 47.8707 55.4716 47.376C56.0503 46.8813 56.3396 46.1907 56.3396 45.304C56.3396 44.436 56.0503 43.7593 55.4716 43.274C54.9023 42.7887 54.0716 42.518 52.9796 42.462V48.202Z" fill="#333E63"/>
<defs>
<filter id="filter0_d_507_4768" x="0" y="0" width="149" height="85.0001" filterUnits="userSpaceOnUse" color-interpolation-filters="sRGB">
<feFlood flood-opacity="0" result="BackgroundImageFix"/>
<feColorMatrix in="SourceAlpha" type="matrix" values="0 0 0 0 0 0 0 0 0 0 0 0 0 0 0 0 0 0 127 0" result="hardAlpha"/>
<feOffset dx="5" dy="5"/>
<feComposite in2="hardAlpha" operator="out"/>
<feColorMatrix type="matrix" values="0 0 0 0 0.2 0 0 0 0 0.243137 0 0 0 0 0.388235 0 0 0 1 0"/>
<feBlend mode="normal" in2="BackgroundImageFix" result="effect1_dropShadow_507_4768"/>
<feBlend mode="normal" in="SourceGraphic" in2="effect1_dropShadow_507_4768" result="shape"/>
</filter>
<clipPath id="clip0_507_4768">
<rect width="88" height="334" fill="white" transform="translate(71 86)"/>
</clipPath>
</defs>
</svg>
