<svg width="386" height="682" viewBox="0 0 386 682" fill="none" xmlns="http://www.w3.org/2000/svg">
<path d="M307.563 96.9093C308.473 99.6391 309.079 102.521 309.383 105.25C309.231 107.07 305.136 135.582 308.321 134.823C311.506 133.914 343.66 117.383 345.176 114.501C346.693 111.468 346.086 92.8146 347.3 88.2649C348.513 83.7152 350.788 76.8906 350.788 76.8906C350.788 76.8906 337.593 87.3549 327.583 91.753C321.213 94.1795 314.539 95.8477 307.563 96.9093Z" fill="white" stroke="#263238" stroke-linecap="round" stroke-linejoin="round"/>
<path d="M308.018 106.615C308.018 107.677 307.563 114.956 307.563 122.084L335.47 95.8477L305.895 99.3358C306.805 101.762 307.715 104.037 308.018 106.615Z" fill="#263238" stroke="#263238" stroke-linecap="round" stroke-linejoin="round"/>
<path d="M291.636 53.0805C290.423 52.9288 273.739 54.1421 272.981 41.8579C272.223 35.185 276.621 28.6638 283.901 26.6922C283.901 26.6922 273.588 16.3796 286.783 10.6166C299.978 4.85367 315.752 7.88681 315.752 7.88681C315.752 7.88681 314.083 -1.5159 326.369 1.21392C338.654 3.94374 346.996 16.6829 347.299 17.8961C347.602 19.1094 364.589 24.1141 370.049 32.1519C375.661 40.1897 373.993 50.654 369.594 57.7818C365.348 63.8481 360.494 69.9144 355.337 75.6773C352.152 77.9522 347.906 78.4072 344.114 77.0422C337.592 74.6157 333.497 72.7959 333.8 67.7912C334.104 62.7865 332.435 49.744 330.767 48.0758C329.099 46.4076 325.155 45.801 317.117 47.1659C309.23 48.8341 291.636 53.0805 291.636 53.0805Z" fill="#263238" stroke="#263238" stroke-linecap="round" stroke-linejoin="round"/>
<path d="M291.333 49.4406C291.333 49.4406 290.575 60.6632 289.362 63.848C286.632 74.919 284.66 86.1416 283.295 97.6675C282.84 104.947 291.333 110.862 295.58 111.013C299.979 111.165 307.41 107.828 314.084 106.464C320.757 105.099 338.957 99.4873 341.839 95.6959C344.721 91.7528 345.631 90.6912 345.631 90.6912C345.631 90.6912 359.584 88.4164 361.556 77.8004C363.68 67.3361 356.096 66.1229 350.636 68.5494C347.603 69.9143 344.873 71.4309 342.294 73.4024C342.294 73.4024 338.351 73.0991 338.957 70.3693C339.564 68.5494 339.867 66.8812 340.171 65.0613C340.322 63.0898 339.109 61.8765 337.592 57.1751C336.227 52.6254 335.166 52.9288 337.289 48.9857C339.412 45.0426 343.356 38.0664 343.356 38.0664C343.356 38.0664 305.894 39.4313 291.333 49.4406Z" fill="white" stroke="#263238" stroke-linecap="round" stroke-linejoin="round"/>
<path d="M309.836 52.0186C309.836 52.0186 316.358 51.2603 320.756 53.9901" stroke="#263238" stroke-linecap="round" stroke-linejoin="round"/>
<path d="M298.614 51.4121C296.491 50.3505 293.912 50.3505 291.789 51.1088" stroke="#263238" stroke-linecap="round" stroke-linejoin="round"/>
<path d="M290.877 87.0514C290.877 87.0514 296.034 90.5394 304.072 86.748" stroke="#263238" stroke-linecap="round" stroke-linejoin="round"/>
<path d="M315.753 60.2079C315.601 61.5728 314.388 62.4828 312.871 62.3311C311.506 62.1795 310.293 60.9662 310.444 59.753C310.596 58.388 311.81 57.4781 313.326 57.6298C314.843 57.7814 315.905 58.9947 315.753 60.2079Z" fill="#263238"/>
<path d="M296.49 57.7814C296.49 58.9946 295.429 59.7529 294.064 59.7529C292.85 59.7529 291.789 58.6913 291.94 57.6297C291.94 56.4165 293.002 55.6582 294.367 55.6582C295.732 55.6582 296.642 56.7198 296.49 57.7814Z" fill="#263238"/>
<path d="M303.315 55.3545C303.315 55.3545 300.434 64.1506 305.135 67.6387C309.837 71.1268 320.909 70.2169 323.791 67.4871C326.672 64.7572 328.492 57.6294 328.492 57.6294C328.492 57.6294 314.539 53.2313 303.315 55.3545Z" stroke="#263238" stroke-linecap="round" stroke-linejoin="round"/>
<path d="M298.009 55.0516C298.009 55.0516 298.919 63.9993 295.127 67.0324C291.335 70.0656 282.994 67.9424 281.173 65.0609C279.353 62.1794 278.898 54.8999 278.898 54.8999C278.898 54.8999 290.122 51.7151 298.009 55.0516Z" stroke="#263238" stroke-linecap="round" stroke-linejoin="round"/>
<path d="M298.008 55.0513C298.008 55.0513 299.373 53.838 303.316 55.3546" stroke="#263238" stroke-linecap="round" stroke-linejoin="round"/>
<path d="M328.342 58.3877L347.452 69.4586" stroke="#263238" stroke-linecap="round" stroke-linejoin="round"/>
<path d="M300.131 58.3877C300.131 58.3877 282.537 71.2785 284.054 75.8282C285.419 80.3779 300.131 80.0746 300.131 80.0746" fill="white"/>
<path d="M300.131 58.3877C300.131 58.3877 282.537 71.2785 284.054 75.8282C285.419 80.3779 300.131 80.0746 300.131 80.0746" stroke="#263238" stroke-linecap="round" stroke-linejoin="round"/>
<path d="M218.684 217.779L231.424 213.078C231.424 213.078 237.339 207.618 238.249 207.163C239.007 206.556 249.169 205.343 249.472 203.068C249.776 200.945 258.118 194.879 258.118 194.879L255.994 222.935L214.285 224.604C214.285 224.604 216.409 221.267 218.684 217.779Z" fill="#B0BEC5" stroke="#263238" stroke-miterlimit="10" stroke-linecap="round"/>
<path d="M234.762 219.145C233.397 217.325 232.336 215.202 231.577 213.079C230.971 210.955 232.639 209.59 234.762 210.045C236.886 210.5 240.829 216.567 240.829 216.567L239.009 209.439C238.251 206.406 240.071 204.282 242.497 205.951C244.924 207.619 248.716 217.628 248.716 217.628C248.716 217.628 245.531 206.254 246.289 204.586C247.047 202.918 247.957 201.249 249.626 202.918C251.901 206.102 253.721 209.59 254.783 213.23C255.238 215.505 255.693 217.78 256.451 220.055L238.251 223.088L234.762 219.145Z" fill="white" stroke="#263238" stroke-miterlimit="10" stroke-linecap="round"/>
<path d="M279.35 162.729C279.35 162.729 254.628 187.449 254.022 191.544C253.415 195.639 247.803 261.609 244.77 271.164C241.736 280.718 234.153 310.898 234.153 310.898C234.153 310.898 222.778 382.328 223.839 382.631C224.901 382.934 241.281 385.058 241.281 385.058L248.562 303.921L269.037 185.478L285.114 162.122C283.142 161.364 281.17 161.667 279.35 162.729Z" fill="#B0BEC5" stroke="#263238" stroke-miterlimit="10" stroke-linecap="round"/>
<path d="M240.981 313.627C240.981 313.627 237.492 371.408 237.947 381.72C238.402 392.033 245.227 450.421 245.227 450.421C245.227 450.421 247.654 517.453 255.844 534.894C264.034 552.334 292.548 597.831 296.188 603.291C299.677 608.75 305.137 622.703 305.137 622.703C305.137 622.703 298.918 629.224 300.738 633.319C302.558 637.414 305.895 643.631 305.895 643.631C305.895 643.631 293.155 655.006 284.661 660.01C276.168 665.015 265.854 670.93 266.158 672.598C266.461 674.266 267.826 674.721 270.253 675.328C272.679 675.934 347.907 675.328 347.907 675.328L346.694 624.826L330.617 573.718L300.283 485.15L302.71 378.081L299.98 310.745L240.981 313.627Z" fill="#263238" stroke="#263238" stroke-miterlimit="10" stroke-linecap="round"/>
<path d="M309.99 648.484C309.99 648.484 291.486 661.83 290.576 662.437C289.818 662.892 267.371 673.811 264.489 674.721C261.456 675.631 259.332 676.086 259.636 678.209C259.939 680.332 258.574 679.877 259.939 680.332C261.304 680.787 290.424 681.091 306.046 681.091C321.668 681.091 327.28 679.422 327.28 679.422L333.347 676.389L335.47 675.783V680.181H359.434C359.434 680.181 359.889 673.659 359.889 671.991V670.323C359.131 666.835 358.069 663.498 356.704 660.314L353.67 654.399L309.99 648.484Z" fill="#707070" stroke="#263238" stroke-miterlimit="10" stroke-linecap="round"/>
<path d="M267.674 399.009C267.674 399.009 275.864 492.43 280.869 505.775C286.026 519.121 292.093 539.292 292.093 539.292C292.093 539.292 310.9 603.594 311.658 611.48C312.416 619.366 313.781 622.399 312.265 623.764C310.748 625.129 310.141 629.679 310.9 632.712C311.506 635.139 311.81 637.717 311.961 640.295C310.596 640.75 309.686 642.115 309.838 643.631V648.484C319.09 652.579 328.796 655.916 338.655 658.342C356.097 662.74 356.4 660.465 356.4 660.465C356.4 660.465 359.585 641.356 358.22 632.409C356.855 623.461 355.49 607.84 356.097 602.987C356.704 598.134 360.95 570.836 359.585 561.585C358.675 555.67 357.159 549.908 355.035 544.448C355.035 544.448 341.385 488.335 341.385 487.273C341.385 486.212 342.143 460.885 342.143 460.885C342.143 460.885 343.963 418.876 343.963 418.118C343.963 417.36 347.3 403.711 348.513 398.251C349.878 392.791 350.333 391.123 350.333 391.123L267.674 399.009Z" fill="#263238" stroke="#263238" stroke-miterlimit="10" stroke-linecap="round"/>
<path d="M293.608 147.563C293.608 147.563 262.212 180.321 259.786 190.33C257.359 200.339 247.804 281.324 245.681 290.727C243.557 300.129 235.064 311.504 243.254 316.66C251.444 321.816 256.297 321.21 256.297 321.21C256.297 321.21 273.739 216.415 282.384 198.671C291.03 180.927 321.818 144.681 318.937 140.89C315.903 137.099 302.86 143.165 293.608 147.563Z" fill="#707070" stroke="#263238" stroke-miterlimit="10" stroke-linecap="round"/>
<path d="M306.957 124.966L290.576 136.947C290.576 136.947 287.088 156.055 289.515 154.994L293.003 153.174V158.634L304.682 141.8L306.957 124.966Z" fill="#707070" stroke="#263238" stroke-miterlimit="10" stroke-linecap="round"/>
<path d="M293.002 153.173L292.244 138.766" stroke="#263238" stroke-miterlimit="10" stroke-linecap="round"/>
<path d="M303.315 143.922C303.315 143.922 279.655 176.832 271.465 201.4C263.275 225.969 250.686 342.289 250.686 342.289L249.928 399.464C249.928 399.464 272.071 414.933 306.955 408.867C327.582 405.378 347.906 400.677 367.926 394.914C367.926 394.914 361.101 318.327 359.433 312.716C357.764 306.953 354.276 287.39 354.276 287.39C354.276 287.39 386.733 199.732 385.368 177.893C384.003 156.055 364.893 131.032 358.068 122.994C355.338 119.506 352.304 116.018 349.119 112.984L303.315 143.922Z" fill="#B0BEC5" stroke="#263238" stroke-miterlimit="10" stroke-linecap="round"/>
<path d="M349.119 104.947L299.826 136.34L302.86 150.444L352.91 113.743L349.119 104.947Z" fill="#707070" stroke="#263238" stroke-miterlimit="10" stroke-linecap="round"/>
<path d="M274.498 247.504C274.498 247.504 275.257 233.552 276.167 227.334C276.925 223.087 278.593 219.144 281.02 215.656L240.221 218.689C240.221 218.689 222.021 216.263 216.257 220.054C210.494 223.846 209.432 229.457 205.944 236.737C202.456 244.016 201.849 252.812 204.579 256.907C207.309 261.002 216.257 265.096 226.874 268.281C237.491 271.466 242.193 267.675 246.743 264.793C251.293 261.608 274.498 247.504 274.498 247.504Z" fill="#B0BEC5" stroke="#263238" stroke-miterlimit="10" stroke-linecap="round"/>
<path d="M281.019 215.655L288.147 214.594C288.147 214.594 281.019 225.513 280.867 230.973C280.716 234.764 281.171 238.556 281.929 242.347L274.649 247.503C274.649 247.503 272.98 229.759 274.346 223.541C274.952 219.902 277.531 216.869 281.019 215.655Z" fill="white" stroke="#263238" stroke-miterlimit="10" stroke-linecap="round"/>
<path d="M288.15 214.594C290.728 213.381 293.61 213.229 296.34 214.291C300.132 216.111 309.535 220.812 309.535 220.812L304.985 242.044C304.985 242.044 294.975 245.532 289.515 245.532C286.633 245.684 283.751 244.471 281.931 242.196C282.235 238.404 281.78 234.461 280.87 230.822C279.05 224.604 288.15 214.594 288.15 214.594Z" fill="white" stroke="#263238" stroke-miterlimit="10" stroke-linecap="round"/>
<path d="M326.825 158.634C326.825 158.634 311.051 183.505 311.355 189.117C311.355 191.998 311.81 194.728 313.023 197.306L301.041 224.604C301.041 224.604 296.491 225.211 296.491 229.002C296.643 230.822 296.339 232.642 295.733 234.462C295.733 234.462 284.054 241.742 276.167 244.32C264.489 248.111 253.569 253.723 243.71 261.002C233.7 268.888 226.572 279.201 231.122 281.627C235.672 284.054 247.502 282.689 249.17 282.386C250.839 282.082 297.704 287.542 308.321 284.054C318.938 280.566 315.146 285.874 325.763 280.262C336.38 274.651 337.442 268.888 337.442 268.888C337.442 268.888 341.234 267.523 356.249 239.467C371.264 211.41 376.421 192.605 377.027 177.136" fill="#B0BEC5"/>
<path d="M326.825 158.634C326.825 158.634 311.051 183.505 311.355 189.117C311.355 191.998 311.81 194.728 313.023 197.306L301.041 224.604C301.041 224.604 296.491 225.211 296.491 229.002C296.643 230.822 296.339 232.642 295.733 234.462C295.733 234.462 284.054 241.742 276.167 244.32C264.489 248.111 253.569 253.723 243.71 261.002C233.7 268.888 226.572 279.201 231.122 281.627C235.672 284.054 247.502 282.689 249.17 282.386C250.839 282.082 297.704 287.542 308.321 284.054C318.938 280.566 315.146 285.874 325.763 280.262C336.38 274.651 337.442 268.888 337.442 268.888C337.442 268.888 341.234 267.523 356.249 239.467C371.264 211.41 376.421 192.605 377.027 177.136" stroke="#263238" stroke-miterlimit="10" stroke-linecap="round"/>
<path d="M335.621 188.812C334.104 190.481 332.739 192.301 331.678 194.272" stroke="#263238" stroke-miterlimit="10" stroke-linecap="round"/>
<path d="M366.864 165.003C357.764 170.766 349.119 177.135 340.777 183.96" stroke="#263238" stroke-miterlimit="10" stroke-linecap="round"/>
<path d="M310.141 275.409C312.112 276.622 314.236 277.684 316.511 278.442" stroke="#263238" stroke-miterlimit="10" stroke-linecap="round"/>
<path d="M283.75 250.537C290.12 258.12 297.097 265.096 304.529 271.314" stroke="#263238" stroke-miterlimit="10" stroke-linecap="round"/>
<path d="M279.807 253.419C279.807 253.419 292.85 267.523 296.49 270.404" stroke="#263238" stroke-miterlimit="10" stroke-linecap="round"/>
<path d="M295.428 234.462C295.428 234.462 301.343 234.765 314.235 227.183" stroke="#263238" stroke-miterlimit="10" stroke-linecap="round"/>
<g filter="url(#filter0_d_1111_2760)">
<path d="M244 97.5633L194.964 123.059V151.729C194.964 156.852 190.806 161 185.671 161H10.2936C5.15765 161 1 156.852 1 151.729V88.2711C1 83.1476 5.15765 79 10.2936 79H185.548C190.684 79 194.842 83.1476 194.842 88.2711V108.786L244 97.5633Z" fill="white"/>
<path d="M244.231 98.0069C244.454 97.8908 244.556 97.627 244.469 97.3909C244.383 97.1547 244.134 97.0198 243.889 97.0758L195.342 108.159V88.2711C195.342 82.8703 190.959 78.5 185.548 78.5H10.2936C4.88266 78.5 0.5 82.8703 0.5 88.2711V151.729C0.5 157.13 4.88266 161.5 10.2936 161.5H185.671C191.081 161.5 195.464 157.13 195.464 151.729V123.362L244.231 98.0069Z" stroke="#333E63" stroke-linecap="round" stroke-linejoin="round"/>
</g>
<path d="M25.816 91.4V104H24.052V92.966H16.744V104H14.962V91.4H25.816ZM38.0792 99.284C38.0792 99.416 38.0672 99.59 38.0432 99.806H30.3032C30.4112 100.646 30.7772 101.324 31.4012 101.84C32.0372 102.344 32.8232 102.596 33.7592 102.596C34.8992 102.596 35.8172 102.212 36.5132 101.444L37.4672 102.56C37.0352 103.064 36.4952 103.448 35.8472 103.712C35.2112 103.976 34.4972 104.108 33.7052 104.108C32.6972 104.108 31.8032 103.904 31.0232 103.496C30.2432 103.076 29.6372 102.494 29.2052 101.75C28.7852 101.006 28.5752 100.166 28.5752 99.23C28.5752 98.306 28.7792 97.472 29.1872 96.728C29.6072 95.984 30.1772 95.408 30.8972 95C31.6292 94.58 32.4512 94.37 33.3632 94.37C34.2752 94.37 35.0852 94.58 35.7932 95C36.5132 95.408 37.0712 95.984 37.4672 96.728C37.8752 97.472 38.0792 98.324 38.0792 99.284ZM33.3632 95.828C32.5352 95.828 31.8392 96.08 31.2752 96.584C30.7232 97.088 30.3992 97.748 30.3032 98.564H36.4232C36.3272 97.76 35.9972 97.106 35.4332 96.602C34.8812 96.086 34.1912 95.828 33.3632 95.828ZM45.8179 94.37C46.7419 94.37 47.5699 94.574 48.3019 94.982C49.0339 95.39 49.6039 95.96 50.0119 96.692C50.4319 97.424 50.6419 98.27 50.6419 99.23C50.6419 100.19 50.4319 101.042 50.0119 101.786C49.6039 102.518 49.0339 103.088 48.3019 103.496C47.5699 103.904 46.7419 104.108 45.8179 104.108C45.1339 104.108 44.5039 103.976 43.9279 103.712C43.3639 103.448 42.8839 103.064 42.4879 102.56V107.492H40.7599V94.46H42.4159V95.972C42.7999 95.444 43.2859 95.048 43.8739 94.784C44.4619 94.508 45.1099 94.37 45.8179 94.37ZM45.6739 102.596C46.2859 102.596 46.8319 102.458 47.3119 102.182C47.8039 101.894 48.1879 101.498 48.4639 100.994C48.7519 100.478 48.8959 99.89 48.8959 99.23C48.8959 98.57 48.7519 97.988 48.4639 97.484C48.1879 96.968 47.8039 96.572 47.3119 96.296C46.8319 96.02 46.2859 95.882 45.6739 95.882C45.0739 95.882 44.5279 96.026 44.0359 96.314C43.5559 96.59 43.1719 96.98 42.8839 97.484C42.6079 97.988 42.4699 98.57 42.4699 99.23C42.4699 99.89 42.6079 100.478 42.8839 100.994C43.1599 101.498 43.5439 101.894 44.0359 102.182C44.5279 102.458 45.0739 102.596 45.6739 102.596ZM59.6505 99.05C60.8865 99.362 61.5045 100.136 61.5045 101.372C61.5045 102.212 61.1865 102.86 60.5505 103.316C59.9265 103.772 58.9905 104 57.7425 104H53.1525V94.46H57.5805C58.7085 94.46 59.5905 94.676 60.2265 95.108C60.8625 95.528 61.1805 96.128 61.1805 96.908C61.1805 97.412 61.0425 97.85 60.7665 98.222C60.5025 98.582 60.1305 98.858 59.6505 99.05ZM54.8445 98.564H57.4365C58.0965 98.564 58.5945 98.444 58.9305 98.204C59.2785 97.964 59.4525 97.616 59.4525 97.16C59.4525 96.248 58.7805 95.792 57.4365 95.792H54.8445V98.564ZM57.6165 102.668C58.3365 102.668 58.8765 102.554 59.2365 102.326C59.5965 102.098 59.7765 101.744 59.7765 101.264C59.7765 100.772 59.6085 100.406 59.2725 100.166C58.9485 99.926 58.4325 99.806 57.7245 99.806H54.8445V102.668H57.6165ZM68.5112 97.7C69.7112 97.712 70.6292 97.988 71.2652 98.528C71.9012 99.068 72.2192 99.83 72.2192 100.814C72.2192 101.846 71.8712 102.644 71.1752 103.208C70.4912 103.76 69.5072 104.03 68.2232 104.018L64.2092 104V94.46H65.9372V97.682L68.5112 97.7ZM73.6412 94.46H75.3692V104H73.6412V94.46ZM68.0972 102.704C68.8772 102.716 69.4652 102.56 69.8612 102.236C70.2692 101.912 70.4732 101.432 70.4732 100.796C70.4732 100.172 70.2752 99.716 69.8792 99.428C69.4832 99.14 68.8892 98.99 68.0972 98.978L65.9372 98.942V102.686L68.0972 102.704ZM89.7267 94.46V104H88.1607V97.034L84.5967 102.92H83.8407L80.3127 97.016V104H78.7287V94.46H80.5107L84.2547 100.904L88.1067 94.46H89.7267ZM107.626 102.488V106.214H106.006V104H98.032V106.214H96.394V102.488H96.898C97.51 102.452 97.93 102.02 98.158 101.192C98.386 100.364 98.542 99.194 98.626 97.682L98.77 94.46H106.168V102.488H107.626ZM100.21 97.808C100.162 99.008 100.06 100.004 99.904 100.796C99.76 101.576 99.49 102.14 99.094 102.488H104.44V95.972H100.3L100.21 97.808ZM118.499 99.284C118.499 99.416 118.487 99.59 118.463 99.806H110.723C110.831 100.646 111.197 101.324 111.821 101.84C112.457 102.344 113.243 102.596 114.179 102.596C115.319 102.596 116.237 102.212 116.933 101.444L117.887 102.56C117.455 103.064 116.915 103.448 116.267 103.712C115.631 103.976 114.917 104.108 114.125 104.108C113.117 104.108 112.223 103.904 111.443 103.496C110.663 103.076 110.057 102.494 109.625 101.75C109.205 101.006 108.995 100.166 108.995 99.23C108.995 98.306 109.199 97.472 109.607 96.728C110.027 95.984 110.597 95.408 111.317 95C112.049 94.58 112.871 94.37 113.783 94.37C114.695 94.37 115.505 94.58 116.213 95C116.933 95.408 117.491 95.984 117.887 96.728C118.295 97.472 118.499 98.324 118.499 99.284ZM113.783 95.828C112.955 95.828 112.259 96.08 111.695 96.584C111.143 97.088 110.819 97.748 110.723 98.564H116.843C116.747 97.76 116.417 97.106 115.853 96.602C115.301 96.086 114.611 95.828 113.783 95.828ZM129.212 94.46V104H127.484V95.972H123.38L123.272 98.096C123.212 99.38 123.098 100.454 122.93 101.318C122.762 102.17 122.486 102.854 122.102 103.37C121.718 103.886 121.184 104.144 120.5 104.144C120.188 104.144 119.834 104.09 119.438 103.982L119.546 102.524C119.702 102.56 119.846 102.578 119.978 102.578C120.458 102.578 120.818 102.368 121.058 101.948C121.298 101.528 121.454 101.03 121.526 100.454C121.598 99.878 121.664 99.056 121.724 97.988L121.886 94.46H129.212ZM136.639 104.108C135.691 104.108 134.839 103.898 134.083 103.478C133.327 103.058 132.733 102.482 132.301 101.75C131.881 101.006 131.671 100.166 131.671 99.23C131.671 98.294 131.881 97.46 132.301 96.728C132.733 95.984 133.327 95.408 134.083 95C134.839 94.58 135.691 94.37 136.639 94.37C137.587 94.37 138.433 94.58 139.177 95C139.933 95.408 140.521 95.984 140.941 96.728C141.373 97.46 141.589 98.294 141.589 99.23C141.589 100.166 141.373 101.006 140.941 101.75C140.521 102.482 139.933 103.058 139.177 103.478C138.433 103.898 137.587 104.108 136.639 104.108ZM136.639 102.596C137.251 102.596 137.797 102.458 138.277 102.182C138.769 101.894 139.153 101.498 139.429 100.994C139.705 100.478 139.843 99.89 139.843 99.23C139.843 98.57 139.705 97.988 139.429 97.484C139.153 96.968 138.769 96.572 138.277 96.296C137.797 96.02 137.251 95.882 136.639 95.882C136.027 95.882 135.475 96.02 134.983 96.296C134.503 96.572 134.119 96.968 133.831 97.484C133.555 97.988 133.417 98.57 133.417 99.23C133.417 99.89 133.555 100.478 133.831 100.994C134.119 101.498 134.503 101.894 134.983 102.182C135.475 102.458 136.027 102.596 136.639 102.596ZM155.082 94.46V104H153.516V97.034L149.952 102.92H149.196L145.668 97.016V104H144.084V94.46H145.866L149.61 100.904L153.462 94.46H155.082ZM14.674 116.46H16.402V120.51H21.838V116.46H23.566V126H21.838V122.004H16.402V126H14.674V116.46ZM35.44 116.46L30.814 126.954C30.406 127.926 29.926 128.61 29.374 129.006C28.834 129.402 28.18 129.6 27.412 129.6C26.944 129.6 26.488 129.522 26.044 129.366C25.612 129.222 25.252 129.006 24.964 128.718L25.702 127.422C26.194 127.89 26.764 128.124 27.412 128.124C27.832 128.124 28.18 128.01 28.456 127.782C28.744 127.566 29.002 127.188 29.23 126.648L29.536 125.982L25.324 116.46H27.124L30.454 124.092L33.748 116.46H35.44ZM45.3402 121.968H43.4862V126H41.7582V121.968H39.9042L37.2762 126H35.2242L38.5002 121.068L35.4762 116.46H37.3122L39.8862 120.492H41.7582V116.46H43.4862V120.492H45.3582L47.9322 116.46H49.7862L46.7622 121.086L50.0382 126H47.9862L45.3402 121.968ZM51.9396 116.46H53.6676V120.51H59.1036V116.46H60.8316V126H59.1036V122.004H53.6676V126H51.9396V116.46ZM68.2776 126.108C67.3296 126.108 66.4776 125.898 65.7216 125.478C64.9656 125.058 64.3716 124.482 63.9396 123.75C63.5196 123.006 63.3096 122.166 63.3096 121.23C63.3096 120.294 63.5196 119.46 63.9396 118.728C64.3716 117.984 64.9656 117.408 65.7216 117C66.4776 116.58 67.3296 116.37 68.2776 116.37C69.2256 116.37 70.0716 116.58 70.8156 117C71.5716 117.408 72.1596 117.984 72.5796 118.728C73.0116 119.46 73.2276 120.294 73.2276 121.23C73.2276 122.166 73.0116 123.006 72.5796 123.75C72.1596 124.482 71.5716 125.058 70.8156 125.478C70.0716 125.898 69.2256 126.108 68.2776 126.108ZM68.2776 124.596C68.8896 124.596 69.4356 124.458 69.9156 124.182C70.4076 123.894 70.7916 123.498 71.0676 122.994C71.3436 122.478 71.4816 121.89 71.4816 121.23C71.4816 120.57 71.3436 119.988 71.0676 119.484C70.7916 118.968 70.4076 118.572 69.9156 118.296C69.4356 118.02 68.8896 117.882 68.2776 117.882C67.6656 117.882 67.1136 118.02 66.6216 118.296C66.1416 118.572 65.7576 118.968 65.4696 119.484C65.1936 119.988 65.0556 120.57 65.0556 121.23C65.0556 121.89 65.1936 122.478 65.4696 122.994C65.7576 123.498 66.1416 123.894 66.6216 124.182C67.1136 124.458 67.6656 124.596 68.2776 124.596ZM87.0548 121.05C88.2908 121.362 88.9088 122.136 88.9088 123.372C88.9088 124.212 88.5908 124.86 87.9548 125.316C87.3308 125.772 86.3948 126 85.1468 126H80.5568V116.46H84.9848C86.1128 116.46 86.9948 116.676 87.6308 117.108C88.2668 117.528 88.5848 118.128 88.5848 118.908C88.5848 119.412 88.4468 119.85 88.1708 120.222C87.9068 120.582 87.5348 120.858 87.0548 121.05ZM82.2488 120.564H84.8408C85.5008 120.564 85.9988 120.444 86.3348 120.204C86.6828 119.964 86.8568 119.616 86.8568 119.16C86.8568 118.248 86.1848 117.792 84.8408 117.792H82.2488V120.564ZM85.0208 124.668C85.7408 124.668 86.2808 124.554 86.6408 124.326C87.0008 124.098 87.1808 123.744 87.1808 123.264C87.1808 122.772 87.0128 122.406 86.6768 122.166C86.3528 121.926 85.8368 121.806 85.1288 121.806H82.2488V124.668H85.0208ZM95.9155 119.7C97.1155 119.712 98.0335 119.988 98.6695 120.528C99.3055 121.068 99.6235 121.83 99.6235 122.814C99.6235 123.846 99.2755 124.644 98.5795 125.208C97.8955 125.76 96.9115 126.03 95.6275 126.018L91.6135 126V116.46H93.3415V119.682L95.9155 119.7ZM101.045 116.46H102.773V126H101.045V116.46ZM95.5015 124.704C96.2815 124.716 96.8695 124.56 97.2655 124.236C97.6735 123.912 97.8775 123.432 97.8775 122.796C97.8775 122.172 97.6795 121.716 97.2835 121.428C96.8875 121.14 96.2935 120.99 95.5015 120.978L93.3415 120.942V124.686L95.5015 124.704ZM110.993 116.784C111.881 116.784 112.673 116.982 113.369 117.378C114.065 117.774 114.605 118.326 114.989 119.034C115.385 119.73 115.583 120.528 115.583 121.428C115.583 122.352 115.373 123.174 114.953 123.894C114.545 124.602 113.963 125.154 113.207 125.55C112.463 125.946 111.611 126.144 110.651 126.144C109.031 126.144 107.777 125.592 106.889 124.488C106.013 123.372 105.575 121.806 105.575 119.79C105.575 117.834 105.977 116.304 106.781 115.2C107.585 114.084 108.815 113.346 110.471 112.986L114.827 112.014L115.079 113.598L111.065 114.462C109.817 114.738 108.887 115.206 108.275 115.866C107.663 116.526 107.315 117.474 107.231 118.71C107.639 118.098 108.167 117.624 108.815 117.288C109.463 116.952 110.189 116.784 110.993 116.784ZM110.687 124.704C111.299 124.704 111.839 124.566 112.307 124.29C112.787 124.014 113.159 123.636 113.423 123.156C113.687 122.664 113.819 122.106 113.819 121.482C113.819 120.534 113.531 119.772 112.955 119.196C112.379 118.62 111.623 118.332 110.687 118.332C109.751 118.332 108.989 118.62 108.401 119.196C107.825 119.772 107.537 120.534 107.537 121.482C107.537 122.106 107.669 122.664 107.933 123.156C108.209 123.636 108.587 124.014 109.067 124.29C109.547 124.566 110.087 124.704 110.687 124.704ZM123.109 116.37C124.033 116.37 124.861 116.574 125.593 116.982C126.325 117.39 126.895 117.96 127.303 118.692C127.723 119.424 127.933 120.27 127.933 121.23C127.933 122.19 127.723 123.042 127.303 123.786C126.895 124.518 126.325 125.088 125.593 125.496C124.861 125.904 124.033 126.108 123.109 126.108C122.425 126.108 121.795 125.976 121.219 125.712C120.655 125.448 120.175 125.064 119.779 124.56V129.492H118.051V116.46H119.707V117.972C120.091 117.444 120.577 117.048 121.165 116.784C121.753 116.508 122.401 116.37 123.109 116.37ZM122.965 124.596C123.577 124.596 124.123 124.458 124.603 124.182C125.095 123.894 125.479 123.498 125.755 122.994C126.043 122.478 126.187 121.89 126.187 121.23C126.187 120.57 126.043 119.988 125.755 119.484C125.479 118.968 125.095 118.572 124.603 118.296C124.123 118.02 123.577 117.882 122.965 117.882C122.365 117.882 121.819 118.026 121.327 118.314C120.847 118.59 120.463 118.98 120.175 119.484C119.899 119.988 119.761 120.57 119.761 121.23C119.761 121.89 119.899 122.478 120.175 122.994C120.451 123.498 120.835 123.894 121.327 124.182C121.819 124.458 122.365 124.596 122.965 124.596ZM133.758 116.37C135.078 116.37 136.086 116.694 136.782 117.342C137.49 117.99 137.844 118.956 137.844 120.24V126H136.206V124.74C135.918 125.184 135.504 125.526 134.964 125.766C134.436 125.994 133.806 126.108 133.074 126.108C132.006 126.108 131.148 125.85 130.5 125.334C129.864 124.818 129.546 124.14 129.546 123.3C129.546 122.46 129.852 121.788 130.464 121.284C131.076 120.768 132.048 120.51 133.38 120.51H136.116V120.168C136.116 119.424 135.9 118.854 135.468 118.458C135.036 118.062 134.4 117.864 133.56 117.864C132.996 117.864 132.444 117.96 131.904 118.152C131.364 118.332 130.908 118.578 130.536 118.89L129.816 117.594C130.308 117.198 130.896 116.898 131.58 116.694C132.264 116.478 132.99 116.37 133.758 116.37ZM133.362 124.776C134.022 124.776 134.592 124.632 135.072 124.344C135.552 124.044 135.9 123.624 136.116 123.084V121.752H133.452C131.988 121.752 131.256 122.244 131.256 123.228C131.256 123.708 131.442 124.086 131.814 124.362C132.186 124.638 132.702 124.776 133.362 124.776ZM148.065 117.972H144.573V126H142.845V117.972H139.353V116.46H148.065V117.972ZM154.242 119.7C155.454 119.712 156.378 119.988 157.014 120.528C157.65 121.068 157.968 121.83 157.968 122.814C157.968 123.846 157.62 124.644 156.924 125.208C156.24 125.76 155.256 126.03 153.972 126.018L149.832 126V116.46H151.56V119.682L154.242 119.7ZM153.828 124.704C154.608 124.716 155.196 124.56 155.592 124.236C156 123.912 156.204 123.432 156.204 122.796C156.204 122.172 156.006 121.716 155.61 121.428C155.226 121.14 154.632 120.99 153.828 120.978L151.56 120.942V124.686L153.828 124.704ZM21.784 139.972H18.292V148H16.564V139.972H13.072V138.46H21.784V139.972ZM26.953 138.37C28.273 138.37 29.281 138.694 29.977 139.342C30.685 139.99 31.039 140.956 31.039 142.24V148H29.401V146.74C29.113 147.184 28.699 147.526 28.159 147.766C27.631 147.994 27.001 148.108 26.269 148.108C25.201 148.108 24.343 147.85 23.695 147.334C23.059 146.818 22.741 146.14 22.741 145.3C22.741 144.46 23.047 143.788 23.659 143.284C24.271 142.768 25.243 142.51 26.575 142.51H29.311V142.168C29.311 141.424 29.095 140.854 28.663 140.458C28.231 140.062 27.595 139.864 26.755 139.864C26.191 139.864 25.639 139.96 25.099 140.152C24.559 140.332 24.103 140.578 23.731 140.89L23.011 139.594C23.503 139.198 24.091 138.898 24.775 138.694C25.459 138.478 26.185 138.37 26.953 138.37ZM26.557 146.776C27.217 146.776 27.787 146.632 28.267 146.344C28.747 146.044 29.095 145.624 29.311 145.084V143.752H26.647C25.183 143.752 24.451 144.244 24.451 145.228C24.451 145.708 24.637 146.086 25.009 146.362C25.381 146.638 25.897 146.776 26.557 146.776ZM39.2086 138.37C40.1326 138.37 40.9606 138.574 41.6926 138.982C42.4246 139.39 42.9946 139.96 43.4026 140.692C43.8226 141.424 44.0326 142.27 44.0326 143.23C44.0326 144.19 43.8226 145.042 43.4026 145.786C42.9946 146.518 42.4246 147.088 41.6926 147.496C40.9606 147.904 40.1326 148.108 39.2086 148.108C38.5246 148.108 37.8946 147.976 37.3186 147.712C36.7546 147.448 36.2746 147.064 35.8786 146.56V151.492H34.1506V138.46H35.8066V139.972C36.1906 139.444 36.6766 139.048 37.2646 138.784C37.8526 138.508 38.5006 138.37 39.2086 138.37ZM39.0646 146.596C39.6766 146.596 40.2226 146.458 40.7026 146.182C41.1946 145.894 41.5786 145.498 41.8546 144.994C42.1426 144.478 42.2866 143.89 42.2866 143.23C42.2866 142.57 42.1426 141.988 41.8546 141.484C41.5786 140.968 41.1946 140.572 40.7026 140.296C40.2226 140.02 39.6766 139.882 39.0646 139.882C38.4646 139.882 37.9186 140.026 37.4266 140.314C36.9466 140.59 36.5626 140.98 36.2746 141.484C35.9986 141.988 35.8606 142.57 35.8606 143.23C35.8606 143.89 35.9986 144.478 36.2746 144.994C36.5506 145.498 36.9346 145.894 37.4266 146.182C37.9186 146.458 38.4646 146.596 39.0646 146.596ZM46.5431 138.46H48.2711V145.408L54.1211 138.46H55.6871V148H53.9591V141.052L48.1271 148H46.5431V138.46ZM71.0832 143.212C71.0832 144.688 70.5912 145.852 69.6072 146.704C68.6232 147.556 67.2372 148.03 65.4492 148.126V151.492H63.7572V148.126C61.9692 148.03 60.5832 147.562 59.5992 146.722C58.6272 145.87 58.1412 144.7 58.1412 143.212C58.1412 141.736 58.6272 140.584 59.5992 139.756C60.5712 138.928 61.9572 138.466 63.7572 138.37V134.644H65.4492V138.37C67.2372 138.466 68.6232 138.934 69.6072 139.774C70.5912 140.602 71.0832 141.748 71.0832 143.212ZM59.8512 143.212C59.8512 144.232 60.1752 145.03 60.8232 145.606C61.4832 146.182 62.4612 146.512 63.7572 146.596V139.9C62.4492 139.984 61.4712 140.308 60.8232 140.872C60.1752 141.436 59.8512 142.216 59.8512 143.212ZM65.4492 146.614C68.0652 146.41 69.3732 145.276 69.3732 143.212C69.3732 142.204 69.0432 141.424 68.3832 140.872C67.7232 140.308 66.7452 139.984 65.4492 139.9V146.614ZM73.2556 135.4H75.2896L74.9476 144.022H73.5796L73.2556 135.4ZM74.2816 148.108C73.9456 148.108 73.6636 148 73.4356 147.784C73.2076 147.556 73.0936 147.28 73.0936 146.956C73.0936 146.632 73.2076 146.362 73.4356 146.146C73.6636 145.918 73.9456 145.804 74.2816 145.804C74.6176 145.804 74.8936 145.918 75.1096 146.146C75.3256 146.362 75.4336 146.632 75.4336 146.956C75.4336 147.28 75.3196 147.556 75.0916 147.784C74.8756 148 74.6056 148.108 74.2816 148.108Z" fill="#333E63"/>
<defs>
<filter id="filter0_d_1111_2760" x="0" y="78" width="250" height="89" filterUnits="userSpaceOnUse" color-interpolation-filters="sRGB">
<feFlood flood-opacity="0" result="BackgroundImageFix"/>
<feColorMatrix in="SourceAlpha" type="matrix" values="0 0 0 0 0 0 0 0 0 0 0 0 0 0 0 0 0 0 127 0" result="hardAlpha"/>
<feOffset dx="5" dy="5"/>
<feComposite in2="hardAlpha" operator="out"/>
<feColorMatrix type="matrix" values="0 0 0 0 0.2 0 0 0 0 0.243137 0 0 0 0 0.388235 0 0 0 1 0"/>
<feBlend mode="normal" in2="BackgroundImageFix" result="effect1_dropShadow_1111_2760"/>
<feBlend mode="normal" in="SourceGraphic" in2="effect1_dropShadow_1111_2760" result="shape"/>
</filter>
</defs>
</svg>
