<svg width="143" height="467" viewBox="0 0 143 467" fill="none" xmlns="http://www.w3.org/2000/svg">
<path d="M59.9552 448.585L59.4176 451.348C59.4176 451.348 52.8893 459.174 51.5836 460.402C50.2779 461.629 49.9707 465.772 49.9707 465.772H75.7001C75.7001 465.772 77.1593 460.402 77.0057 458.79C76.8521 457.179 76.8521 452.652 76.8521 452.652L59.9552 448.585Z" fill="white" stroke="#263238" stroke-miterlimit="10"/>
<path d="M50.5851 462.55C50.2779 463.624 50.1243 464.775 49.9707 465.849H75.7001C75.7001 465.849 76.1609 464.238 76.4681 462.55H50.5851Z" fill="white" stroke="#263238" stroke-linecap="round" stroke-linejoin="round"/>
<path d="M112.72 448.585L113.257 451.348C113.257 451.348 119.785 459.174 121.091 460.402C122.397 461.629 122.704 465.772 122.704 465.772H96.9747C96.9747 465.772 95.5154 460.402 95.669 458.79C95.8227 457.179 95.8226 452.652 95.8226 452.652L112.72 448.585Z" fill="white" stroke="#263238" stroke-miterlimit="10"/>
<path d="M122.09 462.55C122.397 463.624 122.55 464.775 122.704 465.849H96.9746C96.9746 465.849 96.5138 464.238 96.2065 462.55H122.09Z" fill="white" stroke="#263238" stroke-linecap="round" stroke-linejoin="round"/>
<path d="M111.26 398.482L113.104 326.052L86.9903 320.757H85.6847L59.5713 326.052L61.4146 398.482L62.3362 444.059L59.8017 446.13L59.9553 448.586L76.8522 452.729C76.8522 452.729 77.2362 446.284 77.3898 445.363C77.5434 444.519 76.8522 440.836 76.8522 440.146C76.8522 439.455 82.4589 379.914 82.4589 379.914L84.6094 346.921L86.2991 346.538L87.9888 346.921L90.1393 379.914C90.1393 379.914 95.746 439.455 95.746 440.146C95.746 440.836 95.0548 444.519 95.2084 445.363C95.362 446.207 95.746 452.729 95.746 452.729L112.643 448.509L112.797 446.054L110.262 443.982L111.26 398.482Z" fill="#263238" stroke="#263238" stroke-linecap="round" stroke-linejoin="round"/>
<path d="M46.745 274.03L44.9017 281.166L33.4579 268.582C33.4579 268.582 32.5363 262.674 31.845 261.984C31.1538 261.293 28.3888 260.066 26.5455 259.222C24.7022 258.378 22.1677 257.687 21.2461 256.229C20.3244 254.771 18.5579 255.385 19.7868 257.457C20.7084 258.838 21.9373 259.989 23.3966 260.756C23.3966 260.756 17.2523 260.603 16.3306 260.219C15.409 259.835 10.7239 256.383 9.64865 257.764C8.5734 259.145 10.9543 260.91 11.492 262.137C12.0296 263.365 16.945 266.511 21.2461 268.966C24.0878 270.577 27.0832 271.958 30.1553 273.186C30.1553 273.186 44.5177 295.897 46.8218 297.816C49.1259 299.734 52.8125 302.036 54.0414 300.117C55.2703 298.199 58.0352 291.908 58.0352 291.908L58.5728 278.327L46.745 274.03Z" fill="white" stroke="#263238" stroke-linecap="round" stroke-linejoin="round"/>
<path d="M30.0785 269.81C30.0785 269.81 27.16 265.974 26.0847 265.436C25.0095 264.899 14.4873 261.6 14.4873 261.6" stroke="#263238" stroke-linecap="round" stroke-linejoin="round"/>
<path d="M44.9019 281.166L53.8111 286.767" stroke="#263238" stroke-linecap="round" stroke-linejoin="round"/>
<path d="M120.093 270.884L122.397 293.289L125.085 332.727C125.085 332.727 127.236 342.011 127.466 342.701C127.696 343.392 127.082 353.52 126.775 354.594C126.237 355.822 125.315 356.896 124.24 357.74C123.549 358.124 121.322 357.74 121.859 356.896C122.397 356.052 123.472 354.978 123.472 354.287V349.76C123.472 348.533 121.322 345.233 121.322 345.233C121.322 345.233 121.475 350.604 121.475 351.832C121.475 353.06 121.475 353.597 120.554 353.367C119.632 353.136 118.71 352.829 118.71 351.448C118.71 350.067 118.019 346.538 117.789 345.31C117.558 344.082 116.867 343.238 117.097 342.164C117.328 341.09 119.632 333.264 119.632 333.264L111.491 306.563L109.647 281.396L120.093 270.884Z" fill="white" stroke="#263238" stroke-linecap="round" stroke-linejoin="round"/>
<path d="M71.5529 236.28L48.5885 246.868L43.5962 276.178L56.4993 282.854L58.4194 330.271C58.4962 331.576 59.4946 332.573 60.8003 332.65L82.459 332.727L86.5297 332.65L89.525 332.42L111.414 327.816C112.797 327.432 113.718 326.205 113.641 324.824L111.875 284.772L123.012 278.173L117.328 245.564L95.2085 235.052L71.5529 236.28Z" fill="#B0BEC5" stroke="#263238" stroke-miterlimit="10"/>
<path d="M112.028 284.618L110.416 265.053" stroke="#263238" stroke-linecap="round" stroke-linejoin="round"/>
<path d="M56.5759 283.161L55.6543 259.912" stroke="#263238" stroke-linecap="round" stroke-linejoin="round"/>
<path d="M78.3117 230.679C78.3117 230.679 74.5483 233.134 74.2411 234.208C74.0107 235.129 73.8571 235.973 73.7803 236.894C73.7803 236.894 76.0076 257.61 76.6988 257.226C77.3901 256.843 83.3808 249.323 84.5328 248.019C85.7617 246.715 87.8354 246.561 88.2962 246.945C88.7571 247.329 97.1287 258.147 97.8199 256.536C98.5112 254.925 96.9751 239.042 94.9782 234.899C92.9813 230.679 80.2318 228.914 78.3117 230.679Z" fill="white" stroke="#263238" stroke-miterlimit="10"/>
<path d="M76.6216 225.385L77.62 237.047C77.62 237.047 83.3035 254.388 86.6829 253.544C90.0623 252.7 94.0561 236.05 94.2097 235.666C94.2865 235.283 94.5937 228.684 94.5937 228.684C94.5937 228.684 94.9009 230.602 87.7582 228.991C83.918 228.224 80.2314 227.073 76.6216 225.385Z" fill="white" stroke="#263238" stroke-miterlimit="10"/>
<path d="M91.906 233.441L85.3777 229.298L79.1566 224.311L78.3117 226.459L76.3916 234.515L77.6973 237.124L91.906 233.441Z" fill="#263238" stroke="#263238" stroke-linecap="round" stroke-linejoin="round"/>
<path d="M68.9415 200.141L69.94 212.187C69.94 212.187 67.3286 210.269 67.3286 214.106C67.3286 217.942 67.943 221.165 69.3255 221.548C70.2472 221.778 71.1688 222.009 72.0905 222.085C72.0905 222.085 72.7049 226.842 74.0874 227.993C75.4698 229.144 82.9966 233.364 84.4559 234.132C85.9152 234.899 90.2162 234.362 91.2147 233.901C92.2131 233.441 95.7461 227.38 96.591 225.692C97.4358 224.004 97.9734 217.482 97.9734 217.482C97.9734 217.482 97.2054 205.973 97.2054 202.75C97.2054 199.527 97.4358 196.458 95.8229 194.157C94.21 191.855 87.6817 188.402 80.9229 189.783C74.1642 191.164 68.3271 192.545 68.9415 200.141Z" fill="white" stroke="#263238" stroke-linecap="round" stroke-linejoin="round"/>
<path d="M88.0313 211.774C88.0313 211.774 87.8669 215.827 88.1986 216.489C88.5182 217.081 91.8877 218.586 91.4714 219.52C91.0551 220.454 87.5574 221.127 87.5574 221.127" stroke="#263238" stroke-miterlimit="10"/>
<path d="M85.2241 209.502C85.2241 209.502 81.0766 207.967 77.6973 210.653" stroke="#263238" stroke-linecap="round" stroke-linejoin="round"/>
<path d="M90.7539 209.118C90.7539 209.118 94.1333 206.97 96.1302 209.118" stroke="#263238" stroke-linecap="round" stroke-linejoin="round"/>
<path d="M83.4576 213.185C83.4576 214.029 82.92 214.719 82.2287 214.719C81.5375 214.719 81.0767 214.029 81.0767 213.185C81.0767 212.341 81.6143 211.65 82.2287 211.65C82.92 211.65 83.4576 212.341 83.4576 213.185Z" fill="#263238"/>
<path d="M94.1332 214.719C94.8119 214.719 95.362 214.032 95.362 213.185C95.362 212.337 94.8119 211.65 94.1332 211.65C93.4545 211.65 92.9043 212.337 92.9043 213.185C92.9043 214.032 93.4545 214.719 94.1332 214.719Z" fill="#263238"/>
<path d="M88.3729 226.766C89.0516 226.766 89.6018 226.422 89.6018 225.999C89.6018 225.575 89.0516 225.231 88.3729 225.231C87.6942 225.231 87.144 225.575 87.144 225.999C87.144 226.422 87.6942 226.766 88.3729 226.766Z" fill="#263238"/>
<path d="M79.6937 193.159C79.6937 193.159 75.4695 199.911 72.7813 201.829L70.0932 203.824C70.0932 203.824 71.9365 213.032 71.4757 213.569C71.0916 214.106 70.554 214.259 70.4004 213.492C70.2468 212.725 70.0932 211.957 69.4787 211.65C68.8643 211.344 66.9442 210.423 66.9442 210.423L64.1793 201.599C64.1793 201.599 61.4911 198.377 62.5664 195.921C63.5648 193.466 66.5602 189.399 66.5602 189.399C66.5602 189.399 65.1009 188.786 65.869 187.711C66.637 186.637 73.3958 187.251 73.3958 187.251C73.3958 187.251 74.3174 183.875 76.4679 183.568C78.6184 183.261 78.5416 183.952 78.5416 183.952C78.5416 183.952 86.6061 180.959 91.0607 181.42C95.5153 181.88 108.034 194.233 106.498 195.538C105.039 196.919 100.277 197.533 100.277 197.533C100.277 197.533 98.9715 210.116 98.4339 210.269L97.8195 210.423L96.7442 199.221C96.6674 199.374 83.1499 196.151 79.6937 193.159Z" fill="#263238" stroke="#263238" stroke-miterlimit="10"/>
<g filter="url(#filter0_d_507_4759)">
<path d="M85.4367 172L85.9413 152.964L10.2711 152.964C5.14759 152.964 1 148.806 1 143.671L0.999993 10.2936C0.999993 5.15765 5.14758 1 10.2711 1L127.729 0.999994C132.852 0.999994 137 5.15765 137 10.2936L137 143.548C137 148.684 132.852 152.842 127.729 152.842L100.214 152.842L85.4367 172Z" fill="white"/>
<path d="M84.9369 171.987C84.9312 172.203 85.0653 172.399 85.2692 172.471C85.4731 172.544 85.7005 172.477 85.8327 172.305L100.46 153.342L127.729 153.342C133.13 153.342 137.5 148.959 137.5 143.548L137.5 10.2936C137.5 4.88265 133.13 0.499994 127.729 0.499994L10.2711 0.5C4.8703 0.5 0.499993 4.88266 0.499993 10.2936L0.500002 143.671C0.500002 149.081 4.87031 153.464 10.2711 153.464L85.4278 153.464L84.9369 171.987Z" stroke="#333E63" stroke-linecap="round" stroke-linejoin="round"/>
</g>
<path d="M16.596 15.2V25H15.574V22.032H12.648C12.5173 22.032 12.3307 22.0227 12.088 22.004L10.03 25H8.924L11.15 21.822C10.4313 21.6073 9.88067 21.2293 9.498 20.688C9.11533 20.1373 8.924 19.4653 8.924 18.672C8.924 17.5707 9.26933 16.7167 9.96 16.11C10.66 15.5033 11.6027 15.2 12.788 15.2H16.596ZM9.96 18.644C9.96 19.4467 10.1933 20.0673 10.66 20.506C11.136 20.9353 11.8267 21.15 12.732 21.15H15.574V16.096H12.83C11.9153 16.096 11.206 16.3153 10.702 16.754C10.2073 17.1833 9.96 17.8133 9.96 18.644ZM29.94 17.636V25H28.946V18.518H24.326V25H23.332V17.636H29.94ZM35.8036 25.07C35.0942 25.07 34.4549 24.9113 33.8856 24.594C33.3162 24.2673 32.8682 23.8193 32.5416 23.25C32.2149 22.6807 32.0516 22.0367 32.0516 21.318C32.0516 20.5993 32.2149 19.9553 32.5416 19.386C32.8682 18.8167 33.3162 18.3733 33.8856 18.056C34.4549 17.7387 35.0942 17.58 35.8036 17.58C36.5129 17.58 37.1522 17.7387 37.7216 18.056C38.2909 18.3733 38.7342 18.8167 39.0516 19.386C39.3782 19.9553 39.5416 20.5993 39.5416 21.318C39.5416 22.0367 39.3782 22.6807 39.0516 23.25C38.7342 23.8193 38.2909 24.2673 37.7216 24.594C37.1522 24.9113 36.5129 25.07 35.8036 25.07ZM35.8036 24.188C36.3262 24.188 36.7929 24.0713 37.2036 23.838C37.6236 23.5953 37.9502 23.2547 38.1836 22.816C38.4169 22.3773 38.5336 21.878 38.5336 21.318C38.5336 20.758 38.4169 20.2587 38.1836 19.82C37.9502 19.3813 37.6236 19.0453 37.2036 18.812C36.7929 18.5693 36.3262 18.448 35.8036 18.448C35.2809 18.448 34.8096 18.5693 34.3896 18.812C33.9789 19.0453 33.6522 19.3813 33.4096 19.82C33.1762 20.2587 33.0596 20.758 33.0596 21.318C33.0596 21.878 33.1762 22.3773 33.4096 22.816C33.6522 23.2547 33.9789 23.5953 34.3896 23.838C34.8096 24.0713 35.2809 24.188 35.8036 24.188ZM48.8069 24.132V26.778H47.8689V25H41.2749V26.778H40.3369V24.132H40.7569C41.2516 24.104 41.5876 23.74 41.7649 23.04C41.9423 22.34 42.0636 21.36 42.1289 20.1L42.2269 17.636H47.6589V24.132H48.8069ZM43.0389 20.156C42.9923 21.2013 42.9036 22.0647 42.7729 22.746C42.6423 23.418 42.4089 23.88 42.0729 24.132H46.6649V18.518H43.1229L43.0389 20.156ZM57.0021 17.636L53.3201 25.882C53.0214 26.5727 52.6761 27.0627 52.2841 27.352C51.8921 27.6413 51.4207 27.786 50.8701 27.786C50.5154 27.786 50.1841 27.73 49.8761 27.618C49.5681 27.506 49.3021 27.338 49.0781 27.114L49.5401 26.372C49.9134 26.7453 50.3614 26.932 50.8841 26.932C51.2201 26.932 51.5047 26.8387 51.7381 26.652C51.9807 26.4653 52.2047 26.148 52.4101 25.7L52.7321 24.986L49.4421 17.636H50.4781L53.2501 23.894L56.0221 17.636H57.0021ZM66.7827 17.636V25H65.8727V19.176L62.8907 24.104H62.4427L59.4607 19.162V25H58.5507V17.636H59.5587L62.6807 22.942L65.8587 17.636H66.7827ZM72.7053 20.24C73.6293 20.2493 74.3339 20.4547 74.8193 20.856C75.3046 21.2573 75.5473 21.836 75.5473 22.592C75.5473 23.376 75.2859 23.978 74.7633 24.398C74.2406 24.818 73.4939 25.0233 72.5233 25.014L69.6113 25V17.636H70.6053V20.212L72.7053 20.24ZM76.7793 17.636H77.7733V25H76.7793V17.636ZM72.4673 24.258C73.1486 24.2673 73.6619 24.132 74.0073 23.852C74.3619 23.5627 74.5393 23.1427 74.5393 22.592C74.5393 22.0507 74.3666 21.6493 74.0213 21.388C73.6759 21.1267 73.1579 20.9913 72.4673 20.982L70.6053 20.954V24.23L72.4673 24.258ZM85.2935 21.192C86.2921 21.4253 86.7915 22.0273 86.7915 22.998C86.7915 23.642 86.5535 24.1367 86.0775 24.482C85.6015 24.8273 84.8921 25 83.9495 25H80.6035V17.636H83.8515C84.6915 17.636 85.3495 17.7993 85.8255 18.126C86.3015 18.4527 86.5395 18.9193 86.5395 19.526C86.5395 19.9273 86.4275 20.2727 86.2035 20.562C85.9888 20.842 85.6855 21.052 85.2935 21.192ZM81.5695 20.912H83.7815C84.3508 20.912 84.7848 20.8047 85.0835 20.59C85.3915 20.3753 85.5455 20.0627 85.5455 19.652C85.5455 19.2413 85.3915 18.9333 85.0835 18.728C84.7848 18.5227 84.3508 18.42 83.7815 18.42H81.5695V20.912ZM83.9075 24.216C84.5421 24.216 85.0181 24.1133 85.3355 23.908C85.6528 23.7027 85.8115 23.3807 85.8115 22.942C85.8115 22.5033 85.6668 22.1813 85.3775 21.976C85.0881 21.7613 84.6308 21.654 84.0055 21.654H81.5695V24.216H83.9075ZM91.655 17.58C92.6164 17.58 93.3537 17.8227 93.867 18.308C94.3804 18.784 94.637 19.4933 94.637 20.436V25H93.685V23.852C93.461 24.2347 93.1297 24.5333 92.691 24.748C92.2617 24.9627 91.7484 25.07 91.151 25.07C90.3297 25.07 89.6764 24.874 89.191 24.482C88.7057 24.09 88.463 23.572 88.463 22.928C88.463 22.3027 88.687 21.7987 89.135 21.416C89.5924 21.0333 90.3157 20.842 91.305 20.842H93.643V20.394C93.643 19.7593 93.4657 19.2787 93.111 18.952C92.7564 18.616 92.2384 18.448 91.557 18.448C91.0904 18.448 90.6424 18.5273 90.213 18.686C89.7837 18.8353 89.415 19.0453 89.107 19.316L88.659 18.574C89.0324 18.2567 89.4804 18.014 90.003 17.846C90.5257 17.6687 91.0764 17.58 91.655 17.58ZM91.305 24.286C91.865 24.286 92.3457 24.16 92.747 23.908C93.1484 23.6467 93.447 23.2733 93.643 22.788V21.584H91.333C90.073 21.584 89.443 22.0227 89.443 22.9C89.443 23.3293 89.6064 23.67 89.933 23.922C90.2597 24.1647 90.717 24.286 91.305 24.286ZM103.611 17.58C104.302 17.58 104.922 17.7387 105.473 18.056C106.033 18.3733 106.472 18.8167 106.789 19.386C107.106 19.9553 107.265 20.5993 107.265 21.318C107.265 22.0367 107.106 22.6807 106.789 23.25C106.472 23.8193 106.033 24.2673 105.473 24.594C104.922 24.9113 104.302 25.07 103.611 25.07C102.958 25.07 102.365 24.93 101.833 24.65C101.301 24.3607 100.867 23.964 100.531 23.46C100.204 22.956 100.013 22.3773 99.9571 21.724H98.2771V25H97.2831V17.636H98.2771V20.814H99.9711C100.046 20.1793 100.246 19.6193 100.573 19.134C100.909 18.6393 101.338 18.2567 101.861 17.986C102.384 17.7153 102.967 17.58 103.611 17.58ZM103.611 24.202C104.115 24.202 104.568 24.0807 104.969 23.838C105.38 23.5953 105.702 23.2547 105.935 22.816C106.168 22.3773 106.285 21.878 106.285 21.318C106.285 20.758 106.168 20.2587 105.935 19.82C105.702 19.3813 105.38 19.0453 104.969 18.812C104.568 18.5693 104.115 18.448 103.611 18.448C103.107 18.448 102.65 18.5693 102.239 18.812C101.838 19.0453 101.52 19.3813 101.287 19.82C101.054 20.2587 100.937 20.758 100.937 21.318C100.937 21.878 101.054 22.3773 101.287 22.816C101.52 23.2547 101.838 23.5953 102.239 23.838C102.65 24.0807 103.107 24.202 103.611 24.202ZM16.022 34.636V42H15.028V35.518H10.408V42H9.414V34.636H16.022ZM22.6416 34.58C23.3323 34.58 23.9576 34.7387 24.5176 35.056C25.0776 35.364 25.5163 35.8027 25.8336 36.372C26.1509 36.9413 26.3096 37.59 26.3096 38.318C26.3096 39.0553 26.1509 39.7087 25.8336 40.278C25.5163 40.8473 25.0776 41.2907 24.5176 41.608C23.9669 41.916 23.3416 42.07 22.6416 42.07C22.0443 42.07 21.5029 41.9487 21.0176 41.706C20.5416 41.454 20.1496 41.09 19.8416 40.614V44.716H18.8476V34.636H19.7996V36.092C20.0983 35.6067 20.4903 35.2333 20.9756 34.972C21.4703 34.7107 22.0256 34.58 22.6416 34.58ZM22.5716 41.188C23.0849 41.188 23.5516 41.0713 23.9716 40.838C24.3916 40.5953 24.7183 40.2547 24.9516 39.816C25.1943 39.3773 25.3156 38.878 25.3156 38.318C25.3156 37.758 25.1943 37.2633 24.9516 36.834C24.7183 36.3953 24.3916 36.0547 23.9716 35.812C23.5516 35.5693 23.0849 35.448 22.5716 35.448C22.0489 35.448 21.5776 35.5693 21.1576 35.812C20.7469 36.0547 20.4203 36.3953 20.1776 36.834C19.9443 37.2633 19.8276 37.758 19.8276 38.318C19.8276 38.878 19.9443 39.3773 20.1776 39.816C20.4203 40.2547 20.7469 40.5953 21.1576 40.838C21.5776 41.0713 22.0489 41.188 22.5716 41.188ZM31.4833 42.07C30.7739 42.07 30.1346 41.9113 29.5653 41.594C28.9959 41.2673 28.5479 40.8193 28.2213 40.25C27.8946 39.6807 27.7313 39.0367 27.7313 38.318C27.7313 37.5993 27.8946 36.9553 28.2213 36.386C28.5479 35.8167 28.9959 35.3733 29.5653 35.056C30.1346 34.7387 30.7739 34.58 31.4833 34.58C32.1926 34.58 32.8319 34.7387 33.4013 35.056C33.9706 35.3733 34.4139 35.8167 34.7313 36.386C35.0579 36.9553 35.2213 37.5993 35.2213 38.318C35.2213 39.0367 35.0579 39.6807 34.7313 40.25C34.4139 40.8193 33.9706 41.2673 33.4013 41.594C32.8319 41.9113 32.1926 42.07 31.4833 42.07ZM31.4833 41.188C32.0059 41.188 32.4726 41.0713 32.8833 40.838C33.3033 40.5953 33.6299 40.2547 33.8633 39.816C34.0966 39.3773 34.2133 38.878 34.2133 38.318C34.2133 37.758 34.0966 37.2587 33.8633 36.82C33.6299 36.3813 33.3033 36.0453 32.8833 35.812C32.4726 35.5693 32.0059 35.448 31.4833 35.448C30.9606 35.448 30.4893 35.5693 30.0693 35.812C29.6586 36.0453 29.3319 36.3813 29.0892 36.82C28.8559 37.2587 28.7393 37.758 28.7393 38.318C28.7393 38.878 28.8559 39.3773 29.0892 39.816C29.3319 40.2547 29.6586 40.5953 30.0693 40.838C30.4893 41.0713 30.9606 41.188 31.4833 41.188ZM37.3456 34.636H38.3396V40.488L43.2536 34.636H44.1356V42H43.1416V36.148L38.2416 42H37.3456V34.636ZM40.6916 33.572C40.057 33.572 39.553 33.4133 39.1796 33.096C38.8063 32.7787 38.615 32.3307 38.6056 31.752H39.3196C39.329 32.116 39.4596 32.41 39.7116 32.634C39.9636 32.8487 40.2903 32.956 40.6916 32.956C41.093 32.956 41.4196 32.8487 41.6716 32.634C41.933 32.41 42.0683 32.116 42.0776 31.752H42.7916C42.7823 32.3307 42.5863 32.7787 42.2036 33.096C41.8303 33.4133 41.3263 33.572 40.6916 33.572ZM52.1643 35.518H49.3783V42H48.3843V35.518H45.5983V34.636H52.1643V35.518ZM53.6015 34.636H54.5955V40.488L59.5095 34.636H60.3915V42H59.3975V36.148L54.4975 42H53.6015V34.636ZM69.9422 42.07C69.2329 42.07 68.5936 41.9113 68.0242 41.594C67.4549 41.2673 67.0069 40.8193 66.6802 40.25C66.3536 39.6807 66.1902 39.0367 66.1902 38.318C66.1902 37.5993 66.3536 36.9553 66.6802 36.386C67.0069 35.8167 67.4549 35.3733 68.0242 35.056C68.5936 34.7387 69.2329 34.58 69.9422 34.58C70.6516 34.58 71.2909 34.7387 71.8602 35.056C72.4296 35.3733 72.8729 35.8167 73.1902 36.386C73.5169 36.9553 73.6802 37.5993 73.6802 38.318C73.6802 39.0367 73.5169 39.6807 73.1902 40.25C72.8729 40.8193 72.4296 41.2673 71.8602 41.594C71.2909 41.9113 70.6516 42.07 69.9422 42.07ZM69.9422 41.188C70.4649 41.188 70.9316 41.0713 71.3422 40.838C71.7622 40.5953 72.0889 40.2547 72.3222 39.816C72.5556 39.3773 72.6722 38.878 72.6722 38.318C72.6722 37.758 72.5556 37.2587 72.3222 36.82C72.0889 36.3813 71.7622 36.0453 71.3422 35.812C70.9316 35.5693 70.4649 35.448 69.9422 35.448C69.4196 35.448 68.9482 35.5693 68.5282 35.812C68.1176 36.0453 67.7909 36.3813 67.5482 36.82C67.3149 37.2587 67.1982 37.758 67.1982 38.318C67.1982 38.878 67.3149 39.3773 67.5482 39.816C67.7909 40.2547 68.1176 40.5953 68.5282 40.838C68.9482 41.0713 69.4196 41.188 69.9422 41.188ZM82.9456 41.132V43.778H82.0076V42H75.4136V43.778H74.4756V41.132H74.8956C75.3903 41.104 75.7263 40.74 75.9036 40.04C76.0809 39.34 76.2023 38.36 76.2676 37.1L76.3656 34.636H81.7976V41.132H82.9456ZM77.1776 37.156C77.1309 38.2013 77.0423 39.0647 76.9116 39.746C76.7809 40.418 76.5476 40.88 76.2116 41.132H80.8036V35.518H77.2616L77.1776 37.156ZM84.8828 34.636H85.8768V37.898H90.5108V34.636H91.5048V42H90.5108V38.752H85.8768V42H84.8828V34.636ZM97.368 42.07C96.6587 42.07 96.0193 41.9113 95.45 41.594C94.8807 41.2673 94.4327 40.8193 94.106 40.25C93.7793 39.6807 93.616 39.0367 93.616 38.318C93.616 37.5993 93.7793 36.9553 94.106 36.386C94.4327 35.8167 94.8807 35.3733 95.45 35.056C96.0193 34.7387 96.6587 34.58 97.368 34.58C98.0773 34.58 98.7167 34.7387 99.286 35.056C99.8553 35.3733 100.299 35.8167 100.616 36.386C100.943 36.9553 101.106 37.5993 101.106 38.318C101.106 39.0367 100.943 39.6807 100.616 40.25C100.299 40.8193 99.8553 41.2673 99.286 41.594C98.7167 41.9113 98.0773 42.07 97.368 42.07ZM97.368 41.188C97.8907 41.188 98.3573 41.0713 98.768 40.838C99.188 40.5953 99.5147 40.2547 99.748 39.816C99.9813 39.3773 100.098 38.878 100.098 38.318C100.098 37.758 99.9813 37.2587 99.748 36.82C99.5147 36.3813 99.188 36.0453 98.768 35.812C98.3573 35.5693 97.8907 35.448 97.368 35.448C96.8453 35.448 96.374 35.5693 95.954 35.812C95.5433 36.0453 95.2167 36.3813 94.974 36.82C94.7407 37.2587 94.624 37.758 94.624 38.318C94.624 38.878 94.7407 39.3773 94.974 39.816C95.2167 40.2547 95.5433 40.5953 95.954 40.838C96.374 41.0713 96.8453 41.188 97.368 41.188ZM12.452 59.07C11.7427 59.07 11.1033 58.9113 10.534 58.594C9.96467 58.2673 9.51667 57.8193 9.19 57.25C8.86333 56.6807 8.7 56.0367 8.7 55.318C8.7 54.5993 8.86333 53.9553 9.19 53.386C9.51667 52.8167 9.96467 52.3733 10.534 52.056C11.1033 51.7387 11.7427 51.58 12.452 51.58C13.1613 51.58 13.8007 51.7387 14.37 52.056C14.9393 52.3733 15.3827 52.8167 15.7 53.386C16.0267 53.9553 16.19 54.5993 16.19 55.318C16.19 56.0367 16.0267 56.6807 15.7 57.25C15.3827 57.8193 14.9393 58.2673 14.37 58.594C13.8007 58.9113 13.1613 59.07 12.452 59.07ZM12.452 58.188C12.9747 58.188 13.4413 58.0713 13.852 57.838C14.272 57.5953 14.5987 57.2547 14.832 56.816C15.0653 56.3773 15.182 55.878 15.182 55.318C15.182 54.758 15.0653 54.2587 14.832 53.82C14.5987 53.3813 14.272 53.0453 13.852 52.812C13.4413 52.5693 12.9747 52.448 12.452 52.448C11.9293 52.448 11.458 52.5693 11.038 52.812C10.6273 53.0453 10.3007 53.3813 10.058 53.82C9.82467 54.2587 9.708 54.758 9.708 55.318C9.708 55.878 9.82467 56.3773 10.058 56.816C10.3007 57.2547 10.6273 57.5953 11.038 57.838C11.458 58.0713 11.9293 58.188 12.452 58.188ZM21.8844 51.818C22.5657 51.818 23.1724 51.972 23.7044 52.28C24.2457 52.5787 24.6657 53.0033 24.9644 53.554C25.2631 54.0953 25.4124 54.716 25.4124 55.416C25.4124 56.1347 25.2537 56.774 24.9364 57.334C24.6284 57.8847 24.1944 58.314 23.6344 58.622C23.0744 58.93 22.4304 59.084 21.7024 59.084C20.4797 59.084 19.5324 58.6547 18.8604 57.796C18.1884 56.9373 17.8524 55.752 17.8524 54.24C17.8524 52.6627 18.1511 51.454 18.7484 50.614C19.3551 49.774 20.2977 49.2047 21.5764 48.906L24.8804 48.15L25.0484 49.06L21.9404 49.774C20.8857 50.0073 20.1111 50.4227 19.6164 51.02C19.1217 51.608 18.8511 52.4807 18.8044 53.638C19.1031 53.0687 19.5184 52.6253 20.0504 52.308C20.5824 51.9813 21.1937 51.818 21.8844 51.818ZM21.7304 58.258C22.2437 58.258 22.7011 58.1413 23.1024 57.908C23.5131 57.6653 23.8304 57.3293 24.0544 56.9C24.2877 56.4707 24.4044 55.9853 24.4044 55.444C24.4044 54.9027 24.2924 54.4267 24.0684 54.016C23.8444 53.6053 23.5271 53.288 23.1164 53.064C22.7151 52.8307 22.2531 52.714 21.7304 52.714C21.2077 52.714 20.7411 52.8307 20.3304 53.064C19.9291 53.288 19.6117 53.6053 19.3784 54.016C19.1544 54.4267 19.0424 54.9027 19.0424 55.444C19.0424 55.9853 19.1544 56.4707 19.3784 56.9C19.6117 57.3293 19.9337 57.6653 20.3444 57.908C20.7551 58.1413 21.2171 58.258 21.7304 58.258ZM33.5958 51.636L29.9138 59.882C29.6152 60.5727 29.2698 61.0627 28.8778 61.352C28.4858 61.6413 28.0145 61.786 27.4638 61.786C27.1092 61.786 26.7778 61.73 26.4698 61.618C26.1618 61.506 25.8958 61.338 25.6718 61.114L26.1338 60.372C26.5072 60.7453 26.9552 60.932 27.4778 60.932C27.8138 60.932 28.0985 60.8387 28.3318 60.652C28.5745 60.4653 28.7985 60.148 29.0038 59.7L29.3258 58.986L26.0358 51.636H27.0718L29.8438 57.894L32.6158 51.636H33.5958ZM40.7025 51.636V59H39.7085V55.934C38.8591 56.3073 38.0238 56.494 37.2025 56.494C36.3158 56.494 35.6251 56.2933 35.1305 55.892C34.6358 55.4813 34.3885 54.87 34.3885 54.058V51.636H35.3825V54.002C35.3825 54.5527 35.5598 54.9727 35.9145 55.262C36.2691 55.542 36.7591 55.682 37.3845 55.682C38.0751 55.682 38.8498 55.5 39.7085 55.136V51.636H40.7025ZM49.9653 55.626H43.8053C43.8613 56.3913 44.1553 57.012 44.6873 57.488C45.2193 57.9547 45.8913 58.188 46.7033 58.188C47.1607 58.188 47.5807 58.1087 47.9633 57.95C48.346 57.782 48.6773 57.5393 48.9573 57.222L49.5173 57.866C49.1907 58.258 48.78 58.5567 48.2853 58.762C47.8 58.9673 47.2633 59.07 46.6753 59.07C45.9193 59.07 45.2473 58.9113 44.6593 58.594C44.0807 58.2673 43.628 57.8193 43.3013 57.25C42.9747 56.6807 42.8113 56.0367 42.8113 55.318C42.8113 54.5993 42.9653 53.9553 43.2733 53.386C43.5907 52.8167 44.02 52.3733 44.5613 52.056C45.112 51.7387 45.728 51.58 46.4093 51.58C47.0907 51.58 47.702 51.7387 48.2433 52.056C48.7847 52.3733 49.2093 52.8167 49.5173 53.386C49.8253 53.946 49.9793 54.59 49.9793 55.318L49.9653 55.626ZM46.4093 52.434C45.7 52.434 45.1027 52.6627 44.6173 53.12C44.1413 53.568 43.8707 54.156 43.8053 54.884H49.0273C48.962 54.156 48.6867 53.568 48.2013 53.12C47.7253 52.6627 47.128 52.434 46.4093 52.434ZM52.1796 51.636H53.1736V54.898H57.8076V51.636H58.8016V59H57.8076V55.752H53.1736V59H52.1796V51.636ZM61.6269 51.636H62.6209V57.488L67.5349 51.636H68.4169V59H67.4229V53.148L62.5229 59H61.6269V51.636ZM77.7056 55.626H71.5456C71.6016 56.3913 71.8956 57.012 72.4276 57.488C72.9596 57.9547 73.6316 58.188 74.4436 58.188C74.9009 58.188 75.3209 58.1087 75.7036 57.95C76.0862 57.782 76.4176 57.5393 76.6976 57.222L77.2576 57.866C76.9309 58.258 76.5202 58.5567 76.0256 58.762C75.5402 58.9673 75.0036 59.07 74.4156 59.07C73.6596 59.07 72.9876 58.9113 72.3996 58.594C71.8209 58.2673 71.3682 57.8193 71.0416 57.25C70.7149 56.6807 70.5516 56.0367 70.5516 55.318C70.5516 54.5993 70.7056 53.9553 71.0136 53.386C71.3309 52.8167 71.7602 52.3733 72.3016 52.056C72.8522 51.7387 73.4682 51.58 74.1496 51.58C74.8309 51.58 75.4422 51.7387 75.9836 52.056C76.5249 52.3733 76.9496 52.8167 77.2576 53.386C77.5656 53.946 77.7196 54.59 77.7196 55.318L77.7056 55.626ZM74.1496 52.434C73.4402 52.434 72.8429 52.6627 72.3576 53.12C71.8816 53.568 71.6109 54.156 71.5456 54.884H76.7676C76.7022 54.156 76.4269 53.568 75.9416 53.12C75.4656 52.6627 74.8682 52.434 74.1496 52.434ZM83.5839 51.636H84.5779V57.488L89.4919 51.636H90.3739V59H89.3799V53.148L84.4799 59H83.5839V51.636ZM16.596 75.132V77.778H15.658V76H9.064V77.778H8.126V75.132H8.546C9.04067 75.104 9.37667 74.74 9.554 74.04C9.73133 73.34 9.85267 72.36 9.918 71.1L10.016 68.636H15.448V75.132H16.596ZM10.828 71.156C10.7813 72.2013 10.6927 73.0647 10.562 73.746C10.4313 74.418 10.198 74.88 9.862 75.132H14.454V69.518H10.912L10.828 71.156ZM24.9731 72.626H18.8131C18.8691 73.3913 19.1631 74.012 19.6951 74.488C20.2271 74.9547 20.8991 75.188 21.7111 75.188C22.1685 75.188 22.5885 75.1087 22.9711 74.95C23.3538 74.782 23.6851 74.5393 23.9651 74.222L24.5251 74.866C24.1985 75.258 23.7878 75.5567 23.2931 75.762C22.8078 75.9673 22.2711 76.07 21.6831 76.07C20.9271 76.07 20.2551 75.9113 19.6671 75.594C19.0885 75.2673 18.6358 74.8193 18.3091 74.25C17.9825 73.6807 17.8191 73.0367 17.8191 72.318C17.8191 71.5993 17.9731 70.9553 18.2811 70.386C18.5985 69.8167 19.0278 69.3733 19.5691 69.056C20.1198 68.7387 20.7358 68.58 21.4171 68.58C22.0985 68.58 22.7098 68.7387 23.2511 69.056C23.7925 69.3733 24.2171 69.8167 24.5251 70.386C24.8331 70.946 24.9871 71.59 24.9871 72.318L24.9731 72.626ZM21.4171 69.434C20.7078 69.434 20.1105 69.6627 19.6251 70.12C19.1491 70.568 18.8785 71.156 18.8131 71.884H24.0351C23.9698 71.156 23.6945 70.568 23.2091 70.12C22.7331 69.6627 22.1358 69.434 21.4171 69.434ZM33.057 68.636V76H32.063V69.518H28.535L28.437 71.338C28.3624 72.8687 28.185 74.0447 27.905 74.866C27.625 75.6873 27.1257 76.098 26.407 76.098C26.211 76.098 25.973 76.0607 25.693 75.986L25.763 75.132C25.931 75.1693 26.0477 75.188 26.113 75.188C26.4957 75.188 26.785 75.0107 26.981 74.656C27.177 74.3013 27.3077 73.8627 27.373 73.34C27.4384 72.8173 27.4944 72.1267 27.541 71.268L27.667 68.636H33.057ZM38.4168 68.58C39.3781 68.58 40.1154 68.8227 40.6288 69.308C41.1421 69.784 41.3988 70.4933 41.3988 71.436V76H40.4468V74.852C40.2228 75.2347 39.8914 75.5333 39.4528 75.748C39.0234 75.9627 38.5101 76.07 37.9128 76.07C37.0914 76.07 36.4381 75.874 35.9528 75.482C35.4674 75.09 35.2248 74.572 35.2248 73.928C35.2248 73.3027 35.4488 72.7987 35.8968 72.416C36.3541 72.0333 37.0774 71.842 38.0667 71.842H40.4048V71.394C40.4048 70.7593 40.2274 70.2787 39.8728 69.952C39.5181 69.616 39.0001 69.448 38.3188 69.448C37.8521 69.448 37.4041 69.5273 36.9748 69.686C36.5454 69.8353 36.1768 70.0453 35.8688 70.316L35.4208 69.574C35.7941 69.2567 36.2421 69.014 36.7648 68.846C37.2874 68.6687 37.8381 68.58 38.4168 68.58ZM38.0667 75.286C38.6268 75.286 39.1074 75.16 39.5088 74.908C39.9101 74.6467 40.2088 74.2733 40.4048 73.788V72.584H38.0948C36.8348 72.584 36.2048 73.0227 36.2048 73.9C36.2048 74.3293 36.3681 74.67 36.6948 74.922C37.0214 75.1647 37.4788 75.286 38.0667 75.286ZM49.2249 69.518H46.4389V76H45.4449V69.518H42.6589V68.636H49.2249V69.518ZM53.826 71.24C54.75 71.2493 55.45 71.4547 55.926 71.856C56.4114 72.2573 56.654 72.836 56.654 73.592C56.654 74.376 56.3927 74.978 55.87 75.398C55.3567 75.818 54.61 76.0233 53.63 76.014L50.662 76V68.636H51.656V71.212L53.826 71.24ZM53.574 75.258C54.2554 75.2673 54.7687 75.132 55.114 74.852C55.4687 74.5627 55.646 74.1427 55.646 73.592C55.646 73.0507 55.4734 72.6493 55.128 72.388C54.7827 72.1267 54.2647 71.9913 53.574 71.982L51.656 71.954V75.23L53.574 75.258ZM66.9048 72.192C67.9034 72.4253 68.4028 73.0273 68.4028 73.998C68.4028 74.642 68.1648 75.1367 67.6888 75.482C67.2128 75.8273 66.5034 76 65.5608 76H62.2148V68.636H65.4628C66.3028 68.636 66.9608 68.7993 67.4368 69.126C67.9128 69.4527 68.1508 69.9193 68.1508 70.526C68.1508 70.9273 68.0388 71.2727 67.8148 71.562C67.6001 71.842 67.2968 72.052 66.9048 72.192ZM63.1808 71.912H65.3928C65.9621 71.912 66.3961 71.8047 66.6948 71.59C67.0028 71.3753 67.1568 71.0627 67.1568 70.652C67.1568 70.2413 67.0028 69.9333 66.6948 69.728C66.3961 69.5227 65.9621 69.42 65.3928 69.42H63.1808V71.912ZM65.5188 75.216C66.1534 75.216 66.6294 75.1133 66.9468 74.908C67.2641 74.7027 67.4228 74.3807 67.4228 73.942C67.4228 73.5033 67.2781 73.1813 66.9888 72.976C66.6994 72.7613 66.2421 72.654 65.6168 72.654H63.1808V75.216H65.5188ZM73.8124 76.07C73.0844 76.07 72.431 75.9113 71.8524 75.594C71.283 75.2767 70.835 74.8333 70.5084 74.264C70.1817 73.6853 70.0184 73.0367 70.0184 72.318C70.0184 71.5993 70.1817 70.9553 70.5084 70.386C70.835 69.8167 71.283 69.3733 71.8524 69.056C72.431 68.7387 73.0844 68.58 73.8124 68.58C74.447 68.58 75.0117 68.706 75.5064 68.958C76.0104 69.2007 76.407 69.56 76.6964 70.036L75.9544 70.54C75.7117 70.176 75.4037 69.9053 75.0304 69.728C74.657 69.5413 74.251 69.448 73.8124 69.448C73.2804 69.448 72.7997 69.5693 72.3704 69.812C71.9504 70.0453 71.619 70.3813 71.3764 70.82C71.143 71.2587 71.0264 71.758 71.0264 72.318C71.0264 72.8873 71.143 73.3913 71.3764 73.83C71.619 74.2593 71.9504 74.5953 72.3704 74.838C72.7997 75.0713 73.2804 75.188 73.8124 75.188C74.251 75.188 74.657 75.0993 75.0304 74.922C75.4037 74.7447 75.7117 74.474 75.9544 74.11L76.6964 74.614C76.407 75.09 76.0104 75.454 75.5064 75.706C75.0024 75.9487 74.4377 76.07 73.8124 76.07ZM84.938 72.626H78.778C78.834 73.3913 79.128 74.012 79.66 74.488C80.192 74.9547 80.864 75.188 81.676 75.188C82.1333 75.188 82.5533 75.1087 82.936 74.95C83.3187 74.782 83.65 74.5393 83.93 74.222L84.49 74.866C84.1633 75.258 83.7527 75.5567 83.258 75.762C82.7727 75.9673 82.236 76.07 81.648 76.07C80.892 76.07 80.22 75.9113 79.632 75.594C79.0533 75.2673 78.6007 74.8193 78.274 74.25C77.9473 73.6807 77.784 73.0367 77.784 72.318C77.784 71.5993 77.938 70.9553 78.246 70.386C78.5633 69.8167 78.9927 69.3733 79.534 69.056C80.0847 68.7387 80.7007 68.58 81.382 68.58C82.0633 68.58 82.6747 68.7387 83.216 69.056C83.7573 69.3733 84.182 69.8167 84.49 70.386C84.798 70.946 84.952 71.59 84.952 72.318L84.938 72.626ZM81.382 69.434C80.6727 69.434 80.0753 69.6627 79.59 70.12C79.114 70.568 78.8433 71.156 78.778 71.884H84C83.9347 71.156 83.6593 70.568 83.174 70.12C82.698 69.6627 82.1007 69.434 81.382 69.434ZM92.8183 68.58C93.5557 68.58 94.2183 68.7433 94.8063 69.07C95.4037 69.3873 95.8703 69.8307 96.2063 70.4C96.5517 70.9693 96.7243 71.6087 96.7243 72.318C96.7243 73.0273 96.5517 73.6713 96.2063 74.25C95.8703 74.8193 95.4037 75.2673 94.8063 75.594C94.2183 75.9207 93.5557 76.084 92.8183 76.084C92.2023 76.084 91.6377 75.9907 91.1243 75.804C90.611 75.608 90.177 75.328 89.8223 74.964L90.4103 74.376C91.0357 74.964 91.8243 75.258 92.7763 75.258C93.3083 75.258 93.789 75.146 94.2183 74.922C94.657 74.698 95.0117 74.3853 95.2823 73.984C95.5623 73.5827 95.7257 73.1347 95.7723 72.64H91.8383V71.884H95.7583C95.6557 71.1467 95.329 70.5493 94.7783 70.092C94.2277 69.6253 93.5603 69.392 92.7763 69.392C91.8243 69.392 91.0357 69.686 90.4103 70.274L89.8223 69.7C90.177 69.336 90.611 69.0607 91.1243 68.874C91.6377 68.678 92.2023 68.58 92.8183 68.58ZM103.721 69.518H100.935V76H99.941V69.518H97.155V68.636H103.721V69.518ZM107.854 76.07C107.145 76.07 106.506 75.9113 105.936 75.594C105.367 75.2673 104.919 74.8193 104.592 74.25C104.266 73.6807 104.102 73.0367 104.102 72.318C104.102 71.5993 104.266 70.9553 104.592 70.386C104.919 69.8167 105.367 69.3733 105.936 69.056C106.506 68.7387 107.145 68.58 107.854 68.58C108.564 68.58 109.203 68.7387 109.772 69.056C110.342 69.3733 110.785 69.8167 111.102 70.386C111.429 70.9553 111.592 71.5993 111.592 72.318C111.592 73.0367 111.429 73.6807 111.102 74.25C110.785 74.8193 110.342 75.2673 109.772 75.594C109.203 75.9113 108.564 76.07 107.854 76.07ZM107.854 75.188C108.377 75.188 108.844 75.0713 109.254 74.838C109.674 74.5953 110.001 74.2547 110.234 73.816C110.468 73.3773 110.584 72.878 110.584 72.318C110.584 71.758 110.468 71.2587 110.234 70.82C110.001 70.3813 109.674 70.0453 109.254 69.812C108.844 69.5693 108.377 69.448 107.854 69.448C107.332 69.448 106.86 69.5693 106.44 69.812C106.03 70.0453 105.703 70.3813 105.46 70.82C105.227 71.2587 105.11 71.758 105.11 72.318C105.11 72.878 105.227 73.3773 105.46 73.816C105.703 74.2547 106.03 74.5953 106.44 74.838C106.86 75.0713 107.332 75.188 107.854 75.188ZM12.494 93.07C11.766 93.07 11.1127 92.9113 10.534 92.594C9.96467 92.2767 9.51667 91.8333 9.19 91.264C8.86333 90.6853 8.7 90.0367 8.7 89.318C8.7 88.5993 8.86333 87.9553 9.19 87.386C9.51667 86.8167 9.96467 86.3733 10.534 86.056C11.1127 85.7387 11.766 85.58 12.494 85.58C13.1287 85.58 13.6933 85.706 14.188 85.958C14.692 86.2007 15.0887 86.56 15.378 87.036L14.636 87.54C14.3933 87.176 14.0853 86.9053 13.712 86.728C13.3387 86.5413 12.9327 86.448 12.494 86.448C11.962 86.448 11.4813 86.5693 11.052 86.812C10.632 87.0453 10.3007 87.3813 10.058 87.82C9.82467 88.2587 9.708 88.758 9.708 89.318C9.708 89.8873 9.82467 90.3913 10.058 90.83C10.3007 91.2593 10.632 91.5953 11.052 91.838C11.4813 92.0713 11.962 92.188 12.494 92.188C12.9327 92.188 13.3387 92.0993 13.712 91.922C14.0853 91.7447 14.3933 91.474 14.636 91.11L15.378 91.614C15.0887 92.09 14.692 92.454 14.188 92.706C13.684 92.9487 13.1193 93.07 12.494 93.07ZM19.8367 85.58C20.798 85.58 21.5353 85.8227 22.0487 86.308C22.562 86.784 22.8187 87.4933 22.8187 88.436V93H21.8667V91.852C21.6427 92.2347 21.3113 92.5333 20.8727 92.748C20.4433 92.9627 19.93 93.07 19.3327 93.07C18.5113 93.07 17.858 92.874 17.3727 92.482C16.8873 92.09 16.6447 91.572 16.6447 90.928C16.6447 90.3027 16.8687 89.7987 17.3167 89.416C17.774 89.0333 18.4973 88.842 19.4867 88.842H21.8247V88.394C21.8247 87.7593 21.6473 87.2787 21.2927 86.952C20.938 86.616 20.42 86.448 19.7387 86.448C19.272 86.448 18.824 86.5273 18.3947 86.686C17.9653 86.8353 17.5967 87.0453 17.2887 87.316L16.8407 86.574C17.214 86.2567 17.662 86.014 18.1847 85.846C18.7073 85.6687 19.258 85.58 19.8367 85.58ZM19.4867 92.286C20.0467 92.286 20.5273 92.16 20.9287 91.908C21.33 91.6467 21.6287 91.2733 21.8247 90.788V89.584H19.5147C18.2547 89.584 17.6247 90.0227 17.6247 90.9C17.6247 91.3293 17.788 91.67 18.1147 91.922C18.4413 92.1647 18.8987 92.286 19.4867 92.286ZM33.6968 85.636V93H32.7868V87.176L29.8048 92.104H29.3568L26.3748 87.162V93H25.4648V85.636H26.4728L29.5948 90.942L32.7728 85.636H33.6968ZM39.5633 93.07C38.854 93.07 38.2147 92.9113 37.6453 92.594C37.076 92.2673 36.628 91.8193 36.3013 91.25C35.9747 90.6807 35.8113 90.0367 35.8113 89.318C35.8113 88.5993 35.9747 87.9553 36.3013 87.386C36.628 86.8167 37.076 86.3733 37.6453 86.056C38.2147 85.7387 38.854 85.58 39.5633 85.58C40.2727 85.58 40.912 85.7387 41.4813 86.056C42.0507 86.3733 42.494 86.8167 42.8113 87.386C43.138 87.9553 43.3013 88.5993 43.3013 89.318C43.3013 90.0367 43.138 90.6807 42.8113 91.25C42.494 91.8193 42.0507 92.2673 41.4813 92.594C40.912 92.9113 40.2727 93.07 39.5633 93.07ZM39.5633 92.188C40.086 92.188 40.5527 92.0713 40.9633 91.838C41.3833 91.5953 41.71 91.2547 41.9433 90.816C42.1767 90.3773 42.2933 89.878 42.2933 89.318C42.2933 88.758 42.1767 88.2587 41.9433 87.82C41.71 87.3813 41.3833 87.0453 40.9633 86.812C40.5527 86.5693 40.086 86.448 39.5633 86.448C39.0407 86.448 38.5693 86.5693 38.1493 86.812C37.7387 87.0453 37.412 87.3813 37.1693 87.82C36.936 88.2587 36.8193 88.758 36.8193 89.318C36.8193 89.878 36.936 90.3773 37.1693 90.816C37.412 91.2547 37.7387 91.5953 38.1493 91.838C38.5693 92.0713 39.0407 92.188 39.5633 92.188ZM48.5057 93.07C47.7777 93.07 47.1244 92.9113 46.5457 92.594C45.9764 92.2767 45.5284 91.8333 45.2017 91.264C44.8751 90.6853 44.7117 90.0367 44.7117 89.318C44.7117 88.5993 44.8751 87.9553 45.2017 87.386C45.5284 86.8167 45.9764 86.3733 46.5457 86.056C47.1244 85.7387 47.7777 85.58 48.5057 85.58C49.1404 85.58 49.7051 85.706 50.1997 85.958C50.7037 86.2007 51.1004 86.56 51.3897 87.036L50.6477 87.54C50.4051 87.176 50.0971 86.9053 49.7237 86.728C49.3504 86.5413 48.9444 86.448 48.5057 86.448C47.9737 86.448 47.4931 86.5693 47.0637 86.812C46.6437 87.0453 46.3124 87.3813 46.0697 87.82C45.8364 88.2587 45.7197 88.758 45.7197 89.318C45.7197 89.8873 45.8364 90.3913 46.0697 90.83C46.3124 91.2593 46.6437 91.5953 47.0637 91.838C47.4931 92.0713 47.9737 92.188 48.5057 92.188C48.9444 92.188 49.3504 92.0993 49.7237 91.922C50.0971 91.7447 50.4051 91.474 50.6477 91.11L51.3897 91.614C51.1004 92.09 50.7037 92.454 50.1997 92.706C49.6957 92.9487 49.1311 93.07 48.5057 93.07ZM58.3577 86.518H55.5717V93H54.5777V86.518H51.7917V85.636H58.3577V86.518ZM62.4911 93.07C61.7817 93.07 61.1424 92.9113 60.5731 92.594C60.0037 92.2673 59.5557 91.8193 59.2291 91.25C58.9024 90.6807 58.7391 90.0367 58.7391 89.318C58.7391 88.5993 58.9024 87.9553 59.2291 87.386C59.5557 86.8167 60.0037 86.3733 60.5731 86.056C61.1424 85.7387 61.7817 85.58 62.4911 85.58C63.2004 85.58 63.8397 85.7387 64.4091 86.056C64.9784 86.3733 65.4217 86.8167 65.7391 87.386C66.0657 87.9553 66.2291 88.5993 66.2291 89.318C66.2291 90.0367 66.0657 90.6807 65.7391 91.25C65.4217 91.8193 64.9784 92.2673 64.4091 92.594C63.8397 92.9113 63.2004 93.07 62.4911 93.07ZM62.4911 92.188C63.0137 92.188 63.4804 92.0713 63.8911 91.838C64.3111 91.5953 64.6377 91.2547 64.8711 90.816C65.1044 90.3773 65.2211 89.878 65.2211 89.318C65.2211 88.758 65.1044 88.2587 64.8711 87.82C64.6377 87.3813 64.3111 87.0453 63.8911 86.812C63.4804 86.5693 63.0137 86.448 62.4911 86.448C61.9684 86.448 61.4971 86.5693 61.0771 86.812C60.6664 87.0453 60.3397 87.3813 60.0971 87.82C59.8637 88.2587 59.7471 88.758 59.7471 89.318C59.7471 89.878 59.8637 90.3773 60.0971 90.816C60.3397 91.2547 60.6664 91.5953 61.0771 91.838C61.4971 92.0713 61.9684 92.188 62.4911 92.188ZM73.7497 85.636V93H72.8397V90.564H70.5297H70.2497L68.5417 93H67.4637L69.2977 90.424C68.7284 90.2653 68.2897 89.9947 67.9817 89.612C67.6737 89.2293 67.5197 88.744 67.5197 88.156C67.5197 87.3347 67.7997 86.7093 68.3597 86.28C68.9197 85.8507 69.685 85.636 70.6557 85.636H73.7497ZM68.5277 88.184C68.5277 89.276 69.223 89.822 70.6137 89.822H72.8397V86.518H70.6837C69.2464 86.518 68.5277 87.0733 68.5277 88.184ZM81.7639 86.518H78.9779V93H77.9839V86.518H75.1979V85.636H81.7639V86.518ZM89.2993 89.626H83.1393C83.1953 90.3913 83.4893 91.012 84.0213 91.488C84.5533 91.9547 85.2253 92.188 86.0373 92.188C86.4946 92.188 86.9146 92.1087 87.2973 91.95C87.68 91.782 88.0113 91.5393 88.2913 91.222L88.8513 91.866C88.5246 92.258 88.114 92.5567 87.6193 92.762C87.134 92.9673 86.5973 93.07 86.0093 93.07C85.2533 93.07 84.5813 92.9113 83.9933 92.594C83.4146 92.2673 82.962 91.8193 82.6353 91.25C82.3086 90.6807 82.1453 90.0367 82.1453 89.318C82.1453 88.5993 82.2993 87.9553 82.6073 87.386C82.9246 86.8167 83.354 86.3733 83.8953 86.056C84.446 85.7387 85.062 85.58 85.7433 85.58C86.4246 85.58 87.036 85.7387 87.5773 86.056C88.1186 86.3733 88.5433 86.8167 88.8513 87.386C89.1593 87.946 89.3133 88.59 89.3133 89.318L89.2993 89.626ZM85.7433 86.434C85.034 86.434 84.4366 86.6627 83.9513 87.12C83.4753 87.568 83.2046 88.156 83.1393 88.884H88.3613C88.296 88.156 88.0206 87.568 87.5353 87.12C87.0593 86.6627 86.462 86.434 85.7433 86.434ZM97.3832 85.636V93H96.3892V86.518H92.8612L92.7632 88.338C92.6886 89.8687 92.5112 91.0447 92.2312 91.866C91.9512 92.6873 91.4519 93.098 90.7332 93.098C90.5372 93.098 90.2992 93.0607 90.0192 92.986L90.0892 92.132C90.2572 92.1693 90.3739 92.188 90.4392 92.188C90.8219 92.188 91.1112 92.0107 91.3072 91.656C91.5032 91.3013 91.6339 90.8627 91.6992 90.34C91.7646 89.8173 91.8206 89.1267 91.8672 88.268L91.9932 85.636H97.3832ZM103.373 88.24C104.297 88.2493 104.997 88.4547 105.473 88.856C105.958 89.2573 106.201 89.836 106.201 90.592C106.201 91.376 105.94 91.978 105.417 92.398C104.904 92.818 104.157 93.0233 103.177 93.014L100.209 93V85.636H101.203V88.212L103.373 88.24ZM103.121 92.258C103.802 92.2673 104.316 92.132 104.661 91.852C105.016 91.5627 105.193 91.1427 105.193 90.592C105.193 90.0507 105.02 89.6493 104.675 89.388C104.33 89.1267 103.812 88.9913 103.121 88.982L101.203 88.954V92.23L103.121 92.258ZM108.098 85.636H109.092V88.898H113.726V85.636H114.72V93H113.726V89.752H109.092V93H108.098V85.636ZM120.583 93.07C119.874 93.07 119.234 92.9113 118.665 92.594C118.096 92.2673 117.648 91.8193 117.321 91.25C116.994 90.6807 116.831 90.0367 116.831 89.318C116.831 88.5993 116.994 87.9553 117.321 87.386C117.648 86.8167 118.096 86.3733 118.665 86.056C119.234 85.7387 119.874 85.58 120.583 85.58C121.292 85.58 121.932 85.7387 122.501 86.056C123.07 86.3733 123.514 86.8167 123.831 87.386C124.158 87.9553 124.321 88.5993 124.321 89.318C124.321 90.0367 124.158 90.6807 123.831 91.25C123.514 91.8193 123.07 92.2673 122.501 92.594C121.932 92.9113 121.292 93.07 120.583 93.07ZM120.583 92.188C121.106 92.188 121.572 92.0713 121.983 91.838C122.403 91.5953 122.73 91.2547 122.963 90.816C123.196 90.3773 123.313 89.878 123.313 89.318C123.313 88.758 123.196 88.2587 122.963 87.82C122.73 87.3813 122.403 87.0453 121.983 86.812C121.572 86.5693 121.106 86.448 120.583 86.448C120.06 86.448 119.589 86.5693 119.169 86.812C118.758 87.0453 118.432 87.3813 118.189 87.82C117.956 88.2587 117.839 88.758 117.839 89.318C117.839 89.878 117.956 90.3773 118.189 90.816C118.432 91.2547 118.758 91.5953 119.169 91.838C119.589 92.0713 120.06 92.188 120.583 92.188ZM13.908 114.876C14.552 115.035 15.056 115.324 15.42 115.744C15.7933 116.164 15.98 116.668 15.98 117.256C15.98 117.825 15.8027 118.325 15.448 118.754C15.0933 119.183 14.622 119.515 14.034 119.748C13.446 119.972 12.8067 120.084 12.116 120.084C11.4627 120.084 10.8187 119.981 10.184 119.776C9.55867 119.561 8.994 119.244 8.49 118.824L8.868 118.082C9.29733 118.446 9.78733 118.726 10.338 118.922C10.8887 119.109 11.444 119.202 12.004 119.202C12.536 119.202 13.026 119.118 13.474 118.95C13.922 118.782 14.2767 118.544 14.538 118.236C14.8087 117.919 14.944 117.545 14.944 117.116C14.944 116.547 14.72 116.108 14.272 115.8C13.824 115.492 13.194 115.338 12.382 115.338H10.282V114.498H12.326C13.0167 114.498 13.5533 114.353 13.936 114.064C14.328 113.765 14.524 113.355 14.524 112.832C14.524 112.253 14.2767 111.801 13.782 111.474C13.2873 111.138 12.6667 110.97 11.92 110.97C11.4533 110.97 10.982 111.04 10.506 111.18C10.03 111.311 9.57733 111.511 9.148 111.782L8.798 110.928C9.76867 110.349 10.8187 110.06 11.948 110.06C12.6107 110.06 13.2173 110.167 13.768 110.382C14.3187 110.597 14.7527 110.905 15.07 111.306C15.3967 111.707 15.56 112.179 15.56 112.72C15.56 113.243 15.4153 113.695 15.126 114.078C14.8367 114.451 14.4307 114.717 13.908 114.876ZM20.8484 112.58C21.8097 112.58 22.5471 112.823 23.0604 113.308C23.5737 113.784 23.8304 114.493 23.8304 115.436V120H22.8784V118.852C22.6544 119.235 22.3231 119.533 21.8844 119.748C21.4551 119.963 20.9417 120.07 20.3444 120.07C19.5231 120.07 18.8697 119.874 18.3844 119.482C17.8991 119.09 17.6564 118.572 17.6564 117.928C17.6564 117.303 17.8804 116.799 18.3284 116.416C18.7857 116.033 19.5091 115.842 20.4984 115.842H22.8364V115.394C22.8364 114.759 22.6591 114.279 22.3044 113.952C21.9497 113.616 21.4317 113.448 20.7504 113.448C20.2837 113.448 19.8357 113.527 19.4064 113.686C18.9771 113.835 18.6084 114.045 18.3004 114.316L17.8524 113.574C18.2257 113.257 18.6737 113.014 19.1964 112.846C19.7191 112.669 20.2697 112.58 20.8484 112.58ZM20.4984 119.286C21.0584 119.286 21.5391 119.16 21.9404 118.908C22.3417 118.647 22.6404 118.273 22.8364 117.788V116.584H20.5264C19.2664 116.584 18.6364 117.023 18.6364 117.9C18.6364 118.329 18.7997 118.67 19.1264 118.922C19.4531 119.165 19.9104 119.286 20.4984 119.286ZM32.0345 112.636V120H31.0405V116.934C30.1912 117.307 29.3558 117.494 28.5345 117.494C27.6478 117.494 26.9572 117.293 26.4625 116.892C25.9678 116.481 25.7205 115.87 25.7205 115.058V112.636H26.7145V115.002C26.7145 115.553 26.8918 115.973 27.2465 116.262C27.6012 116.542 28.0912 116.682 28.7165 116.682C29.4072 116.682 30.1818 116.5 31.0405 116.136V112.636H32.0345ZM41.2974 116.626H35.1374C35.1934 117.391 35.4874 118.012 36.0194 118.488C36.5514 118.955 37.2234 119.188 38.0354 119.188C38.4927 119.188 38.9127 119.109 39.2954 118.95C39.678 118.782 40.0094 118.539 40.2894 118.222L40.8494 118.866C40.5227 119.258 40.112 119.557 39.6174 119.762C39.132 119.967 38.5954 120.07 38.0074 120.07C37.2514 120.07 36.5794 119.911 35.9914 119.594C35.4127 119.267 34.96 118.819 34.6334 118.25C34.3067 117.681 34.1434 117.037 34.1434 116.318C34.1434 115.599 34.2974 114.955 34.6054 114.386C34.9227 113.817 35.352 113.373 35.8934 113.056C36.444 112.739 37.06 112.58 37.7414 112.58C38.4227 112.58 39.034 112.739 39.5754 113.056C40.1167 113.373 40.5414 113.817 40.8494 114.386C41.1574 114.946 41.3114 115.59 41.3114 116.318L41.2974 116.626ZM37.7414 113.434C37.032 113.434 36.4347 113.663 35.9494 114.12C35.4734 114.568 35.2027 115.156 35.1374 115.884H40.3594C40.294 115.156 40.0187 114.568 39.5334 114.12C39.0574 113.663 38.46 113.434 37.7414 113.434ZM51.7437 112.636V120H50.8337V114.176L47.8517 119.104H47.4037L44.4217 114.162V120H43.5117V112.636H44.5197L47.6417 117.942L50.8197 112.636H51.7437ZM66.4683 112.636V120H65.5583V114.176L62.5763 119.104H62.1283L59.1463 114.162V120H58.2363V112.636H59.2443L62.3663 117.942L65.5443 112.636H66.4683ZM69.2968 112.636H70.2908V115.898H74.9248V112.636H75.9188V120H74.9248V116.752H70.2908V120H69.2968V112.636ZM85.1841 116.626H79.0241C79.0801 117.391 79.3741 118.012 79.9061 118.488C80.4381 118.955 81.1101 119.188 81.9221 119.188C82.3794 119.188 82.7994 119.109 83.1821 118.95C83.5647 118.782 83.8961 118.539 84.1761 118.222L84.7361 118.866C84.4094 119.258 83.9987 119.557 83.5041 119.762C83.0187 119.967 82.4821 120.07 81.8941 120.07C81.1381 120.07 80.4661 119.911 79.8781 119.594C79.2994 119.267 78.8467 118.819 78.5201 118.25C78.1934 117.681 78.0301 117.037 78.0301 116.318C78.0301 115.599 78.1841 114.955 78.4921 114.386C78.8094 113.817 79.2387 113.373 79.7801 113.056C80.3307 112.739 80.9467 112.58 81.6281 112.58C82.3094 112.58 82.9207 112.739 83.4621 113.056C84.0034 113.373 84.4281 113.817 84.7361 114.386C85.0441 114.946 85.1981 115.59 85.1981 116.318L85.1841 116.626ZM81.6281 113.434C80.9187 113.434 80.3214 113.663 79.8361 114.12C79.3601 114.568 79.0894 115.156 79.0241 115.884H84.2461C84.1807 115.156 83.9054 114.568 83.4201 114.12C82.9441 113.663 82.3467 113.434 81.6281 113.434ZM95.7524 116.192C96.7511 116.425 97.2504 117.027 97.2504 117.998C97.2504 118.642 97.0124 119.137 96.5364 119.482C96.0604 119.827 95.3511 120 94.4084 120H91.0624V112.636H94.3104C95.1504 112.636 95.8084 112.799 96.2844 113.126C96.7604 113.453 96.9984 113.919 96.9984 114.526C96.9984 114.927 96.8864 115.273 96.6624 115.562C96.4478 115.842 96.1444 116.052 95.7524 116.192ZM92.0284 115.912H94.2404C94.8098 115.912 95.2438 115.805 95.5424 115.59C95.8504 115.375 96.0044 115.063 96.0044 114.652C96.0044 114.241 95.8504 113.933 95.5424 113.728C95.2438 113.523 94.8098 113.42 94.2404 113.42H92.0284V115.912ZM94.3664 119.216C95.0011 119.216 95.4771 119.113 95.7944 118.908C96.1118 118.703 96.2704 118.381 96.2704 117.942C96.2704 117.503 96.1258 117.181 95.8364 116.976C95.5471 116.761 95.0898 116.654 94.4644 116.654H92.0284V119.216H94.3664ZM102.114 112.58C103.075 112.58 103.813 112.823 104.326 113.308C104.839 113.784 105.096 114.493 105.096 115.436V120H104.144V118.852C103.92 119.235 103.589 119.533 103.15 119.748C102.721 119.963 102.207 120.07 101.61 120.07C100.789 120.07 100.135 119.874 99.65 119.482C99.1647 119.09 98.922 118.572 98.922 117.928C98.922 117.303 99.146 116.799 99.594 116.416C100.051 116.033 100.775 115.842 101.764 115.842H104.102V115.394C104.102 114.759 103.925 114.279 103.57 113.952C103.215 113.616 102.697 113.448 102.016 113.448C101.549 113.448 101.101 113.527 100.672 113.686C100.243 113.835 99.874 114.045 99.566 114.316L99.118 113.574C99.4913 113.257 99.9393 113.014 100.462 112.846C100.985 112.669 101.535 112.58 102.114 112.58ZM101.764 119.286C102.324 119.286 102.805 119.16 103.206 118.908C103.607 118.647 103.906 118.273 104.102 117.788V116.584H101.792C100.532 116.584 99.902 117.023 99.902 117.9C99.902 118.329 100.065 118.67 100.392 118.922C100.719 119.165 101.176 119.286 101.764 119.286ZM117.906 112.636V120H107.742V112.636H108.736V119.132H112.348V112.636H113.342V119.132H116.912V112.636H117.906ZM12.494 137.07C11.766 137.07 11.1127 136.911 10.534 136.594C9.96467 136.277 9.51667 135.833 9.19 135.264C8.86333 134.685 8.7 134.037 8.7 133.318C8.7 132.599 8.86333 131.955 9.19 131.386C9.51667 130.817 9.96467 130.373 10.534 130.056C11.1127 129.739 11.766 129.58 12.494 129.58C13.1287 129.58 13.6933 129.706 14.188 129.958C14.692 130.201 15.0887 130.56 15.378 131.036L14.636 131.54C14.3933 131.176 14.0853 130.905 13.712 130.728C13.3387 130.541 12.9327 130.448 12.494 130.448C11.962 130.448 11.4813 130.569 11.052 130.812C10.632 131.045 10.3007 131.381 10.058 131.82C9.82467 132.259 9.708 132.758 9.708 133.318C9.708 133.887 9.82467 134.391 10.058 134.83C10.3007 135.259 10.632 135.595 11.052 135.838C11.4813 136.071 11.962 136.188 12.494 136.188C12.9327 136.188 13.3387 136.099 13.712 135.922C14.0853 135.745 14.3933 135.474 14.636 135.11L15.378 135.614C15.0887 136.09 14.692 136.454 14.188 136.706C13.684 136.949 13.1193 137.07 12.494 137.07ZM23.6196 133.626H17.4596C17.5156 134.391 17.8096 135.012 18.3416 135.488C18.8736 135.955 19.5456 136.188 20.3576 136.188C20.815 136.188 21.235 136.109 21.6176 135.95C22.0003 135.782 22.3316 135.539 22.6116 135.222L23.1716 135.866C22.845 136.258 22.4343 136.557 21.9396 136.762C21.4543 136.967 20.9176 137.07 20.3296 137.07C19.5736 137.07 18.9016 136.911 18.3136 136.594C17.735 136.267 17.2823 135.819 16.9556 135.25C16.629 134.681 16.4656 134.037 16.4656 133.318C16.4656 132.599 16.6196 131.955 16.9276 131.386C17.245 130.817 17.6743 130.373 18.2156 130.056C18.7663 129.739 19.3823 129.58 20.0636 129.58C20.745 129.58 21.3563 129.739 21.8976 130.056C22.439 130.373 22.8636 130.817 23.1716 131.386C23.4796 131.946 23.6336 132.59 23.6336 133.318L23.6196 133.626ZM20.0636 130.434C19.3543 130.434 18.757 130.663 18.2716 131.12C17.7956 131.568 17.525 132.156 17.4596 132.884H22.6816C22.6163 132.156 22.341 131.568 21.8556 131.12C21.3796 130.663 20.7823 130.434 20.0636 130.434ZM29.6279 129.58C30.3186 129.58 30.9439 129.739 31.5039 130.056C32.0639 130.364 32.5026 130.803 32.8199 131.372C33.1373 131.941 33.2959 132.59 33.2959 133.318C33.2959 134.055 33.1373 134.709 32.8199 135.278C32.5026 135.847 32.0639 136.291 31.5039 136.608C30.9533 136.916 30.3279 137.07 29.6279 137.07C29.0306 137.07 28.4893 136.949 28.0039 136.706C27.5279 136.454 27.1359 136.09 26.8279 135.614V139.716H25.8339V129.636H26.7859V131.092C27.0846 130.607 27.4766 130.233 27.9619 129.972C28.4566 129.711 29.0119 129.58 29.6279 129.58ZM29.5579 136.188C30.0713 136.188 30.5379 136.071 30.9579 135.838C31.3779 135.595 31.7046 135.255 31.9379 134.816C32.1806 134.377 32.3019 133.878 32.3019 133.318C32.3019 132.758 32.1806 132.263 31.9379 131.834C31.7046 131.395 31.3779 131.055 30.9579 130.812C30.5379 130.569 30.0713 130.448 29.5579 130.448C29.0353 130.448 28.5639 130.569 28.1439 130.812C27.7333 131.055 27.4066 131.395 27.1639 131.834C26.9306 132.263 26.8139 132.758 26.8139 133.318C26.8139 133.878 26.9306 134.377 27.1639 134.816C27.4066 135.255 27.7333 135.595 28.1439 135.838C28.5639 136.071 29.0353 136.188 29.5579 136.188ZM40.1216 133.192C41.1202 133.425 41.6196 134.027 41.6196 134.998C41.6196 135.642 41.3816 136.137 40.9056 136.482C40.4296 136.827 39.7202 137 38.7776 137H35.4316V129.636H38.6796C39.5196 129.636 40.1776 129.799 40.6536 130.126C41.1296 130.453 41.3676 130.919 41.3676 131.526C41.3676 131.927 41.2556 132.273 41.0316 132.562C40.8169 132.842 40.5136 133.052 40.1216 133.192ZM36.3976 132.912H38.6096C39.1789 132.912 39.6129 132.805 39.9116 132.59C40.2196 132.375 40.3736 132.063 40.3736 131.652C40.3736 131.241 40.2196 130.933 39.9116 130.728C39.6129 130.523 39.1789 130.42 38.6096 130.42H36.3976V132.912ZM38.7356 136.216C39.3702 136.216 39.8462 136.113 40.1636 135.908C40.4809 135.703 40.6396 135.381 40.6396 134.942C40.6396 134.503 40.4949 134.181 40.2056 133.976C39.9162 133.761 39.4589 133.654 38.8336 133.654H36.3976V136.216H38.7356ZM43.9492 129.636H44.9432V135.488L49.8572 129.636H50.7392V137H49.7452V131.148L44.8452 137H43.9492V129.636ZM56.6678 137.07C55.9398 137.07 55.2865 136.911 54.7078 136.594C54.1385 136.277 53.6905 135.833 53.3638 135.264C53.0372 134.685 52.8738 134.037 52.8738 133.318C52.8738 132.599 53.0372 131.955 53.3638 131.386C53.6905 130.817 54.1385 130.373 54.7078 130.056C55.2865 129.739 55.9398 129.58 56.6678 129.58C57.3025 129.58 57.8672 129.706 58.3618 129.958C58.8658 130.201 59.2625 130.56 59.5518 131.036L58.8098 131.54C58.5672 131.176 58.2592 130.905 57.8858 130.728C57.5125 130.541 57.1065 130.448 56.6678 130.448C56.1358 130.448 55.6552 130.569 55.2258 130.812C54.8058 131.045 54.4745 131.381 54.2318 131.82C53.9985 132.259 53.8818 132.758 53.8818 133.318C53.8818 133.887 53.9985 134.391 54.2318 134.83C54.4745 135.259 54.8058 135.595 55.2258 135.838C55.6552 136.071 56.1358 136.188 56.6678 136.188C57.1065 136.188 57.5125 136.099 57.8858 135.922C58.2592 135.745 58.5672 135.474 58.8098 135.11L59.5518 135.614C59.2625 136.09 58.8658 136.454 58.3618 136.706C57.8578 136.949 57.2932 137.07 56.6678 137.07ZM62.956 134.06C62.956 133.677 63.0167 133.341 63.138 133.052C63.2687 132.763 63.4273 132.515 63.614 132.31C63.8007 132.105 64.0433 131.871 64.342 131.61C64.7433 131.255 65.0373 130.947 65.224 130.686C65.42 130.415 65.518 130.089 65.518 129.706C65.518 129.193 65.3173 128.782 64.916 128.474C64.5147 128.157 63.964 127.998 63.264 127.998C62.1067 127.998 61.2153 128.376 60.59 129.132L59.848 128.572C60.6413 127.601 61.8033 127.116 63.334 127.116C64.314 127.116 65.0933 127.335 65.672 127.774C66.26 128.213 66.554 128.805 66.554 129.552C66.554 129.935 66.4887 130.275 66.358 130.574C66.2367 130.863 66.0827 131.111 65.896 131.316C65.7187 131.521 65.4807 131.759 65.182 132.03C64.7807 132.394 64.482 132.721 64.286 133.01C64.09 133.29 63.992 133.64 63.992 134.06H62.956ZM63.474 137.07C63.2687 137.07 63.096 137 62.956 136.86C62.816 136.711 62.746 136.538 62.746 136.342C62.746 136.137 62.816 135.969 62.956 135.838C63.096 135.698 63.2687 135.628 63.474 135.628C63.6887 135.628 63.866 135.698 64.006 135.838C64.146 135.969 64.216 136.137 64.216 136.342C64.216 136.538 64.1413 136.711 63.992 136.86C63.852 137 63.6793 137.07 63.474 137.07Z" fill="#333E63"/>
<defs>
<filter id="filter0_d_507_4759" x="0" y="0" width="143" height="178" filterUnits="userSpaceOnUse" color-interpolation-filters="sRGB">
<feFlood flood-opacity="0" result="BackgroundImageFix"/>
<feColorMatrix in="SourceAlpha" type="matrix" values="0 0 0 0 0 0 0 0 0 0 0 0 0 0 0 0 0 0 127 0" result="hardAlpha"/>
<feOffset dx="5" dy="5"/>
<feComposite in2="hardAlpha" operator="out"/>
<feColorMatrix type="matrix" values="0 0 0 0 0.2 0 0 0 0 0.243137 0 0 0 0 0.388235 0 0 0 1 0"/>
<feBlend mode="normal" in2="BackgroundImageFix" result="effect1_dropShadow_507_4759"/>
<feBlend mode="normal" in="SourceGraphic" in2="effect1_dropShadow_507_4759" result="shape"/>
</filter>
</defs>
</svg>
