<svg width="651" height="491" viewBox="0 0 651 491" fill="none" xmlns="http://www.w3.org/2000/svg">
<path d="M86.1658 459.704L85.2561 464.398C85.2561 464.398 74.2091 477.699 71.9998 479.786C69.7904 481.872 69.2705 488.914 69.2705 488.914H112.808C112.808 488.914 115.278 479.786 115.018 477.047C114.758 474.309 114.758 466.615 114.758 466.615L86.1658 459.704Z" fill="white" stroke="#263238" stroke-miterlimit="10"/>
<path d="M70.3102 483.437C69.7904 485.263 69.5304 487.219 69.2705 489.044H112.808C112.808 489.044 113.588 486.306 114.108 483.437H70.3102Z" fill="white" stroke="#263238" stroke-linecap="round" stroke-linejoin="round"/>
<path d="M175.451 459.704L176.361 464.398C176.361 464.398 187.408 477.699 189.617 479.786C191.827 481.872 192.346 488.914 192.346 488.914H148.809C148.809 488.914 146.339 479.786 146.599 477.047C146.859 474.309 146.859 466.615 146.859 466.615L175.451 459.704Z" fill="white" stroke="#263238" stroke-miterlimit="10"/>
<path d="M191.307 483.437C191.826 485.263 192.086 487.219 192.346 489.044H148.808C148.808 489.044 148.029 486.306 147.509 483.437H191.307Z" fill="white" stroke="#263238" stroke-linecap="round" stroke-linejoin="round"/>
<path d="M172.982 374.553L176.101 251.456L131.914 242.458H129.704L85.5166 251.456L88.6357 374.553L90.1953 452.01L85.9065 455.531L86.1664 459.704L114.758 466.746C114.758 466.746 115.408 455.792 115.668 454.227C115.928 452.793 114.758 446.534 114.758 445.36C114.758 444.186 124.246 342.996 124.246 342.996L127.885 286.924L130.744 286.272L133.603 286.924L137.242 342.996C137.242 342.996 146.73 444.186 146.73 445.36C146.73 446.534 145.56 452.793 145.82 454.227C146.08 455.662 146.73 466.746 146.73 466.746L175.322 459.574L175.582 455.401L171.293 451.88L172.982 374.553Z" fill="#263238" stroke="#263238" stroke-linecap="round" stroke-linejoin="round"/>
<path d="M63.8122 163.045L60.693 175.172L41.3284 153.786C41.3284 153.786 39.7688 143.746 38.5992 142.572C37.4295 141.398 32.7508 139.312 29.6317 137.878C26.5125 136.443 22.2237 135.27 20.6642 132.792C19.1046 130.314 16.1154 131.358 18.1948 134.878C19.7544 137.226 21.8338 139.182 24.3031 140.486C24.3031 140.486 13.906 140.225 12.3465 139.573C10.7869 138.921 2.8591 133.053 1.03961 135.4C-0.779885 137.747 3.249 140.746 4.15874 142.833C5.06849 144.919 13.3862 150.266 20.6642 154.438C25.4728 157.177 30.5414 159.524 35.74 161.61C35.74 161.61 60.0432 200.209 63.9421 203.469C67.841 206.729 74.0793 210.641 76.1587 207.381C78.2382 204.121 82.9169 193.428 82.9169 193.428L83.8266 170.347L63.8122 163.045Z" fill="white" stroke="#263238" stroke-linecap="round" stroke-linejoin="round"/>
<path d="M35.6102 155.873C35.6102 155.873 30.6716 149.353 28.8521 148.44C27.0326 147.527 9.22754 141.92 9.22754 141.92" stroke="#263238" stroke-linecap="round" stroke-linejoin="round"/>
<path d="M60.6934 175.172L75.7692 184.691" stroke="#263238" stroke-linecap="round" stroke-linejoin="round"/>
<path d="M187.928 157.698L191.827 195.775L196.376 262.8C196.376 262.8 200.015 278.579 200.405 279.752C200.794 280.926 199.755 298.139 199.235 299.964C198.325 302.051 196.766 303.876 194.946 305.311C193.776 305.963 190.007 305.311 190.917 303.876C191.827 302.442 193.646 300.616 193.646 299.443V291.749C193.646 289.663 190.007 284.056 190.007 284.056C190.007 284.056 190.267 293.184 190.267 295.27C190.267 297.356 190.267 298.269 188.708 297.878C187.148 297.487 185.589 296.965 185.589 294.618C185.589 292.271 184.419 286.272 184.029 284.186C183.639 282.1 182.47 280.665 182.859 278.84C183.249 277.014 187.148 263.713 187.148 263.713L173.372 218.334L170.253 175.563L187.928 157.698Z" fill="white" stroke="#263238" stroke-linecap="round" stroke-linejoin="round"/>
<path d="M105.79 98.8882L66.9311 116.883L58.4834 166.696L80.3173 178.041L83.5664 258.628C83.6964 260.845 85.3859 262.54 87.5953 262.67L124.245 262.801L131.133 262.67L136.202 262.279L173.242 254.455C175.581 253.803 177.14 251.717 177.01 249.37L174.021 181.301L192.866 170.086L183.249 114.667L145.819 96.8018L105.79 98.8882Z" fill="#B0BEC5" stroke="#263238" stroke-miterlimit="10"/>
<path d="M174.281 181.04L171.552 147.788" stroke="#263238" stroke-linecap="round" stroke-linejoin="round"/>
<path d="M80.4482 178.562L78.8887 139.051" stroke="#263238" stroke-linecap="round" stroke-linejoin="round"/>
<path d="M117.227 89.3689C117.227 89.3689 110.859 93.5417 110.339 95.3673C109.949 96.9321 109.69 98.3664 109.56 99.9312C109.56 99.9312 113.329 135.139 114.498 134.487C115.668 133.835 125.805 121.056 127.755 118.839C129.834 116.622 133.343 116.362 134.123 117.014C134.903 117.666 149.069 136.052 150.238 133.314C151.408 130.575 148.809 103.582 145.43 96.5408C142.051 89.3689 120.477 86.3697 117.227 89.3689Z" fill="white" stroke="#263238" stroke-miterlimit="10"/>
<path d="M114.368 80.3711L116.058 100.192C116.058 100.192 125.675 129.662 131.393 128.228C137.112 126.793 143.87 98.4967 144.13 97.8447C144.26 97.1927 144.78 85.9783 144.78 85.9783C144.78 85.9783 145.3 89.2383 133.213 86.4999C126.715 85.1959 120.476 83.2399 114.368 80.3711Z" fill="white" stroke="#263238" stroke-miterlimit="10"/>
<path d="M140.231 94.063L129.184 87.0214L118.657 78.5454L117.228 82.1966L113.979 95.8886L116.188 100.322L140.231 94.063Z" fill="#263238" stroke="#263238" stroke-linecap="round" stroke-linejoin="round"/>
<path d="M101.372 37.4695L103.061 57.9423C103.061 57.9423 98.6426 54.6823 98.6426 61.2023C98.6426 67.7223 99.6823 73.1991 102.022 73.8511C103.581 74.2423 105.141 74.6335 106.7 74.7639C106.7 74.7639 107.74 82.8486 110.079 84.8046C112.419 86.7606 125.155 93.9326 127.625 95.2366C130.094 96.5406 137.372 95.6278 139.061 94.8454C140.751 94.063 146.729 83.7614 148.159 80.8927C149.588 78.0239 150.498 66.9399 150.498 66.9399C150.498 66.9399 149.199 47.3799 149.199 41.9031C149.199 36.4263 149.588 31.2103 146.859 27.2984C144.13 23.3864 133.083 17.5184 121.646 19.8656C110.209 22.2128 100.332 24.56 101.372 37.4695Z" fill="white" stroke="#263238" stroke-linecap="round" stroke-linejoin="round"/>
<path d="M133.675 57.24C133.675 57.24 133.397 64.1281 133.958 65.2526C134.499 66.2584 140.201 68.8157 139.496 70.4031C138.792 71.9905 132.873 73.135 132.873 73.135" stroke="#263238" stroke-miterlimit="10"/>
<path d="M128.924 53.3785C128.924 53.3785 121.906 50.7706 116.188 55.3345" stroke="#263238" stroke-linecap="round" stroke-linejoin="round"/>
<path d="M138.281 52.7263C138.281 52.7263 144 49.0751 147.379 52.7263" stroke="#263238" stroke-linecap="round" stroke-linejoin="round"/>
<path d="M125.935 59.6378C125.935 61.0722 125.025 62.2458 123.856 62.2458C122.686 62.2458 121.906 61.0722 121.906 59.6378C121.906 58.2034 122.816 57.0298 123.856 57.0298C125.025 57.0298 125.935 58.2034 125.935 59.6378Z" fill="#263238"/>
<path d="M144 62.2458C145.149 62.2458 146.08 61.0781 146.08 59.6378C146.08 58.1974 145.149 57.0298 144 57.0298C142.852 57.0298 141.921 58.1974 141.921 59.6378C141.921 61.0781 142.852 62.2458 144 62.2458Z" fill="#263238"/>
<path d="M134.253 82.7183C135.402 82.7183 136.333 82.1345 136.333 81.4143C136.333 80.6942 135.402 80.1104 134.253 80.1104C133.105 80.1104 132.174 80.6942 132.174 81.4143C132.174 82.1345 133.105 82.7183 134.253 82.7183Z" fill="#263238"/>
<path d="M119.567 25.6033C119.567 25.6033 112.419 37.0785 107.87 40.3385L103.321 43.7289C103.321 43.7289 106.44 59.3769 105.661 60.2897C105.011 61.2025 104.101 61.4632 103.841 60.1593C103.581 58.8553 103.321 57.5513 102.282 57.0297C101.242 56.5081 97.9928 54.9433 97.9928 54.9433L93.3141 39.9473C93.3141 39.9473 88.7654 34.4705 90.5849 30.2977C92.2744 26.1249 97.343 19.2137 97.343 19.2137C97.343 19.2137 94.8737 18.1705 96.1733 16.3449C97.473 14.5193 108.91 15.5625 108.91 15.5625C108.91 15.5625 110.469 9.82494 114.108 9.30334C117.747 8.78174 117.617 9.95534 117.617 9.95534C117.617 9.95534 131.264 4.86975 138.801 5.65215C146.339 6.43454 167.524 27.4289 164.924 29.6457C162.455 31.9929 154.397 33.0361 154.397 33.0361C154.397 33.0361 152.188 54.4217 151.278 54.6825L150.238 54.9433L148.419 35.9049C148.289 36.1657 125.415 30.6889 119.567 25.6033Z" fill="#263238" stroke="#263238" stroke-miterlimit="10"/>
<g filter="url(#filter0_d_1111_2753)">
<path d="M192 74.4367L241.036 48.9413V10.2711C241.036 5.14759 245.194 1 250.329 1H635.706C640.842 1 645 5.14759 645 10.2711V93.7289C645 98.8524 640.842 103 635.706 103H250.452C245.316 103 241.158 98.8524 241.158 93.7289V63.2139L192 74.4367Z" fill="white"/>
<path d="M191.769 73.9931C191.546 74.1092 191.444 74.373 191.531 74.6091C191.617 74.8453 191.866 74.9802 192.111 74.9242L240.658 63.8409V93.7289C240.658 99.1297 245.041 103.5 250.452 103.5H635.706C641.117 103.5 645.5 99.1297 645.5 93.7289V10.2711C645.5 4.87031 641.117 0.5 635.706 0.5H250.329C244.919 0.5 240.536 4.87031 240.536 10.2711V48.6377L191.769 73.9931Z" stroke="#333E63" stroke-linecap="round" stroke-linejoin="round"/>
</g>
<path d="M270.052 18.4V31H268.738V27.184H264.976C264.808 27.184 264.568 27.172 264.256 27.148L261.61 31H260.188L263.05 26.914C262.126 26.638 261.418 26.152 260.926 25.456C260.434 24.748 260.188 23.884 260.188 22.864C260.188 21.448 260.632 20.35 261.52 19.57C262.42 18.79 263.632 18.4 265.156 18.4H270.052ZM261.52 22.828C261.52 23.86 261.82 24.658 262.42 25.222C263.032 25.774 263.92 26.05 265.084 26.05H268.738V19.552H265.21C264.034 19.552 263.122 19.834 262.474 20.398C261.838 20.95 261.52 21.76 261.52 22.828ZM287.209 21.532V31H285.931V22.666H279.991V31H278.713V21.532H287.209ZM294.747 31.09C293.835 31.09 293.013 30.886 292.281 30.478C291.549 30.058 290.973 29.482 290.553 28.75C290.133 28.018 289.923 27.19 289.923 26.266C289.923 25.342 290.133 24.514 290.553 23.782C290.973 23.05 291.549 22.48 292.281 22.072C293.013 21.664 293.835 21.46 294.747 21.46C295.659 21.46 296.481 21.664 297.213 22.072C297.945 22.48 298.515 23.05 298.923 23.782C299.343 24.514 299.553 25.342 299.553 26.266C299.553 27.19 299.343 28.018 298.923 28.75C298.515 29.482 297.945 30.058 297.213 30.478C296.481 30.886 295.659 31.09 294.747 31.09ZM294.747 29.956C295.419 29.956 296.019 29.806 296.547 29.506C297.087 29.194 297.507 28.756 297.807 28.192C298.107 27.628 298.257 26.986 298.257 26.266C298.257 25.546 298.107 24.904 297.807 24.34C297.507 23.776 297.087 23.344 296.547 23.044C296.019 22.732 295.419 22.576 294.747 22.576C294.075 22.576 293.469 22.732 292.929 23.044C292.401 23.344 291.981 23.776 291.669 24.34C291.369 24.904 291.219 25.546 291.219 26.266C291.219 26.986 291.369 27.628 291.669 28.192C291.981 28.756 292.401 29.194 292.929 29.506C293.469 29.806 294.075 29.956 294.747 29.956ZM311.466 29.884V33.286H310.26V31H301.782V33.286H300.576V29.884H301.116C301.752 29.848 302.184 29.38 302.412 28.48C302.64 27.58 302.796 26.32 302.88 24.7L303.006 21.532H309.99V29.884H311.466ZM304.05 24.772C303.99 26.116 303.876 27.226 303.708 28.102C303.54 28.966 303.24 29.56 302.808 29.884H308.712V22.666H304.158L304.05 24.772ZM322.003 21.532L317.269 32.134C316.885 33.022 316.441 33.652 315.937 34.024C315.433 34.396 314.827 34.582 314.119 34.582C313.663 34.582 313.237 34.51 312.841 34.366C312.445 34.222 312.103 34.006 311.815 33.718L312.409 32.764C312.889 33.244 313.465 33.484 314.137 33.484C314.569 33.484 314.935 33.364 315.235 33.124C315.547 32.884 315.835 32.476 316.099 31.9L316.513 30.982L312.283 21.532H313.615L317.179 29.578L320.743 21.532H322.003ZM334.578 21.532V31H333.408V23.512L329.574 29.848H328.998L325.164 23.494V31H323.994V21.532H325.29L329.304 28.354L333.39 21.532H334.578ZM342.192 24.88C343.38 24.892 344.286 25.156 344.91 25.672C345.534 26.188 345.846 26.932 345.846 27.904C345.846 28.912 345.51 29.686 344.838 30.226C344.166 30.766 343.206 31.03 341.958 31.018L338.214 31V21.532H339.492V24.844L342.192 24.88ZM347.43 21.532H348.708V31H347.43V21.532ZM341.886 30.046C342.762 30.058 343.422 29.884 343.866 29.524C344.322 29.152 344.55 28.612 344.55 27.904C344.55 27.208 344.328 26.692 343.884 26.356C343.44 26.02 342.774 25.846 341.886 25.834L339.492 25.798V30.01L341.886 30.046ZM358.377 26.104C359.661 26.404 360.303 27.178 360.303 28.426C360.303 29.254 359.997 29.89 359.385 30.334C358.773 30.778 357.861 31 356.649 31H352.347V21.532H356.523C357.603 21.532 358.449 21.742 359.061 22.162C359.673 22.582 359.979 23.182 359.979 23.962C359.979 24.478 359.835 24.922 359.547 25.294C359.271 25.654 358.881 25.924 358.377 26.104ZM353.589 25.744H356.433C357.165 25.744 357.723 25.606 358.107 25.33C358.503 25.054 358.701 24.652 358.701 24.124C358.701 23.596 358.503 23.2 358.107 22.936C357.723 22.672 357.165 22.54 356.433 22.54H353.589V25.744ZM356.595 29.992C357.411 29.992 358.023 29.86 358.431 29.596C358.839 29.332 359.043 28.918 359.043 28.354C359.043 27.79 358.857 27.376 358.485 27.112C358.113 26.836 357.525 26.698 356.721 26.698H353.589V29.992H356.595ZM366.556 21.46C367.792 21.46 368.74 21.772 369.4 22.396C370.06 23.008 370.39 23.92 370.39 25.132V31H369.166V29.524C368.878 30.016 368.452 30.4 367.888 30.676C367.336 30.952 366.676 31.09 365.908 31.09C364.852 31.09 364.012 30.838 363.388 30.334C362.764 29.83 362.452 29.164 362.452 28.336C362.452 27.532 362.74 26.884 363.316 26.392C363.904 25.9 364.834 25.654 366.106 25.654H369.112V25.078C369.112 24.262 368.884 23.644 368.428 23.224C367.972 22.792 367.306 22.576 366.43 22.576C365.83 22.576 365.254 22.678 364.702 22.882C364.15 23.074 363.676 23.344 363.28 23.692L362.704 22.738C363.184 22.33 363.76 22.018 364.432 21.802C365.104 21.574 365.812 21.46 366.556 21.46ZM366.106 30.082C366.826 30.082 367.444 29.92 367.96 29.596C368.476 29.26 368.86 28.78 369.112 28.156V26.608H366.142C364.522 26.608 363.712 27.172 363.712 28.3C363.712 28.852 363.922 29.29 364.342 29.614C364.762 29.926 365.35 30.082 366.106 30.082ZM381.929 21.46C382.817 21.46 383.615 21.664 384.323 22.072C385.043 22.48 385.607 23.05 386.015 23.782C386.423 24.514 386.627 25.342 386.627 26.266C386.627 27.19 386.423 28.018 386.015 28.75C385.607 29.482 385.043 30.058 384.323 30.478C383.615 30.886 382.817 31.09 381.929 31.09C381.089 31.09 380.327 30.91 379.643 30.55C378.959 30.178 378.401 29.668 377.969 29.02C377.549 28.372 377.303 27.628 377.231 26.788H375.071V31H373.793V21.532H375.071V25.618H377.249C377.345 24.802 377.603 24.082 378.023 23.458C378.455 22.822 379.007 22.33 379.679 21.982C380.351 21.634 381.101 21.46 381.929 21.46ZM381.929 29.974C382.577 29.974 383.159 29.818 383.675 29.506C384.203 29.194 384.617 28.756 384.917 28.192C385.217 27.628 385.367 26.986 385.367 26.266C385.367 25.546 385.217 24.904 384.917 24.34C384.617 23.776 384.203 23.344 383.675 23.044C383.159 22.732 382.577 22.576 381.929 22.576C381.281 22.576 380.693 22.732 380.165 23.044C379.649 23.344 379.241 23.776 378.941 24.34C378.641 24.904 378.491 25.546 378.491 26.266C378.491 26.986 378.641 27.628 378.941 28.192C379.241 28.756 379.649 29.194 380.165 29.506C380.693 29.818 381.281 29.974 381.929 29.974ZM402.574 21.532V31H401.296V22.666H395.356V31H394.078V21.532H402.574ZM411.085 21.46C411.973 21.46 412.777 21.664 413.497 22.072C414.217 22.468 414.781 23.032 415.189 23.764C415.597 24.496 415.801 25.33 415.801 26.266C415.801 27.214 415.597 28.054 415.189 28.786C414.781 29.518 414.217 30.088 413.497 30.496C412.789 30.892 411.985 31.09 411.085 31.09C410.317 31.09 409.621 30.934 408.997 30.622C408.385 30.298 407.881 29.83 407.485 29.218V34.492H406.207V21.532H407.431V23.404C407.815 22.78 408.319 22.3 408.943 21.964C409.579 21.628 410.293 21.46 411.085 21.46ZM410.995 29.956C411.655 29.956 412.255 29.806 412.795 29.506C413.335 29.194 413.755 28.756 414.055 28.192C414.367 27.628 414.523 26.986 414.523 26.266C414.523 25.546 414.367 24.91 414.055 24.358C413.755 23.794 413.335 23.356 412.795 23.044C412.255 22.732 411.655 22.576 410.995 22.576C410.323 22.576 409.717 22.732 409.177 23.044C408.649 23.356 408.229 23.794 407.917 24.358C407.617 24.91 407.467 25.546 407.467 26.266C407.467 26.986 407.617 27.628 407.917 28.192C408.229 28.756 408.649 29.194 409.177 29.506C409.717 29.806 410.323 29.956 410.995 29.956ZM422.453 31.09C421.541 31.09 420.719 30.886 419.987 30.478C419.255 30.058 418.679 29.482 418.259 28.75C417.839 28.018 417.629 27.19 417.629 26.266C417.629 25.342 417.839 24.514 418.259 23.782C418.679 23.05 419.255 22.48 419.987 22.072C420.719 21.664 421.541 21.46 422.453 21.46C423.365 21.46 424.187 21.664 424.919 22.072C425.651 22.48 426.221 23.05 426.629 23.782C427.049 24.514 427.259 25.342 427.259 26.266C427.259 27.19 427.049 28.018 426.629 28.75C426.221 29.482 425.651 30.058 424.919 30.478C424.187 30.886 423.365 31.09 422.453 31.09ZM422.453 29.956C423.125 29.956 423.725 29.806 424.253 29.506C424.793 29.194 425.213 28.756 425.513 28.192C425.813 27.628 425.963 26.986 425.963 26.266C425.963 25.546 425.813 24.904 425.513 24.34C425.213 23.776 424.793 23.344 424.253 23.044C423.725 22.732 423.125 22.576 422.453 22.576C421.781 22.576 421.175 22.732 420.635 23.044C420.107 23.344 419.687 23.776 419.375 24.34C419.075 24.904 418.925 25.546 418.925 26.266C418.925 26.986 419.075 27.628 419.375 28.192C419.687 28.756 420.107 29.194 420.635 29.506C421.175 29.806 421.781 29.956 422.453 29.956ZM429.99 21.532H431.268V29.056L437.586 21.532H438.72V31H437.442V23.476L431.142 31H429.99V21.532ZM434.292 20.164C433.476 20.164 432.828 19.96 432.348 19.552C431.868 19.144 431.622 18.568 431.61 17.824H432.528C432.54 18.292 432.708 18.67 433.032 18.958C433.356 19.234 433.776 19.372 434.292 19.372C434.808 19.372 435.228 19.234 435.552 18.958C435.888 18.67 436.062 18.292 436.074 17.824H436.992C436.98 18.568 436.728 19.144 436.236 19.552C435.756 19.96 435.108 20.164 434.292 20.164ZM449.042 22.666H445.46V31H444.182V22.666H440.6V21.532H449.042V22.666ZM450.89 21.532H452.168V29.056L458.486 21.532H459.62V31H458.342V23.476L452.042 31H450.89V21.532ZM471.9 31.09C470.988 31.09 470.166 30.886 469.434 30.478C468.702 30.058 468.126 29.482 467.706 28.75C467.286 28.018 467.076 27.19 467.076 26.266C467.076 25.342 467.286 24.514 467.706 23.782C468.126 23.05 468.702 22.48 469.434 22.072C470.166 21.664 470.988 21.46 471.9 21.46C472.812 21.46 473.634 21.664 474.366 22.072C475.098 22.48 475.668 23.05 476.076 23.782C476.496 24.514 476.706 25.342 476.706 26.266C476.706 27.19 476.496 28.018 476.076 28.75C475.668 29.482 475.098 30.058 474.366 30.478C473.634 30.886 472.812 31.09 471.9 31.09ZM471.9 29.956C472.572 29.956 473.172 29.806 473.7 29.506C474.24 29.194 474.66 28.756 474.96 28.192C475.26 27.628 475.41 26.986 475.41 26.266C475.41 25.546 475.26 24.904 474.96 24.34C474.66 23.776 474.24 23.344 473.7 23.044C473.172 22.732 472.572 22.576 471.9 22.576C471.228 22.576 470.622 22.732 470.082 23.044C469.554 23.344 469.134 23.776 468.822 24.34C468.522 24.904 468.372 25.546 468.372 26.266C468.372 26.986 468.522 27.628 468.822 28.192C469.134 28.756 469.554 29.194 470.082 29.506C470.622 29.806 471.228 29.956 471.9 29.956ZM488.618 29.884V33.286H487.412V31H478.934V33.286H477.728V29.884H478.268C478.904 29.848 479.336 29.38 479.564 28.48C479.792 27.58 479.948 26.32 480.032 24.7L480.158 21.532H487.142V29.884H488.618ZM481.202 24.772C481.142 26.116 481.028 27.226 480.86 28.102C480.692 28.966 480.392 29.56 479.96 29.884H485.864V22.666H481.31L481.202 24.772ZM491.109 21.532H492.387V25.726H498.345V21.532H499.623V31H498.345V26.824H492.387V31H491.109V21.532ZM507.162 31.09C506.25 31.09 505.428 30.886 504.696 30.478C503.964 30.058 503.388 29.482 502.968 28.75C502.548 28.018 502.338 27.19 502.338 26.266C502.338 25.342 502.548 24.514 502.968 23.782C503.388 23.05 503.964 22.48 504.696 22.072C505.428 21.664 506.25 21.46 507.162 21.46C508.074 21.46 508.896 21.664 509.628 22.072C510.36 22.48 510.93 23.05 511.338 23.782C511.758 24.514 511.968 25.342 511.968 26.266C511.968 27.19 511.758 28.018 511.338 28.75C510.93 29.482 510.36 30.058 509.628 30.478C508.896 30.886 508.074 31.09 507.162 31.09ZM507.162 29.956C507.834 29.956 508.434 29.806 508.962 29.506C509.502 29.194 509.922 28.756 510.222 28.192C510.522 27.628 510.672 26.986 510.672 26.266C510.672 25.546 510.522 24.904 510.222 24.34C509.922 23.776 509.502 23.344 508.962 23.044C508.434 22.732 507.834 22.576 507.162 22.576C506.49 22.576 505.884 22.732 505.344 23.044C504.816 23.344 504.396 23.776 504.083 24.34C503.784 24.904 503.634 25.546 503.634 26.266C503.634 26.986 503.784 27.628 504.083 28.192C504.396 28.756 504.816 29.194 505.344 29.506C505.884 29.806 506.49 29.956 507.162 29.956ZM523.316 31.09C522.404 31.09 521.582 30.886 520.85 30.478C520.118 30.058 519.542 29.482 519.122 28.75C518.702 28.018 518.492 27.19 518.492 26.266C518.492 25.342 518.702 24.514 519.122 23.782C519.542 23.05 520.118 22.48 520.85 22.072C521.582 21.664 522.404 21.46 523.316 21.46C524.228 21.46 525.05 21.664 525.782 22.072C526.514 22.48 527.084 23.05 527.492 23.782C527.912 24.514 528.122 25.342 528.122 26.266C528.122 27.19 527.912 28.018 527.492 28.75C527.084 29.482 526.514 30.058 525.782 30.478C525.05 30.886 524.228 31.09 523.316 31.09ZM523.316 29.956C523.988 29.956 524.588 29.806 525.116 29.506C525.656 29.194 526.076 28.756 526.376 28.192C526.676 27.628 526.826 26.986 526.826 26.266C526.826 25.546 526.676 24.904 526.376 24.34C526.076 23.776 525.656 23.344 525.116 23.044C524.588 22.732 523.988 22.576 523.316 22.576C522.644 22.576 522.038 22.732 521.498 23.044C520.97 23.344 520.55 23.776 520.238 24.34C519.938 24.904 519.788 25.546 519.788 26.266C519.788 26.986 519.938 27.628 520.238 28.192C520.55 28.756 520.97 29.194 521.498 29.506C522.038 29.806 522.644 29.956 523.316 29.956ZM535.443 21.766C536.319 21.766 537.099 21.964 537.783 22.36C538.479 22.744 539.019 23.29 539.403 23.998C539.787 24.694 539.979 25.492 539.979 26.392C539.979 27.316 539.775 28.138 539.367 28.858C538.971 29.566 538.413 30.118 537.693 30.514C536.973 30.91 536.145 31.108 535.209 31.108C533.637 31.108 532.419 30.556 531.555 29.452C530.691 28.348 530.259 26.824 530.259 24.88C530.259 22.852 530.643 21.298 531.411 20.218C532.191 19.138 533.403 18.406 535.047 18.022L539.295 17.05L539.511 18.22L535.515 19.138C534.159 19.438 533.163 19.972 532.527 20.74C531.891 21.496 531.543 22.618 531.483 24.106C531.867 23.374 532.401 22.804 533.085 22.396C533.769 21.976 534.555 21.766 535.443 21.766ZM535.245 30.046C535.905 30.046 536.493 29.896 537.009 29.596C537.537 29.284 537.945 28.852 538.233 28.3C538.533 27.748 538.683 27.124 538.683 26.428C538.683 25.732 538.539 25.12 538.251 24.592C537.963 24.064 537.555 23.656 537.027 23.368C536.511 23.068 535.917 22.918 535.245 22.918C534.573 22.918 533.973 23.068 533.445 23.368C532.929 23.656 532.521 24.064 532.221 24.592C531.933 25.12 531.789 25.732 531.789 26.428C531.789 27.124 531.933 27.748 532.221 28.3C532.521 28.852 532.935 29.284 533.463 29.596C533.991 29.896 534.585 30.046 535.245 30.046ZM550.501 21.532L545.767 32.134C545.383 33.022 544.939 33.652 544.435 34.024C543.931 34.396 543.325 34.582 542.617 34.582C542.161 34.582 541.735 34.51 541.339 34.366C540.943 34.222 540.601 34.006 540.313 33.718L540.907 32.764C541.387 33.244 541.963 33.484 542.635 33.484C543.067 33.484 543.433 33.364 543.733 33.124C544.045 32.884 544.333 32.476 544.597 31.9L545.011 30.982L540.781 21.532H542.113L545.677 29.578L549.241 21.532H550.501ZM559.638 21.532V31H558.36V27.058C557.268 27.538 556.194 27.778 555.138 27.778C553.998 27.778 553.11 27.52 552.474 27.004C551.838 26.476 551.52 25.69 551.52 24.646V21.532H552.798V24.574C552.798 25.282 553.026 25.822 553.482 26.194C553.938 26.554 554.568 26.734 555.372 26.734C556.26 26.734 557.256 26.5 558.36 26.032V21.532H559.638ZM571.547 26.662H563.627C563.699 27.646 564.077 28.444 564.761 29.056C565.445 29.656 566.309 29.956 567.353 29.956C567.941 29.956 568.481 29.854 568.973 29.65C569.465 29.434 569.891 29.122 570.251 28.714L570.971 29.542C570.551 30.046 570.023 30.43 569.387 30.694C568.763 30.958 568.073 31.09 567.317 31.09C566.345 31.09 565.481 30.886 564.725 30.478C563.981 30.058 563.399 29.482 562.979 28.75C562.559 28.018 562.349 27.19 562.349 26.266C562.349 25.342 562.547 24.514 562.943 23.782C563.351 23.05 563.903 22.48 564.599 22.072C565.307 21.664 566.099 21.46 566.975 21.46C567.851 21.46 568.637 21.664 569.333 22.072C570.029 22.48 570.575 23.05 570.971 23.782C571.367 24.502 571.565 25.33 571.565 26.266L571.547 26.662ZM566.975 22.558C566.063 22.558 565.295 22.852 564.671 23.44C564.059 24.016 563.711 24.772 563.627 25.708H570.341C570.257 24.772 569.903 24.016 569.279 23.44C568.667 22.852 567.899 22.558 566.975 22.558ZM574.394 21.532H575.672V25.726H581.63V21.532H582.908V31H581.63V26.824H575.672V31H574.394V21.532ZM586.541 21.532H587.819V29.056L594.137 21.532H595.271V31H593.993V23.476L587.693 31H586.541V21.532ZM607.213 26.662H599.293C599.365 27.646 599.743 28.444 600.427 29.056C601.111 29.656 601.975 29.956 603.019 29.956C603.607 29.956 604.147 29.854 604.639 29.65C605.131 29.434 605.557 29.122 605.917 28.714L606.637 29.542C606.217 30.046 605.689 30.43 605.053 30.694C604.429 30.958 603.739 31.09 602.983 31.09C602.011 31.09 601.147 30.886 600.391 30.478C599.647 30.058 599.065 29.482 598.645 28.75C598.225 28.018 598.015 27.19 598.015 26.266C598.015 25.342 598.213 24.514 598.609 23.782C599.017 23.05 599.569 22.48 600.265 22.072C600.973 21.664 601.765 21.46 602.641 21.46C603.517 21.46 604.303 21.664 604.999 22.072C605.695 22.48 606.241 23.05 606.637 23.782C607.033 24.502 607.231 25.33 607.231 26.266L607.213 26.662ZM602.641 22.558C601.729 22.558 600.961 22.852 600.337 23.44C599.725 24.016 599.377 24.772 599.293 25.708H606.007C605.923 24.772 605.569 24.016 604.945 23.44C604.333 22.852 603.565 22.558 602.641 22.558ZM614.771 21.532H616.049V29.056L622.367 21.532H623.501V31H622.223V23.476L615.923 31H614.771V21.532ZM270.052 51.884V55.286H268.846V53H260.368V55.286H259.162V51.884H259.702C260.338 51.848 260.77 51.38 260.998 50.48C261.226 49.58 261.382 48.32 261.466 46.7L261.592 43.532H268.576V51.884H270.052ZM262.636 46.772C262.576 48.116 262.462 49.226 262.294 50.102C262.126 50.966 261.826 51.56 261.394 51.884H267.298V44.666H262.744L262.636 46.772ZM280.823 48.662H272.903C272.975 49.646 273.353 50.444 274.037 51.056C274.721 51.656 275.585 51.956 276.629 51.956C277.217 51.956 277.757 51.854 278.249 51.65C278.741 51.434 279.167 51.122 279.527 50.714L280.247 51.542C279.827 52.046 279.299 52.43 278.663 52.694C278.039 52.958 277.349 53.09 276.593 53.09C275.621 53.09 274.757 52.886 274.001 52.478C273.257 52.058 272.675 51.482 272.255 50.75C271.835 50.018 271.625 49.19 271.625 48.266C271.625 47.342 271.823 46.514 272.219 45.782C272.627 45.05 273.179 44.48 273.875 44.072C274.583 43.664 275.375 43.46 276.251 43.46C277.127 43.46 277.913 43.664 278.609 44.072C279.305 44.48 279.851 45.05 280.247 45.782C280.643 46.502 280.841 47.33 280.841 48.266L280.823 48.662ZM276.251 44.558C275.339 44.558 274.571 44.852 273.947 45.44C273.335 46.016 272.987 46.772 272.903 47.708H279.617C279.533 46.772 279.179 46.016 278.555 45.44C277.943 44.852 277.175 44.558 276.251 44.558ZM291.216 43.532V53H289.938V44.666H285.402L285.276 47.006C285.18 48.974 284.952 50.486 284.592 51.542C284.232 52.598 283.59 53.126 282.666 53.126C282.414 53.126 282.108 53.078 281.748 52.982L281.838 51.884C282.054 51.932 282.204 51.956 282.288 51.956C282.78 51.956 283.152 51.728 283.404 51.272C283.656 50.816 283.824 50.252 283.908 49.58C283.992 48.908 284.064 48.02 284.124 46.916L284.286 43.532H291.216ZM298.107 43.46C299.343 43.46 300.291 43.772 300.951 44.396C301.611 45.008 301.941 45.92 301.941 47.132V53H300.717V51.524C300.429 52.016 300.003 52.4 299.439 52.676C298.887 52.952 298.227 53.09 297.459 53.09C296.403 53.09 295.563 52.838 294.939 52.334C294.315 51.83 294.003 51.164 294.003 50.336C294.003 49.532 294.291 48.884 294.867 48.392C295.455 47.9 296.385 47.654 297.657 47.654H300.663V47.078C300.663 46.262 300.435 45.644 299.979 45.224C299.523 44.792 298.857 44.576 297.981 44.576C297.381 44.576 296.805 44.678 296.253 44.882C295.701 45.074 295.227 45.344 294.831 45.692L294.255 44.738C294.735 44.33 295.311 44.018 295.983 43.802C296.655 43.574 297.363 43.46 298.107 43.46ZM297.657 52.082C298.377 52.082 298.995 51.92 299.511 51.596C300.027 51.26 300.411 50.78 300.663 50.156V48.608H297.693C296.073 48.608 295.263 49.172 295.263 50.3C295.263 50.852 295.473 51.29 295.893 51.614C296.313 51.926 296.901 52.082 297.657 52.082ZM312.003 44.666H308.421V53H307.143V44.666H303.561V43.532H312.003V44.666ZM317.919 46.88C319.107 46.892 320.007 47.156 320.619 47.672C321.243 48.188 321.555 48.932 321.555 49.904C321.555 50.912 321.219 51.686 320.547 52.226C319.887 52.766 318.927 53.03 317.667 53.018L313.851 53V43.532H315.129V46.844L317.919 46.88ZM317.595 52.046C318.471 52.058 319.131 51.884 319.575 51.524C320.031 51.152 320.259 50.612 320.259 49.904C320.259 49.208 320.037 48.692 319.593 48.356C319.149 48.02 318.483 47.846 317.595 47.834L315.129 47.798V52.01L317.595 52.046ZM334.735 48.104C336.019 48.404 336.661 49.178 336.661 50.426C336.661 51.254 336.355 51.89 335.743 52.334C335.131 52.778 334.219 53 333.007 53H328.705V43.532H332.881C333.961 43.532 334.807 43.742 335.419 44.162C336.031 44.582 336.337 45.182 336.337 45.962C336.337 46.478 336.193 46.922 335.905 47.294C335.629 47.654 335.239 47.924 334.735 48.104ZM329.947 47.744H332.791C333.523 47.744 334.081 47.606 334.465 47.33C334.861 47.054 335.059 46.652 335.059 46.124C335.059 45.596 334.861 45.2 334.465 44.936C334.081 44.672 333.523 44.54 332.791 44.54H329.947V47.744ZM332.953 51.992C333.769 51.992 334.381 51.86 334.789 51.596C335.197 51.332 335.401 50.918 335.401 50.354C335.401 49.79 335.215 49.376 334.843 49.112C334.471 48.836 333.883 48.698 333.079 48.698H329.947V51.992H332.953ZM343.616 53.09C342.68 53.09 341.84 52.886 341.096 52.478C340.364 52.07 339.788 51.5 339.368 50.768C338.948 50.024 338.738 49.19 338.738 48.266C338.738 47.342 338.948 46.514 339.368 45.782C339.788 45.05 340.364 44.48 341.096 44.072C341.84 43.664 342.68 43.46 343.616 43.46C344.432 43.46 345.158 43.622 345.794 43.946C346.442 44.258 346.952 44.72 347.324 45.332L346.37 45.98C346.058 45.512 345.662 45.164 345.182 44.936C344.702 44.696 344.18 44.576 343.616 44.576C342.932 44.576 342.314 44.732 341.762 45.044C341.222 45.344 340.796 45.776 340.484 46.34C340.184 46.904 340.034 47.546 340.034 48.266C340.034 48.998 340.184 49.646 340.484 50.21C340.796 50.762 341.222 51.194 341.762 51.506C342.314 51.806 342.932 51.956 343.616 51.956C344.18 51.956 344.702 51.842 345.182 51.614C345.662 51.386 346.058 51.038 346.37 50.57L347.324 51.218C346.952 51.83 346.442 52.298 345.794 52.622C345.146 52.934 344.42 53.09 343.616 53.09ZM357.92 48.662H350C350.072 49.646 350.45 50.444 351.134 51.056C351.818 51.656 352.682 51.956 353.726 51.956C354.314 51.956 354.854 51.854 355.346 51.65C355.838 51.434 356.264 51.122 356.624 50.714L357.344 51.542C356.924 52.046 356.396 52.43 355.76 52.694C355.136 52.958 354.446 53.09 353.69 53.09C352.718 53.09 351.854 52.886 351.098 52.478C350.354 52.058 349.772 51.482 349.352 50.75C348.932 50.018 348.722 49.19 348.722 48.266C348.722 47.342 348.92 46.514 349.316 45.782C349.724 45.05 350.276 44.48 350.972 44.072C351.68 43.664 352.472 43.46 353.348 43.46C354.224 43.46 355.01 43.664 355.706 44.072C356.402 44.48 356.948 45.05 357.344 45.782C357.74 46.502 357.938 47.33 357.938 48.266L357.92 48.662ZM353.348 44.558C352.436 44.558 351.668 44.852 351.044 45.44C350.432 46.016 350.084 46.772 350 47.708H356.714C356.63 46.772 356.276 46.016 355.652 45.44C355.04 44.852 354.272 44.558 353.348 44.558ZM368.052 43.46C369 43.46 369.852 43.67 370.608 44.09C371.376 44.498 371.976 45.068 372.408 45.8C372.852 46.532 373.074 47.354 373.074 48.266C373.074 49.178 372.852 50.006 372.408 50.75C371.976 51.482 371.376 52.058 370.608 52.478C369.852 52.898 369 53.108 368.052 53.108C367.26 53.108 366.534 52.988 365.874 52.748C365.214 52.496 364.656 52.136 364.2 51.668L364.956 50.912C365.76 51.668 366.774 52.046 367.998 52.046C368.682 52.046 369.3 51.902 369.852 51.614C370.416 51.326 370.872 50.924 371.22 50.408C371.58 49.892 371.79 49.316 371.85 48.68H366.792V47.708H371.832C371.7 46.76 371.28 45.992 370.572 45.404C369.864 44.804 369.006 44.504 367.998 44.504C366.774 44.504 365.76 44.882 364.956 45.638L364.2 44.9C364.656 44.432 365.214 44.078 365.874 43.838C366.534 43.586 367.26 43.46 368.052 43.46ZM382.07 44.666H378.488V53H377.21V44.666H373.628V43.532H382.07V44.666ZM387.384 53.09C386.472 53.09 385.65 52.886 384.918 52.478C384.186 52.058 383.61 51.482 383.19 50.75C382.77 50.018 382.56 49.19 382.56 48.266C382.56 47.342 382.77 46.514 383.19 45.782C383.61 45.05 384.186 44.48 384.918 44.072C385.65 43.664 386.472 43.46 387.384 43.46C388.296 43.46 389.118 43.664 389.85 44.072C390.582 44.48 391.152 45.05 391.56 45.782C391.98 46.514 392.19 47.342 392.19 48.266C392.19 49.19 391.98 50.018 391.56 50.75C391.152 51.482 390.582 52.058 389.85 52.478C389.118 52.886 388.296 53.09 387.384 53.09ZM387.384 51.956C388.056 51.956 388.656 51.806 389.184 51.506C389.724 51.194 390.144 50.756 390.444 50.192C390.744 49.628 390.894 48.986 390.894 48.266C390.894 47.546 390.744 46.904 390.444 46.34C390.144 45.776 389.724 45.344 389.184 45.044C388.656 44.732 388.056 44.576 387.384 44.576C386.712 44.576 386.106 44.732 385.566 45.044C385.038 45.344 384.618 45.776 384.306 46.34C384.006 46.904 383.856 47.546 383.856 48.266C383.856 48.986 384.006 49.628 384.306 50.192C384.618 50.756 385.038 51.194 385.566 51.506C386.106 51.806 386.712 51.956 387.384 51.956ZM403.592 53.09C402.656 53.09 401.816 52.886 401.072 52.478C400.34 52.07 399.764 51.5 399.344 50.768C398.924 50.024 398.714 49.19 398.714 48.266C398.714 47.342 398.924 46.514 399.344 45.782C399.764 45.05 400.34 44.48 401.072 44.072C401.816 43.664 402.656 43.46 403.592 43.46C404.408 43.46 405.134 43.622 405.77 43.946C406.418 44.258 406.928 44.72 407.3 45.332L406.346 45.98C406.034 45.512 405.638 45.164 405.158 44.936C404.678 44.696 404.156 44.576 403.592 44.576C402.908 44.576 402.29 44.732 401.738 45.044C401.198 45.344 400.772 45.776 400.46 46.34C400.16 46.904 400.01 47.546 400.01 48.266C400.01 48.998 400.16 49.646 400.46 50.21C400.772 50.762 401.198 51.194 401.738 51.506C402.29 51.806 402.908 51.956 403.592 51.956C404.156 51.956 404.678 51.842 405.158 51.614C405.638 51.386 406.034 51.038 406.346 50.57L407.3 51.218C406.928 51.83 406.418 52.298 405.77 52.622C405.122 52.934 404.396 53.09 403.592 53.09ZM413.033 43.46C414.269 43.46 415.217 43.772 415.877 44.396C416.537 45.008 416.867 45.92 416.867 47.132V53H415.643V51.524C415.355 52.016 414.929 52.4 414.365 52.676C413.813 52.952 413.153 53.09 412.385 53.09C411.329 53.09 410.489 52.838 409.865 52.334C409.241 51.83 408.929 51.164 408.929 50.336C408.929 49.532 409.217 48.884 409.793 48.392C410.381 47.9 411.311 47.654 412.583 47.654H415.589V47.078C415.589 46.262 415.361 45.644 414.905 45.224C414.449 44.792 413.783 44.576 412.907 44.576C412.307 44.576 411.731 44.678 411.179 44.882C410.627 45.074 410.153 45.344 409.757 45.692L409.181 44.738C409.661 44.33 410.237 44.018 410.909 43.802C411.581 43.574 412.289 43.46 413.033 43.46ZM412.583 52.082C413.303 52.082 413.921 51.92 414.437 51.596C414.953 51.26 415.337 50.78 415.589 50.156V48.608H412.619C410.999 48.608 410.189 49.172 410.189 50.3C410.189 50.852 410.399 51.29 410.819 51.614C411.239 51.926 411.827 52.082 412.583 52.082ZM430.853 43.532V53H429.683V45.512L425.849 51.848H425.273L421.439 45.494V53H420.269V43.532H421.565L425.579 50.354L429.665 43.532H430.853ZM438.396 53.09C437.484 53.09 436.662 52.886 435.93 52.478C435.198 52.058 434.622 51.482 434.202 50.75C433.782 50.018 433.572 49.19 433.572 48.266C433.572 47.342 433.782 46.514 434.202 45.782C434.622 45.05 435.198 44.48 435.93 44.072C436.662 43.664 437.484 43.46 438.396 43.46C439.308 43.46 440.13 43.664 440.862 44.072C441.594 44.48 442.164 45.05 442.572 45.782C442.992 46.514 443.202 47.342 443.202 48.266C443.202 49.19 442.992 50.018 442.572 50.75C442.164 51.482 441.594 52.058 440.862 52.478C440.13 52.886 439.308 53.09 438.396 53.09ZM438.396 51.956C439.068 51.956 439.668 51.806 440.196 51.506C440.736 51.194 441.156 50.756 441.456 50.192C441.756 49.628 441.906 48.986 441.906 48.266C441.906 47.546 441.756 46.904 441.456 46.34C441.156 45.776 440.736 45.344 440.196 45.044C439.668 44.732 439.068 44.576 438.396 44.576C437.724 44.576 437.118 44.732 436.578 45.044C436.05 45.344 435.63 45.776 435.318 46.34C435.018 46.904 434.868 47.546 434.868 48.266C434.868 48.986 435.018 49.628 435.318 50.192C435.63 50.756 436.05 51.194 436.578 51.506C437.118 51.806 437.724 51.956 438.396 51.956ZM449.893 53.09C448.957 53.09 448.117 52.886 447.373 52.478C446.641 52.07 446.065 51.5 445.645 50.768C445.225 50.024 445.015 49.19 445.015 48.266C445.015 47.342 445.225 46.514 445.645 45.782C446.065 45.05 446.641 44.48 447.373 44.072C448.117 43.664 448.957 43.46 449.893 43.46C450.709 43.46 451.435 43.622 452.071 43.946C452.719 44.258 453.229 44.72 453.601 45.332L452.647 45.98C452.335 45.512 451.939 45.164 451.459 44.936C450.979 44.696 450.457 44.576 449.893 44.576C449.209 44.576 448.591 44.732 448.039 45.044C447.499 45.344 447.073 45.776 446.761 46.34C446.461 46.904 446.311 47.546 446.311 48.266C446.311 48.998 446.461 49.646 446.761 50.21C447.073 50.762 447.499 51.194 448.039 51.506C448.591 51.806 449.209 51.956 449.893 51.956C450.457 51.956 450.979 51.842 451.459 51.614C451.939 51.386 452.335 51.038 452.647 50.57L453.601 51.218C453.229 51.83 452.719 52.298 452.071 52.622C451.423 52.934 450.697 53.09 449.893 53.09ZM462.56 44.666H458.978V53H457.7V44.666H454.118V43.532H462.56V44.666ZM467.874 53.09C466.962 53.09 466.14 52.886 465.408 52.478C464.676 52.058 464.1 51.482 463.68 50.75C463.26 50.018 463.05 49.19 463.05 48.266C463.05 47.342 463.26 46.514 463.68 45.782C464.1 45.05 464.676 44.48 465.408 44.072C466.14 43.664 466.962 43.46 467.874 43.46C468.786 43.46 469.608 43.664 470.34 44.072C471.072 44.48 471.642 45.05 472.05 45.782C472.47 46.514 472.68 47.342 472.68 48.266C472.68 49.19 472.47 50.018 472.05 50.75C471.642 51.482 471.072 52.058 470.34 52.478C469.608 52.886 468.786 53.09 467.874 53.09ZM467.874 51.956C468.546 51.956 469.146 51.806 469.674 51.506C470.214 51.194 470.634 50.756 470.934 50.192C471.234 49.628 471.384 48.986 471.384 48.266C471.384 47.546 471.234 46.904 470.934 46.34C470.634 45.776 470.214 45.344 469.674 45.044C469.146 44.732 468.546 44.576 467.874 44.576C467.202 44.576 466.596 44.732 466.056 45.044C465.528 45.344 465.108 45.776 464.796 46.34C464.496 46.904 464.346 47.546 464.346 48.266C464.346 48.986 464.496 49.628 464.796 50.192C465.108 50.756 465.528 51.194 466.056 51.506C466.596 51.806 467.202 51.956 467.874 51.956ZM482.35 43.532V53H481.18V49.868H478.21H477.85L475.654 53H474.268L476.626 49.688C475.894 49.484 475.33 49.136 474.934 48.644C474.538 48.152 474.34 47.528 474.34 46.772C474.34 45.716 474.7 44.912 475.42 44.36C476.14 43.808 477.124 43.532 478.372 43.532H482.35ZM475.636 46.808C475.636 48.212 476.53 48.914 478.318 48.914H481.18V44.666H478.408C476.56 44.666 475.636 45.38 475.636 46.808ZM492.654 44.666H489.072V53H487.794V44.666H484.212V43.532H492.654V44.666ZM502.342 48.662H494.422C494.494 49.646 494.872 50.444 495.556 51.056C496.24 51.656 497.104 51.956 498.148 51.956C498.736 51.956 499.276 51.854 499.768 51.65C500.26 51.434 500.686 51.122 501.046 50.714L501.766 51.542C501.346 52.046 500.818 52.43 500.182 52.694C499.558 52.958 498.868 53.09 498.112 53.09C497.14 53.09 496.276 52.886 495.52 52.478C494.776 52.058 494.194 51.482 493.774 50.75C493.354 50.018 493.144 49.19 493.144 48.266C493.144 47.342 493.342 46.514 493.738 45.782C494.146 45.05 494.698 44.48 495.394 44.072C496.102 43.664 496.894 43.46 497.77 43.46C498.646 43.46 499.432 43.664 500.128 44.072C500.824 44.48 501.37 45.05 501.766 45.782C502.162 46.502 502.36 47.33 502.36 48.266L502.342 48.662ZM497.77 44.558C496.858 44.558 496.09 44.852 495.466 45.44C494.854 46.016 494.506 46.772 494.422 47.708H501.136C501.052 46.772 500.698 46.016 500.074 45.44C499.462 44.852 498.694 44.558 497.77 44.558ZM512.736 43.532V53H511.458V44.666H506.922L506.796 47.006C506.7 48.974 506.472 50.486 506.112 51.542C505.752 52.598 505.11 53.126 504.186 53.126C503.934 53.126 503.628 53.078 503.268 52.982L503.358 51.884C503.574 51.932 503.724 51.956 503.808 51.956C504.3 51.956 504.672 51.728 504.924 51.272C505.176 50.816 505.344 50.252 505.428 49.58C505.512 48.908 505.584 48.02 505.644 46.916L505.806 43.532H512.736ZM520.437 46.88C521.625 46.892 522.525 47.156 523.137 47.672C523.761 48.188 524.073 48.932 524.073 49.904C524.073 50.912 523.737 51.686 523.065 52.226C522.405 52.766 521.445 53.03 520.185 53.018L516.369 53V43.532H517.647V46.844L520.437 46.88ZM520.113 52.046C520.989 52.058 521.649 51.884 522.093 51.524C522.549 51.152 522.777 50.612 522.777 49.904C522.777 49.208 522.555 48.692 522.111 48.356C521.667 48.02 521.001 47.846 520.113 47.834L517.647 47.798V52.01L520.113 52.046ZM526.511 43.532H527.789V47.726H533.747V43.532H535.025V53H533.747V48.824H527.789V53H526.511V43.532ZM542.564 53.09C541.652 53.09 540.83 52.886 540.098 52.478C539.366 52.058 538.79 51.482 538.37 50.75C537.95 50.018 537.74 49.19 537.74 48.266C537.74 47.342 537.95 46.514 538.37 45.782C538.79 45.05 539.366 44.48 540.098 44.072C540.83 43.664 541.652 43.46 542.564 43.46C543.476 43.46 544.298 43.664 545.03 44.072C545.762 44.48 546.332 45.05 546.74 45.782C547.16 46.514 547.37 47.342 547.37 48.266C547.37 49.19 547.16 50.018 546.74 50.75C546.332 51.482 545.762 52.058 545.03 52.478C544.298 52.886 543.476 53.09 542.564 53.09ZM542.564 51.956C543.236 51.956 543.836 51.806 544.364 51.506C544.904 51.194 545.324 50.756 545.624 50.192C545.924 49.628 546.074 48.986 546.074 48.266C546.074 47.546 545.924 46.904 545.624 46.34C545.324 45.776 544.904 45.344 544.364 45.044C543.836 44.732 543.236 44.576 542.564 44.576C541.892 44.576 541.286 44.732 540.746 45.044C540.218 45.344 539.798 45.776 539.486 46.34C539.186 46.904 539.036 47.546 539.036 48.266C539.036 48.986 539.186 49.628 539.486 50.192C539.798 50.756 540.218 51.194 540.746 51.506C541.286 51.806 541.892 51.956 542.564 51.956ZM549.928 53.09C549.664 53.09 549.436 52.994 549.244 52.802C549.064 52.61 548.974 52.376 548.974 52.1C548.974 51.824 549.064 51.596 549.244 51.416C549.436 51.224 549.664 51.128 549.928 51.128C550.192 51.128 550.42 51.224 550.612 51.416C550.804 51.596 550.9 51.824 550.9 52.1C550.9 52.376 550.804 52.61 550.612 52.802C550.42 52.994 550.192 53.09 549.928 53.09ZM266.596 78.412C267.424 78.616 268.072 78.988 268.54 79.528C269.02 80.068 269.26 80.716 269.26 81.472C269.26 82.204 269.032 82.846 268.576 83.398C268.12 83.95 267.514 84.376 266.758 84.676C266.002 84.964 265.18 85.108 264.292 85.108C263.452 85.108 262.624 84.976 261.808 84.712C261.004 84.436 260.278 84.028 259.63 83.488L260.116 82.534C260.668 83.002 261.298 83.362 262.006 83.614C262.714 83.854 263.428 83.974 264.148 83.974C264.832 83.974 265.462 83.866 266.038 83.65C266.614 83.434 267.07 83.128 267.406 82.732C267.754 82.324 267.928 81.844 267.928 81.292C267.928 80.56 267.64 79.996 267.064 79.6C266.488 79.204 265.678 79.006 264.634 79.006H261.934V77.926H264.562C265.45 77.926 266.14 77.74 266.632 77.368C267.136 76.984 267.388 76.456 267.388 75.784C267.388 75.04 267.07 74.458 266.434 74.038C265.798 73.606 265 73.39 264.04 73.39C263.44 73.39 262.834 73.48 262.222 73.66C261.61 73.828 261.028 74.086 260.476 74.434L260.026 73.336C261.274 72.592 262.624 72.22 264.076 72.22C264.928 72.22 265.708 72.358 266.416 72.634C267.124 72.91 267.682 73.306 268.09 73.822C268.51 74.338 268.72 74.944 268.72 75.64C268.72 76.312 268.534 76.894 268.162 77.386C267.79 77.866 267.268 78.208 266.596 78.412ZM275.519 75.46C276.755 75.46 277.703 75.772 278.363 76.396C279.023 77.008 279.353 77.92 279.353 79.132V85H278.129V83.524C277.841 84.016 277.415 84.4 276.851 84.676C276.299 84.952 275.639 85.09 274.871 85.09C273.815 85.09 272.975 84.838 272.351 84.334C271.727 83.83 271.415 83.164 271.415 82.336C271.415 81.532 271.703 80.884 272.279 80.392C272.867 79.9 273.797 79.654 275.069 79.654H278.075V79.078C278.075 78.262 277.847 77.644 277.391 77.224C276.935 76.792 276.269 76.576 275.393 76.576C274.793 76.576 274.217 76.678 273.665 76.882C273.113 77.074 272.639 77.344 272.243 77.692L271.667 76.738C272.147 76.33 272.723 76.018 273.395 75.802C274.067 75.574 274.775 75.46 275.519 75.46ZM275.069 84.082C275.789 84.082 276.407 83.92 276.923 83.596C277.439 83.26 277.823 82.78 278.075 82.156V80.608H275.105C273.485 80.608 272.675 81.172 272.675 82.3C272.675 82.852 272.885 83.29 273.305 83.614C273.725 83.926 274.313 84.082 275.069 84.082ZM289.902 75.532V85H288.624V81.058C287.532 81.538 286.458 81.778 285.402 81.778C284.262 81.778 283.374 81.52 282.738 81.004C282.102 80.476 281.784 79.69 281.784 78.646V75.532H283.062V78.574C283.062 79.282 283.29 79.822 283.746 80.194C284.202 80.554 284.832 80.734 285.636 80.734C286.524 80.734 287.52 80.5 288.624 80.032V75.532H289.902ZM301.811 80.662H293.891C293.963 81.646 294.341 82.444 295.025 83.056C295.709 83.656 296.573 83.956 297.617 83.956C298.205 83.956 298.745 83.854 299.237 83.65C299.729 83.434 300.155 83.122 300.515 82.714L301.235 83.542C300.815 84.046 300.287 84.43 299.651 84.694C299.027 84.958 298.337 85.09 297.581 85.09C296.609 85.09 295.745 84.886 294.989 84.478C294.245 84.058 293.663 83.482 293.243 82.75C292.823 82.018 292.613 81.19 292.613 80.266C292.613 79.342 292.811 78.514 293.207 77.782C293.615 77.05 294.167 76.48 294.863 76.072C295.571 75.664 296.363 75.46 297.239 75.46C298.115 75.46 298.901 75.664 299.597 76.072C300.293 76.48 300.839 77.05 301.235 77.782C301.631 78.502 301.829 79.33 301.829 80.266L301.811 80.662ZM297.239 76.558C296.327 76.558 295.559 76.852 294.935 77.44C294.323 78.016 293.975 78.772 293.891 79.708H300.605C300.521 78.772 300.167 78.016 299.543 77.44C298.931 76.852 298.163 76.558 297.239 76.558ZM315.242 75.532V85H314.072V77.512L310.238 83.848H309.662L305.828 77.494V85H304.658V75.532H305.954L309.968 82.354L314.054 75.532H315.242ZM334.173 75.532V85H333.003V77.512L329.169 83.848H328.593L324.759 77.494V85H323.589V75.532H324.885L328.899 82.354L332.985 75.532H334.173ZM337.81 75.532H339.088V79.726H345.046V75.532H346.324V85H345.046V80.824H339.088V85H337.81V75.532ZM358.237 80.662H350.317C350.389 81.646 350.767 82.444 351.451 83.056C352.135 83.656 352.999 83.956 354.043 83.956C354.631 83.956 355.171 83.854 355.663 83.65C356.155 83.434 356.581 83.122 356.941 82.714L357.661 83.542C357.241 84.046 356.713 84.43 356.077 84.694C355.453 84.958 354.763 85.09 354.007 85.09C353.035 85.09 352.171 84.886 351.415 84.478C350.671 84.058 350.089 83.482 349.669 82.75C349.249 82.018 349.039 81.19 349.039 80.266C349.039 79.342 349.237 78.514 349.633 77.782C350.041 77.05 350.593 76.48 351.289 76.072C351.997 75.664 352.789 75.46 353.665 75.46C354.541 75.46 355.327 75.664 356.023 76.072C356.719 76.48 357.265 77.05 357.661 77.782C358.057 78.502 358.255 79.33 358.255 80.266L358.237 80.662ZM353.665 76.558C352.753 76.558 351.985 76.852 351.361 77.44C350.749 78.016 350.401 78.772 350.317 79.708H357.031C356.947 78.772 356.593 78.016 355.969 77.44C355.357 76.852 354.589 76.558 353.665 76.558ZM371.825 80.104C373.109 80.404 373.751 81.178 373.751 82.426C373.751 83.254 373.445 83.89 372.833 84.334C372.221 84.778 371.309 85 370.097 85H365.795V75.532H369.971C371.051 75.532 371.897 75.742 372.509 76.162C373.121 76.582 373.427 77.182 373.427 77.962C373.427 78.478 373.283 78.922 372.995 79.294C372.719 79.654 372.329 79.924 371.825 80.104ZM367.037 79.744H369.881C370.613 79.744 371.171 79.606 371.555 79.33C371.951 79.054 372.149 78.652 372.149 78.124C372.149 77.596 371.951 77.2 371.555 76.936C371.171 76.672 370.613 76.54 369.881 76.54H367.037V79.744ZM370.043 83.992C370.859 83.992 371.471 83.86 371.879 83.596C372.287 83.332 372.491 82.918 372.491 82.354C372.491 81.79 372.305 81.376 371.933 81.112C371.561 80.836 370.973 80.698 370.169 80.698H367.037V83.992H370.043ZM380.004 75.46C381.24 75.46 382.188 75.772 382.848 76.396C383.508 77.008 383.838 77.92 383.838 79.132V85H382.614V83.524C382.326 84.016 381.9 84.4 381.336 84.676C380.784 84.952 380.124 85.09 379.356 85.09C378.3 85.09 377.46 84.838 376.836 84.334C376.212 83.83 375.9 83.164 375.9 82.336C375.9 81.532 376.188 80.884 376.764 80.392C377.352 79.9 378.282 79.654 379.554 79.654H382.56V79.078C382.56 78.262 382.332 77.644 381.876 77.224C381.42 76.792 380.754 76.576 379.878 76.576C379.278 76.576 378.702 76.678 378.15 76.882C377.598 77.074 377.124 77.344 376.728 77.692L376.152 76.738C376.632 76.33 377.208 76.018 377.88 75.802C378.552 75.574 379.26 75.46 380.004 75.46ZM379.554 84.082C380.274 84.082 380.892 83.92 381.408 83.596C381.924 83.26 382.308 82.78 382.56 82.156V80.608H379.59C377.97 80.608 377.16 81.172 377.16 82.3C377.16 82.852 377.37 83.29 377.79 83.614C378.21 83.926 378.798 84.082 379.554 84.082ZM400.308 75.532V85H387.24V75.532H388.518V83.884H393.162V75.532H394.44V83.884H399.03V75.532H400.308ZM412.628 85.09C411.692 85.09 410.852 84.886 410.108 84.478C409.376 84.07 408.8 83.5 408.38 82.768C407.96 82.024 407.75 81.19 407.75 80.266C407.75 79.342 407.96 78.514 408.38 77.782C408.8 77.05 409.376 76.48 410.108 76.072C410.852 75.664 411.692 75.46 412.628 75.46C413.444 75.46 414.17 75.622 414.806 75.946C415.454 76.258 415.964 76.72 416.336 77.332L415.382 77.98C415.07 77.512 414.674 77.164 414.194 76.936C413.714 76.696 413.192 76.576 412.628 76.576C411.944 76.576 411.326 76.732 410.774 77.044C410.234 77.344 409.808 77.776 409.496 78.34C409.196 78.904 409.046 79.546 409.046 80.266C409.046 80.998 409.196 81.646 409.496 82.21C409.808 82.762 410.234 83.194 410.774 83.506C411.326 83.806 411.944 83.956 412.628 83.956C413.192 83.956 413.714 83.842 414.194 83.614C414.674 83.386 415.07 83.038 415.382 82.57L416.336 83.218C415.964 83.83 415.454 84.298 414.806 84.622C414.158 84.934 413.432 85.09 412.628 85.09ZM426.932 80.662H419.012C419.084 81.646 419.462 82.444 420.146 83.056C420.83 83.656 421.694 83.956 422.738 83.956C423.326 83.956 423.866 83.854 424.358 83.65C424.85 83.434 425.276 83.122 425.636 82.714L426.356 83.542C425.936 84.046 425.408 84.43 424.772 84.694C424.148 84.958 423.458 85.09 422.702 85.09C421.73 85.09 420.866 84.886 420.11 84.478C419.366 84.058 418.784 83.482 418.364 82.75C417.944 82.018 417.734 81.19 417.734 80.266C417.734 79.342 417.932 78.514 418.328 77.782C418.736 77.05 419.288 76.48 419.984 76.072C420.692 75.664 421.484 75.46 422.36 75.46C423.236 75.46 424.022 75.664 424.718 76.072C425.414 76.48 425.96 77.05 426.356 77.782C426.752 78.502 426.95 79.33 426.95 80.266L426.932 80.662ZM422.36 76.558C421.448 76.558 420.68 76.852 420.056 77.44C419.444 78.016 419.096 78.772 419.012 79.708H425.726C425.642 78.772 425.288 78.016 424.664 77.44C424.052 76.852 423.284 76.558 422.36 76.558ZM434.657 75.46C435.545 75.46 436.349 75.664 437.069 76.072C437.789 76.468 438.353 77.032 438.761 77.764C439.169 78.496 439.373 79.33 439.373 80.266C439.373 81.214 439.169 82.054 438.761 82.786C438.353 83.518 437.789 84.088 437.069 84.496C436.361 84.892 435.557 85.09 434.657 85.09C433.889 85.09 433.193 84.934 432.569 84.622C431.957 84.298 431.453 83.83 431.057 83.218V88.492H429.779V75.532H431.003V77.404C431.387 76.78 431.891 76.3 432.515 75.964C433.151 75.628 433.865 75.46 434.657 75.46ZM434.567 83.956C435.227 83.956 435.827 83.806 436.367 83.506C436.907 83.194 437.327 82.756 437.627 82.192C437.939 81.628 438.095 80.986 438.095 80.266C438.095 79.546 437.939 78.91 437.627 78.358C437.327 77.794 436.907 77.356 436.367 77.044C435.827 76.732 435.227 76.576 434.567 76.576C433.895 76.576 433.289 76.732 432.749 77.044C432.221 77.356 431.801 77.794 431.489 78.358C431.189 78.91 431.039 79.546 431.039 80.266C431.039 80.986 431.189 81.628 431.489 82.192C431.801 82.756 432.221 83.194 432.749 83.506C433.289 83.806 433.895 83.956 434.567 83.956ZM448.149 80.104C449.433 80.404 450.075 81.178 450.075 82.426C450.075 83.254 449.769 83.89 449.157 84.334C448.545 84.778 447.633 85 446.421 85H442.119V75.532H446.295C447.375 75.532 448.221 75.742 448.833 76.162C449.445 76.582 449.751 77.182 449.751 77.962C449.751 78.478 449.607 78.922 449.319 79.294C449.043 79.654 448.653 79.924 448.149 80.104ZM443.361 79.744H446.205C446.937 79.744 447.495 79.606 447.879 79.33C448.275 79.054 448.473 78.652 448.473 78.124C448.473 77.596 448.275 77.2 447.879 76.936C447.495 76.672 446.937 76.54 446.205 76.54H443.361V79.744ZM446.367 83.992C447.183 83.992 447.795 83.86 448.203 83.596C448.611 83.332 448.815 82.918 448.815 82.354C448.815 81.79 448.629 81.376 448.257 81.112C447.885 80.836 447.297 80.698 446.493 80.698H443.361V83.992H446.367ZM453.07 75.532H454.348V83.056L460.666 75.532H461.8V85H460.522V77.476L454.222 85H453.07V75.532ZM469.423 85.09C468.487 85.09 467.647 84.886 466.903 84.478C466.171 84.07 465.595 83.5 465.175 82.768C464.755 82.024 464.545 81.19 464.545 80.266C464.545 79.342 464.755 78.514 465.175 77.782C465.595 77.05 466.171 76.48 466.903 76.072C467.647 75.664 468.487 75.46 469.423 75.46C470.239 75.46 470.965 75.622 471.601 75.946C472.249 76.258 472.759 76.72 473.131 77.332L472.177 77.98C471.865 77.512 471.469 77.164 470.989 76.936C470.509 76.696 469.987 76.576 469.423 76.576C468.739 76.576 468.121 76.732 467.569 77.044C467.029 77.344 466.603 77.776 466.291 78.34C465.991 78.904 465.841 79.546 465.841 80.266C465.841 80.998 465.991 81.646 466.291 82.21C466.603 82.762 467.029 83.194 467.569 83.506C468.121 83.806 468.739 83.956 469.423 83.956C469.987 83.956 470.509 83.842 470.989 83.614C471.469 83.386 471.865 83.038 472.177 82.57L473.131 83.218C472.759 83.83 472.249 84.298 471.601 84.622C470.953 84.934 470.227 85.09 469.423 85.09ZM477.507 81.22C477.507 80.728 477.585 80.296 477.741 79.924C477.909 79.552 478.113 79.234 478.353 78.97C478.593 78.706 478.905 78.406 479.289 78.07C479.805 77.614 480.183 77.218 480.423 76.882C480.675 76.534 480.801 76.114 480.801 75.622C480.801 74.962 480.543 74.434 480.027 74.038C479.511 73.63 478.803 73.426 477.903 73.426C476.415 73.426 475.269 73.912 474.465 74.884L473.511 74.164C474.531 72.916 476.025 72.292 477.993 72.292C479.253 72.292 480.255 72.574 480.999 73.138C481.755 73.702 482.133 74.464 482.133 75.424C482.133 75.916 482.049 76.354 481.881 76.738C481.725 77.11 481.527 77.428 481.287 77.692C481.059 77.956 480.753 78.262 480.369 78.61C479.853 79.078 479.469 79.498 479.217 79.87C478.965 80.23 478.839 80.68 478.839 81.22H477.507ZM478.173 85.09C477.909 85.09 477.687 85 477.507 84.82C477.327 84.628 477.237 84.406 477.237 84.154C477.237 83.89 477.327 83.674 477.507 83.506C477.687 83.326 477.909 83.236 478.173 83.236C478.449 83.236 478.677 83.326 478.857 83.506C479.037 83.674 479.127 83.89 479.127 84.154C479.127 84.406 479.031 84.628 478.839 84.82C478.659 85 478.437 85.09 478.173 85.09Z" fill="#333E63"/>
<defs>
<filter id="filter0_d_1111_2753" x="191" y="0" width="460" height="109" filterUnits="userSpaceOnUse" color-interpolation-filters="sRGB">
<feFlood flood-opacity="0" result="BackgroundImageFix"/>
<feColorMatrix in="SourceAlpha" type="matrix" values="0 0 0 0 0 0 0 0 0 0 0 0 0 0 0 0 0 0 127 0" result="hardAlpha"/>
<feOffset dx="5" dy="5"/>
<feComposite in2="hardAlpha" operator="out"/>
<feColorMatrix type="matrix" values="0 0 0 0 0.2 0 0 0 0 0.243137 0 0 0 0 0.388235 0 0 0 1 0"/>
<feBlend mode="normal" in2="BackgroundImageFix" result="effect1_dropShadow_1111_2753"/>
<feBlend mode="normal" in="SourceGraphic" in2="effect1_dropShadow_1111_2753" result="shape"/>
</filter>
</defs>
</svg>
