<svg width="353" height="628" viewBox="0 0 353 628" fill="none" xmlns="http://www.w3.org/2000/svg">
<path d="M331.893 258.272C328.108 265.547 323.741 272.531 318.938 279.079C267.698 350.231 171.915 372.784 94.3277 331.752C90.3974 329.715 86.6126 327.532 82.9734 325.204C79.3343 322.876 75.8407 320.548 72.347 318.074C68.2712 315.164 64.1953 311.963 60.4106 308.616C60.1194 308.471 59.9739 308.18 59.6827 308.034C-12.6641 243.721 -19.5057 132.701 44.8349 59.9482C109.175 -12.8044 220.243 -19.4976 293.027 44.8157C353.728 98.507 369.74 186.683 331.893 258.272Z" fill="#B0BEC5"/>
<g opacity="0.6">
<path opacity="0.6" d="M331.892 258.272C328.107 265.547 323.741 272.531 318.937 279.079L315.589 276.314L309.766 273.259L303.652 270.058L304.671 262.637L304.38 255.944C304.089 249.25 308.893 254.78 312.677 252.743C315.734 250.56 318.209 247.65 319.81 244.449C319.81 244.449 322.576 235.573 321.703 231.935C320.247 227.861 318.5 223.787 316.462 219.858L306.418 233.827L298.121 233.245L290.26 229.025L289.241 217.967L285.165 215.784L283.418 209.528L261.438 203.416L258.963 199.051C256.489 194.686 246.299 192.358 246.299 192.358L248.773 186.683L252.704 180.281C256.634 173.879 260.71 184.501 260.71 184.501L265.368 186.974L273.957 179.699L276.286 169.368L290.406 170.241C289.823 167.331 291.425 164.421 294.045 163.257C298.703 161.365 296.665 151.18 294.918 147.542C293.171 143.759 286.621 146.815 286.621 146.815C286.621 146.815 279.488 135.902 278.469 131.537C277.45 127.172 292.152 128.772 298.412 124.407C304.671 120.042 302.488 111.312 299.431 111.166C296.374 111.021 305.399 91.3774 322.867 96.7611C327.671 98.2161 330.728 97.7796 332.62 96.0335C358.968 146.524 358.677 207.345 331.892 258.272Z" fill="white"/>
<path opacity="0.6" d="M210.054 182.9L204.085 190.321C204.085 190.321 201.611 184.209 197.972 187.556L192.44 192.503L188.364 203.853L181.086 208.509L176.719 206.181L172.497 203.998L167.985 201.67L163.618 209.964L160.124 216.657C161.871 220.004 164.054 222.914 166.529 225.678L174.244 239.21L183.56 244.012C187.491 244.158 191.421 244.594 195.206 245.467L201.611 248.814L199.282 262.782C199.282 262.782 194.478 270.64 191.13 268.457L187.927 266.274L182.687 284.608L182.396 294.648C182.396 294.648 179.193 295.957 176.137 296.976C172.934 297.995 174.972 297.412 168.276 299.595C161.58 301.632 162.162 301.632 156.776 303.087C152.118 304.688 147.751 306.725 143.53 309.198L143.966 318.947L131.302 320.839L124.169 317.056L125.916 310.944L126.789 301.341L125.77 294.211L122.713 287.955L131.302 280.243L129.41 275.296L124.46 265.547L114.125 271.076L108.885 273.841L96.9481 268.457L95.638 261.182L91.5621 248.086L87.7773 239.938L81.0813 230.917L79.48 223.205L83.2648 216.075L85.3027 212.292L79.1889 204.144L77.5877 198.324L67.2524 189.011C67.2524 189.011 70.1637 188.866 69.5815 184.646C68.8536 180.426 75.4042 173.442 75.4042 173.442C79.0433 175.334 90.252 183.191 90.252 183.191L100.005 184.501C100.005 184.501 101.897 184.501 103.79 180.863C105.973 177.516 108.593 174.315 111.505 171.551C111.505 171.551 106.992 155.982 110.195 153.944C113.397 151.907 116.6 141.722 116.6 141.722L119.22 136.775C119.22 136.775 113.106 134.156 112.087 130.955C111.068 127.754 96.0747 131.973 96.0747 131.973L85.7394 139.103L77.5877 145.36L74.094 152.053C74.094 152.053 66.9613 143.468 66.9613 148.27C66.379 153.217 65.36 158.019 63.7588 162.82C63.7588 162.82 65.2145 163.548 63.3221 167.331C61.4297 171.114 59.2462 170.823 55.0248 171.405C49.4932 171.405 43.8161 171.114 38.2846 170.241C38.2846 170.241 35.5188 180.572 37.4112 182.318L39.3035 184.064C39.3035 184.064 36.3922 191.485 33.3353 190.03L26.2025 186.247L16.1584 190.321L4.94972 202.689L2.47508 202.252C-11.9361 106.801 53.278 17.8972 148.479 2.76465C149.061 5.52925 149.789 8.14834 149.789 8.14834L147.023 21.9713L143.384 28.8101L140.327 34.6303L135.96 42.7785L147.023 52.9639L144.694 65.0408L138.726 68.824L136.979 77.8453L147.314 97.925L150.08 105.782C148.333 109.565 147.46 113.64 147.605 117.859C147.605 117.859 148.915 125.425 154.301 128.336C159.833 131.246 166.966 134.883 166.966 134.883L166.384 146.087L163.909 148.852L167.985 160.929C180.504 165.876 179.339 169.95 180.504 165.876L181.668 161.802L190.257 158.746L201.174 171.696C203.794 171.696 206.123 173.006 207.579 175.043C211.073 178.826 216.022 175.334 210.054 182.9Z" fill="white"/>
<path opacity="0.6" d="M62.3029 279.806C62.5941 283.735 57.6448 288.682 57.6448 288.682L61.7207 290.865L63.0308 302.069L59.9739 308.034C37.9933 288.682 21.3986 264.092 11.3545 236.737L13.538 224.951L23.4366 223.496C23.4366 223.496 32.1706 217.676 36.1009 219.276C40.0312 220.877 43.5248 230.48 43.5248 230.48C43.5248 230.48 46.2906 243.43 45.9994 243.139H45.8539H46.145L50.2209 245.322L51.3854 250.414L45.8539 261.036H36.8287C36.8287 261.036 35.0819 260.018 34.9363 264.674C35.2275 267.875 36.9743 270.93 39.5945 272.822L49.3475 270.348L51.9677 260.309L61.4295 258.417C61.4295 258.417 60.1194 264.528 62.3029 265.692L64.632 266.856L65.9421 274.277C63.4675 275.296 62.3029 277.478 62.3029 279.806Z" fill="white"/>
<path opacity="0.6" d="M108.448 295.666C107.575 293.338 107.284 291.156 101.315 288.1C95.3471 285.045 95.7838 286.063 93.4547 288.682C91.4168 291.447 87.9232 292.611 84.5752 291.883C80.6449 291.01 82.6828 295.375 82.6828 295.375L83.7018 307.307L72.6387 318.22C75.9867 320.693 79.6259 323.167 83.2651 325.349L85.5941 318.22L103.936 323.603C100.005 322.439 102.334 317.201 102.334 317.201L98.404 315.164C98.2585 314.873 109.322 297.995 108.448 295.666Z" fill="white"/>
<path opacity="0.6" d="M223.592 233.827L217.624 227.715L210.782 229.898L208.016 235.427L205.979 239.501L208.744 245.03L214.276 251.869L217.478 245.758C217.478 245.758 226.358 245.758 230.87 240.665C235.529 235.573 223.592 233.827 223.592 233.827Z" fill="white"/>
<path opacity="0.6" d="M205.979 206.472L217.187 212.292L217.624 209.673C218.206 207.636 219.225 205.599 220.681 203.998L212.092 194.977L205.979 206.472Z" fill="white"/>
<path opacity="0.6" d="M202.193 336.263L198.991 331.606L195.206 329.715H183.852L177.301 342.083C177.301 342.083 171.042 341.21 162.89 340.482C154.738 339.755 156.776 343.101 156.776 343.101L154.593 350.813C175.263 353.287 196.079 352.268 216.313 347.466C213.984 345.866 211.509 344.265 209.035 342.956L202.193 336.263Z" fill="white"/>
</g>
<path d="M331.893 258.272C328.108 265.547 323.741 272.531 318.938 279.079C267.698 350.231 171.915 372.784 94.3277 331.752C90.3974 329.715 86.6126 327.532 82.9734 325.204C79.3343 322.876 75.8407 320.548 72.347 318.074C68.2712 315.164 64.1953 311.963 60.4106 308.616C60.1194 308.471 59.9739 308.18 59.6827 308.034C-12.6641 243.721 -19.5057 132.701 44.8349 59.9482C109.176 -12.8044 220.243 -19.4976 293.027 44.8157C353.728 98.507 369.74 186.683 331.893 258.272Z" stroke="#263238" stroke-linecap="round" stroke-linejoin="round"/>
<path d="M216.313 347.321C196.079 351.977 175.263 353.141 154.593 350.668L156.776 342.956C156.776 342.956 154.738 339.609 162.89 340.337C171.042 341.064 177.301 341.937 177.301 341.937L183.852 329.569H195.206L198.991 331.461L202.193 336.117L209.035 342.81C211.655 344.265 213.984 345.72 216.313 347.321Z" stroke="#263238" stroke-linecap="round" stroke-linejoin="round"/>
<path d="M332.475 95.4513C330.582 97.0518 327.525 97.6338 322.722 96.1788C305.254 90.7951 296.228 110.293 299.285 110.584C302.342 110.875 304.526 119.605 298.266 123.825C292.007 128.044 277.305 126.589 278.324 130.955C279.343 135.32 286.475 146.233 286.475 146.233C286.475 146.233 292.88 143.177 294.627 146.96C296.374 150.743 298.557 160.929 293.754 162.675C290.988 163.839 289.532 166.749 290.115 169.659L275.995 168.786L273.666 179.117L265.077 186.392L260.419 183.918C260.419 183.918 256.343 173.296 252.413 179.699L248.482 186.101L246.008 191.776C246.008 191.776 256.052 194.104 258.672 198.469L261.147 202.834L283.127 208.945L284.874 215.202L288.95 217.385L289.969 228.443L298.121 232.663L306.418 233.245L316.462 219.276C318.5 223.205 320.247 227.279 321.703 231.353C322.722 234.991 319.81 243.866 319.81 243.866C318.209 247.213 315.734 250.123 312.677 252.16C308.747 254.197 303.798 248.668 304.38 255.361L304.671 262.055L303.652 269.475L309.766 272.676L315.589 275.732L318.937 278.497" stroke="#263238" stroke-linecap="round" stroke-linejoin="round"/>
<path d="M2.47461 202.107L4.94925 202.543L16.1579 190.175L26.202 186.247L33.3348 190.03C36.2462 191.63 39.3031 184.064 39.3031 184.064L37.4107 182.318C35.5183 180.572 38.2841 170.241 38.2841 170.241C43.8156 171.114 49.3472 171.405 55.0243 171.405C59.3913 170.823 61.5748 171.114 63.3216 167.331C65.214 163.693 63.7583 162.82 63.7583 162.82C65.3596 158.164 66.3785 153.217 66.9608 148.27C66.9608 143.468 74.0936 152.053 74.0936 152.053L77.5872 145.36L85.4478 139.103L95.7831 131.973C95.7831 131.973 110.631 127.754 111.795 130.955C112.96 134.156 118.928 136.775 118.928 136.775L116.308 141.722C116.308 141.722 112.96 151.907 109.903 153.944C106.701 156.127 111.213 171.551 111.213 171.551C108.302 174.315 105.682 177.516 103.498 180.863C101.606 184.646 99.7134 184.501 99.7134 184.501L89.9604 183.191C89.9604 183.191 78.7517 175.479 75.1125 173.442C75.1125 173.442 68.562 180.426 69.2899 184.646C70.0177 188.866 66.9608 189.011 66.9608 189.011L77.2961 198.324L78.8973 204.144L85.0111 212.292L82.9732 216.075L79.1884 223.205L80.7897 230.917L87.4857 239.938L91.2705 248.086L95.3464 261.182L96.6565 268.457L108.593 273.841L113.833 271.076L124.169 265.547L129.118 275.296L131.01 280.243L122.422 287.955L125.479 294.211L126.498 301.341L125.624 310.944L123.877 317.056L131.01 320.839L143.675 318.947L143.238 309.198C147.459 306.725 151.826 304.688 156.485 303.087C161.87 301.487 161.288 301.632 167.984 299.595C174.68 297.558 172.642 298.14 175.845 296.976C179.047 295.957 182.104 294.648 182.104 294.648L182.395 284.608L187.636 266.274L190.838 268.457C194.041 270.64 198.99 262.782 198.99 262.782L201.319 248.814L194.769 245.322C190.984 244.594 187.054 244.012 183.123 243.867L173.953 239.065L166.237 225.533C163.763 222.768 161.579 219.713 159.833 216.512L163.326 209.818L167.693 201.525L172.206 203.853L176.427 206.035L180.794 208.363L188.073 203.707L192.148 192.358L197.68 187.411C201.319 184.064 203.794 190.175 203.794 190.175L209.762 182.754C215.73 175.334 210.781 178.68 207.724 174.897C206.268 172.715 203.939 171.405 201.319 171.551L190.402 158.601L181.668 161.947L180.503 166.021C179.339 170.096 180.503 166.021 167.984 161.074L163.908 148.997L166.383 146.233L166.965 135.029C166.965 135.029 159.687 131.537 154.301 128.481C148.769 125.571 147.605 118.005 147.605 118.005C147.459 113.931 148.333 109.711 150.08 105.928L147.314 98.0705L136.979 77.9908L138.725 68.9695L144.694 65.1863L147.023 53.1094L136.251 42.9241L140.618 34.7758L143.675 28.9556L147.314 22.1168L150.08 8.29384C150.08 8.29384 149.352 5.67475 148.769 2.91016" stroke="#263238" stroke-linecap="round" stroke-linejoin="round"/>
<path d="M60.8476 308.616C60.702 308.325 60.4109 308.18 60.1197 307.889L63.1766 301.923L61.8665 290.719L57.7907 288.537C57.7907 288.537 62.7399 283.59 62.4488 279.661C62.3032 277.187 63.6133 275.005 65.6513 273.695L64.3412 266.274L62.0121 265.11C59.8286 263.946 61.1387 257.835 61.1387 257.835L51.6769 259.727L49.0566 269.767L39.3037 272.24C36.6834 270.349 34.9366 267.293 34.6455 264.092C34.7911 259.436 36.5379 260.454 36.5379 260.454H45.563L51.0946 249.832L49.93 244.74L45.8542 242.557" stroke="#263238" stroke-linecap="round" stroke-linejoin="round"/>
<path d="M45.8539 242.702C46.2906 242.994 43.3793 230.044 43.3793 230.044C43.3793 230.044 39.7401 220.586 35.9554 218.84C32.0251 217.094 23.291 223.059 23.291 223.059L13.3925 224.514L11.209 236.3" stroke="#263238" stroke-linecap="round" stroke-linejoin="round"/>
<path d="M85.4486 318.074L83.1196 325.204C79.3348 322.876 75.8412 320.548 72.4932 318.074L83.5563 307.161L82.5373 295.23C82.5373 295.23 80.4993 290.865 84.4297 291.738C87.7777 292.611 91.2713 291.301 93.3092 288.537C95.6383 285.918 95.3472 284.899 101.17 287.955C106.993 291.01 107.429 293.193 108.303 295.521C109.176 297.849 98.113 314.873 98.113 314.873L102.043 316.91C102.043 316.91 99.7142 322.148 103.644 323.312L85.4486 318.074Z" stroke="#263238" stroke-linecap="round" stroke-linejoin="round"/>
<path d="M210.782 229.898L217.624 227.716L223.592 233.827C223.592 233.827 235.383 235.428 230.87 240.52C226.212 245.613 217.478 245.613 217.478 245.613L214.276 251.724L208.744 244.885L205.979 239.356L208.016 235.282L210.782 229.898Z" stroke="#263238" stroke-linecap="round" stroke-linejoin="round"/>
<path d="M220.534 203.998C219.079 205.599 218.06 207.636 217.477 209.673L217.041 212.292L205.832 206.472L211.946 194.977L220.534 203.998Z" stroke="#263238" stroke-linecap="round" stroke-linejoin="round"/>
<path d="M187.928 327.532V380.059L215.294 384.715L187.928 327.532Z" fill="#263238"/>
<path d="M162.309 164.712V184.937H195.789V161.511L162.309 164.712Z" fill="white" stroke="#263238" stroke-linecap="round" stroke-linejoin="round"/>
<path d="M153.283 145.069C153.283 145.069 145.422 139.83 148.043 148.997C150.663 158.164 153.283 161.802 157.213 161.365C161.144 160.929 163.327 159.619 162.017 156.127C160.707 152.489 153.283 145.069 153.283 145.069Z" fill="white" stroke="#263238" stroke-linecap="round" stroke-linejoin="round"/>
<path d="M206.125 145.069C206.125 145.069 213.985 139.83 211.365 148.997C208.745 158.164 206.125 161.802 202.194 161.365C198.264 160.929 196.081 159.619 197.391 156.127C198.555 152.489 206.125 145.069 206.125 145.069Z" fill="white" stroke="#263238" stroke-linecap="round" stroke-linejoin="round"/>
<path d="M170.46 102.872C170.46 102.872 157.214 107.237 152.847 119.605C148.48 131.973 152.41 146.815 154.593 152.926C156.777 159.037 167.403 170.968 167.403 170.968H191.131C196.808 165.439 201.32 158.891 204.814 151.616C209.618 140.703 209.618 125.28 209.618 125.28C209.618 125.28 213.548 126.589 213.548 121.351C213.548 116.113 201.32 105.928 201.32 105.928C201.32 105.928 206.998 103.745 203.067 100.689C198.991 97.6339 184.871 98.9434 184.871 98.9434C184.871 98.9434 183.125 89.6311 170.46 102.872Z" fill="#263238" stroke="#263238" stroke-linecap="round" stroke-linejoin="round"/>
<path d="M222.428 607.338L226.067 609.521C228.396 609.521 230.58 610.394 232.327 611.704C234.51 614.032 233.782 625.09 233.782 625.09C233.782 625.09 232.035 626.399 223.447 626.399C214.858 626.399 195.935 628.437 194.188 625.381C192.441 622.18 194.479 608.939 194.479 608.939L222.428 607.338Z" fill="white" stroke="#263238" stroke-miterlimit="10"/>
<path d="M123.587 323.749C123.587 323.749 120.822 343.538 120.822 347.612C120.822 351.686 119.948 386.898 119.948 386.898C119.948 386.898 120.385 479.294 120.385 481.04C120.385 482.786 112.67 508.104 115.436 525.273C118.201 542.443 123.587 608.211 123.587 608.211C123.587 608.211 121.841 622.616 123.151 623.926C124.461 625.235 141.201 627.127 144.84 625.235C148.479 623.489 146.15 605.883 146.15 605.883C147.46 601.664 148.188 597.298 148.479 592.788V578.383C148.479 573.872 150.663 533.713 152.992 517.998C155.175 502.284 156.631 481.04 156.631 481.04L166.093 383.697L173.371 383.26C173.371 383.26 182.396 487.879 182.833 495.59C183.27 503.302 181.523 518.58 185.599 536.186C189.675 553.792 191.858 601.518 191.858 601.518C191.858 601.518 190.985 606.029 191.858 607.775C192.732 609.521 195.061 615.05 195.061 615.05C198.263 615.341 201.32 615.341 204.523 615.05C209.617 614.759 214.567 613.449 219.079 611.121C222.427 608.502 223.592 603.846 221.991 599.917C219.225 593.37 218.06 592.06 218.06 592.06C218.06 592.06 222.136 535.313 222.136 521.345C222.136 507.376 219.953 490.207 219.953 488.897C219.953 487.588 222.718 386.025 222.718 375.694C222.718 365.363 221.845 337.281 217.332 325.204C212.82 312.981 140.619 316.183 133.486 316.619C128.682 316.91 125.043 319.675 123.587 323.749Z" fill="#263238" stroke="#263238" stroke-miterlimit="10"/>
<path d="M150.226 382.97L188.946 381.224" stroke="#757575" stroke-linecap="round" stroke-linejoin="round"/>
<path d="M172.789 184.064L148.333 189.884C148.333 189.884 113.106 207.054 105.537 211.564C97.8217 216.075 67.6893 276.896 68.9994 280.097C70.3096 283.298 76.2778 287.373 82.1005 288.246C87.9232 289.119 117.764 255.361 117.764 255.361C117.764 255.361 126.353 297.703 126.353 299.595C126.353 301.487 121.404 323.021 123.587 326.659C125.771 330.297 212.383 326.659 212.383 326.659C212.383 326.659 218.642 327.095 219.661 321.275C220.535 315.455 217.914 298.285 217.914 298.285L227.813 246.486C227.813 246.486 246.737 275.15 250.958 279.806C258.382 287.809 267.553 284.462 272.357 278.497C276.578 273.259 272.793 263.219 271.483 260.018C270.173 256.817 246.154 203.271 238.876 200.943C231.743 198.614 201.465 187.847 201.465 187.847L172.789 184.064Z" fill="#B0BEC5" stroke="#263238" stroke-miterlimit="10"/>
<path d="M148.334 189.884C148.334 189.884 178.175 189.302 183.124 189.302C188.074 189.302 206.27 189.156 206.27 189.156L201.611 179.408C193.751 177.516 185.745 176.643 177.739 176.643C169.15 176.643 160.562 178.098 152.555 181.154L148.334 189.884Z" fill="white" stroke="#263238" stroke-linecap="round" stroke-linejoin="round"/>
<path d="M108.595 231.499L117.765 255.216L101.898 239.501" stroke="#263238" stroke-linecap="round" stroke-linejoin="round"/>
<path d="M105.537 223.641L106.702 226.551" stroke="#263238" stroke-linecap="round" stroke-linejoin="round"/>
<path d="M156.34 295.521C154.884 296.83 153.283 297.994 151.536 299.013" stroke="#263238" stroke-linecap="round" stroke-linejoin="round"/>
<path d="M197.535 227.279C197.535 227.279 181.086 272.385 158.96 293.047" stroke="#263238" stroke-linecap="round" stroke-linejoin="round"/>
<path d="M238.148 220.44L227.812 246.195L244.407 228.152" stroke="#263238" stroke-linecap="round" stroke-linejoin="round"/>
<path d="M65.0693 291.301C67.6895 298.431 72.2021 304.688 78.1704 309.344C88.0689 317.056 114.853 342.228 114.853 342.228C114.562 343.538 114.562 344.993 114.853 346.302C115.29 348.485 122.568 354.45 122.568 354.45V349.94L124.315 346.302L126.062 341.791C128.1 341.064 129.992 340.045 131.885 339.027C132.758 338.445 133.486 337.717 134.068 336.844C136.688 337.281 139.454 337.572 142.22 337.717C145.422 337.717 149.935 334.516 147.169 333.643C144.403 332.77 141.783 333.643 138.144 331.897C134.505 330.151 132.758 328.259 129.119 328.259H119.657L94.6194 287.664L65.0693 291.301Z" fill="white" stroke="#263238" stroke-linecap="round" stroke-linejoin="round"/>
<path d="M75.6957 263.51C75.6957 263.51 70.4553 265.11 69.1452 266.42C67.8351 267.729 60.9935 278.206 62.4491 283.589C63.9048 288.973 65.6516 296.685 77.297 298.867C89.0879 301.05 95.3473 296.103 96.2207 294.793C97.0941 293.484 99.2776 277.478 97.5308 277.478C95.784 277.478 90.8347 283.444 90.8347 283.444C90.8347 283.444 77.4425 280.388 74.6768 278.206C71.7654 276.169 75.6957 263.51 75.6957 263.51Z" fill="#B0BEC5" stroke="#263238" stroke-miterlimit="10"/>
<path d="M282.546 291.301C279.926 298.431 275.413 304.688 269.445 309.344C259.546 317.056 232.762 342.228 232.762 342.228C233.053 343.538 233.053 344.993 232.762 346.302C232.325 348.485 222.427 355.469 222.427 355.469V348.921L221.699 344.702L221.553 341.791C219.515 341.064 217.623 340.045 215.731 339.027C214.857 338.445 214.129 337.717 213.547 336.844C210.927 337.281 208.161 337.572 205.395 337.717C202.193 337.717 197.68 334.516 200.446 333.643C203.212 332.77 205.832 333.643 209.471 331.897C213.11 330.151 214.857 328.26 218.496 328.26H227.958L252.705 287.664L282.546 291.301Z" fill="white" stroke="#263238" stroke-linecap="round" stroke-linejoin="round"/>
<path d="M273.811 265.692C273.811 265.692 277.159 265.11 278.47 266.42C279.78 267.729 286.621 278.206 285.166 283.589C283.856 288.973 281.963 296.685 270.318 298.867C258.527 301.05 252.268 296.103 251.394 294.793C250.521 293.484 249.793 278.06 250.957 279.515C252.559 281.261 254.597 282.571 256.78 283.589C256.78 283.589 270.755 282.862 272.938 275.005C273.666 271.949 273.811 268.893 273.811 265.692Z" fill="#B0BEC5" stroke="#263238" stroke-miterlimit="10"/>
<path d="M144.84 625.381C147.752 623.926 146.878 612.722 146.441 608.066C143.239 609.521 139.745 610.54 136.252 610.976C131.885 611.558 127.372 610.685 123.587 608.211C123.587 608.211 122.132 623.78 123.296 625.236C124.606 626.691 141.201 627.127 144.84 625.381Z" fill="white" stroke="#263238" stroke-miterlimit="10"/>
</svg>
