<svg width="333" height="396" viewBox="0 0 333 396" fill="none" xmlns="http://www.w3.org/2000/svg">
<g clip-path="url(#clip0_507_4762)">
<path d="M285.463 378.52C287.418 380.225 286.501 383.88 284.546 384.854C282.591 385.829 281.186 384.611 280.636 384.367C280.086 384.123 278.558 385.646 270.371 386.803C262.183 387.961 258.761 387.473 256.439 386.011C254.118 384.489 253.568 382.479 255.523 382.113C257.478 381.748 272.57 376.814 272.57 376.814C272.57 376.814 283.446 376.814 285.463 378.52Z" fill="#B0BEC5" stroke="#263238" stroke-linecap="round" stroke-linejoin="round"/>
<path d="M256.378 386.011C258.7 387.473 262.122 387.96 270.309 386.803C278.497 385.646 279.963 384.184 280.574 384.366C281.124 384.61 282.53 385.767 284.485 384.854C285.157 384.488 285.707 383.94 286.012 383.209C282.713 382.844 279.414 383.087 276.236 384.001C270.432 385.585 258.761 386.803 254.301 383.27C254.301 384.062 255.034 385.097 256.378 386.011Z" fill="#263238" stroke="#263238" stroke-linecap="round" stroke-linejoin="round"/>
<path d="M300.555 384.184C301.227 386.011 301.471 388.204 298.722 388.996C295.972 389.787 295.606 388.63 295.606 388.63C291.451 391.249 286.868 393.076 282.041 394.051C273.548 395.878 271.898 396.487 269.821 394.051C267.743 391.615 269.271 389.97 273.548 387.595C276.97 385.463 280.147 383.027 283.141 380.347C290.962 376.51 299.822 382.357 300.555 384.184Z" fill="#B0BEC5" stroke="#263238" stroke-linecap="round" stroke-linejoin="round"/>
<path d="M281.98 394.051C286.807 393.076 291.39 391.249 295.544 388.63C295.544 388.63 295.85 389.787 298.661 388.996C299.944 388.813 300.921 387.716 300.921 386.437C299.455 386.376 295.056 386.316 291.512 388.326C287.174 390.823 276.481 394.112 273.12 394.112C271.715 394.051 270.309 393.685 269.026 393.015C269.21 393.381 269.454 393.746 269.698 394.051C271.837 396.426 273.487 395.878 281.98 394.051Z" fill="#263238" stroke="#263238" stroke-linecap="round" stroke-linejoin="round"/>
<path d="M263.711 258.836C266.643 259.263 269.576 259.263 272.448 258.836C273.548 262.308 274.281 265.902 274.648 269.495C275.137 274.855 279.719 300.741 281.308 310.851C282.896 320.962 287.296 338.747 287.296 348.736C287.296 358.725 286.318 368.957 283.874 374.865C281.43 380.712 281.919 379.799 281.919 379.799C280.758 379.616 279.597 379.433 278.436 379.129C276.42 378.519 274.464 377.728 272.57 376.814C272.57 376.814 272.448 373.038 272.57 370.175C272.693 367.313 273.731 368.348 273.731 365.12C273.731 361.892 274.037 346.299 273.487 338.382C272.998 330.464 264.688 314.81 261.45 293.919C258.211 273.028 257.295 259.263 257.295 259.263C257.295 259.263 259.067 258.167 263.711 258.836Z" fill="#263238" stroke="#263238" stroke-linecap="round" stroke-linejoin="round"/>
<path d="M304.465 257.557C304.893 257.375 305.076 256.948 304.893 256.522C304.649 255.73 298.539 257.192 288.762 259.994C282.897 261.638 276.786 262.552 270.676 262.613C270.676 262.613 271.104 267.181 272.265 275.342C273.426 283.504 277.886 311.4 281.369 324.373C284.852 337.346 283.935 355.984 283.935 360.125C283.935 364.267 281.186 368.287 281.186 373.647C281.125 376.083 281.247 378.459 281.552 380.895C285.402 382.783 289.373 384.488 293.406 385.95C299.761 388.265 299.638 386.864 300.066 386.498C300.494 386.133 301.227 384.671 300.983 382.6C300.738 380.529 302.144 380.164 303.549 372.368C304.954 364.572 306.054 338.016 306.176 331.255C306.299 324.495 305.26 323.094 303.549 315.054C301.838 307.014 304.465 257.618 304.465 257.557C304.465 257.618 304.465 257.557 304.465 257.557Z" fill="#263238"/>
<path d="M304.465 257.557C304.893 257.375 305.076 256.948 304.893 256.522C304.649 255.73 298.539 257.192 288.762 259.994C282.897 261.638 276.786 262.552 270.676 262.613C270.676 262.613 271.104 267.181 272.265 275.342C273.426 283.504 277.886 311.4 281.369 324.373C284.852 337.346 283.935 355.984 283.935 360.125C283.935 364.267 281.186 368.287 281.186 373.647C281.125 376.083 281.247 378.459 281.552 380.895C285.402 382.783 289.373 384.488 293.406 385.95C299.761 388.265 299.638 386.864 300.066 386.498C300.494 386.133 301.227 384.671 300.983 382.6C300.738 380.529 302.144 380.164 303.549 372.368C304.954 364.572 306.054 338.016 306.176 331.255C306.299 324.495 305.26 323.094 303.549 315.054C301.838 307.014 304.465 257.618 304.465 257.557ZM304.465 257.557C304.465 257.618 304.465 257.557 304.465 257.557Z" stroke="#263238" stroke-linecap="round" stroke-linejoin="round"/>
<path d="M279.78 378.276C279.78 378.276 279.78 377.362 279.719 375.961" stroke="white" stroke-width="0.75" stroke-linecap="round" stroke-linejoin="round"/>
<path d="M279.475 373.16C279.292 371.454 279.597 369.749 280.391 368.226C285.952 350.746 281.125 332.656 278.314 314.567C275.503 296.477 270.615 270.957 270.615 270.957" stroke="white" stroke-width="0.75" stroke-linecap="round" stroke-linejoin="round"/>
<path d="M216.418 199.634L213.852 197.32C210.98 196.467 208.047 195.736 205.114 195.249C201.082 194.518 197.354 192.569 194.421 189.706C192.588 187.636 197.538 188.306 199.248 187.879C200.959 187.453 209.025 185.565 209.025 185.565L208.475 184.773C207.925 183.981 206.886 183.311 206.031 182.215C205.236 181.179 204.625 178.865 205.42 177.586C206.214 176.307 207.192 178.987 209.208 180.57C211.286 182.154 214.646 183.189 215.868 185.748C217.029 188.549 218.007 191.412 218.74 194.335L216.418 199.634Z" fill="white" stroke="#263238" stroke-linecap="round" stroke-linejoin="round"/>
<path d="M218.129 204.507L214.34 201.888C214.34 201.888 219.167 194.214 219.167 193.848C219.167 193.483 221.917 195.919 221.917 195.919L218.129 204.507Z" fill="white" stroke="#263238" stroke-linecap="round" stroke-linejoin="round"/>
<path d="M257.417 185.443C257.417 190.377 258.212 229.114 255.34 231.489C252.468 233.925 248.985 234.108 242.997 229.845C237.009 225.581 217.09 205.725 217.09 205.725L222.04 195.371L244.769 209.38C244.769 209.38 249.719 195.371 251.307 184.712C252.896 174.053 255.462 170.582 255.829 170.033C255.829 169.973 257.417 180.51 257.417 185.443Z" fill="#B0BEC5" stroke="#263238" stroke-linecap="round" stroke-linejoin="round"/>
<path d="M195.093 186.966C195.093 185.138 195.093 182.093 194.055 180.448C193.016 178.804 193.138 187.087 193.138 187.087C193.138 187.087 195.093 188.793 195.093 186.966Z" fill="white" stroke="#263238" stroke-linecap="round" stroke-linejoin="round"/>
<path d="M196.132 190.864C195.277 190.742 194.483 190.377 193.81 189.829C192.405 188.793 191.183 185.261 191.305 183.311C191.428 181.362 193.749 184.712 193.749 184.712L196.132 190.864Z" fill="white" stroke="#263238" stroke-linecap="round" stroke-linejoin="round"/>
<path d="M199.493 193.057C198.21 192.63 197.049 191.839 196.132 190.864C194.849 189.341 193.688 185.017 194.177 183.616C194.666 182.215 198.21 188.306 198.21 188.306L199.493 193.057Z" fill="white" stroke="#263238" stroke-linecap="round" stroke-linejoin="round"/>
<path d="M203.77 194.518C203.77 194.518 200.165 193.97 199.493 193.056C198.821 192.143 197.171 186.174 197.416 183.433C197.66 180.692 203.037 192.508 203.404 192.874" fill="white"/>
<path d="M203.77 194.518C203.77 194.518 200.165 193.97 199.493 193.056C198.821 192.143 197.171 186.174 197.416 183.433C197.66 180.692 203.037 192.508 203.404 192.874" stroke="#263238" stroke-linecap="round" stroke-linejoin="round"/>
<path d="M207.13 191.29C207.314 190.925 209.086 190.255 211.957 191.168C214.829 192.082 214.951 194.153 214.951 194.153" stroke="#263238" stroke-linecap="round" stroke-linejoin="round"/>
<path d="M284.974 156.512C281.308 157.243 277.642 158.157 274.037 159.253C274.037 159.253 256.439 166.623 254.912 170.947C253.384 175.272 253.995 226.982 253.995 226.982C253.995 226.982 247.641 257.74 248.007 257.679C248.374 257.558 253.507 262.735 257.784 264.684C262.061 266.633 266.766 268.399 266.766 268.399L268.293 261.943L271.043 268.704C271.043 268.704 275.075 268.704 280.513 268.46C285.952 268.216 312.103 258.898 312.103 258.898L307.154 227.652C307.154 227.652 314.058 173.81 313.936 171.252C313.814 168.694 313.447 168.206 309.659 166.318C305.871 164.369 292.612 156.086 292.612 156.086C291.512 155.599 288.762 155.964 284.974 156.512Z" fill="#B0BEC5" stroke="#263238" stroke-linecap="round" stroke-linejoin="round"/>
<path d="M274.037 159.253C274.037 159.253 272.876 159.74 271.043 160.593C270.554 164.856 270.31 169.12 270.249 173.383C270.249 180.753 271.532 197.503 271.532 197.503L275.32 208.222L280.025 201.096L293.162 156.573L292.551 156.208C291.512 155.598 288.762 155.964 284.974 156.573C281.308 157.243 277.642 158.157 274.037 159.253Z" fill="white" stroke="#263238" stroke-linecap="round" stroke-linejoin="round"/>
<path d="M276.237 160.654L271.959 168.572L275.87 175.576C275.87 175.576 271.959 198.051 271.959 197.746C271.959 197.381 275.32 208.222 275.32 208.222L280.025 201.096L277.703 176.855L283.813 169.303L276.237 160.654Z" fill="#263238" stroke="#263238" stroke-linecap="round" stroke-linejoin="round"/>
<path d="M274.465 154.685L270.432 158.583L270.249 173.383L275.748 164.552L274.465 154.685Z" fill="white" stroke="#263238" stroke-linecap="round" stroke-linejoin="round"/>
<path d="M283.386 143.417C280.819 147.071 271.837 149.934 271.837 149.934L276.542 170.216C276.542 170.216 288.518 157.121 288.518 156.329C288.518 155.538 288.64 137.387 288.64 137.387C288.09 136.534 285.891 139.763 283.386 143.417Z" fill="white" stroke="#263238" stroke-linecap="round" stroke-linejoin="round"/>
<path d="M293.528 155.477L284.729 175.028L278.497 162.968L289.373 150.665L293.528 155.477Z" fill="white" stroke="#263238" stroke-linecap="round" stroke-linejoin="round"/>
<path d="M280.819 167.536L276.542 170.216L278.497 162.968L280.819 167.536Z" fill="white" stroke="#263238" stroke-linecap="round" stroke-linejoin="round"/>
<path d="M258.211 210.842C251.307 212.669 238.415 212.547 238.415 212.547C238.415 212.547 246.724 223.145 250.268 227.469C253.812 231.855 258.456 235.631 269.882 238.494C281.308 241.356 286.563 243.305 287.174 243.427C287.785 243.549 276.725 222.049 274.037 215.349C271.409 208.649 270.248 206.091 270.248 206.091C266.399 208.162 262.366 209.745 258.211 210.842Z" fill="white" stroke="#263238" stroke-width="0.5" stroke-linecap="round" stroke-linejoin="round"/>
<path d="M294.2 231.55L290.106 232.707L292.978 236.605L293.284 237.031L294.2 231.55Z" fill="white" stroke="#263238" stroke-linecap="round" stroke-linejoin="round"/>
<path d="M296.828 235.326L294.567 236.24L296.4 237.519L296.828 235.326Z" fill="#B0BEC5" stroke="#263238" stroke-linecap="round" stroke-linejoin="round"/>
<path d="M293.223 233.438C292.123 233.742 291.023 233.986 289.862 234.108C288.946 234.108 286.746 235.692 283.874 235.692C281.002 235.692 279.414 234.291 277.642 234.108C275.87 233.864 270.921 233.742 269.332 233.621C268.293 233.56 267.193 233.316 266.216 232.951C265.605 232.646 265.116 232.22 264.688 231.672C263.772 230.636 264.016 230.21 264.016 230.21C263.588 229.966 263.222 229.662 262.855 229.296C262.305 228.748 263.1 226.86 263.1 226.86L262.733 226.312C262.428 225.764 262.428 225.155 262.733 224.606C262.977 224.241 275.992 218.455 276.542 218.272C277.092 218.089 285.524 226.434 285.524 226.434L289.434 225.885C294.628 227.408 293.223 233.438 293.223 233.438Z" fill="white" stroke="#263238" stroke-linecap="round" stroke-linejoin="round"/>
<path d="M263.1 226.921L275.32 223.023" stroke="#263238" stroke-linecap="round" stroke-linejoin="round"/>
<path d="M264.016 230.271L275.625 227.591" stroke="#263238" stroke-linecap="round" stroke-linejoin="round"/>
<path d="M265.482 231.976L275.87 231.611" stroke="#263238" stroke-linecap="round" stroke-linejoin="round"/>
<path d="M297.867 234.961L293.223 237.031C293.223 234.778 292.917 232.524 292.306 230.393C291.268 226.86 289.435 225.946 289.435 225.946L293.162 223.875C299.7 226.677 297.867 234.961 297.867 234.961Z" fill="white" stroke="#263238" stroke-linecap="round" stroke-linejoin="round"/>
<path d="M301.777 182.154C302.572 176.307 308.804 169.79 310.515 169.059C312.226 168.389 313.753 167.658 314.914 170.643C316.075 173.627 332.634 223.693 332.634 223.693C327.196 227.53 321.33 230.697 315.097 233.134C309.048 235.448 302.755 236.91 296.339 237.519C296.767 235.448 296.767 233.377 296.339 231.306C295.667 228.322 292.429 224.058 292.429 224.058L311.065 215.531L300.555 190.986" fill="#B0BEC5"/>
<path d="M301.777 182.154C302.572 176.307 308.804 169.79 310.515 169.059C312.226 168.389 313.753 167.658 314.914 170.643C316.075 173.627 332.634 223.693 332.634 223.693C327.196 227.53 321.33 230.697 315.097 233.134C309.048 235.448 302.755 236.91 296.339 237.519C296.767 235.448 296.767 233.377 296.339 231.306C295.667 228.322 292.429 224.058 292.429 224.058L311.065 215.531L300.555 190.986" stroke="#263238" stroke-linecap="round" stroke-linejoin="round"/>
<path d="M273.059 153.954C273.181 154.441 273.915 157.852 274.831 161.08L283.202 145.853L271.226 150.908C271.959 151.883 272.57 152.857 273.059 153.954Z" fill="#263238" stroke="#263238" stroke-linecap="round" stroke-linejoin="round"/>
<path d="M265.971 128.373C265.421 128.373 258.272 129.591 257.356 123.866C256.684 120.699 258.333 117.471 261.389 116.192C261.389 116.192 256.378 111.745 261.877 108.456C267.377 105.167 274.403 105.959 274.403 105.959C274.403 105.959 273.303 101.574 278.741 102.305C284.179 103.036 288.395 108.761 288.579 109.309C288.762 109.857 296.339 111.563 299.149 115.095C301.96 118.628 301.716 123.683 300.127 127.216C298.538 130.322 296.766 133.307 294.811 136.23C293.528 137.448 291.695 137.875 290.045 137.327C287.112 136.413 285.218 135.804 285.096 133.429C284.974 131.053 283.63 124.962 282.835 124.231C282.041 123.562 280.33 123.379 276.847 124.414C273.364 125.632 265.971 128.373 265.971 128.373Z" fill="#263238" stroke="#263238" stroke-linecap="round" stroke-linejoin="round"/>
<path d="M265.666 126.667C265.666 126.667 265.849 132.027 265.483 133.611C264.811 138.971 264.505 144.391 264.383 149.812C264.505 153.284 268.477 155.72 270.31 155.598C272.265 155.477 275.32 153.588 278.131 152.675C281.002 151.761 288.64 148.29 289.679 146.401C290.718 144.391 291.084 143.904 291.084 143.904C291.084 143.904 297.011 142.199 297.439 137.143C297.866 132.088 294.567 131.845 292.306 133.245C291.023 133.976 289.923 134.89 288.946 135.864C288.946 135.864 287.174 135.925 287.357 134.585C287.54 133.733 287.601 132.88 287.663 132.027C287.663 131.053 287.051 130.565 286.196 128.434C285.341 126.363 284.974 126.546 285.707 124.597C286.44 122.648 287.846 119.176 287.846 119.176C287.846 119.176 271.471 121.308 265.666 126.667Z" fill="white" stroke="#263238" stroke-linecap="round" stroke-linejoin="round"/>
<path d="M273.792 127.155C273.792 127.155 276.603 126.545 278.62 127.581" stroke="#263238" stroke-linecap="round" stroke-linejoin="round"/>
<path d="M268.843 127.277C267.865 126.85 266.766 126.972 265.849 127.398" stroke="#263238" stroke-linecap="round" stroke-linejoin="round"/>
<path d="M265.788 145.549C265.788 145.549 267.988 147.254 271.593 145.488" stroke="#263238" stroke-linecap="round" stroke-linejoin="round"/>
<path d="M276.725 130.749C276.725 131.358 276.236 131.906 275.564 131.906C274.892 131.906 274.403 131.419 274.403 130.749C274.403 130.139 274.892 129.591 275.564 129.591C276.236 129.652 276.786 130.139 276.725 130.749Z" fill="#263238"/>
<path d="M268.232 130.383C268.293 130.931 267.865 131.418 267.254 131.358C266.705 131.418 266.216 130.992 266.277 130.383C266.216 129.835 266.643 129.348 267.254 129.408C267.804 129.469 268.293 129.896 268.232 130.383Z" fill="#263238"/>
<path d="M271.104 128.921C271.104 128.921 270.249 133.185 272.448 134.646C274.648 136.108 279.414 135.195 280.575 133.794C281.675 132.332 282.102 128.982 282.102 128.982C282.102 128.982 275.87 127.52 271.104 128.921Z" stroke="#263238" stroke-linecap="round" stroke-linejoin="round"/>
<path d="M268.782 129.043C268.782 129.043 269.637 133.245 268.11 134.829C266.582 136.413 262.855 135.743 262 134.463C261.083 133.184 260.533 129.713 260.533 129.713C260.533 129.713 265.177 127.825 268.782 129.043Z" stroke="#263238" stroke-linecap="round" stroke-linejoin="round"/>
<path d="M268.782 129.043C268.782 129.043 269.332 128.433 271.104 128.982" stroke="#263238" stroke-linecap="round" stroke-linejoin="round"/>
<path d="M282.163 129.347L290.962 133.793" stroke="#263238" stroke-linecap="round" stroke-linejoin="round"/>
<path d="M269.882 130.505C269.882 130.505 262.855 137.327 263.711 139.397C264.566 141.468 270.921 140.737 270.921 140.737" fill="white"/>
<path d="M269.882 130.505C269.882 130.505 262.855 137.327 263.711 139.397C264.566 141.468 270.921 140.737 270.921 140.737" stroke="#263238" stroke-linecap="round" stroke-linejoin="round"/>
</g>
<g filter="url(#filter0_d_507_4762)">
<path d="M252.937 94.5L230.441 75.4641L10.7711 75.4641C5.64759 75.4641 1.5 71.3065 1.5 66.1705L1.5 10.7936C1.5 5.65765 5.64759 1.5 10.7711 1.5L315.229 1.5C320.352 1.5 324.5 5.65766 324.5 10.7936L324.5 66.0483C324.5 71.1842 320.352 75.3418 315.229 75.3418L244.714 75.3418L252.937 94.5Z" fill="white"/>
<path d="M252.614 94.8817C252.791 95.0315 253.048 95.0399 253.234 94.902C253.421 94.764 253.488 94.5159 253.396 94.3028L245.473 75.8418L315.229 75.8418C320.63 75.8418 325 71.4592 325 66.0483L325 10.7936C325 5.38266 320.63 1 315.229 1L10.7711 1C5.37031 1 1 5.38265 1 10.7936L1 66.1705C1 71.5815 5.37031 75.9641 10.7711 75.9641L230.258 75.9641L252.614 94.8817Z" stroke="#333E63" stroke-linecap="round" stroke-linejoin="round"/>
</g>
<path d="M19.462 21.946C20.1433 22.086 20.6613 22.3613 21.016 22.772C21.3707 23.1733 21.548 23.7007 21.548 24.354C21.548 25.2033 21.2447 25.8567 20.638 26.314C20.0407 26.7713 19.1587 27 17.992 27H13.652V17.2H17.726C18.7713 17.2 19.588 17.4147 20.176 17.844C20.764 18.2733 21.058 18.894 21.058 19.706C21.058 20.2567 20.918 20.7233 20.638 21.106C20.358 21.4793 19.966 21.7593 19.462 21.946ZM14.674 21.638H17.67C18.426 21.638 19.0047 21.484 19.406 21.176C19.8167 20.868 20.022 20.42 20.022 19.832C20.022 19.244 19.8167 18.796 19.406 18.488C19.0047 18.18 18.426 18.026 17.67 18.026H14.674V21.638ZM17.992 26.174C19.6813 26.174 20.526 25.544 20.526 24.284C20.526 23.052 19.6813 22.436 17.992 22.436H14.674V26.174H17.992ZM27.5644 19.636H28.5584V22.898H33.1924V19.636H34.1864V27H33.1924V23.752H28.5584V27H27.5644V19.636ZM39.5457 19.58C40.507 19.58 41.2443 19.8227 41.7577 20.308C42.271 20.784 42.5277 21.4933 42.5277 22.436V27H41.5757V25.852C41.3517 26.2347 41.0203 26.5333 40.5817 26.748C40.1523 26.9627 39.639 27.07 39.0417 27.07C38.2203 27.07 37.567 26.874 37.0817 26.482C36.5963 26.09 36.3537 25.572 36.3537 24.928C36.3537 24.3027 36.5777 23.7987 37.0257 23.416C37.483 23.0333 38.2063 22.842 39.1957 22.842H41.5337V22.394C41.5337 21.7593 41.3563 21.2787 41.0017 20.952C40.647 20.616 40.129 20.448 39.4477 20.448C38.981 20.448 38.533 20.5273 38.1037 20.686C37.6743 20.8353 37.3057 21.0453 36.9977 21.316L36.5497 20.574C36.923 20.2567 37.371 20.014 37.8937 19.846C38.4163 19.6687 38.967 19.58 39.5457 19.58ZM39.1957 26.286C39.7557 26.286 40.2363 26.16 40.6377 25.908C41.039 25.6467 41.3377 25.2733 41.5337 24.788V23.584H39.2237C37.9637 23.584 37.3337 24.0227 37.3337 24.9C37.3337 25.3293 37.497 25.67 37.8237 25.922C38.1503 26.1647 38.6077 26.286 39.1957 26.286ZM55.3378 19.636V27H45.1738V19.636H46.1678V26.132H49.7798V19.636H50.7738V26.132H54.3438V19.636H55.3378ZM64.6157 23.626H58.4557C58.5117 24.3913 58.8057 25.012 59.3377 25.488C59.8697 25.9547 60.5417 26.188 61.3537 26.188C61.8111 26.188 62.2311 26.1087 62.6137 25.95C62.9964 25.782 63.3277 25.5393 63.6077 25.222L64.1677 25.866C63.8411 26.258 63.4304 26.5567 62.9357 26.762C62.4504 26.9673 61.9137 27.07 61.3257 27.07C60.5697 27.07 59.8977 26.9113 59.3097 26.594C58.7311 26.2673 58.2784 25.8193 57.9517 25.25C57.6251 24.6807 57.4617 24.0367 57.4617 23.318C57.4617 22.5993 57.6157 21.9553 57.9237 21.386C58.2411 20.8167 58.6704 20.3733 59.2117 20.056C59.7624 19.7387 60.3784 19.58 61.0597 19.58C61.7411 19.58 62.3524 19.7387 62.8937 20.056C63.4351 20.3733 63.8597 20.8167 64.1677 21.386C64.4757 21.946 64.6297 22.59 64.6297 23.318L64.6157 23.626ZM61.0597 20.434C60.3504 20.434 59.7531 20.6627 59.2677 21.12C58.7917 21.568 58.5211 22.156 58.4557 22.884H63.6777C63.6124 22.156 63.3371 21.568 62.8517 21.12C62.3757 20.6627 61.7784 20.434 61.0597 20.434ZM75.062 19.636V27H74.152V21.176L71.17 26.104H70.722L67.74 21.162V27H66.83V19.636H67.838L70.96 24.942L74.138 19.636H75.062ZM88.1626 19.636V27H87.1686V20.518H82.5486V27H81.5546V19.636H88.1626ZM94.0262 27.07C93.3169 27.07 92.6776 26.9113 92.1082 26.594C91.5389 26.2673 91.0909 25.8193 90.7642 25.25C90.4376 24.6807 90.2742 24.0367 90.2742 23.318C90.2742 22.5993 90.4376 21.9553 90.7642 21.386C91.0909 20.8167 91.5389 20.3733 92.1082 20.056C92.6776 19.7387 93.3169 19.58 94.0262 19.58C94.7356 19.58 95.3749 19.7387 95.9442 20.056C96.5136 20.3733 96.9569 20.8167 97.2742 21.386C97.6009 21.9553 97.7642 22.5993 97.7642 23.318C97.7642 24.0367 97.6009 24.6807 97.2742 25.25C96.9569 25.8193 96.5136 26.2673 95.9442 26.594C95.3749 26.9113 94.7356 27.07 94.0262 27.07ZM94.0262 26.188C94.5489 26.188 95.0156 26.0713 95.4262 25.838C95.8462 25.5953 96.1729 25.2547 96.4062 24.816C96.6396 24.3773 96.7562 23.878 96.7562 23.318C96.7562 22.758 96.6396 22.2587 96.4062 21.82C96.1729 21.3813 95.8462 21.0453 95.4262 20.812C95.0156 20.5693 94.5489 20.448 94.0262 20.448C93.5036 20.448 93.0322 20.5693 92.6122 20.812C92.2016 21.0453 91.8749 21.3813 91.6322 21.82C91.3989 22.2587 91.2822 22.758 91.2822 23.318C91.2822 23.878 91.3989 24.3773 91.6322 24.816C91.8749 25.2547 92.2016 25.5953 92.6122 25.838C93.0322 26.0713 93.5036 26.188 94.0262 26.188ZM102.563 23.724H100.883V27H99.8886V19.636H100.883V22.87H102.577L105.167 19.636H106.245L103.347 23.206L106.455 27H105.279L102.563 23.724ZM111.817 19.58C112.508 19.58 113.133 19.7387 113.693 20.056C114.253 20.364 114.692 20.8027 115.009 21.372C115.327 21.9413 115.485 22.59 115.485 23.318C115.485 24.0553 115.327 24.7087 115.009 25.278C114.692 25.8473 114.253 26.2907 113.693 26.608C113.143 26.916 112.517 27.07 111.817 27.07C111.22 27.07 110.679 26.9487 110.193 26.706C109.717 26.454 109.325 26.09 109.017 25.614V29.716H108.023V19.636H108.975V21.092C109.274 20.6067 109.666 20.2333 110.151 19.972C110.646 19.7107 111.201 19.58 111.817 19.58ZM111.747 26.188C112.261 26.188 112.727 26.0713 113.147 25.838C113.567 25.5953 113.894 25.2547 114.127 24.816C114.37 24.3773 114.491 23.878 114.491 23.318C114.491 22.758 114.37 22.2633 114.127 21.834C113.894 21.3953 113.567 21.0547 113.147 20.812C112.727 20.5693 112.261 20.448 111.747 20.448C111.225 20.448 110.753 20.5693 110.333 20.812C109.923 21.0547 109.596 21.3953 109.353 21.834C109.12 22.2633 109.003 22.758 109.003 23.318C109.003 23.878 109.12 24.3773 109.353 24.816C109.596 25.2547 109.923 25.5953 110.333 25.838C110.753 26.0713 111.225 26.188 111.747 26.188ZM120.715 22.24C121.639 22.2493 122.344 22.4547 122.829 22.856C123.314 23.2573 123.557 23.836 123.557 24.592C123.557 25.376 123.296 25.978 122.773 26.398C122.25 26.818 121.504 27.0233 120.533 27.014L117.621 27V19.636H118.615V22.212L120.715 22.24ZM124.789 19.636H125.783V27H124.789V19.636ZM120.477 26.258C121.158 26.2673 121.672 26.132 122.017 25.852C122.372 25.5627 122.549 25.1427 122.549 24.592C122.549 24.0507 122.376 23.6493 122.031 23.388C121.686 23.1267 121.168 22.9913 120.477 22.982L118.615 22.954V26.23L120.477 26.258ZM133.793 20.518H131.007V27H130.013V20.518H127.227V19.636H133.793V20.518ZM135.23 19.636H136.224V25.488L141.138 19.636H142.02V27H141.026V21.148L136.126 27H135.23V19.636ZM144.869 19.636H145.863V25.488L150.777 19.636H151.659V27H150.665V21.148L145.765 27H144.869V19.636ZM161.742 19.818C162.423 19.818 163.03 19.972 163.562 20.28C164.103 20.5787 164.523 21.0033 164.822 21.554C165.12 22.0953 165.27 22.716 165.27 23.416C165.27 24.1347 165.111 24.774 164.794 25.334C164.486 25.8847 164.052 26.314 163.492 26.622C162.932 26.93 162.288 27.084 161.56 27.084C160.337 27.084 159.39 26.6547 158.718 25.796C158.046 24.9373 157.71 23.752 157.71 22.24C157.71 20.6627 158.008 19.454 158.606 18.614C159.212 17.774 160.155 17.2047 161.434 16.906L164.738 16.15L164.906 17.06L161.798 17.774C160.743 18.0073 159.968 18.4227 159.474 19.02C158.979 19.608 158.708 20.4807 158.662 21.638C158.96 21.0687 159.376 20.6253 159.908 20.308C160.44 19.9813 161.051 19.818 161.742 19.818ZM161.588 26.258C162.101 26.258 162.558 26.1413 162.96 25.908C163.37 25.6653 163.688 25.3293 163.912 24.9C164.145 24.4707 164.262 23.9853 164.262 23.444C164.262 22.9027 164.15 22.4267 163.926 22.016C163.702 21.6053 163.384 21.288 162.974 21.064C162.572 20.8307 162.11 20.714 161.588 20.714C161.065 20.714 160.598 20.8307 160.188 21.064C159.786 21.288 159.469 21.6053 159.236 22.016C159.012 22.4267 158.9 22.9027 158.9 23.444C158.9 23.9853 159.012 24.4707 159.236 24.9C159.469 25.3293 159.791 25.6653 160.202 25.908C160.612 26.1413 161.074 26.258 161.588 26.258ZM170.438 27.07C169.729 27.07 169.09 26.9113 168.52 26.594C167.951 26.2673 167.503 25.8193 167.176 25.25C166.85 24.6807 166.686 24.0367 166.686 23.318C166.686 22.5993 166.85 21.9553 167.176 21.386C167.503 20.8167 167.951 20.3733 168.52 20.056C169.09 19.7387 169.729 19.58 170.438 19.58C171.148 19.58 171.787 19.7387 172.356 20.056C172.926 20.3733 173.369 20.8167 173.686 21.386C174.013 21.9553 174.176 22.5993 174.176 23.318C174.176 24.0367 174.013 24.6807 173.686 25.25C173.369 25.8193 172.926 26.2673 172.356 26.594C171.787 26.9113 171.148 27.07 170.438 27.07ZM170.438 26.188C170.961 26.188 171.428 26.0713 171.838 25.838C172.258 25.5953 172.585 25.2547 172.818 24.816C173.052 24.3773 173.168 23.878 173.168 23.318C173.168 22.758 173.052 22.2587 172.818 21.82C172.585 21.3813 172.258 21.0453 171.838 20.812C171.428 20.5693 170.961 20.448 170.438 20.448C169.916 20.448 169.444 20.5693 169.024 20.812C168.614 21.0453 168.287 21.3813 168.044 21.82C167.811 22.2587 167.694 22.758 167.694 23.318C167.694 23.878 167.811 24.3773 168.044 24.816C168.287 25.2547 168.614 25.5953 169.024 25.838C169.444 26.0713 169.916 26.188 170.438 26.188ZM182.28 19.636V27H181.286V20.518H177.758L177.66 22.338C177.585 23.8687 177.408 25.0447 177.128 25.866C176.848 26.6873 176.348 27.098 175.63 27.098C175.434 27.098 175.196 27.0607 174.916 26.986L174.986 26.132C175.154 26.1693 175.27 26.188 175.336 26.188C175.718 26.188 176.008 26.0107 176.204 25.656C176.4 25.3013 176.53 24.8627 176.596 24.34C176.661 23.8173 176.717 23.1267 176.764 22.268L176.89 19.636H182.28ZM191.545 23.626H185.385C185.441 24.3913 185.735 25.012 186.267 25.488C186.799 25.9547 187.471 26.188 188.283 26.188C188.741 26.188 189.161 26.1087 189.543 25.95C189.926 25.782 190.257 25.5393 190.537 25.222L191.097 25.866C190.771 26.258 190.36 26.5567 189.865 26.762C189.38 26.9673 188.843 27.07 188.255 27.07C187.499 27.07 186.827 26.9113 186.239 26.594C185.661 26.2673 185.208 25.8193 184.881 25.25C184.555 24.6807 184.391 24.0367 184.391 23.318C184.391 22.5993 184.545 21.9553 184.853 21.386C185.171 20.8167 185.6 20.3733 186.141 20.056C186.692 19.7387 187.308 19.58 187.989 19.58C188.671 19.58 189.282 19.7387 189.823 20.056C190.365 20.3733 190.789 20.8167 191.097 21.386C191.405 21.946 191.559 22.59 191.559 23.318L191.545 23.626ZM187.989 20.434C187.28 20.434 186.683 20.6627 186.197 21.12C185.721 21.568 185.451 22.156 185.385 22.884H190.607C190.542 22.156 190.267 21.568 189.781 21.12C189.305 20.6627 188.708 20.434 187.989 20.434ZM200.2 23.626H194.04C194.096 24.3913 194.39 25.012 194.922 25.488C195.454 25.9547 196.126 26.188 196.938 26.188C197.395 26.188 197.815 26.1087 198.198 25.95C198.58 25.782 198.912 25.5393 199.192 25.222L199.752 25.866C199.425 26.258 199.014 26.5567 198.52 26.762C198.034 26.9673 197.498 27.07 196.91 27.07C196.154 27.07 195.482 26.9113 194.894 26.594C194.315 26.2673 193.862 25.8193 193.536 25.25C193.209 24.6807 193.046 24.0367 193.046 23.318C193.046 22.5993 193.2 21.9553 193.508 21.386C193.825 20.8167 194.254 20.3733 194.796 20.056C195.346 19.7387 195.962 19.58 196.644 19.58C197.325 19.58 197.936 19.7387 198.478 20.056C199.019 20.3733 199.444 20.8167 199.752 21.386C200.06 21.946 200.214 22.59 200.214 23.318L200.2 23.626ZM196.644 20.434C195.934 20.434 195.337 20.6627 194.852 21.12C194.376 21.568 194.105 22.156 194.04 22.884H199.262C199.196 22.156 198.921 21.568 198.436 21.12C197.96 20.6627 197.362 20.434 196.644 20.434ZM208.108 17.2V27H207.1V18.096H204.79V17.2H208.108ZM217.143 26.104V27H210.269V26.286L214.343 22.296C214.856 21.792 215.201 21.358 215.379 20.994C215.565 20.6207 215.659 20.2473 215.659 19.874C215.659 19.2953 215.458 18.8473 215.057 18.53C214.665 18.2033 214.1 18.04 213.363 18.04C212.215 18.04 211.323 18.404 210.689 19.132L209.975 18.516C210.357 18.068 210.843 17.7227 211.431 17.48C212.028 17.2373 212.7 17.116 213.447 17.116C214.445 17.116 215.234 17.354 215.813 17.83C216.401 18.2967 216.695 18.9407 216.695 19.762C216.695 20.266 216.583 20.7513 216.359 21.218C216.135 21.6847 215.71 22.2213 215.085 22.828L211.753 26.104H217.143ZM222.259 27.084C221.503 27.084 220.826 26.8833 220.229 26.482C219.641 26.0807 219.179 25.5067 218.843 24.76C218.516 24.004 218.353 23.1173 218.353 22.1C218.353 21.0827 218.516 20.2007 218.843 19.454C219.179 18.698 219.641 18.1193 220.229 17.718C220.826 17.3167 221.503 17.116 222.259 17.116C223.015 17.116 223.687 17.3167 224.275 17.718C224.872 18.1193 225.339 18.698 225.675 19.454C226.011 20.2007 226.179 21.0827 226.179 22.1C226.179 23.1173 226.011 24.004 225.675 24.76C225.339 25.5067 224.872 26.0807 224.275 26.482C223.687 26.8833 223.015 27.084 222.259 27.084ZM222.259 26.16C222.828 26.16 223.328 26.0013 223.757 25.684C224.196 25.3667 224.536 24.9047 224.779 24.298C225.022 23.6913 225.143 22.9587 225.143 22.1C225.143 21.2413 225.022 20.5087 224.779 19.902C224.536 19.2953 224.196 18.8333 223.757 18.516C223.328 18.1987 222.828 18.04 222.259 18.04C221.69 18.04 221.186 18.1987 220.747 18.516C220.318 18.8333 219.982 19.2953 219.739 19.902C219.496 20.5087 219.375 21.2413 219.375 22.1C219.375 22.9587 219.496 23.6913 219.739 24.298C219.982 24.9047 220.318 25.3667 220.747 25.684C221.186 26.0013 221.69 26.16 222.259 26.16ZM234.507 19.58C235.468 19.58 236.205 19.8227 236.719 20.308C237.232 20.784 237.489 21.4933 237.489 22.436V27H236.537V25.852C236.313 26.2347 235.981 26.5333 235.543 26.748C235.113 26.9627 234.6 27.07 234.003 27.07C233.181 27.07 232.528 26.874 232.043 26.482C231.557 26.09 231.315 25.572 231.315 24.928C231.315 24.3027 231.539 23.7987 231.987 23.416C232.444 23.0333 233.167 22.842 234.157 22.842H236.495V22.394C236.495 21.7593 236.317 21.2787 235.963 20.952C235.608 20.616 235.09 20.448 234.409 20.448C233.942 20.448 233.494 20.5273 233.065 20.686C232.635 20.8353 232.267 21.0453 231.959 21.316L231.511 20.574C231.884 20.2567 232.332 20.014 232.855 19.846C233.377 19.6687 233.928 19.58 234.507 19.58ZM234.157 26.286C234.717 26.286 235.197 26.16 235.599 25.908C236 25.6467 236.299 25.2733 236.495 24.788V23.584H234.185C232.925 23.584 232.295 24.0227 232.295 24.9C232.295 25.3293 232.458 25.67 232.785 25.922C233.111 26.1647 233.569 26.286 234.157 26.286ZM242.809 23.724H241.129V27H240.135V19.636H241.129V22.87H242.823L245.413 19.636H246.491L243.593 23.206L246.701 27H245.525L242.809 23.724ZM255.941 26.132V28.848H255.003V27H248.269V19.636H249.263V26.132H253.757V19.636H254.751V26.132H255.941ZM257.84 19.636H258.834V25.488L263.748 19.636H264.63V27H263.636V21.148L258.736 27H257.84V19.636ZM267.478 19.636H268.472V25.488L273.386 19.636H274.268V27H273.274V21.148L268.374 27H267.478V19.636ZM270.824 18.572C270.19 18.572 269.686 18.4133 269.312 18.096C268.939 17.7787 268.748 17.3307 268.738 16.752H269.452C269.462 17.116 269.592 17.41 269.844 17.634C270.096 17.8487 270.423 17.956 270.824 17.956C271.226 17.956 271.552 17.8487 271.804 17.634C272.066 17.41 272.201 17.116 272.21 16.752H272.924C272.915 17.3307 272.719 17.7787 272.336 18.096C271.963 18.4133 271.459 18.572 270.824 18.572ZM277.201 25.544C277.416 25.544 277.593 25.6187 277.733 25.768C277.873 25.908 277.943 26.0853 277.943 26.3C277.943 26.412 277.924 26.5333 277.887 26.664C277.859 26.7947 277.812 26.944 277.747 27.112L277.159 29.044H276.487L276.963 27.014C276.814 26.9673 276.692 26.8833 276.599 26.762C276.506 26.6313 276.459 26.4773 276.459 26.3C276.459 26.0853 276.529 25.908 276.669 25.768C276.809 25.6187 276.986 25.544 277.201 25.544Z" fill="#FF5745"/>
<path d="M18.972 36.636V44H17.978V40.934C17.1287 41.3073 16.2933 41.494 15.472 41.494C14.5853 41.494 13.8947 41.2933 13.4 40.892C12.9053 40.4813 12.658 39.87 12.658 39.058V36.636H13.652V39.002C13.652 39.5527 13.8293 39.9727 14.184 40.262C14.5387 40.542 15.0287 40.682 15.654 40.682C16.3447 40.682 17.1193 40.5 17.978 40.136V36.636H18.972ZM26.9749 37.518H24.1889V44H23.1949V37.518H20.4089V36.636H26.9749V37.518ZM31.1083 44.07C30.3989 44.07 29.7596 43.9113 29.1903 43.594C28.6209 43.2673 28.1729 42.8193 27.8463 42.25C27.5196 41.6807 27.3563 41.0367 27.3563 40.318C27.3563 39.5993 27.5196 38.9553 27.8463 38.386C28.1729 37.8167 28.6209 37.3733 29.1903 37.056C29.7596 36.7387 30.3989 36.58 31.1083 36.58C31.8176 36.58 32.4569 36.7387 33.0263 37.056C33.5956 37.3733 34.0389 37.8167 34.3563 38.386C34.6829 38.9553 34.8463 39.5993 34.8463 40.318C34.8463 41.0367 34.6829 41.6807 34.3563 42.25C34.0389 42.8193 33.5956 43.2673 33.0263 43.594C32.4569 43.9113 31.8176 44.07 31.1083 44.07ZM31.1083 43.188C31.6309 43.188 32.0976 43.0713 32.5083 42.838C32.9283 42.5953 33.2549 42.2547 33.4883 41.816C33.7216 41.3773 33.8383 40.878 33.8383 40.318C33.8383 39.758 33.7216 39.2587 33.4883 38.82C33.2549 38.3813 32.9283 38.0453 32.5083 37.812C32.0976 37.5693 31.6309 37.448 31.1083 37.448C30.5856 37.448 30.1143 37.5693 29.6943 37.812C29.2836 38.0453 28.9569 38.3813 28.7142 38.82C28.4809 39.2587 28.3643 39.758 28.3643 40.318C28.3643 40.878 28.4809 41.3773 28.7142 41.816C28.9569 42.2547 29.2836 42.5953 29.6943 42.838C30.1143 43.0713 30.5856 43.188 31.1083 43.188ZM40.5406 36.818C41.222 36.818 41.8286 36.972 42.3606 37.28C42.902 37.5787 43.322 38.0033 43.6206 38.554C43.9193 39.0953 44.0686 39.716 44.0686 40.416C44.0686 41.1347 43.91 41.774 43.5926 42.334C43.2846 42.8847 42.8506 43.314 42.2906 43.622C41.7306 43.93 41.0866 44.084 40.3586 44.084C39.136 44.084 38.1886 43.6547 37.5166 42.796C36.8446 41.9373 36.5086 40.752 36.5086 39.24C36.5086 37.6627 36.8073 36.454 37.4046 35.614C38.0113 34.774 38.954 34.2047 40.2326 33.906L43.5366 33.15L43.7046 34.06L40.5966 34.774C39.542 35.0073 38.7673 35.4227 38.2726 36.02C37.778 36.608 37.5073 37.4807 37.4606 38.638C37.7593 38.0687 38.1746 37.6253 38.7066 37.308C39.2386 36.9813 39.85 36.818 40.5406 36.818ZM40.3866 43.258C40.9 43.258 41.3573 43.1413 41.7586 42.908C42.1693 42.6653 42.4866 42.3293 42.7106 41.9C42.944 41.4707 43.0606 40.9853 43.0606 40.444C43.0606 39.9027 42.9486 39.4267 42.7246 39.016C42.5006 38.6053 42.1833 38.288 41.7726 38.064C41.3713 37.8307 40.9093 37.714 40.3866 37.714C39.864 37.714 39.3973 37.8307 38.9866 38.064C38.5853 38.288 38.268 38.6053 38.0346 39.016C37.8106 39.4267 37.6986 39.9027 37.6986 40.444C37.6986 40.9853 37.8106 41.4707 38.0346 41.9C38.268 42.3293 38.59 42.6653 39.0006 42.908C39.4113 43.1413 39.8733 43.258 40.3866 43.258ZM49.2932 39.24C50.2172 39.2493 50.9218 39.4547 51.4072 39.856C51.8925 40.2573 52.1352 40.836 52.1352 41.592C52.1352 42.376 51.8738 42.978 51.3512 43.398C50.8285 43.818 50.0818 44.0233 49.1112 44.014L46.1992 44V36.636H47.1932V39.212L49.2932 39.24ZM53.3672 36.636H54.3612V44H53.3672V36.636ZM49.0552 43.258C49.7365 43.2673 50.2498 43.132 50.5952 42.852C50.9498 42.5627 51.1272 42.1427 51.1272 41.592C51.1272 41.0507 50.9545 40.6493 50.6092 40.388C50.2638 40.1267 49.7458 39.9913 49.0552 39.982L47.1932 39.954V43.23L49.0552 43.258ZM67.4634 36.636V44H66.4694V37.518H61.8494V44H60.8554V36.636H67.4634ZM73.327 44.07C72.6177 44.07 71.9783 43.9113 71.409 43.594C70.8397 43.2673 70.3917 42.8193 70.065 42.25C69.7383 41.6807 69.575 41.0367 69.575 40.318C69.575 39.5993 69.7383 38.9553 70.065 38.386C70.3917 37.8167 70.8397 37.3733 71.409 37.056C71.9783 36.7387 72.6177 36.58 73.327 36.58C74.0363 36.58 74.6757 36.7387 75.245 37.056C75.8143 37.3733 76.2577 37.8167 76.575 38.386C76.9017 38.9553 77.065 39.5993 77.065 40.318C77.065 41.0367 76.9017 41.6807 76.575 42.25C76.2577 42.8193 75.8143 43.2673 75.245 43.594C74.6757 43.9113 74.0363 44.07 73.327 44.07ZM73.327 43.188C73.8497 43.188 74.3163 43.0713 74.727 42.838C75.147 42.5953 75.4737 42.2547 75.707 41.816C75.9403 41.3773 76.057 40.878 76.057 40.318C76.057 39.758 75.9403 39.2587 75.707 38.82C75.4737 38.3813 75.147 38.0453 74.727 37.812C74.3163 37.5693 73.8497 37.448 73.327 37.448C72.8043 37.448 72.333 37.5693 71.913 37.812C71.5023 38.0453 71.1757 38.3813 70.933 38.82C70.6997 39.2587 70.583 39.758 70.583 40.318C70.583 40.878 70.6997 41.3773 70.933 41.816C71.1757 42.2547 71.5023 42.5953 71.913 42.838C72.333 43.0713 72.8043 43.188 73.327 43.188ZM86.3304 43.132V45.778H85.3924V44H78.7984V45.778H77.8604V43.132H78.2804C78.775 43.104 79.111 42.74 79.2884 42.04C79.4657 41.34 79.587 40.36 79.6524 39.1L79.7504 36.636H85.1824V43.132H86.3304ZM80.5624 39.156C80.5157 40.2013 80.427 41.0647 80.2964 41.746C80.1657 42.418 79.9324 42.88 79.5964 43.132H84.1884V37.518H80.6464L80.5624 39.156ZM91.3475 44.07C90.6195 44.07 89.9662 43.9113 89.3875 43.594C88.8182 43.2767 88.3702 42.8333 88.0435 42.264C87.7168 41.6853 87.5535 41.0367 87.5535 40.318C87.5535 39.5993 87.7168 38.9553 88.0435 38.386C88.3702 37.8167 88.8182 37.3733 89.3875 37.056C89.9662 36.7387 90.6195 36.58 91.3475 36.58C91.9822 36.58 92.5468 36.706 93.0415 36.958C93.5455 37.2007 93.9422 37.56 94.2315 38.036L93.4895 38.54C93.2468 38.176 92.9388 37.9053 92.5655 37.728C92.1922 37.5413 91.7862 37.448 91.3475 37.448C90.8155 37.448 90.3348 37.5693 89.9055 37.812C89.4855 38.0453 89.1542 38.3813 88.9115 38.82C88.6782 39.2587 88.5615 39.758 88.5615 40.318C88.5615 40.8873 88.6782 41.3913 88.9115 41.83C89.1542 42.2593 89.4855 42.5953 89.9055 42.838C90.3348 43.0713 90.8155 43.188 91.3475 43.188C91.7862 43.188 92.1922 43.0993 92.5655 42.922C92.9388 42.7447 93.2468 42.474 93.4895 42.11L94.2315 42.614C93.9422 43.09 93.5455 43.454 93.0415 43.706C92.5375 43.9487 91.9728 44.07 91.3475 44.07ZM100.846 40.192C101.845 40.4253 102.344 41.0273 102.344 41.998C102.344 42.642 102.106 43.1367 101.63 43.482C101.154 43.8273 100.445 44 99.5022 44H96.1562V36.636H99.4042C100.244 36.636 100.902 36.7993 101.378 37.126C101.854 37.4527 102.092 37.9193 102.092 38.526C102.092 38.9273 101.98 39.2727 101.756 39.562C101.542 39.842 101.238 40.052 100.846 40.192ZM97.1222 39.912H99.3342C99.9035 39.912 100.338 39.8047 100.636 39.59C100.944 39.3753 101.098 39.0627 101.098 38.652C101.098 38.2413 100.944 37.9333 100.636 37.728C100.338 37.5227 99.9035 37.42 99.3342 37.42H97.1222V39.912ZM99.4602 43.216C100.095 43.216 100.571 43.1133 100.888 42.908C101.206 42.7027 101.364 42.3807 101.364 41.942C101.364 41.5033 101.22 41.1813 100.93 40.976C100.641 40.7613 100.184 40.654 99.5582 40.654H97.1222V43.216H99.4602ZM111.114 40.626H104.954C105.01 41.3913 105.304 42.012 105.836 42.488C106.368 42.9547 107.04 43.188 107.852 43.188C108.309 43.188 108.729 43.1087 109.112 42.95C109.494 42.782 109.826 42.5393 110.106 42.222L110.666 42.866C110.339 43.258 109.928 43.5567 109.434 43.762C108.948 43.9673 108.412 44.07 107.824 44.07C107.068 44.07 106.396 43.9113 105.808 43.594C105.229 43.2673 104.776 42.8193 104.45 42.25C104.123 41.6807 103.96 41.0367 103.96 40.318C103.96 39.5993 104.114 38.9553 104.422 38.386C104.739 37.8167 105.168 37.3733 105.71 37.056C106.26 36.7387 106.876 36.58 107.558 36.58C108.239 36.58 108.85 36.7387 109.392 37.056C109.933 37.3733 110.358 37.8167 110.666 38.386C110.974 38.946 111.128 39.59 111.128 40.318L111.114 40.626ZM107.558 37.434C106.848 37.434 106.251 37.6627 105.766 38.12C105.29 38.568 105.019 39.156 104.954 39.884H110.176C110.11 39.156 109.835 38.568 109.35 38.12C108.874 37.6627 108.276 37.434 107.558 37.434ZM118.886 36.636V44H117.892V40.934C117.043 41.3073 116.207 41.494 115.386 41.494C114.499 41.494 113.809 41.2933 113.314 40.892C112.819 40.4813 112.572 39.87 112.572 39.058V36.636H113.566V39.002C113.566 39.5527 113.743 39.9727 114.098 40.262C114.453 40.542 114.943 40.682 115.568 40.682C116.259 40.682 117.033 40.5 117.892 40.136V36.636H118.886ZM121.709 36.636H122.703V42.488L127.617 36.636H128.499V44H127.505V38.148L122.605 44H121.709V36.636ZM136.038 40.192C137.036 40.4253 137.536 41.0273 137.536 41.998C137.536 42.642 137.298 43.1367 136.822 43.482C136.346 43.8273 135.636 44 134.694 44H131.348V36.636H134.596C135.436 36.636 136.094 36.7993 136.57 37.126C137.046 37.4527 137.284 37.9193 137.284 38.526C137.284 38.9273 137.172 39.2727 136.948 39.562C136.733 39.842 136.43 40.052 136.038 40.192ZM132.314 39.912H134.526C135.095 39.912 135.529 39.8047 135.828 39.59C136.136 39.3753 136.29 39.0627 136.29 38.652C136.29 38.2413 136.136 37.9333 135.828 37.728C135.529 37.5227 135.095 37.42 134.526 37.42H132.314V39.912ZM134.652 43.216C135.286 43.216 135.762 43.1133 136.08 42.908C136.397 42.7027 136.556 42.3807 136.556 41.942C136.556 41.5033 136.411 41.1813 136.122 40.976C135.832 40.7613 135.375 40.654 134.75 40.654H132.314V43.216H134.652ZM142.399 36.58C143.361 36.58 144.098 36.8227 144.611 37.308C145.125 37.784 145.381 38.4933 145.381 39.436V44H144.429V42.852C144.205 43.2347 143.874 43.5333 143.435 43.748C143.006 43.9627 142.493 44.07 141.895 44.07C141.074 44.07 140.421 43.874 139.935 43.482C139.45 43.09 139.207 42.572 139.207 41.928C139.207 41.3027 139.431 40.7987 139.879 40.416C140.337 40.0333 141.06 39.842 142.049 39.842H144.387V39.394C144.387 38.7593 144.21 38.2787 143.855 37.952C143.501 37.616 142.983 37.448 142.301 37.448C141.835 37.448 141.387 37.5273 140.957 37.686C140.528 37.8353 140.159 38.0453 139.851 38.316L139.403 37.574C139.777 37.2567 140.225 37.014 140.747 36.846C141.27 36.6687 141.821 36.58 142.399 36.58ZM142.049 43.286C142.609 43.286 143.09 43.16 143.491 42.908C143.893 42.6467 144.191 42.2733 144.387 41.788V40.584H142.077C140.817 40.584 140.187 41.0227 140.187 41.9C140.187 42.3293 140.351 42.67 140.677 42.922C141.004 43.1647 141.461 43.286 142.049 43.286ZM153.207 37.518H150.421V44H149.427V37.518H146.641V36.636H153.207V37.518ZM157.808 39.24C158.732 39.2493 159.432 39.4547 159.908 39.856C160.394 40.2573 160.636 40.836 160.636 41.592C160.636 42.376 160.375 42.978 159.852 43.398C159.339 43.818 158.592 44.0233 157.612 44.014L154.644 44V36.636H155.638V39.212L157.808 39.24ZM157.556 43.258C158.238 43.2673 158.751 43.132 159.096 42.852C159.451 42.5627 159.628 42.1427 159.628 41.592C159.628 41.0507 159.456 40.6493 159.11 40.388C158.765 40.1267 158.247 39.9913 157.556 39.982L155.638 39.954V43.23L157.556 43.258ZM169.767 36.818C170.449 36.818 171.055 36.972 171.587 37.28C172.129 37.5787 172.549 38.0033 172.847 38.554C173.146 39.0953 173.295 39.716 173.295 40.416C173.295 41.1347 173.137 41.774 172.819 42.334C172.511 42.8847 172.077 43.314 171.517 43.622C170.957 43.93 170.313 44.084 169.585 44.084C168.363 44.084 167.415 43.6547 166.743 42.796C166.071 41.9373 165.735 40.752 165.735 39.24C165.735 37.6627 166.034 36.454 166.631 35.614C167.238 34.774 168.181 34.2047 169.459 33.906L172.763 33.15L172.931 34.06L169.823 34.774C168.769 35.0073 167.994 35.4227 167.499 36.02C167.005 36.608 166.734 37.4807 166.687 38.638C166.986 38.0687 167.401 37.6253 167.933 37.308C168.465 36.9813 169.077 36.818 169.767 36.818ZM169.613 43.258C170.127 43.258 170.584 43.1413 170.985 42.908C171.396 42.6653 171.713 42.3293 171.937 41.9C172.171 41.4707 172.287 40.9853 172.287 40.444C172.287 39.9027 172.175 39.4267 171.951 39.016C171.727 38.6053 171.41 38.288 170.999 38.064C170.598 37.8307 170.136 37.714 169.613 37.714C169.091 37.714 168.624 37.8307 168.213 38.064C167.812 38.288 167.495 38.6053 167.261 39.016C167.037 39.4267 166.925 39.9027 166.925 40.444C166.925 40.9853 167.037 41.4707 167.261 41.9C167.495 42.3293 167.817 42.6653 168.227 42.908C168.638 43.1413 169.1 43.258 169.613 43.258ZM178.464 44.07C177.754 44.07 177.115 43.9113 176.546 43.594C175.976 43.2673 175.528 42.8193 175.202 42.25C174.875 41.6807 174.712 41.0367 174.712 40.318C174.712 39.5993 174.875 38.9553 175.202 38.386C175.528 37.8167 175.976 37.3733 176.546 37.056C177.115 36.7387 177.754 36.58 178.464 36.58C179.173 36.58 179.812 36.7387 180.382 37.056C180.951 37.3733 181.394 37.8167 181.712 38.386C182.038 38.9553 182.202 39.5993 182.202 40.318C182.202 41.0367 182.038 41.6807 181.712 42.25C181.394 42.8193 180.951 43.2673 180.382 43.594C179.812 43.9113 179.173 44.07 178.464 44.07ZM178.464 43.188C178.986 43.188 179.453 43.0713 179.864 42.838C180.284 42.5953 180.61 42.2547 180.844 41.816C181.077 41.3773 181.194 40.878 181.194 40.318C181.194 39.758 181.077 39.2587 180.844 38.82C180.61 38.3813 180.284 38.0453 179.864 37.812C179.453 37.5693 178.986 37.448 178.464 37.448C177.941 37.448 177.47 37.5693 177.05 37.812C176.639 38.0453 176.312 38.3813 176.07 38.82C175.836 39.2587 175.72 39.758 175.72 40.318C175.72 40.878 175.836 41.3773 176.07 41.816C176.312 42.2547 176.639 42.5953 177.05 42.838C177.47 43.0713 177.941 43.188 178.464 43.188ZM190.305 36.636V44H189.311V37.518H185.783L185.685 39.338C185.61 40.8687 185.433 42.0447 185.153 42.866C184.873 43.6873 184.374 44.098 183.655 44.098C183.459 44.098 183.221 44.0607 182.941 43.986L183.011 43.132C183.179 43.1693 183.296 43.188 183.361 43.188C183.744 43.188 184.033 43.0107 184.229 42.656C184.425 42.3013 184.556 41.8627 184.621 41.34C184.686 40.8173 184.742 40.1267 184.789 39.268L184.915 36.636H190.305ZM196.295 39.24C197.219 39.2493 197.919 39.4547 198.395 39.856C198.88 40.2573 199.123 40.836 199.123 41.592C199.123 42.376 198.861 42.978 198.339 43.398C197.825 43.818 197.079 44.0233 196.099 44.014L193.131 44V36.636H194.125V39.212L196.295 39.24ZM196.043 43.258C196.724 43.2673 197.237 43.132 197.583 42.852C197.937 42.5627 198.115 42.1427 198.115 41.592C198.115 41.0507 197.942 40.6493 197.597 40.388C197.251 40.1267 196.733 39.9913 196.043 39.982L194.125 39.954V43.23L196.043 43.258ZM211.183 36.636V44H201.019V36.636H202.013V43.132H205.625V36.636H206.619V43.132H210.189V36.636H211.183ZM220.461 40.626H214.301C214.357 41.3913 214.651 42.012 215.183 42.488C215.715 42.9547 216.387 43.188 217.199 43.188C217.657 43.188 218.077 43.1087 218.459 42.95C218.842 42.782 219.173 42.5393 219.453 42.222L220.013 42.866C219.687 43.258 219.276 43.5567 218.781 43.762C218.296 43.9673 217.759 44.07 217.171 44.07C216.415 44.07 215.743 43.9113 215.155 43.594C214.577 43.2673 214.124 42.8193 213.797 42.25C213.471 41.6807 213.307 41.0367 213.307 40.318C213.307 39.5993 213.461 38.9553 213.769 38.386C214.087 37.8167 214.516 37.3733 215.057 37.056C215.608 36.7387 216.224 36.58 216.905 36.58C217.587 36.58 218.198 36.7387 218.739 37.056C219.281 37.3733 219.705 37.8167 220.013 38.386C220.321 38.946 220.475 39.59 220.475 40.318L220.461 40.626ZM216.905 37.434C216.196 37.434 215.599 37.6627 215.113 38.12C214.637 38.568 214.367 39.156 214.301 39.884H219.523C219.458 39.156 219.183 38.568 218.697 38.12C218.221 37.6627 217.624 37.434 216.905 37.434ZM226.34 36.636H227.334V42.488L232.248 36.636H233.13V44H232.136V38.148L227.236 44H226.34V36.636ZM235.978 36.636H236.972V39.898H241.606V36.636H242.6V44H241.606V40.752H236.972V44H235.978V36.636ZM250.606 37.518H247.82V44H246.826V37.518H244.04V36.636H250.606V37.518ZM258.141 40.626H251.981C252.037 41.3913 252.331 42.012 252.863 42.488C253.395 42.9547 254.067 43.188 254.879 43.188C255.336 43.188 255.756 43.1087 256.139 42.95C256.522 42.782 256.853 42.5393 257.133 42.222L257.693 42.866C257.366 43.258 256.956 43.5567 256.461 43.762C255.976 43.9673 255.439 44.07 254.851 44.07C254.095 44.07 253.423 43.9113 252.835 43.594C252.256 43.2673 251.804 42.8193 251.477 42.25C251.15 41.6807 250.987 41.0367 250.987 40.318C250.987 39.5993 251.141 38.9553 251.449 38.386C251.766 37.8167 252.196 37.3733 252.737 37.056C253.288 36.7387 253.904 36.58 254.585 36.58C255.266 36.58 255.878 36.7387 256.419 37.056C256.96 37.3733 257.385 37.8167 257.693 38.386C258.001 38.946 258.155 39.59 258.155 40.318L258.141 40.626ZM254.585 37.434C253.876 37.434 253.278 37.6627 252.793 38.12C252.317 38.568 252.046 39.156 251.981 39.884H257.203C257.138 39.156 256.862 38.568 256.377 38.12C255.901 37.6627 255.304 37.434 254.585 37.434ZM264.149 36.58C264.84 36.58 265.465 36.7387 266.025 37.056C266.585 37.364 267.024 37.8027 267.341 38.372C267.659 38.9413 267.817 39.59 267.817 40.318C267.817 41.0553 267.659 41.7087 267.341 42.278C267.024 42.8473 266.585 43.2907 266.025 43.608C265.475 43.916 264.849 44.07 264.149 44.07C263.552 44.07 263.011 43.9487 262.525 43.706C262.049 43.454 261.657 43.09 261.349 42.614V46.716H260.355V36.636H261.307V38.092C261.606 37.6067 261.998 37.2333 262.483 36.972C262.978 36.7107 263.533 36.58 264.149 36.58ZM264.079 43.188C264.593 43.188 265.059 43.0713 265.479 42.838C265.899 42.5953 266.226 42.2547 266.459 41.816C266.702 41.3773 266.823 40.878 266.823 40.318C266.823 39.758 266.702 39.2633 266.459 38.834C266.226 38.3953 265.899 38.0547 265.479 37.812C265.059 37.5693 264.593 37.448 264.079 37.448C263.557 37.448 263.085 37.5693 262.665 37.812C262.255 38.0547 261.928 38.3953 261.685 38.834C261.452 39.2633 261.335 39.758 261.335 40.318C261.335 40.878 261.452 41.3773 261.685 41.816C261.928 42.2547 262.255 42.5953 262.665 42.838C263.085 43.0713 263.557 43.188 264.079 43.188ZM276.393 40.626H270.233C270.289 41.3913 270.583 42.012 271.115 42.488C271.647 42.9547 272.319 43.188 273.131 43.188C273.588 43.188 274.008 43.1087 274.391 42.95C274.774 42.782 275.105 42.5393 275.385 42.222L275.945 42.866C275.618 43.258 275.208 43.5567 274.713 43.762C274.228 43.9673 273.691 44.07 273.103 44.07C272.347 44.07 271.675 43.9113 271.087 43.594C270.508 43.2673 270.056 42.8193 269.729 42.25C269.402 41.6807 269.239 41.0367 269.239 40.318C269.239 39.5993 269.393 38.9553 269.701 38.386C270.018 37.8167 270.448 37.3733 270.989 37.056C271.54 36.7387 272.156 36.58 272.837 36.58C273.518 36.58 274.13 36.7387 274.671 37.056C275.212 37.3733 275.637 37.8167 275.945 38.386C276.253 38.946 276.407 39.59 276.407 40.318L276.393 40.626ZM272.837 37.434C272.128 37.434 271.53 37.6627 271.045 38.12C270.569 38.568 270.298 39.156 270.233 39.884H275.455C275.39 39.156 275.114 38.568 274.629 38.12C274.153 37.6627 273.556 37.434 272.837 37.434ZM281.687 44.07C280.959 44.07 280.306 43.9113 279.727 43.594C279.158 43.2767 278.71 42.8333 278.383 42.264C278.057 41.6853 277.893 41.0367 277.893 40.318C277.893 39.5993 278.057 38.9553 278.383 38.386C278.71 37.8167 279.158 37.3733 279.727 37.056C280.306 36.7387 280.959 36.58 281.687 36.58C282.322 36.58 282.887 36.706 283.381 36.958C283.885 37.2007 284.282 37.56 284.571 38.036L283.829 38.54C283.587 38.176 283.279 37.9053 282.905 37.728C282.532 37.5413 282.126 37.448 281.687 37.448C281.155 37.448 280.675 37.5693 280.245 37.812C279.825 38.0453 279.494 38.3813 279.251 38.82C279.018 39.2587 278.901 39.758 278.901 40.318C278.901 40.8873 279.018 41.3913 279.251 41.83C279.494 42.2593 279.825 42.5953 280.245 42.838C280.675 43.0713 281.155 43.188 281.687 43.188C282.126 43.188 282.532 43.0993 282.905 42.922C283.279 42.7447 283.587 42.474 283.829 42.11L284.571 42.614C284.282 43.09 283.885 43.454 283.381 43.706C282.877 43.9487 282.313 44.07 281.687 44.07ZM286.496 36.636H287.49V39.898H292.124V36.636H293.118V44H292.124V40.752H287.49V44H286.496V36.636ZM299.037 39.24C299.961 39.2493 300.666 39.4547 301.151 39.856C301.637 40.2573 301.879 40.836 301.879 41.592C301.879 42.376 301.618 42.978 301.095 43.398C300.573 43.818 299.826 44.0233 298.855 44.014L295.943 44V36.636H296.937V39.212L299.037 39.24ZM303.111 36.636H304.105V44H303.111V36.636ZM298.799 43.258C299.481 43.2673 299.994 43.132 300.339 42.852C300.694 42.5627 300.871 42.1427 300.871 41.592C300.871 41.0507 300.699 40.6493 300.353 40.388C300.008 40.1267 299.49 39.9913 298.799 39.982L296.937 39.954V43.23L298.799 43.258ZM311.541 44L309.203 40.92L306.851 44H305.731L308.643 40.22L305.871 36.636H306.991L309.203 39.52L311.415 36.636H312.507L309.735 40.22L312.675 44H311.541ZM18.104 57.192C19.1027 57.4253 19.602 58.0273 19.602 58.998C19.602 59.642 19.364 60.1367 18.888 60.482C18.412 60.8273 17.7027 61 16.76 61H13.414V53.636H16.662C17.502 53.636 18.16 53.7993 18.636 54.126C19.112 54.4527 19.35 54.9193 19.35 55.526C19.35 55.9273 19.238 56.2727 19.014 56.562C18.7993 56.842 18.496 57.052 18.104 57.192ZM14.38 56.912H16.592C17.1613 56.912 17.5953 56.8047 17.894 56.59C18.202 56.3753 18.356 56.0627 18.356 55.652C18.356 55.2413 18.202 54.9333 17.894 54.728C17.5953 54.5227 17.1613 54.42 16.592 54.42H14.38V56.912ZM16.718 60.216C17.3527 60.216 17.8287 60.1133 18.146 59.908C18.4633 59.7027 18.622 59.3807 18.622 58.942C18.622 58.5033 18.4773 58.1813 18.188 57.976C17.8987 57.7613 17.4413 57.654 16.816 57.654H14.38V60.216H16.718ZM24.9696 61.07C24.2602 61.07 23.6209 60.9113 23.0516 60.594C22.4822 60.2673 22.0342 59.8193 21.7076 59.25C21.3809 58.6807 21.2176 58.0367 21.2176 57.318C21.2176 56.5993 21.3809 55.9553 21.7076 55.386C22.0342 54.8167 22.4822 54.3733 23.0516 54.056C23.6209 53.7387 24.2602 53.58 24.9696 53.58C25.6789 53.58 26.3182 53.7387 26.8876 54.056C27.4569 54.3733 27.9002 54.8167 28.2176 55.386C28.5442 55.9553 28.7076 56.5993 28.7076 57.318C28.7076 58.0367 28.5442 58.6807 28.2176 59.25C27.9002 59.8193 27.4569 60.2673 26.8876 60.594C26.3182 60.9113 25.6789 61.07 24.9696 61.07ZM24.9696 60.188C25.4922 60.188 25.9589 60.0713 26.3696 59.838C26.7896 59.5953 27.1162 59.2547 27.3496 58.816C27.5829 58.3773 27.6996 57.878 27.6996 57.318C27.6996 56.758 27.5829 56.2587 27.3496 55.82C27.1162 55.3813 26.7896 55.0453 26.3696 54.812C25.9589 54.5693 25.4922 54.448 24.9696 54.448C24.4469 54.448 23.9756 54.5693 23.5556 54.812C23.1449 55.0453 22.8182 55.3813 22.5756 55.82C22.3422 56.2587 22.2256 56.758 22.2256 57.318C22.2256 57.878 22.3422 58.3773 22.5756 58.816C22.8182 59.2547 23.1449 59.5953 23.5556 59.838C23.9756 60.0713 24.4469 60.188 24.9696 60.188ZM34.3613 57.164C34.8839 57.2853 35.2853 57.4953 35.5653 57.794C35.8546 58.0927 35.9993 58.4567 35.9993 58.886C35.9993 59.3153 35.8499 59.698 35.5513 60.034C35.2619 60.37 34.8653 60.6313 34.3613 60.818C33.8573 60.9953 33.3019 61.084 32.6953 61.084C32.1633 61.084 31.6406 61.0093 31.1273 60.86C30.6139 60.7013 30.1659 60.4727 29.7833 60.174L30.1193 59.432C30.4553 59.684 30.8473 59.88 31.2953 60.02C31.7433 60.16 32.1959 60.23 32.6533 60.23C33.3346 60.23 33.8899 60.104 34.3193 59.852C34.7579 59.5907 34.9773 59.2407 34.9773 58.802C34.9773 58.41 34.7999 58.1067 34.4453 57.892C34.0906 57.668 33.6053 57.556 32.9893 57.556H31.7293V56.828H32.9333C33.4839 56.828 33.9273 56.7253 34.2633 56.52C34.5993 56.3053 34.7673 56.0207 34.7673 55.666C34.7673 55.274 34.5759 54.966 34.1933 54.742C33.8199 54.518 33.3299 54.406 32.7233 54.406C31.9299 54.406 31.1459 54.6067 30.3713 55.008L30.0913 54.238C30.9686 53.7807 31.8786 53.552 32.8213 53.552C33.3813 53.552 33.8853 53.636 34.3333 53.804C34.7906 53.9627 35.1453 54.1913 35.3973 54.49C35.6586 54.7887 35.7893 55.134 35.7893 55.526C35.7893 55.8993 35.6586 56.2307 35.3973 56.52C35.1453 56.8093 34.7999 57.024 34.3613 57.164ZM46.4878 53.636V61H45.5778V55.176L42.5958 60.104H42.1478L39.1658 55.162V61H38.2558V53.636H39.2638L42.3858 58.942L45.5638 53.636H46.4878ZM52.3543 61.07C51.645 61.07 51.0057 60.9113 50.4363 60.594C49.867 60.2673 49.419 59.8193 49.0923 59.25C48.7657 58.6807 48.6023 58.0367 48.6023 57.318C48.6023 56.5993 48.7657 55.9553 49.0923 55.386C49.419 54.8167 49.867 54.3733 50.4363 54.056C51.0057 53.7387 51.645 53.58 52.3543 53.58C53.0637 53.58 53.703 53.7387 54.2723 54.056C54.8417 54.3733 55.285 54.8167 55.6023 55.386C55.929 55.9553 56.0923 56.5993 56.0923 57.318C56.0923 58.0367 55.929 58.6807 55.6023 59.25C55.285 59.8193 54.8417 60.2673 54.2723 60.594C53.703 60.9113 53.0637 61.07 52.3543 61.07ZM52.3543 60.188C52.877 60.188 53.3437 60.0713 53.7543 59.838C54.1743 59.5953 54.501 59.2547 54.7343 58.816C54.9677 58.3773 55.0843 57.878 55.0843 57.318C55.0843 56.758 54.9677 56.2587 54.7343 55.82C54.501 55.3813 54.1743 55.0453 53.7543 54.812C53.3437 54.5693 52.877 54.448 52.3543 54.448C51.8317 54.448 51.3603 54.5693 50.9403 54.812C50.5297 55.0453 50.203 55.3813 49.9603 55.82C49.727 56.2587 49.6103 56.758 49.6103 57.318C49.6103 57.878 49.727 58.3773 49.9603 58.816C50.203 59.2547 50.5297 59.5953 50.9403 59.838C51.3603 60.0713 51.8317 60.188 52.3543 60.188ZM64.411 57.724H62.815V61H61.821V57.724H60.225L57.971 61H56.781L59.427 57.206L56.991 53.636H58.069L60.225 56.87H61.821V53.636H62.815V56.87H64.411L66.581 53.636H67.659L65.223 57.22L67.869 61H66.679L64.411 57.724ZM69.5234 53.636H70.5174V56.898H75.1514V53.636H76.1454V61H75.1514V57.752H70.5174V61H69.5234V53.636ZM82.0086 61.07C81.2993 61.07 80.66 60.9113 80.0906 60.594C79.5213 60.2673 79.0733 59.8193 78.7466 59.25C78.42 58.6807 78.2566 58.0367 78.2566 57.318C78.2566 56.5993 78.42 55.9553 78.7466 55.386C79.0733 54.8167 79.5213 54.3733 80.0906 54.056C80.66 53.7387 81.2993 53.58 82.0086 53.58C82.718 53.58 83.3573 53.7387 83.9266 54.056C84.496 54.3733 84.9393 54.8167 85.2566 55.386C85.5833 55.9553 85.7466 56.5993 85.7466 57.318C85.7466 58.0367 85.5833 58.6807 85.2566 59.25C84.9393 59.8193 84.496 60.2673 83.9266 60.594C83.3573 60.9113 82.718 61.07 82.0086 61.07ZM82.0086 60.188C82.5313 60.188 82.998 60.0713 83.4086 59.838C83.8286 59.5953 84.1553 59.2547 84.3886 58.816C84.622 58.3773 84.7386 57.878 84.7386 57.318C84.7386 56.758 84.622 56.2587 84.3886 55.82C84.1553 55.3813 83.8286 55.0453 83.4086 54.812C82.998 54.5693 82.5313 54.448 82.0086 54.448C81.486 54.448 81.0146 54.5693 80.5946 54.812C80.184 55.0453 79.8573 55.3813 79.6146 55.82C79.3813 56.2587 79.2646 56.758 79.2646 57.318C79.2646 57.878 79.3813 58.3773 79.6146 58.816C79.8573 59.2547 80.184 59.5953 80.5946 59.838C81.0146 60.0713 81.486 60.188 82.0086 60.188ZM90.951 61.07C90.223 61.07 89.5697 60.9113 88.991 60.594C88.4217 60.2767 87.9737 59.8333 87.647 59.264C87.3204 58.6853 87.157 58.0367 87.157 57.318C87.157 56.5993 87.3204 55.9553 87.647 55.386C87.9737 54.8167 88.4217 54.3733 88.991 54.056C89.5697 53.7387 90.223 53.58 90.951 53.58C91.5857 53.58 92.1504 53.706 92.645 53.958C93.149 54.2007 93.5457 54.56 93.835 55.036L93.093 55.54C92.8504 55.176 92.5424 54.9053 92.169 54.728C91.7957 54.5413 91.3897 54.448 90.951 54.448C90.419 54.448 89.9384 54.5693 89.509 54.812C89.089 55.0453 88.7577 55.3813 88.515 55.82C88.2817 56.2587 88.165 56.758 88.165 57.318C88.165 57.8873 88.2817 58.3913 88.515 58.83C88.7577 59.2593 89.089 59.5953 89.509 59.838C89.9384 60.0713 90.419 60.188 90.951 60.188C91.3897 60.188 91.7957 60.0993 92.169 59.922C92.5424 59.7447 92.8504 59.474 93.093 59.11L93.835 59.614C93.5457 60.09 93.149 60.454 92.645 60.706C92.141 60.9487 91.5764 61.07 90.951 61.07ZM100.803 54.518H98.017V61H97.023V54.518H94.237V53.636H100.803V54.518ZM108.338 57.626H102.178C102.234 58.3913 102.528 59.012 103.06 59.488C103.592 59.9547 104.264 60.188 105.076 60.188C105.534 60.188 105.954 60.1087 106.336 59.95C106.719 59.782 107.05 59.5393 107.33 59.222L107.89 59.866C107.564 60.258 107.153 60.5567 106.658 60.762C106.173 60.9673 105.636 61.07 105.048 61.07C104.292 61.07 103.62 60.9113 103.032 60.594C102.454 60.2673 102.001 59.8193 101.674 59.25C101.348 58.6807 101.184 58.0367 101.184 57.318C101.184 56.5993 101.338 55.9553 101.646 55.386C101.964 54.8167 102.393 54.3733 102.934 54.056C103.485 53.7387 104.101 53.58 104.782 53.58C105.464 53.58 106.075 53.7387 106.616 54.056C107.158 54.3733 107.582 54.8167 107.89 55.386C108.198 55.946 108.352 56.59 108.352 57.318L108.338 57.626ZM104.782 54.434C104.073 54.434 103.476 54.6627 102.99 55.12C102.514 55.568 102.244 56.156 102.178 56.884H107.4C107.335 56.156 107.06 55.568 106.574 55.12C106.098 54.6627 105.501 54.434 104.782 54.434ZM110.553 53.636H111.547V59.488L116.461 53.636H117.343V61H116.349V55.148L111.449 61H110.553V53.636ZM113.899 52.572C113.264 52.572 112.76 52.4133 112.387 52.096C112.013 51.7787 111.822 51.3307 111.813 50.752H112.527C112.536 51.116 112.667 51.41 112.919 51.634C113.171 51.8487 113.497 51.956 113.899 51.956C114.3 51.956 114.627 51.8487 114.879 51.634C115.14 51.41 115.275 51.116 115.285 50.752H115.999C115.989 51.3307 115.793 51.7787 115.411 52.096C115.037 52.4133 114.533 52.572 113.899 52.572ZM131.037 60.132V62.778H130.099V61H123.505V62.778H122.567V60.132H122.987C123.482 60.104 123.818 59.74 123.995 59.04C124.173 58.34 124.294 57.36 124.359 56.1L124.457 53.636H129.889V60.132H131.037ZM125.269 56.156C125.223 57.2013 125.134 58.0647 125.003 58.746C124.873 59.418 124.639 59.88 124.303 60.132H128.895V54.518H125.353L125.269 56.156ZM138.995 53.636V61H138.001V54.518H134.473L134.375 56.338C134.3 57.8687 134.123 59.0447 133.843 59.866C133.563 60.6873 133.063 61.098 132.345 61.098C132.149 61.098 131.911 61.0607 131.631 60.986L131.701 60.132C131.869 60.1693 131.985 60.188 132.051 60.188C132.433 60.188 132.723 60.0107 132.919 59.656C133.115 59.3013 133.245 58.8627 133.311 58.34C133.376 57.8173 133.432 57.1267 133.479 56.268L133.605 53.636H138.995ZM147.476 53.636V61H146.566V58.564H144.256H143.976L142.268 61H141.19L143.024 58.424C142.455 58.2653 142.016 57.9947 141.708 57.612C141.4 57.2293 141.246 56.744 141.246 56.156C141.246 55.3347 141.526 54.7093 142.086 54.28C142.646 53.8507 143.412 53.636 144.382 53.636H147.476ZM142.254 56.184C142.254 57.276 142.95 57.822 144.34 57.822H146.566V54.518H144.41C142.973 54.518 142.254 55.0733 142.254 56.184ZM153.975 53.636H154.969V59.488L159.883 53.636H160.765V61H159.771V55.148L154.871 61H153.975V53.636ZM163.613 53.636H164.607V56.898H169.241V53.636H170.235V61H169.241V57.752H164.607V61H163.613V53.636ZM177.75 57.192C178.749 57.4253 179.248 58.0273 179.248 58.998C179.248 59.642 179.01 60.1367 178.534 60.482C178.058 60.8273 177.349 61 176.406 61H173.06V53.636H176.308C177.148 53.636 177.806 53.7993 178.282 54.126C178.758 54.4527 178.996 54.9193 178.996 55.526C178.996 55.9273 178.884 56.2727 178.66 56.562C178.446 56.842 178.142 57.052 177.75 57.192ZM174.026 56.912H176.238C176.808 56.912 177.242 56.8047 177.54 56.59C177.848 56.3753 178.002 56.0627 178.002 55.652C178.002 55.2413 177.848 54.9333 177.54 54.728C177.242 54.5227 176.808 54.42 176.238 54.42H174.026V56.912ZM176.364 60.216C176.999 60.216 177.475 60.1133 177.792 59.908C178.11 59.7027 178.268 59.3807 178.268 58.942C178.268 58.5033 178.124 58.1813 177.834 57.976C177.545 57.7613 177.088 57.654 176.462 57.654H174.026V60.216H176.364ZM188.018 57.626H181.858C181.914 58.3913 182.208 59.012 182.74 59.488C183.272 59.9547 183.944 60.188 184.756 60.188C185.213 60.188 185.633 60.1087 186.016 59.95C186.399 59.782 186.73 59.5393 187.01 59.222L187.57 59.866C187.243 60.258 186.833 60.5567 186.338 60.762C185.853 60.9673 185.316 61.07 184.728 61.07C183.972 61.07 183.3 60.9113 182.712 60.594C182.133 60.2673 181.681 59.8193 181.354 59.25C181.027 58.6807 180.864 58.0367 180.864 57.318C180.864 56.5993 181.018 55.9553 181.326 55.386C181.643 54.8167 182.073 54.3733 182.614 54.056C183.165 53.7387 183.781 53.58 184.462 53.58C185.143 53.58 185.755 53.7387 186.296 54.056C186.837 54.3733 187.262 54.8167 187.57 55.386C187.878 55.946 188.032 56.59 188.032 57.318L188.018 57.626ZM184.462 54.434C183.753 54.434 183.155 54.6627 182.67 55.12C182.194 55.568 181.923 56.156 181.858 56.884H187.08C187.015 56.156 186.739 55.568 186.254 55.12C185.778 54.6627 185.181 54.434 184.462 54.434ZM193.312 61.07C192.584 61.07 191.931 60.9113 191.352 60.594C190.783 60.2767 190.335 59.8333 190.008 59.264C189.682 58.6853 189.518 58.0367 189.518 57.318C189.518 56.5993 189.682 55.9553 190.008 55.386C190.335 54.8167 190.783 54.3733 191.352 54.056C191.931 53.7387 192.584 53.58 193.312 53.58C193.947 53.58 194.512 53.706 195.006 53.958C195.51 54.2007 195.907 54.56 196.196 55.036L195.454 55.54C195.212 55.176 194.904 54.9053 194.53 54.728C194.157 54.5413 193.751 54.448 193.312 54.448C192.78 54.448 192.3 54.5693 191.87 54.812C191.45 55.0453 191.119 55.3813 190.876 55.82C190.643 56.2587 190.526 56.758 190.526 57.318C190.526 57.8873 190.643 58.3913 190.876 58.83C191.119 59.2593 191.45 59.5953 191.87 59.838C192.3 60.0713 192.78 60.188 193.312 60.188C193.751 60.188 194.157 60.0993 194.53 59.922C194.904 59.7447 195.212 59.474 195.454 59.11L196.196 59.614C195.907 60.09 195.51 60.454 195.006 60.706C194.502 60.9487 193.938 61.07 193.312 61.07ZM203.164 54.518H200.378V61H199.384V54.518H196.598V53.636H203.164V54.518ZM207.298 61.07C206.588 61.07 205.949 60.9113 205.38 60.594C204.81 60.2673 204.362 59.8193 204.036 59.25C203.709 58.6807 203.546 58.0367 203.546 57.318C203.546 56.5993 203.709 55.9553 204.036 55.386C204.362 54.8167 204.81 54.3733 205.38 54.056C205.949 53.7387 206.588 53.58 207.298 53.58C208.007 53.58 208.646 53.7387 209.216 54.056C209.785 54.3733 210.228 54.8167 210.546 55.386C210.872 55.9553 211.036 56.5993 211.036 57.318C211.036 58.0367 210.872 58.6807 210.546 59.25C210.228 59.8193 209.785 60.2673 209.216 60.594C208.646 60.9113 208.007 61.07 207.298 61.07ZM207.298 60.188C207.82 60.188 208.287 60.0713 208.698 59.838C209.118 59.5953 209.444 59.2547 209.678 58.816C209.911 58.3773 210.028 57.878 210.028 57.318C210.028 56.758 209.911 56.2587 209.678 55.82C209.444 55.3813 209.118 55.0453 208.698 54.812C208.287 54.5693 207.82 54.448 207.298 54.448C206.775 54.448 206.304 54.5693 205.884 54.812C205.473 55.0453 205.146 55.3813 204.904 55.82C204.67 56.2587 204.554 56.758 204.554 57.318C204.554 57.878 204.67 58.3773 204.904 58.816C205.146 59.2547 205.473 59.5953 205.884 59.838C206.304 60.0713 206.775 60.188 207.298 60.188ZM216.954 53.58C217.645 53.58 218.27 53.7387 218.83 54.056C219.39 54.364 219.829 54.8027 220.146 55.372C220.463 55.9413 220.622 56.59 220.622 57.318C220.622 58.0553 220.463 58.7087 220.146 59.278C219.829 59.8473 219.39 60.2907 218.83 60.608C218.279 60.916 217.654 61.07 216.954 61.07C216.357 61.07 215.815 60.9487 215.33 60.706C214.854 60.454 214.462 60.09 214.154 59.614V63.716H213.16V53.636H214.112V55.092C214.411 54.6067 214.803 54.2333 215.288 53.972C215.783 53.7107 216.338 53.58 216.954 53.58ZM216.884 60.188C217.397 60.188 217.864 60.0713 218.284 59.838C218.704 59.5953 219.031 59.2547 219.264 58.816C219.507 58.3773 219.628 57.878 219.628 57.318C219.628 56.758 219.507 56.2633 219.264 55.834C219.031 55.3953 218.704 55.0547 218.284 54.812C217.864 54.5693 217.397 54.448 216.884 54.448C216.361 54.448 215.89 54.5693 215.47 54.812C215.059 55.0547 214.733 55.3953 214.49 55.834C214.257 56.2633 214.14 56.758 214.14 57.318C214.14 57.878 214.257 58.3773 214.49 58.816C214.733 59.2547 215.059 59.5953 215.47 59.838C215.89 60.0713 216.361 60.188 216.884 60.188ZM225.796 61.07C225.086 61.07 224.447 60.9113 223.878 60.594C223.308 60.2673 222.86 59.8193 222.534 59.25C222.207 58.6807 222.044 58.0367 222.044 57.318C222.044 56.5993 222.207 55.9553 222.534 55.386C222.86 54.8167 223.308 54.3733 223.878 54.056C224.447 53.7387 225.086 53.58 225.796 53.58C226.505 53.58 227.144 53.7387 227.714 54.056C228.283 54.3733 228.726 54.8167 229.044 55.386C229.37 55.9553 229.534 56.5993 229.534 57.318C229.534 58.0367 229.37 58.6807 229.044 59.25C228.726 59.8193 228.283 60.2673 227.714 60.594C227.144 60.9113 226.505 61.07 225.796 61.07ZM225.796 60.188C226.318 60.188 226.785 60.0713 227.196 59.838C227.616 59.5953 227.942 59.2547 228.176 58.816C228.409 58.3773 228.526 57.878 228.526 57.318C228.526 56.758 228.409 56.2587 228.176 55.82C227.942 55.3813 227.616 55.0453 227.196 54.812C226.785 54.5693 226.318 54.448 225.796 54.448C225.273 54.448 224.802 54.5693 224.382 54.812C223.971 55.0453 223.644 55.3813 223.402 55.82C223.168 56.2587 223.052 56.758 223.052 57.318C223.052 57.878 223.168 58.3773 223.402 58.816C223.644 59.2547 223.971 59.5953 224.382 59.838C224.802 60.0713 225.273 60.188 225.796 60.188ZM236.348 57.192C237.347 57.4253 237.846 58.0273 237.846 58.998C237.846 59.642 237.608 60.1367 237.132 60.482C236.656 60.8273 235.947 61 235.004 61H231.658V53.636H234.906C235.746 53.636 236.404 53.7993 236.88 54.126C237.356 54.4527 237.594 54.9193 237.594 55.526C237.594 55.9273 237.482 56.2727 237.258 56.562C237.043 56.842 236.74 57.052 236.348 57.192ZM232.624 56.912H234.836C235.405 56.912 235.839 56.8047 236.138 56.59C236.446 56.3753 236.6 56.0627 236.6 55.652C236.6 55.2413 236.446 54.9333 236.138 54.728C235.839 54.5227 235.405 54.42 234.836 54.42H232.624V56.912ZM234.962 60.216C235.597 60.216 236.073 60.1133 236.39 59.908C236.707 59.7027 236.866 59.3807 236.866 58.942C236.866 58.5033 236.721 58.1813 236.432 57.976C236.143 57.7613 235.685 57.654 235.06 57.654H232.624V60.216H234.962Z" fill="#333E63"/>
<defs>
<filter id="filter0_d_507_4762" x="0.5" y="0.5" width="330" height="100" filterUnits="userSpaceOnUse" color-interpolation-filters="sRGB">
<feFlood flood-opacity="0" result="BackgroundImageFix"/>
<feColorMatrix in="SourceAlpha" type="matrix" values="0 0 0 0 0 0 0 0 0 0 0 0 0 0 0 0 0 0 127 0" result="hardAlpha"/>
<feOffset dx="5" dy="5"/>
<feComposite in2="hardAlpha" operator="out"/>
<feColorMatrix type="matrix" values="0 0 0 0 0.2 0 0 0 0 0.243137 0 0 0 0 0.388235 0 0 0 1 0"/>
<feBlend mode="normal" in2="BackgroundImageFix" result="effect1_dropShadow_507_4762"/>
<feBlend mode="normal" in="SourceGraphic" in2="effect1_dropShadow_507_4762" result="shape"/>
</filter>
<clipPath id="clip0_507_4762">
<rect width="142" height="294" fill="white" transform="translate(191 102)"/>
</clipPath>
</defs>
</svg>
