<svg width="724" height="543" viewBox="0 0 724 543" fill="none" xmlns="http://www.w3.org/2000/svg">
<g clip-path="url(#clip0_1111_2754)">
<path d="M636.626 510.715C640.22 513.865 638.535 520.614 634.941 522.414C631.348 524.214 628.765 521.964 627.754 521.514C626.743 521.064 623.935 523.876 608.886 526.014C593.837 528.151 587.548 527.251 583.28 524.551C579.013 521.739 578.002 518.027 581.596 517.352C585.19 516.677 612.929 507.565 612.929 507.565C612.929 507.565 632.92 507.565 636.626 510.715Z" fill="#B0BEC5" stroke="#263238" stroke-linecap="round" stroke-linejoin="round"/>
<path d="M583.168 524.552C587.436 527.251 593.725 528.151 608.774 526.014C623.823 523.877 626.518 521.177 627.641 521.514C628.652 521.964 631.235 524.102 634.829 522.414C636.064 521.739 637.075 520.727 637.637 519.377C631.572 518.702 625.508 519.152 619.668 520.839C608.998 523.764 587.548 526.014 579.35 519.489C579.35 520.952 580.697 522.864 583.168 524.552Z" fill="#263238" stroke="#263238" stroke-linecap="round" stroke-linejoin="round"/>
<path d="M664.366 521.176C665.601 524.551 666.05 528.601 660.996 530.063C655.943 531.526 655.269 529.388 655.269 529.388C647.632 534.226 639.209 537.6 630.337 539.4C614.726 542.775 611.694 543.9 607.876 539.4C604.057 534.9 606.865 531.863 614.726 527.476C621.015 523.539 626.855 519.039 632.358 514.089C646.734 507.002 663.018 517.802 664.366 521.176Z" fill="#B0BEC5" stroke="#263238" stroke-linecap="round" stroke-linejoin="round"/>
<path d="M630.225 539.4C639.097 537.601 647.52 534.226 655.157 529.389C655.157 529.389 655.719 531.526 660.885 530.064C663.243 529.726 665.04 527.701 665.04 525.339C662.345 525.226 654.259 525.114 647.745 528.826C639.771 533.438 620.117 539.513 613.941 539.513C611.357 539.4 608.774 538.725 606.416 537.488C606.753 538.163 607.202 538.838 607.651 539.4C611.582 543.788 614.614 542.775 630.225 539.4Z" fill="#263238" stroke="#263238" stroke-linecap="round" stroke-linejoin="round"/>
<path d="M596.646 289.668C602.036 290.455 607.427 290.455 612.705 289.668C614.727 296.08 616.075 302.717 616.749 309.354C617.647 319.253 626.07 367.062 628.99 385.736C631.91 404.41 639.996 437.257 639.996 455.706C639.996 474.155 638.199 493.054 633.707 503.965C629.215 514.765 630.113 513.077 630.113 513.077C627.979 512.74 625.845 512.402 623.712 511.84C620.005 510.715 616.412 509.252 612.93 507.565C612.93 507.565 612.705 500.591 612.93 495.303C613.155 490.016 615.064 491.929 615.064 485.967C615.064 480.004 615.625 451.206 614.615 436.582C613.716 421.958 598.443 393.048 592.49 354.463C586.538 315.878 584.854 290.455 584.854 290.455C584.854 290.455 588.11 288.43 596.646 289.668Z" fill="#263238" stroke="#263238" stroke-linecap="round" stroke-linejoin="round"/>
<path d="M671.555 287.305C672.341 286.968 672.678 286.181 672.341 285.393C671.892 283.931 660.661 286.63 642.692 291.805C631.911 294.842 620.68 296.53 609.449 296.642C609.449 296.642 610.235 305.079 612.369 320.153C614.503 335.227 622.701 386.749 629.103 410.709C635.504 434.67 633.82 469.093 633.82 476.742C633.82 484.392 628.766 491.816 628.766 501.716C628.654 506.215 628.878 510.602 629.44 515.102C636.515 518.589 643.815 521.739 651.227 524.439C662.907 528.714 662.682 526.126 663.469 525.451C664.255 524.777 665.602 522.077 665.153 518.252C664.704 514.427 667.287 513.752 669.87 499.353C672.453 484.954 674.475 435.908 674.699 423.421C674.924 410.934 673.015 408.347 669.87 393.498C666.725 378.649 671.555 287.418 671.555 287.305C671.555 287.418 671.555 287.305 671.555 287.305Z" fill="#263238"/>
<path d="M671.555 287.305C672.341 286.968 672.678 286.181 672.341 285.393C671.892 283.931 660.661 286.63 642.692 291.805C631.911 294.842 620.68 296.53 609.449 296.642C609.449 296.642 610.235 305.079 612.369 320.153C614.503 335.227 622.701 386.749 629.103 410.709C635.504 434.67 633.82 469.093 633.82 476.742C633.82 484.392 628.766 491.816 628.766 501.716C628.654 506.215 628.878 510.602 629.44 515.102C636.515 518.589 643.815 521.739 651.227 524.439C662.907 528.714 662.682 526.126 663.469 525.451C664.255 524.777 665.602 522.077 665.153 518.252C664.704 514.427 667.287 513.752 669.87 499.353C672.453 484.954 674.475 435.908 674.699 423.421C674.924 410.934 673.015 408.347 669.87 393.498C666.725 378.649 671.555 287.418 671.555 287.305ZM671.555 287.305C671.555 287.418 671.555 287.305 671.555 287.305Z" stroke="#263238" stroke-linecap="round" stroke-linejoin="round"/>
<path d="M626.183 510.265C626.183 510.265 626.183 508.578 626.07 505.99" stroke="white" stroke-width="0.75" stroke-linecap="round" stroke-linejoin="round"/>
<path d="M625.62 500.816C625.283 497.666 625.845 494.516 627.305 491.704C637.525 459.419 628.653 426.008 623.487 392.598C618.32 359.188 609.336 312.054 609.336 312.054" stroke="white" stroke-width="0.75" stroke-linecap="round" stroke-linejoin="round"/>
<path d="M509.72 180.325L505.003 176.05C499.725 174.476 494.334 173.126 488.943 172.226C481.531 170.876 474.68 167.276 469.29 161.989C465.921 158.164 475.017 159.402 478.162 158.614C481.307 157.827 496.131 154.339 496.131 154.339L495.12 152.877C494.109 151.415 492.2 150.177 490.628 148.152C489.168 146.24 488.045 141.965 489.505 139.603C490.965 137.241 492.762 142.19 496.468 145.115C500.286 148.04 506.463 149.952 508.709 154.677C510.843 159.852 512.64 165.139 513.988 170.538L509.72 180.325Z" fill="white" stroke="#263238" stroke-linecap="round" stroke-linejoin="round"/>
<path d="M512.865 189.324L505.902 184.487C505.902 184.487 514.775 170.313 514.775 169.638C514.775 168.963 519.828 173.463 519.828 173.463L512.865 189.324Z" fill="white" stroke="#263238" stroke-linecap="round" stroke-linejoin="round"/>
<path d="M585.077 154.114C585.077 163.226 586.537 234.771 581.259 239.158C575.98 243.658 569.579 243.996 558.573 236.121C547.567 228.247 510.955 191.574 510.955 191.574L520.052 172.451L561.83 198.324C561.83 198.324 570.927 172.451 573.847 152.764C576.767 133.078 581.483 126.666 582.157 125.654C582.157 125.541 585.077 145.002 585.077 154.114Z" fill="#B0BEC5" stroke="#263238" stroke-linecap="round" stroke-linejoin="round"/>
<path d="M470.526 156.927C470.526 153.552 470.526 147.928 468.617 144.89C466.707 141.853 466.932 157.152 466.932 157.152C466.932 157.152 470.526 160.302 470.526 156.927Z" fill="white" stroke="#263238" stroke-linecap="round" stroke-linejoin="round"/>
<path d="M472.435 164.126C470.862 163.901 469.402 163.226 468.167 162.214C465.584 160.301 463.338 153.777 463.562 150.177C463.787 146.577 468.055 152.764 468.055 152.764L472.435 164.126Z" fill="white" stroke="#263238" stroke-linecap="round" stroke-linejoin="round"/>
<path d="M478.611 168.176C476.253 167.389 474.119 165.926 472.435 164.127C470.076 161.314 467.942 153.327 468.841 150.74C469.739 148.153 476.253 159.402 476.253 159.402L478.611 168.176Z" fill="white" stroke="#263238" stroke-linecap="round" stroke-linejoin="round"/>
<path d="M486.473 170.876C486.473 170.876 479.847 169.863 478.611 168.176C477.376 166.489 474.344 155.464 474.793 150.402C475.242 145.34 485.125 167.163 485.799 167.838" fill="white"/>
<path d="M486.473 170.876C486.473 170.876 479.847 169.863 478.611 168.176C477.376 166.489 474.344 155.464 474.793 150.402C475.242 145.34 485.125 167.163 485.799 167.838" stroke="#263238" stroke-linecap="round" stroke-linejoin="round"/>
<path d="M492.65 164.914C492.987 164.239 496.244 163.001 501.523 164.689C506.801 166.376 507.026 170.201 507.026 170.201" stroke="#263238" stroke-linecap="round" stroke-linejoin="round"/>
<path d="M635.727 100.681C628.989 102.03 622.251 103.718 615.624 105.743C615.624 105.743 583.28 119.354 580.473 127.341C577.665 135.328 578.788 230.834 578.788 230.834C578.788 230.834 567.108 287.643 567.782 287.53C568.456 287.305 577.89 296.867 585.751 300.467C593.612 304.066 602.26 307.329 602.26 307.329L605.068 295.405L610.121 307.891C610.121 307.891 617.534 307.891 627.529 307.441C637.524 306.991 685.591 289.78 685.591 289.78L676.495 232.071C676.495 232.071 689.185 132.628 688.961 127.904C688.736 123.179 688.062 122.279 681.099 118.792C674.136 115.192 649.766 99.8931 649.766 99.8931C647.744 98.9931 642.69 99.6681 635.727 100.681Z" fill="#B0BEC5" stroke="#263238" stroke-linecap="round" stroke-linejoin="round"/>
<path d="M615.625 105.743C615.625 105.743 613.491 106.643 610.122 108.218C609.224 116.092 608.774 123.967 608.662 131.841C608.662 145.453 611.021 176.388 611.021 176.388L617.984 196.187L626.631 183.025L650.777 100.793L649.654 100.118C647.745 98.9932 642.691 99.6682 635.728 100.793C628.99 102.031 622.251 103.718 615.625 105.743Z" fill="white" stroke="#263238" stroke-linecap="round" stroke-linejoin="round"/>
<path d="M619.668 108.33L611.807 122.954L618.994 135.891C618.994 135.891 611.807 177.4 611.807 176.838C611.807 176.163 617.983 196.187 617.983 196.187L626.631 183.025L622.363 138.253L633.594 124.304L619.668 108.33Z" fill="#263238" stroke="#263238" stroke-linecap="round" stroke-linejoin="round"/>
<path d="M616.411 97.3062L608.999 104.506L608.662 131.841L618.77 115.53L616.411 97.3062Z" fill="white" stroke="#263238" stroke-linecap="round" stroke-linejoin="round"/>
<path d="M632.808 76.4949C628.091 83.2444 611.582 88.5315 611.582 88.5315L620.23 125.991C620.23 125.991 642.242 101.806 642.242 100.343C642.242 98.8808 642.466 65.3581 642.466 65.3581C641.456 63.7832 637.412 69.7453 632.808 76.4949Z" fill="white" stroke="#263238" stroke-linecap="round" stroke-linejoin="round"/>
<path d="M651.452 98.7682L635.279 134.878L623.824 112.605L643.815 89.8813L651.452 98.7682Z" fill="white" stroke="#263238" stroke-linecap="round" stroke-linejoin="round"/>
<path d="M628.092 121.042L620.23 125.992L623.824 112.605L628.092 121.042Z" fill="white" stroke="#263238" stroke-linecap="round" stroke-linejoin="round"/>
<path d="M586.538 201.024C573.847 204.399 550.15 204.174 550.15 204.174C550.15 204.174 565.424 223.747 571.938 231.734C578.452 239.834 586.987 246.808 607.988 252.095C628.989 257.383 638.648 260.982 639.771 261.207C640.894 261.432 620.566 221.722 615.625 209.348C610.796 196.974 608.662 192.25 608.662 192.25C601.587 196.074 594.174 198.999 586.538 201.024Z" fill="white" stroke="#263238" stroke-width="0.5" stroke-linecap="round" stroke-linejoin="round"/>
<path d="M652.687 239.271L645.162 241.408L650.441 248.608L651.002 249.395L652.687 239.271Z" fill="white" stroke="#263238" stroke-linecap="round" stroke-linejoin="round"/>
<path d="M657.515 246.246L653.359 247.933L656.729 250.295L657.515 246.246Z" fill="#B0BEC5" stroke="#263238" stroke-linecap="round" stroke-linejoin="round"/>
<path d="M650.89 242.759C648.868 243.321 646.847 243.771 644.713 243.996C643.028 243.996 638.985 246.921 633.707 246.921C628.429 246.921 625.509 244.334 622.252 243.996C618.995 243.546 609.898 243.321 606.978 243.096C605.069 242.984 603.047 242.534 601.25 241.859C600.127 241.296 599.229 240.509 598.443 239.496C596.758 237.584 597.207 236.797 597.207 236.797C596.421 236.347 595.747 235.784 595.073 235.109C594.063 234.097 595.523 230.61 595.523 230.61L594.849 229.597C594.287 228.585 594.287 227.46 594.849 226.447C595.298 225.772 619.219 215.086 620.23 214.748C621.241 214.411 636.739 229.822 636.739 229.822L643.927 228.81C653.473 231.622 650.89 242.759 650.89 242.759Z" fill="white" stroke="#263238" stroke-linecap="round" stroke-linejoin="round"/>
<path d="M595.521 230.722L617.983 223.522" stroke="#263238" stroke-linecap="round" stroke-linejoin="round"/>
<path d="M597.207 236.909L618.545 231.959" stroke="#263238" stroke-linecap="round" stroke-linejoin="round"/>
<path d="M599.902 240.059L618.994 239.384" stroke="#263238" stroke-linecap="round" stroke-linejoin="round"/>
<path d="M659.424 245.571L650.889 249.395C650.889 245.233 650.327 241.071 649.204 237.134C647.295 230.609 643.926 228.922 643.926 228.922L650.776 225.097C662.793 230.272 659.424 245.571 659.424 245.571Z" fill="white" stroke="#263238" stroke-linecap="round" stroke-linejoin="round"/>
<path d="M666.613 148.04C668.073 137.241 679.528 125.204 682.672 123.854C685.817 122.617 688.625 121.267 690.758 126.779C692.892 132.291 723.327 224.76 723.327 224.76C713.332 231.847 702.551 237.696 691.095 242.196C679.977 246.471 668.409 249.171 656.617 250.295C657.403 246.471 657.403 242.646 656.617 238.821C655.382 233.309 649.43 225.435 649.43 225.435L683.683 209.686L664.366 164.351" fill="#B0BEC5"/>
<path d="M666.613 148.04C668.073 137.241 679.528 125.204 682.672 123.854C685.817 122.617 688.625 121.267 690.758 126.779C692.892 132.291 723.327 224.76 723.327 224.76C713.332 231.847 702.551 237.696 691.095 242.196C679.977 246.471 668.409 249.171 656.617 250.295C657.403 246.471 657.403 242.646 656.617 238.821C655.382 233.309 649.43 225.435 649.43 225.435L683.683 209.686L664.366 164.351" stroke="#263238" stroke-linecap="round" stroke-linejoin="round"/>
<path d="M613.828 95.9561C614.053 96.856 615.4 103.156 617.085 109.118L632.471 80.9946L610.459 90.3315C611.807 92.1314 612.93 93.9312 613.828 95.9561Z" fill="#263238" stroke="#263238" stroke-linecap="round" stroke-linejoin="round"/>
<path d="M600.8 48.7086C599.789 48.7086 586.65 50.9584 584.965 40.3842C583.73 34.5346 586.762 28.5725 592.377 26.2101C592.377 26.2101 583.168 17.9982 593.276 11.9236C603.383 5.84906 616.298 7.31145 616.298 7.31145C616.298 7.31145 614.277 -0.787986 624.272 0.561921C634.267 1.91183 642.017 12.4861 642.354 13.4985C642.69 14.511 656.616 17.6607 661.783 24.1853C666.949 30.7098 666.499 40.0467 663.579 46.5712C660.659 52.3083 657.403 57.8205 653.809 63.2201C651.45 65.4699 648.081 66.2574 645.049 65.2449C639.658 63.5576 636.177 62.4326 635.952 58.0454C635.727 53.6582 633.257 42.409 631.797 41.0591C630.337 39.8217 627.192 39.4842 620.791 41.3966C614.389 43.6464 600.8 48.7086 600.8 48.7086Z" fill="#263238" stroke="#263238" stroke-linecap="round" stroke-linejoin="round"/>
<path d="M600.239 45.5597C600.239 45.5597 600.576 55.459 599.902 58.3838C598.667 68.2831 598.105 78.2949 597.881 88.3067C598.105 94.7188 605.405 99.2185 608.775 98.9935C612.368 98.7685 617.984 95.2812 623.15 93.5939C628.428 91.9065 642.466 85.4944 644.376 82.0072C646.285 78.2949 646.959 77.395 646.959 77.395C646.959 77.395 657.852 74.2452 658.639 64.9084C659.425 55.5715 653.36 55.1215 649.205 57.7088C646.846 59.0588 644.825 60.7461 643.028 62.546C643.028 62.546 639.771 62.6585 640.108 60.1837C640.445 58.6088 640.557 57.0339 640.67 55.459C640.67 53.6591 639.547 52.7592 637.974 48.822C636.402 44.9972 635.728 45.3347 637.076 41.735C638.423 38.1352 641.007 31.7231 641.007 31.7231C641.007 31.7231 610.908 35.6604 600.239 45.5597Z" fill="white" stroke="#263238" stroke-linecap="round" stroke-linejoin="round"/>
<path d="M615.176 46.4595C615.176 46.4595 620.342 45.3346 624.048 47.247" stroke="#263238" stroke-linecap="round" stroke-linejoin="round"/>
<path d="M606.079 46.6843C604.282 45.8969 602.261 46.1219 600.576 46.9093" stroke="#263238" stroke-linecap="round" stroke-linejoin="round"/>
<path d="M600.465 80.4323C600.465 80.4323 604.508 83.5821 611.134 80.3198" stroke="#263238" stroke-linecap="round" stroke-linejoin="round"/>
<path d="M620.566 53.0963C620.566 54.2213 619.668 55.2337 618.433 55.2337C617.197 55.2337 616.299 54.3338 616.299 53.0963C616.299 51.9714 617.197 50.959 618.433 50.959C619.668 51.0715 620.679 51.9714 620.566 53.0963Z" fill="#263238"/>
<path d="M604.956 52.4217C605.068 53.4341 604.282 54.3341 603.159 54.2216C602.148 54.3341 601.25 53.5466 601.362 52.4217C601.25 51.4093 602.036 50.5093 603.159 50.6218C604.17 50.7343 605.068 51.5218 604.956 52.4217Z" fill="#263238"/>
<path d="M610.235 49.7216C610.235 49.7216 608.662 57.596 612.705 60.2958C616.748 62.9956 625.508 61.3083 627.642 58.7209C629.664 56.0211 630.45 49.8341 630.45 49.8341C630.45 49.8341 618.994 47.1342 610.235 49.7216Z" stroke="#263238" stroke-linecap="round" stroke-linejoin="round"/>
<path d="M605.966 49.9466C605.966 49.9466 607.538 57.7086 604.731 60.6334C601.923 63.5582 595.072 62.3208 593.5 59.9584C591.815 57.5961 590.805 51.184 590.805 51.184C590.805 51.184 599.34 47.6968 605.966 49.9466Z" stroke="#263238" stroke-linecap="round" stroke-linejoin="round"/>
<path d="M605.967 49.9457C605.967 49.9457 606.978 48.8228 610.234 49.8334" stroke="#263238" stroke-linecap="round" stroke-linejoin="round"/>
<path d="M630.562 50.5093L646.735 58.7212" stroke="#263238" stroke-linecap="round" stroke-linejoin="round"/>
<path d="M607.989 52.6465C607.989 52.6465 595.074 65.2456 596.646 69.0704C598.219 72.8951 609.899 71.5452 609.899 71.5452" fill="white"/>
<path d="M607.989 52.6465C607.989 52.6465 595.074 65.2456 596.646 69.0704C598.219 72.8951 609.899 71.5452 609.899 71.5452" stroke="#263238" stroke-linecap="round" stroke-linejoin="round"/>
</g>
<g filter="url(#filter0_d_1111_2754)">
<path d="M484 88.5633L434.964 101.059V149.729C434.964 154.852 430.806 159 425.671 159H10.2936C5.15765 159 1 154.852 1 149.729V66.2711C1 61.1476 5.15765 57 10.2936 57H425.548C430.684 57 434.842 61.1476 434.842 66.2711V86.7861L484 88.5633Z" fill="white"/>
<path d="M484.123 89.0478C484.364 88.9864 484.524 88.7572 484.497 88.51C484.471 88.2628 484.267 88.0726 484.018 88.0636L435.342 86.3039V66.2711C435.342 60.8703 430.959 56.5 425.548 56.5H10.2936C4.88266 56.5 0.5 60.8703 0.5 66.2711V149.729C0.5 155.13 4.88266 159.5 10.2936 159.5H425.671C431.081 159.5 435.464 155.13 435.464 149.729V101.447L484.123 89.0478Z" stroke="#333E63" stroke-linecap="round" stroke-linejoin="round"/>
</g>
<path d="M30.296 83.43C31.064 83.658 31.652 84.03 32.06 84.546C32.468 85.062 32.672 85.698 32.672 86.454C32.672 87.57 32.246 88.44 31.394 89.064C30.554 89.688 29.348 90 27.776 90H21.566V77.4H27.434C28.898 77.4 30.038 77.682 30.854 78.246C31.67 78.81 32.078 79.614 32.078 80.658C32.078 81.282 31.922 81.834 31.61 82.314C31.298 82.782 30.86 83.154 30.296 83.43ZM24.464 82.62H27.182C27.818 82.62 28.298 82.494 28.622 82.242C28.946 81.978 29.108 81.594 29.108 81.09C29.108 80.598 28.94 80.22 28.604 79.956C28.28 79.692 27.806 79.56 27.182 79.56H24.464V82.62ZM27.668 87.84C29.036 87.84 29.72 87.3 29.72 86.22C29.72 85.176 29.036 84.654 27.668 84.654H24.464V87.84H27.668ZM39.8598 80.316H42.6498V84.096H46.8618V80.316H49.6698V90H46.8618V86.382H42.6498V90H39.8598V80.316ZM56.1198 80.172C57.6198 80.172 58.7718 80.532 59.5758 81.252C60.3798 81.96 60.7818 83.034 60.7818 84.474V90H58.1538V88.794C57.6258 89.694 56.6418 90.144 55.2018 90.144C54.4578 90.144 53.8098 90.018 53.2578 89.766C52.7178 89.514 52.3038 89.166 52.0158 88.722C51.7278 88.278 51.5838 87.774 51.5838 87.21C51.5838 86.31 51.9198 85.602 52.5918 85.086C53.2758 84.57 54.3258 84.312 55.7418 84.312H57.9738C57.9738 83.7 57.7878 83.232 57.4158 82.908C57.0438 82.572 56.4858 82.404 55.7418 82.404C55.2258 82.404 54.7158 82.488 54.2118 82.656C53.7198 82.812 53.2998 83.028 52.9518 83.304L51.9438 81.342C52.4718 80.97 53.1018 80.682 53.8338 80.478C54.5778 80.274 55.3398 80.172 56.1198 80.172ZM55.9038 88.254C56.3838 88.254 56.8098 88.146 57.1818 87.93C57.5538 87.702 57.8178 87.372 57.9738 86.94V85.95H56.0478C54.8958 85.95 54.3198 86.328 54.3198 87.084C54.3198 87.444 54.4578 87.732 54.7338 87.948C55.0218 88.152 55.4118 88.254 55.9038 88.254ZM77.9991 80.316V90H63.2211V80.316H66.0111V87.696H69.2331V80.316H72.0231V87.696H75.2091V80.316H77.9991ZM90.1078 85.194C90.1078 85.23 90.0898 85.482 90.0538 85.95H82.7278C82.8598 86.55 83.1718 87.024 83.6638 87.372C84.1558 87.72 84.7678 87.894 85.4998 87.894C86.0038 87.894 86.4478 87.822 86.8318 87.678C87.2278 87.522 87.5938 87.282 87.9298 86.958L89.4238 88.578C88.5118 89.622 87.1798 90.144 85.4278 90.144C84.3358 90.144 83.3698 89.934 82.5298 89.514C81.6898 89.082 81.0418 88.488 80.5858 87.732C80.1298 86.976 79.9018 86.118 79.9018 85.158C79.9018 84.21 80.1238 83.358 80.5678 82.602C81.0238 81.834 81.6418 81.24 82.4218 80.82C83.2138 80.388 84.0958 80.172 85.0678 80.172C86.0158 80.172 86.8738 80.376 87.6418 80.784C88.4098 81.192 89.0098 81.78 89.4418 82.548C89.8858 83.304 90.1078 84.186 90.1078 85.194ZM85.0858 82.296C84.4498 82.296 83.9158 82.476 83.4838 82.836C83.0518 83.196 82.7878 83.688 82.6918 84.312H87.4618C87.3658 83.7 87.1018 83.214 86.6698 82.854C86.2378 82.482 85.7098 82.296 85.0858 82.296ZM101.71 90V84.204L98.8122 89.064H97.6242L94.7982 84.186V90H92.2602V80.316H95.1942L98.2902 85.914L101.584 80.316H104.212L104.248 90H101.71ZM121.666 80.316V90H118.858V82.62H114.826V90H112.036V80.316H121.666ZM128.894 90.144C127.874 90.144 126.956 89.934 126.14 89.514C125.336 89.082 124.706 88.488 124.25 87.732C123.794 86.976 123.566 86.118 123.566 85.158C123.566 84.198 123.794 83.34 124.25 82.584C124.706 81.828 125.336 81.24 126.14 80.82C126.956 80.388 127.874 80.172 128.894 80.172C129.914 80.172 130.826 80.388 131.63 80.82C132.434 81.24 133.064 81.828 133.52 82.584C133.976 83.34 134.204 84.198 134.204 85.158C134.204 86.118 133.976 86.976 133.52 87.732C133.064 88.488 132.434 89.082 131.63 89.514C130.826 89.934 129.914 90.144 128.894 90.144ZM128.894 87.84C129.614 87.84 130.202 87.6 130.658 87.12C131.126 86.628 131.36 85.974 131.36 85.158C131.36 84.342 131.126 83.694 130.658 83.214C130.202 82.722 129.614 82.476 128.894 82.476C128.174 82.476 127.58 82.722 127.112 83.214C126.644 83.694 126.41 84.342 126.41 85.158C126.41 85.974 126.644 86.628 127.112 87.12C127.58 87.6 128.174 87.84 128.894 87.84ZM140.401 86.328H138.943V90H136.135V80.316H138.943V84.078H140.455L143.083 80.316H146.071L142.687 84.96L146.305 90H142.993L140.401 86.328ZM153.39 80.172C154.29 80.172 155.106 80.382 155.838 80.802C156.582 81.21 157.164 81.792 157.584 82.548C158.004 83.292 158.214 84.162 158.214 85.158C158.214 86.154 158.004 87.03 157.584 87.786C157.164 88.53 156.582 89.112 155.838 89.532C155.106 89.94 154.29 90.144 153.39 90.144C152.154 90.144 151.182 89.754 150.474 88.974V93.492H147.666V80.316H150.348V81.432C151.044 80.592 152.058 80.172 153.39 80.172ZM152.904 87.84C153.624 87.84 154.212 87.6 154.668 87.12C155.136 86.628 155.37 85.974 155.37 85.158C155.37 84.342 155.136 83.694 154.668 83.214C154.212 82.722 153.624 82.476 152.904 82.476C152.184 82.476 151.59 82.722 151.122 83.214C150.666 83.694 150.438 84.342 150.438 85.158C150.438 85.974 150.666 86.628 151.122 87.12C151.59 87.6 152.184 87.84 152.904 87.84ZM165.276 83.412C166.536 83.424 167.49 83.706 168.138 84.258C168.786 84.81 169.11 85.602 169.11 86.634C169.11 87.714 168.744 88.548 168.012 89.136C167.28 89.724 166.242 90.018 164.898 90.018L160.182 90V80.316H162.972V83.412H165.276ZM170.154 80.316H172.944V90H170.154V80.316ZM164.646 88.02C165.186 88.032 165.6 87.918 165.888 87.678C166.176 87.438 166.32 87.078 166.32 86.598C166.32 86.13 166.176 85.788 165.888 85.572C165.612 85.356 165.198 85.242 164.646 85.23L162.972 85.212V88.02H164.646ZM183.787 82.62H180.511V90H177.721V82.62H174.445V80.316H183.787V82.62ZM185.284 80.316H188.074V86.076L192.79 80.316H195.364V90H192.574V84.24L187.876 90H185.284V80.316ZM198.063 80.316H200.853V86.076L205.569 80.316H208.143V90H205.353V84.24L200.655 90H198.063V80.316ZM221.538 80.982C222.462 80.982 223.272 81.174 223.968 81.558C224.664 81.93 225.198 82.458 225.57 83.142C225.954 83.826 226.146 84.618 226.146 85.518C226.146 86.442 225.918 87.264 225.462 87.984C225.018 88.692 224.394 89.244 223.59 89.64C222.786 90.024 221.874 90.216 220.854 90.216C219.162 90.216 217.83 89.676 216.858 88.596C215.898 87.504 215.418 85.908 215.418 83.808C215.418 81.864 215.838 80.316 216.678 79.164C217.53 78 218.832 77.238 220.584 76.878L225.192 75.96L225.57 78.372L221.502 79.182C220.398 79.398 219.576 79.758 219.036 80.262C218.508 80.766 218.196 81.48 218.1 82.404C218.52 81.948 219.024 81.6 219.612 81.36C220.2 81.108 220.842 80.982 221.538 80.982ZM220.872 88.038C221.592 88.038 222.168 87.804 222.6 87.336C223.044 86.868 223.266 86.274 223.266 85.554C223.266 84.822 223.044 84.24 222.6 83.808C222.168 83.376 221.592 83.16 220.872 83.16C220.14 83.16 219.552 83.376 219.108 83.808C218.664 84.24 218.442 84.822 218.442 85.554C218.442 86.286 218.67 86.886 219.126 87.354C219.582 87.81 220.164 88.038 220.872 88.038ZM232.587 90.144C231.567 90.144 230.649 89.934 229.833 89.514C229.029 89.082 228.399 88.488 227.943 87.732C227.487 86.976 227.259 86.118 227.259 85.158C227.259 84.198 227.487 83.34 227.943 82.584C228.399 81.828 229.029 81.24 229.833 80.82C230.649 80.388 231.567 80.172 232.587 80.172C233.607 80.172 234.519 80.388 235.323 80.82C236.127 81.24 236.757 81.828 237.213 82.584C237.669 83.34 237.897 84.198 237.897 85.158C237.897 86.118 237.669 86.976 237.213 87.732C236.757 88.488 236.127 89.082 235.323 89.514C234.519 89.934 233.607 90.144 232.587 90.144ZM232.587 87.84C233.307 87.84 233.895 87.6 234.351 87.12C234.819 86.628 235.053 85.974 235.053 85.158C235.053 84.342 234.819 83.694 234.351 83.214C233.895 82.722 233.307 82.476 232.587 82.476C231.867 82.476 231.273 82.722 230.805 83.214C230.337 83.694 230.103 84.342 230.103 85.158C230.103 85.974 230.337 86.628 230.805 87.12C231.273 87.6 231.867 87.84 232.587 87.84ZM248.976 80.316V90H246.168V82.62H243.108L243.018 84.33C242.97 85.602 242.85 86.658 242.658 87.498C242.466 88.338 242.154 88.998 241.722 89.478C241.29 89.958 240.69 90.198 239.922 90.198C239.514 90.198 239.028 90.126 238.464 89.982L238.608 87.678C238.8 87.702 238.938 87.714 239.022 87.714C239.442 87.714 239.754 87.564 239.958 87.264C240.174 86.952 240.318 86.562 240.39 86.094C240.462 85.614 240.516 84.984 240.552 84.204L240.696 80.316H248.976ZM261.09 85.194C261.09 85.23 261.072 85.482 261.036 85.95H253.71C253.842 86.55 254.154 87.024 254.646 87.372C255.138 87.72 255.75 87.894 256.482 87.894C256.986 87.894 257.43 87.822 257.814 87.678C258.21 87.522 258.576 87.282 258.912 86.958L260.406 88.578C259.494 89.622 258.162 90.144 256.41 90.144C255.318 90.144 254.352 89.934 253.512 89.514C252.672 89.082 252.024 88.488 251.568 87.732C251.112 86.976 250.884 86.118 250.884 85.158C250.884 84.21 251.106 83.358 251.55 82.602C252.006 81.834 252.624 81.24 253.404 80.82C254.196 80.388 255.078 80.172 256.05 80.172C256.998 80.172 257.856 80.376 258.624 80.784C259.392 81.192 259.992 81.78 260.424 82.548C260.868 83.304 261.09 84.186 261.09 85.194ZM256.068 82.296C255.432 82.296 254.898 82.476 254.466 82.836C254.034 83.196 253.77 83.688 253.674 84.312H258.444C258.348 83.7 258.084 83.214 257.652 82.854C257.22 82.482 256.692 82.296 256.068 82.296ZM272.657 85.194C272.657 85.23 272.639 85.482 272.603 85.95H265.277C265.409 86.55 265.721 87.024 266.213 87.372C266.705 87.72 267.317 87.894 268.049 87.894C268.553 87.894 268.997 87.822 269.381 87.678C269.777 87.522 270.143 87.282 270.479 86.958L271.973 88.578C271.061 89.622 269.729 90.144 267.977 90.144C266.885 90.144 265.919 89.934 265.079 89.514C264.239 89.082 263.591 88.488 263.135 87.732C262.679 86.976 262.451 86.118 262.451 85.158C262.451 84.21 262.673 83.358 263.117 82.602C263.573 81.834 264.191 81.24 264.971 80.82C265.763 80.388 266.645 80.172 267.617 80.172C268.565 80.172 269.423 80.376 270.191 80.784C270.959 81.192 271.559 81.78 271.991 82.548C272.435 83.304 272.657 84.186 272.657 85.194ZM267.635 82.296C266.999 82.296 266.465 82.476 266.033 82.836C265.601 83.196 265.337 83.688 265.241 84.312H270.011C269.915 83.7 269.651 83.214 269.219 82.854C268.787 82.482 268.259 82.296 267.635 82.296ZM284.119 77.4V90H281.203V79.74H278.683V77.4H284.119ZM295.721 87.624V90H286.199V88.11L291.059 83.52C291.575 83.028 291.923 82.608 292.103 82.26C292.283 81.9 292.373 81.546 292.373 81.198C292.373 80.694 292.199 80.31 291.851 80.046C291.515 79.77 291.017 79.632 290.357 79.632C289.805 79.632 289.307 79.74 288.863 79.956C288.419 80.16 288.047 80.472 287.747 80.892L285.623 79.524C286.115 78.792 286.793 78.222 287.657 77.814C288.521 77.394 289.511 77.184 290.627 77.184C291.563 77.184 292.379 77.34 293.075 77.652C293.783 77.952 294.329 78.384 294.713 78.948C295.109 79.5 295.307 80.154 295.307 80.91C295.307 81.594 295.163 82.236 294.875 82.836C294.587 83.436 294.029 84.12 293.201 84.888L290.303 87.624H295.721ZM302.29 90.216C301.246 90.216 300.316 89.958 299.5 89.442C298.684 88.926 298.042 88.182 297.574 87.21C297.118 86.226 296.89 85.056 296.89 83.7C296.89 82.344 297.118 81.18 297.574 80.208C298.042 79.224 298.684 78.474 299.5 77.958C300.316 77.442 301.246 77.184 302.29 77.184C303.334 77.184 304.264 77.442 305.08 77.958C305.896 78.474 306.532 79.224 306.988 80.208C307.456 81.18 307.69 82.344 307.69 83.7C307.69 85.056 307.456 86.226 306.988 87.21C306.532 88.182 305.896 88.926 305.08 89.442C304.264 89.958 303.334 90.216 302.29 90.216ZM302.29 87.75C303.058 87.75 303.658 87.42 304.09 86.76C304.534 86.1 304.756 85.08 304.756 83.7C304.756 82.32 304.534 81.3 304.09 80.64C303.658 79.98 303.058 79.65 302.29 79.65C301.534 79.65 300.934 79.98 300.49 80.64C300.058 81.3 299.842 82.32 299.842 83.7C299.842 85.08 300.058 86.1 300.49 86.76C300.934 87.42 301.534 87.75 302.29 87.75ZM318.614 80.172C320.114 80.172 321.266 80.532 322.07 81.252C322.874 81.96 323.276 83.034 323.276 84.474V90H320.648V88.794C320.12 89.694 319.136 90.144 317.696 90.144C316.952 90.144 316.304 90.018 315.752 89.766C315.212 89.514 314.798 89.166 314.51 88.722C314.222 88.278 314.078 87.774 314.078 87.21C314.078 86.31 314.414 85.602 315.086 85.086C315.77 84.57 316.82 84.312 318.236 84.312H320.468C320.468 83.7 320.282 83.232 319.91 82.908C319.538 82.572 318.98 82.404 318.236 82.404C317.72 82.404 317.21 82.488 316.706 82.656C316.214 82.812 315.794 83.028 315.446 83.304L314.438 81.342C314.966 80.97 315.596 80.682 316.328 80.478C317.072 80.274 317.834 80.172 318.614 80.172ZM318.398 88.254C318.878 88.254 319.304 88.146 319.676 87.93C320.048 87.702 320.312 87.372 320.468 86.94V85.95H318.542C317.39 85.95 316.814 86.328 316.814 87.084C316.814 87.444 316.952 87.732 317.228 87.948C317.516 88.152 317.906 88.254 318.398 88.254ZM329.981 86.328H328.523V90H325.715V80.316H328.523V84.078H330.035L332.663 80.316H335.651L332.267 84.96L335.885 90H332.573L329.981 86.328ZM348.172 87.696V92.124H345.562V90H337.264V80.316H340.054V87.696H343.96V80.316H346.768V87.696H348.172ZM349.938 80.316H352.728V86.076L357.444 80.316H360.018V90H357.228V84.24L352.53 90H349.938V80.316ZM362.717 80.316H365.507V86.076L370.223 80.316H372.797V90H370.007V84.24L365.309 90H362.717V80.316ZM367.577 79.272C365.465 79.272 364.403 78.342 364.391 76.482H366.227C366.239 76.902 366.353 77.232 366.569 77.472C366.797 77.7 367.127 77.814 367.559 77.814C367.991 77.814 368.321 77.7 368.549 77.472C368.789 77.232 368.909 76.902 368.909 76.482H370.781C370.769 78.342 369.701 79.272 367.577 79.272ZM376.522 86.652C377.026 86.652 377.44 86.814 377.764 87.138C378.088 87.45 378.25 87.864 378.25 88.38C378.25 88.62 378.22 88.86 378.16 89.1C378.1 89.34 377.968 89.7 377.764 90.18L376.738 92.772H374.956L375.748 89.91C375.448 89.79 375.208 89.598 375.028 89.334C374.86 89.058 374.776 88.74 374.776 88.38C374.776 87.864 374.938 87.45 375.262 87.138C375.598 86.814 376.018 86.652 376.522 86.652Z" fill="#FF5745"/>
<path d="M29.288 102.46V112H27.56V108.148C26.528 108.628 25.502 108.868 24.482 108.868C23.294 108.868 22.376 108.592 21.728 108.04C21.08 107.488 20.756 106.66 20.756 105.556V102.46H22.484V105.448C22.484 106.108 22.688 106.606 23.096 106.942C23.516 107.278 24.098 107.446 24.842 107.446C25.682 107.446 26.588 107.236 27.56 106.816V102.46H29.288ZM39.7528 103.972H36.2607V112H34.5328V103.972H31.0408V102.46H39.7528V103.972ZM45.1838 112.108C44.2358 112.108 43.3838 111.898 42.6278 111.478C41.8718 111.058 41.2778 110.482 40.8458 109.75C40.4258 109.006 40.2158 108.166 40.2158 107.23C40.2158 106.294 40.4258 105.46 40.8458 104.728C41.2778 103.984 41.8718 103.408 42.6278 103C43.3838 102.58 44.2358 102.37 45.1838 102.37C46.1318 102.37 46.9778 102.58 47.7218 103C48.4778 103.408 49.0658 103.984 49.4858 104.728C49.9178 105.46 50.1338 106.294 50.1338 107.23C50.1338 108.166 49.9178 109.006 49.4858 109.75C49.0658 110.482 48.4778 111.058 47.7218 111.478C46.9778 111.898 46.1318 112.108 45.1838 112.108ZM45.1838 110.596C45.7958 110.596 46.3418 110.458 46.8218 110.182C47.3138 109.894 47.6978 109.498 47.9738 108.994C48.2498 108.478 48.3878 107.89 48.3878 107.23C48.3878 106.57 48.2498 105.988 47.9738 105.484C47.6978 104.968 47.3138 104.572 46.8218 104.296C46.3418 104.02 45.7958 103.882 45.1838 103.882C44.5718 103.882 44.0198 104.02 43.5278 104.296C43.0478 104.572 42.6638 104.968 42.3758 105.484C42.0998 105.988 41.9618 106.57 41.9618 107.23C41.9618 107.89 42.0998 108.478 42.3758 108.994C42.6638 109.498 43.0478 109.894 43.5278 110.182C44.0198 110.458 44.5718 110.596 45.1838 110.596ZM57.4891 102.784C58.3771 102.784 59.1691 102.982 59.8651 103.378C60.5611 103.774 61.1011 104.326 61.4851 105.034C61.8811 105.73 62.0791 106.528 62.0791 107.428C62.0791 108.352 61.8691 109.174 61.4491 109.894C61.0411 110.602 60.4591 111.154 59.7031 111.55C58.9591 111.946 58.1071 112.144 57.1471 112.144C55.5271 112.144 54.2731 111.592 53.3851 110.488C52.5091 109.372 52.0711 107.806 52.0711 105.79C52.0711 103.834 52.4731 102.304 53.2771 101.2C54.0811 100.084 55.3111 99.346 56.9671 98.986L61.3231 98.014L61.5751 99.598L57.5611 100.462C56.3131 100.738 55.3831 101.206 54.7711 101.866C54.1591 102.526 53.8111 103.474 53.7271 104.71C54.1351 104.098 54.6631 103.624 55.3111 103.288C55.9591 102.952 56.6851 102.784 57.4891 102.784ZM57.1831 110.704C57.7951 110.704 58.3351 110.566 58.8031 110.29C59.2831 110.014 59.6551 109.636 59.9191 109.156C60.1831 108.664 60.3151 108.106 60.3151 107.482C60.3151 106.534 60.0271 105.772 59.4511 105.196C58.8751 104.62 58.1191 104.332 57.1831 104.332C56.2471 104.332 55.4851 104.62 54.8971 105.196C54.3211 105.772 54.0331 106.534 54.0331 107.482C54.0331 108.106 54.1651 108.664 54.4291 109.156C54.7051 109.636 55.0831 110.014 55.5631 110.29C56.0431 110.566 56.5831 110.704 57.1831 110.704ZM68.849 105.7C70.049 105.712 70.967 105.988 71.603 106.528C72.239 107.068 72.557 107.83 72.557 108.814C72.557 109.846 72.209 110.644 71.513 111.208C70.829 111.76 69.845 112.03 68.561 112.018L64.547 112V102.46H66.275V105.682L68.849 105.7ZM73.979 102.46H75.707V112H73.979V102.46ZM68.435 110.704C69.215 110.716 69.803 110.56 70.199 110.236C70.607 109.912 70.811 109.432 70.811 108.796C70.811 108.172 70.613 107.716 70.217 107.428C69.821 107.14 69.227 106.99 68.435 106.978L66.275 106.942V110.686L68.435 110.704ZM92.7386 102.46V112H91.0106V103.972H85.6286V112H83.9006V102.46H92.7386ZM100.168 112.108C99.2202 112.108 98.3682 111.898 97.6122 111.478C96.8562 111.058 96.2622 110.482 95.8302 109.75C95.4102 109.006 95.2002 108.166 95.2002 107.23C95.2002 106.294 95.4102 105.46 95.8302 104.728C96.2622 103.984 96.8562 103.408 97.6122 103C98.3682 102.58 99.2202 102.37 100.168 102.37C101.116 102.37 101.962 102.58 102.706 103C103.462 103.408 104.05 103.984 104.47 104.728C104.902 105.46 105.118 106.294 105.118 107.23C105.118 108.166 104.902 109.006 104.47 109.75C104.05 110.482 103.462 111.058 102.706 111.478C101.962 111.898 101.116 112.108 100.168 112.108ZM100.168 110.596C100.78 110.596 101.326 110.458 101.806 110.182C102.298 109.894 102.682 109.498 102.958 108.994C103.234 108.478 103.372 107.89 103.372 107.23C103.372 106.57 103.234 105.988 102.958 105.484C102.682 104.968 102.298 104.572 101.806 104.296C101.326 104.02 100.78 103.882 100.168 103.882C99.5562 103.882 99.0042 104.02 98.5122 104.296C98.0322 104.572 97.6482 104.968 97.3602 105.484C97.0842 105.988 96.9462 106.57 96.9462 107.23C96.9462 107.89 97.0842 108.478 97.3602 108.994C97.6482 109.498 98.0322 109.894 98.5122 110.182C99.0042 110.458 99.5562 110.596 100.168 110.596ZM117.245 110.488V114.214H115.625V112H107.651V114.214H106.013V110.488H106.517C107.129 110.452 107.549 110.02 107.777 109.192C108.005 108.364 108.161 107.194 108.245 105.682L108.389 102.46H115.787V110.488H117.245ZM109.829 105.808C109.781 107.008 109.679 108.004 109.523 108.796C109.379 109.576 109.109 110.14 108.713 110.488H114.059V103.972H109.919L109.829 105.808ZM123.654 112.108C122.682 112.108 121.812 111.898 121.044 111.478C120.288 111.058 119.694 110.482 119.262 109.75C118.83 109.006 118.614 108.166 118.614 107.23C118.614 106.294 118.83 105.46 119.262 104.728C119.694 103.984 120.288 103.408 121.044 103C121.812 102.58 122.682 102.37 123.654 102.37C124.518 102.37 125.286 102.544 125.958 102.892C126.642 103.24 127.17 103.744 127.542 104.404L126.228 105.25C125.928 104.794 125.556 104.452 125.112 104.224C124.668 103.996 124.176 103.882 123.636 103.882C123.012 103.882 122.448 104.02 121.944 104.296C121.452 104.572 121.062 104.968 120.774 105.484C120.498 105.988 120.36 106.57 120.36 107.23C120.36 107.902 120.498 108.496 120.774 109.012C121.062 109.516 121.452 109.906 121.944 110.182C122.448 110.458 123.012 110.596 123.636 110.596C124.176 110.596 124.668 110.482 125.112 110.254C125.556 110.026 125.928 109.684 126.228 109.228L127.542 110.056C127.17 110.716 126.642 111.226 125.958 111.586C125.286 111.934 124.518 112.108 123.654 112.108ZM136.277 107.05C137.513 107.362 138.131 108.136 138.131 109.372C138.131 110.212 137.813 110.86 137.177 111.316C136.553 111.772 135.617 112 134.369 112H129.779V102.46H134.207C135.335 102.46 136.217 102.676 136.853 103.108C137.489 103.528 137.807 104.128 137.807 104.908C137.807 105.412 137.669 105.85 137.393 106.222C137.129 106.582 136.757 106.858 136.277 107.05ZM131.471 106.564H134.063C134.723 106.564 135.221 106.444 135.557 106.204C135.905 105.964 136.079 105.616 136.079 105.16C136.079 104.248 135.407 103.792 134.063 103.792H131.471V106.564ZM134.243 110.668C134.963 110.668 135.503 110.554 135.863 110.326C136.223 110.098 136.403 109.744 136.403 109.264C136.403 108.772 136.235 108.406 135.899 108.166C135.575 107.926 135.059 107.806 134.351 107.806H131.471V110.668H134.243ZM149.458 107.284C149.458 107.416 149.446 107.59 149.422 107.806H141.682C141.79 108.646 142.156 109.324 142.78 109.84C143.416 110.344 144.202 110.596 145.138 110.596C146.278 110.596 147.196 110.212 147.892 109.444L148.846 110.56C148.414 111.064 147.874 111.448 147.226 111.712C146.59 111.976 145.876 112.108 145.084 112.108C144.076 112.108 143.182 111.904 142.402 111.496C141.622 111.076 141.016 110.494 140.584 109.75C140.164 109.006 139.954 108.166 139.954 107.23C139.954 106.306 140.158 105.472 140.566 104.728C140.986 103.984 141.556 103.408 142.276 103C143.008 102.58 143.83 102.37 144.742 102.37C145.654 102.37 146.464 102.58 147.172 103C147.892 103.408 148.45 103.984 148.846 104.728C149.254 105.472 149.458 106.324 149.458 107.284ZM144.742 103.828C143.914 103.828 143.218 104.08 142.654 104.584C142.102 105.088 141.778 105.748 141.682 106.564H147.802C147.706 105.76 147.376 105.106 146.812 104.602C146.26 104.086 145.57 103.828 144.742 103.828ZM159.753 102.46V112H158.025V108.148C156.993 108.628 155.967 108.868 154.947 108.868C153.759 108.868 152.841 108.592 152.193 108.04C151.545 107.488 151.221 106.66 151.221 105.556V102.46H152.949V105.448C152.949 106.108 153.153 106.606 153.561 106.942C153.981 107.278 154.563 107.446 155.307 107.446C156.147 107.446 157.053 107.236 158.025 106.816V102.46H159.753ZM163.108 102.46H164.836V109.408L170.686 102.46H172.252V112H170.524V105.052L164.692 112H163.108V102.46ZM182.104 107.05C183.34 107.362 183.958 108.136 183.958 109.372C183.958 110.212 183.64 110.86 183.004 111.316C182.38 111.772 181.444 112 180.196 112H175.606V102.46H180.034C181.162 102.46 182.044 102.676 182.68 103.108C183.316 103.528 183.634 104.128 183.634 104.908C183.634 105.412 183.496 105.85 183.22 106.222C182.956 106.582 182.584 106.858 182.104 107.05ZM177.298 106.564H179.89C180.55 106.564 181.048 106.444 181.384 106.204C181.732 105.964 181.906 105.616 181.906 105.16C181.906 104.248 181.234 103.792 179.89 103.792H177.298V106.564ZM180.07 110.668C180.79 110.668 181.33 110.554 181.69 110.326C182.05 110.098 182.23 109.744 182.23 109.264C182.23 108.772 182.062 108.406 181.726 108.166C181.402 107.926 180.886 107.806 180.178 107.806H177.298V110.668H180.07ZM190.064 102.37C191.384 102.37 192.392 102.694 193.088 103.342C193.796 103.99 194.15 104.956 194.15 106.24V112H192.512V110.74C192.224 111.184 191.81 111.526 191.27 111.766C190.742 111.994 190.112 112.108 189.38 112.108C188.312 112.108 187.454 111.85 186.806 111.334C186.17 110.818 185.852 110.14 185.852 109.3C185.852 108.46 186.158 107.788 186.77 107.284C187.382 106.768 188.354 106.51 189.686 106.51H192.422V106.168C192.422 105.424 192.206 104.854 191.774 104.458C191.342 104.062 190.706 103.864 189.866 103.864C189.302 103.864 188.75 103.96 188.21 104.152C187.67 104.332 187.214 104.578 186.842 104.89L186.122 103.594C186.614 103.198 187.202 102.898 187.886 102.694C188.57 102.478 189.296 102.37 190.064 102.37ZM189.668 110.776C190.328 110.776 190.898 110.632 191.378 110.344C191.858 110.044 192.206 109.624 192.422 109.084V107.752H189.758C188.294 107.752 187.562 108.244 187.562 109.228C187.562 109.708 187.748 110.086 188.12 110.362C188.492 110.638 189.008 110.776 189.668 110.776ZM204.372 103.972H200.88V112H199.152V103.972H195.66V102.46H204.372V103.972ZM210.549 105.7C211.761 105.712 212.685 105.988 213.321 106.528C213.957 107.068 214.275 107.83 214.275 108.814C214.275 109.846 213.927 110.644 213.231 111.208C212.547 111.76 211.563 112.03 210.279 112.018L206.139 112V102.46H207.867V105.682L210.549 105.7ZM210.135 110.704C210.915 110.716 211.503 110.56 211.899 110.236C212.307 109.912 212.511 109.432 212.511 108.796C212.511 108.172 212.313 107.716 211.917 107.428C211.533 107.14 210.939 106.99 210.135 106.978L207.867 106.942V110.686L210.135 110.704ZM226.186 102.784C227.074 102.784 227.866 102.982 228.562 103.378C229.258 103.774 229.798 104.326 230.182 105.034C230.578 105.73 230.776 106.528 230.776 107.428C230.776 108.352 230.566 109.174 230.146 109.894C229.738 110.602 229.156 111.154 228.4 111.55C227.656 111.946 226.804 112.144 225.844 112.144C224.224 112.144 222.97 111.592 222.082 110.488C221.206 109.372 220.768 107.806 220.768 105.79C220.768 103.834 221.17 102.304 221.974 101.2C222.778 100.084 224.008 99.346 225.664 98.986L230.02 98.014L230.272 99.598L226.258 100.462C225.01 100.738 224.08 101.206 223.468 101.866C222.856 102.526 222.508 103.474 222.424 104.71C222.832 104.098 223.36 103.624 224.008 103.288C224.656 102.952 225.382 102.784 226.186 102.784ZM225.88 110.704C226.492 110.704 227.032 110.566 227.5 110.29C227.98 110.014 228.352 109.636 228.616 109.156C228.88 108.664 229.012 108.106 229.012 107.482C229.012 106.534 228.724 105.772 228.148 105.196C227.572 104.62 226.816 104.332 225.88 104.332C224.944 104.332 224.182 104.62 223.594 105.196C223.018 105.772 222.73 106.534 222.73 107.482C222.73 108.106 222.862 108.664 223.126 109.156C223.402 109.636 223.78 110.014 224.26 110.29C224.74 110.566 225.28 110.704 225.88 110.704ZM237.33 112.108C236.382 112.108 235.53 111.898 234.774 111.478C234.018 111.058 233.424 110.482 232.992 109.75C232.572 109.006 232.362 108.166 232.362 107.23C232.362 106.294 232.572 105.46 232.992 104.728C233.424 103.984 234.018 103.408 234.774 103C235.53 102.58 236.382 102.37 237.33 102.37C238.278 102.37 239.124 102.58 239.868 103C240.624 103.408 241.212 103.984 241.632 104.728C242.064 105.46 242.28 106.294 242.28 107.23C242.28 108.166 242.064 109.006 241.632 109.75C241.212 110.482 240.624 111.058 239.868 111.478C239.124 111.898 238.278 112.108 237.33 112.108ZM237.33 110.596C237.942 110.596 238.488 110.458 238.968 110.182C239.46 109.894 239.844 109.498 240.12 108.994C240.396 108.478 240.534 107.89 240.534 107.23C240.534 106.57 240.396 105.988 240.12 105.484C239.844 104.968 239.46 104.572 238.968 104.296C238.488 104.02 237.942 103.882 237.33 103.882C236.718 103.882 236.166 104.02 235.674 104.296C235.194 104.572 234.81 104.968 234.522 105.484C234.246 105.988 234.108 106.57 234.108 107.23C234.108 107.89 234.246 108.478 234.522 108.994C234.81 109.498 235.194 109.894 235.674 110.182C236.166 110.458 236.718 110.596 237.33 110.596ZM252.895 102.46V112H251.167V103.972H247.063L246.955 106.096C246.895 107.38 246.781 108.454 246.613 109.318C246.445 110.17 246.169 110.854 245.785 111.37C245.401 111.886 244.867 112.144 244.183 112.144C243.871 112.144 243.517 112.09 243.121 111.982L243.229 110.524C243.385 110.56 243.529 110.578 243.661 110.578C244.141 110.578 244.501 110.368 244.741 109.948C244.981 109.528 245.137 109.03 245.209 108.454C245.281 107.878 245.347 107.056 245.407 105.988L245.569 102.46H252.895ZM260.647 105.7C261.859 105.712 262.783 105.988 263.419 106.528C264.055 107.068 264.373 107.83 264.373 108.814C264.373 109.846 264.025 110.644 263.329 111.208C262.645 111.76 261.661 112.03 260.377 112.018L256.237 112V102.46H257.965V105.682L260.647 105.7ZM260.233 110.704C261.013 110.716 261.601 110.56 261.997 110.236C262.405 109.912 262.609 109.432 262.609 108.796C262.609 108.172 262.411 107.716 262.015 107.428C261.631 107.14 261.037 106.99 260.233 106.978L257.965 106.942V110.686L260.233 110.704ZM280.18 102.46V112H266.59V102.46H268.318V110.488H272.53V102.46H274.258V110.488H278.452V102.46H280.18ZM292.157 107.284C292.157 107.416 292.145 107.59 292.121 107.806H284.381C284.489 108.646 284.855 109.324 285.479 109.84C286.115 110.344 286.901 110.596 287.837 110.596C288.977 110.596 289.895 110.212 290.591 109.444L291.545 110.56C291.113 111.064 290.573 111.448 289.925 111.712C289.289 111.976 288.575 112.108 287.783 112.108C286.775 112.108 285.881 111.904 285.101 111.496C284.321 111.076 283.715 110.494 283.283 109.75C282.863 109.006 282.653 108.166 282.653 107.23C282.653 106.306 282.857 105.472 283.265 104.728C283.685 103.984 284.255 103.408 284.975 103C285.707 102.58 286.529 102.37 287.441 102.37C288.353 102.37 289.163 102.58 289.871 103C290.591 103.408 291.149 103.984 291.545 104.728C291.953 105.472 292.157 106.324 292.157 107.284ZM287.441 103.828C286.613 103.828 285.917 104.08 285.353 104.584C284.801 105.088 284.477 105.748 284.381 106.564H290.501C290.405 105.76 290.075 105.106 289.511 104.602C288.959 104.086 288.269 103.828 287.441 103.828ZM299.672 102.46H301.4V109.408L307.25 102.46H308.816V112H307.088V105.052L301.256 112H299.672V102.46ZM312.17 102.46H313.898V106.51H319.334V102.46H321.062V112H319.334V108.004H313.898V112H312.17V102.46ZM331.532 103.972H328.04V112H326.312V103.972H322.82V102.46H331.532V103.972ZM341.499 107.284C341.499 107.416 341.487 107.59 341.463 107.806H333.723C333.831 108.646 334.197 109.324 334.821 109.84C335.457 110.344 336.243 110.596 337.179 110.596C338.319 110.596 339.237 110.212 339.933 109.444L340.887 110.56C340.455 111.064 339.915 111.448 339.267 111.712C338.631 111.976 337.917 112.108 337.125 112.108C336.117 112.108 335.223 111.904 334.443 111.496C333.663 111.076 333.057 110.494 332.625 109.75C332.205 109.006 331.995 108.166 331.995 107.23C331.995 106.306 332.199 105.472 332.607 104.728C333.027 103.984 333.597 103.408 334.317 103C335.049 102.58 335.871 102.37 336.783 102.37C337.695 102.37 338.505 102.58 339.213 103C339.933 103.408 340.491 103.984 340.887 104.728C341.295 105.472 341.499 106.324 341.499 107.284ZM336.783 103.828C335.955 103.828 335.259 104.08 334.695 104.584C334.143 105.088 333.819 105.748 333.723 106.564H339.843C339.747 105.76 339.417 105.106 338.853 104.602C338.301 104.086 337.611 103.828 336.783 103.828ZM349.238 102.37C350.162 102.37 350.99 102.574 351.722 102.982C352.454 103.39 353.024 103.96 353.432 104.692C353.852 105.424 354.062 106.27 354.062 107.23C354.062 108.19 353.852 109.042 353.432 109.786C353.024 110.518 352.454 111.088 351.722 111.496C350.99 111.904 350.162 112.108 349.238 112.108C348.554 112.108 347.924 111.976 347.348 111.712C346.784 111.448 346.304 111.064 345.908 110.56V115.492H344.18V102.46H345.836V103.972C346.22 103.444 346.706 103.048 347.294 102.784C347.882 102.508 348.53 102.37 349.238 102.37ZM349.094 110.596C349.706 110.596 350.252 110.458 350.732 110.182C351.224 109.894 351.608 109.498 351.884 108.994C352.172 108.478 352.316 107.89 352.316 107.23C352.316 106.57 352.172 105.988 351.884 105.484C351.608 104.968 351.224 104.572 350.732 104.296C350.252 104.02 349.706 103.882 349.094 103.882C348.494 103.882 347.948 104.026 347.456 104.314C346.976 104.59 346.592 104.98 346.304 105.484C346.028 105.988 345.89 106.57 345.89 107.23C345.89 107.89 346.028 108.478 346.304 108.994C346.58 109.498 346.964 109.894 347.456 110.182C347.948 110.458 348.494 110.596 349.094 110.596ZM365.194 107.284C365.194 107.416 365.182 107.59 365.158 107.806H357.418C357.526 108.646 357.892 109.324 358.516 109.84C359.152 110.344 359.938 110.596 360.874 110.596C362.014 110.596 362.932 110.212 363.628 109.444L364.582 110.56C364.15 111.064 363.61 111.448 362.962 111.712C362.326 111.976 361.612 112.108 360.82 112.108C359.812 112.108 358.918 111.904 358.138 111.496C357.358 111.076 356.752 110.494 356.32 109.75C355.9 109.006 355.69 108.166 355.69 107.23C355.69 106.306 355.894 105.472 356.302 104.728C356.722 103.984 357.292 103.408 358.012 103C358.744 102.58 359.566 102.37 360.478 102.37C361.39 102.37 362.2 102.58 362.908 103C363.628 103.408 364.186 103.984 364.582 104.728C364.99 105.472 365.194 106.324 365.194 107.284ZM360.478 103.828C359.65 103.828 358.954 104.08 358.39 104.584C357.838 105.088 357.514 105.748 357.418 106.564H363.538C363.442 105.76 363.112 105.106 362.548 104.602C361.996 104.086 361.306 103.828 360.478 103.828ZM372.033 112.108C371.061 112.108 370.191 111.898 369.423 111.478C368.667 111.058 368.073 110.482 367.641 109.75C367.209 109.006 366.993 108.166 366.993 107.23C366.993 106.294 367.209 105.46 367.641 104.728C368.073 103.984 368.667 103.408 369.423 103C370.191 102.58 371.061 102.37 372.033 102.37C372.897 102.37 373.665 102.544 374.337 102.892C375.021 103.24 375.549 103.744 375.921 104.404L374.607 105.25C374.307 104.794 373.935 104.452 373.491 104.224C373.047 103.996 372.555 103.882 372.015 103.882C371.391 103.882 370.827 104.02 370.323 104.296C369.831 104.572 369.441 104.968 369.153 105.484C368.877 105.988 368.739 106.57 368.739 107.23C368.739 107.902 368.877 108.496 369.153 109.012C369.441 109.516 369.831 109.906 370.323 110.182C370.827 110.458 371.391 110.596 372.015 110.596C372.555 110.596 373.047 110.482 373.491 110.254C373.935 110.026 374.307 109.684 374.607 109.228L375.921 110.056C375.549 110.716 375.021 111.226 374.337 111.586C373.665 111.934 372.897 112.108 372.033 112.108ZM378.158 102.46H379.886V106.51H385.322V102.46H387.05V112H385.322V108.004H379.886V112H378.158V102.46ZM394.712 105.7C395.912 105.712 396.83 105.988 397.466 106.528C398.102 107.068 398.42 107.83 398.42 108.814C398.42 109.846 398.072 110.644 397.376 111.208C396.692 111.76 395.708 112.03 394.424 112.018L390.41 112V102.46H392.138V105.682L394.712 105.7ZM399.842 102.46H401.57V112H399.842V102.46ZM394.298 110.704C395.078 110.716 395.666 110.56 396.062 110.236C396.47 109.912 396.674 109.432 396.674 108.796C396.674 108.172 396.476 107.716 396.08 107.428C395.684 107.14 395.09 106.99 394.298 106.978L392.138 106.942V110.686L394.298 110.704ZM410.888 112L408.134 108.346L405.344 112H403.418L407.18 107.122L403.598 102.46H405.524L408.152 105.898L410.762 102.46H412.652L409.052 107.122L412.85 112H410.888ZM28.172 129.05C29.408 129.362 30.026 130.136 30.026 131.372C30.026 132.212 29.708 132.86 29.072 133.316C28.448 133.772 27.512 134 26.264 134H21.674V124.46H26.102C27.23 124.46 28.112 124.676 28.748 125.108C29.384 125.528 29.702 126.128 29.702 126.908C29.702 127.412 29.564 127.85 29.288 128.222C29.024 128.582 28.652 128.858 28.172 129.05ZM23.366 128.564H25.958C26.618 128.564 27.116 128.444 27.452 128.204C27.8 127.964 27.974 127.616 27.974 127.16C27.974 126.248 27.302 125.792 25.958 125.792H23.366V128.564ZM26.138 132.668C26.858 132.668 27.398 132.554 27.758 132.326C28.118 132.098 28.298 131.744 28.298 131.264C28.298 130.772 28.13 130.406 27.794 130.166C27.47 129.926 26.954 129.806 26.246 129.806H23.366V132.668H26.138ZM36.8166 134.108C35.8686 134.108 35.0166 133.898 34.2606 133.478C33.5046 133.058 32.9106 132.482 32.4786 131.75C32.0586 131.006 31.8486 130.166 31.8486 129.23C31.8486 128.294 32.0586 127.46 32.4786 126.728C32.9106 125.984 33.5046 125.408 34.2606 125C35.0166 124.58 35.8686 124.37 36.8166 124.37C37.7646 124.37 38.6106 124.58 39.3546 125C40.1106 125.408 40.6986 125.984 41.1186 126.728C41.5506 127.46 41.7666 128.294 41.7666 129.23C41.7666 130.166 41.5506 131.006 41.1186 131.75C40.6986 132.482 40.1106 133.058 39.3546 133.478C38.6106 133.898 37.7646 134.108 36.8166 134.108ZM36.8166 132.596C37.4286 132.596 37.9746 132.458 38.4546 132.182C38.9466 131.894 39.3306 131.498 39.6066 130.994C39.8826 130.478 40.0206 129.89 40.0206 129.23C40.0206 128.57 39.8826 127.988 39.6066 127.484C39.3306 126.968 38.9466 126.572 38.4546 126.296C37.9746 126.02 37.4286 125.882 36.8166 125.882C36.2046 125.882 35.6526 126.02 35.1606 126.296C34.6806 126.572 34.2966 126.968 34.0086 127.484C33.7326 127.988 33.5946 128.57 33.5946 129.23C33.5946 129.89 33.7326 130.478 34.0086 130.994C34.2966 131.498 34.6806 131.894 35.1606 132.182C35.6526 132.458 36.2046 132.596 36.8166 132.596ZM49.3224 129.032C49.9584 129.2 50.4504 129.47 50.7984 129.842C51.1464 130.214 51.3204 130.676 51.3204 131.228C51.3204 131.792 51.1284 132.296 50.7444 132.74C50.3604 133.172 49.8264 133.514 49.1424 133.766C48.4704 134.006 47.7144 134.126 46.8744 134.126C46.1664 134.126 45.4704 134.036 44.7864 133.856C44.1144 133.664 43.5144 133.394 42.9864 133.046L43.5084 131.732C43.9644 132.02 44.4864 132.248 45.0744 132.416C45.6624 132.572 46.2564 132.65 46.8564 132.65C47.6724 132.65 48.3204 132.512 48.8004 132.236C49.2924 131.948 49.5384 131.564 49.5384 131.084C49.5384 130.64 49.3404 130.298 48.9444 130.058C48.5604 129.818 48.0144 129.698 47.3064 129.698H45.5604V128.456H47.1804C47.8284 128.456 48.3384 128.342 48.7104 128.114C49.0824 127.886 49.2684 127.574 49.2684 127.178C49.2684 126.746 49.0464 126.41 48.6024 126.17C48.1704 125.93 47.5824 125.81 46.8384 125.81C45.8904 125.81 44.8884 126.056 43.8324 126.548L43.3644 125.216C44.5284 124.628 45.7464 124.334 47.0184 124.334C47.7864 124.334 48.4764 124.442 49.0884 124.658C49.7004 124.874 50.1804 125.18 50.5284 125.576C50.8764 125.972 51.0504 126.422 51.0504 126.926C51.0504 127.394 50.8944 127.814 50.5824 128.186C50.2704 128.558 49.8504 128.84 49.3224 129.032ZM64.9454 124.46V134H63.3794V127.034L59.8154 132.92H59.0594L55.5314 127.016V134H53.9474V124.46H55.7294L59.4734 130.904L63.3254 124.46H64.9454ZM72.3948 134.108C71.4468 134.108 70.5948 133.898 69.8388 133.478C69.0828 133.058 68.4888 132.482 68.0568 131.75C67.6368 131.006 67.4268 130.166 67.4268 129.23C67.4268 128.294 67.6368 127.46 68.0568 126.728C68.4888 125.984 69.0828 125.408 69.8388 125C70.5948 124.58 71.4468 124.37 72.3948 124.37C73.3428 124.37 74.1888 124.58 74.9328 125C75.6888 125.408 76.2768 125.984 76.6968 126.728C77.1288 127.46 77.3448 128.294 77.3448 129.23C77.3448 130.166 77.1288 131.006 76.6968 131.75C76.2768 132.482 75.6888 133.058 74.9328 133.478C74.1888 133.898 73.3428 134.108 72.3948 134.108ZM72.3948 132.596C73.0068 132.596 73.5528 132.458 74.0328 132.182C74.5248 131.894 74.9088 131.498 75.1848 130.994C75.4608 130.478 75.5988 129.89 75.5988 129.23C75.5988 128.57 75.4608 127.988 75.1848 127.484C74.9088 126.968 74.5248 126.572 74.0328 126.296C73.5528 126.02 73.0068 125.882 72.3948 125.882C71.7828 125.882 71.2308 126.02 70.7388 126.296C70.2588 126.572 69.8748 126.968 69.5868 127.484C69.3108 127.988 69.1728 128.57 69.1728 129.23C69.1728 129.89 69.3108 130.478 69.5868 130.994C69.8748 131.498 70.2588 131.894 70.7388 132.182C71.2308 132.458 71.7828 132.596 72.3948 132.596ZM88.1996 129.968H86.3456V134H84.6176V129.968H82.7636L80.1356 134H78.0836L81.3596 129.068L78.3356 124.46H80.1716L82.7456 128.492H84.6176V124.46H86.3456V128.492H88.2176L90.7916 124.46H92.6456L89.6216 129.086L92.8976 134H90.8456L88.1996 129.968ZM94.799 124.46H96.527V128.51H101.963V124.46H103.691V134H101.963V130.004H96.527V134H94.799V124.46ZM111.137 134.108C110.189 134.108 109.337 133.898 108.581 133.478C107.825 133.058 107.231 132.482 106.799 131.75C106.379 131.006 106.169 130.166 106.169 129.23C106.169 128.294 106.379 127.46 106.799 126.728C107.231 125.984 107.825 125.408 108.581 125C109.337 124.58 110.189 124.37 111.137 124.37C112.085 124.37 112.931 124.58 113.675 125C114.431 125.408 115.019 125.984 115.439 126.728C115.871 127.46 116.087 128.294 116.087 129.23C116.087 130.166 115.871 131.006 115.439 131.75C115.019 132.482 114.431 133.058 113.675 133.478C112.931 133.898 112.085 134.108 111.137 134.108ZM111.137 132.596C111.749 132.596 112.295 132.458 112.775 132.182C113.267 131.894 113.651 131.498 113.927 130.994C114.203 130.478 114.341 129.89 114.341 129.23C114.341 128.57 114.203 127.988 113.927 127.484C113.651 126.968 113.267 126.572 112.775 126.296C112.295 126.02 111.749 125.882 111.137 125.882C110.525 125.882 109.973 126.02 109.481 126.296C109.001 126.572 108.617 126.968 108.329 127.484C108.053 127.988 107.915 128.57 107.915 129.23C107.915 129.89 108.053 130.478 108.329 130.994C108.617 131.498 109.001 131.894 109.481 132.182C109.973 132.458 110.525 132.596 111.137 132.596ZM122.74 134.108C121.768 134.108 120.898 133.898 120.13 133.478C119.374 133.058 118.78 132.482 118.348 131.75C117.916 131.006 117.7 130.166 117.7 129.23C117.7 128.294 117.916 127.46 118.348 126.728C118.78 125.984 119.374 125.408 120.13 125C120.898 124.58 121.768 124.37 122.74 124.37C123.604 124.37 124.372 124.544 125.044 124.892C125.728 125.24 126.256 125.744 126.628 126.404L125.314 127.25C125.014 126.794 124.642 126.452 124.198 126.224C123.754 125.996 123.262 125.882 122.722 125.882C122.098 125.882 121.534 126.02 121.03 126.296C120.538 126.572 120.148 126.968 119.86 127.484C119.584 127.988 119.446 128.57 119.446 129.23C119.446 129.902 119.584 130.496 119.86 131.012C120.148 131.516 120.538 131.906 121.03 132.182C121.534 132.458 122.098 132.596 122.722 132.596C123.262 132.596 123.754 132.482 124.198 132.254C124.642 132.026 125.014 131.684 125.314 131.228L126.628 132.056C126.256 132.716 125.728 133.226 125.044 133.586C124.372 133.934 123.604 134.108 122.74 134.108ZM135.852 125.972H132.36V134H130.632V125.972H127.14V124.46H135.852V125.972ZM145.819 129.284C145.819 129.416 145.807 129.59 145.783 129.806H138.043C138.151 130.646 138.517 131.324 139.141 131.84C139.777 132.344 140.563 132.596 141.499 132.596C142.639 132.596 143.557 132.212 144.253 131.444L145.207 132.56C144.775 133.064 144.235 133.448 143.587 133.712C142.951 133.976 142.237 134.108 141.445 134.108C140.437 134.108 139.543 133.904 138.763 133.496C137.983 133.076 137.377 132.494 136.945 131.75C136.525 131.006 136.315 130.166 136.315 129.23C136.315 128.306 136.519 127.472 136.927 126.728C137.347 125.984 137.917 125.408 138.637 125C139.369 124.58 140.191 124.37 141.103 124.37C142.015 124.37 142.825 124.58 143.533 125C144.253 125.408 144.811 125.984 145.207 126.728C145.615 127.472 145.819 128.324 145.819 129.284ZM141.103 125.828C140.275 125.828 139.579 126.08 139.015 126.584C138.463 127.088 138.139 127.748 138.043 128.564H144.163C144.067 127.76 143.737 127.106 143.173 126.602C142.621 126.086 141.931 125.828 141.103 125.828ZM148.5 124.46H150.228V131.408L156.078 124.46H157.644V134H155.916V127.052L150.084 134H148.5V124.46ZM152.964 123.218C152.076 123.218 151.386 123.008 150.894 122.588C150.402 122.156 150.15 121.538 150.138 120.734H151.308C151.32 121.178 151.47 121.538 151.758 121.814C152.058 122.078 152.454 122.21 152.946 122.21C153.438 122.21 153.834 122.078 154.134 121.814C154.434 121.538 154.59 121.178 154.602 120.734H155.808C155.796 121.538 155.538 122.156 155.034 122.588C154.53 123.008 153.84 123.218 152.964 123.218ZM175.534 132.488V136.214H173.914V134H165.94V136.214H164.302V132.488H164.806C165.418 132.452 165.838 132.02 166.066 131.192C166.294 130.364 166.45 129.194 166.534 127.682L166.678 124.46H174.076V132.488H175.534ZM168.118 127.808C168.07 129.008 167.968 130.004 167.812 130.796C167.668 131.576 167.398 132.14 167.002 132.488H172.348V125.972H168.208L168.118 127.808ZM185.975 124.46V134H184.247V125.972H180.143L180.035 128.096C179.975 129.38 179.861 130.454 179.693 131.318C179.525 132.17 179.249 132.854 178.865 133.37C178.481 133.886 177.947 134.144 177.263 134.144C176.951 134.144 176.597 134.09 176.201 133.982L176.309 132.524C176.465 132.56 176.609 132.578 176.741 132.578C177.221 132.578 177.581 132.368 177.821 131.948C178.061 131.528 178.217 131.03 178.289 130.454C178.361 129.878 178.427 129.056 178.487 127.988L178.649 124.46H185.975ZM196.967 124.46V134H195.419V130.976H192.647H192.449L190.361 134H188.507L190.829 130.742C190.109 130.526 189.557 130.172 189.173 129.68C188.789 129.176 188.597 128.552 188.597 127.808C188.597 126.716 188.969 125.888 189.713 125.324C190.457 124.748 191.483 124.46 192.791 124.46H196.967ZM190.361 127.862C190.361 128.498 190.559 128.972 190.955 129.284C191.363 129.584 191.969 129.734 192.773 129.734H195.419V125.972H192.845C191.189 125.972 190.361 126.602 190.361 127.862ZM205.172 124.46H206.9V131.408L212.75 124.46H214.316V134H212.588V127.052L206.756 134H205.172V124.46ZM217.67 124.46H219.398V128.51H224.834V124.46H226.562V134H224.834V130.004H219.398V134H217.67V124.46ZM236.42 129.05C237.656 129.362 238.274 130.136 238.274 131.372C238.274 132.212 237.956 132.86 237.32 133.316C236.696 133.772 235.76 134 234.512 134H229.922V124.46H234.35C235.478 124.46 236.36 124.676 236.996 125.108C237.632 125.528 237.95 126.128 237.95 126.908C237.95 127.412 237.812 127.85 237.536 128.222C237.272 128.582 236.9 128.858 236.42 129.05ZM231.614 128.564H234.206C234.866 128.564 235.364 128.444 235.7 128.204C236.048 127.964 236.222 127.616 236.222 127.16C236.222 126.248 235.55 125.792 234.206 125.792H231.614V128.564ZM234.386 132.668C235.106 132.668 235.646 132.554 236.006 132.326C236.366 132.098 236.546 131.744 236.546 131.264C236.546 130.772 236.378 130.406 236.042 130.166C235.718 129.926 235.202 129.806 234.494 129.806H231.614V132.668H234.386ZM249.601 129.284C249.601 129.416 249.589 129.59 249.565 129.806H241.825C241.933 130.646 242.299 131.324 242.923 131.84C243.559 132.344 244.345 132.596 245.281 132.596C246.421 132.596 247.339 132.212 248.035 131.444L248.989 132.56C248.557 133.064 248.017 133.448 247.369 133.712C246.733 133.976 246.019 134.108 245.227 134.108C244.219 134.108 243.325 133.904 242.545 133.496C241.765 133.076 241.159 132.494 240.727 131.75C240.307 131.006 240.097 130.166 240.097 129.23C240.097 128.306 240.301 127.472 240.709 126.728C241.129 125.984 241.699 125.408 242.419 125C243.151 124.58 243.973 124.37 244.885 124.37C245.797 124.37 246.607 124.58 247.315 125C248.035 125.408 248.593 125.984 248.989 126.728C249.397 127.472 249.601 128.324 249.601 129.284ZM244.885 125.828C244.057 125.828 243.361 126.08 242.797 126.584C242.245 127.088 241.921 127.748 241.825 128.564H247.945C247.849 127.76 247.519 127.106 246.955 126.602C246.403 126.086 245.713 125.828 244.885 125.828ZM256.439 134.108C255.467 134.108 254.597 133.898 253.829 133.478C253.073 133.058 252.479 132.482 252.047 131.75C251.615 131.006 251.399 130.166 251.399 129.23C251.399 128.294 251.615 127.46 252.047 126.728C252.479 125.984 253.073 125.408 253.829 125C254.597 124.58 255.467 124.37 256.439 124.37C257.303 124.37 258.071 124.544 258.743 124.892C259.427 125.24 259.955 125.744 260.327 126.404L259.013 127.25C258.713 126.794 258.341 126.452 257.897 126.224C257.453 125.996 256.961 125.882 256.421 125.882C255.797 125.882 255.233 126.02 254.729 126.296C254.237 126.572 253.847 126.968 253.559 127.484C253.283 127.988 253.145 128.57 253.145 129.23C253.145 129.902 253.283 130.496 253.559 131.012C253.847 131.516 254.237 131.906 254.729 132.182C255.233 132.458 255.797 132.596 256.421 132.596C256.961 132.596 257.453 132.482 257.897 132.254C258.341 132.026 258.713 131.684 259.013 131.228L260.327 132.056C259.955 132.716 259.427 133.226 258.743 133.586C258.071 133.934 257.303 134.108 256.439 134.108ZM269.552 125.972H266.06V134H264.332V125.972H260.84V124.46H269.552V125.972ZM274.983 134.108C274.035 134.108 273.183 133.898 272.427 133.478C271.671 133.058 271.077 132.482 270.645 131.75C270.225 131.006 270.015 130.166 270.015 129.23C270.015 128.294 270.225 127.46 270.645 126.728C271.077 125.984 271.671 125.408 272.427 125C273.183 124.58 274.035 124.37 274.983 124.37C275.931 124.37 276.777 124.58 277.521 125C278.277 125.408 278.865 125.984 279.285 126.728C279.717 127.46 279.933 128.294 279.933 129.23C279.933 130.166 279.717 131.006 279.285 131.75C278.865 132.482 278.277 133.058 277.521 133.478C276.777 133.898 275.931 134.108 274.983 134.108ZM274.983 132.596C275.595 132.596 276.141 132.458 276.621 132.182C277.113 131.894 277.497 131.498 277.773 130.994C278.049 130.478 278.187 129.89 278.187 129.23C278.187 128.57 278.049 127.988 277.773 127.484C277.497 126.968 277.113 126.572 276.621 126.296C276.141 126.02 275.595 125.882 274.983 125.882C274.371 125.882 273.819 126.02 273.327 126.296C272.847 126.572 272.463 126.968 272.175 127.484C271.899 127.988 271.761 128.57 271.761 129.23C271.761 129.89 271.899 130.478 272.175 130.994C272.463 131.498 272.847 131.894 273.327 132.182C273.819 132.458 274.371 132.596 274.983 132.596ZM287.486 124.37C288.41 124.37 289.238 124.574 289.97 124.982C290.702 125.39 291.272 125.96 291.68 126.692C292.1 127.424 292.31 128.27 292.31 129.23C292.31 130.19 292.1 131.042 291.68 131.786C291.272 132.518 290.702 133.088 289.97 133.496C289.238 133.904 288.41 134.108 287.486 134.108C286.802 134.108 286.172 133.976 285.596 133.712C285.032 133.448 284.552 133.064 284.156 132.56V137.492H282.428V124.46H284.084V125.972C284.468 125.444 284.954 125.048 285.542 124.784C286.13 124.508 286.778 124.37 287.486 124.37ZM287.342 132.596C287.954 132.596 288.5 132.458 288.98 132.182C289.472 131.894 289.856 131.498 290.132 130.994C290.42 130.478 290.564 129.89 290.564 129.23C290.564 128.57 290.42 127.988 290.132 127.484C289.856 126.968 289.472 126.572 288.98 126.296C288.5 126.02 287.954 125.882 287.342 125.882C286.742 125.882 286.196 126.026 285.704 126.314C285.224 126.59 284.84 126.98 284.552 127.484C284.276 127.988 284.138 128.57 284.138 129.23C284.138 129.89 284.276 130.478 284.552 130.994C284.828 131.498 285.212 131.894 285.704 132.182C286.196 132.458 286.742 132.596 287.342 132.596ZM298.906 134.108C297.958 134.108 297.106 133.898 296.35 133.478C295.594 133.058 295 132.482 294.568 131.75C294.148 131.006 293.938 130.166 293.938 129.23C293.938 128.294 294.148 127.46 294.568 126.728C295 125.984 295.594 125.408 296.35 125C297.106 124.58 297.958 124.37 298.906 124.37C299.854 124.37 300.7 124.58 301.444 125C302.2 125.408 302.788 125.984 303.208 126.728C303.64 127.46 303.856 128.294 303.856 129.23C303.856 130.166 303.64 131.006 303.208 131.75C302.788 132.482 302.2 133.058 301.444 133.478C300.7 133.898 299.854 134.108 298.906 134.108ZM298.906 132.596C299.518 132.596 300.064 132.458 300.544 132.182C301.036 131.894 301.42 131.498 301.696 130.994C301.972 130.478 302.11 129.89 302.11 129.23C302.11 128.57 301.972 127.988 301.696 127.484C301.42 126.968 301.036 126.572 300.544 126.296C300.064 126.02 299.518 125.882 298.906 125.882C298.294 125.882 297.742 126.02 297.25 126.296C296.77 126.572 296.386 126.968 296.098 127.484C295.822 127.988 295.684 128.57 295.684 129.23C295.684 129.89 295.822 130.478 296.098 130.994C296.386 131.498 296.77 131.894 297.25 132.182C297.742 132.458 298.294 132.596 298.906 132.596ZM312.85 129.05C314.086 129.362 314.704 130.136 314.704 131.372C314.704 132.212 314.386 132.86 313.75 133.316C313.126 133.772 312.19 134 310.942 134H306.352V124.46H310.78C311.908 124.46 312.79 124.676 313.426 125.108C314.062 125.528 314.38 126.128 314.38 126.908C314.38 127.412 314.242 127.85 313.966 128.222C313.702 128.582 313.33 128.858 312.85 129.05ZM308.044 128.564H310.636C311.296 128.564 311.794 128.444 312.13 128.204C312.478 127.964 312.652 127.616 312.652 127.16C312.652 126.248 311.98 125.792 310.636 125.792H308.044V128.564ZM310.816 132.668C311.536 132.668 312.076 132.554 312.436 132.326C312.796 132.098 312.976 131.744 312.976 131.264C312.976 130.772 312.808 130.406 312.472 130.166C312.148 129.926 311.632 129.806 310.924 129.806H308.044V132.668H310.816Z" fill="#333E63"/>
<defs>
<filter id="filter0_d_1111_2754" x="0" y="56" width="490" height="109" filterUnits="userSpaceOnUse" color-interpolation-filters="sRGB">
<feFlood flood-opacity="0" result="BackgroundImageFix"/>
<feColorMatrix in="SourceAlpha" type="matrix" values="0 0 0 0 0 0 0 0 0 0 0 0 0 0 0 0 0 0 127 0" result="hardAlpha"/>
<feOffset dx="5" dy="5"/>
<feComposite in2="hardAlpha" operator="out"/>
<feColorMatrix type="matrix" values="0 0 0 0 0.2 0 0 0 0 0.243137 0 0 0 0 0.388235 0 0 0 1 0"/>
<feBlend mode="normal" in2="BackgroundImageFix" result="effect1_dropShadow_1111_2754"/>
<feBlend mode="normal" in="SourceGraphic" in2="effect1_dropShadow_1111_2754" result="shape"/>
</filter>
<clipPath id="clip0_1111_2754">
<rect width="261" height="543" fill="white" transform="translate(463)"/>
</clipPath>
</defs>
</svg>
