<svg width="22" height="486" viewBox="0 0 22 486" fill="none" xmlns="http://www.w3.org/2000/svg">
<path d="M21 0C21.5523 0 22 0.447715 22 1C22 1.55228 21.5523 2 21 2V0ZM20.7071 477.293C21.0976 477.683 21.0976 478.317 20.7071 478.707L14.3431 485.071C13.9526 485.462 13.3195 485.462 12.9289 485.071C12.5384 484.681 12.5384 484.047 12.9289 483.657L18.5858 478L12.9289 472.343C12.5384 471.953 12.5384 471.319 12.9289 470.929C13.3195 470.538 13.9526 470.538 14.3431 470.929L20.7071 477.293ZM20.375 2C19.8227 2 19.375 1.55228 19.375 1C19.375 0.447715 19.8227 0 20.375 0V2ZM11.625 0C12.1773 0 12.625 0.447715 12.625 1C12.625 1.55228 12.1773 2 11.625 2V0ZM10.5574 2.01067C10.0058 2.03734 9.53695 1.61176 9.51028 1.06012C9.48362 0.508478 9.90919 0.0396686 10.4608 0.0130038L10.5574 2.01067ZM3.61263 2.84964C4.02173 2.47863 4.65414 2.50951 5.02516 2.91861C5.39617 3.32772 5.36529 3.96013 4.95618 4.33115L3.61263 2.84964ZM4.33114 4.95618C3.96013 5.36529 3.32772 5.39617 2.91861 5.02516C2.50951 4.65415 2.47862 4.02174 2.84964 3.61263L4.33114 4.95618ZM0.0130024 10.4608C0.0396671 9.9092 0.508476 9.48362 1.06012 9.51028C1.61176 9.53695 2.03733 10.0058 2.01067 10.5574L0.0130024 10.4608ZM2 11.5011C2 12.0534 1.55228 12.5011 0.999998 12.5011C0.447714 12.5011 -1.90735e-06 12.0534 -1.90735e-06 11.5011H2ZM-1.90735e-06 18.5164C-1.90735e-06 17.9642 0.447714 17.5164 0.999998 17.5164C1.55228 17.5164 2 17.9642 2 18.5164H-1.90735e-06ZM2 19.5186C2 20.0709 1.55228 20.5186 0.999998 20.5186C0.447714 20.5186 -1.90735e-06 20.0709 -1.90735e-06 19.5186H2ZM-1.90735e-06 26.534C-1.90735e-06 25.9817 0.447714 25.534 0.999998 25.534C1.55228 25.534 2 25.9817 2 26.534H-1.90735e-06ZM2 27.5362C2 28.0885 1.55228 28.5362 0.999998 28.5362C0.447714 28.5362 -1.90735e-06 28.0885 -1.90735e-06 27.5362H2ZM-1.90735e-06 34.5515C-1.90735e-06 33.9992 0.447714 33.5515 0.999998 33.5515C1.55228 33.5515 2 33.9992 2 34.5515H-1.90735e-06ZM2 35.5537C2 36.106 1.55228 36.5537 0.999998 36.5537C0.447714 36.5537 -1.90735e-06 36.106 -1.90735e-06 35.5537H2ZM-1.90735e-06 42.5691C-1.90735e-06 42.0168 0.447714 41.5691 0.999998 41.5691C1.55228 41.5691 2 42.0168 2 42.5691H-1.90735e-06ZM2 43.5713C2 44.1236 1.55228 44.5713 0.999998 44.5713C0.447714 44.5713 -1.90735e-06 44.1236 -1.90735e-06 43.5713H2ZM-1.90735e-06 50.5866C-1.90735e-06 50.0343 0.447714 49.5866 0.999998 49.5866C1.55228 49.5866 2 50.0343 2 50.5866H-1.90735e-06ZM2 51.5888C2 52.1411 1.55228 52.5888 0.999998 52.5888C0.447714 52.5888 -1.90735e-06 52.1411 -1.90735e-06 51.5888H2ZM-1.90735e-06 58.6042C-1.90735e-06 58.0519 0.447714 57.6042 0.999998 57.6042C1.55228 57.6042 2 58.0519 2 58.6042H-1.90735e-06ZM2 59.6064C2 60.1586 1.55228 60.6064 0.999998 60.6064C0.447714 60.6064 -1.90735e-06 60.1586 -1.90735e-06 59.6064H2ZM-1.90735e-06 66.6217C-1.90735e-06 66.0694 0.447714 65.6217 0.999998 65.6217C1.55228 65.6217 2 66.0694 2 66.6217H-1.90735e-06ZM2 67.6239C2 68.1762 1.55228 68.6239 0.999998 68.6239C0.447714 68.6239 -1.90735e-06 68.1762 -1.90735e-06 67.6239H2ZM-1.90735e-06 74.6393C-1.90735e-06 74.087 0.447714 73.6393 0.999998 73.6393C1.55228 73.6393 2 74.087 2 74.6393H-1.90735e-06ZM2 75.6414C2 76.1937 1.55228 76.6414 0.999998 76.6414C0.447714 76.6414 -1.90735e-06 76.1937 -1.90735e-06 75.6414H2ZM-1.90735e-06 82.6568C-1.90735e-06 82.1045 0.447714 81.6568 0.999998 81.6568C1.55228 81.6568 2 82.1045 2 82.6568H-1.90735e-06ZM2 83.659C2 84.2113 1.55228 84.659 0.999998 84.659C0.447714 84.659 -1.90735e-06 84.2113 -1.90735e-06 83.659H2ZM-1.90735e-06 90.6743C-1.90735e-06 90.122 0.447714 89.6743 0.999998 89.6743C1.55228 89.6743 2 90.122 2 90.6743H-1.90735e-06ZM2 91.6765C2 92.2288 1.55228 92.6765 0.999998 92.6765C0.447714 92.6765 -1.90735e-06 92.2288 -1.90735e-06 91.6765H2ZM-1.90735e-06 98.6919C-1.90735e-06 98.1396 0.447714 97.6919 0.999998 97.6919C1.55228 97.6919 2 98.1396 2 98.6919H-1.90735e-06ZM2 99.6941C2 100.246 1.55228 100.694 0.999998 100.694C0.447714 100.694 -1.90735e-06 100.246 -1.90735e-06 99.6941H2ZM-1.90735e-06 106.709C-1.90735e-06 106.157 0.447714 105.709 0.999998 105.709C1.55228 105.709 2 106.157 2 106.709H-1.90735e-06ZM2 107.712C2 108.264 1.55228 108.712 0.999998 108.712C0.447714 108.712 -1.90735e-06 108.264 -1.90735e-06 107.712H2ZM-1.90735e-06 114.727C-1.90735e-06 114.175 0.447714 113.727 0.999998 113.727C1.55228 113.727 2 114.175 2 114.727H-1.90735e-06ZM2 115.729C2 116.281 1.55228 116.729 0.999998 116.729C0.447714 116.729 -1.90735e-06 116.281 -1.90735e-06 115.729H2ZM-1.90735e-06 122.744C-1.90735e-06 122.192 0.447714 121.744 0.999998 121.744C1.55228 121.744 2 122.192 2 122.744H-1.90735e-06ZM2 123.747C2 124.299 1.55228 124.747 0.999998 124.747C0.447714 124.747 -1.90735e-06 124.299 -1.90735e-06 123.747H2ZM-1.90735e-06 130.762C-1.90735e-06 130.21 0.447714 129.762 0.999998 129.762C1.55228 129.762 2 130.21 2 130.762H-1.90735e-06ZM2 131.764C2 132.316 1.55228 132.764 0.999998 132.764C0.447714 132.764 -1.90735e-06 132.316 -1.90735e-06 131.764H2ZM-1.90735e-06 138.78C-1.90735e-06 138.227 0.447714 137.78 0.999998 137.78C1.55228 137.78 2 138.227 2 138.78H-1.90735e-06ZM2 139.782C2 140.334 1.55228 140.782 0.999998 140.782C0.447714 140.782 -1.90735e-06 140.334 -1.90735e-06 139.782H2ZM-1.90735e-06 146.797C-1.90735e-06 146.245 0.447714 145.797 0.999998 145.797C1.55228 145.797 2 146.245 2 146.797H-1.90735e-06ZM2 147.799C2 148.352 1.55228 148.799 0.999998 148.799C0.447714 148.799 -1.90735e-06 148.352 -1.90735e-06 147.799H2ZM-1.90735e-06 154.815C-1.90735e-06 154.262 0.447714 153.815 0.999998 153.815C1.55228 153.815 2 154.262 2 154.815H-1.90735e-06ZM2 155.817C2 156.369 1.55228 156.817 0.999998 156.817C0.447714 156.817 -1.90735e-06 156.369 -1.90735e-06 155.817H2ZM-1.90735e-06 162.832C-1.90735e-06 162.28 0.447714 161.832 0.999998 161.832C1.55228 161.832 2 162.28 2 162.832H-1.90735e-06ZM2 163.834C2 164.387 1.55228 164.834 0.999998 164.834C0.447714 164.834 -1.90735e-06 164.387 -1.90735e-06 163.834H2ZM-1.90735e-06 170.85C-1.90735e-06 170.297 0.447714 169.85 0.999998 169.85C1.55228 169.85 2 170.297 2 170.85H-1.90735e-06ZM2 171.852C2 172.404 1.55228 172.852 0.999998 172.852C0.447714 172.852 -1.90735e-06 172.404 -1.90735e-06 171.852H2ZM-1.90735e-06 178.867C-1.90735e-06 178.315 0.447714 177.867 0.999998 177.867C1.55228 177.867 2 178.315 2 178.867H-1.90735e-06ZM2 179.87C2 180.422 1.55228 180.87 0.999998 180.87C0.447714 180.87 -1.90735e-06 180.422 -1.90735e-06 179.87H2ZM-1.90735e-06 186.885C-1.90735e-06 186.333 0.447714 185.885 0.999998 185.885C1.55228 185.885 2 186.333 2 186.885H-1.90735e-06ZM2 187.887C2 188.439 1.55228 188.887 0.999998 188.887C0.447714 188.887 -1.90735e-06 188.439 -1.90735e-06 187.887H2ZM-1.90735e-06 194.902C-1.90735e-06 194.35 0.447714 193.902 0.999998 193.902C1.55228 193.902 2 194.35 2 194.902H-1.90735e-06ZM2 195.905C2 196.457 1.55228 196.905 0.999998 196.905C0.447714 196.905 -1.90735e-06 196.457 -1.90735e-06 195.905H2ZM-1.90735e-06 202.92C-1.90735e-06 202.368 0.447714 201.92 0.999998 201.92C1.55228 201.92 2 202.368 2 202.92H-1.90735e-06ZM2 203.922C2 204.474 1.55228 204.922 0.999998 204.922C0.447714 204.922 -1.90735e-06 204.474 -1.90735e-06 203.922H2ZM-1.90735e-06 210.938C-1.90735e-06 210.385 0.447714 209.938 0.999998 209.938C1.55228 209.938 2 210.385 2 210.938H-1.90735e-06ZM2 211.94C2 212.492 1.55228 212.94 0.999998 212.94C0.447714 212.94 -1.90735e-06 212.492 -1.90735e-06 211.94H2ZM-1.90735e-06 218.955C-1.90735e-06 218.403 0.447714 217.955 0.999998 217.955C1.55228 217.955 2 218.403 2 218.955H-1.90735e-06ZM2 219.957C2 220.51 1.55228 220.957 0.999998 220.957C0.447714 220.957 -1.90735e-06 220.51 -1.90735e-06 219.957H2ZM-1.90735e-06 226.973C-1.90735e-06 226.42 0.447714 225.973 0.999998 225.973C1.55228 225.973 2 226.42 2 226.973H-1.90735e-06ZM2 227.975C2 228.527 1.55228 228.975 0.999998 228.975C0.447714 228.975 -1.90735e-06 228.527 -1.90735e-06 227.975H2ZM-1.90735e-06 234.99C-1.90735e-06 234.438 0.447714 233.99 0.999998 233.99C1.55228 233.99 2 234.438 2 234.99H-1.90735e-06ZM2 235.992C2 236.545 1.55228 236.992 0.999998 236.992C0.447714 236.992 -1.90735e-06 236.545 -1.90735e-06 235.992H2ZM-1.90735e-06 243.008C-1.90735e-06 242.455 0.447714 242.008 0.999998 242.008C1.55228 242.008 2 242.455 2 243.008H-1.90735e-06ZM2 244.01C2 244.562 1.55228 245.01 0.999998 245.01C0.447714 245.01 -1.90735e-06 244.562 -1.90735e-06 244.01H2ZM-1.90735e-06 251.025C-1.90735e-06 250.473 0.447714 250.025 0.999998 250.025C1.55228 250.025 2 250.473 2 251.025H-1.90735e-06ZM2 252.027C2 252.58 1.55228 253.027 0.999998 253.027C0.447714 253.027 -1.90735e-06 252.58 -1.90735e-06 252.027H2ZM-1.90735e-06 259.043C-1.90735e-06 258.491 0.447714 258.043 0.999998 258.043C1.55228 258.043 2 258.491 2 259.043H-1.90735e-06ZM2 260.045C2 260.597 1.55228 261.045 0.999998 261.045C0.447714 261.045 -1.90735e-06 260.597 -1.90735e-06 260.045H2ZM-1.90735e-06 267.06C-1.90735e-06 266.508 0.447714 266.06 0.999998 266.06C1.55228 266.06 2 266.508 2 267.06H-1.90735e-06ZM2 268.063C2 268.615 1.55228 269.063 0.999998 269.063C0.447714 269.063 -1.90735e-06 268.615 -1.90735e-06 268.063H2ZM-1.90735e-06 275.078C-1.90735e-06 274.526 0.447714 274.078 0.999998 274.078C1.55228 274.078 2 274.526 2 275.078H-1.90735e-06ZM2 276.08C2 276.632 1.55228 277.08 0.999998 277.08C0.447714 277.08 -1.90735e-06 276.632 -1.90735e-06 276.08H2ZM-1.90735e-06 283.095C-1.90735e-06 282.543 0.447714 282.095 0.999998 282.095C1.55228 282.095 2 282.543 2 283.095H-1.90735e-06ZM2 284.098C2 284.65 1.55228 285.098 0.999998 285.098C0.447714 285.098 -1.90735e-06 284.65 -1.90735e-06 284.098H2ZM-1.90735e-06 291.113C-1.90735e-06 290.561 0.447714 290.113 0.999998 290.113C1.55228 290.113 2 290.561 2 291.113H-1.90735e-06ZM2 292.115C2 292.667 1.55228 293.115 0.999998 293.115C0.447714 293.115 -1.90735e-06 292.667 -1.90735e-06 292.115H2ZM-1.90735e-06 299.131C-1.90735e-06 298.578 0.447714 298.131 0.999998 298.131C1.55228 298.131 2 298.578 2 299.131H-1.90735e-06ZM2 300.133C2 300.685 1.55228 301.133 0.999998 301.133C0.447714 301.133 -1.90735e-06 300.685 -1.90735e-06 300.133H2ZM-1.90735e-06 307.148C-1.90735e-06 306.596 0.447714 306.148 0.999998 306.148C1.55228 306.148 2 306.596 2 307.148H-1.90735e-06ZM2 308.15C2 308.703 1.55228 309.15 0.999998 309.15C0.447714 309.15 -1.90735e-06 308.703 -1.90735e-06 308.15H2ZM-1.90735e-06 315.166C-1.90735e-06 314.613 0.447714 314.166 0.999998 314.166C1.55228 314.166 2 314.613 2 315.166H-1.90735e-06ZM2 316.168C2 316.72 1.55228 317.168 0.999998 317.168C0.447714 317.168 -1.90735e-06 316.72 -1.90735e-06 316.168H2ZM-1.90735e-06 323.183C-1.90735e-06 322.631 0.447714 322.183 0.999998 322.183C1.55228 322.183 2 322.631 2 323.183H-1.90735e-06ZM2 324.185C2 324.738 1.55228 325.185 0.999998 325.185C0.447714 325.185 -1.90735e-06 324.738 -1.90735e-06 324.185H2ZM-1.90735e-06 331.201C-1.90735e-06 330.648 0.447714 330.201 0.999998 330.201C1.55228 330.201 2 330.648 2 331.201H-1.90735e-06ZM2 332.203C2 332.755 1.55228 333.203 0.999998 333.203C0.447714 333.203 -1.90735e-06 332.755 -1.90735e-06 332.203H2ZM-1.90735e-06 339.218C-1.90735e-06 338.666 0.447714 338.218 0.999998 338.218C1.55228 338.218 2 338.666 2 339.218H-1.90735e-06ZM2 340.22C2 340.773 1.55228 341.22 0.999998 341.22C0.447714 341.22 -1.90735e-06 340.773 -1.90735e-06 340.22H2ZM-1.90735e-06 347.236C-1.90735e-06 346.684 0.447714 346.236 0.999998 346.236C1.55228 346.236 2 346.684 2 347.236H-1.90735e-06ZM2 348.238C2 348.79 1.55228 349.238 0.999998 349.238C0.447714 349.238 -1.90735e-06 348.79 -1.90735e-06 348.238H2ZM-1.90735e-06 355.253C-1.90735e-06 354.701 0.447714 354.253 0.999998 354.253C1.55228 354.253 2 354.701 2 355.253H-1.90735e-06ZM2 356.256C2 356.808 1.55228 357.256 0.999998 357.256C0.447714 357.256 -1.90735e-06 356.808 -1.90735e-06 356.256H2ZM-1.90735e-06 363.271C-1.90735e-06 362.719 0.447714 362.271 0.999998 362.271C1.55228 362.271 2 362.719 2 363.271H-1.90735e-06ZM2 364.273C2 364.825 1.55228 365.273 0.999998 365.273C0.447714 365.273 -1.90735e-06 364.825 -1.90735e-06 364.273H2ZM-1.90735e-06 371.288C-1.90735e-06 370.736 0.447714 370.288 0.999998 370.288C1.55228 370.288 2 370.736 2 371.288H-1.90735e-06ZM2 372.291C2 372.843 1.55228 373.291 0.999998 373.291C0.447714 373.291 -1.90735e-06 372.843 -1.90735e-06 372.291H2ZM-1.90735e-06 379.306C-1.90735e-06 378.754 0.447714 378.306 0.999998 378.306C1.55228 378.306 2 378.754 2 379.306H-1.90735e-06ZM2 380.308C2 380.86 1.55228 381.308 0.999998 381.308C0.447714 381.308 -1.90735e-06 380.86 -1.90735e-06 380.308H2ZM-1.90735e-06 387.324C-1.90735e-06 386.771 0.447714 386.324 0.999998 386.324C1.55228 386.324 2 386.771 2 387.324H-1.90735e-06ZM2 388.326C2 388.878 1.55228 389.326 0.999998 389.326C0.447714 389.326 -1.90735e-06 388.878 -1.90735e-06 388.326H2ZM-1.90735e-06 395.341C-1.90735e-06 394.789 0.447714 394.341 0.999998 394.341C1.55228 394.341 2 394.789 2 395.341H-1.90735e-06ZM2 396.343C2 396.896 1.55228 397.343 0.999998 397.343C0.447714 397.343 -1.90735e-06 396.896 -1.90735e-06 396.343H2ZM-1.90735e-06 403.359C-1.90735e-06 402.806 0.447714 402.359 0.999998 402.359C1.55228 402.359 2 402.806 2 403.359H-1.90735e-06ZM2 404.361C2 404.913 1.55228 405.361 0.999998 405.361C0.447714 405.361 -1.90735e-06 404.913 -1.90735e-06 404.361H2ZM-1.90735e-06 411.376C-1.90735e-06 410.824 0.447714 410.376 0.999998 410.376C1.55228 410.376 2 410.824 2 411.376H-1.90735e-06ZM2 412.378C2 412.931 1.55228 413.378 0.999998 413.378C0.447714 413.378 -1.90735e-06 412.931 -1.90735e-06 412.378H2ZM-1.90735e-06 419.394C-1.90735e-06 418.841 0.447714 418.394 0.999998 418.394C1.55228 418.394 2 418.841 2 419.394H-1.90735e-06ZM2 420.396C2 420.948 1.55228 421.396 0.999998 421.396C0.447714 421.396 -1.90735e-06 420.948 -1.90735e-06 420.396H2ZM-1.90735e-06 427.411C-1.90735e-06 426.859 0.447714 426.411 0.999998 426.411C1.55228 426.411 2 426.859 2 427.411H-1.90735e-06ZM2 428.413C2 428.966 1.55228 429.413 0.999998 429.413C0.447714 429.413 -1.90735e-06 428.966 -1.90735e-06 428.413H2ZM-1.90735e-06 435.429C-1.90735e-06 434.877 0.447714 434.429 0.999998 434.429C1.55228 434.429 2 434.877 2 435.429H-1.90735e-06ZM2 436.431C2 436.983 1.55228 437.431 0.999998 437.431C0.447714 437.431 -1.90735e-06 436.983 -1.90735e-06 436.431H2ZM-1.90735e-06 443.446C-1.90735e-06 442.894 0.447714 442.446 0.999998 442.446C1.55228 442.446 2 442.894 2 443.446H-1.90735e-06ZM2 444.449C2 445.001 1.55228 445.449 0.999998 445.449C0.447714 445.449 -1.90735e-06 445.001 -1.90735e-06 444.449H2ZM-1.90735e-06 451.464C-1.90735e-06 450.912 0.447714 450.464 0.999998 450.464C1.55228 450.464 2 450.912 2 451.464H-1.90735e-06ZM2 452.466C2 453.018 1.55228 453.466 0.999998 453.466C0.447714 453.466 -1.90735e-06 453.018 -1.90735e-06 452.466H2ZM-1.90735e-06 459.481C-1.90735e-06 458.929 0.447714 458.481 0.999998 458.481C1.55228 458.481 2 458.929 2 459.481H-1.90735e-06ZM2 460.484C2 461.036 1.55228 461.484 0.999998 461.484C0.447714 461.484 -1.90735e-06 461.036 -1.90735e-06 460.484H2ZM-1.90735e-06 467.499C-1.90735e-06 466.947 0.447714 466.499 0.999998 466.499C1.55228 466.499 2 466.947 2 467.499H-1.90735e-06ZM2.01067 468.443C2.03733 468.994 1.61176 469.463 1.06012 469.49C0.508476 469.516 0.0396671 469.091 0.0130024 468.539L2.01067 468.443ZM2.84964 475.387C2.47862 474.978 2.50951 474.346 2.91861 473.975C3.32772 473.604 3.96013 473.635 4.33114 474.044L2.84964 475.387ZM4.95618 474.669C5.36529 475.04 5.39617 475.672 5.02516 476.081C4.65414 476.49 4.02173 476.521 3.61263 476.15L4.95618 474.669ZM10.4608 478.987C9.90919 478.96 9.48362 478.492 9.51028 477.94C9.53695 477.388 10.0058 476.963 10.5574 476.989L10.4608 478.987ZM11.5625 477C12.1148 477 12.5625 477.448 12.5625 478C12.5625 478.552 12.1148 479 11.5625 479V477ZM19.4375 479C18.8852 479 18.4375 478.552 18.4375 478C18.4375 477.448 18.8852 477 19.4375 477V479ZM21 2H20.375V0H21V2ZM11.625 2H11V0H11.625V2ZM11 2C10.8515 2 10.704 2.00359 10.5574 2.01067L10.4608 0.0130038C10.6395 0.00436532 10.8193 0 11 0V2ZM4.95618 4.33115C4.7378 4.52919 4.52919 4.73781 4.33114 4.95618L2.84964 3.61263C3.09139 3.34605 3.34605 3.09139 3.61263 2.84964L4.95618 4.33115ZM2.01067 10.5574C2.00359 10.704 2 10.8515 2 11H-1.90735e-06C-1.90735e-06 10.8193 0.00436401 10.6395 0.0130024 10.4608L2.01067 10.5574ZM2 11V11.5011H-1.90735e-06V11H2ZM2 18.5164V19.5186H-1.90735e-06V18.5164H2ZM2 26.534V27.5362H-1.90735e-06V26.534H2ZM2 34.5515V35.5537H-1.90735e-06V34.5515H2ZM2 42.5691V43.5713H-1.90735e-06V42.5691H2ZM2 50.5866V51.5888H-1.90735e-06V50.5866H2ZM2 58.6042V59.6064H-1.90735e-06V58.6042H2ZM2 66.6217V67.6239H-1.90735e-06V66.6217H2ZM2 74.6393V75.6414H-1.90735e-06V74.6393H2ZM2 82.6568V83.659H-1.90735e-06V82.6568H2ZM2 90.6743V91.6765H-1.90735e-06V90.6743H2ZM2 98.6919V99.6941H-1.90735e-06V98.6919H2ZM2 106.709V107.712H-1.90735e-06V106.709H2ZM2 114.727V115.729H-1.90735e-06V114.727H2ZM2 122.744V123.747H-1.90735e-06V122.744H2ZM2 130.762V131.764H-1.90735e-06V130.762H2ZM2 138.78V139.782H-1.90735e-06V138.78H2ZM2 146.797V147.799H-1.90735e-06V146.797H2ZM2 154.815V155.817H-1.90735e-06V154.815H2ZM2 162.832V163.834H-1.90735e-06V162.832H2ZM2 170.85V171.852H-1.90735e-06V170.85H2ZM2 178.867V179.87H-1.90735e-06V178.867H2ZM2 186.885V187.887H-1.90735e-06V186.885H2ZM2 194.902V195.905H-1.90735e-06V194.902H2ZM2 202.92V203.922H-1.90735e-06V202.92H2ZM2 210.938V211.94H-1.90735e-06V210.938H2ZM2 218.955V219.957H-1.90735e-06V218.955H2ZM2 226.973V227.975H-1.90735e-06V226.973H2ZM2 234.99V235.992H-1.90735e-06V234.99H2ZM2 243.008V244.01H-1.90735e-06V243.008H2ZM2 251.025V252.027H-1.90735e-06V251.025H2ZM2 259.043V260.045H-1.90735e-06V259.043H2ZM2 267.06V268.063H-1.90735e-06V267.06H2ZM2 275.078V276.08H-1.90735e-06V275.078H2ZM2 283.095V284.098H-1.90735e-06V283.095H2ZM2 291.113V292.115H-1.90735e-06V291.113H2ZM2 299.131V300.133H-1.90735e-06V299.131H2ZM2 307.148V308.15H-1.90735e-06V307.148H2ZM2 315.166V316.168H-1.90735e-06V315.166H2ZM2 323.183V324.185H-1.90735e-06V323.183H2ZM2 331.201V332.203H-1.90735e-06V331.201H2ZM2 339.218V340.22H-1.90735e-06V339.218H2ZM2 347.236V348.238H-1.90735e-06V347.236H2ZM2 355.253V356.256H-1.90735e-06V355.253H2ZM2 363.271V364.273H-1.90735e-06V363.271H2ZM2 371.288V372.291H-1.90735e-06V371.288H2ZM2 379.306V380.308H-1.90735e-06V379.306H2ZM2 387.324V388.326H-1.90735e-06V387.324H2ZM2 395.341V396.343H-1.90735e-06V395.341H2ZM2 403.359V404.361H-1.90735e-06V403.359H2ZM2 411.376V412.378H-1.90735e-06V411.376H2ZM2 419.394V420.396H-1.90735e-06V419.394H2ZM2 427.411V428.413H-1.90735e-06V427.411H2ZM2 435.429V436.431H-1.90735e-06V435.429H2ZM2 443.446V444.449H-1.90735e-06V443.446H2ZM2 451.464V452.466H-1.90735e-06V451.464H2ZM2 459.481V460.484H-1.90735e-06V459.481H2ZM2 467.499V468H-1.90735e-06V467.499H2ZM2 468C2 468.148 2.00359 468.296 2.01067 468.443L0.0130024 468.539C0.00436401 468.36 -1.90735e-06 468.181 -1.90735e-06 468H2ZM4.33114 474.044C4.52919 474.262 4.7378 474.471 4.95618 474.669L3.61263 476.15C3.34605 475.909 3.09139 475.654 2.84964 475.387L4.33114 474.044ZM10.5574 476.989C10.704 476.996 10.8515 477 11 477V479C10.8193 479 10.6395 478.996 10.4608 478.987L10.5574 476.989ZM11 477H11.5625V479H11V477ZM19.4375 477H20V479H19.4375V477Z" fill="#333E63"/>
</svg>
