<svg width="110" height="359" viewBox="0 0 110 359" fill="none" xmlns="http://www.w3.org/2000/svg">
<path d="M1 0C0.447715 0 0 0.447715 0 1C0 1.55228 0.447715 2 1 2V0ZM16.2929 350.293C15.9024 350.683 15.9024 351.317 16.2929 351.707L22.6569 358.071C23.0474 358.462 23.6805 358.462 24.0711 358.071C24.4616 357.681 24.4616 357.047 24.0711 356.657L18.4142 351L24.0711 345.343C24.4616 344.953 24.4616 344.319 24.0711 343.929C23.6805 343.538 23.0474 343.538 22.6569 343.929L16.2929 350.293ZM1.51042 2C2.0627 2 2.51042 1.55228 2.51042 1C2.51042 0.447715 2.0627 0 1.51042 0V2ZM8.65625 0C8.10397 0 7.65625 0.447715 7.65625 1C7.65625 1.55228 8.10397 2 8.65625 2V0ZM9.67708 2C10.2294 2 10.6771 1.55228 10.6771 1C10.6771 0.447715 10.2294 0 9.67708 0V2ZM16.8229 0C16.2706 0 15.8229 0.447715 15.8229 1C15.8229 1.55228 16.2706 2 16.8229 2V0ZM17.8438 2C18.396 2 18.8438 1.55228 18.8438 1C18.8438 0.447715 18.396 0 17.8438 0V2ZM24.9896 0C24.4373 0 23.9896 0.447715 23.9896 1C23.9896 1.55228 24.4373 2 24.9896 2V0ZM26.0104 2C26.5627 2 27.0104 1.55228 27.0104 1C27.0104 0.447715 26.5627 0 26.0104 0V2ZM33.1562 0C32.604 0 32.1562 0.447715 32.1562 1C32.1562 1.55228 32.604 2 33.1562 2V0ZM34.1771 2C34.7294 2 35.1771 1.55228 35.1771 1C35.1771 0.447715 34.7294 0 34.1771 0V2ZM41.3229 0C40.7706 0 40.3229 0.447715 40.3229 1C40.3229 1.55228 40.7706 2 41.3229 2V0ZM42.3437 2C42.896 2 43.3437 1.55228 43.3437 1C43.3437 0.447715 42.896 0 42.3437 0V2ZM49.4896 0C48.9373 0 48.4896 0.447715 48.4896 1C48.4896 1.55228 48.9373 2 49.4896 2V0ZM50.5104 2C51.0627 2 51.5104 1.55228 51.5104 1C51.5104 0.447715 51.0627 0 50.5104 0V2ZM57.6562 0C57.104 0 56.6562 0.447715 56.6562 1C56.6562 1.55228 57.104 2 57.6562 2V0ZM58.6771 2C59.2294 2 59.6771 1.55228 59.6771 1C59.6771 0.447715 59.2294 0 58.6771 0V2ZM65.8229 0C65.2706 0 64.8229 0.447715 64.8229 1C64.8229 1.55228 65.2706 2 65.8229 2V0ZM66.8437 2C67.396 2 67.8437 1.55228 67.8437 1C67.8437 0.447715 67.396 0 66.8437 0V2ZM73.9896 0C73.4373 0 72.9896 0.447715 72.9896 1C72.9896 1.55228 73.4373 2 73.9896 2V0ZM75.0104 2C75.5627 2 76.0104 1.55228 76.0104 1C76.0104 0.447715 75.5627 0 75.0104 0V2ZM82.1562 0C81.604 0 81.1562 0.447715 81.1562 1C81.1562 1.55228 81.604 2 82.1562 2V0ZM83.1771 2C83.7294 2 84.1771 1.55228 84.1771 1C84.1771 0.447715 83.7294 0 83.1771 0V2ZM90.3229 0C89.7706 0 89.3229 0.447715 89.3229 1C89.3229 1.55228 89.7706 2 90.3229 2V0ZM91.3438 2C91.896 2 92.3438 1.55228 92.3438 1C92.3438 0.447715 91.896 0 91.3438 0V2ZM98.4896 0C97.9373 0 97.4896 0.447715 97.4896 1C97.4896 1.55228 97.9373 2 98.4896 2V0ZM99.4426 2.01067C99.9942 2.03734 100.463 1.61176 100.49 1.06012C100.516 0.508478 100.091 0.0396686 99.5392 0.0130038L99.4426 2.01067ZM106.387 2.84964C105.978 2.47863 105.346 2.50951 104.975 2.91861C104.604 3.32772 104.635 3.96013 105.044 4.33115L106.387 2.84964ZM105.669 4.95618C106.04 5.36529 106.672 5.39617 107.081 5.02516C107.49 4.65415 107.521 4.02174 107.15 3.61263L105.669 4.95618ZM109.987 10.4608C109.96 9.9092 109.492 9.48362 108.94 9.51028C108.388 9.53695 107.963 10.0058 107.989 10.5574L109.987 10.4608ZM108 11.503C108 12.0553 108.448 12.503 109 12.503C109.552 12.503 110 12.0553 110 11.503H108ZM110 18.5457C110 17.9934 109.552 17.5457 109 17.5457C108.448 17.5457 108 17.9934 108 18.5457H110ZM108 19.5518C108 20.1041 108.448 20.5518 109 20.5518C109.552 20.5518 110 20.1041 110 19.5518H108ZM110 26.5945C110 26.0422 109.552 25.5945 109 25.5945C108.448 25.5945 108 26.0422 108 26.5945H110ZM108 27.6006C108 28.1529 108.448 28.6006 109 28.6006C109.552 28.6006 110 28.1529 110 27.6006H108ZM110 34.6433C110 34.091 109.552 33.6433 109 33.6433C108.448 33.6433 108 34.091 108 34.6433H110ZM108 35.6494C108 36.2017 108.448 36.6494 109 36.6494C109.552 36.6494 110 36.2017 110 35.6494H108ZM110 42.6921C110 42.1398 109.552 41.6921 109 41.6921C108.448 41.6921 108 42.1398 108 42.6921H110ZM108 43.6982C108 44.2505 108.448 44.6982 109 44.6982C109.552 44.6982 110 44.2505 110 43.6982H108ZM110 50.7409C110 50.1886 109.552 49.7409 109 49.7409C108.448 49.7409 108 50.1886 108 50.7409H110ZM108 51.7469C108 52.2992 108.448 52.7469 109 52.7469C109.552 52.7469 110 52.2992 110 51.7469H108ZM110 58.7896C110 58.2373 109.552 57.7896 109 57.7896C108.448 57.7896 108 58.2373 108 58.7896H110ZM108 59.7957C108 60.348 108.448 60.7957 109 60.7957C109.552 60.7957 110 60.348 110 59.7957H108ZM110 66.8384C110 66.2861 109.552 65.8384 109 65.8384C108.448 65.8384 108 66.2861 108 66.8384H110ZM108 67.8445C108 68.3968 108.448 68.8445 109 68.8445C109.552 68.8445 110 68.3968 110 67.8445H108ZM110 74.8872C110 74.3349 109.552 73.8872 109 73.8872C108.448 73.8872 108 74.3349 108 74.8872H110ZM108 75.8933C108 76.4456 108.448 76.8933 109 76.8933C109.552 76.8933 110 76.4456 110 75.8933H108ZM110 82.936C110 82.3837 109.552 81.936 109 81.936C108.448 81.936 108 82.3837 108 82.936H110ZM108 83.9421C108 84.4944 108.448 84.9421 109 84.9421C109.552 84.9421 110 84.4944 110 83.9421H108ZM110 90.9848C110 90.4325 109.552 89.9848 109 89.9848C108.448 89.9848 108 90.4325 108 90.9848H110ZM108 91.9909C108 92.5431 108.448 92.9909 109 92.9909C109.552 92.9909 110 92.5431 110 91.9909H108ZM110 99.0335C110 98.4813 109.552 98.0335 109 98.0335C108.448 98.0335 108 98.4813 108 99.0335H110ZM108 100.04C108 100.592 108.448 101.04 109 101.04C109.552 101.04 110 100.592 110 100.04H108ZM110 107.082C110 106.53 109.552 106.082 109 106.082C108.448 106.082 108 106.53 108 107.082H110ZM108 108.088C108 108.641 108.448 109.088 109 109.088C109.552 109.088 110 108.641 110 108.088H108ZM110 115.131C110 114.579 109.552 114.131 109 114.131C108.448 114.131 108 114.579 108 115.131H110ZM108 116.137C108 116.689 108.448 117.137 109 117.137C109.552 117.137 110 116.689 110 116.137H108ZM110 123.18C110 122.628 109.552 122.18 109 122.18C108.448 122.18 108 122.628 108 123.18H110ZM108 124.186C108 124.738 108.448 125.186 109 125.186C109.552 125.186 110 124.738 110 124.186H108ZM110 131.229C110 130.676 109.552 130.229 109 130.229C108.448 130.229 108 130.676 108 131.229H110ZM108 132.235C108 132.787 108.448 133.235 109 133.235C109.552 133.235 110 132.787 110 132.235H108ZM110 139.277C110 138.725 109.552 138.277 109 138.277C108.448 138.277 108 138.725 108 139.277H110ZM108 140.284C108 140.836 108.448 141.284 109 141.284C109.552 141.284 110 140.836 110 140.284H108ZM110 147.326C110 146.774 109.552 146.326 109 146.326C108.448 146.326 108 146.774 108 147.326H110ZM108 148.332C108 148.885 108.448 149.332 109 149.332C109.552 149.332 110 148.885 110 148.332H108ZM110 155.375C110 154.823 109.552 154.375 109 154.375C108.448 154.375 108 154.823 108 155.375H110ZM108 156.381C108 156.933 108.448 157.381 109 157.381C109.552 157.381 110 156.933 110 156.381H108ZM110 163.424C110 162.872 109.552 162.424 109 162.424C108.448 162.424 108 162.872 108 163.424H110ZM108 164.43C108 164.982 108.448 165.43 109 165.43C109.552 165.43 110 164.982 110 164.43H108ZM110 171.473C110 170.92 109.552 170.473 109 170.473C108.448 170.473 108 170.92 108 171.473H110ZM108 172.479C108 173.031 108.448 173.479 109 173.479C109.552 173.479 110 173.031 110 172.479H108ZM110 179.521C110 178.969 109.552 178.521 109 178.521C108.448 178.521 108 178.969 108 179.521H110ZM108 180.527C108 181.08 108.448 181.527 109 181.527C109.552 181.527 110 181.08 110 180.527H108ZM110 187.57C110 187.018 109.552 186.57 109 186.57C108.448 186.57 108 187.018 108 187.57H110ZM108 188.576C108 189.129 108.448 189.576 109 189.576C109.552 189.576 110 189.129 110 188.576H108ZM110 195.619C110 195.067 109.552 194.619 109 194.619C108.448 194.619 108 195.067 108 195.619H110ZM108 196.625C108 197.177 108.448 197.625 109 197.625C109.552 197.625 110 197.177 110 196.625H108ZM110 203.668C110 203.115 109.552 202.668 109 202.668C108.448 202.668 108 203.115 108 203.668H110ZM108 204.674C108 205.226 108.448 205.674 109 205.674C109.552 205.674 110 205.226 110 204.674H108ZM110 211.716C110 211.164 109.552 210.716 109 210.716C108.448 210.716 108 211.164 108 211.716H110ZM108 212.723C108 213.275 108.448 213.723 109 213.723C109.552 213.723 110 213.275 110 212.723H108ZM110 219.765C110 219.213 109.552 218.765 109 218.765C108.448 218.765 108 219.213 108 219.765H110ZM108 220.771C108 221.324 108.448 221.771 109 221.771C109.552 221.771 110 221.324 110 220.771H108ZM110 227.814C110 227.262 109.552 226.814 109 226.814C108.448 226.814 108 227.262 108 227.814H110ZM108 228.82C108 229.372 108.448 229.82 109 229.82C109.552 229.82 110 229.372 110 228.82H108ZM110 235.863C110 235.311 109.552 234.863 109 234.863C108.448 234.863 108 235.311 108 235.863H110ZM108 236.869C108 237.421 108.448 237.869 109 237.869C109.552 237.869 110 237.421 110 236.869H108ZM110 243.912C110 243.359 109.552 242.912 109 242.912C108.448 242.912 108 243.359 108 243.912H110ZM108 244.918C108 245.47 108.448 245.918 109 245.918C109.552 245.918 110 245.47 110 244.918H108ZM110 251.96C110 251.408 109.552 250.96 109 250.96C108.448 250.96 108 251.408 108 251.96H110ZM108 252.967C108 253.519 108.448 253.967 109 253.967C109.552 253.967 110 253.519 110 252.967H108ZM110 260.009C110 259.457 109.552 259.009 109 259.009C108.448 259.009 108 259.457 108 260.009H110ZM108 261.015C108 261.568 108.448 262.015 109 262.015C109.552 262.015 110 261.568 110 261.015H108ZM110 268.058C110 267.506 109.552 267.058 109 267.058C108.448 267.058 108 267.506 108 268.058H110ZM108 269.064C108 269.616 108.448 270.064 109 270.064C109.552 270.064 110 269.616 110 269.064H108ZM110 276.107C110 275.555 109.552 275.107 109 275.107C108.448 275.107 108 275.555 108 276.107H110ZM108 277.113C108 277.665 108.448 278.113 109 278.113C109.552 278.113 110 277.665 110 277.113H108ZM110 284.156C110 283.603 109.552 283.156 109 283.156C108.448 283.156 108 283.603 108 284.156H110ZM108 285.162C108 285.714 108.448 286.162 109 286.162C109.552 286.162 110 285.714 110 285.162H108ZM110 292.204C110 291.652 109.552 291.204 109 291.204C108.448 291.204 108 291.652 108 292.204H110ZM108 293.21C108 293.763 108.448 294.21 109 294.21C109.552 294.21 110 293.763 110 293.21H108ZM110 300.253C110 299.701 109.552 299.253 109 299.253C108.448 299.253 108 299.701 108 300.253H110ZM108 301.259C108 301.812 108.448 302.259 109 302.259C109.552 302.259 110 301.812 110 301.259H108ZM110 308.302C110 307.75 109.552 307.302 109 307.302C108.448 307.302 108 307.75 108 308.302H110ZM108 309.308C108 309.86 108.448 310.308 109 310.308C109.552 310.308 110 309.86 110 309.308H108ZM110 316.351C110 315.798 109.552 315.351 109 315.351C108.448 315.351 108 315.798 108 316.351H110ZM108 317.357C108 317.909 108.448 318.357 109 318.357C109.552 318.357 110 317.909 110 317.357H108ZM110 324.4C110 323.847 109.552 323.4 109 323.4C108.448 323.4 108 323.847 108 324.4H110ZM108 325.406C108 325.958 108.448 326.406 109 326.406C109.552 326.406 110 325.958 110 325.406H108ZM110 332.448C110 331.896 109.552 331.448 109 331.448C108.448 331.448 108 331.896 108 332.448H110ZM108 333.454C108 334.007 108.448 334.454 109 334.454C109.552 334.454 110 334.007 110 333.454H108ZM110 340.497C110 339.945 109.552 339.497 109 339.497C108.448 339.497 108 339.945 108 340.497H110ZM107.989 341.443C107.963 341.994 108.388 342.463 108.94 342.49C109.492 342.516 109.96 342.091 109.987 341.539L107.989 341.443ZM107.15 348.387C107.521 347.978 107.49 347.346 107.081 346.975C106.672 346.604 106.04 346.635 105.669 347.044L107.15 348.387ZM105.044 347.669C104.635 348.04 104.604 348.672 104.975 349.081C105.346 349.49 105.978 349.521 106.387 349.15L105.044 347.669ZM99.5392 351.987C100.091 351.96 100.516 351.492 100.49 350.94C100.463 350.388 99.9942 349.963 99.4426 349.989L99.5392 351.987ZM98.4875 350C97.9352 350 97.4875 350.448 97.4875 351C97.4875 351.552 97.9352 352 98.4875 352V350ZM91.3125 352C91.8648 352 92.3125 351.552 92.3125 351C92.3125 350.448 91.8648 350 91.3125 350V352ZM90.2875 350C89.7352 350 89.2875 350.448 89.2875 351C89.2875 351.552 89.7352 352 90.2875 352V350ZM83.1125 352C83.6648 352 84.1125 351.552 84.1125 351C84.1125 350.448 83.6648 350 83.1125 350V352ZM82.0875 350C81.5352 350 81.0875 350.448 81.0875 351C81.0875 351.552 81.5352 352 82.0875 352V350ZM74.9125 352C75.4648 352 75.9125 351.552 75.9125 351C75.9125 350.448 75.4648 350 74.9125 350V352ZM73.8875 350C73.3352 350 72.8875 350.448 72.8875 351C72.8875 351.552 73.3352 352 73.8875 352V350ZM66.7125 352C67.2648 352 67.7125 351.552 67.7125 351C67.7125 350.448 67.2648 350 66.7125 350V352ZM65.6875 350C65.1352 350 64.6875 350.448 64.6875 351C64.6875 351.552 65.1352 352 65.6875 352V350ZM58.5125 352C59.0648 352 59.5125 351.552 59.5125 351C59.5125 350.448 59.0648 350 58.5125 350V352ZM57.4875 350C56.9352 350 56.4875 350.448 56.4875 351C56.4875 351.552 56.9352 352 57.4875 352V350ZM50.3125 352C50.8648 352 51.3125 351.552 51.3125 351C51.3125 350.448 50.8648 350 50.3125 350V352ZM49.2875 350C48.7352 350 48.2875 350.448 48.2875 351C48.2875 351.552 48.7352 352 49.2875 352V350ZM42.1125 352C42.6648 352 43.1125 351.552 43.1125 351C43.1125 350.448 42.6648 350 42.1125 350V352ZM41.0875 350C40.5352 350 40.0875 350.448 40.0875 351C40.0875 351.552 40.5352 352 41.0875 352V350ZM33.9125 352C34.4648 352 34.9125 351.552 34.9125 351C34.9125 350.448 34.4648 350 33.9125 350V352ZM32.8875 350C32.3352 350 31.8875 350.448 31.8875 351C31.8875 351.552 32.3352 352 32.8875 352V350ZM25.7125 352C26.2648 352 26.7125 351.552 26.7125 351C26.7125 350.448 26.2648 350 25.7125 350V352ZM24.6875 350C24.1352 350 23.6875 350.448 23.6875 351C23.6875 351.552 24.1352 352 24.6875 352V350ZM17.5125 352C18.0648 352 18.5125 351.552 18.5125 351C18.5125 350.448 18.0648 350 17.5125 350V352ZM1 2H1.51042V0H1V2ZM8.65625 2H9.67708V0H8.65625V2ZM16.8229 2H17.8438V0H16.8229V2ZM24.9896 2H26.0104V0H24.9896V2ZM33.1562 2H34.1771V0H33.1562V2ZM41.3229 2H42.3437V0H41.3229V2ZM49.4896 2H50.5104V0H49.4896V2ZM57.6562 2H58.6771V0H57.6562V2ZM65.8229 2H66.8437V0H65.8229V2ZM73.9896 2H75.0104V0H73.9896V2ZM82.1562 2H83.1771V0H82.1562V2ZM90.3229 2H91.3438V0H90.3229V2ZM98.4896 2H99V0H98.4896V2ZM99 2C99.1485 2 99.296 2.00359 99.4426 2.01067L99.5392 0.0130038C99.3605 0.00436532 99.1807 0 99 0V2ZM105.044 4.33115C105.262 4.52919 105.471 4.73781 105.669 4.95618L107.15 3.61263C106.909 3.34605 106.654 3.0914 106.387 2.84964L105.044 4.33115ZM107.989 10.5574C107.996 10.704 108 10.8515 108 11H110C110 10.8193 109.996 10.6396 109.987 10.4608L107.989 10.5574ZM108 11V11.503H110V11H108ZM108 18.5457V19.5518H110V18.5457H108ZM108 26.5945V27.6006H110V26.5945H108ZM108 34.6433V35.6494H110V34.6433H108ZM108 42.6921V43.6982H110V42.6921H108ZM108 50.7409V51.7469H110V50.7409H108ZM108 58.7896V59.7957H110V58.7896H108ZM108 66.8384V67.8445H110V66.8384H108ZM108 74.8872V75.8933H110V74.8872H108ZM108 82.936V83.9421H110V82.936H108ZM108 90.9848V91.9909H110V90.9848H108ZM108 99.0335V100.04H110V99.0335H108ZM108 107.082V108.088H110V107.082H108ZM108 115.131V116.137H110V115.131H108ZM108 123.18V124.186H110V123.18H108ZM108 131.229V132.235H110V131.229H108ZM108 139.277V140.284H110V139.277H108ZM108 147.326V148.332H110V147.326H108ZM108 155.375V156.381H110V155.375H108ZM108 163.424V164.43H110V163.424H108ZM108 171.473V172.479H110V171.473H108ZM108 179.521V180.527H110V179.521H108ZM108 187.57V188.576H110V187.57H108ZM108 195.619V196.625H110V195.619H108ZM108 203.668V204.674H110V203.668H108ZM108 211.716V212.723H110V211.716H108ZM108 219.765V220.771H110V219.765H108ZM108 227.814V228.82H110V227.814H108ZM108 235.863V236.869H110V235.863H108ZM108 243.912V244.918H110V243.912H108ZM108 251.96V252.967H110V251.96H108ZM108 260.009V261.015H110V260.009H108ZM108 268.058V269.064H110V268.058H108ZM108 276.107V277.113H110V276.107H108ZM108 284.156V285.162H110V284.156H108ZM108 292.204V293.21H110V292.204H108ZM108 300.253V301.259H110V300.253H108ZM108 308.302V309.308H110V308.302H108ZM108 316.351V317.357H110V316.351H108ZM108 324.4V325.406H110V324.4H108ZM108 332.448V333.454H110V332.448H108ZM108 340.497V341H110V340.497H108ZM108 341C108 341.148 107.996 341.296 107.989 341.443L109.987 341.539C109.996 341.36 110 341.181 110 341H108ZM105.669 347.044C105.471 347.262 105.262 347.471 105.044 347.669L106.387 349.15C106.654 348.909 106.909 348.654 107.15 348.387L105.669 347.044ZM99.4426 349.989C99.296 349.996 99.1485 350 99 350V352C99.1807 352 99.3605 351.996 99.5392 351.987L99.4426 349.989ZM99 350H98.4875V352H99V350ZM91.3125 350H90.2875V352H91.3125V350ZM83.1125 350H82.0875V352H83.1125V350ZM74.9125 350H73.8875V352H74.9125V350ZM66.7125 350H65.6875V352H66.7125V350ZM58.5125 350H57.4875V352H58.5125V350ZM50.3125 350H49.2875V352H50.3125V350ZM42.1125 350H41.0875V352H42.1125V350ZM33.9125 350H32.8875V352H33.9125V350ZM25.7125 350H24.6875V352H25.7125V350ZM17.5125 350H17V352H17.5125V350Z" fill="#333E63"/>
</svg>
