<svg width="22" height="224" viewBox="0 0 22 224" fill="none" xmlns="http://www.w3.org/2000/svg">
<path d="M21 0C21.5523 0 22 0.447715 22 1C22 1.55228 21.5523 2 21 2V0ZM20.7071 215.293C21.0976 215.683 21.0976 216.317 20.7071 216.707L14.3431 223.071C13.9526 223.462 13.3195 223.462 12.9289 223.071C12.5384 222.681 12.5384 222.047 12.9289 221.657L18.5858 216L12.9289 210.343C12.5384 209.953 12.5384 209.319 12.9289 208.929C13.3195 208.538 13.9526 208.538 14.3431 208.929L20.7071 215.293ZM20.375 2C19.8227 2 19.375 1.55228 19.375 1C19.375 0.447715 19.8227 0 20.375 0V2ZM11.625 0C12.1773 0 12.625 0.447715 12.625 1C12.625 1.55228 12.1773 2 11.625 2V0ZM10.5574 2.01067C10.0058 2.03734 9.53695 1.61176 9.51028 1.06012C9.48362 0.508478 9.90919 0.0396686 10.4608 0.0130038L10.5574 2.01067ZM3.61263 2.84964C4.02173 2.47863 4.65414 2.50951 5.02516 2.91861C5.39617 3.32772 5.36529 3.96013 4.95618 4.33115L3.61263 2.84964ZM4.33114 4.95618C3.96013 5.36529 3.32772 5.39617 2.91861 5.02516C2.50951 4.65415 2.47862 4.02174 2.84964 3.61263L4.33114 4.95618ZM0.0130024 10.4608C0.0396671 9.9092 0.508476 9.48362 1.06012 9.51028C1.61176 9.53695 2.03733 10.0058 2.01067 10.5574L0.0130024 10.4608ZM2 11.5078C2 12.0601 1.55228 12.5078 0.999998 12.5078C0.447714 12.5078 -1.90735e-06 12.0601 -1.90735e-06 11.5078H2ZM-1.90735e-06 18.6172C-1.90735e-06 18.0649 0.447714 17.6172 0.999998 17.6172C1.55228 17.6172 2 18.0649 2 18.6172H-1.90735e-06ZM2 19.6328C2 20.1851 1.55228 20.6328 0.999998 20.6328C0.447714 20.6328 -1.90735e-06 20.1851 -1.90735e-06 19.6328H2ZM-1.90735e-06 26.7422C-1.90735e-06 26.1899 0.447714 25.7422 0.999998 25.7422C1.55228 25.7422 2 26.1899 2 26.7422H-1.90735e-06ZM2 27.7578C2 28.3101 1.55228 28.7578 0.999998 28.7578C0.447714 28.7578 -1.90735e-06 28.3101 -1.90735e-06 27.7578H2ZM-1.90735e-06 34.8672C-1.90735e-06 34.3149 0.447714 33.8672 0.999998 33.8672C1.55228 33.8672 2 34.3149 2 34.8672H-1.90735e-06ZM2 35.8828C2 36.4351 1.55228 36.8828 0.999998 36.8828C0.447714 36.8828 -1.90735e-06 36.4351 -1.90735e-06 35.8828H2ZM-1.90735e-06 42.9922C-1.90735e-06 42.4399 0.447714 41.9922 0.999998 41.9922C1.55228 41.9922 2 42.4399 2 42.9922H-1.90735e-06ZM2 44.0078C2 44.5601 1.55228 45.0078 0.999998 45.0078C0.447714 45.0078 -1.90735e-06 44.5601 -1.90735e-06 44.0078H2ZM-1.90735e-06 51.1172C-1.90735e-06 50.5649 0.447714 50.1172 0.999998 50.1172C1.55228 50.1172 2 50.5649 2 51.1172H-1.90735e-06ZM2 52.1328C2 52.6851 1.55228 53.1328 0.999998 53.1328C0.447714 53.1328 -1.90735e-06 52.6851 -1.90735e-06 52.1328H2ZM-1.90735e-06 59.2422C-1.90735e-06 58.6899 0.447714 58.2422 0.999998 58.2422C1.55228 58.2422 2 58.6899 2 59.2422H-1.90735e-06ZM2 60.2578C2 60.8101 1.55228 61.2578 0.999998 61.2578C0.447714 61.2578 -1.90735e-06 60.8101 -1.90735e-06 60.2578H2ZM-1.90735e-06 67.3672C-1.90735e-06 66.8149 0.447714 66.3672 0.999998 66.3672C1.55228 66.3672 2 66.8149 2 67.3672H-1.90735e-06ZM2 68.3828C2 68.9351 1.55228 69.3828 0.999998 69.3828C0.447714 69.3828 -1.90735e-06 68.9351 -1.90735e-06 68.3828H2ZM-1.90735e-06 75.4922C-1.90735e-06 74.9399 0.447714 74.4922 0.999998 74.4922C1.55228 74.4922 2 74.9399 2 75.4922H-1.90735e-06ZM2 76.5078C2 77.0601 1.55228 77.5078 0.999998 77.5078C0.447714 77.5078 -1.90735e-06 77.0601 -1.90735e-06 76.5078H2ZM-1.90735e-06 83.6172C-1.90735e-06 83.0649 0.447714 82.6172 0.999998 82.6172C1.55228 82.6172 2 83.0649 2 83.6172H-1.90735e-06ZM2 84.6328C2 85.1851 1.55228 85.6328 0.999998 85.6328C0.447714 85.6328 -1.90735e-06 85.1851 -1.90735e-06 84.6328H2ZM-1.90735e-06 91.7422C-1.90735e-06 91.1899 0.447714 90.7422 0.999998 90.7422C1.55228 90.7422 2 91.1899 2 91.7422H-1.90735e-06ZM2 92.7578C2 93.3101 1.55228 93.7578 0.999998 93.7578C0.447714 93.7578 -1.90735e-06 93.3101 -1.90735e-06 92.7578H2ZM-1.90735e-06 99.8672C-1.90735e-06 99.3149 0.447714 98.8672 0.999998 98.8672C1.55228 98.8672 2 99.3149 2 99.8672H-1.90735e-06ZM2 100.883C2 101.435 1.55228 101.883 0.999998 101.883C0.447714 101.883 -1.90735e-06 101.435 -1.90735e-06 100.883H2ZM-1.90735e-06 107.992C-1.90735e-06 107.44 0.447714 106.992 0.999998 106.992C1.55228 106.992 2 107.44 2 107.992H-1.90735e-06ZM2 109.008C2 109.56 1.55228 110.008 0.999998 110.008C0.447714 110.008 -1.90735e-06 109.56 -1.90735e-06 109.008H2ZM-1.90735e-06 116.117C-1.90735e-06 115.565 0.447714 115.117 0.999998 115.117C1.55228 115.117 2 115.565 2 116.117H-1.90735e-06ZM2 117.133C2 117.685 1.55228 118.133 0.999998 118.133C0.447714 118.133 -1.90735e-06 117.685 -1.90735e-06 117.133H2ZM-1.90735e-06 124.242C-1.90735e-06 123.69 0.447714 123.242 0.999998 123.242C1.55228 123.242 2 123.69 2 124.242H-1.90735e-06ZM2 125.258C2 125.81 1.55228 126.258 0.999998 126.258C0.447714 126.258 -1.90735e-06 125.81 -1.90735e-06 125.258H2ZM-1.90735e-06 132.367C-1.90735e-06 131.815 0.447714 131.367 0.999998 131.367C1.55228 131.367 2 131.815 2 132.367H-1.90735e-06ZM2 133.383C2 133.935 1.55228 134.383 0.999998 134.383C0.447714 134.383 -1.90735e-06 133.935 -1.90735e-06 133.383H2ZM-1.90735e-06 140.492C-1.90735e-06 139.94 0.447714 139.492 0.999998 139.492C1.55228 139.492 2 139.94 2 140.492H-1.90735e-06ZM2 141.508C2 142.06 1.55228 142.508 0.999998 142.508C0.447714 142.508 -1.90735e-06 142.06 -1.90735e-06 141.508H2ZM-1.90735e-06 148.617C-1.90735e-06 148.065 0.447714 147.617 0.999998 147.617C1.55228 147.617 2 148.065 2 148.617H-1.90735e-06ZM2 149.633C2 150.185 1.55228 150.633 0.999998 150.633C0.447714 150.633 -1.90735e-06 150.185 -1.90735e-06 149.633H2ZM-1.90735e-06 156.742C-1.90735e-06 156.19 0.447714 155.742 0.999998 155.742C1.55228 155.742 2 156.19 2 156.742H-1.90735e-06ZM2 157.758C2 158.31 1.55228 158.758 0.999998 158.758C0.447714 158.758 -1.90735e-06 158.31 -1.90735e-06 157.758H2ZM-1.90735e-06 164.867C-1.90735e-06 164.315 0.447714 163.867 0.999998 163.867C1.55228 163.867 2 164.315 2 164.867H-1.90735e-06ZM2 165.883C2 166.435 1.55228 166.883 0.999998 166.883C0.447714 166.883 -1.90735e-06 166.435 -1.90735e-06 165.883H2ZM-1.90735e-06 172.992C-1.90735e-06 172.44 0.447714 171.992 0.999998 171.992C1.55228 171.992 2 172.44 2 172.992H-1.90735e-06ZM2 174.008C2 174.56 1.55228 175.008 0.999998 175.008C0.447714 175.008 -1.90735e-06 174.56 -1.90735e-06 174.008H2ZM-1.90735e-06 181.117C-1.90735e-06 180.565 0.447714 180.117 0.999998 180.117C1.55228 180.117 2 180.565 2 181.117H-1.90735e-06ZM2 182.133C2 182.685 1.55228 183.133 0.999998 183.133C0.447714 183.133 -1.90735e-06 182.685 -1.90735e-06 182.133H2ZM-1.90735e-06 189.242C-1.90735e-06 188.69 0.447714 188.242 0.999998 188.242C1.55228 188.242 2 188.69 2 189.242H-1.90735e-06ZM2 190.258C2 190.81 1.55228 191.258 0.999998 191.258C0.447714 191.258 -1.90735e-06 190.81 -1.90735e-06 190.258H2ZM-1.90735e-06 197.367C-1.90735e-06 196.815 0.447714 196.367 0.999998 196.367C1.55228 196.367 2 196.815 2 197.367H-1.90735e-06ZM2 198.383C2 198.935 1.55228 199.383 0.999998 199.383C0.447714 199.383 -1.90735e-06 198.935 -1.90735e-06 198.383H2ZM-1.90735e-06 205.492C-1.90735e-06 204.94 0.447714 204.492 0.999998 204.492C1.55228 204.492 2 204.94 2 205.492H-1.90735e-06ZM2.01067 206.443C2.03733 206.994 1.61176 207.463 1.06012 207.49C0.508476 207.516 0.0396671 207.091 0.0130024 206.539L2.01067 206.443ZM2.84964 213.387C2.47862 212.978 2.50951 212.346 2.91861 211.975C3.32772 211.604 3.96013 211.635 4.33114 212.044L2.84964 213.387ZM4.95618 212.669C5.36529 213.04 5.39617 213.672 5.02516 214.081C4.65414 214.49 4.02173 214.521 3.61263 214.15L4.95618 212.669ZM10.4608 216.987C9.90919 216.96 9.48362 216.492 9.51028 215.94C9.53695 215.388 10.0058 214.963 10.5574 214.989L10.4608 216.987ZM11.5625 215C12.1148 215 12.5625 215.448 12.5625 216C12.5625 216.552 12.1148 217 11.5625 217V215ZM19.4375 217C18.8852 217 18.4375 216.552 18.4375 216C18.4375 215.448 18.8852 215 19.4375 215V217ZM21 2H20.375V0H21V2ZM11.625 2H11V0H11.625V2ZM11 2C10.8515 2 10.704 2.00359 10.5574 2.01067L10.4608 0.0130038C10.6395 0.00436532 10.8193 0 11 0V2ZM4.95618 4.33115C4.7378 4.52919 4.52919 4.73781 4.33114 4.95618L2.84964 3.61263C3.09139 3.34605 3.34605 3.0914 3.61263 2.84964L4.95618 4.33115ZM2.01067 10.5574C2.00359 10.704 2 10.8515 2 11H-1.90735e-06C-1.90735e-06 10.8193 0.00436401 10.6396 0.0130024 10.4608L2.01067 10.5574ZM2 11V11.5078H-1.90735e-06V11H2ZM2 18.6172V19.6328H-1.90735e-06V18.6172H2ZM2 26.7422V27.7578H-1.90735e-06V26.7422H2ZM2 34.8672V35.8828H-1.90735e-06V34.8672H2ZM2 42.9922V44.0078H-1.90735e-06V42.9922H2ZM2 51.1172V52.1328H-1.90735e-06V51.1172H2ZM2 59.2422V60.2578H-1.90735e-06V59.2422H2ZM2 67.3672V68.3828H-1.90735e-06V67.3672H2ZM2 75.4922V76.5078H-1.90735e-06V75.4922H2ZM2 83.6172V84.6328H-1.90735e-06V83.6172H2ZM2 91.7422V92.7578H-1.90735e-06V91.7422H2ZM2 99.8672V100.883H-1.90735e-06V99.8672H2ZM2 107.992V109.008H-1.90735e-06V107.992H2ZM2 116.117V117.133H-1.90735e-06V116.117H2ZM2 124.242V125.258H-1.90735e-06V124.242H2ZM2 132.367V133.383H-1.90735e-06V132.367H2ZM2 140.492V141.508H-1.90735e-06V140.492H2ZM2 148.617V149.633H-1.90735e-06V148.617H2ZM2 156.742V157.758H-1.90735e-06V156.742H2ZM2 164.867V165.883H-1.90735e-06V164.867H2ZM2 172.992V174.008H-1.90735e-06V172.992H2ZM2 181.117V182.133H-1.90735e-06V181.117H2ZM2 189.242V190.258H-1.90735e-06V189.242H2ZM2 197.367V198.383H-1.90735e-06V197.367H2ZM2 205.492V206H-1.90735e-06V205.492H2ZM2 206C2 206.148 2.00359 206.296 2.01067 206.443L0.0130024 206.539C0.00436401 206.36 -1.90735e-06 206.181 -1.90735e-06 206H2ZM4.33114 212.044C4.52919 212.262 4.7378 212.471 4.95618 212.669L3.61263 214.15C3.34605 213.909 3.09139 213.654 2.84964 213.387L4.33114 212.044ZM10.5574 214.989C10.704 214.996 10.8515 215 11 215V217C10.8193 217 10.6395 216.996 10.4608 216.987L10.5574 214.989ZM11 215H11.5625V217H11V215ZM19.4375 215H20V217H19.4375V215Z" fill="#333E63"/>
</svg>
