<svg width="133" height="318" viewBox="0 0 133 318" fill="none" xmlns="http://www.w3.org/2000/svg">
<path d="M21.9145 213.507L18.7586 217.204C18.7586 217.204 7.23214 215.209 6.99442 216.041C6.7567 216.873 5.18508 222.722 5.77921 223.092C6.1885 223.409 6.74303 223.568 7.25797 223.515L25.0166 223.991L28.7273 216.953L21.9145 213.507Z" fill="white" stroke="#263238" stroke-linecap="round" stroke-linejoin="round"/>
<path d="M16.6326 220.095C14.1239 221.178 11.4832 222.023 8.80284 222.656C5.77923 223.092 5.15855 224.914 5.99035 225.152C6.82216 225.39 15.2988 224.413 15.2988 224.413C15.2988 224.413 22.6399 224.611 23.815 224.347C24.9902 224.083 25.9542 221.06 25.9542 221.06" fill="white"/>
<path d="M16.6326 220.095C14.1239 221.178 11.4832 222.023 8.80284 222.656C5.77923 223.092 5.15855 224.914 5.99035 225.152C6.82216 225.39 15.2988 224.413 15.2988 224.413C15.2988 224.413 22.6399 224.611 23.815 224.347C24.9902 224.083 25.9542 221.06 25.9542 221.06" stroke="#263238" stroke-linecap="round" stroke-linejoin="round"/>
<path d="M29.6544 138.428L22.5262 188.062L17.584 215.159L28.5139 217.526L36.6875 185.431L40.5843 165.262L29.6544 138.428Z" fill="#B0BEC5" stroke="#263238" stroke-miterlimit="10"/>
<path d="M86.519 99.0973L82.0974 98.4244L73.158 94.9639L72.8696 105.634L86.7113 106.884L86.519 99.0973Z" fill="white" stroke="#263238" stroke-linecap="round" stroke-linejoin="round"/>
<path d="M36.3429 291.06C33.0747 294.905 29.9988 298.846 27.2113 302.98C23.4625 308.651 24.8082 314.707 29.4221 316.245C34.036 317.783 39.8033 313.65 41.3413 310.381C42.8792 307.113 42.3986 305.383 44.8017 302.114C47.2047 298.846 49.1272 295.578 48.2621 291.252C47.397 286.927 38.6498 288.08 36.3429 291.06Z" fill="white" stroke="#263238" stroke-miterlimit="10"/>
<path d="M39.8035 309.132C38.4578 311.054 36.7276 316.341 29.999 314.131C28.0765 313.65 26.4425 312.593 25.1929 311.151C25.4812 313.554 27.1153 315.572 29.4223 316.341C33.94 317.879 39.8035 313.746 41.3414 310.478C42.8794 307.209 42.3988 305.479 44.8018 302.211C47.2049 298.943 49.1273 295.674 48.2622 291.349C48.2622 296.539 46.3398 297.405 43.9367 300.288C41.5337 303.172 41.0531 307.209 39.8035 309.132Z" fill="white" stroke="#263238" stroke-linecap="round" stroke-linejoin="round"/>
<path d="M100.457 291.06C103.725 294.905 106.801 298.846 109.588 302.98C113.337 308.651 111.991 314.707 107.378 316.245C102.764 317.783 96.9964 313.65 95.4584 310.381C93.9204 307.113 94.4011 305.383 91.998 302.114C89.5949 298.846 87.6725 295.578 88.5376 291.252C89.4027 286.927 98.0537 288.08 100.457 291.06Z" fill="white" stroke="#263238" stroke-miterlimit="10"/>
<path d="M96.9964 309.132C98.3421 311.054 100.072 316.341 106.801 314.131C108.723 313.65 110.357 312.593 111.607 311.151C111.319 313.554 109.685 315.572 107.378 316.341C102.86 317.879 96.9964 313.746 95.4584 310.478C93.9204 307.209 94.4011 305.479 91.998 302.211C89.5949 298.943 87.6725 295.674 88.5376 291.349C88.5376 296.539 90.46 297.405 92.8631 300.288C95.2662 303.172 95.6507 307.209 96.9964 309.132Z" fill="white" stroke="#263238" stroke-linecap="round" stroke-linejoin="round"/>
<path d="M110.646 216.178C110.646 212.236 103.918 207.911 103.918 207.911C93.8249 197.625 75.4656 198.971 68.737 199.836C62.0084 198.875 43.649 197.529 33.5562 207.911C33.5562 207.911 26.8276 212.236 26.8276 216.178C26.8276 220.119 35.2864 290.675 35.2864 290.675C35.2864 290.675 35.0942 294.328 41.1499 294.809C47.2056 295.289 49.8009 291.733 49.8009 291.733L52.2039 232.038C52.2039 232.038 62.0084 225.117 63.7386 224.829C64.4115 224.733 65.1805 224.637 66.1417 224.444V224.541C67.8719 224.156 69.6021 224.156 71.3323 224.541V224.444C72.2935 224.541 73.0625 224.733 73.7353 224.829C75.4656 225.021 85.27 232.038 85.27 232.038L87.6731 291.733C87.6731 291.733 90.2684 295.193 96.3241 294.809C102.38 294.424 102.188 290.675 102.188 290.675C102.188 290.675 110.646 220.023 110.646 216.178Z" fill="#263238" stroke="#263238" stroke-linecap="round" stroke-linejoin="round"/>
<path d="M85.1736 232.039C85.1736 232.039 83.8279 217.716 90.172 212.237" stroke="#707070" stroke-linecap="round" stroke-linejoin="round"/>
<path d="M52.2036 232.04C52.2036 232.04 52.8764 220.12 51.5307 215.794C50.185 211.469 48.0703 209.738 48.0703 209.738" stroke="#707070" stroke-linecap="round" stroke-linejoin="round"/>
<path d="M60.1816 203.586C60.1816 203.586 67.1024 211.661 68.4481 218.389" stroke="#707070" stroke-linecap="round" stroke-linejoin="round"/>
<path d="M75.4656 203.971C75.4656 203.971 71.5246 208.296 71.1401 211.565" stroke="#707070" stroke-linecap="round" stroke-linejoin="round"/>
<path d="M43.6481 121.302C46.9163 120.822 83.1544 121.206 86.5187 121.11C90.8442 121.11 95.1697 121.302 95.1697 121.302L106.032 110.921L84.2117 105.922L85.942 95.9251C85.942 95.9251 101.994 94.8677 110.069 96.3096C118.143 97.7515 130.735 101.789 131.312 101.789C131.888 101.789 132.85 104.192 132.177 105.922C131.504 107.652 111.126 130.242 104.974 136.106C100.937 140.047 97.1883 144.18 93.6317 148.506L90.8442 196.954C90.8442 196.954 90.8442 198.78 90.7481 200.222C90.6519 202.048 87.3838 202.625 87.3838 202.625C87.3838 202.625 77.7715 203.875 74.3111 203.875C52.5875 203.875 47.1085 204.548 46.3395 200.126C46.0512 198.684 40.0916 166.866 40.0916 166.866L29.422 137.259C29.3259 137.355 40.38 121.302 43.6481 121.302Z" fill="#B0BEC5" stroke="#263238" stroke-miterlimit="10"/>
<path d="M57.0095 114.862C57.0095 114.862 52.9724 118.034 52.7801 119.283C52.5879 120.341 52.5879 121.302 52.5879 122.359C52.5879 122.359 57.2979 145.718 58.0669 145.141C58.8358 144.565 64.7954 135.529 66.045 133.895C67.1985 132.26 69.6015 131.876 70.1783 132.26C70.755 132.645 81.4246 143.988 82.0013 142.065C82.5781 140.143 79.1177 122.263 76.4262 117.745C73.6387 113.227 59.0281 112.651 57.0095 114.862Z" fill="white" stroke="#263238" stroke-miterlimit="10"/>
<path d="M57.6821 123.897L59.7968 135.433C59.7968 135.433 67.1021 152.159 70.3703 151.005C73.7346 149.852 76.0415 132.933 76.1376 132.549C76.2338 132.164 75.8493 125.628 75.8493 125.628C75.8493 125.628 76.3299 127.454 69.1207 126.589C65.2758 126.108 61.4309 125.243 57.6821 123.897Z" fill="white" stroke="#263238" stroke-miterlimit="10"/>
<path d="M95.9395 127.55L93.3442 150.428L100.073 131.01" stroke="#263238" stroke-linecap="round" stroke-linejoin="round"/>
<path d="M105.743 112.843C105.743 112.843 111.126 113.9 119.393 110.632" stroke="#263238" stroke-linecap="round" stroke-linejoin="round"/>
<path d="M111.415 114.285C114.972 114.381 118.528 114.093 122.085 113.42" stroke="#263238" stroke-linecap="round" stroke-linejoin="round"/>
<path d="M77.6761 99.5771C77.6761 99.5771 80.752 112.843 81.3288 114.957C81.9055 117.072 77.8684 125.627 76.5226 127.55C75.4653 129.28 73.7351 130.434 71.7165 130.626C70.1786 130.626 61.9121 127.838 59.9896 126.492C58.0672 125.147 56.0486 123.705 56.0486 123.705C54.1261 124.57 51.9153 124.185 50.3774 122.84C47.7821 120.436 44.3217 117.649 45.1868 115.63C46.0519 113.708 48.0704 112.458 50.1851 112.554C52.5882 112.554 51.7231 112.362 51.7231 112.362C51.7231 112.362 47.3976 106.018 47.3976 101.019C47.3976 96.0205 56.7214 92.3677 62.2004 92.3677C65.9492 92.5599 69.6018 93.4251 73.0622 94.9631L77.6761 99.5771Z" fill="white" stroke="#263238" stroke-linecap="round" stroke-linejoin="round"/>
<path d="M77.2917 114.188C77.2917 114.188 77.484 115.919 74.8887 118.803" stroke="#263238" stroke-linecap="round" stroke-linejoin="round"/>
<path d="M65.9488 107.268C65.9488 108.325 65.4682 109.094 64.9876 109.094C64.507 109.094 64.0264 108.229 64.0264 107.268C64.0264 106.307 64.507 105.441 64.9876 105.441C65.4682 105.441 65.9488 106.21 65.9488 107.268Z" fill="#263238"/>
<path d="M72.8704 101.981C73.4471 101.981 73.8316 102.847 73.8316 103.808C73.8316 104.769 73.351 105.634 72.8704 105.634C72.3898 105.634 71.9092 104.769 71.9092 103.808C71.9092 102.847 72.2937 101.981 72.8704 101.981Z" fill="#263238"/>
<path d="M59.8936 104.961L66.8144 102.365L59.8936 104.961Z" stroke="#263238" stroke-linecap="round" stroke-linejoin="round"/>
<path d="M72.293 99.9616L79.2138 97.3662L72.293 99.9616Z" stroke="#263238" stroke-linecap="round" stroke-linejoin="round"/>
<path d="M68.2563 97.2698C68.737 96.3086 69.8904 95.0589 72.2935 94.0977" stroke="white" stroke-linecap="round" stroke-linejoin="round"/>
<path d="M57.5866 92.3677C57.5866 92.3677 54.6068 99.7694 52.2999 102.173L49.9929 104.576C49.9929 104.576 53.3572 113.323 53.0688 113.996C52.7805 114.573 52.2999 114.861 52.0115 114.092C51.7231 113.323 51.4348 112.65 50.7619 112.458C50.0891 112.362 48.0705 111.689 48.0705 111.689L43.745 103.518C43.745 103.518 40.5729 100.827 41.1497 98.2314C41.7264 95.636 43.9372 91.1181 43.9372 91.1181C43.9372 91.1181 42.3993 90.7336 42.8799 89.58C43.4566 88.4265 50.1852 87.8498 50.1852 87.8498C50.1852 87.8498 50.5697 84.3892 52.5882 83.7164C54.6068 83.0435 54.7029 83.7164 54.7029 83.7164C54.7029 83.7164 62.1043 79.2946 66.526 79.0062C70.9476 78.7178 85.366 88.6188 84.2125 90.2529C83.059 91.8871 78.4451 93.329 78.4451 93.329C78.4451 93.329 79.4064 105.921 78.9258 106.21L78.4451 106.498L75.4654 95.636C75.3692 95.4437 61.5276 94.6747 57.5866 92.3677Z" fill="#263238" stroke="#263238" stroke-miterlimit="10"/>
<path d="M69.4087 103.998C69.4087 103.998 70.5622 107.939 71.1389 108.324C71.6195 108.804 75.2721 109.093 75.2721 110.15C75.2721 111.208 72.1001 112.938 72.1001 112.938" stroke="#263238" stroke-miterlimit="10"/>
<g filter="url(#filter0_d_507_4758)">
<path d="M39 68L19.9413 49.9641L10.2711 49.9641C5.14759 49.9641 1 45.8065 1 40.6705L0.999997 10.2936C0.999997 5.15767 5.14759 1.00002 10.2711 1.00001L110.729 1.00001C115.852 1.00001 120 5.15766 120 10.2936L120 40.5482C120 45.6842 115.852 49.8418 110.729 49.8418L34.2139 49.8418L39 68Z" fill="white"/>
<path d="M38.6563 68.3632C38.8186 68.5167 39.063 68.544 39.2551 68.43C39.4472 68.3161 39.5404 68.0885 39.4835 67.8726L34.8627 50.3418L110.729 50.3418C116.13 50.3418 120.5 45.9592 120.5 40.5482L120.5 10.2936C120.5 4.88267 116.13 0.50001 110.729 0.50001L10.2711 0.500015C4.87031 0.500015 0.499997 4.88267 0.499997 10.2936L0.500002 40.6705C0.500002 46.0815 4.87031 50.4641 10.2711 50.4641L19.7422 50.4641L38.6563 68.3632Z" stroke="#333E63" stroke-linecap="round" stroke-linejoin="round"/>
</g>
<path d="M12.652 10.2H13.674V18.32L19.946 10.2H20.884V20H19.862V11.894L13.59 20H12.652V10.2ZM33.1751 12.636V20H32.1811V16.934C31.3318 17.3073 30.4965 17.494 29.6751 17.494C28.7885 17.494 28.0978 17.2933 27.6031 16.892C27.1085 16.4813 26.8611 15.87 26.8611 15.058V12.636H27.8551V15.002C27.8551 15.5527 28.0325 15.9727 28.3871 16.262C28.7418 16.542 29.2318 16.682 29.8571 16.682C30.5478 16.682 31.3225 16.5 32.1811 16.136V12.636H33.1751ZM41.178 13.518H38.392V20H37.398V13.518H34.612V12.636H41.178V13.518ZM45.3114 20.07C44.602 20.07 43.9627 19.9113 43.3934 19.594C42.824 19.2673 42.376 18.8193 42.0494 18.25C41.7227 17.6807 41.5594 17.0367 41.5594 16.318C41.5594 15.5993 41.7227 14.9553 42.0494 14.386C42.376 13.8167 42.824 13.3733 43.3934 13.056C43.9627 12.7387 44.602 12.58 45.3114 12.58C46.0207 12.58 46.66 12.7387 47.2294 13.056C47.7987 13.3733 48.242 13.8167 48.5594 14.386C48.886 14.9553 49.0494 15.5993 49.0494 16.318C49.0494 17.0367 48.886 17.6807 48.5594 18.25C48.242 18.8193 47.7987 19.2673 47.2294 19.594C46.66 19.9113 46.0207 20.07 45.3114 20.07ZM45.3114 19.188C45.834 19.188 46.3007 19.0713 46.7114 18.838C47.1314 18.5953 47.458 18.2547 47.6914 17.816C47.9247 17.3773 48.0414 16.878 48.0414 16.318C48.0414 15.758 47.9247 15.2587 47.6914 14.82C47.458 14.3813 47.1314 14.0453 46.7114 13.812C46.3007 13.5693 45.834 13.448 45.3114 13.448C44.7887 13.448 44.3174 13.5693 43.8974 13.812C43.4867 14.0453 43.16 14.3813 42.9174 14.82C42.684 15.2587 42.5674 15.758 42.5674 16.318C42.5674 16.878 42.684 17.3773 42.9174 17.816C43.16 18.2547 43.4867 18.5953 43.8974 18.838C44.3174 19.0713 44.7887 19.188 45.3114 19.188ZM59.5278 16.192C60.5265 16.4253 61.0258 17.0273 61.0258 17.998C61.0258 18.642 60.7878 19.1367 60.3118 19.482C59.8358 19.8273 59.1265 20 58.1838 20H54.8378V12.636H58.0858C58.9258 12.636 59.5838 12.7993 60.0598 13.126C60.5358 13.4527 60.7738 13.9193 60.7738 14.526C60.7738 14.9273 60.6618 15.2727 60.4378 15.562C60.2232 15.842 59.9198 16.052 59.5278 16.192ZM55.8038 15.912H58.0158C58.5852 15.912 59.0192 15.8047 59.3178 15.59C59.6258 15.3753 59.7798 15.0627 59.7798 14.652C59.7798 14.2413 59.6258 13.9333 59.3178 13.728C59.0192 13.5227 58.5852 13.42 58.0158 13.42H55.8038V15.912ZM58.1418 19.216C58.7765 19.216 59.2525 19.1133 59.5698 18.908C59.8872 18.7027 60.0458 18.3807 60.0458 17.942C60.0458 17.5033 59.9012 17.1813 59.6118 16.976C59.3225 16.7613 58.8652 16.654 58.2398 16.654H55.8038V19.216H58.1418ZM66.4494 15.24C67.3734 15.2493 68.0781 15.4547 68.5634 15.856C69.0487 16.2573 69.2914 16.836 69.2914 17.592C69.2914 18.376 69.0301 18.978 68.5074 19.398C67.9847 19.818 67.2381 20.0233 66.2674 20.014L63.3554 20V12.636H64.3494V15.212L66.4494 15.24ZM70.5234 12.636H71.5174V20H70.5234V12.636ZM66.2114 19.258C66.8927 19.2673 67.4061 19.132 67.7514 18.852C68.1061 18.5627 68.2834 18.1427 68.2834 17.592C68.2834 17.0507 68.1107 16.6493 67.7654 16.388C67.4201 16.1267 66.9021 15.9913 66.2114 15.982L64.3494 15.954V19.23L66.2114 19.258ZM19.022 29.636V37H18.028V30.518H13.408V37H12.414V29.636H19.022ZM25.6416 29.58C26.3323 29.58 26.9576 29.7387 27.5176 30.056C28.0776 30.364 28.5163 30.8027 28.8336 31.372C29.1509 31.9413 29.3096 32.59 29.3096 33.318C29.3096 34.0553 29.1509 34.7087 28.8336 35.278C28.5163 35.8473 28.0776 36.2907 27.5176 36.608C26.9669 36.916 26.3416 37.07 25.6416 37.07C25.0443 37.07 24.5029 36.9487 24.0176 36.706C23.5416 36.454 23.1496 36.09 22.8416 35.614V39.716H21.8476V29.636H22.7996V31.092C23.0983 30.6067 23.4903 30.2333 23.9756 29.972C24.4703 29.7107 25.0256 29.58 25.6416 29.58ZM25.5716 36.188C26.0849 36.188 26.5516 36.0713 26.9716 35.838C27.3916 35.5953 27.7183 35.2547 27.9516 34.816C28.1943 34.3773 28.3156 33.878 28.3156 33.318C28.3156 32.758 28.1943 32.2633 27.9516 31.834C27.7183 31.3953 27.3916 31.0547 26.9716 30.812C26.5516 30.5693 26.0849 30.448 25.5716 30.448C25.0489 30.448 24.5776 30.5693 24.1576 30.812C23.7469 31.0547 23.4203 31.3953 23.1776 31.834C22.9443 32.2633 22.8276 32.758 22.8276 33.318C22.8276 33.878 22.9443 34.3773 23.1776 34.816C23.4203 35.2547 23.7469 35.5953 24.1576 35.838C24.5776 36.0713 25.0489 36.188 25.5716 36.188ZM37.8853 33.626H31.7253C31.7813 34.3913 32.0753 35.012 32.6073 35.488C33.1393 35.9547 33.8113 36.188 34.6233 36.188C35.0806 36.188 35.5006 36.1087 35.8833 35.95C36.2659 35.782 36.5973 35.5393 36.8773 35.222L37.4373 35.866C37.1106 36.258 36.6999 36.5567 36.2053 36.762C35.7199 36.9673 35.1833 37.07 34.5953 37.07C33.8393 37.07 33.1673 36.9113 32.5793 36.594C32.0006 36.2673 31.5479 35.8193 31.2213 35.25C30.8946 34.6807 30.7313 34.0367 30.7313 33.318C30.7313 32.5993 30.8853 31.9553 31.1933 31.386C31.5106 30.8167 31.9399 30.3733 32.4813 30.056C33.0319 29.7387 33.6479 29.58 34.3293 29.58C35.0106 29.58 35.6219 29.7387 36.1633 30.056C36.7046 30.3733 37.1293 30.8167 37.4373 31.386C37.7453 31.946 37.8993 32.59 37.8993 33.318L37.8853 33.626ZM34.3293 30.434C33.6199 30.434 33.0226 30.6627 32.5373 31.12C32.0613 31.568 31.7906 32.156 31.7253 32.884H36.9473C36.8819 32.156 36.6066 31.568 36.1213 31.12C35.6453 30.6627 35.0479 30.434 34.3293 30.434ZM47.1312 36.132V38.778H46.1932V37H39.5992V38.778H38.6612V36.132H39.0812C39.5758 36.104 39.9118 35.74 40.0892 35.04C40.2665 34.34 40.3878 33.36 40.4532 32.1L40.5512 29.636H45.9832V36.132H47.1312ZM41.3632 32.156C41.3165 33.2013 41.2278 34.0647 41.0972 34.746C40.9665 35.418 40.7332 35.88 40.3972 36.132H44.9892V30.518H41.4472L41.3632 32.156ZM55.0883 29.636V37H54.0943V30.518H50.5663L50.4683 32.338C50.3936 33.8687 50.2163 35.0447 49.9363 35.866C49.6563 36.6873 49.157 37.098 48.4383 37.098C48.2423 37.098 48.0043 37.0607 47.7243 36.986L47.7943 36.132C47.9623 36.1693 48.079 36.188 48.1443 36.188C48.527 36.188 48.8163 36.0107 49.0123 35.656C49.2083 35.3013 49.339 34.8627 49.4043 34.34C49.4696 33.8173 49.5256 33.1267 49.5723 32.268L49.6983 29.636H55.0883ZM60.448 29.58C61.4093 29.58 62.1467 29.8227 62.66 30.308C63.1733 30.784 63.43 31.4933 63.43 32.436V37H62.478V35.852C62.254 36.2347 61.9227 36.5333 61.484 36.748C61.0547 36.9627 60.5413 37.07 59.944 37.07C59.1227 37.07 58.4693 36.874 57.984 36.482C57.4987 36.09 57.256 35.572 57.256 34.928C57.256 34.3027 57.48 33.7987 57.928 33.416C58.3853 33.0333 59.1087 32.842 60.098 32.842H62.436V32.394C62.436 31.7593 62.2587 31.2787 61.904 30.952C61.5493 30.616 61.0313 30.448 60.35 30.448C59.8833 30.448 59.4353 30.5273 59.006 30.686C58.5767 30.8353 58.208 31.0453 57.9 31.316L57.452 30.574C57.8253 30.2567 58.2733 30.014 58.796 29.846C59.3187 29.6687 59.8693 29.58 60.448 29.58ZM60.098 36.286C60.658 36.286 61.1387 36.16 61.54 35.908C61.9413 35.6467 62.24 35.2733 62.436 34.788V33.584H60.126C58.866 33.584 58.236 34.0227 58.236 34.9C58.236 35.3293 58.3993 35.67 58.726 35.922C59.0527 36.1647 59.51 36.286 60.098 36.286ZM71.2841 30.518H67.0701V37H66.0761V29.636H71.2841V30.518ZM75.2546 29.58C76.216 29.58 76.9533 29.8227 77.4666 30.308C77.98 30.784 78.2366 31.4933 78.2366 32.436V37H77.2846V35.852C77.0606 36.2347 76.7293 36.5333 76.2906 36.748C75.8613 36.9627 75.348 37.07 74.7506 37.07C73.9293 37.07 73.276 36.874 72.7906 36.482C72.3053 36.09 72.0626 35.572 72.0626 34.928C72.0626 34.3027 72.2866 33.7987 72.7346 33.416C73.192 33.0333 73.9153 32.842 74.9046 32.842H77.2426V32.394C77.2426 31.7593 77.0653 31.2787 76.7106 30.952C76.356 30.616 75.838 30.448 75.1566 30.448C74.69 30.448 74.242 30.5273 73.8126 30.686C73.3833 30.8353 73.0146 31.0453 72.7066 31.316L72.2586 30.574C72.632 30.2567 73.08 30.014 73.6026 29.846C74.1253 29.6687 74.676 29.58 75.2546 29.58ZM74.9046 36.286C75.4646 36.286 75.9453 36.16 76.3466 35.908C76.748 35.6467 77.0466 35.2733 77.2426 34.788V33.584H74.9326C73.6726 33.584 73.0426 34.0227 73.0426 34.9C73.0426 35.3293 73.206 35.67 73.5326 35.922C73.8593 36.1647 74.3166 36.286 74.9046 36.286ZM87.3228 33.626H81.1628C81.2188 34.3913 81.5128 35.012 82.0448 35.488C82.5768 35.9547 83.2488 36.188 84.0608 36.188C84.5181 36.188 84.9381 36.1087 85.3208 35.95C85.7034 35.782 86.0348 35.5393 86.3148 35.222L86.8748 35.866C86.5481 36.258 86.1374 36.5567 85.6428 36.762C85.1574 36.9673 84.6208 37.07 84.0328 37.07C83.2768 37.07 82.6048 36.9113 82.0168 36.594C81.4381 36.2673 80.9854 35.8193 80.6588 35.25C80.3321 34.6807 80.1688 34.0367 80.1688 33.318C80.1688 32.5993 80.3228 31.9553 80.6308 31.386C80.9481 30.8167 81.3774 30.3733 81.9188 30.056C82.4694 29.7387 83.0854 29.58 83.7668 29.58C84.4481 29.58 85.0594 29.7387 85.6008 30.056C86.1421 30.3733 86.5668 30.8167 86.8748 31.386C87.1828 31.946 87.3368 32.59 87.3368 33.318L87.3228 33.626ZM83.7668 30.434C83.0574 30.434 82.4601 30.6627 81.9748 31.12C81.4988 31.568 81.2281 32.156 81.1628 32.884H86.3848C86.3194 32.156 86.0441 31.568 85.5588 31.12C85.0828 30.6627 84.4854 30.434 83.7668 30.434ZM94.3889 30.518H91.6029V37H90.6089V30.518H87.8229V29.636H94.3889V30.518ZM101.924 33.626H95.7643C95.8203 34.3913 96.1143 35.012 96.6463 35.488C97.1783 35.9547 97.8503 36.188 98.6623 36.188C99.1196 36.188 99.5396 36.1087 99.9223 35.95C100.305 35.782 100.636 35.5393 100.916 35.222L101.476 35.866C101.15 36.258 100.739 36.5567 100.244 36.762C99.759 36.9673 99.2223 37.07 98.6343 37.07C97.8783 37.07 97.2063 36.9113 96.6183 36.594C96.0396 36.2673 95.587 35.8193 95.2603 35.25C94.9336 34.6807 94.7703 34.0367 94.7703 33.318C94.7703 32.5993 94.9243 31.9553 95.2323 31.386C95.5496 30.8167 95.979 30.3733 96.5203 30.056C97.071 29.7387 97.687 29.58 98.3683 29.58C99.0496 29.58 99.661 29.7387 100.202 30.056C100.744 30.3733 101.168 30.8167 101.476 31.386C101.784 31.946 101.938 32.59 101.938 33.318L101.924 33.626ZM98.3683 30.434C97.659 30.434 97.0616 30.6627 96.5763 31.12C96.1003 31.568 95.8296 32.156 95.7643 32.884H100.986C100.921 32.156 100.646 31.568 100.16 31.12C99.6843 30.6627 99.087 30.434 98.3683 30.434ZM105.345 34.06C105.345 33.6773 105.405 33.3413 105.527 33.052C105.657 32.7627 105.816 32.5153 106.003 32.31C106.189 32.1047 106.432 31.8713 106.731 31.61C107.132 31.2553 107.426 30.9473 107.613 30.686C107.809 30.4153 107.907 30.0887 107.907 29.706C107.907 29.1927 107.706 28.782 107.305 28.474C106.903 28.1567 106.353 27.998 105.653 27.998C104.495 27.998 103.604 28.376 102.979 29.132L102.237 28.572C103.03 27.6013 104.192 27.116 105.723 27.116C106.703 27.116 107.482 27.3353 108.061 27.774C108.649 28.2127 108.943 28.8053 108.943 29.552C108.943 29.9347 108.877 30.2753 108.747 30.574C108.625 30.8633 108.471 31.1107 108.285 31.316C108.107 31.5213 107.869 31.7593 107.571 32.03C107.169 32.394 106.871 32.7207 106.675 33.01C106.479 33.29 106.381 33.64 106.381 34.06H105.345ZM105.863 37.07C105.657 37.07 105.485 37 105.345 36.86C105.205 36.7107 105.135 36.538 105.135 36.342C105.135 36.1367 105.205 35.9687 105.345 35.838C105.485 35.698 105.657 35.628 105.863 35.628C106.077 35.628 106.255 35.698 106.395 35.838C106.535 35.9687 106.605 36.1367 106.605 36.342C106.605 36.538 106.53 36.7107 106.381 36.86C106.241 37 106.068 37.07 105.863 37.07Z" fill="#333E63"/>
<defs>
<filter id="filter0_d_507_4758" x="0" y="0" width="126" height="74" filterUnits="userSpaceOnUse" color-interpolation-filters="sRGB">
<feFlood flood-opacity="0" result="BackgroundImageFix"/>
<feColorMatrix in="SourceAlpha" type="matrix" values="0 0 0 0 0 0 0 0 0 0 0 0 0 0 0 0 0 0 127 0" result="hardAlpha"/>
<feOffset dx="5" dy="5"/>
<feComposite in2="hardAlpha" operator="out"/>
<feColorMatrix type="matrix" values="0 0 0 0 0.2 0 0 0 0 0.243137 0 0 0 0 0.388235 0 0 0 1 0"/>
<feBlend mode="normal" in2="BackgroundImageFix" result="effect1_dropShadow_507_4758"/>
<feBlend mode="normal" in="SourceGraphic" in2="effect1_dropShadow_507_4758" result="shape"/>
</filter>
</defs>
</svg>
