<svg width="395" height="474" viewBox="0 0 395 474" fill="none" xmlns="http://www.w3.org/2000/svg">
<path d="M29.7198 288.834L24.0942 295.425C24.0942 295.425 3.54725 291.869 3.1235 293.352C2.69974 294.835 -0.101781 305.262 0.957309 305.921C1.6869 306.486 2.6754 306.768 3.59333 306.674L35.2496 307.523L41.8642 294.978L29.7198 288.834Z" fill="white" stroke="#263238" stroke-linecap="round" stroke-linejoin="round"/>
<path d="M20.3053 300.579C15.8333 302.509 11.1259 304.015 6.34797 305.145C0.958099 305.921 -0.148327 309.169 1.33443 309.593C2.81719 310.017 17.9276 308.276 17.9276 308.276C17.9276 308.276 31.0138 308.629 33.1086 308.159C35.2033 307.688 36.9218 302.298 36.9218 302.298" fill="white"/>
<path d="M20.3053 300.579C15.8333 302.509 11.1259 304.015 6.34797 305.145C0.958099 305.921 -0.148327 309.169 1.33443 309.593C2.81719 310.017 17.9276 308.276 17.9276 308.276C17.9276 308.276 31.0138 308.629 33.1086 308.159C35.2033 307.688 36.9218 302.298 36.9218 302.298" stroke="#263238" stroke-linecap="round" stroke-linejoin="round"/>
<path d="M43.5165 155L30.8099 243.477L22 291.779L41.4835 296L56.0537 238.787L63 202.834L43.5165 155Z" fill="#B0BEC5" stroke="#263238" stroke-miterlimit="10"/>
<path d="M144.883 84.8885L137.001 83.689L121.066 77.5203L120.552 96.5405L145.226 98.7681L144.883 84.8885Z" fill="white" stroke="#263238" stroke-linecap="round" stroke-linejoin="round"/>
<path d="M55.4396 427.081C49.6138 433.935 44.1307 440.96 39.1617 448.329C32.4791 458.439 34.878 469.234 43.1026 471.975C51.3273 474.717 61.608 467.349 64.3496 461.523C67.0911 455.697 66.2344 452.613 70.5181 446.786C74.8017 440.96 78.2287 435.135 76.6865 427.424C75.1444 419.713 59.5519 421.769 55.4396 427.081Z" fill="white" stroke="#263238" stroke-miterlimit="10"/>
<path d="M61.6081 459.295C59.2093 462.722 56.1251 472.147 44.1308 468.206C40.7039 467.349 37.791 465.464 35.5635 462.894C36.0775 467.178 38.9904 470.776 43.1027 472.147C51.156 474.888 61.6082 467.52 64.3497 461.694C67.0912 455.868 66.2345 452.784 70.5182 446.958C74.8018 441.132 78.2288 435.306 76.6866 427.595C76.6866 436.848 73.2597 438.39 68.976 443.531C64.6924 448.671 63.8357 455.868 61.6081 459.295Z" fill="white" stroke="#263238" stroke-linecap="round" stroke-linejoin="round"/>
<path d="M169.727 427.081C175.553 433.935 181.036 440.96 186.005 448.329C192.688 458.439 190.289 469.234 182.064 471.975C173.84 474.717 163.559 467.349 160.817 461.523C158.076 455.697 158.933 452.613 154.649 446.786C150.365 440.96 146.938 435.135 148.481 427.424C150.023 419.713 165.444 421.769 169.727 427.081Z" fill="white" stroke="#263238" stroke-miterlimit="10"/>
<path d="M163.559 459.295C165.958 462.722 169.042 472.147 181.036 468.206C184.463 467.349 187.376 465.464 189.604 462.894C189.09 467.178 186.177 470.776 182.064 472.147C174.011 474.888 163.559 467.52 160.817 461.694C158.076 455.868 158.933 452.784 154.649 446.958C150.365 441.132 146.938 435.306 148.481 427.595C148.481 436.848 151.907 438.39 156.191 443.531C160.475 448.671 161.16 455.868 163.559 459.295Z" fill="white" stroke="#263238" stroke-linecap="round" stroke-linejoin="round"/>
<path d="M187.891 293.597C187.891 286.571 175.896 278.86 175.896 278.86C157.905 260.525 125.178 262.924 113.184 264.467C101.189 262.753 68.4622 260.354 50.4708 278.86C50.4708 278.86 38.4766 286.571 38.4766 293.597C38.4766 300.622 53.5551 426.395 53.5551 426.395C53.5551 426.395 53.2124 432.907 64.0072 433.764C74.802 434.62 79.4284 428.28 79.4284 428.28L83.712 321.87C83.712 321.87 101.189 309.533 104.274 309.018C105.473 308.847 106.844 308.676 108.557 308.333V308.504C111.642 307.819 114.726 307.819 117.81 308.504V308.333C119.523 308.504 120.894 308.847 122.094 309.018C125.178 309.361 142.655 321.87 142.655 321.87L146.939 428.28C146.939 428.28 151.565 434.449 162.36 433.764C173.155 433.078 172.812 426.395 172.812 426.395C172.812 426.395 187.891 300.451 187.891 293.597Z" fill="#263238" stroke="#263238" stroke-linecap="round" stroke-linejoin="round"/>
<path d="M142.483 321.87C142.483 321.87 140.084 296.338 151.393 286.571" stroke="#707070" stroke-linecap="round" stroke-linejoin="round"/>
<path d="M83.7126 321.87C83.7126 321.87 84.912 300.622 82.5132 292.911C80.1143 285.2 76.3447 282.116 76.3447 282.116" stroke="#707070" stroke-linecap="round" stroke-linejoin="round"/>
<path d="M97.9346 271.149C97.9346 271.149 110.272 285.543 112.67 297.538" stroke="#707070" stroke-linecap="round" stroke-linejoin="round"/>
<path d="M125.178 271.835C125.178 271.835 118.153 279.546 117.468 285.372" stroke="#707070" stroke-linecap="round" stroke-linejoin="round"/>
<path d="M68.4629 124.471C74.2887 123.614 138.886 124.3 144.883 124.128C152.594 124.128 160.305 124.471 160.305 124.471L179.667 105.965L140.771 97.0545L143.855 79.2338C143.855 79.2338 172.47 77.3489 186.863 79.9192C201.256 82.4895 223.703 89.6863 224.731 89.6863C225.759 89.6863 227.473 93.9701 226.273 97.0545C225.074 100.139 188.748 140.407 177.782 150.859C170.585 157.885 163.903 165.253 157.563 172.964L152.594 259.326C152.594 259.326 152.594 262.582 152.423 265.152C152.251 268.408 146.426 269.436 146.426 269.436C146.426 269.436 129.291 271.663 123.122 271.663C84.3982 271.663 74.6314 272.863 73.2606 264.981C72.7466 262.41 62.1231 205.692 62.1231 205.692L43.1036 152.916C42.9323 153.087 62.6372 124.471 68.4629 124.471Z" fill="#B0BEC5" stroke="#263238" stroke-miterlimit="10"/>
<path d="M92.2794 112.99C92.2794 112.99 85.0829 118.645 84.7402 120.873C84.3975 122.758 84.3975 124.471 84.3975 126.356C84.3975 126.356 92.7934 167.995 94.1642 166.967C95.535 165.939 106.158 149.831 108.386 146.918C110.442 144.005 114.726 143.32 115.754 144.005C116.782 144.691 135.801 164.91 136.829 161.483C137.858 158.056 131.689 126.185 126.891 118.131C121.922 110.077 95.8777 109.049 92.2794 112.99Z" fill="white" stroke="#263238" stroke-miterlimit="10"/>
<path d="M93.4785 129.098L97.2481 149.66C97.2481 149.66 110.27 179.475 116.096 177.419C122.093 175.363 126.206 145.205 126.377 144.519C126.548 143.834 125.863 132.182 125.863 132.182C125.863 132.182 126.72 135.438 113.869 133.895C107.015 133.039 100.161 131.496 93.4785 129.098Z" fill="white" stroke="#263238" stroke-miterlimit="10"/>
<path d="M161.675 135.609L157.049 176.391L169.043 141.778" stroke="#263238" stroke-linecap="round" stroke-linejoin="round"/>
<path d="M179.152 109.392C179.152 109.392 188.748 111.277 203.484 105.451" stroke="#263238" stroke-linecap="round" stroke-linejoin="round"/>
<path d="M189.262 111.962C195.602 112.134 201.941 111.62 208.281 110.42" stroke="#263238" stroke-linecap="round" stroke-linejoin="round"/>
<path d="M129.12 85.7452C129.12 85.7452 134.603 109.392 135.631 113.162C136.659 116.931 129.462 132.182 127.063 135.609C125.179 138.693 122.094 140.75 118.496 141.092C115.755 141.092 101.019 136.123 97.5918 133.724C94.1649 131.325 90.5666 128.755 90.5666 128.755C87.1396 130.297 83.1987 129.612 80.4571 127.213C75.8308 122.929 69.6623 117.96 71.2044 114.361C72.7465 110.934 76.3448 108.707 80.1144 108.878C84.3981 108.878 82.856 108.535 82.856 108.535C82.856 108.535 75.1454 97.2258 75.1454 88.3155C75.1454 79.4051 91.766 72.8937 101.533 72.8937C108.215 73.2364 114.726 74.7786 120.895 77.5202L129.12 85.7452Z" fill="white" stroke="#263238" stroke-linecap="round" stroke-linejoin="round"/>
<path d="M128.434 111.791C128.434 111.791 128.777 114.875 124.15 120.016" stroke="#263238" stroke-linecap="round" stroke-linejoin="round"/>
<path d="M108.214 99.4535C108.214 101.338 107.357 102.709 106.501 102.709C105.644 102.709 104.787 101.167 104.787 99.4535C104.787 97.7399 105.644 96.1978 106.501 96.1978C107.357 96.1978 108.214 97.5686 108.214 99.4535Z" fill="#263238"/>
<path d="M120.552 90.0291C121.58 90.0291 122.266 91.5712 122.266 93.2848C122.266 94.9983 121.409 96.5405 120.552 96.5405C119.696 96.5405 118.839 94.9983 118.839 93.2848C118.839 91.5712 119.524 90.0291 120.552 90.0291Z" fill="#263238"/>
<path d="M97.4199 95.3409L109.757 90.7144L97.4199 95.3409Z" stroke="#263238" stroke-linecap="round" stroke-linejoin="round"/>
<path d="M119.523 86.4306L131.86 81.8041L119.523 86.4306Z" stroke="#263238" stroke-linecap="round" stroke-linejoin="round"/>
<path d="M112.327 81.6327C113.184 79.9192 115.24 77.6916 119.524 75.978" stroke="white" stroke-linecap="round" stroke-linejoin="round"/>
<path d="M93.308 72.8937C93.308 72.8937 87.9963 86.0879 83.884 90.3717L79.7716 94.6555C79.7716 94.6555 85.7688 110.249 85.2547 111.448C84.7407 112.476 83.8839 112.99 83.3699 111.62C82.8559 110.249 82.3418 109.049 81.1424 108.707C79.943 108.535 76.3447 107.336 76.3447 107.336L68.6341 92.7707C68.6341 92.7707 62.9797 87.9728 64.0078 83.3462C65.0358 78.7197 68.9768 70.6661 68.9768 70.6661C68.9768 70.6661 66.2353 69.9807 67.092 67.9244C68.1201 65.8682 80.1143 64.8401 80.1143 64.8401C80.1143 64.8401 80.7997 58.6714 84.398 57.4719C87.9963 56.2724 88.1676 57.4719 88.1676 57.4719C88.1676 57.4719 101.361 49.5896 109.243 49.0756C117.125 48.5615 142.827 66.2109 140.771 69.1239C138.715 72.0369 130.49 74.6072 130.49 74.6072C130.49 74.6072 132.204 97.0545 131.347 97.5685L130.49 98.0826L125.178 78.7197C125.007 78.377 100.333 77.0062 93.308 72.8937Z" fill="#263238" stroke="#263238" stroke-miterlimit="10"/>
<path d="M114.383 93.6274C114.383 93.6274 116.439 100.653 117.467 101.338C118.324 102.195 124.835 102.709 124.835 104.594C124.835 106.479 119.181 109.563 119.181 109.563" stroke="#263238" stroke-miterlimit="10"/>
<g filter="url(#filter0_d_1111_2750)">
<path d="M174 60.4367L223.036 34.9413V10.2711C223.036 5.14759 227.194 1 232.329 1H379.706C384.842 1 389 5.14759 389 10.2711V58.7289C389 63.8524 384.842 68 379.706 68H232.452C227.316 68 223.158 63.8524 223.158 58.7289V49.2139L174 60.4367Z" fill="white"/>
<path d="M173.769 59.9931C173.546 60.1092 173.444 60.373 173.531 60.6091C173.617 60.8453 173.866 60.9802 174.111 60.9242L222.658 49.8409V58.7289C222.658 64.1297 227.041 68.5 232.452 68.5H379.706C385.117 68.5 389.5 64.1297 389.5 58.7289V10.2711C389.5 4.87031 385.117 0.5 379.706 0.5H232.329C226.919 0.5 222.536 4.87031 222.536 10.2711V34.6377L173.769 59.9931Z" stroke="#333E63" stroke-linecap="round" stroke-linejoin="round"/>
</g>
<path d="M245.124 16.4H246.438V26.84L254.502 16.4H255.708V29H254.394V18.578L246.33 29H245.124V16.4ZM271.511 19.532V29H270.233V25.058C269.141 25.538 268.067 25.778 267.011 25.778C265.871 25.778 264.983 25.52 264.347 25.004C263.711 24.476 263.393 23.69 263.393 22.646V19.532H264.671V22.574C264.671 23.282 264.899 23.822 265.355 24.194C265.811 24.554 266.441 24.734 267.245 24.734C268.133 24.734 269.129 24.5 270.233 24.032V19.532H271.511ZM281.8 20.666H278.218V29H276.94V20.666H273.358V19.532H281.8V20.666ZM287.115 29.09C286.203 29.09 285.381 28.886 284.649 28.478C283.917 28.058 283.341 27.482 282.921 26.75C282.501 26.018 282.291 25.19 282.291 24.266C282.291 23.342 282.501 22.514 282.921 21.782C283.341 21.05 283.917 20.48 284.649 20.072C285.381 19.664 286.203 19.46 287.115 19.46C288.027 19.46 288.849 19.664 289.581 20.072C290.313 20.48 290.883 21.05 291.291 21.782C291.711 22.514 291.921 23.342 291.921 24.266C291.921 25.19 291.711 26.018 291.291 26.75C290.883 27.482 290.313 28.058 289.581 28.478C288.849 28.886 288.027 29.09 287.115 29.09ZM287.115 27.956C287.787 27.956 288.387 27.806 288.915 27.506C289.455 27.194 289.875 26.756 290.175 26.192C290.475 25.628 290.625 24.986 290.625 24.266C290.625 23.546 290.475 22.904 290.175 22.34C289.875 21.776 289.455 21.344 288.915 21.044C288.387 20.732 287.787 20.576 287.115 20.576C286.443 20.576 285.837 20.732 285.297 21.044C284.769 21.344 284.349 21.776 284.037 22.34C283.737 22.904 283.587 23.546 283.587 24.266C283.587 24.986 283.737 25.628 284.037 26.192C284.349 26.756 284.769 27.194 285.297 27.506C285.837 27.806 286.443 27.956 287.115 27.956ZM305.393 24.104C306.677 24.404 307.319 25.178 307.319 26.426C307.319 27.254 307.013 27.89 306.401 28.334C305.789 28.778 304.877 29 303.665 29H299.363V19.532H303.539C304.619 19.532 305.465 19.742 306.077 20.162C306.689 20.582 306.995 21.182 306.995 21.962C306.995 22.478 306.851 22.922 306.563 23.294C306.287 23.654 305.897 23.924 305.393 24.104ZM300.605 23.744H303.449C304.181 23.744 304.739 23.606 305.123 23.33C305.519 23.054 305.717 22.652 305.717 22.124C305.717 21.596 305.519 21.2 305.123 20.936C304.739 20.672 304.181 20.54 303.449 20.54H300.605V23.744ZM303.611 27.992C304.427 27.992 305.039 27.86 305.447 27.596C305.855 27.332 306.059 26.918 306.059 26.354C306.059 25.79 305.873 25.376 305.501 25.112C305.129 24.836 304.541 24.698 303.737 24.698H300.605V27.992H303.611ZM314.292 22.88C315.48 22.892 316.386 23.156 317.01 23.672C317.634 24.188 317.946 24.932 317.946 25.904C317.946 26.912 317.61 27.686 316.938 28.226C316.266 28.766 315.306 29.03 314.058 29.018L310.314 29V19.532H311.592V22.844L314.292 22.88ZM319.53 19.532H320.808V29H319.53V19.532ZM313.986 28.046C314.862 28.058 315.522 27.884 315.966 27.524C316.422 27.152 316.65 26.612 316.65 25.904C316.65 25.208 316.428 24.692 315.984 24.356C315.54 24.02 314.874 23.846 313.986 23.834L311.592 23.798V28.01L313.986 28.046ZM253.314 41.532V51H252.036V42.666H246.096V51H244.818V41.532H253.314ZM261.825 41.46C262.713 41.46 263.517 41.664 264.237 42.072C264.957 42.468 265.521 43.032 265.929 43.764C266.337 44.496 266.541 45.33 266.541 46.266C266.541 47.214 266.337 48.054 265.929 48.786C265.521 49.518 264.957 50.088 264.237 50.496C263.529 50.892 262.725 51.09 261.825 51.09C261.057 51.09 260.361 50.934 259.737 50.622C259.125 50.298 258.621 49.83 258.225 49.218V54.492H256.947V41.532H258.171V43.404C258.555 42.78 259.059 42.3 259.683 41.964C260.319 41.628 261.033 41.46 261.825 41.46ZM261.735 49.956C262.395 49.956 262.995 49.806 263.535 49.506C264.075 49.194 264.495 48.756 264.795 48.192C265.107 47.628 265.263 46.986 265.263 46.266C265.263 45.546 265.107 44.91 264.795 44.358C264.495 43.794 264.075 43.356 263.535 43.044C262.995 42.732 262.395 42.576 261.735 42.576C261.063 42.576 260.457 42.732 259.917 43.044C259.389 43.356 258.969 43.794 258.657 44.358C258.357 44.91 258.207 45.546 258.207 46.266C258.207 46.986 258.357 47.628 258.657 48.192C258.969 48.756 259.389 49.194 259.917 49.506C260.457 49.806 261.063 49.956 261.735 49.956ZM277.567 46.662H269.647C269.719 47.646 270.097 48.444 270.781 49.056C271.465 49.656 272.329 49.956 273.373 49.956C273.961 49.956 274.501 49.854 274.993 49.65C275.485 49.434 275.911 49.122 276.271 48.714L276.991 49.542C276.571 50.046 276.043 50.43 275.407 50.694C274.783 50.958 274.093 51.09 273.337 51.09C272.365 51.09 271.501 50.886 270.745 50.478C270.001 50.058 269.419 49.482 268.999 48.75C268.579 48.018 268.369 47.19 268.369 46.266C268.369 45.342 268.567 44.514 268.963 43.782C269.371 43.05 269.923 42.48 270.619 42.072C271.327 41.664 272.119 41.46 272.995 41.46C273.871 41.46 274.657 41.664 275.353 42.072C276.049 42.48 276.595 43.05 276.991 43.782C277.387 44.502 277.585 45.33 277.585 46.266L277.567 46.662ZM272.995 42.558C272.083 42.558 271.315 42.852 270.691 43.44C270.079 44.016 269.731 44.772 269.647 45.708H276.361C276.277 44.772 275.923 44.016 275.299 43.44C274.687 42.852 273.919 42.558 272.995 42.558ZM289.454 49.884V53.286H288.248V51H279.77V53.286H278.564V49.884H279.104C279.74 49.848 280.172 49.38 280.4 48.48C280.628 47.58 280.784 46.32 280.868 44.7L280.994 41.532H287.978V49.884H289.454ZM282.038 44.772C281.978 46.116 281.864 47.226 281.696 48.102C281.528 48.966 281.228 49.56 280.796 49.884H286.7V42.666H282.146L282.038 44.772ZM299.685 41.532V51H298.407V42.666H293.871L293.745 45.006C293.649 46.974 293.421 48.486 293.061 49.542C292.701 50.598 292.059 51.126 291.135 51.126C290.883 51.126 290.577 51.078 290.217 50.982L290.307 49.884C290.523 49.932 290.673 49.956 290.757 49.956C291.249 49.956 291.621 49.728 291.873 49.272C292.125 48.816 292.293 48.252 292.377 47.58C292.461 46.908 292.533 46.02 292.593 44.916L292.755 41.532H299.685ZM306.576 41.46C307.812 41.46 308.76 41.772 309.42 42.396C310.08 43.008 310.41 43.92 310.41 45.132V51H309.186V49.524C308.898 50.016 308.472 50.4 307.908 50.676C307.356 50.952 306.696 51.09 305.928 51.09C304.872 51.09 304.032 50.838 303.408 50.334C302.784 49.83 302.472 49.164 302.472 48.336C302.472 47.532 302.76 46.884 303.336 46.392C303.924 45.9 304.854 45.654 306.126 45.654H309.132V45.078C309.132 44.262 308.904 43.644 308.448 43.224C307.992 42.792 307.326 42.576 306.45 42.576C305.85 42.576 305.274 42.678 304.722 42.882C304.17 43.074 303.696 43.344 303.3 43.692L302.724 42.738C303.204 42.33 303.78 42.018 304.452 41.802C305.124 41.574 305.832 41.46 306.576 41.46ZM306.126 50.082C306.846 50.082 307.464 49.92 307.98 49.596C308.496 49.26 308.88 48.78 309.132 48.156V46.608H306.162C304.542 46.608 303.732 47.172 303.732 48.3C303.732 48.852 303.942 49.29 304.362 49.614C304.782 49.926 305.37 50.082 306.126 50.082ZM320.508 42.666H315.09V51H313.812V41.532H320.508V42.666ZM325.613 41.46C326.849 41.46 327.797 41.772 328.457 42.396C329.117 43.008 329.447 43.92 329.447 45.132V51H328.223V49.524C327.935 50.016 327.509 50.4 326.945 50.676C326.393 50.952 325.733 51.09 324.965 51.09C323.909 51.09 323.069 50.838 322.445 50.334C321.821 49.83 321.509 49.164 321.509 48.336C321.509 47.532 321.797 46.884 322.373 46.392C322.961 45.9 323.891 45.654 325.163 45.654H328.169V45.078C328.169 44.262 327.941 43.644 327.485 43.224C327.029 42.792 326.363 42.576 325.487 42.576C324.887 42.576 324.311 42.678 323.759 42.882C323.207 43.074 322.733 43.344 322.337 43.692L321.761 42.738C322.241 42.33 322.817 42.018 323.489 41.802C324.161 41.574 324.869 41.46 325.613 41.46ZM325.163 50.082C325.883 50.082 326.501 49.92 327.017 49.596C327.533 49.26 327.917 48.78 328.169 48.156V46.608H325.199C323.579 46.608 322.769 47.172 322.769 48.3C322.769 48.852 322.979 49.29 323.399 49.614C323.819 49.926 324.407 50.082 325.163 50.082ZM341.129 46.662H333.209C333.281 47.646 333.659 48.444 334.343 49.056C335.027 49.656 335.891 49.956 336.935 49.956C337.523 49.956 338.063 49.854 338.555 49.65C339.047 49.434 339.473 49.122 339.833 48.714L340.553 49.542C340.133 50.046 339.605 50.43 338.969 50.694C338.345 50.958 337.655 51.09 336.899 51.09C335.927 51.09 335.063 50.886 334.307 50.478C333.563 50.058 332.981 49.482 332.561 48.75C332.141 48.018 331.931 47.19 331.931 46.266C331.931 45.342 332.129 44.514 332.525 43.782C332.933 43.05 333.485 42.48 334.181 42.072C334.889 41.664 335.681 41.46 336.557 41.46C337.433 41.46 338.219 41.664 338.915 42.072C339.611 42.48 340.157 43.05 340.553 43.782C340.949 44.502 341.147 45.33 341.147 46.266L341.129 46.662ZM336.557 42.558C335.645 42.558 334.877 42.852 334.253 43.44C333.641 44.016 333.293 44.772 333.209 45.708H339.923C339.839 44.772 339.485 44.016 338.861 43.44C338.249 42.852 337.481 42.558 336.557 42.558ZM350.214 42.666H346.632V51H345.354V42.666H341.772V41.532H350.214V42.666ZM359.903 46.662H351.983C352.055 47.646 352.433 48.444 353.117 49.056C353.801 49.656 354.665 49.956 355.709 49.956C356.297 49.956 356.837 49.854 357.329 49.65C357.821 49.434 358.247 49.122 358.607 48.714L359.327 49.542C358.907 50.046 358.379 50.43 357.743 50.694C357.119 50.958 356.429 51.09 355.673 51.09C354.701 51.09 353.837 50.886 353.081 50.478C352.337 50.058 351.755 49.482 351.335 48.75C350.915 48.018 350.705 47.19 350.705 46.266C350.705 45.342 350.903 44.514 351.299 43.782C351.707 43.05 352.259 42.48 352.955 42.072C353.663 41.664 354.455 41.46 355.331 41.46C356.207 41.46 356.993 41.664 357.689 42.072C358.385 42.48 358.931 43.05 359.327 43.782C359.723 44.502 359.921 45.33 359.921 46.266L359.903 46.662ZM355.331 42.558C354.419 42.558 353.651 42.852 353.027 43.44C352.415 44.016 352.067 44.772 351.983 45.708H358.697C358.613 44.772 358.259 44.016 357.635 43.44C357.023 42.852 356.255 42.558 355.331 42.558ZM364.3 47.22C364.3 46.728 364.378 46.296 364.534 45.924C364.702 45.552 364.906 45.234 365.146 44.97C365.386 44.706 365.698 44.406 366.082 44.07C366.598 43.614 366.976 43.218 367.216 42.882C367.468 42.534 367.594 42.114 367.594 41.622C367.594 40.962 367.336 40.434 366.82 40.038C366.304 39.63 365.596 39.426 364.696 39.426C363.208 39.426 362.062 39.912 361.258 40.884L360.304 40.164C361.324 38.916 362.818 38.292 364.786 38.292C366.046 38.292 367.048 38.574 367.792 39.138C368.548 39.702 368.926 40.464 368.926 41.424C368.926 41.916 368.842 42.354 368.674 42.738C368.518 43.11 368.32 43.428 368.08 43.692C367.852 43.956 367.546 44.262 367.162 44.61C366.646 45.078 366.262 45.498 366.01 45.87C365.758 46.23 365.632 46.68 365.632 47.22H364.3ZM364.966 51.09C364.702 51.09 364.48 51 364.3 50.82C364.12 50.628 364.03 50.406 364.03 50.154C364.03 49.89 364.12 49.674 364.3 49.506C364.48 49.326 364.702 49.236 364.966 49.236C365.242 49.236 365.47 49.326 365.65 49.506C365.83 49.674 365.92 49.89 365.92 50.154C365.92 50.406 365.824 50.628 365.632 50.82C365.452 51 365.23 51.09 364.966 51.09Z" fill="#333E63"/>
<defs>
<filter id="filter0_d_1111_2750" x="173" y="0" width="222" height="74" filterUnits="userSpaceOnUse" color-interpolation-filters="sRGB">
<feFlood flood-opacity="0" result="BackgroundImageFix"/>
<feColorMatrix in="SourceAlpha" type="matrix" values="0 0 0 0 0 0 0 0 0 0 0 0 0 0 0 0 0 0 127 0" result="hardAlpha"/>
<feOffset dx="5" dy="5"/>
<feComposite in2="hardAlpha" operator="out"/>
<feColorMatrix type="matrix" values="0 0 0 0 0.2 0 0 0 0 0.243137 0 0 0 0 0.388235 0 0 0 1 0"/>
<feBlend mode="normal" in2="BackgroundImageFix" result="effect1_dropShadow_1111_2750"/>
<feBlend mode="normal" in="SourceGraphic" in2="effect1_dropShadow_1111_2750" result="shape"/>
</filter>
</defs>
</svg>
